<?xml version="1.0" encoding="UTF-8" standalone="no"?>
<!DOCTYPE svg PUBLIC "-//W3C//DTD SVG 1.1//EN" "http://www.w3.org/Graphics/SVG/1.1/DTD/svg11.dtd">
<svg width="100%" height="100%" viewBox="0 0 1456 1838" version="1.1" xmlns="http://www.w3.org/2000/svg" xmlns:xlink="http://www.w3.org/1999/xlink" xml:space="preserve" xmlns:serif="http://www.serif.com/" style="fill-rule:evenodd;clip-rule:evenodd;stroke-linecap:round;stroke-linejoin:round;stroke-miterlimit:1.5;">
    <g transform="matrix(0.758111,0,0,0.765652,0,0)">
        <rect id="Artboard1" x="0" y="0" width="1920" height="2400" style="fill:none;"/>
        <g id="Artboard11" serif:id="Artboard1">
            <g transform="matrix(-1.31907,0,0,1.30608,2174.89,-50.1631)">
                <path d="M1335.55,1246.77C1352.86,1270.77 1367.89,1298.9 1367.47,1329.34C1367.26,1344.8 1360.88,1360.59 1352.74,1361.57C1345.15,1362.48 1334.8,1346.23 1329.26,1317.99C1324.93,1295.95 1338.41,1272.17 1335.55,1246.77Z" style="fill:none;stroke:rgb(39,145,239);stroke-width:14.67px;"/>
            </g>
            <g transform="matrix(-1.31907,0,0,1.30608,2174.89,-50.1631)">
                <path d="M1238.06,1093.64C1266.57,1109.44 1284.25,1127.15 1296.38,1145.82C1312.54,1170.67 1295.54,1199.45 1261.7,1171.76C1248.36,1160.85 1236.18,1125.58 1238.06,1093.64Z" style="fill:none;stroke:rgb(39,145,239);stroke-width:14.67px;"/>
            </g>
            <g transform="matrix(-1.31907,0,0,1.30608,2174.89,-50.1631)">
                <path d="M1193.61,1044.25C1222.74,1074.78 1240.09,1035.31 1203.59,1002.97" style="fill:none;stroke:rgb(39,145,239);stroke-width:14.67px;"/>
            </g>
            <g transform="matrix(-1.31907,0,0,1.30608,2174.89,-50.1631)">
                <path d="M1206.98,980.323C1239.78,999.269 1251.71,1028.23 1238.47,1069.28C1303.78,1095.64 1367.87,1163.63 1325.58,1212.56C1374.82,1260.21 1403.02,1299.99 1392.06,1361.76C1382.39,1397.88 1339.33,1409.02 1314.93,1369.12C1300.22,1345.06 1295,1318.71 1308.95,1280.95C1315.48,1263.26 1318.99,1243.55 1316.32,1219.71C1286.14,1225.19 1262.38,1212.93 1242.65,1189.56" style="fill:none;stroke:rgb(39,145,239);stroke-width:14.67px;"/>
            </g>
            <g transform="matrix(-1.31907,0,0,1.30608,2174.89,-50.1631)">
                <path d="M1186.9,1061.73C1192.2,1068.97 1199.46,1075.17 1212.13,1078.49C1210.39,1098.35 1211.11,1117.53 1218.21,1134.93" style="fill:none;stroke:rgb(39,145,239);stroke-width:14.67px;"/>
            </g>
            <g transform="matrix(-1.31907,0,0,1.30608,2174.89,-50.1631)">
                <path d="M1402.07,951.545C1433.95,946.08 1466.2,946.746 1498.87,954.64C1539.14,969.687 1540.13,1003.78 1507.71,999.136C1474.95,994.441 1435.8,967.161 1402.07,951.545Z" style="fill:none;stroke:rgb(39,145,239);stroke-width:14.67px;"/>
            </g>
            <g transform="matrix(-1.1599,0.621971,0.628157,1.14847,1462.48,-638.423)">
                <path d="M1416.64,944.47C1448.53,939.004 1468.39,925.107 1501.06,933C1574.87,954.838 1551,991.355 1518.57,986.709C1485.81,982.014 1450.37,960.085 1416.64,944.47Z" style="fill:none;stroke:rgb(39,145,239);stroke-width:14.67px;"/>
            </g>
            <g transform="matrix(-1.31907,0,0,1.30608,2174.89,-50.1631)">
                <path d="M1349.07,933.158C1385.63,954.974 1413.84,990.609 1451.81,1010.28C1558.28,1065.44 1615.46,1005.58 1555.4,938.626C1499.65,898.923 1426.31,896.675 1349.07,933.158Z" style="fill:none;stroke:rgb(39,145,239);stroke-width:14.67px;"/>
            </g>
            <g transform="matrix(-1.1599,0.621971,0.628157,1.14847,1462.48,-638.423)">
                <path d="M1349.07,933.158C1385.63,954.974 1436.37,980.631 1472.82,1002.99C1560.57,1056.83 1634.37,988.381 1574.32,921.429C1518.57,881.726 1426.31,896.675 1349.07,933.158Z" style="fill:none;stroke:rgb(39,145,239);stroke-width:14.67px;"/>
            </g>
            <g transform="matrix(-1.31907,0,0,1.30608,2174.89,-50.1631)">
                <path d="M1264.67,829.602C1288.6,812.871 1314.21,802.13 1342.46,800.723C1369.29,799.388 1387.66,837.976 1344.67,847.724C1328.35,851.426 1289.05,841.171 1264.67,829.602Z" style="fill:none;stroke:rgb(39,145,239);stroke-width:14.67px;"/>
            </g>
            <g transform="matrix(-1.61646,-0.184586,-0.151123,1.29748,2467.14,168.579)">
                <path d="M1264.67,829.602C1280,811.937 1304.39,789.657 1332.49,786.848C1384.86,781.614 1392.69,829.613 1348.66,842.787C1332.62,847.586 1289.05,841.171 1264.67,829.602Z" style="fill:none;stroke:rgb(39,145,239);stroke-width:13.06px;"/>
            </g>
            <g transform="matrix(-1.31907,0,0,1.30608,2174.89,-50.1631)">
                <path d="M1224.24,847.551C1283.53,887.192 1368.45,889.022 1406.57,842.992C1482.18,864.17 1541.67,862.01 1582.31,830.664C1619.48,801.99 1606.86,749.747 1555.03,735.355C1513.77,723.901 1477.82,736.682 1444.87,763.326" style="fill:none;stroke:rgb(39,145,239);stroke-width:14.67px;"/>
            </g>
            <g transform="matrix(-1.31907,0,0,1.30608,2174.89,-50.1631)">
                <path d="M1226.92,829.454C1263.89,798.509 1301.49,777.379 1342.51,779.977" style="fill:none;stroke:rgb(39,145,239);stroke-width:14.67px;"/>
            </g>
            <g transform="matrix(-1.31907,0,0,1.30608,2174.89,-50.1631)">
                <path d="M1372.12,506.686C1407.08,451.485 1484.68,463.434 1507.76,514.283" style="fill:none;stroke:rgb(39,145,239);stroke-width:14.67px;"/>
            </g>
            <g transform="matrix(-1.31907,0,0,1.30608,2174.89,-50.1631)">
                <path d="M1398.09,528.234C1415.35,508.58 1434.97,501.281 1459.97,522.156" style="fill:none;stroke:rgb(39,145,239);stroke-width:14.67px;"/>
            </g>
            <g transform="matrix(-1.31907,0,0,1.30608,2174.89,-50.1631)">
                <path d="M1364.73,615.048C1358.81,604.777 1363.23,595.344 1370.95,586.179" style="fill:none;stroke:rgb(39,145,239);stroke-width:14.67px;"/>
            </g>
            <g transform="matrix(-1.31907,0,0,1.30608,2174.89,-50.1631)">
                <path d="M1342,642.536C1338.23,643.157 1332.75,643.354 1326.68,643.399C1330.93,609.322 1338.39,578.988 1349.55,552.968" style="fill:none;stroke:rgb(39,145,239);stroke-width:14.67px;"/>
            </g>
            <g transform="matrix(-1.31907,0,0,1.30608,2174.89,-50.1631)">
                <path d="M1190.13,419.733C1180.17,379.009 1181.76,325.888 1201.73,295.632C1250.23,222.178 1356.39,277.12 1334.2,341.765C1316.65,392.881 1283.9,436.436 1224.66,474.769" style="fill:none;stroke:rgb(39,145,239);stroke-width:14.67px;"/>
            </g>
            <g transform="matrix(-1.31907,0,0,1.30608,2174.89,-50.1631)">
                <path d="M1219.27,436.189C1216.53,395.222 1218.76,356.647 1235.45,325.039C1254.71,288.601 1312.47,304.009 1292.38,356.064C1274.37,394.063 1248.7,417.075 1219.27,436.189Z" style="fill:none;stroke:rgb(39,145,239);stroke-width:14.67px;"/>
            </g>
            <g transform="matrix(-1.31907,0,0,1.30608,2174.89,-50.1631)">
                <path d="M460.796,638.353C427.373,604.438 388.268,577.845 341.038,567.7C298.673,558.599 275.06,598.755 317.003,621.363C348.045,638.095 411.602,639.428 460.796,638.353Z" style="fill:none;stroke:rgb(39,145,239);stroke-width:14.67px;"/>
            </g>
            <g transform="matrix(-1.31907,0,0,1.30608,2174.89,-50.1631)">
                <path d="M715.099,726.033C690.884,691.461 659.308,658.912 590.783,636.525C545.559,621.751 507.951,659.367 536.498,693.504C573.835,738.153 663.197,715.077 715.099,726.033Z" style="fill:none;stroke:rgb(39,145,239);stroke-width:14.67px;"/>
            </g>
            <g transform="matrix(-1.31907,0,0,1.30608,2174.89,-50.1631)">
                <path d="M769.382,749.129C706.604,651.488 607.848,528.012 496.507,628.853C446.52,562.844 385.958,516.189 292.007,530.643C246.044,537.714 227.217,574.594 241.969,616.421C266.932,687.195 378.15,696.838 484.697,685.106C500.551,788.145 682.432,770.141 769.382,749.129Z" style="fill:none;stroke:rgb(39,145,239);stroke-width:14.67px;"/>
            </g>
            <g transform="matrix(-1.31907,0,0,1.30608,2174.89,-50.1631)">
                <path d="M547.772,850.784C450.856,952.135 375.507,997.063 314.679,958.784C262.734,926.095 276.179,868.897 314.291,841.849C363.808,806.707 444.682,813.789 547.772,850.784Z" style="fill:none;stroke:rgb(39,145,239);stroke-width:14.67px;"/>
            </g>
            <g transform="matrix(-0.957329,1.05019,0.970906,0.867706,967.479,-666.172)">
                <path d="M547.772,850.784C450.856,952.135 375.507,997.063 314.679,958.784C262.734,926.095 276.179,868.897 314.291,841.849C363.808,806.707 444.682,813.789 547.772,850.784Z" style="fill:none;stroke:rgb(39,145,239);stroke-width:14.12px;"/>
            </g>
            <g transform="matrix(-0.254478,1.33815,1.52007,0.283408,-109.923,-482.445)">
                <path d="M547.772,850.784C450.856,952.135 375.507,997.063 314.679,958.784C262.734,926.095 276.179,868.897 314.291,841.849C363.808,806.707 444.682,813.789 547.772,850.784Z" style="fill:none;stroke:rgb(39,145,239);stroke-width:13.22px;"/>
            </g>
            <g transform="matrix(0.623599,1.02454,1.70465,-1.01722,-1002.75,712.714)">
                <path d="M543.017,844.695C510.894,867.308 488.959,897.829 469.68,923.623C449.91,950.073 373.577,986.231 302.906,950.174C260.563,928.57 280.901,890.964 324.792,867.364C376.039,839.809 434.345,839.099 543.017,844.695Z" style="fill:none;stroke:rgb(39,145,239);stroke-width:11.75px;"/>
            </g>
            <g transform="matrix(-0.746862,0,0,0.739507,1944.13,442.015)">
                <path d="M547.772,850.784C437.682,917.005 325.886,993.532 269.12,949.453C246.816,932.133 249.831,896.342 287.943,869.294C337.46,834.152 444.682,813.789 547.772,850.784Z" style="fill:none;stroke:rgb(39,145,239);stroke-width:25.9px;"/>
            </g>
            <g transform="matrix(-0.542044,0.594624,0.549731,0.491299,1165.88,-155.467)">
                <path d="M547.772,850.784C437.682,917.005 325.886,993.532 269.12,949.453C246.816,932.133 249.831,896.342 287.943,869.294C337.46,834.152 444.682,813.789 547.772,850.784Z" style="fill:none;stroke:rgb(39,145,239);stroke-width:24.95px;"/>
            </g>
            <g transform="matrix(-0.134941,0.709574,0.862115,0.160736,422.806,-113.446)">
                <path d="M547.772,850.784C437.682,917.005 325.886,993.532 269.12,949.453C246.816,932.133 249.831,896.342 287.943,869.294C337.46,834.152 444.682,813.789 547.772,850.784Z" style="fill:none;stroke:rgb(39,145,239);stroke-width:23.98px;"/>
            </g>
            <g transform="matrix(0.330673,0.543276,0.966797,-0.576922,-228.424,522.474)">
                <path d="M556.474,836.075C481.872,885.327 413.942,991.71 277.698,950.66C244.312,940.6 254.163,912.291 303.204,891.681C368.288,864.327 465.16,846.814 556.474,836.075Z" style="fill:none;stroke:rgb(39,145,239);stroke-width:21.08px;"/>
            </g>
            <g transform="matrix(-1.31907,0,0,1.30608,2174.89,-50.1631)">
                <path d="M620.268,973.614C606.697,1009.11 596.154,1042.77 578.1,1068.55C546.608,1113.52 502.644,1129.76 493.963,1116.58C467.077,1075.75 508.334,1009.22 620.268,973.614Z" style="fill:none;stroke:rgb(39,145,239);stroke-width:14.67px;"/>
            </g>
            <g transform="matrix(-1.31907,0,0,1.30608,2174.89,-50.1631)">
                <path d="M659.801,951.548C649.671,987.509 633.294,1019.61 628.918,1041.05C604.643,1160.02 491.613,1194.91 460.118,1152.79C385.197,1052.57 523.108,966.694 633.772,944.555" style="fill:none;stroke:rgb(39,145,239);stroke-width:14.67px;"/>
            </g>
            <g transform="matrix(-1.31907,0,0,1.30608,2174.89,-50.1631)">
                <path d="M651.122,1238.33C559.791,1304.7 563.374,1425 605.871,1426.04C645.174,1427.01 665.329,1347.5 651.122,1238.33Z" style="fill:none;stroke:rgb(39,145,239);stroke-width:14.67px;"/>
            </g>
            <g transform="matrix(-1.31907,0,0,1.30608,2174.89,-50.1631)">
                <path d="M785.371,1052.32C765.499,1143.23 713.791,1180.68 698.039,1162.96C673.119,1134.93 697.165,1088.26 785.371,1052.32Z" style="fill:none;stroke:rgb(39,145,239);stroke-width:14.67px;"/>
            </g>
            <g transform="matrix(-1.31907,0,0,1.30608,2174.89,-50.1631)">
                <path d="M843.798,963.785C811.044,993.678 844.048,1021.73 873.204,992.428" style="fill:none;stroke:rgb(39,145,239);stroke-width:14.67px;"/>
            </g>
            <g transform="matrix(-1.31907,0,0,1.30608,2174.89,-50.1631)">
                <path d="M898.906,1003.63C880.881,1028.27 856.692,1035.6 826.192,1025.19C792.724,1124.59 780.134,1189.44 691.903,1195.66C665.421,1267.45 688.265,1338.1 682.354,1379.3C673.617,1440.19 643.75,1466.51 612.338,1463.28C501.038,1451.81 512.457,1256.68 678.475,1187.94C629.496,1135.71 695.007,1045.65 808.311,1014.25C794.227,994.917 797.176,977.128 818.131,960.964" style="fill:none;stroke:rgb(39,145,239);stroke-width:14.67px;"/>
            </g>
            <g transform="matrix(-1.31907,0,0,1.30608,2174.89,-50.1631)">
                <path d="M925.995,945.883C924.277,957.348 921.121,968.814 915.124,980.279" style="fill:none;stroke:rgb(39,145,239);stroke-width:14.67px;"/>
            </g>
            <g transform="matrix(-1.31907,0,0,1.30608,2174.89,-50.1631)">
                <path d="M880.123,856.721C767.695,822.67 801.008,722.804 876.588,789.425" style="fill:none;stroke:rgb(39,145,239);stroke-width:14.67px;"/>
            </g>
            <g transform="matrix(-1.31907,0,0,1.30608,2174.89,-50.1631)">
                <path d="M923.338,794.825C874.171,743.214 957.746,665.971 979.255,800.84" style="fill:none;stroke:rgb(39,145,239);stroke-width:14.67px;"/>
            </g>
            <g transform="matrix(-1.31907,0,0,1.30608,2174.89,-50.1631)">
                <path d="M968.435,829.065C1009.69,768.378 937.838,677.08 906.901,695.233C866.989,718.651 908.607,801.296 968.435,829.065Z" style="fill:none;stroke:rgb(39,145,239);stroke-width:14.67px;"/>
            </g>
            <g transform="matrix(-1.31907,0,0,1.30608,2174.89,-50.1631)">
                <path d="M959.333,806.374C933.636,786.68 926.649,752.854 943.684,750.963C960.8,749.063 962.065,775.607 959.333,806.374Z" style="fill:none;stroke:rgb(39,145,239);stroke-width:14.67px;"/>
            </g>
            <g transform="matrix(-1.31907,0,0,1.30608,2174.89,-50.1631)">
                <path d="M891.433,830.229C857.923,825.709 825.314,808.489 836.74,792.903C849.147,775.98 877.695,806.252 891.433,830.229Z" style="fill:none;stroke:rgb(39,145,239);stroke-width:14.67px;"/>
            </g>
            <g transform="matrix(-1.31907,0,0,1.30608,2174.89,-50.1631)">
                <path d="M933.35,855.38C804.717,879.278 752.041,767.548 769.673,749.588C801.301,717.371 880.13,780.646 933.35,855.38Z" style="fill:none;stroke:rgb(39,145,239);stroke-width:14.67px;"/>
            </g>
            <g transform="matrix(-1.31907,0,0,1.30608,2174.89,-50.1631)">
                <path d="M1012.45,925.635C1021.73,914.92 1026.22,902.37 1026.09,887.158C1066.02,908.975 1102.83,887.722 1089.56,853.432" style="fill:none;stroke:rgb(39,145,239);stroke-width:14.67px;"/>
            </g>
            <g transform="matrix(-1.31907,0,0,1.30608,2174.89,-50.1631)">
                <path d="M952.358,923.566C959.102,928.416 965.39,931.9 970.907,933.07" style="fill:none;stroke:rgb(39,145,239);stroke-width:14.67px;"/>
            </g>
            <g transform="matrix(-1.31907,0,0,1.30608,2174.89,-50.1631)">
                <path d="M883.133,1768.56C886.105,1770.68 940.867,1694.25 938.688,1690.07" style="fill:none;stroke:rgb(39,145,239);stroke-width:14.67px;"/>
            </g>
            <g transform="matrix(-1.31907,0,0,1.30608,2174.89,-50.1631)">
                <path d="M940.344,1774.82C949.413,1758.96 968.764,1734.77 974.069,1736.67C978.954,1738.43 983.451,1769.46 998.474,1784.26" style="fill:none;stroke:rgb(39,145,239);stroke-width:14.67px;"/>
            </g>
            <g transform="matrix(-1.31907,0,0,1.30608,2174.89,-50.1631)">
                <path d="M1031.46,1742.07C1032.5,1731.86 1060.88,1752.11 1092.17,1770.52" style="fill:none;stroke:rgb(39,145,239);stroke-width:14.67px;"/>
            </g>
            <g transform="matrix(-1.31907,0,0,1.30608,2174.89,-50.1631)">
                <path d="M1024.96,1705.4C1026.61,1728.01 1031.51,1752.85 1046.92,1778.74" style="fill:none;stroke:rgb(39,145,239);stroke-width:14.67px;"/>
            </g>
            <g transform="matrix(-1.31907,0,0,1.30608,2174.89,-50.1631)">
                <path d="M1078.56,1707.12C1115.23,1707.72 1141.52,1671.17 1149.69,1633.9" style="fill:none;stroke:rgb(39,145,239);stroke-width:14.67px;"/>
            </g>
            <g transform="matrix(-1.31907,0,0,1.30608,2174.89,-50.1631)">
                <path d="M1068.5,1686.39C1072.93,1703.78 1088.14,1723.17 1122.34,1746.12" style="fill:none;stroke:rgb(39,145,239);stroke-width:14.67px;"/>
            </g>
            <g transform="matrix(-1.31907,0,0,1.30608,2174.89,-50.1631)">
                <path d="M1076.47,1673.52C1086.85,1657.04 1102.48,1643.52 1123.32,1632.92" style="fill:none;stroke:rgb(39,145,239);stroke-width:14.67px;"/>
            </g>
            <g transform="matrix(-1.31907,0,0,1.30608,2174.89,-50.1631)">
                <path d="M1226.39,1631.11C1246.41,1657.72 1283.08,1690.36 1267.23,1703.95" style="fill:none;stroke:rgb(39,145,239);stroke-width:14.67px;"/>
            </g>
            <g transform="matrix(-1.31907,0,0,1.30608,2174.89,-50.1631)">
                <path d="M1227.25,1643.62C1239.04,1663.45 1250.31,1683.38 1257.17,1704.2" style="fill:none;stroke:rgb(39,145,239);stroke-width:14.67px;"/>
            </g>
            <g transform="matrix(-1.31907,0,0,1.30608,2174.89,-50.1631)">
                <path d="M1196.83,1647.79C1212.1,1669.86 1224.37,1692.6 1233.75,1715.97" style="fill:none;stroke:rgb(39,145,239);stroke-width:14.67px;"/>
            </g>
            <g transform="matrix(-1.31907,0,0,1.30608,2174.89,-50.1631)">
                <path d="M1155.26,1634.54C1158.73,1684.47 1179.63,1718.01 1210.57,1742.1" style="fill:none;stroke:rgb(39,145,239);stroke-width:14.67px;"/>
            </g>
            <g transform="matrix(-1.31907,0,0,1.30608,2174.89,-50.1631)">
                <path d="M1256.42,1720.5C1253.28,1716.26 1250.65,1705.73 1255.98,1705.01C1283.4,1701.28 1350.32,1714.1 1351.03,1733.03C1351.34,1741.4 1323.57,1745.98 1295.43,1742.15" style="fill:none;stroke:rgb(39,145,239);stroke-width:14.67px;"/>
            </g>
            <g transform="matrix(-1.31907,0,0,1.30608,2174.89,-50.1631)">
                <path d="M1270.59,1691.55C1291.91,1681.93 1340.08,1689.76 1345.97,1711.66C1346.98,1715.39 1344.52,1717.66 1340.37,1719.46" style="fill:none;stroke:rgb(39,145,239);stroke-width:14.67px;"/>
            </g>
            <g transform="matrix(-1.31907,0,0,1.30608,2174.89,-50.1631)">
                <path d="M1208.1,1721.82C1223.24,1704.13 1299.84,1727.35 1306.44,1760.83C1308.29,1770.19 1278.56,1773.52 1251.07,1765.59C1221.83,1757.15 1196.11,1735.83 1208.1,1721.82Z" style="fill:none;stroke:rgb(39,145,239);stroke-width:14.67px;"/>
            </g>
            <g transform="matrix(-1.31907,0,0,1.30608,2174.89,-50.1631)">
                <path d="M1108.14,1745.22C1124.21,1741.79 1195.14,1765.71 1191.93,1785.46C1189.29,1801.65 1147.41,1802 1120.5,1792.47C1076.27,1776.79 1090.18,1749.05 1108.14,1745.22Z" style="fill:none;stroke:rgb(39,145,239);stroke-width:14.67px;"/>
            </g>
            <g transform="matrix(-1.31907,0,0,1.30608,2174.89,-50.1631)">
                <path d="M1018.97,1765.03C1030.54,1763.52 1067.68,1791.93 1066.7,1803.67C1065.17,1821.89 1033.05,1832.78 1010.92,1818.37C986.05,1802.16 998.171,1767.74 1018.97,1765.03Z" style="fill:none;stroke:rgb(39,145,239);stroke-width:14.67px;"/>
            </g>
            <g transform="matrix(-1.31907,0,0,1.30608,2174.89,-50.1631)">
                <path d="M886.539,1767.08C869.336,1774.5 856.918,1785.44 852.544,1802.31C847.499,1821.77 940.138,1833.97 940.932,1779.24C941.191,1761.37 903.154,1760.77 886.539,1767.08" style="fill:none;stroke:rgb(39,145,239);stroke-width:14.67px;"/>
            </g>
            <g transform="matrix(-1.31907,0,0,1.30608,2174.89,-50.1631)">
                <path d="M1114.44,1531.04C1121.32,1592.03 1138.59,1548.07 1166.53,1512.17C1186.44,1545.18 1191.96,1587.22 1230.14,1538.72" style="fill:none;stroke:rgb(39,145,239);stroke-width:35.9px;"/>
            </g>
            <g transform="matrix(-1.31907,0,0,1.30608,2174.89,-50.1631)">
                <path d="M1145.56,1425.58C1150.97,1470.56 1162.34,1437.5 1189.19,1399.49C1200.74,1451.5 1202.88,1482.49 1233.67,1434.78" style="fill:none;stroke:rgb(39,145,239);stroke-width:35.9px;"/>
            </g>
            <g transform="matrix(-1.31907,0,0,1.30608,2174.89,-50.1631)">
                <path d="M1080.43,1148.29C1123.13,1196.83 1166.65,1242.45 1210.75,1286.07C1147.1,1358.82 1104.72,1468.92 1086.57,1621.52C1084.44,1639.36 1251.91,1638.05 1252.36,1621.11C1254.7,1532.55 1218.44,1552.08 1263.63,1347.88C1270.6,1316.37 1283.71,1305.75 1264.43,1248.49C1243.94,1187.6 1217.38,1128.62 1183.15,1072.03" style="fill:none;stroke:rgb(39,145,239);stroke-width:14.67px;"/>
            </g>
            <g transform="matrix(-1.31907,0,0,1.30608,2174.89,-50.1631)">
                <path d="M961.327,1473.3C965.838,1537.7 992.766,1531.67 1022.2,1477.77C1024.8,1494.61 1018.56,1508.59 1048.32,1518.02" style="fill:none;stroke:rgb(39,145,239);stroke-width:35.9px;"/>
            </g>
            <g transform="matrix(-1.31907,0,0,1.30608,2174.89,-50.1631)">
                <path d="M938.837,1565.93C956.535,1643.69 998.731,1627.96 1025.89,1570.65C1031.68,1596.21 1033.73,1613.15 1058.59,1622.1" style="fill:none;stroke:rgb(39,145,239);stroke-width:35.9px;"/>
            </g>
            <g transform="matrix(-1.31907,0,0,1.30608,2174.89,-50.1631)">
                <path d="M1016.83,941.428C996.254,963.715 1035.37,954.718 1085.4,950.967C1048.88,1013.21 1115.41,1074.37 1183.16,1001.75C1183.46,1014.1 1170.6,1028.07 1178.84,1038.66" style="fill:none;stroke:rgb(39,145,239);stroke-width:35.9px;"/>
            </g>
            <g transform="matrix(-1.31907,0,0,1.30608,2174.89,-50.1631)">
                <path d="M1080.65,1138.17C1174.84,1130.42 1199.4,1054.05 1208.82,962.756C1211.66,935.246 1228.06,904.003 1225.26,865.497" style="fill:none;stroke:rgb(39,145,239);stroke-width:14.67px;"/>
            </g>
            <g transform="matrix(-1.31907,0,0,1.30608,2174.89,-50.1631)">
                <path d="M968.44,1006.09C955.33,1071.89 961.551,1140.15 983.299,1210.38C1001.51,1269.19 997.823,1330.54 973.801,1391.48C934.235,1491.84 894.977,1701.76 917.332,1696.1C984.356,1679.14 979.523,1660.58 1076.95,1688.59C1079.82,1689.41 1050.79,1481.39 1055.48,1364.88C1056.07,1350.28 1065.52,1333.33 1066.88,1315.49C1068.36,1296.12 1063.38,1283.64 1066.88,1257.87C1074.55,1201.37 1081.77,1143.97 1083.98,1085.64" style="fill:none;stroke:rgb(39,145,239);stroke-width:14.67px;"/>
            </g>
            <g transform="matrix(-1.31907,0,0,1.30608,2174.89,-50.1631)">
                <path d="M1107.12,924.114C1073.23,934.809 1021.23,938.851 990.037,912.959C945.803,954.252 937.588,1000.47 961.963,1048.85" style="fill:none;stroke:rgb(39,145,239);stroke-width:14.67px;"/>
            </g>
            <g transform="matrix(-1.31907,0,0,1.30608,2174.89,-50.1631)">
                <path d="M1095.44,853.27C1105.12,877.718 1117.13,901.09 1102.48,936.795" style="fill:none;stroke:rgb(39,145,239);stroke-width:14.67px;"/>
            </g>
            <g transform="matrix(-1.31907,0,0,1.30608,2174.89,-50.1631)">
                <path d="M803.751,901.115C803.052,889.547 825.697,880.53 857.08,886.986" style="fill:none;stroke:rgb(39,145,239);stroke-width:14.67px;"/>
            </g>
            <g transform="matrix(-1.31907,0,0,1.30608,2174.89,-50.1631)">
                <path d="M793.977,898.035C792.642,893.374 792.67,884.837 796.421,883.374C821.722,873.509 864.146,884.171 865.472,895.379" style="fill:none;stroke:rgb(39,145,239);stroke-width:14.67px;"/>
            </g>
            <g transform="matrix(-1.31907,0,0,1.30608,2174.89,-50.1631)">
                <path d="M714.25,913.332C707.272,902.468 747.773,899.828 779.052,895.591" style="fill:none;stroke:rgb(39,145,239);stroke-width:14.67px;"/>
            </g>
            <g transform="matrix(-1.31907,0,0,1.30608,2174.89,-50.1631)">
                <path d="M685.248,918.219C680.503,916.501 676.785,914.27 674.306,911.42C718.408,890.105 767.174,885.495 823.457,907.808" style="fill:none;stroke:rgb(39,145,239);stroke-width:14.67px;"/>
            </g>
            <g transform="matrix(-1.31907,0,0,1.30608,2174.89,-50.1631)">
                <path d="M679.087,953.435C672.067,949.553 666.655,945.753 667.295,940.581C668.539,930.519 681.062,921.464 714.037,914.235" style="fill:none;stroke:rgb(39,145,239);stroke-width:14.67px;"/>
            </g>
            <g transform="matrix(-1.31907,0,0,1.30608,2174.89,-50.1631)">
                <path d="M705.539,953.541C670.278,955.798 642.958,949.585 620.446,938.244C669.652,915.11 756.369,903.905 777.564,919.653" style="fill:none;stroke:rgb(39,145,239);stroke-width:14.67px;"/>
            </g>
            <g transform="matrix(-1.31907,0,0,1.30608,2174.89,-50.1631)">
                <path d="M726.467,958.162C714.599,978.147 708.175,1001.3 715.525,1004.9C727.864,1010.96 757.041,979.223 772.253,959.968" style="fill:none;stroke:rgb(39,145,239);stroke-width:14.67px;"/>
            </g>
            <g transform="matrix(-1.31907,0,0,1.30608,2174.89,-50.1631)">
                <path d="M862.635,973.964C841.791,943.641 713.869,976.75 693.949,944.086C689.388,936.607 729.61,923.398 761.817,920.731C782.289,919.036 802.826,921.869 824.052,918.758" style="fill:none;stroke:rgb(39,145,239);stroke-width:14.67px;"/>
            </g>
            <g transform="matrix(-1.31907,0,0,1.30608,2174.89,-50.1631)">
                <path d="M890.334,921.574C895.616,925.7 898.982,939.86 905.247,964.737C909.528,981.734 926.374,993.149 932.246,1000.63C862.68,1014.44 869.62,976.008 848.629,950.829" style="fill:none;stroke:rgb(39,145,239);stroke-width:14.67px;"/>
            </g>
            <g transform="matrix(-1.31907,0,0,1.30608,2174.89,-50.1631)">
                <path d="M977.27,890.969C973.1,905.402 953.157,927.162 905.273,959.855" style="fill:none;stroke:rgb(39,145,239);stroke-width:14.67px;"/>
            </g>
            <g transform="matrix(-1.31907,0,0,1.30608,2174.89,-50.1631)">
                <path d="M971.876,867.42C974.703,870.028 976.525,874.354 975.818,878.832" style="fill:none;stroke:rgb(39,145,239);stroke-width:14.67px;"/>
            </g>
            <g transform="matrix(-1.31907,0,0,1.30608,2174.89,-50.1631)">
                <path d="M970.047,904.527C1026.7,870.863 1105.74,837.382 1084.49,795.922C1077.21,781.731 1010.27,821.177 966.481,854.277C913.057,880.729 855.221,903.26 786.228,915.874" style="fill:none;stroke:rgb(39,145,239);stroke-width:14.67px;"/>
            </g>
            <g transform="matrix(-1.31907,0,0,1.30608,2174.89,-50.1631)">
                <path d="M1038.85,806.819C1022.02,779.193 1017.26,749.531 1022.25,718.223C1089.03,736.247 1126.38,771.913 1118.94,834.415C1117.16,849.341 1094.04,862.382 1067.07,845.204" style="fill:none;stroke:rgb(39,145,239);stroke-width:14.67px;"/>
            </g>
            <g transform="matrix(-1.31907,0,0,1.30608,2174.89,-50.1631)">
                <path d="M1464.75,699.609C1477.66,682.009 1475.66,666.926 1461.3,653.929" style="fill:none;stroke:rgb(39,145,239);stroke-width:14.67px;"/>
            </g>
            <g transform="matrix(-1.31907,0,0,1.30608,2174.89,-50.1631)">
                <path d="M1390.46,751.464C1417.09,758.958 1438.67,749.016 1439.86,725.835" style="fill:none;stroke:rgb(39,145,239);stroke-width:14.67px;"/>
            </g>
            <g transform="matrix(-1.31907,0,0,1.30608,2174.89,-50.1631)">
                <path d="M1337.61,769.656C1356.86,794.473 1384.66,783.881 1386.87,754.784" style="fill:none;stroke:rgb(39,145,239);stroke-width:14.67px;"/>
            </g>
            <g transform="matrix(-1.31907,0,0,1.30608,2174.89,-50.1631)">
                <path d="M1330.1,742.434C1333.24,777.097 1353.53,798.424 1388.53,808.299C1398.78,783.206 1391.34,754.336 1370.07,722.516C1388.28,756.688 1411.29,775.368 1442.25,768.461C1451.16,742.771 1445.29,716.912 1407.45,690.513C1438.71,712.486 1467.38,706.386 1494.03,678.429C1487.07,658.863 1465.46,649.659 1426.98,652.402" style="fill:none;stroke:rgb(39,145,239);stroke-width:14.67px;"/>
            </g>
            <g transform="matrix(-1.31907,0,0,1.30608,2174.89,-50.1631)">
                <path d="M1342.49,531.721C1352.41,561.276 1364.93,583.722 1381.49,595.129C1341.37,642.736 1303.51,690.19 1266.49,739.569C1260.16,748.004 1225.86,763.079 1206.96,771.16" style="fill:none;stroke:rgb(39,145,239);stroke-width:14.67px;"/>
            </g>
            <g transform="matrix(-1.31907,0,0,1.30608,2174.89,-50.1631)">
                <path d="M1572.64,543.169C1581.65,547.901 1584.89,553.797 1587.52,561.362C1566.83,566.833 1545.57,569.79 1523.11,567.47" style="fill:none;stroke:rgb(39,145,239);stroke-width:14.67px;"/>
            </g>
            <g transform="matrix(-1.31907,0,0,1.30608,2174.89,-50.1631)">
                <path d="M1558.57,530.156C1485.31,491.848 1450.03,536.25 1413.88,535.734C1387.93,535.363 1347.39,461.023 1312.69,498.765C1312.16,505.656 1330.43,513.653 1331.97,517.568" style="fill:none;stroke:rgb(39,145,239);stroke-width:14.67px;"/>
            </g>
            <g transform="matrix(-1.31907,0,0,1.30608,2174.89,-50.1631)">
                <path d="M1420.05,572.507C1428.19,561.368 1445.51,554.167 1472.24,550.995" style="fill:none;stroke:rgb(39,145,239);stroke-width:14.67px;"/>
            </g>
            <g transform="matrix(-1.31907,0,0,1.30608,2174.89,-50.1631)">
                <path d="M1226.97,811.16C1254.38,792.293 1328.62,752.653 1397.76,682.273C1451.08,627.997 1505.14,562.801 1585.22,538.351C1566.97,526.592 1537.71,528.916 1501.19,540.529" style="fill:none;stroke:rgb(39,145,239);stroke-width:14.67px;"/>
            </g>
            <g transform="matrix(-1.31907,0,0,1.30608,2174.89,-50.1631)">
                <path d="M1145.19,751.052C1144.86,746.621 1143.42,740.998 1145.83,735.882C1185.64,737.22 1244.21,798.768 1223.08,842.901" style="fill:none;stroke:rgb(39,145,239);stroke-width:14.67px;"/>
            </g>
            <g transform="matrix(-1.31907,0,0,1.30608,2174.89,-50.1631)">
                <path d="M1108.91,774.19C1129.99,778.529 1146.21,816.96 1159.11,849.402C1179.04,899.542 1192.4,916.518 1203.4,921.588C1233.46,905.302 1235.25,820.607 1193.05,790.842C1164.56,770.747 1133.65,752.754 1129.15,711.725" style="fill:none;stroke:rgb(39,145,239);stroke-width:14.67px;"/>
            </g>
            <g transform="matrix(-1.31907,0,0,1.30608,2174.89,-50.1631)">
                <path d="M1012,631.239C1032.3,697.371 1076.66,693.924 1097.05,757.808" style="fill:none;stroke:rgb(39,145,239);stroke-width:14.67px;"/>
            </g>
            <g transform="matrix(-1.31907,0,0,1.30608,2174.89,-50.1631)">
                <path d="M1041.58,633.483C1042.91,647.671 1048.82,658.356 1064.02,661.936" style="fill:none;stroke:rgb(39,145,239);stroke-width:14.67px;"/>
            </g>
            <g transform="matrix(-1.31907,0,0,1.30608,2174.89,-50.1631)">
                <path d="M1211.57,469.469C1238.71,475.604 1251.09,519.039 1233.28,554.721" style="fill:none;stroke:rgb(39,145,239);stroke-width:14.67px;"/>
            </g>
            <g transform="matrix(-1.31907,0,0,1.30608,2174.89,-50.1631)">
                <path d="M1183.5,560.008C1271.78,385.94 1120.1,404.382 1074.66,371.544" style="fill:none;stroke:rgb(39,145,239);stroke-width:14.67px;"/>
            </g>
            <g transform="matrix(-1.31907,0,0,1.30608,2174.89,-50.1631)">
                <path d="M946.245,465.977C912.941,468.633 889.251,512.348 901.946,546.927" style="fill:none;stroke:rgb(39,145,239);stroke-width:14.67px;"/>
            </g>
            <g transform="matrix(-1.31907,0,0,1.30608,2174.89,-50.1631)">
                <path d="M966.403,530.514C925.87,478.749 945.85,420.778 1013.89,401.202" style="fill:none;stroke:rgb(39,145,239);stroke-width:14.67px;"/>
            </g>
            <g transform="matrix(-1.31907,0,0,1.30608,2174.89,-50.1631)">
                <path d="M1066.83,505.388C1087.89,515.757 1109.46,524.098 1132.56,526.302C1144.35,527.427 1164.75,504.409 1171.8,490.847" style="fill:none;stroke:rgb(39,145,239);stroke-width:14.67px;"/>
            </g>
            <g transform="matrix(-1.31907,0,0,1.30608,2174.89,-50.1631)">
                <path d="M1045.07,472.072C1068.88,487.758 1111.58,503.802 1129.72,499.99C1154.64,494.752 1168.54,466.867 1167.32,444.154" style="fill:none;stroke:rgb(39,145,239);stroke-width:14.67px;"/>
            </g>
            <g transform="matrix(-1.31907,0,0,1.30608,2174.89,-50.1631)">
                <path d="M1109.97,578.342C1095.34,521.414 958.157,409.926 1033.51,307.06C1018.38,410.023 1268.81,365.656 1133.61,580.568" style="fill:none;stroke:rgb(39,145,239);stroke-width:14.67px;"/>
            </g>
            <g transform="matrix(-1.31907,0,0,1.30608,2174.89,-50.1631)">
                <path d="M870.875,579.996C917.911,650.193 1066.9,619.128 1097.66,647.724" style="fill:none;stroke:rgb(39,145,239);stroke-width:14.67px;"/>
            </g>
            <g transform="matrix(-1.31907,0,0,1.30608,2174.89,-50.1631)">
                <path d="M917.448,601.389C867.736,586.568 834.575,560.305 839.952,507.398C919.713,585.414 1073.19,572.728 1094.85,611.971" style="fill:none;stroke:rgb(39,145,239);stroke-width:14.67px;"/>
            </g>
            <g transform="matrix(-1.31907,0,0,1.30608,2174.89,-50.1631)">
                <path d="M1154.56,632.537C1159.12,634.917 1158.54,647.597 1153.13,653.138" style="fill:none;stroke:rgb(39,145,239);stroke-width:14.67px;"/>
            </g>
            <g transform="matrix(-1.31907,0,0,1.30608,2174.89,-50.1631)">
                <path d="M1144.13,638.127C1144.49,641.631 1145.8,647.41 1147.39,647.428C1148.64,647.441 1148.33,645.13 1147.15,636.087" style="fill:none;stroke:rgb(39,145,239);stroke-width:14.67px;"/>
            </g>
            <g transform="matrix(-1.31907,0,0,1.30608,2174.89,-50.1631)">
                <path d="M1166.89,628.744C1167.51,637.55 1165.57,644.932 1161.18,649.386" style="fill:none;stroke:rgb(39,145,239);stroke-width:14.67px;"/>
            </g>
            <g transform="matrix(-1.31907,0,0,1.30608,2174.89,-50.1631)">
                <path d="M1172.52,641.839C1173.43,636.641 1173.56,632.022 1173.58,627.48" style="fill:none;stroke:rgb(39,145,239);stroke-width:14.67px;"/>
            </g>
            <g transform="matrix(-1.31907,0,0,1.30608,2174.89,-50.1631)">
                <path d="M1136.89,644.699C1147.74,618.949 1287.91,620.905 1318.95,555.662" style="fill:none;stroke:rgb(39,145,239);stroke-width:14.67px;"/>
            </g>
            <g transform="matrix(-1.31907,0,0,1.30608,2174.89,-50.1631)">
                <path d="M1143.83,681.989L1143.61,683.683" style="fill:none;stroke:rgb(39,145,239);stroke-width:14.67px;"/>
            </g>
            <g transform="matrix(-1.31907,0,0,1.30608,2174.89,-50.1631)">
                <path d="M1120.19,683.179L1122.86,687.131" style="fill:none;stroke:rgb(39,145,239);stroke-width:14.67px;"/>
            </g>
            <g transform="matrix(-1.31907,0,0,1.30608,2174.89,-50.1631)">
                <path d="M1061.29,681.395C1075.76,703.967 1099.26,713.256 1130.38,711.352" style="fill:none;stroke:rgb(39,145,239);stroke-width:14.67px;"/>
            </g>
            <g transform="matrix(-1.31907,0,0,1.30608,2174.89,-50.1631)">
                <path d="M1148.61,675.658C1147.66,690.837 1146.09,716.119 1138.54,715.942C1132.2,715.793 1117.23,693.045 1091.88,688.788C1066.38,684.503 1043.67,678.024 1035.54,660.106" style="fill:none;stroke:rgb(39,145,239);stroke-width:14.67px;"/>
            </g>
            <g transform="matrix(-1.31907,0,0,1.30608,2174.89,-50.1631)">
                <path d="M1063.25,636.95C1059.86,647.981 1062.4,655.053 1069.88,660.916" style="fill:none;stroke:rgb(39,145,239);stroke-width:14.67px;"/>
            </g>
            <g transform="matrix(-1.31907,0,0,1.30608,2174.89,-50.1631)">
                <path d="M1035.54,659.914C1116.17,675.016 1104.02,613.864 1121.97,613.512C1135.25,613.252 1127.94,683.202 1172.96,639.645C1169.24,659.228 1161.94,674.964 1149.38,685.028" style="fill:none;stroke:rgb(39,145,239);stroke-width:14.67px;"/>
            </g>
            <g transform="matrix(-1.31907,0,0,1.30608,2174.89,-50.1631)">
                <path d="M1143,613.567C1207.61,536.131 1279.15,563.928 1352.07,505.798C1349.37,534.875 1320.91,560.314 1270.07,582.592" style="fill:none;stroke:rgb(39,145,239);stroke-width:14.67px;"/>
            </g>
            <g transform="matrix(-1.31907,0,0,1.30608,2174.89,-50.1631)">
                <path d="M1094.7,622.007C1094.92,599.197 1105.28,574.074 1121.21,574.074C1133.66,574.074 1145.12,599.856 1142.5,623.154" style="fill:none;stroke:rgb(39,145,239);stroke-width:14.67px;"/>
            </g>
        </g>
    </g>
</svg>
