<?xml version="1.0" encoding="UTF-8" standalone="no"?>
<!DOCTYPE svg PUBLIC "-//W3C//DTD SVG 1.1//EN" "http://www.w3.org/Graphics/SVG/1.1/DTD/svg11.dtd">
<svg width="100%" height="100%" viewBox="0 0 766 701" version="1.1" xmlns="http://www.w3.org/2000/svg" xmlns:xlink="http://www.w3.org/1999/xlink" xml:space="preserve" xmlns:serif="http://www.serif.com/" style="fill-rule:evenodd;clip-rule:evenodd;stroke-linecap:round;stroke-linejoin:round;stroke-miterlimit:1.5;">
    <g transform="matrix(1,0,0,1,-8495.88,-855.894)">
        <g transform="matrix(1,0,0,1,7712.86,26.3273)">
            <path d="M1456.16,1401.74C1491.42,1388.83 1544.39,1324.85 1545.49,1290.55C1546.29,1265.6 1515.19,1199.1 1475.8,1167.02" style="fill:none;stroke:rgb(23,204,94);stroke-width:5.91px;"/>
        </g>
        <g transform="matrix(1,0,0,1,7712.86,26.3273)">
            <path d="M1466.18,1397C1470.39,1400.52 1473.48,1404.79 1474.57,1410.38" style="fill:none;stroke:rgb(23,204,94);stroke-width:5.91px;"/>
        </g>
        <g transform="matrix(1,0,0,1,7712.86,26.3273)">
            <path d="M1436.89,1407.43C1400.71,1413.04 1372.45,1414.63 1361.8,1407.27" style="fill:none;stroke:rgb(23,204,94);stroke-width:5.91px;"/>
        </g>
        <g transform="matrix(1,0,0,1,7712.86,26.3273)">
            <path d="M1371.37,1450.66C1384.59,1454.69 1397.81,1454.38 1411.03,1450.08" style="fill:none;stroke:rgb(23,204,94);stroke-width:5.91px;"/>
        </g>
        <g transform="matrix(1,0,0,1,7712.86,26.3273)">
            <path d="M1456.83,1445.17C1461.05,1444.9 1464.59,1444.85 1468.13,1443.39" style="fill:none;stroke:rgb(23,204,94);stroke-width:5.91px;"/>
        </g>
        <g transform="matrix(1,0,0,1,7712.86,26.3273)">
            <path d="M1475.68,1410.23C1472.2,1409.04 1466.98,1431.82 1468.35,1443.55C1468.72,1446.8 1499.86,1438.12 1497.76,1434.78C1490.39,1423.03 1483.9,1413.04 1475.68,1410.23Z" style="fill:none;stroke:rgb(23,204,94);stroke-width:5.91px;"/>
        </g>
        <g transform="matrix(1,0,0,1,7712.86,26.3273)">
            <path d="M1410.48,1452.88C1411.85,1442.45 1428.94,1424.62 1434.03,1423.82C1438.31,1423.15 1451.28,1436.79 1457.41,1446.36C1459.54,1449.69 1449.48,1467.14 1446.35,1466.21C1431.33,1461.77 1410.09,1455.85 1410.48,1452.88Z" style="fill:none;stroke:rgb(23,204,94);stroke-width:5.91px;"/>
        </g>
        <g transform="matrix(1,0,0,1,7712.86,26.3273)">
            <path d="M1310.47,1497.85C1319.56,1500.4 1344.32,1501.47 1344.07,1496.09C1343.78,1490.13 1341.69,1485.17 1337.52,1480.63" style="fill:none;stroke:rgb(23,204,94);stroke-width:5.91px;"/>
        </g>
        <g transform="matrix(1,0,0,1,7712.86,26.3273)">
            <path d="M1234.16,1506.12C1234.06,1509.9 1257.17,1526.36 1263.59,1526.64C1267.61,1526.81 1278.92,1507.33 1278.55,1502.42" style="fill:none;stroke:rgb(23,204,94);stroke-width:5.91px;"/>
        </g>
        <g transform="matrix(1,0,0,1,7712.86,26.3273)">
            <path d="M1162.54,1453.21C1155.2,1457.85 1138.93,1476.61 1137.86,1496.19C1137.71,1498.89 1166.3,1495.86 1182.39,1492.9" style="fill:none;stroke:rgb(23,204,94);stroke-width:5.91px;"/>
        </g>
        <g transform="matrix(1,0,0,1,7712.86,26.3273)">
            <path d="M1094.6,1421.39C1106.63,1428.19 1126.21,1430.87 1154,1429.05" style="fill:none;stroke:rgb(23,204,94);stroke-width:5.91px;"/>
        </g>
        <g transform="matrix(1,0,0,1,7712.86,26.3273)">
            <path d="M1492.7,1244.04C1505.32,1248.19 1506.36,1265.66 1487.51,1267.94" style="fill:none;stroke:rgb(23,204,94);stroke-width:5.91px;"/>
        </g>
        <g transform="matrix(1,0,0,1,7712.86,26.3273)">
            <path d="M1489.82,1316.21C1503.16,1326.68 1508.74,1341.39 1486.82,1343.11" style="fill:none;stroke:rgb(23,204,94);stroke-width:5.91px;"/>
        </g>
        <g transform="matrix(1,0,0,1,7712.86,26.3273)">
            <path d="M1422.97,1325.91C1432.33,1323.59 1443.09,1312.26 1428.85,1303.39" style="fill:none;stroke:rgb(23,204,94);stroke-width:5.91px;"/>
        </g>
        <g transform="matrix(1,0,0,1,7712.86,26.3273)">
            <path d="M1312.53,1301.04C1325.78,1305.17 1326.26,1310.9 1311.81,1318.5" style="fill:none;stroke:rgb(23,204,94);stroke-width:5.91px;"/>
        </g>
        <g transform="matrix(1,0,0,1,7712.86,26.3273)">
            <path d="M1316.57,1392.69C1333.44,1387.92 1334.09,1381.33 1323.64,1373.49" style="fill:none;stroke:rgb(23,204,94);stroke-width:5.91px;"/>
        </g>
        <g transform="matrix(1,0,0,1,7712.86,26.3273)">
            <path d="M1257.97,1369.02C1271.36,1372.53 1276.22,1378 1256.1,1389.22" style="fill:none;stroke:rgb(23,204,94);stroke-width:5.91px;"/>
        </g>
        <g transform="matrix(1,0,0,1,7712.86,26.3273)">
            <path d="M842.216,1166.33C839.298,1157.72 838.415,1149.78 838.27,1142.09C834.834,1154.49 831.748,1167.68 829.39,1182.54C822.428,1184.34 816.106,1184.13 810.222,1182.54C816.351,1168.11 821.674,1153.08 826.571,1137.72C813.41,1151.44 800.066,1164.87 785.979,1177.05C788.748,1162.06 794.961,1147.07 802.047,1132.08C817.496,1124.13 833.198,1115.74 849.263,1106.71C835.592,1109.24 821.92,1112.97 808.249,1118.27L830.236,1095.02C845.658,1085.61 862.846,1078.41 880.13,1071.34C865.764,1071.68 851.61,1074.01 837.706,1078.67C845.766,1069.12 859.852,1058.96 875.62,1048.64C890.008,1045.51 906.448,1046.07 922.836,1046.53C912.443,1044.41 904.099,1040.37 896.762,1035.4C899.013,1033.14 902.859,1030.93 909.446,1028.77" style="fill:none;stroke:rgb(23,204,94);stroke-width:5.91px;"/>
        </g>
        <g transform="matrix(1,0,0,1,7712.86,26.3273)">
            <path d="M1234.14,1003.29C1233.55,1022.16 1228.95,1030.83 1224.27,1039.51" style="fill:none;stroke:rgb(23,204,94);stroke-width:5.91px;"/>
        </g>
        <g transform="matrix(1,0,0,1,7712.86,26.3273)">
            <path d="M1262.72,1030.9C1238.46,1033.86 1217.67,1040.93 1199.46,1051.05C1306.57,1053.69 1363.85,1098.59 1409.19,1153.62C1345.6,1089.77 1213.6,1048.04 1193.02,1062.78" style="fill:none;stroke:rgb(23,204,94);stroke-width:5.91px;"/>
        </g>
        <g transform="matrix(1,0,0,1,7712.86,26.3273)">
            <path d="M1094.68,1021.52C1100.49,1030.75 1105.96,1038.11 1111.06,1043.46C1116.77,1036.47 1121.21,1029.26 1124.8,1021.92C1127.81,1032.22 1132.2,1041.62 1140.13,1048.74L1150.57,1026.81C1153.93,1035.23 1158.88,1042.53 1165.77,1048.48C1172.96,1041.59 1178.65,1033.35 1182.68,1023.64C1185.98,1036.01 1189.81,1046.34 1195.23,1050.59L1208.31,1015.18L1216.64,1040.95" style="fill:none;stroke:rgb(23,204,94);stroke-width:5.91px;"/>
        </g>
        <g transform="matrix(1,0,0,1,7712.86,26.3273)">
            <path d="M1106.78,972.253L1112.17,984.938L1124.01,967.39C1126.44,982.14 1129.71,993.268 1133.84,1000.69C1142.28,993.284 1149.11,984.416 1151.91,971.936C1154.66,981.022 1158.53,988.994 1163.54,995.826L1178.55,970.35C1182.25,981.224 1186.62,990.661 1192.29,997.306C1195.38,991.852 1197.59,982.922 1198.42,968.447L1213.86,990.54L1220.09,976.693" style="fill:none;stroke:rgb(23,204,94);stroke-width:5.91px;"/>
        </g>
        <g transform="matrix(1,0,0,1,7712.86,26.3273)">
            <path d="M1098.22,979.137C1095.21,1000.82 1090.31,1021.31 1100.07,1051.02" style="fill:none;stroke:rgb(23,204,94);stroke-width:5.91px;"/>
        </g>
        <g transform="matrix(1,0,0,1,7712.86,26.3273)">
            <path d="M1267.38,875.516C1269.41,869.324 1271.41,862.168 1274.65,862.44C1279.61,863.594 1284.03,867.088 1287.95,872.745" style="fill:none;stroke:rgb(23,204,94);stroke-width:5.91px;"/>
        </g>
        <g transform="matrix(1,0,0,1,7712.86,26.3273)">
            <path d="M1238.43,871.151C1243.01,871.868 1247.44,871.546 1251.7,869.999C1256.54,868.243 1262,859.142 1262.49,852.663" style="fill:none;stroke:rgb(23,204,94);stroke-width:5.91px;"/>
        </g>
        <g transform="matrix(1,0,0,1,7712.86,26.3273)">
            <path d="M1244.83,900.421C1247.14,894.029 1264.9,896.598 1278.55,896.784C1285.83,896.883 1289.47,910.053 1290.83,917.47C1291.51,921.208 1273.63,923.906 1265.52,922.774C1258.77,921.832 1244.41,905.374 1244.83,900.421Z" style="fill:none;stroke:rgb(23,204,94);stroke-width:5.91px;"/>
        </g>
        <g transform="matrix(1,0,0,1,7712.86,26.3273)">
            <path d="M1321.13,871.067C1315.44,876.791 1308.31,881.518 1308.11,891.046C1308.02,895.578 1320.47,910.681 1324.98,910.877C1338.67,911.472 1362.5,907.976 1365.09,903.922C1368.33,898.843 1368.76,889.27 1368.05,877.875" style="fill:none;stroke:rgb(23,204,94);stroke-width:5.91px;"/>
        </g>
        <g transform="matrix(1,0,0,1,7712.86,26.3273)">
            <path d="M1382.38,989.276C1382.7,988.453 1383.55,987.753 1389.51,988.244C1391.08,988.373 1395.36,990.194 1395.36,988.897C1395.36,980.322 1390.46,955.545 1383.05,955.747C1373.89,955.996 1362.92,960.445 1360.98,964.65C1360.05,966.65 1360.07,968.838 1360.41,971.091" style="fill:none;stroke:rgb(23,204,94);stroke-width:5.91px;"/>
        </g>
        <g transform="matrix(1,0,0,1,7712.86,26.3273)">
            <path d="M1112.54,835.345C1106.39,838.129 1097.6,843.458 1095.96,848.416C1093.67,855.365 1092.89,867.686 1099.18,866.791C1104.46,866.041 1111.53,861.542 1119.83,854.478" style="fill:none;stroke:rgb(23,204,94);stroke-width:5.91px;"/>
        </g>
        <g transform="matrix(1,0,0,1,7712.86,26.3273)">
            <path d="M998.182,870.165C983.82,875.835 959.847,883.196 962.001,888.445C964.494,894.519 989.923,916.853 995.625,915.628C1014.32,911.612 1050.98,897.872 1049.04,892.897C1046.74,886.971 1043.45,880.764 1039.38,874.333" style="fill:none;stroke:rgb(23,204,94);stroke-width:5.91px;"/>
        </g>
        <g transform="matrix(1,0,0,1,7712.86,26.3273)">
            <path d="M939.804,964.288C934.275,956.735 922,940.33 923.778,937.692C925.908,934.533 939.097,923.922 946.283,923.94C963.14,923.981 979.116,925.52 982.199,929.622C985.716,934.305 984.123,941.409 981.858,948.831" style="fill:none;stroke:rgb(23,204,94);stroke-width:5.91px;"/>
        </g>
        <g transform="matrix(1,0,0,1,7712.86,26.3273)">
            <path d="M1083.6,876.601C1095.81,877.181 1105.7,878.749 1114.52,880.784C1116.41,869.056 1118.68,857.777 1121.79,847.505C1130.4,855.907 1138.18,864.168 1145.34,872.328C1153.27,863.482 1160.86,854.74 1165.62,846.868L1177.35,868.236C1184.12,859.666 1190.55,851.771 1196.35,845.141C1201.88,859.89 1205.08,867.55 1206.49,869.691C1211.33,864.433 1216.37,858.735 1221.94,851.778C1223.6,858.152 1225.32,865.195 1227.22,874.237C1230.75,871.951 1234.99,868.946 1239.49,865.69" style="fill:none;stroke:rgb(23,204,94);stroke-width:5.91px;"/>
        </g>
        <g transform="matrix(1,0,0,1,7712.86,26.3273)">
            <path d="M1250.49,1009.93C1258.68,999.044 1285.99,985.329 1293.5,987.289C1307.99,991.071 1310.44,1022.03 1308.59,1026.57C1304.08,1037.6 1280.15,1039.39 1272.04,1037.48C1268.47,1036.64 1265.73,1034.92 1263.58,1032.57" style="fill:none;stroke:rgb(23,204,94);stroke-width:5.91px;"/>
        </g>
        <g transform="matrix(1,0,0,1,7712.86,26.3273)">
            <path d="M1051.42,920.296C1045,930.329 1036.77,937.237 1033.85,947.414C1032.82,950.995 1070.99,950.431 1072.49,947.414C1074.66,943.048 1076.7,935.832 1078.25,918.259" style="fill:none;stroke:rgb(23,204,94);stroke-width:5.91px;"/>
        </g>
        <g transform="matrix(1,0,0,1,7712.86,26.3273)">
            <path d="M1028.04,964.918C1034.98,969.815 1040.34,985.268 1045.14,997.379C1046.37,1000.5 1046.59,1006.22 1043.32,1007.47C1032.57,1011.61 1021.85,1015.2 1011.22,1017.47C1008.2,1018.09 1005.55,1018.78 1004.49,1017.84C995.547,1009.83 981.917,992.897 982.762,988.923C983.522,985.352 1023.54,962.238 1028.04,964.918Z" style="fill:none;stroke:rgb(23,204,94);stroke-width:5.91px;"/>
        </g>
        <g transform="matrix(1,0,0,1,7712.86,26.3273)">
            <path d="M1116.36,965.15C1115.93,962.206 1113.96,958.516 1111.92,958.239C1102.52,956.964 1092.57,956.41 1081.22,957.658C1078.42,957.966 1065.24,973.272 1065.8,978.607C1066.14,981.809 1081.6,980.517 1093.3,983.335" style="fill:none;stroke:rgb(23,204,94);stroke-width:5.91px;"/>
        </g>
        <g transform="matrix(1,0,0,1,7712.86,26.3273)">
            <path d="M1150.37,1201.24C1165.33,1206.13 1179.45,1214.02 1192.06,1224.81C1201.6,1209.89 1214.12,1176.77 1207.64,1173.13C1199.9,1168.79 1165.98,1189.36 1150.37,1201.24Z" style="fill:none;stroke:rgb(23,204,94);stroke-width:5.91px;"/>
        </g>
        <g transform="matrix(1,0,0,1,7712.86,26.3273)">
            <path d="M1076.44,1386.1L1086.83,1380.5" style="fill:none;stroke:rgb(23,204,94);stroke-width:5.91px;"/>
        </g>
        <g transform="matrix(1,0,0,1,7712.86,26.3273)">
            <path d="M965.087,1391.82C997.578,1404.07 1030.67,1405.02 1064.58,1390.62" style="fill:none;stroke:rgb(23,204,94);stroke-width:5.91px;"/>
        </g>
        <g transform="matrix(1,0,0,1,7712.86,26.3273)">
            <path d="M877.778,1350.95C902.358,1365.43 926.144,1382.29 949.303,1401.03C955.127,1405.75 964.969,1408.35 975.409,1408.36C982.439,1408.37 1003.8,1417.56 1021.76,1417.82C1041.15,1418.09 1058.03,1412.8 1078.57,1402.5C1098.54,1392.48 1119.04,1381.13 1138.84,1367.87C1145.72,1363.26 1152.65,1357.58 1159.88,1345.49" style="fill:none;stroke:rgb(23,204,94);stroke-width:5.91px;"/>
        </g>
        <g transform="matrix(1,0,0,1,7712.86,26.3273)">
            <path d="M1066.69,1374.53C1071.78,1378.91 1074.64,1383.5 1076.6,1388.17C1079.47,1395 1065.91,1400.09 1064.99,1393.39C1064.21,1387.71 1064.63,1382.48 1066.69,1374.53Z" style="fill:none;stroke:rgb(23,204,94);stroke-width:5.91px;"/>
        </g>
        <g transform="matrix(1,0,0,1,7712.86,26.3273)">
            <path d="M932.321,1385.96C935.026,1388.05 943.168,1385.73 943.143,1381.46C943.106,1375.23 942.236,1369.83 939.979,1365.81C935.338,1372.11 929.776,1383.99 932.321,1385.96Z" style="fill:none;stroke:rgb(23,204,94);stroke-width:5.91px;"/>
        </g>
        <g transform="matrix(1,0,0,1,7712.86,26.3273)">
            <path d="M1155.89,1337.47C1158.19,1343.86 1161.75,1349.72 1166.54,1355.05C1172.32,1349.04 1175.99,1342.06 1177.86,1334.27" style="fill:none;stroke:rgb(23,204,94);stroke-width:5.91px;"/>
        </g>
        <g transform="matrix(1,0,0,1,7712.86,26.3273)">
            <path d="M860.138,1337.54C862.762,1345.31 867.059,1351.4 872.525,1356.32C877.393,1351.81 881.597,1345.96 885.045,1338.61" style="fill:none;stroke:rgb(23,204,94);stroke-width:5.91px;"/>
        </g>
        <g transform="matrix(1,0,0,1,7712.86,26.3273)">
            <path d="M841.488,1320.79C844.826,1327 852.075,1338.04 860.402,1337.71C883.893,1336.77 928.307,1342.32 946.223,1347.75C965.517,1353.59 977.036,1362.86 997.324,1363.81C1021.79,1364.96 1040.99,1355.09 1074.59,1349.84C1115.3,1343.49 1155.97,1337.6 1195.52,1331.58C1206.95,1329.84 1214.09,1321.42 1218.42,1308.67" style="fill:none;stroke:rgb(23,204,94);stroke-width:5.91px;"/>
        </g>
        <g transform="matrix(1,0,0,1,7712.86,26.3273)">
            <path d="M967.647,1337.58C972.979,1339.43 977.402,1342.09 980.689,1345.76" style="fill:none;stroke:rgb(23,204,94);stroke-width:5.91px;"/>
        </g>
        <g transform="matrix(1,0,0,1,7712.86,26.3273)">
            <path d="M1013.34,1347.72C1016.95,1344.01 1021.14,1341.46 1026.12,1340.48" style="fill:none;stroke:rgb(23,204,94);stroke-width:5.91px;"/>
        </g>
        <g transform="matrix(1,0,0,1,7712.86,26.3273)">
            <path d="M1162.41,1246.4C1128.65,1248.79 1103.27,1265.78 1086.83,1298.35L1104.64,1272.56C1117.5,1299.76 1144.36,1284.11 1133.46,1252.86" style="fill:none;stroke:rgb(23,204,94);stroke-width:5.91px;"/>
        </g>
        <g transform="matrix(1,0,0,1,7712.86,26.3273)">
            <path d="M917.801,1231.19C905.305,1235.22 893.82,1241.47 884.166,1251.75" style="fill:none;stroke:rgb(23,204,94);stroke-width:5.91px;"/>
        </g>
        <g transform="matrix(1,0,0,1,7712.86,26.3273)">
            <path d="M1108.55,1222.68C1102.34,1222.34 1096.18,1224.4 1093.4,1231.19C1086.19,1248.79 1083.92,1259.95 1082.75,1275.96" style="fill:none;stroke:rgb(23,204,94);stroke-width:5.91px;"/>
        </g>
        <g transform="matrix(1,0,0,1,7712.86,26.3273)">
            <path d="M1126.62,1222.64C1137.94,1227.95 1154.04,1237.34 1155.42,1251.75C1156.39,1261.86 1154.21,1290.39 1136.94,1303.51C1122.03,1314.84 1106.62,1308.21 1091.15,1290.52" style="fill:none;stroke:rgb(23,204,94);stroke-width:5.91px;"/>
        </g>
        <g transform="matrix(1,0,0,1,7712.86,26.3273)">
            <path d="M868.515,1229.83C845.685,1250.14 829.139,1266.76 819.494,1279.34C807.584,1294.87 810.415,1311.56 813.397,1328.85C815.735,1342.4 823.571,1352.5 830.957,1355.92C869.825,1373.93 907.155,1395.32 944.241,1417.26C973.495,1434.56 1010.97,1438.4 1048.99,1436.94C1075.28,1435.93 1097.91,1418.81 1168.01,1379.21C1188.54,1367.61 1210.68,1367.04 1226.36,1354.4C1245.9,1338.65 1249.96,1320 1250.19,1296.78C1250.27,1289.7 1235.7,1273.26 1228.98,1268C1219.81,1260.83 1214.95,1250.42 1208.97,1242.11C1206.25,1238.33 1204.36,1235.85 1200.2,1232.15" style="fill:none;stroke:rgb(23,204,94);stroke-width:5.91px;"/>
        </g>
        <g transform="matrix(1,0,0,1,7712.86,26.3273)">
            <path d="M811.566,1315.94C795.728,1326.46 788.323,1341.91 789.786,1363.74C791.11,1383.51 800.512,1394.45 808.788,1407.25C811.273,1410.07 815.497,1417.78 815.497,1417.78C825.596,1419.52 834.26,1443.6 830.046,1446.85C830.046,1446.85 832.081,1449.01 832.982,1449.39C838.799,1451.87 852.233,1455.36 852.233,1455.36C855.667,1439.05 868.35,1433.48 872.159,1432.46C877.875,1432.21 887.967,1443.61 893.031,1460.96C893.031,1460.96 902.438,1461.75 907.122,1462.12C910.859,1462.1 918.116,1461.73 918.116,1461.73C915.349,1457.67 929.066,1437.79 938.079,1436.94C943.135,1437.36 956.186,1445.81 960.718,1452.61C960.718,1452.61 966.186,1450.3 968.971,1449.01C977.047,1445.26 977.726,1436.86 978.727,1428.71" style="fill:none;stroke:rgb(23,204,94);stroke-width:5.91px;"/>
        </g>
        <g transform="matrix(1,0,0,1,7712.86,26.3273)">
            <path d="M857.101,1415.66C878.899,1422.37 903.096,1426.23 931.554,1425.03" style="fill:none;stroke:rgb(23,204,94);stroke-width:5.91px;"/>
        </g>
        <g transform="matrix(1,0,0,1,7712.86,26.3273)">
            <path d="M826.04,1369.77C815.774,1375.48 815.598,1381.7 829.474,1388.66" style="fill:none;stroke:rgb(23,204,94);stroke-width:5.91px;"/>
        </g>
        <g transform="matrix(1,0,0,1,7712.86,26.3273)">
            <path d="M938.981,1437.05C932.911,1435.36 916.303,1453.64 917.909,1461.09C919.915,1470.39 932.241,1480.72 946.005,1482.94C952.614,1484.01 958.385,1470.24 961.77,1456.32C962.942,1451.5 948.757,1439.77 938.981,1437.05Z" style="fill:none;stroke:rgb(23,204,94);stroke-width:5.91px;"/>
        </g>
        <g transform="matrix(1,0,0,1,7712.86,26.3273)">
            <path d="M871.362,1432.67C877.294,1430.38 889.714,1447.31 892.902,1460.93C894.127,1466.16 853.747,1481.86 852.32,1474.04C848.869,1455.12 854.952,1439.01 871.362,1432.67Z" style="fill:none;stroke:rgb(23,204,94);stroke-width:5.91px;"/>
        </g>
        <g transform="matrix(1,0,0,1,7712.86,26.3273)">
            <path d="M793.319,1454.21C787.897,1452.18 799.168,1427.27 813.298,1418.32C820.976,1413.45 836.502,1443.04 829.375,1447.35C815.372,1455.81 805.279,1458.71 793.319,1454.21Z" style="fill:none;stroke:rgb(23,204,94);stroke-width:5.91px;"/>
        </g>
        <g transform="matrix(1,0,0,1,7712.86,26.3273)">
            <path d="M867.126,1258.93C891.493,1258.13 915.736,1269.53 939.819,1296.86" style="fill:none;stroke:rgb(23,204,94);stroke-width:5.91px;"/>
        </g>
        <g transform="matrix(1,0,0,1,7712.86,26.3273)">
            <path d="M878.053,1259.4C865.243,1305.44 920.112,1328.78 931.633,1288.19" style="fill:none;stroke:rgb(23,204,94);stroke-width:5.91px;"/>
        </g>
        <g transform="matrix(1,0,0,1,7712.86,26.3273)">
            <path d="M895.682,1264.26C889.4,1295.99 913.011,1306.97 927.542,1284.25" style="fill:none;stroke:rgb(23,204,94);stroke-width:5.91px;"/>
        </g>
        <g transform="matrix(1,0,0,1,7712.86,26.3273)">
            <path d="M961.623,1376.64C964.578,1383.41 965.438,1395.71 962.955,1396.95C959.32,1398.75 953.045,1394.53 953.299,1391.29C953.806,1384.82 956.676,1380 961.623,1376.64Z" style="fill:none;stroke:rgb(23,204,94);stroke-width:5.91px;"/>
        </g>
        <g transform="matrix(1,0,0,1,7712.86,26.3273)">
            <path d="M1089.6,1366.75C1092.94,1369.57 1096.05,1372.65 1096.53,1378.9C1097.21,1387.84 1087.91,1389.14 1087.26,1385.93C1085.71,1378.37 1087.17,1372.32 1089.6,1366.75Z" style="fill:none;stroke:rgb(23,204,94);stroke-width:5.91px;"/>
        </g>
        <g transform="matrix(1,0,0,1,7712.86,26.3273)">
            <path d="M909.413,1341.21C903.784,1352.36 916.69,1363.8 934.187,1375.31" style="fill:none;stroke:rgb(23,204,94);stroke-width:5.91px;"/>
        </g>
        <g transform="matrix(1,0,0,1,7712.86,26.3273)">
            <path d="M943.776,1382.23L953.5,1387.96" style="fill:none;stroke:rgb(23,204,94);stroke-width:5.91px;"/>
        </g>
        <g transform="matrix(1,0,0,1,7712.86,26.3273)">
            <path d="M1096.15,1375.04C1112.32,1365.18 1129.73,1355.59 1127.05,1341.74" style="fill:none;stroke:rgb(23,204,94);stroke-width:5.91px;"/>
        </g>
        <g transform="matrix(1,0,0,1,7712.86,26.3273)">
            <path d="M874.69,1225.6C882.861,1216.63 892.58,1209.58 903.593,1204.16C894.553,1193.51 875.384,1185.02 859.905,1184.05C856.74,1200.08 866.607,1212.62 874.69,1225.6Z" style="fill:none;stroke:rgb(23,204,94);stroke-width:5.91px;"/>
        </g>
        <g transform="matrix(1,0,0,1,7712.86,26.3273)">
            <path d="M863.286,1234.73C851.659,1208.86 834.577,1182.51 843.307,1162.09C845.908,1156.01 874.351,1158.33 921.35,1166.67" style="fill:none;stroke:rgb(23,204,94);stroke-width:5.91px;"/>
        </g>
        <g transform="matrix(1,0,0,1,7712.86,26.3273)">
            <path d="M933.706,1148.88L912.846,1152.82C914.675,1131.85 913.99,1111.56 912.508,1091.48C905.646,1119.13 899.768,1145.25 899.541,1162.63L875.863,1159.31C872.288,1147.18 870.153,1134.87 868.984,1122.44C864.906,1134.95 861.749,1147.92 860.979,1158.63" style="fill:none;stroke:rgb(23,204,94);stroke-width:5.91px;"/>
        </g>
        <g transform="matrix(1,0,0,1,7712.86,26.3273)">
            <path d="M1208.1,1240.32C1217.91,1207.13 1225.77,1162.36 1215.51,1158.74C1206.68,1155.63 1154.24,1157.77 1118.7,1163.24" style="fill:none;stroke:rgb(23,204,94);stroke-width:5.91px;"/>
        </g>
        <g transform="matrix(1,0,0,1,7712.86,26.3273)">
            <path d="M1194.63,1052.22C1169.56,1048.41 1147.06,1047.46 1128.03,1050.4C1093.69,1055.7 993.827,1130.84 982.352,1173.45C988.358,1120.78 1058.3,1054.12 1106.44,1055.08C1090.04,1044.79 1072.2,1039.68 1052.95,1039.62C1048.54,1047.37 1046.16,1054.48 1042.96,1060.94C1031.25,1062.65 1021.19,1062.32 1011.75,1061.2L1005.31,1066.92C1015.3,1067.88 1027.13,1071.42 1033.43,1074.09C1020,1072.91 1002,1071.43 993.159,1075.87C978.576,1083.2 973.555,1089.37 970.645,1095.28L993.538,1098.14C980.18,1101.67 964.691,1103.39 958.458,1109.75C949.669,1118.71 940.788,1130.9 935.409,1139.59C943.991,1132.77 953.694,1127.3 965.118,1123.9C951.496,1135.95 939.289,1145.17 927.657,1153.24C922.157,1157.06 919.311,1175.3 918.916,1185.6C926.381,1177.49 943.869,1172.76 957.72,1166.52C942.318,1175.94 930.016,1185.21 920.581,1194.34C916.152,1198.63 917.18,1209.48 917.876,1215.78C929.689,1203.08 940.367,1195.37 950.758,1188.93C940.787,1199.07 931.906,1208.99 926.2,1218.28C924.642,1223.07 932.821,1237.77 937.23,1242.21C946.312,1228.81 956.336,1217.16 967.407,1207.45C966.585,1226.77 962.239,1242.98 956.585,1258.03C961.257,1261.04 977.78,1258.02 982.807,1252.62C983.936,1235.06 982.387,1219.07 980.102,1203.5C982.819,1214.68 985.462,1225.72 987.636,1235.92C988.547,1240.2 989.375,1244.32 990.091,1248.25C995.399,1249.34 1001,1248.6 1007.16,1244.29C1007.85,1228.08 1007,1212.75 1005.7,1197.67C1010.33,1211.56 1014.88,1224.9 1019.23,1236.8C1025.57,1234.99 1030.95,1231.25 1035.88,1226.6C1034.99,1209.98 1030.71,1196.22 1024.43,1184.15C1033.2,1195.36 1040.24,1208.82 1045.03,1225.14C1052.67,1220.75 1059.57,1215.18 1065.22,1207.66C1061.75,1191.96 1057.16,1176.73 1051.69,1161.88C1061.31,1172.78 1070.61,1183.78 1079.37,1194.97C1088.13,1190.28 1096.44,1184.58 1104.35,1177.9C1100.9,1169.11 1096.25,1162.74 1091.65,1156.26L1106.63,1176.65L1120.16,1167.7C1114.05,1153.19 1105.74,1140.14 1097.06,1127.33L1127.86,1160.21C1135.99,1154.63 1143.26,1148.88 1148.26,1142.73C1143.04,1135.54 1135.65,1129.56 1127.86,1123.79C1135.47,1128.38 1143.02,1133.37 1150.34,1140.23L1164.91,1126.91C1156.13,1114.64 1145.58,1105.92 1134.52,1098.19C1144.74,1097.73 1156.12,1102.79 1170.32,1121.09C1173.35,1111.94 1175.41,1101.54 1175.31,1088.41C1159.25,1076.89 1147.06,1073.71 1136.39,1073.85C1139.86,1069.88 1158.02,1070.69 1185.93,1074.68L1194.63,1052.22Z" style="fill:none;stroke:rgb(23,204,94);stroke-width:5.91px;"/>
        </g>
        <g transform="matrix(1,0,0,1,7712.86,26.3273)">
            <path d="M1163.94,957.028C1132.98,939.058 1077.63,988.698 1052.43,1039.59C1049.14,1046.25 1046.92,1052.78 1043.56,1060.63L1009.22,1059.59C1007.29,1053.49 1007.06,1046.54 1007.4,1039.3C1002.61,1043.28 998.532,1049.21 994.653,1055.69C976.956,1056.24 959.826,1049.31 947.567,1038.26C949.729,1023.06 953.796,1013.59 957.973,1004.44C947.237,1010.99 937.86,1021.16 930.398,1036.44C920.618,1038.16 907.404,1027.69 897.1,1018.75C940.179,972.958 989.735,936.44 1053.1,920.022C1083.76,914.19 1137.73,923.943 1162.96,947.208C1176.97,939.814 1190.22,932.048 1212.91,928.998C1269.22,921.429 1358.26,950.689 1409.06,1019.01C1402.82,1030.53 1395.98,1035.9 1388.77,1037.48C1382.95,1028.06 1375.65,1019.13 1366.92,1010.68C1372.31,1018.82 1375.47,1028.64 1377.47,1040.17C1378.51,1046.2 1362.63,1048.75 1356.51,1047.1C1350.61,1040.39 1345.09,1033.47 1340.64,1026.03C1336.56,1034.93 1338.92,1045 1340.38,1054.91C1315.28,1059.21 1291.56,1058.1 1269.36,1051.01C1262.19,1008.61 1193.52,936.64 1163.94,957.028Z" style="fill:none;stroke:rgb(23,204,94);stroke-width:5.91px;"/>
        </g>
        <g transform="matrix(1,0,0,1,7712.86,26.3273)">
            <path d="M1323.66,970.623C1327.48,969.745 1334.21,975.709 1339.38,977.917C1348.72,981.908 1362.09,988.09 1361.19,992.271C1360.43,995.846 1338.44,1005.25 1333.32,1004.43C1323.86,1002.94 1312.86,991.29 1312.02,986.975C1310.33,978.279 1314.17,972.802 1323.66,970.623Z" style="fill:none;stroke:rgb(23,204,94);stroke-width:5.91px;"/>
        </g>
        <g transform="matrix(1,0,0,1,7712.86,26.3273)">
            <path d="M1229.51,927.538C1224.95,931.454 1221.73,935.322 1223.97,938.995C1230.83,950.281 1259.46,963.497 1263.7,962.454C1277.46,959.07 1283.59,948.898 1286.43,935.813" style="fill:none;stroke:rgb(23,204,94);stroke-width:5.91px;"/>
        </g>
        <g transform="matrix(1,0,0,1,7712.86,26.3273)">
            <path d="M1095.24,919.717C1088.03,901.393 1081.76,884.194 1083.32,876.345C1091.37,885.742 1100.41,893.832 1110.88,900.077C1117.21,893 1123.39,885.09 1129.24,875.345C1137.13,886.405 1145.44,896.453 1155.52,902.169C1161.04,895.292 1165.42,887.011 1167.8,876.255C1171.01,885.219 1175.75,892.507 1181.39,898.804C1187.62,892.341 1193.92,885.446 1200.39,877.528C1206.71,884.402 1210.51,891.869 1212.71,899.713C1221.51,889.893 1230.43,879.138 1239.72,865.434C1230.92,894.082 1226.85,910.78 1222.71,927.628" style="fill:none;stroke:rgb(23,204,94);stroke-width:5.91px;"/>
        </g>
        <g transform="matrix(1,0,0,1,7712.86,26.3273)">
            <path d="M1083.31,883.185C976.844,856.797 927.612,877.018 916.516,887.589C907.323,896.347 901.942,906.627 898.615,916.146C915.876,908.538 925.742,906.989 941.521,905.632C926.366,913.834 911.212,921.448 896.057,926.233C887.992,948.51 877.528,967.682 876.594,999.187C902.203,974.596 957.207,958.039 976.896,952.445" style="fill:none;stroke:rgb(23,204,94);stroke-width:5.91px;"/>
        </g>
        <g transform="matrix(1,0,0,1,7712.86,26.3273)">
            <path d="M1003.44,870.212C1008.32,864.049 1015.08,857.935 1027.86,850.973C1043.17,852.555 1051.5,858.798 1058.5,865.92C1053.76,858.131 1048.54,850.82 1042.22,844.61C1097.69,822.259 1121.97,832.376 1153.51,862.813" style="fill:none;stroke:rgb(23,204,94);stroke-width:5.91px;"/>
        </g>
        <g transform="matrix(1,0,0,1,7712.86,26.3273)">
            <path d="M1041.02,854.004C1040.18,857.347 1040.21,860.006 1040.64,862.339C1042.51,867.001 1048.85,873.536 1055.13,876.167C1061.33,878.766 1077.4,861.873 1075.4,851.447C1074.92,848.985 1056.93,845.64 1048.31,850.121" style="fill:none;stroke:rgb(23,204,94);stroke-width:5.91px;"/>
        </g>
        <g transform="matrix(1,0,0,1,7711.91,25.759)">
            <path d="M1126.08,851.068C1128.29,849.389 1130.25,847.348 1131.95,844.912" style="fill:none;stroke:rgb(23,204,94);stroke-width:5.91px;"/>
        </g>
        <g transform="matrix(1,0,0,1,7712.86,26.3273)">
            <path d="M1235.29,882.089C1375.04,848.957 1425.9,896.734 1424.72,952.755C1414.11,945.412 1403.51,941.063 1392.9,938.14C1407.25,951.644 1419.82,965.682 1431.01,980.133C1431.22,989.926 1428.56,997.253 1424.35,1003.26C1415.18,999.303 1407.15,994.893 1399.56,990.307C1408.19,998.578 1414.75,1007.6 1419.91,1017.13C1417.71,1023.07 1414.16,1025.95 1411.95,1026.19C1410.45,1026.09 1408.78,1025.1 1406.96,1023.42" style="fill:none;stroke:rgb(23,204,94);stroke-width:5.91px;"/>
        </g>
        <g transform="matrix(1,0,0,1,7712.86,26.3273)">
            <path d="M1198.58,850.26C1209.23,832.168 1262.11,829.647 1264.31,835.295C1265.39,838.061 1251.49,851.377 1250.95,859.542C1263.62,853.165 1279.32,839.314 1286.99,840.315C1302.24,842.302 1317.11,852.819 1331.6,871.476" style="fill:none;stroke:rgb(23,204,94);stroke-width:5.91px;"/>
        </g>
        <g transform="matrix(1,0,0,1,7712.86,26.3273)">
            <path d="M1256.26,847.957L1236.64,847.351C1231.81,847.626 1227.66,859.288 1229.29,866.597C1229.69,868.434 1231.4,869.161 1233.23,869.779" style="fill:none;stroke:rgb(23,204,94);stroke-width:5.91px;"/>
        </g>
        <g transform="matrix(1,0,0,1,7712.86,26.3273)">
            <path d="M1232.14,987.462C1235.19,1007.86 1236.87,1026.8 1230.88,1037.58" style="fill:none;stroke:rgb(23,204,94);stroke-width:5.91px;"/>
        </g>
        <g transform="matrix(1,0,0,1,7712.86,26.3273)">
            <path d="M1054.51,1035.99C1068.09,1032.77 1082.84,1036.83 1096.9,1040.14" style="fill:none;stroke:rgb(23,204,94);stroke-width:5.91px;"/>
        </g>
        <g transform="matrix(1,0,0,1,7712.86,26.3273)">
            <path d="M1065.6,1017.14C1075.47,1018.05 1085.36,1020.91 1094.74,1026.88" style="fill:none;stroke:rgb(23,204,94);stroke-width:5.91px;"/>
        </g>
        <g transform="matrix(1,0,0,1,7712.86,26.3273)">
            <path d="M958.176,1045.72C917.465,1067.94 891.516,1089.45 870.086,1110.73C897.547,1086 930.538,1065.63 973.504,1053.12" style="fill:none;stroke:rgb(23,204,94);stroke-width:5.91px;"/>
        </g>
        <g transform="matrix(1,0,0,1,7712.86,26.3273)">
            <path d="M953.067,1115.84C951.918,1106.33 953.497,1092.68 958.352,1074.09C960.632,1090.22 962.989,1102.81 965.576,1104.92" style="fill:none;stroke:rgb(23,204,94);stroke-width:5.91px;"/>
        </g>
        <g transform="matrix(1,0,0,1,7712.86,26.3273)">
            <path d="M1174.82,1098.08L1184.63,1089.4C1180.3,1103.27 1177.86,1116.62 1176.17,1129.77C1187.07,1137.11 1198.28,1142.88 1209.66,1147.81C1217.94,1139.35 1221.48,1119.8 1225.34,1101.02C1228.24,1115.66 1231.65,1129.44 1228.15,1154.91C1234.82,1160.87 1243.11,1164.92 1253.86,1166.08L1255.33,1123.9L1256.45,1167.43C1273.71,1177.25 1291.51,1184.97 1310.69,1187.33L1306.18,1123.74C1314.45,1144.79 1320.79,1166.84 1322.08,1191.5C1327.61,1192.67 1333.6,1193.45 1340.57,1193.42L1338.32,1160.83L1341.47,1194.21C1349.28,1196.69 1355.7,1200.68 1360.87,1206.05C1362.71,1190.69 1362.09,1174.77 1360.81,1158.69C1365.68,1169.18 1369.25,1182.54 1370.51,1200.97L1402.76,1221.21C1404.38,1206.6 1401.99,1193.75 1399.71,1180.85C1405.19,1194.67 1410.15,1208.78 1413.47,1223.81C1422.89,1227.59 1433.41,1230.82 1445.71,1233.16C1445.32,1222.77 1443.38,1209.53 1439.85,1193.36C1446,1208.87 1452.1,1224.41 1458.01,1240.16C1464.83,1241.2 1472.39,1242.66 1480.89,1244.67C1473.56,1225.01 1464.35,1207.87 1454.85,1191.11C1478.15,1200.39 1491.12,1206.26 1493.98,1208.81C1490.17,1197.72 1485.08,1187.14 1478.87,1177.01L1452.03,1171.49L1476.95,1174.76C1474.94,1169.64 1474.51,1163.37 1475.14,1156.32C1459.93,1155.45 1446.37,1154.18 1433.09,1152.83C1444.42,1150.34 1455.95,1148.27 1468.49,1148.43C1466,1142.69 1461.31,1137.63 1454.96,1133.09L1406.14,1130.5C1433.11,1125.1 1445.73,1121.7 1446.96,1119.9L1437.48,1103.78C1419.34,1105.28 1402.18,1105.42 1385.95,1104.29C1397.49,1098.57 1408.96,1092.79 1422.94,1089.51C1416.03,1079.28 1407.66,1072.27 1398.58,1066.85C1374.26,1073.3 1353.18,1077.4 1333.18,1080.72C1349.39,1072.93 1365.96,1065.85 1384.83,1063.13C1370.98,1055.43 1356.11,1049.66 1339.61,1047.01" style="fill:none;stroke:rgb(23,204,94);stroke-width:5.91px;"/>
        </g>
        <g transform="matrix(1,0,0,1,7712.86,26.3273)">
            <path d="M936.832,1246.32C938.955,1257.13 940.127,1268.29 939.492,1280.09" style="fill:none;stroke:rgb(23,204,94);stroke-width:5.91px;"/>
        </g>
        <g transform="matrix(1,0,0,1,7712.86,26.3273)">
            <path d="M1209.05,1444.71C1237,1455.74 1264.95,1463.34 1292.9,1459.73" style="fill:none;stroke:rgb(23,204,94);stroke-width:5.91px;"/>
        </g>
        <g transform="matrix(1,0,0,1,7712.86,26.3273)">
            <path d="M1151.72,1388.37C1150.02,1411.55 1152.55,1433.51 1162.4,1453.32C1176.74,1463.11 1181.22,1477.24 1182.32,1492.87C1195.64,1502.81 1213.09,1506.91 1233.98,1506.14C1239.05,1495.64 1249.9,1482.4 1256.07,1482.62C1261.39,1482.81 1272.94,1492.95 1278.44,1502.54C1294.45,1503.47 1306.42,1502.5 1310.77,1497.92C1307.75,1497.12 1304.87,1495.8 1305.14,1493.59C1306.3,1483.93 1320.11,1464.93 1325.63,1466.16C1329.78,1467.09 1333.78,1471.6 1337.61,1480.89C1340.98,1472.29 1336.57,1461.11 1338.91,1456.35C1350.26,1433.22 1364.81,1406.84 1368.44,1380.53C1373.9,1341.05 1365.76,1299.31 1345.77,1255.59" style="fill:none;stroke:rgb(23,204,94);stroke-width:5.91px;"/>
        </g>
        <g transform="matrix(1,0,0,1,7712.86,26.3273)">
            <path d="M1366.16,1314.2C1395.48,1286.52 1409.96,1254.71 1404.69,1211.99" style="fill:none;stroke:rgb(23,204,94);stroke-width:5.91px;"/>
        </g>
        <g transform="matrix(1,0,0,1,7712.86,26.3273)">
            <path d="M1353.79,1427.13C1362.9,1431.91 1369.8,1439.52 1371.49,1449.39C1372.39,1454.62 1350.6,1465.25 1338.46,1463.08" style="fill:none;stroke:rgb(23,204,94);stroke-width:5.91px;"/>
        </g>
    </g>
</svg>
