<?xml version="1.0" encoding="UTF-8" standalone="no"?>
<!DOCTYPE svg PUBLIC "-//W3C//DTD SVG 1.1//EN" "http://www.w3.org/Graphics/SVG/1.1/DTD/svg11.dtd">
<svg width="100%" height="100%" viewBox="0 0 1233 1280" version="1.1" xmlns="http://www.w3.org/2000/svg" xmlns:xlink="http://www.w3.org/1999/xlink" xml:space="preserve" xmlns:serif="http://www.serif.com/" style="fill-rule:evenodd;clip-rule:evenodd;stroke-linejoin:round;stroke-miterlimit:2;">
    <g transform="matrix(0.1,0,0,-0.1,0,1280)">
        <path d="M7950,12354C7827,12335 7737,12312 7640,12275C7459,12206 7355,12145 7020,11909C6896,11822 6752,11727 6699,11697C6448,11555 6167,11455 5850,11395C5601,11348 5516,11328 5410,11295C5352,11277 5276,11254 5241,11246C5144,11221 5067,11183 5023,11137C4982,11094 4875,10947 4665,10645C4482,10381 4400,10282 4205,10092C4106,9994 4011,9899 3995,9880L3965,9845L3968,9721C3970,9652 3967,9562 3961,9521C3955,9479 3948,9423 3945,9395C3925,9225 3856,8892 3792,8659C3727,8423 3723,8385 3750,8255C3784,8086 3799,7986 3801,7902C3805,7727 3837,7578 3885,7508L3911,7470L3885,7420C3857,7366 3826,7245 3835,7230C3848,7209 3826,7221 3801,7248C3762,7290 3690,7345 3643,7369C3569,7406 3481,7392 3424,7335C3413,7325 3402,7324 3373,7332C3351,7338 3291,7340 3230,7337C3027,7326 2827,7237 2684,7094C2649,7059 2619,7034 2617,7038C2615,7042 2583,7142 2546,7260C2509,7378 2456,7539 2430,7617C2403,7695 2374,7801 2365,7852C2330,8055 2306,8096 2217,8094C2181,8094 2135,8081 2070,8055C1918,7994 1470,7772 1415,7731L1365,7693L1366,8044C1366,8376 1368,8404 1393,8555C1408,8643 1420,8749 1420,8790C1420,8892 1431,8922 1489,8986C1537,9039 1560,9083 1546,9097C1543,9101 1520,9099 1495,9093C1457,9084 1450,9085 1450,9098C1450,9124 1529,9300 1616,9465C1735,9693 1785,9835 1753,9847C1730,9856 1673,9821 1628,9770C1577,9713 1581,9727 1674,9922C1784,10154 1800,10214 1742,10196C1660,10170 1311,9719 1095,9360C931,9087 787,8774 696,8491C631,8289 541,7919 516,7745C513,7723 508,7694 505,7680C485,7570 439,7177 445,7162C449,7151 466,7150 528,7155C625,7163 876,7187 997,7200C1142,7216 1247,7213 1282,7193C1348,7153 1414,6944 1435,6710C1438,6674 1442,6629 1445,6610C1447,6591 1452,6539 1455,6495C1461,6411 1494,6171 1510,6085C1515,6058 1522,6020 1525,6002C1536,5936 1561,5822 1592,5705C1676,5379 1764,5341 2150,5465C2208,5483 2311,5514 2380,5533C2449,5552 2558,5589 2622,5614C2687,5639 2759,5665 2783,5672L2827,5683L2896,5626C3020,5522 3028,5503 2989,5388C2944,5253 2676,4752 2587,4635C2441,4444 2345,4354 2020,4105C1789,3928 1632,3776 1535,3635C1387,3420 810,2536 810,2524C810,2508 962,2299 1053,2191C1134,2095 1176,2071 1262,2070C1306,2070 1327,2064 1355,2046C1420,2002 1524,2000 1723,2040C1778,2051 1830,2060 1839,2060C1852,2060 1858,2043 1868,1969C1887,1833 1905,1811 1953,1872C1966,1890 2008,1939 2045,1980C2123,2068 2183,2153 2213,2218C2234,2262 2235,2280 2235,2495L2235,2725L2314,2915C2569,3533 2612,3621 2697,3706C2744,3753 2784,3780 2864,3820C2994,3885 2997,3895 2902,3945C2814,3992 2782,4016 2795,4029C2801,4034 2892,4082 2997,4136C3188,4233 3250,4274 3250,4305C3250,4326 3193,4349 3100,4366C2996,4384 2940,4397 2932,4405C2922,4415 2959,4439 3000,4449C3019,4453 3069,4462 3110,4469C3195,4482 3244,4506 3248,4537C3250,4552 3231,4583 3191,4633C3157,4673 3130,4710 3130,4714C3130,4730 3254,4902 3312,4964C3346,5001 3413,5057 3463,5091L3554,5150L3650,5057C3702,5006 3768,4945 3795,4923C3935,4810 4202,4662 4433,4571C4492,4547 4540,4526 4540,4524C4540,4522 4524,4498 4505,4471C4431,4368 4407,4263 4443,4194C4461,4159 4529,4094 4589,4055L4630,4028L4582,3992C4517,3944 4304,3733 4216,3630C4176,3583 4053,3433 3943,3295C3833,3158 3701,2993 3650,2930C3455,2688 3189,2323 3054,2112C3022,2060 2953,1955 2901,1877C2777,1691 2761,1650 2796,1616C2836,1576 2869,1592 3225,1829C3374,1927 3496,2007 3497,2006C3498,2005 3490,1973 3479,1935C3440,1792 3457,1780 3576,1865C3618,1896 3654,1919 3656,1917C3658,1916 3650,1854 3640,1780C3629,1706 3618,1627 3615,1605C3612,1583 3607,1554 3605,1540C3585,1437 3577,1326 3572,1062L3565,759L3595,762C3621,765 3636,780 3703,880C3777,990 3893,1175 4059,1452C4101,1522 4138,1579 4143,1579C4147,1580 4150,1563 4150,1543C4151,1439 4179,1435 4266,1527C4301,1563 4332,1591 4334,1589C4336,1587 4341,1556 4344,1521C4377,1207 4472,826 4600,498C4626,432 4653,420 4663,470C4679,549 4775,782 4937,1135C5029,1335 5185,1698 5225,1805C5231,1822 5234,1820 5245,1789C5267,1728 5341,1600 5355,1600C5377,1600 5389,1624 5429,1741C5451,1804 5479,1882 5493,1915L5518,1974L5533,1940C5541,1921 5572,1849 5602,1780C5632,1711 5676,1603 5700,1540C5754,1394 5822,1249 5843,1232C5852,1224 5863,1221 5868,1224C5887,1235 5890,1293 5910,1924C5915,2082 5921,2215 5925,2218C5928,2222 6006,2148 6098,2054C6272,1878 6311,1847 6333,1869C6348,1885 6348,2053 6332,2130C6325,2160 6317,2209 6314,2238L6308,2290L6356,2259C6383,2242 6455,2197 6515,2158C6644,2076 7246,1776 7266,1784C7288,1793 7283,1804 7223,1881C7147,1980 7060,2103 7064,2107C7066,2109 7096,2099 7132,2086C7470,1958 8239,1721 8638,1620C8755,1591 8780,1589 8780,1611C8780,1626 8632,1787 8395,2030C8274,2154 8137,2298 8090,2349L8005,2443L8055,2436C8189,2418 8312,2410 8495,2408C8713,2405 8837,2419 8847,2448C8856,2469 8768,2549 8633,2643C8574,2684 8472,2764 8407,2820L8290,2922L8312,2953C8415,3102 8753,3346 9010,3458C9155,3522 9228,3567 9270,3619C9314,3676 9320,3700 9320,3834C9320,4066 9349,4139 9509,4303C9567,4363 9668,4455 9735,4508C9801,4561 9860,4610 9866,4615C9872,4621 9907,4650 9944,4680C10074,4785 9996,4797 9808,4701C9742,4667 9685,4641 9683,4644C9681,4646 9693,4676 9710,4709C9740,4769 9742,4790 9717,4790C9710,4790 9654,4753 9592,4708C9478,4623 9374,4562 9363,4573C9360,4577 9381,4617 9410,4662C9514,4824 9533,4870 9495,4870C9488,4870 9427,4829 9360,4780C9292,4730 9235,4691 9233,4694C9225,4702 9270,4778 9329,4858C9362,4901 9440,4989 9502,5052C9597,5148 9645,5187 9795,5287C9990,5418 10079,5499 10124,5587C10145,5630 10150,5653 10150,5718C10150,5811 10168,5876 10222,5985C10305,6150 10365,6231 10558,6434C10620,6500 10696,6590 10726,6636C10804,6750 10791,6764 10662,6705L10585,6669L10720,6805C10794,6880 10916,7001 10990,7073C11184,7262 11254,7335 11321,7418C11383,7496 11389,7507 11365,7516C11346,7524 11043,7338 10585,7040C10329,6873 10177,6782 9866,6610C9734,6537 9562,6435 9483,6384C9361,6304 9251,6240 9237,6240C9234,6240 9238,6264 9245,6293C9285,6470 9246,6604 9108,6755C9040,6829 8977,6872 8878,6910C8838,6926 8804,6944 8802,6950C8799,6957 8827,6990 8863,7025C8941,7102 9031,7149 9155,7179C9205,7191 9263,7212 9285,7225C9356,7267 9466,7394 9518,7494C9553,7562 9552,7647 9517,7800C9489,7921 9486,7948 9474,8125C9463,8300 9493,8423 9557,8466C9607,8499 9675,8491 9771,8440C9842,8403 9864,8396 9910,8396C9972,8397 9995,8407 10170,8511C10302,8589 10313,8602 10364,8748C10406,8869 10426,8910 10499,9020C10572,9130 10785,9349 10965,9499C11042,9562 11135,9642 11172,9676C11262,9759 11354,9827 11418,9858C11471,9885 11479,9897 11458,9918C11443,9933 11401,9933 11320,9915C11284,9908 11254,9903 11253,9904C11252,9905 11285,9935 11327,9971C11369,10006 11460,10085 11529,10145C11679,10276 11738,10320 11794,10340C11848,10361 11849,10385 11795,10384C11718,10382 11383,10242 11195,10133C10905,9965 10611,9718 10385,9451C10259,9303 10201,9270 10065,9270C9980,9270 9874,9295 9720,9350C9510,9424 9427,9443 9305,9444C9202,9445 9191,9443 9130,9414C9038,9370 8968,9315 8785,9143C8697,9060 8591,8966 8550,8935C8509,8903 8462,8866 8447,8851C8375,8785 8345,8662 8336,8395C8325,8090 8302,7987 8218,7876C8152,7788 8024,7679 7935,7634C7875,7605 7849,7598 7757,7590C7698,7585 7637,7583 7622,7586C7607,7589 7540,7637 7475,7692C7409,7747 7327,7812 7293,7837L7231,7881L7231,8006C7232,8144 7220,8185 7166,8224C7141,8243 7126,8245 7005,8242C6797,8239 6581,8194 6439,8126L6392,8104L6293,8188C6085,8366 5925,8449 5739,8474L5693,8481L5627,8618C5580,8714 5560,8766 5560,8793C5560,8879 5685,9160 5810,9355C5856,9427 5908,9514 5926,9550C5960,9616 5983,9698 5976,9722C5973,9729 5969,9762 5966,9795C5963,9828 5956,9890 5950,9934C5937,10023 5944,10081 5972,10127C5997,10168 6228,10360 6325,10421C6415,10477 6484,10500 6560,10500C6620,10500 6656,10485 6870,10368C6948,10325 7027,10305 7078,10315C7124,10323 7242,10364 7376,10418C7432,10440 7521,10473 7574,10490C7627,10507 7684,10533 7701,10547C7734,10575 7768,10637 7795,10720C7805,10750 7840,10831 7872,10900C7905,10969 7954,11081 7981,11150C8009,11219 8037,11288 8044,11304C8055,11330 8067,11336 8175,11366C8241,11384 8354,11413 8427,11430C8538,11457 8560,11465 8560,11480C8560,11490 8548,11507 8533,11518L8506,11538L8576,11559C8700,11596 8860,11628 9024,11651C9217,11677 9234,11682 9226,11714C9221,11736 9224,11738 9273,11743C9302,11747 9375,11761 9436,11774C9496,11788 9590,11806 9645,11815C9755,11833 9788,11851 9756,11875C9746,11883 9718,11892 9694,11896C9652,11902 9632,11917 9668,11916C9696,11915 9880,11931 9945,11940C9978,11945 10028,11951 10055,11955C10083,11958 10134,11965 10170,11970C10206,11975 10273,11980 10320,11980C10367,11980 10411,11984 10419,11989C10444,12005 10423,12028 10378,12032C10354,12035 10290,12044 10235,12053C10180,12061 10086,12073 10025,12079C9965,12086 9841,12102 9750,12116C9659,12129 9542,12147 9490,12155C9438,12163 9328,12179 9245,12190C9104,12209 9007,12228 8665,12299C8588,12315 8485,12333 8435,12340C8386,12346 8318,12356 8284,12361C8203,12373 8054,12370 7950,12354ZM8455,12295C8505,12287 8565,12275 8590,12270C8899,12204 9109,12165 9325,12135C9468,12115 9650,12088 9730,12075C9810,12062 9927,12047 9990,12040C10206,12019 10209,12018 10100,12004C9952,11984 9734,11961 9630,11954C9493,11945 9456,11937 9452,11918C9448,11899 9490,11885 9582,11874C9639,11867 9653,11850 9602,11850C9587,11850 9514,11836 9440,11820C9366,11803 9261,11787 9207,11783C9099,11776 9077,11763 9120,11730L9143,11712L9089,11706C8961,11689 8737,11647 8635,11620C8450,11571 8425,11554 8471,11511C8496,11488 8508,11493 8330,11451C8179,11415 8027,11372 8019,11362C8016,11358 7994,11303 7970,11240C7947,11177 7890,11044 7845,10945C7800,10846 7757,10747 7750,10725C7729,10659 7691,10591 7666,10575C7653,10567 7592,10542 7529,10521C7466,10500 7377,10467 7330,10448C7169,10381 7084,10357 7025,10362C6970,10367 6932,10383 6749,10483C6535,10600 6403,10562 6078,10289C6014,10234 5952,10177 5940,10160C5901,10105 5895,10040 5913,9879C5923,9800 5930,9717 5930,9695C5930,9645 5882,9548 5780,9390C5639,9172 5520,8897 5520,8791C5520,8737 5526,8718 5574,8626C5668,8443 5784,8148 5805,8037C5811,8007 5809,8004 5778,7995C5730,7980 5718,7950 5724,7855C5727,7811 5732,7762 5735,7745C5740,7717 5734,7710 5659,7652L5578,7588L5527,7610C5498,7622 5453,7634 5426,7637C5370,7644 5371,7635 5415,7799C5432,7864 5440,7920 5440,7976C5440,8036 5444,8061 5455,8070C5475,8086 5474,8120 5454,8120C5446,8120 5360,8042 5264,7948C5168,7853 5085,7773 5079,7772C5069,7768 5071,7791 5095,7998C5106,8088 5113,8117 5129,8134C5152,8159 5156,8175 5140,8185C5127,8193 5067,8143 4895,7979C4823,7911 4698,7797 4617,7727C4536,7657 4470,7598 4469,7597C4466,7588 4421,7140 4420,7112C4420,7098 4409,7106 4230,7244C3982,7436 3908,7521 3875,7645C3859,7707 3858,7721 3839,7955C3833,8032 3817,8143 3804,8202C3768,8362 3771,8414 3831,8636C3914,8944 3963,9187 3995,9450C3997,9469 4004,9521 4010,9565C4015,9609 4018,9686 4016,9735L4012,9825L4052,9878C4075,9907 4143,9975 4204,10029C4390,10195 4470,10288 4662,10565C4849,10832 5021,11074 5044,11099C5081,11140 5138,11170 5233,11196C5283,11210 5372,11237 5430,11255C5525,11285 5639,11311 5880,11356C6160,11409 6458,11514 6685,11638C6775,11687 6923,11784 7044,11872C7426,12151 7676,12272 7945,12310C8034,12323 8351,12314 8455,12295ZM11605,10271C11534,10208 11391,10083 11340,10041C11233,9951 11150,9867 11150,9847C11150,9826 11146,9825 11270,9859C11311,9870 11345,9878 11347,9876C11348,9875 11324,9855 11292,9833C11261,9810 11185,9748 11124,9694C11063,9639 10964,9555 10904,9506C10762,9390 10582,9208 10498,9096C10423,8995 10355,8865 10315,8741C10281,8637 10255,8608 10130,8537C9921,8418 9914,8417 9790,8481C9714,8521 9700,8525 9635,8525C9572,8525 9559,8522 9527,8497C9449,8438 9424,8333 9434,8115C9441,7961 9450,7890 9481,7755C9512,7622 9509,7576 9469,7499C9434,7433 9295,7278 9250,7255C9236,7248 9181,7230 9126,7216C9072,7202 9000,7175 8966,7157C8899,7122 8787,7022 8764,6978L8750,6950L8684,6975C8588,7011 8507,7057 8470,7095C8430,7136 8431,7137 8516,7267C8605,7405 8706,7495 8914,7624C8999,7678 9100,7764 9100,7785C9100,7807 9069,7813 8920,7820C8801,7826 8761,7832 8695,7855C8644,7872 8584,7884 8529,7887C8422,7894 8390,7881 8265,7781C8130,7673 7959,7562 7809,7485C7645,7400 7605,7363 7561,7255C7474,7039 7446,7002 7250,6829C7203,6788 7164,6743 7145,6709C7117,6657 7116,6648 7109,6480C7105,6375 7095,6279 7085,6240C7054,6115 7069,6037 7141,5956C7173,5919 7173,5918 7150,5925C7055,5954 6799,6097 6723,6164C6698,6186 6647,6241 6609,6287C6543,6365 6519,6382 6505,6361C6497,6347 6652,6160 6707,6119C6831,6025 7009,5929 7150,5879C7230,5851 7254,5837 7305,5790C7419,5683 7504,5630 7595,5610C7677,5592 7680,5602 7633,5779C7620,5830 7610,5873 7612,5874C7614,5875 7644,5884 7680,5894C7716,5904 7765,5920 7789,5931C7813,5941 7835,5948 7837,5946C7847,5936 7813,5836 7772,5757C7738,5689 7709,5650 7650,5592C7506,5448 7359,5385 7075,5345C6908,5322 6541,5324 6408,5350C6276,5375 6196,5402 6125,5445C6061,5484 6040,5488 6040,5462C6040,5443 6120,5389 6178,5369C6195,5363 6210,5355 6210,5351C6210,5339 6138,5236 6079,5165C6011,5082 5742,4815 5649,4739C5613,4709 5540,4660 5487,4630C5423,4594 5390,4569 5390,4558C5390,4533 5410,4536 5461,4565C5519,4598 5542,4596 5584,4556C5635,4509 5633,4464 5578,4347C5547,4282 5539,4257 5548,4248C5564,4232 5582,4249 5610,4311L5635,4362L5750,4355C6031,4338 6408,4242 6687,4114C6763,4080 6790,4077 6790,4103C6790,4121 6583,4212 6424,4264L6372,4281L6415,4358C6537,4578 6570,4629 6623,4686C6744,4817 6863,4822 7373,4720C7732,4648 7904,4634 8062,4664C8396,4729 8575,4910 8675,5285C8709,5415 8867,5893 8893,5945C8917,5994 8946,6027 8982,6046C9023,6068 9051,6063 9086,6029C9105,6011 9125,6000 9133,6003C9141,6006 9162,6046 9179,6092L9211,6175L9293,6217C9338,6241 9438,6301 9515,6351C9592,6402 9741,6490 9845,6548C10229,6760 10288,6796 10770,7107C11002,7256 11250,7410 11250,7403C11250,7400 11075,7221 10860,7007C10646,6792 10470,6611 10470,6603C10470,6575 10500,6580 10595,6624C10649,6649 10695,6670 10697,6670C10707,6670 10633,6583 10507,6445C10331,6255 10295,6208 10220,6074C10134,5919 10119,5873 10111,5750C10105,5660 10100,5637 10075,5591C10034,5516 9949,5443 9747,5307C9601,5209 9555,5172 9464,5078C9298,4907 9197,4763 9165,4652C9149,4597 9228,4624 9347,4715C9387,4745 9421,4770 9424,4770C9426,4770 9407,4737 9380,4698C9333,4625 9300,4554 9300,4523C9300,4484 9432,4538 9564,4632C9608,4663 9646,4687 9648,4685C9650,4683 9647,4673 9641,4662C9600,4585 9666,4578 9797,4645C9881,4687 9883,4688 9846,4657C9520,4390 9433,4309 9364,4205C9298,4106 9287,4063 9281,3874C9275,3711 9274,3702 9248,3663C9213,3610 9142,3564 8995,3501C8741,3390 8399,3144 8282,2986C8262,2959 8259,2959 8238,2972C8225,2981 8202,3001 8185,3017C8147,3055 7843,3279 7730,3353C7612,3430 7499,3490 7473,3490C7427,3490 7452,3460 7536,3416C7723,3317 8045,3083 8260,2891C8413,2754 8510,2675 8659,2568C8722,2522 8775,2480 8777,2474C8783,2457 8705,2450 8496,2450C8377,2450 8241,2458 8136,2469L7968,2488L7915,2540C7866,2588 7840,2597 7840,2567C7840,2560 7868,2526 7903,2490C7937,2454 8001,2384 8044,2335C8088,2285 8214,2153 8325,2040C8436,1927 8563,1794 8609,1743L8691,1651L8558,1686C8136,1797 7516,1992 7071,2154C6987,2185 6909,2210 6899,2210C6865,2210 6879,2180 6923,2161C6973,2139 7009,2102 7080,2000C7109,1959 7142,1915 7153,1903C7164,1890 7171,1878 7169,1875C7157,1864 6616,2144 6490,2227C6265,2375 6145,2448 6049,2495C5999,2519 5951,2545 5943,2552C5931,2562 5925,2561 5914,2545C5906,2535 5900,2515 5899,2501C5898,2453 5889,2355 5884,2340C5880,2328 5849,1452 5849,1348C5849,1332 5845,1320 5842,1320C5838,1320 5810,1382 5781,1457C5751,1533 5693,1674 5652,1770C5611,1866 5553,2006 5523,2080C5464,2227 5426,2293 5401,2288C5382,2284 5305,2117 5185,1820C5070,1536 5003,1382 4876,1106C4817,980 4739,801 4703,708C4666,616 4633,544 4629,548C4621,558 4526,846 4496,955C4467,1059 4425,1245 4415,1308C4389,1486 4378,1585 4370,1715C4350,2039 4321,2048 4186,1770C4118,1628 4091,1582 3837,1172C3694,941 3643,863 3617,835C3611,829 3610,923 3613,1080C3618,1311 3629,1426 3665,1650C3670,1679 3705,1948 3721,2070C3734,2175 3754,2249 3787,2313C3805,2350 3809,2365 3800,2374C3782,2391 3746,2343 3719,2265L3695,2199L3530,2086C3439,2023 3338,1955 3305,1935C3272,1914 3173,1849 3085,1790C2910,1673 2845,1636 2830,1645C2815,1655 2843,1710 2918,1822C2956,1879 3030,1990 3081,2070C3268,2360 3490,2663 3735,2965C3807,3053 3928,3204 4004,3300C4080,3396 4187,3527 4241,3591C4351,3721 4555,3922 4626,3971C4666,3998 4675,4001 4697,3991C4710,3985 4726,3982 4731,3985C4753,4000 4734,4021 4660,4064C4569,4116 4506,4170 4484,4211C4454,4270 4473,4349 4542,4447C4560,4473 4578,4498 4581,4502C4584,4507 4636,4494 4696,4474C4801,4438 4845,4434 4835,4462C4832,4469 4772,4495 4702,4519C4149,4708 3837,4896 3566,5206C3469,5316 3405,5409 3422,5414C3669,5486 3923,5591 4057,5678C4154,5740 4234,5780 4258,5780C4269,5780 4289,5765 4303,5748C4316,5730 4364,5679 4409,5635C4526,5519 4583,5494 4615,5544C4635,5575 4652,5765 4648,5925L4646,6045L4720,6108C4761,6142 4880,6232 4984,6307C5192,6457 5287,6530 5400,6629C5612,6814 5774,6950 5781,6950C5785,6950 5777,6924 5764,6892C5740,6831 5715,6705 5725,6689C5734,6675 5757,6678 5764,6696C5767,6705 5770,6724 5770,6740C5770,6755 5779,6796 5790,6831C5820,6931 5952,7218 6009,7309C6127,7499 6349,7746 6482,7833C6790,8035 7040,7995 7417,7683C7474,7636 7520,7594 7520,7591C7520,7588 7499,7584 7472,7582C7349,7575 7214,7525 7114,7450C7043,7397 6937,7291 6866,7202C6818,7142 6794,7123 6729,7089C6640,7042 6537,6953 6491,6882C6413,6760 6380,6532 6444,6556C6453,6560 6458,6584 6459,6631C6462,6780 6534,6905 6676,7006C6710,7030 6740,7050 6743,7050C6746,7050 6726,7013 6698,6968C6634,6865 6557,6703 6565,6690C6581,6665 6600,6688 6653,6793C6808,7103 7049,7379 7257,7484C7344,7527 7418,7540 7597,7540C7856,7540 7938,7563 8081,7678C8231,7798 8309,7902 8339,8025C8360,8110 8379,8300 8381,8440C8382,8542 8395,8647 8415,8717C8433,8778 8471,8820 8585,8905C8628,8938 8731,9029 8813,9108C9030,9317 9119,9378 9236,9399C9336,9417 9487,9389 9701,9310C9943,9222 10114,9203 10222,9252C10293,9285 10335,9324 10471,9480C10739,9791 11096,10054 11490,10232C11593,10278 11624,10289 11605,10271ZM1686,10048C1668,10008 1634,9938 1611,9892C1557,9785 1521,9685 1530,9669C1545,9646 1593,9671 1652,9732C1684,9766 1710,9791 1710,9788C1710,9763 1655,9637 1581,9496C1473,9287 1410,9142 1407,9093C1405,9060 1408,9055 1435,9046C1452,9040 1467,9035 1469,9033C1471,9032 1455,9011 1432,8986C1387,8938 1385,8926 1376,8760C1373,8708 1368,8654 1365,8640C1362,8626 1351,8552 1339,8475C1322,8354 1319,8296 1322,8045C1324,7886 1321,7729 1317,7698C1309,7643 1310,7640 1333,7629C1355,7619 1362,7622 1406,7665C1443,7700 1509,7739 1674,7822C1905,7938 2086,8019 2170,8044C2266,8073 2284,8050 2320,7860C2332,7797 2365,7673 2395,7585C2424,7497 2480,7324 2519,7200L2589,6975L2569,6916C2546,6848 2549,6823 2580,6840C2591,6846 2600,6859 2600,6869C2600,6903 2660,7007 2709,7058C2848,7203 3115,7311 3303,7297C3340,7295 3373,7290 3376,7287C3379,7284 3370,7265 3356,7243C3281,7130 3206,6863 3161,6550C3136,6374 3136,6083 3162,5935C3201,5710 3304,5475 3445,5285C3486,5230 3520,5183 3520,5180C3520,5177 3491,5159 3457,5140C3378,5095 3228,4948 3163,4850C3077,4720 3028,4631 3034,4615C3043,4591 3059,4598 3082,4636L3103,4672L3124,4644C3136,4628 3160,4598 3179,4578L3212,4540L3186,4530C3172,4525 3117,4514 3064,4505C2931,4484 2890,4460 2890,4405C2890,4364 2908,4356 3051,4330C3178,4307 3198,4299 3177,4282C3169,4275 3078,4227 2974,4174C2769,4070 2730,4046 2730,4025C2730,4007 2799,3948 2855,3919C2880,3906 2900,3893 2899,3890C2899,3887 2862,3867 2817,3845C2760,3817 2716,3786 2669,3739C2577,3648 2535,3564 2315,3030C2180,2703 2169,2654 2191,2464C2206,2326 2197,2271 2142,2181C2089,2093 1928,1906 1920,1922C1916,1929 1907,1982 1901,2040C1895,2098 1872,2215 1851,2300C1829,2385 1809,2474 1805,2497C1791,2588 1746,2570 1685,2447C1647,2371 1641,2317 1664,2271C1683,2236 1744,2180 1804,2145C1829,2130 1850,2115 1850,2111C1850,2107 1817,2099 1778,2093C1738,2086 1662,2074 1610,2065C1506,2047 1438,2050 1389,2075C1364,2088 1348,2113 1309,2196C1282,2253 1253,2326 1245,2358C1231,2412 1231,2421 1251,2496C1302,2686 1305,2722 1266,2707C1257,2703 1250,2689 1250,2673C1250,2658 1238,2609 1223,2565C1206,2511 1197,2462 1196,2415C1196,2352 1201,2333 1247,2227L1297,2110L1263,2110C1212,2110 1160,2136 1117,2183C1074,2229 870,2497 863,2517C855,2538 1578,3631 1672,3740C1748,3828 1877,3941 2067,4086C2367,4314 2480,4420 2610,4595C2704,4721 2739,4781 2883,5064C3021,5332 3050,5404 3050,5475C3050,5540 3032,5568 2938,5647C2797,5765 2657,5958 2580,6139C2530,6255 2526,6263 2513,6267C2447,6289 2582,5996 2724,5810C2778,5739 2786,5724 2772,5718C2661,5671 2438,5592 2335,5564C2264,5545 2156,5513 2097,5494C1842,5413 1747,5427 1687,5554C1643,5647 1576,5935 1536,6203C1508,6388 1506,6405 1485,6633C1466,6840 1447,6951 1414,7049C1366,7191 1322,7242 1234,7256C1198,7261 1041,7249 775,7220C726,7215 641,7207 586,7204L488,7197L494,7261C500,7324 526,7526 535,7585C679,8525 929,9118 1490,9855C1640,10052 1697,10120 1711,10120C1716,10120 1704,10087 1686,10048ZM5823,8414C5993,8370 6160,8258 6437,8001L6529,7916L6477,7882C6335,7789 6212,7665 6064,7467C5974,7348 5923,7261 5869,7138C5829,7048 5825,7043 5736,6972C5637,6892 5598,6859 5374,6666C5292,6596 5122,6463 4997,6372C4703,6158 4594,6067 4598,6037C4613,5919 4601,5587 4581,5567C4565,5551 4506,5596 4397,5710C4304,5807 4288,5820 4258,5820C4217,5820 4151,5789 4036,5717C3930,5650 3696,5546 3545,5497C3368,5441 3388,5438 3342,5528C3268,5669 3209,5870 3192,6030C3183,6115 3183,6332 3192,6445C3212,6697 3297,7038 3380,7200C3423,7284 3500,7350 3555,7350C3625,7350 3739,7260 3882,7091C3927,7038 4019,6938 4085,6869C4284,6662 4373,6551 4429,6443C4441,6419 4457,6400 4465,6400C4490,6400 4482,6443 4444,6505C4409,6563 4409,6566 4411,6661C4413,6727 4422,6791 4441,6866C4457,6926 4470,6985 4470,6998C4470,7010 4472,7020 4475,7020C4491,7020 4564,6975 4625,6928C4664,6899 4736,6846 4787,6812C4837,6777 4899,6731 4923,6709C4973,6666 4990,6661 4990,6689C4990,6701 4966,6729 4934,6757L4879,6805L4882,7023C4885,7258 4886,7260 4940,7260C4986,7260 5064,7214 5180,7119C5369,6964 5391,6948 5407,6961C5426,6977 5423,6982 5361,7030L5307,7073L5314,7179C5322,7302 5354,7554 5366,7589C5378,7626 5554,7561 5660,7481C5690,7458 5754,7403 5802,7359C5882,7286 5910,7271 5910,7303C5910,7309 5885,7340 5854,7371L5799,7427L5790,7591C5785,7681 5776,7783 5770,7818C5756,7888 5763,7945 5785,7954C5807,7962 5833,7951 6043,7844C6221,7754 6265,7738 6265,7768C6265,7775 6175,7827 6066,7883L5867,7985L5828,8114C5807,8184 5774,8283 5755,8332C5736,8382 5720,8424 5720,8426C5720,8434 5765,8429 5823,8414ZM7145,8184C7158,8176 7173,8155 7179,8138C7192,8101 7194,7910 7181,7910C7176,7910 7143,7924 7108,7940C6948,8015 6759,8017 6588,7945C6576,7940 6553,7956 6503,8001C6466,8036 6434,8067 6432,8071C6429,8079 6560,8132 6630,8150C6806,8197 7095,8217 7145,8184ZM5044,7945C5024,7767 5025,7723 5050,7715C5063,7711 5081,7717 5102,7731L5133,7754L5127,7719C5117,7670 5072,7610 5016,7573C4918,7507 4826,7505 4711,7565C4647,7599 4604,7639 4612,7659C4616,7670 4823,7850 4831,7850C4834,7850 4845,7823 4855,7789C4889,7678 4940,7647 4980,7713C5006,7754 5006,7824 4981,7913L4962,7981L5009,8025C5034,8049 5056,8068 5056,8067C5057,8066 5052,8011 5044,7945ZM5397,7943C5395,7905 5379,7828 5362,7770C5346,7712 5326,7625 5319,7576L5305,7488L5248,7436C5217,7408 5152,7361 5104,7333C5032,7290 5013,7283 4993,7291C4956,7305 4897,7302 4872,7284C4859,7275 4847,7254 4844,7232C4838,7196 4834,7193 4713,7135C4560,7062 4523,7050 4491,7064L4467,7075L4474,7210C4477,7284 4482,7356 4485,7370C4488,7384 4493,7425 4496,7462L4503,7528L4550,7494C4760,7343 5025,7347 5165,7502C5250,7597 5286,7699 5277,7820L5271,7895L5333,7952C5367,7983 5397,8009 5399,8010C5401,8010 5400,7980 5397,7943ZM4941,7903C4957,7854 4959,7745 4943,7729C4928,7714 4908,7752 4886,7835C4871,7892 4871,7894 4893,7916C4923,7946 4927,7945 4941,7903ZM5236,7759C5224,7637 5134,7503 5037,7460C4973,7431 4880,7420 4808,7431C4738,7441 4606,7502 4550,7549C4516,7578 4516,7579 4534,7599C4559,7627 4567,7626 4595,7591C4609,7576 4652,7546 4692,7525C4829,7453 4970,7468 5079,7566C5135,7617 5165,7672 5176,7745C5184,7803 5219,7856 5234,7832C5239,7824 5240,7791 5236,7759ZM8695,7810C8782,7784 8811,7780 8913,7780C9003,7780 9031,7777 9028,7768C9023,7753 8927,7684 8788,7595C8667,7517 8533,7382 8460,7264C8430,7215 8383,7148 8357,7115C8302,7047 8184,6818 8194,6801C8208,6780 8231,6790 8242,6823C8262,6878 8328,7003 8366,7053L8401,7102L8449,7057C8512,6998 8587,6961 8746,6909C8918,6854 8981,6819 9060,6738C9181,6614 9226,6511 9215,6385C9209,6320 9170,6180 9134,6093L9118,6055L9098,6080C9087,6094 9062,6137 9043,6175C8951,6357 8900,6400 8768,6408C8724,6411 8647,6407 8597,6400C8547,6393 8424,6385 8325,6381C8166,6376 8145,6373 8142,6358C8139,6342 8151,6340 8258,6338L8378,6335L8304,6270C8263,6234 8204,6190 8175,6171C8145,6152 8120,6131 8120,6125C8120,6118 8111,6110 8100,6107C8054,6095 8087,6061 8145,6060C8163,6060 8336,5912 8327,5904C8325,5902 8266,5912 8195,5925C8124,5939 8057,5950 8047,5950C8027,5950 8027,5942 8046,5882C8052,5861 8047,5862 7989,5900C7954,5922 7916,5943 7903,5946C7869,5955 7875,5975 7919,5995C7941,6005 7961,6019 7964,6027C7976,6057 7937,6050 7848,6007C7759,5963 7641,5920 7613,5920C7578,5920 7613,6076 7666,6156C7722,6240 7812,6293 7953,6324C7973,6329 7980,6336 7978,6348C7973,6371 7921,6368 7843,6340C7667,6278 7555,6123 7561,5946C7562,5906 7576,5828 7592,5767C7608,5707 7619,5656 7616,5653C7606,5643 7517,5682 7455,5723C7368,5781 7156,5996 7131,6050C7106,6104 7105,6136 7126,6215C7134,6248 7144,6355 7149,6455C7159,6690 7165,6701 7345,6856C7477,6970 7509,7015 7571,7167C7645,7348 7648,7352 7865,7464C8000,7534 8139,7626 8272,7732C8406,7839 8436,7852 8525,7846C8564,7843 8640,7827 8695,7810ZM5750,7564L5750,7469L5708,7500C5684,7517 5655,7538 5643,7548L5620,7565L5678,7612C5709,7638 5738,7659 5743,7660C5747,7660 5750,7617 5750,7564ZM4179,7227C4241,7179 4301,7133 4313,7125C4334,7111 4333,7109 4280,7061C4229,7015 4106,6940 4082,6940C4076,6940 4027,6992 3973,7055C3875,7168 3874,7170 3876,7218C3879,7278 3895,7342 3922,7393L3941,7431L4003,7373C4038,7341 4117,7276 4179,7227ZM5286,7356C5283,7326 5278,7259 5274,7206C5270,7153 5265,7110 5263,7110C5257,7110 5085,7252 5082,7260C5081,7263 5117,7289 5162,7317C5208,7345 5254,7377 5264,7389C5275,7401 5285,7410 5288,7410C5290,7410 5290,7386 5286,7356ZM4839,7007C4839,6929 4836,6859 4831,6852C4825,6843 4801,6856 4739,6900C4693,6934 4638,6974 4618,6988C4597,7003 4581,7017 4581,7020C4581,7024 4814,7141 4837,7149C4839,7150 4840,7086 4839,7007ZM4401,7054L4425,7028L4392,6999C4374,6983 4356,6970 4351,6970C4346,6970 4344,6989 4346,7013C4354,7089 4362,7095 4401,7054ZM4305,6958C4312,6913 4335,6908 4388,6940C4405,6951 4420,6956 4420,6952C4420,6948 4411,6916 4399,6880C4388,6844 4376,6774 4372,6723L4365,6632L4113,6906L4154,6923C4177,6932 4218,6957 4245,6978C4273,6999 4296,7011 4297,7006C4298,7000 4301,6978 4305,6958ZM8856,6352C8892,6332 8938,6275 8979,6200C9001,6159 9020,6120 9020,6113C9020,6107 9006,6099 8989,6095C8950,6086 8884,6028 8860,5980C8834,5930 8690,5497 8641,5323C8618,5244 8589,5153 8574,5119C8486,4909 8331,4776 8107,4718C8042,4701 7995,4697 7880,4697C7723,4696 7694,4700 7365,4766C7092,4820 6905,4844 6826,4835C6652,4816 6569,4737 6410,4440C6376,4377 6342,4319 6335,4311C6323,4299 6303,4301 6193,4328C6022,4370 5909,4388 5767,4396C5666,4402 5650,4405 5654,4419C5678,4499 5667,4542 5610,4594L5571,4629L5615,4657C5686,4703 5942,4942 6046,5058C6098,5117 6168,5204 6200,5252C6260,5338 6260,5339 6293,5329C6310,5324 6366,5312 6415,5303C6543,5279 6918,5279 7088,5303C7386,5346 7526,5407 7681,5560C7751,5630 7775,5662 7813,5738C7838,5789 7862,5846 7866,5865C7869,5885 7875,5902 7879,5905C7883,5907 7924,5887 7971,5860C8017,5832 8063,5810 8072,5810C8093,5810 8103,5840 8094,5875C8088,5901 8088,5901 8126,5895C8148,5891 8197,5882 8236,5874C8325,5855 8384,5858 8388,5883C8390,5894 8366,5927 8323,5971C8283,6014 8263,6040 8275,6037C8286,6034 8333,6024 8378,6016C8424,6007 8488,5993 8521,5985C8587,5968 8690,5962 8733,5973C8750,5978 8760,5987 8760,5999C8760,6023 8600,6191 8522,6250C8466,6291 8433,6327 8442,6336C8444,6337 8500,6345 8565,6353C8696,6369 8826,6368 8856,6352ZM8499,6211C8552,6168 8620,6105 8649,6071L8702,6010L8652,6010C8624,6010 8555,6021 8498,6034C8442,6046 8364,6063 8325,6069C8287,6076 8233,6086 8205,6092L8156,6103L8180,6119C8220,6145 8312,6217 8355,6255C8377,6274 8396,6290 8398,6290C8400,6290 8445,6254 8499,6211ZM6058,2440C6112,2413 6178,2376 6205,2358L6255,2325L6272,2220C6282,2162 6292,2102 6295,2085C6306,2018 6312,1920 6305,1920C6288,1920 6218,1985 6137,2077C6070,2152 5956,2258 5923,2275C5915,2279 5945,2490 5953,2490C5958,2490 6005,2468 6058,2440ZM1770,2458C1770,2445 1785,2378 1804,2308C1823,2237 1836,2180 1833,2180C1817,2180 1736,2247 1715,2278C1683,2325 1684,2341 1720,2418C1750,2482 1770,2497 1770,2458ZM5448,2148C5496,2034 5496,2036 5447,1915C5422,1854 5394,1777 5385,1742C5375,1708 5364,1677 5360,1675C5347,1667 5278,1816 5273,1864C5268,1905 5275,1928 5335,2065C5372,2150 5406,2220 5410,2220C5415,2220 5432,2187 5448,2148ZM3676,2056L3665,1978L3590,1929C3549,1903 3514,1883 3512,1884C3510,1886 3522,1925 3537,1971C3564,2052 3567,2056 3625,2096C3658,2119 3686,2138 3686,2137C3687,2136 3682,2100 3676,2056ZM4323,1758C4327,1698 4326,1650 4322,1650C4317,1650 4290,1621 4261,1585C4232,1549 4203,1520 4198,1520C4191,1520 4190,1548 4194,1604C4199,1669 4209,1708 4237,1772C4257,1818 4280,1866 4288,1879C4303,1900 4304,1901 4310,1884C4314,1873 4320,1817 4323,1758Z" style="fill:rgb(143,133,163);fill-rule:nonzero;stroke:rgb(143,133,163);stroke-width:80px;"/>
        <path d="M5637,5564C5615,5542 5704,5451 5784,5414C5845,5386 5967,5357 6006,5362C6043,5366 6053,5400 6018,5400C5913,5401 5749,5468 5698,5531C5668,5568 5651,5578 5637,5564Z" style="fill:rgb(143,133,163);fill-rule:nonzero;stroke:rgb(143,133,163);stroke-width:80px;"/>
        <path d="M1340,2945C1300,2888 1267,2813 1275,2800C1288,2778 1310,2792 1329,2835C1340,2859 1362,2899 1379,2923C1401,2956 1406,2970 1397,2979C1379,2997 1373,2993 1340,2945Z" style="fill:rgb(143,133,163);fill-rule:nonzero;stroke:rgb(143,133,163);stroke-width:80px;"/>
        <path d="M7903,6973C7887,6967 7887,6921 7901,6844C7915,6776 7927,6755 7945,6770C7954,6777 7953,6801 7942,6872C7927,6969 7923,6980 7903,6973Z" style="fill:rgb(143,133,163);fill-rule:nonzero;stroke:rgb(143,133,163);stroke-width:80px;"/>
    </g>
</svg>
