<?xml version="1.0" encoding="UTF-8" standalone="no"?>
<!DOCTYPE svg PUBLIC "-//W3C//DTD SVG 1.1//EN" "http://www.w3.org/Graphics/SVG/1.1/DTD/svg11.dtd">
<svg width="100%" height="100%" viewBox="0 0 475 382" version="1.1" xmlns="http://www.w3.org/2000/svg" xmlns:xlink="http://www.w3.org/1999/xlink" xml:space="preserve" xmlns:serif="http://www.serif.com/" style="fill-rule:evenodd;clip-rule:evenodd;stroke-linecap:round;stroke-linejoin:round;stroke-miterlimit:1.5;">
    <g id="ArtBoard1" transform="matrix(1,0,0,0.803665,0,0)">
        <rect x="0" y="0" width="475" height="475" style="fill:none;"/>
        <g transform="matrix(1,0,0,1.2443,11.7224,-74.6177)">
            <path d="M168.216,375.886C166.243,385.592 163.408,394.693 159.412,402.982C158.281,405.327 152.642,409.24 140.119,406.6L156.907,410.192L205.177,392.204L168.216,375.886Z" style="fill:none;stroke:rgb(189,206,214);stroke-width:4px;"/>
        </g>
        <g transform="matrix(1,0,0,1.2443,11.7224,-74.6177)">
            <path d="M168.69,375.934C156.531,371.169 147.359,362.547 141.272,349.939C133.636,356.221 122.656,366.924 118.124,367.585C100.408,370.17 62.91,369.211 58.078,353.563C52.148,365.646 100.085,411.215 148.198,406.198C158.645,405.108 163.787,388.748 168.69,375.934Z" style="fill:none;stroke:rgb(189,206,214);stroke-width:4px;"/>
        </g>
        <g transform="matrix(1,0,0,1.2443,11.7224,-74.6177)">
            <path d="M63.87,368.852C75.01,379.278 93.333,380.557 112.541,381.093C117.796,392.151 127.371,400.604 140.787,406.74" style="fill:none;stroke:rgb(189,206,214);stroke-width:4px;"/>
        </g>
        <g transform="matrix(1,0,0,1.2443,11.7224,-74.6177)">
            <path d="M112.181,368.327C116.742,385.239 128.163,397.156 147.094,405.972" style="fill:none;stroke:rgb(189,206,214);stroke-width:4px;"/>
        </g>
        <g transform="matrix(1,0,0,1.2443,11.7224,-74.6177)">
            <path d="M123.338,364.988C127.632,379.358 137.612,391.577 156.884,400.28" style="fill:none;stroke:rgb(189,206,214);stroke-width:4px;"/>
        </g>
        <g transform="matrix(1,0,0,1.2443,11.7224,-74.6177)">
            <path d="M140.793,349.386C129.27,356.723 120.725,362.896 112.398,363.6C89.604,365.527 68.49,359.231 53.023,350.776C39.722,328.478 39.072,300.868 44.211,271.068L144.638,285.943C137.587,308.833 134.431,330.546 140.793,349.386Z" style="fill:none;stroke:rgb(189,206,214);stroke-width:4px;"/>
        </g>
        <g transform="matrix(1,0,0,1.2443,11.7224,-74.6177)">
            <path d="M122.263,282.883C114.952,309.575 113.951,335.44 122.073,360.108" style="fill:none;stroke:rgb(189,206,214);stroke-width:4px;"/>
        </g>
        <g transform="matrix(1,0,0,1.2443,11.7224,-74.6177)">
            <path d="M107.842,280.701C101.807,309.375 101.512,337.126 109.645,363.523" style="fill:none;stroke:rgb(189,206,214);stroke-width:4px;"/>
        </g>
        <g transform="matrix(1,0,0,1.2443,11.7224,-74.6177)">
            <path d="M46.044,292.671C63.891,295.392 81.206,298.29 98.104,301.328C96.849,317.491 97.699,331.374 100.239,343.427C83.022,341.849 66.462,338.957 51.143,333.584C46.993,321.171 45.766,307.297 46.044,292.671Z" style="fill:none;stroke:rgb(189,206,214);stroke-width:4px;"/>
        </g>
        <g transform="matrix(1,0,0,1.2443,11.7224,-74.6177)">
            <path d="M144.686,286.104C116.768,269.738 90.989,266.538 46.305,265.042C46.743,237.291 61.427,211.915 77.15,186.711C113.541,187.478 144.608,189.453 163.898,199.72C169.016,202.444 176.565,213.848 181.508,220.954C163.26,242.824 150.601,264.55 144.686,286.104Z" style="fill:none;stroke:rgb(189,206,214);stroke-width:4px;"/>
        </g>
        <g transform="matrix(1,0,0,1.2443,11.7224,-74.6177)">
            <path d="M124.237,275.792C131.003,249.072 144.864,224.243 165.862,201.318" style="fill:none;stroke:rgb(189,206,214);stroke-width:4px;"/>
        </g>
        <g transform="matrix(1,0,0,1.2443,11.7224,-74.6177)">
            <path d="M110.955,271.404C118.686,245.077 133.188,219.819 152.935,195.389" style="fill:none;stroke:rgb(189,206,214);stroke-width:4px;"/>
        </g>
        <g transform="matrix(1,0,0,1.2443,11.7224,-74.6177)">
            <path d="M55.811,242.883C76.964,244.443 96.048,246.779 112.141,250.236C117.412,237.204 124.856,223.975 133.605,210.627C117.868,206.902 98.152,204.549 73.244,203.986C65.925,216.541 59.651,229.38 55.811,242.883Z" style="fill:none;stroke:rgb(189,206,214);stroke-width:4px;"/>
        </g>
        <g transform="matrix(1,0,0,1.2443,11.7224,-74.6177)">
            <path d="M51.949,265.294C51.533,267.435 51.342,269.667 51.444,272.016" style="fill:none;stroke:rgb(189,206,214);stroke-width:4px;"/>
        </g>
        <g transform="matrix(1,0,0,1.2443,11.7224,-74.6177)">
            <path d="M181.567,220.761C178.016,211.439 177.373,206.735 168.002,197.743C159.1,189.2 120.668,182.902 83.52,183.512L79.535,186.927C75.763,178.886 103.115,145.206 119.855,128.772C171.213,127.812 213.849,133.237 229.147,143.04C233.566,145.872 236.331,162.783 236.926,173.835C215.926,187.255 197.508,203.04 181.567,220.761Z" style="fill:none;stroke:rgb(189,206,214);stroke-width:4px;"/>
        </g>
        <g transform="matrix(1,0,0,1.2443,11.7224,-74.6177)">
            <path d="M168.484,198.029C184.575,178.063 204.611,160.006 230.506,144.783" style="fill:none;stroke:rgb(189,206,214);stroke-width:4px;"/>
        </g>
        <g transform="matrix(1,0,0,1.2443,11.7224,-74.6177)">
            <path d="M155.795,191.507C172.609,170.204 193.255,152.29 218.291,138.261" style="fill:none;stroke:rgb(189,206,214);stroke-width:4px;"/>
        </g>
        <g transform="matrix(1,0,0,1.2443,11.7224,-74.6177)">
            <path d="M94.058,170.303C117.274,170.967 139.466,172.801 159.139,177.513C168.782,166.443 180.803,155.505 195,144.688C172.065,139.463 146.656,137.485 119.673,137.573C108.415,149.454 98.211,160.959 94.058,170.303Z" style="fill:none;stroke:rgb(189,206,214);stroke-width:4px;"/>
        </g>
        <g transform="matrix(1,0,0,1.2443,11.7224,-74.6177)">
            <path d="M47.183,252.729C29.873,242.436 19.84,227.984 13.865,211.214C6.743,235.924 15.901,261.818 41.491,287.262" style="fill:none;stroke:rgb(189,206,214);stroke-width:4px;"/>
        </g>
        <g transform="matrix(1,0,0,1.2443,11.7224,-74.6177)">
            <path d="M82.825,174.632C69.329,174.449 48.977,167.102 50.23,164.132C52.144,159.599 82.177,157.74 93.376,159.283" style="fill:none;stroke:rgb(189,206,214);stroke-width:4px;"/>
        </g>
        <g transform="matrix(1,0,0,1.2443,11.7224,-74.6177)">
            <path d="M247.286,295.42C259.442,282.504 266.01,265.82 269.462,247.035C281.7,280.353 277.474,327.849 250.725,328.506C231.949,328.967 225.737,318.165 223.592,303.332C220.953,285.076 241.46,270.266 256.418,283.323" style="fill:none;stroke:rgb(189,206,214);stroke-width:4px;"/>
        </g>
        <g transform="matrix(1,0,0,1.2443,11.7224,-74.6177)">
            <path d="M231.423,178.241C250.856,195.236 266.901,214.984 269.498,247.396" style="fill:none;stroke:rgb(189,206,214);stroke-width:4px;"/>
        </g>
        <g transform="matrix(1,0,0,1.2443,11.7224,-74.6177)">
            <path d="M192.838,209.438C252.91,247.089 212.463,371.738 139.355,307.867" style="fill:none;stroke:rgb(189,206,214);stroke-width:4px;"/>
        </g>
        <g transform="matrix(1,0,0,1.2443,11.7224,-74.6177)">
            <path d="M205.117,313.708C184.644,314.192 177.432,281.55 146.108,281.547" style="fill:none;stroke:rgb(189,206,214);stroke-width:4px;"/>
        </g>
        <g transform="matrix(1,0,0,1.2443,11.7224,-74.6177)">
            <path d="M175.802,228.182C195.521,247.648 202.102,274.746 184.815,302.466" style="fill:none;stroke:rgb(189,206,214);stroke-width:4px;"/>
        </g>
        <g transform="matrix(1,0,0,1.2443,11.7224,-74.6177)">
            <path d="M185.794,247.65C183.021,254.056 179.278,259.439 173.59,262.768C173.399,268.131 173.349,275.78 170.068,275.762C168.489,275.753 167.136,271.195 166.972,267.018C162.834,269.342 159.228,270.467 155.739,271.329C174.212,287.512 198.651,274.232 185.794,247.65Z" style="fill:rgb(189,206,214);"/>
        </g>
        <g transform="matrix(1,0,0,1.2443,11.7224,-74.6177)">
            <path d="M138.908,310.673C163.3,350.895 208.477,373.31 247.773,328.461" style="fill:none;stroke:rgb(189,206,214);stroke-width:4px;"/>
        </g>
        <g transform="matrix(1,0,0,1.2443,11.7224,-74.6177)">
            <path d="M162.897,338.693C158.672,345.844 153.412,352.011 145.137,355.314" style="fill:none;stroke:rgb(189,206,214);stroke-width:4px;"/>
        </g>
        <g transform="matrix(1,0,0,1.2443,11.7224,-74.6177)">
            <path d="M150.753,363.89C159.227,360.182 162.519,354.849 157.432,346.89" style="fill:none;stroke:rgb(189,206,214);stroke-width:4px;"/>
        </g>
        <g transform="matrix(1,0,0,1.2443,11.7224,-74.6177)">
            <path d="M142.854,317.039C142.193,322.205 140.405,326.056 137.413,328.502L137.462,333.845C141.503,332.187 144.188,327.602 145.768,320.633L142.854,317.039Z" style="fill:rgb(189,206,214);"/>
        </g>
        <g transform="matrix(1,0,0,1.2443,11.7224,-74.6177)">
            <path d="M307.696,371.849L295.125,376.592L287.536,372.679C293.406,355.652 293.594,330.101 293.109,303.541C292.869,290.375 309.728,281.458 319.792,296.663C328.671,310.081 332.617,329.769 326.314,362.48L318.132,366.749L313.744,379.913L321.689,376.355L307.103,397.345L275.44,410.39L270.696,402.682L284.452,385.249L296.43,382.166L298.138,375.455" style="fill:none;stroke:rgb(189,206,214);stroke-width:4px;"/>
        </g>
        <g transform="matrix(1,0,0,1.2443,11.7224,-74.6177)">
            <path d="M298.825,316.52C297.662,302.716 301.446,281.486 319.469,296.104" style="fill:none;stroke:rgb(189,206,214);stroke-width:4px;"/>
        </g>
        <g transform="matrix(1,0,0,1.2443,11.7224,-74.6177)">
            <path d="M295.156,376.645C296.681,372.937 297.74,369.162 298.131,365.291" style="fill:none;stroke:rgb(189,206,214);stroke-width:4px;"/>
        </g>
        <g transform="matrix(1,0,0,1.2443,11.7224,-74.6177)">
            <path d="M321.684,376.451L316.341,372.857" style="fill:none;stroke:rgb(189,206,214);stroke-width:4px;"/>
        </g>
        <g transform="matrix(1,0,0,1.2443,11.7224,-74.6177)">
            <path d="M307.95,372.043C306.174,381.262 300.721,387.084 290.561,388.557L290.283,403.797L307.632,386.328L305.085,398.266" style="fill:none;stroke:rgb(189,206,214);stroke-width:4px;"/>
        </g>
        <g transform="matrix(1,0,0,1.2443,11.7224,-74.6177)">
            <path d="M282.882,400.056L275.401,410.044" style="fill:none;stroke:rgb(189,206,214);stroke-width:4px;"/>
        </g>
        <g transform="matrix(1,0,0,1.2443,11.7224,-74.6177)">
            <path d="M282.293,387.906C266.858,380.823 257.678,363.747 258.201,331.172" style="fill:none;stroke:rgb(189,206,214);stroke-width:4px;"/>
        </g>
        <g transform="matrix(1,0,0,1.2443,11.7224,-74.6177)">
            <path d="M200.656,353.195C223.591,354.763 254.315,338.03 293.441,301.549" style="fill:none;stroke:rgb(189,206,214);stroke-width:4px;"/>
        </g>
        <g transform="matrix(1,0,0,1.2443,11.7224,-74.6177)">
            <path d="M276.54,316.863C283.492,329.009 279.847,346.428 291.338,355.784L292.581,348.821C282.727,345.707 286.163,322.567 279.96,313.443L276.54,316.863Z" style="fill:rgb(189,206,214);"/>
        </g>
        <g transform="matrix(1,0,0,1.2443,11.7224,-74.6177)">
            <path d="M258.373,340.968C265.029,361.934 280.18,372.729 284.735,384.988C281.691,388.046 283.202,388.894 280.308,386.878C280.493,377.252 265.497,366.798 258.97,348.777" style="fill:rgb(189,206,214);"/>
        </g>
        <g transform="matrix(1,0,0,1.2443,11.7224,-74.6177)">
            <path d="M236.904,173.625C255.554,163.294 273.971,152.425 296.844,151.864L298.593,124.079C296.102,120.556 292.046,115.233 288.245,114.309C228.953,99.894 163.558,101.531 125.767,123.788C181.091,123.284 222.681,128.207 236.03,144.286C239.327,148.257 237.964,168.189 236.904,173.625Z" style="fill:none;stroke:rgb(189,206,214);stroke-width:4px;"/>
        </g>
        <g transform="matrix(1,0,0,1.2443,11.7224,-74.6177)">
            <path d="M234.871,142.555C253.625,130.606 273.824,122.171 298.6,126.001" style="fill:none;stroke:rgb(189,206,214);stroke-width:4px;"/>
        </g>
        <g transform="matrix(1,0,0,1.2443,11.7224,-74.6177)">
            <path d="M223.136,134.706C242.197,124.534 259.484,113.147 287.642,114.188" style="fill:none;stroke:rgb(189,206,214);stroke-width:4px;"/>
        </g>
        <g transform="matrix(1,0,0,1.2443,11.7224,-74.6177)">
            <path d="M188.677,106.081C174.274,109.407 161.631,113.131 152.368,117.618C177.088,118.552 201.751,119.566 223.286,125.025C233.52,119.762 246.035,113.631 271.071,110.648" style="fill:none;stroke:rgb(189,206,214);stroke-width:4px;"/>
        </g>
        <g transform="matrix(1,0,0,1.2443,11.7224,-74.6177)">
            <path d="M126.456,123.43C123.872,124.713 123.019,127.152 122.329,128.693" style="fill:none;stroke:rgb(189,206,214);stroke-width:4px;"/>
        </g>
        <g transform="matrix(1,0,0,1.2443,11.7224,-74.6177)">
            <path d="M299.501,175.222L313.283,176.776L319.708,171.387L313.387,169.522C315.301,167.658 317.587,166.136 320.952,166.724C385.895,178.726 460.363,194.296 459.394,201.231C457.447,215.163 346.881,198.746 286.134,186.413L299.501,175.222Z" style="fill:none;stroke:rgb(189,206,214);stroke-width:4px;"/>
        </g>
        <g transform="matrix(1,0,0,1.2443,11.7224,-74.6177)">
            <path d="M294.639,188.223C300.345,194.803 310.275,200.901 316.262,192.23" style="fill:none;stroke:rgb(189,206,214);stroke-width:4px;"/>
        </g>
        <g transform="matrix(1,0,0,1.2443,11.7224,-74.6177)">
            <path d="M290.909,181.937C286.129,174.821 289.681,159.376 304.864,168.88" style="fill:none;stroke:rgb(189,206,214);stroke-width:4px;"/>
        </g>
        <g transform="matrix(1,0,0,1.2443,11.7224,-74.6177)">
            <path d="M298.577,175.512C301.158,170.098 305.437,167.361 313.361,169.502" style="fill:none;stroke:rgb(189,206,214);stroke-width:4px;"/>
        </g>
        <g transform="matrix(1,0,0,1.2443,11.7224,-74.6177)">
            <path d="M286.984,152.838C296.551,156.85 305.211,161.651 311.093,168.796" style="fill:none;stroke:rgb(189,206,214);stroke-width:4px;"/>
        </g>
        <g transform="matrix(1,0,0,1.2443,11.7224,-74.6177)">
            <path d="M331.036,194.766C348.67,215.549 353.812,273.642 338.639,282.256C338.454,279.381 339.058,276.752 341.609,274.726C328.894,276.291 319.045,281.633 310.384,288.543" style="fill:none;stroke:rgb(189,206,214);stroke-width:4px;"/>
        </g>
        <g transform="matrix(1,0,0,1.2443,11.7224,-74.6177)">
            <path d="M357.946,348.404L352.235,351.72L345.88,347.944C348.923,325.428 347.964,303.557 343.393,282.269C343.005,277.405 353.963,267.267 359.789,281.809C372.038,312.386 373.154,344.047 350.025,378.064L333.813,385.157L329.576,379.63L338.511,365.261L347.998,359.826L349.94,350.356" style="fill:none;stroke:rgb(189,206,214);stroke-width:4px;"/>
        </g>
        <g transform="matrix(1,0,0,1.2443,11.7224,-74.6177)">
            <path d="M333.772,384.8L343.996,369.786L353.115,364.26" style="fill:none;stroke:rgb(189,206,214);stroke-width:4px;"/>
        </g>
        <g transform="matrix(1,0,0,1.2443,11.7224,-74.6177)">
            <path d="M358.181,348.233C357.855,352.268 357.034,356.386 355.234,360.667" style="fill:none;stroke:rgb(189,206,214);stroke-width:4px;"/>
        </g>
        <g transform="matrix(1,0,0,1.2443,11.7224,-74.6177)">
            <path d="M352.562,351.502C354.486,336.088 354.876,320.801 353.852,305.632" style="fill:none;stroke:rgb(189,206,214);stroke-width:4px;"/>
        </g>
        <g transform="matrix(1,0,0,1.2443,11.7224,-74.6177)">
            <path d="M355.049,275.235C350.372,273.186 351.163,282.593 351.733,291.539" style="fill:none;stroke:rgb(189,206,214);stroke-width:4px;"/>
        </g>
        <g transform="matrix(1,0,0,1.2443,11.7224,-74.6177)">
            <path d="M344.272,370.017L345.93,379.32L357.628,365.78" style="fill:none;stroke:rgb(189,206,214);stroke-width:4px;"/>
        </g>
        <g transform="matrix(1,0,0,1.2443,11.7224,-74.6177)">
            <path d="M326.317,362.431C329.102,364.987 332.271,367.187 336.692,368.232" style="fill:none;stroke:rgb(189,206,214);stroke-width:4px;"/>
        </g>
        <g transform="matrix(1,0,0,1.2443,11.7224,-74.6177)">
            <path d="M328.251,351.301C330.071,355.752 330.958,360.669 331.269,365.874L334.429,367.289C333.798,358.688 331.946,351.303 329.052,344.086L328.251,351.301Z" style="fill:rgb(189,206,214);stroke:rgb(189,206,214);stroke-width:4px;"/>
        </g>
        <g transform="matrix(1,0,0,1.2443,11.7224,-74.6177)">
            <path d="M324.561,305.664C327.131,296.966 333.095,283.63 337.354,283.086C341.248,282.589 345.135,295.546 346.963,305.9" style="fill:none;stroke:rgb(189,206,214);stroke-width:4px;"/>
        </g>
        <g transform="matrix(1,0,0,1.2443,11.7224,-74.6177)">
            <path d="M317.546,293.403C321.163,290.089 324.552,291.04 327.686,296.822C342.609,302.484 343.848,325.335 345.666,347.46C346.964,340.659 347.708,333.699 347.316,326.415C344.355,313.435 341.926,300.072 329.042,294.228C324.997,286.782 319.82,287.211 314.245,290.396L317.546,293.403Z" style="fill:rgb(189,206,214);"/>
        </g>
        <g transform="matrix(1,0,0,1.2443,11.7224,-74.6177)">
            <path d="M216.193,351.909C229.699,357.485 244.013,358.615 259.485,353.383" style="fill:none;stroke:rgb(189,206,214);stroke-width:4px;"/>
        </g>
        <g transform="matrix(1,0,0,1.2443,11.7224,-74.6177)">
            <path d="M296.808,151.825C310.065,151.945 319.421,158.464 326.676,167.231" style="fill:none;stroke:rgb(189,206,214);stroke-width:4px;"/>
        </g>
        <g transform="matrix(1,0,0,1.2443,11.7224,-74.6177)">
            <path d="M333.043,168.489L339.646,144.751C329.087,127.199 307.524,113.519 275.35,111.503" style="fill:none;stroke:rgb(189,206,214);stroke-width:4px;"/>
        </g>
        <g transform="matrix(1,0,0,1.2443,11.7224,-74.6177)">
            <path d="M293.193,114.019C297.524,117.738 300.782,121.565 303.018,125.494C317.395,126.83 328.388,136.78 338.152,149.86" style="fill:none;stroke:rgb(189,206,214);stroke-width:4px;"/>
        </g>
        <g transform="matrix(1,0,0,1.2443,11.7224,-74.6177)">
            <path d="M333.145,168.347C341.883,155.247 344.803,148.884 339.433,145.773" style="fill:none;stroke:rgb(189,206,214);stroke-width:4px;"/>
        </g>
        <g transform="matrix(1,0,0,1.2443,11.7224,-74.6177)">
            <path d="M341.32,154.387C344.994,159.204 347.79,165.06 349.62,172.057" style="fill:none;stroke:rgb(189,206,214);stroke-width:4px;"/>
        </g>
        <g transform="matrix(1,0,0,1.2443,11.7224,-74.6177)">
            <path d="M340.502,146.339C348.524,151.656 353.434,163.307 355.279,173.126" style="fill:none;stroke:rgb(189,206,214);stroke-width:4px;"/>
        </g>
        <g transform="matrix(1,0,0,1.2443,11.7224,-74.6177)">
            <path d="M343.103,220.205C348.815,215.535 354.457,210.893 359.326,206.56C360.245,205.742 359.717,202.496 359.074,199.266" style="fill:none;stroke:rgb(189,206,214);stroke-width:4px;"/>
        </g>
        <g transform="matrix(1,0,0,1.2443,11.7224,-74.6177)">
            <path d="M353.604,198.134C355.365,202.02 356.223,205.545 356.308,208.761" style="fill:none;stroke:rgb(189,206,214);stroke-width:4px;"/>
        </g>
        <g transform="matrix(1,0,0,1.2443,11.7224,-74.6177)">
            <path d="M356.903,208.706C363.529,212.581 355.627,214.716 343.069,219.868" style="fill:none;stroke:rgb(189,206,214);stroke-width:4px;"/>
        </g>
        <g transform="matrix(1,0,0,1.2443,11.7224,-74.6177)">
            <path d="M347.471,260.19L353.995,262.469L366.257,252.88C366.577,238.264 364.338,224.553 359.418,210.986" style="fill:none;stroke:rgb(189,206,214);stroke-width:4px;"/>
        </g>
        <g transform="matrix(1,0,0,1.2443,11.7224,-74.6177)">
            <path d="M356.353,214.601C358.254,228.784 361.264,241.579 364.842,253.666" style="fill:none;stroke:rgb(189,206,214);stroke-width:4px;"/>
        </g>
        <g transform="matrix(1,0,0,1.2443,11.7224,-74.6177)">
            <path d="M365.102,253.866L354.805,265.184L372.804,291.201L378.621,282.162C375.572,272.149 371.322,262.437 366.595,252.844" style="fill:none;stroke:rgb(189,206,214);stroke-width:4px;"/>
        </g>
        <g transform="matrix(1,0,0,1.2443,11.7224,-74.6177)">
            <path d="M360.779,284.205C370.252,292.155 371.14,294.581 372.962,290.965" style="fill:none;stroke:rgb(189,206,214);stroke-width:4px;"/>
        </g>
        <g transform="matrix(1,0,0,1.2443,11.7224,-74.6177)">
            <path d="M373.394,290.494C374.608,293.213 375.621,295.182 377.56,294.817C390.582,291.621 408.387,284.667 408.45,283.026C408.608,278.906 404.363,277.898 399.725,277.996C394.347,278.109 382.136,273.474 375.123,270.293" style="fill:none;stroke:rgb(189,206,214);stroke-width:4px;"/>
        </g>
        <g transform="matrix(1,0,0,1.2443,11.7224,-74.6177)">
            <path d="M375.849,274.108C382.534,276.634 390.476,277.382 398.667,277.971" style="fill:none;stroke:rgb(189,206,214);stroke-width:4px;"/>
        </g>
        <g transform="matrix(1,0,0,1.2443,11.7224,-74.6177)">
            <path d="M378.626,282.197C378.945,285.479 393.026,284.953 405.71,284.813" style="fill:none;stroke:rgb(189,206,214);stroke-width:4px;"/>
        </g>
    </g>
</svg>
