<?xml version="1.0" encoding="UTF-8" standalone="no"?>
<!DOCTYPE svg PUBLIC "-//W3C//DTD SVG 1.1//EN" "http://www.w3.org/Graphics/SVG/1.1/DTD/svg11.dtd">
<svg width="100%" height="100%" viewBox="0 0 500 500" version="1.1" xmlns="http://www.w3.org/2000/svg" xmlns:xlink="http://www.w3.org/1999/xlink" xml:space="preserve" xmlns:serif="http://www.serif.com/" style="fill-rule:evenodd;clip-rule:evenodd;stroke-linecap:round;stroke-linejoin:round;stroke-miterlimit:1.5;">
    <path d="M419.904,205.933C430.593,221.112 438.829,237.633 440.74,251.662" style="fill:none;stroke:rgb(193,186,166);stroke-width:5px;"/>
    <path d="M286.429,145.753C285.816,183.796 304.065,208.537 350.473,217.975C383.668,224.725 416.289,214.714 437.264,188.894C458.139,163.197 464.357,124.862 447.65,91.107C435.215,65.984 413.56,44.918 385.974,27.194C359.144,9.956 332.061,4.593 304.804,7.381C319.02,13.916 322.656,44.621 308.799,66.181C290.471,94.698 286.755,125.553 286.429,145.753Z" style="fill:none;stroke:rgb(193,186,166);stroke-width:5px;"/>
    <path d="M357.201,368.351C349.701,388.474 335.493,405.437 350.043,409.118" style="fill:none;stroke:rgb(193,186,166);stroke-width:5px;"/>
    <path d="M350.745,399.139C348.445,414.409 351.224,423.677 367.682,416.779" style="fill:none;stroke:rgb(193,186,166);stroke-width:5px;"/>
    <path d="M310.177,353.916C316.127,350.308 322.078,347.587 328.028,345.976" style="fill:none;stroke:rgb(193,186,166);stroke-width:5px;"/>
    <path d="M329.027,305.44C317.184,360.474 340.576,386.806 404.549,353.916" style="fill:none;stroke:rgb(193,186,166);stroke-width:5px;"/>
    <path d="M216.132,411.053C206.001,416.742 196.364,422.743 189.48,430.483C183.117,437.639 182.634,447.422 190.264,449.503" style="fill:none;stroke:rgb(193,186,166);stroke-width:5px;"/>
    <path d="M194.674,438.312C190.265,445.029 188.299,451.77 192.884,458.575C194.884,461.543 198.554,460.74 201.512,460.042" style="fill:none;stroke:rgb(193,186,166);stroke-width:5px;"/>
    <path d="M32.896,434.176C30.497,443.785 28.488,458.07 34.414,458.543C36.675,458.724 38.545,458.123 40.166,457.025" style="fill:none;stroke:rgb(193,186,166);stroke-width:5px;"/>
    <path d="M156.702,179.324C159.349,162.588 165.12,148.366 179.167,131.538C193.695,114.132 216.585,103.042 238.851,83.556C228.838,118.334 215.194,152.414 191.65,184.59" style="fill:none;stroke:rgb(193,186,166);stroke-width:5px;"/>
    <path d="M125.278,349.456C138.725,337.774 155.006,333.887 173.446,335.937" style="fill:none;stroke:rgb(193,186,166);stroke-width:5px;"/>
    <path d="M136.663,304.664C148.441,308.934 158.441,313.628 164.625,319.23C174.655,328.317 176.195,342.544 168.919,357.927C164.453,367.369 145.192,370.222 134.566,363.619C125.208,357.806 120.794,345.096 122.782,334.06C124.79,322.863 134.367,313.166 148.458,309.4" style="fill:none;stroke:rgb(193,186,166);stroke-width:5px;"/>
    <g transform="matrix(0.998162,0.0606047,-0.0606047,0.998162,18.3207,-8.65281)">
        <path d="M146.857,295.249L156.75,298.345L149.461,300.139L146.857,295.249Z" style="fill:none;stroke:rgb(193,186,166);stroke-width:5px;"/>
    </g>
    <path d="M132.658,237.683L146.857,259.685C145.246,280.348 131.019,295.695 120.487,290.18C100.598,279.764 116.505,255.613 132.658,237.683Z" style="fill:none;"/>
    <clipPath id="_clip1">
        <path d="M132.658,237.683L146.857,259.685C145.246,280.348 131.019,295.695 120.487,290.18C100.598,279.764 116.505,255.613 132.658,237.683Z"/>
    </clipPath>
    <g clip-path="url(#_clip1)">
        <g transform="matrix(1.11142,0.287671,-0.272916,1.05441,18.2879,-66.1054)">
            <ellipse cx="163.421" cy="259.722" rx="6.72" ry="13.057" style="fill:none;stroke:rgb(193,186,166);stroke-width:4.47px;"/>
        </g>
    </g>
    <path d="M132.658,237.683L146.857,259.685C145.246,280.348 131.019,295.695 120.487,290.18C100.598,279.764 116.505,255.613 132.658,237.683Z" style="fill:none;stroke:rgb(193,186,166);stroke-width:5px;"/>
    <path d="M209.662,287.459L237.749,276.693C249.026,287.997 233.741,334.833 217.152,332.554C199.359,330.11 198.9,309.409 209.662,287.459Z" style="fill:none;"/>
    <clipPath id="_clip2">
        <path d="M209.662,287.459L237.749,276.693C249.026,287.997 233.741,334.833 217.152,332.554C199.359,330.11 198.9,309.409 209.662,287.459Z"/>
    </clipPath>
    <g clip-path="url(#_clip2)">
        <g transform="matrix(1.11142,0.287671,-0.272916,1.05441,100.279,-23.9876)">
            <ellipse cx="163.421" cy="259.722" rx="6.72" ry="13.057" style="fill:none;stroke:rgb(193,186,166);stroke-width:4.47px;"/>
        </g>
    </g>
    <path d="M209.662,287.459L237.749,276.693C249.026,287.997 233.741,334.833 217.152,332.554C199.359,330.11 198.9,309.409 209.662,287.459Z" style="fill:none;stroke:rgb(193,186,166);stroke-width:5px;"/>
    <path d="M266.548,287.44C288.682,295.213 315.358,304.784 337.74,305.97C368.916,307.622 418.502,283.793 455.012,259.158C423.029,243.069 387.385,231.121 348.224,231.364C314.23,231.575 286.985,241.49 263.134,255.014" style="fill:none;stroke:rgb(193,186,166);stroke-width:5px;"/>
    <path d="M135.82,210.717C118.829,227.199 104.38,249.989 100.391,262.907C93.843,284.117 78.341,299.36 84.01,320.05C90.066,342.15 108.265,364.431 139.249,378.336C161.407,388.28 188.438,397.498 215.82,381.764C245.864,364.501 264.173,332.15 276.01,291.478" style="fill:none;stroke:rgb(193,186,166);stroke-width:5px;"/>
    <path d="M268.118,263.535C328.156,235.81 384.195,235.658 436.327,262.443C372.312,297.363 317.204,300.444 269.834,275.862L290.275,265.897L268.118,263.535Z" style="fill:none;stroke:rgb(193,186,166);stroke-width:5px;"/>
    <path d="M277.967,246.665C262.134,234.705 252.196,216.156 247.228,192.052C244.42,198.294 243.096,205.228 243.483,212.961L230.064,188.619C231.207,194.363 231.279,199.8 229.44,204.691L198.856,176.916C200.732,182.292 201.821,187.811 201.353,193.613L185.749,180.349C185.738,184.54 185.667,188.738 183.72,193.144L155.322,178.009C156.091,183.457 156.075,189.086 154.073,195.173L135.349,192.208C137.122,195.319 137.933,197.709 138.001,199.542C127.509,202.936 117.964,207.182 109.602,212.493C116.507,213.299 122.955,215.018 128.795,217.954" style="fill:none;stroke:rgb(193,186,166);stroke-width:5px;"/>
    <path d="M30.531,443.524C27.526,442.691 24.923,442.31 25.067,437.772C25.885,411.99 61.653,391.335 84.506,368.785" style="fill:none;stroke:rgb(193,186,166);stroke-width:5px;"/>
    <path d="M139.962,192.587C143.346,165.424 162.378,124.723 179.752,108.132C200.509,88.31 228.301,70.74 262.062,55.079C250.436,98.418 233.509,141.316 209.399,183.615" style="fill:none;stroke:rgb(193,186,166);stroke-width:5px;"/>
    <path d="M92.759,280.859C79.262,284.521 68.516,296.92 60.678,318.558L68.667,310.782C64.733,322.483 65.095,333.324 66.17,344.023L71.913,332.635C69.99,341.598 69.674,350.331 72.412,358.628L77.155,346.395C76.109,354.536 76.121,361.514 78.404,365.993L84.895,358.503C86.187,377.247 90.203,386.005 94.507,393.705C95.326,388.511 97.391,383.629 100.873,379.1C101.045,389.288 102.449,398.518 105.617,406.376L108.613,399.885C106.86,409.222 107.307,418.301 111.213,426.973C115.493,422.656 120.935,419.889 127.212,418.235L123.467,425.974C134.479,422.637 144.371,418.659 153.052,413.99L148.558,422.104C157.338,419.774 165.951,416.445 174.398,412.118L171.777,422.853C188.223,416.781 203.515,408.786 217.964,399.385L209.725,412.617C216.37,411.564 221.181,408.677 223.831,403.629L222.059,413.491C241.786,404.955 255.202,391.195 265.275,374.669L260.781,388.775C274.742,381.688 283.852,369.231 288.493,351.825L293.112,360.313C297.165,351.986 299.711,342.426 300.102,331.103C299.916,334.189 300.996,336.921 303.473,339.342C305.187,327.447 304.713,314.204 302.1,299.646" style="fill:none;stroke:rgb(193,186,166);stroke-width:5px;"/>
    <path d="M46.303,441.217C41.325,449.657 38.892,459.269 45.054,461.065C55.024,463.97 78.846,444.116 107.47,416.376" style="fill:none;stroke:rgb(193,186,166);stroke-width:5px;"/>
    <path d="M203.998,446.376C200.541,461.009 202.68,467.667 207.118,469.808C212.52,472.413 218.805,467.65 228.839,458.575C245.833,443.204 265.012,436.725 289.756,424.744C301.185,419.21 317.843,401.32 317.843,389.542C317.843,375.826 314.223,361.356 306.233,345.976" style="fill:none;stroke:rgb(193,186,166);stroke-width:5px;"/>
    <path d="M365.308,405.294C365.668,415.553 368.007,421.044 372.116,422.271C389.65,427.503 436.527,312.09 439.94,268.706" style="fill:none;stroke:rgb(193,186,166);stroke-width:5px;"/>
    <path d="M291.985,103.01L305.075,91.622L308.02,116.558L320.651,101.963C325.733,111.42 331.953,120.256 339.434,128.403L337.144,108.442L350.473,119.437C349.871,107.745 349.577,96.362 354.029,89.724L359.657,94.175L362.144,84.292L386.753,120.419C391.178,114.145 392.864,107.299 392.054,99.934C399.321,108.661 407.572,116.711 418.331,123.037C419.486,116.786 420.077,110.112 420.36,103.206L426.25,110.995L427.82,89.201L435.412,102.356C435.535,92.483 434.177,83.104 430.373,74.541L438.554,75.784" style="fill:none;stroke:rgb(193,186,166);stroke-width:5px;"/>
    <path d="M260.119,225.114C273.048,205.679 284.603,194.307 298.929,190.754" style="fill:none;stroke:rgb(193,186,166);stroke-width:5px;"/>
</svg>
