<?xml version="1.0" encoding="UTF-8" standalone="no"?>
<!DOCTYPE svg PUBLIC "-//W3C//DTD SVG 1.1//EN" "http://www.w3.org/Graphics/SVG/1.1/DTD/svg11.dtd">
<svg width="100%" height="100%" viewBox="0 0 800 800" version="1.1" xmlns="http://www.w3.org/2000/svg" xmlns:xlink="http://www.w3.org/1999/xlink" xml:space="preserve" xmlns:serif="http://www.serif.com/" style="fill-rule:evenodd;clip-rule:evenodd;stroke-linejoin:round;stroke-miterlimit:2;">
    <g transform="matrix(0.1,0,0,-0.1,0,800)">
        <path d="M4156,6812C4153,6807 4114,6800 4069,6797C4023,6793 3982,6786 3976,6780C3971,6775 3956,6770 3943,6770C3930,6770 3920,6766 3920,6760C3920,6755 3909,6750 3895,6750C3851,6750 3648,6646 3627,6613C3623,6606 3614,6600 3608,6600C3602,6600 3569,6573 3534,6540C3500,6507 3467,6480 3461,6480C3455,6480 3450,6475 3450,6468C3450,6462 3426,6431 3398,6400C3336,6333 3320,6313 3320,6305C3320,6302 3305,6278 3287,6252C3248,6197 3170,6044 3170,6022C3170,6015 3162,5996 3151,5982C3141,5967 3129,5939 3126,5920C3119,5886 3108,5855 3089,5818C3084,5808 3080,5791 3080,5781C3080,5770 3075,5758 3070,5755C3064,5751 3060,5743 3061,5737C3062,5730 3060,5716 3056,5705C3032,5642 3016,5580 3019,5563C3020,5557 3016,5549 3010,5545C3005,5542 3000,5528 3000,5514C3000,5501 2996,5482 2991,5472C2970,5431 2961,5402 2954,5360C2951,5336 2944,5309 2939,5300C2928,5278 2917,5247 2914,5230C2912,5214 2883,5134 2871,5110C2866,5101 2859,5079 2856,5060C2852,5041 2845,5016 2841,5005C2836,4994 2825,4967 2816,4945C2807,4923 2799,4902 2799,4898C2800,4893 2791,4874 2780,4855C2769,4835 2760,4813 2760,4806C2760,4798 2754,4779 2746,4763C2739,4748 2699,4663 2657,4575C2541,4328 2464,4174 2450,4160C2432,4142 2392,4081 2386,4064C2382,4052 2369,4031 2357,4018C2329,3987 2290,3933 2290,3925C2290,3916 2249,3860 2185,3783C2152,3743 2109,3690 2090,3664C2020,3572 1606,3150 1585,3150C1581,3150 1556,3131 1529,3108C1503,3084 1458,3047 1430,3025C1401,3003 1371,2977 1362,2968C1353,2958 1341,2950 1335,2950C1329,2950 1309,2934 1290,2915C1271,2896 1252,2880 1247,2880C1241,2880 1218,2862 1194,2840C1170,2818 1144,2800 1136,2800C1129,2800 1117,2793 1110,2784C1102,2776 1081,2762 1061,2754C1042,2746 1023,2736 1020,2731C1017,2726 995,2712 971,2699C947,2686 917,2669 904,2662C891,2655 880,2645 880,2639C880,2634 874,2630 866,2630C859,2630 846,2623 839,2614C832,2605 817,2594 805,2589C748,2562 718,2538 599,2419C522,2343 479,2275 450,2180C442,2155 427,2119 417,2101C407,2082 396,2042 393,2013C390,1983 383,1957 379,1954C366,1946 368,1816 381,1803C387,1797 398,1781 404,1768C414,1748 423,1745 466,1746C496,1747 530,1756 553,1769C574,1781 612,1793 636,1797C661,1800 683,1807 686,1811C689,1816 706,1820 725,1820C743,1820 760,1824 762,1829C767,1841 860,1850 860,1838C860,1832 848,1813 833,1795C777,1728 640,1470 640,1432C640,1420 634,1401 628,1390C617,1372 620,1366 655,1338C700,1300 766,1265 830,1244C855,1236 885,1224 897,1218C909,1212 930,1210 945,1212C959,1215 973,1213 976,1209C979,1204 1005,1200 1035,1200C1065,1200 1092,1195 1095,1190C1103,1178 1400,1176 1400,1189C1400,1193 1444,1200 1498,1204C1551,1208 1597,1215 1598,1220C1600,1226 1615,1230 1630,1230C1646,1230 1662,1235 1665,1240C1668,1246 1689,1250 1710,1250C1731,1250 1752,1255 1755,1261C1759,1266 1767,1269 1773,1267C1780,1265 1800,1272 1818,1282C1836,1292 1855,1300 1860,1300C1865,1300 1899,1314 1937,1332C1974,1350 2009,1363 2014,1362C2018,1360 2027,1363 2034,1368C2045,1378 2146,1429 2530,1620C2643,1676 2742,1728 2750,1734C2758,1741 2779,1752 2795,1760C2812,1768 2839,1783 2855,1795C2872,1807 2906,1826 2932,1838C2957,1850 2981,1864 2985,1870C2988,1875 3010,1889 3033,1900C3095,1930 3136,1956 3267,2045C3299,2067 3332,2090 3341,2095C3372,2113 3435,2165 3443,2177C3447,2184 3457,2190 3464,2190C3476,2190 3501,2215 3633,2364C3661,2397 3713,2453 3748,2490C3782,2527 3810,2560 3810,2565C3810,2577 3880,2656 4032,2813C4163,2949 4202,2993 4211,3015C4224,3047 4283,3129 4290,3125C4295,3122 4296,3098 4293,3071C4289,3033 4291,3022 4303,3017C4324,3009 4369,3032 4405,3070C4421,3086 4439,3100 4445,3100C4451,3100 4467,3111 4480,3125C4517,3164 4530,3157 4530,3101C4530,3073 4535,3048 4540,3045C4554,3036 4552,2964 4537,2948C4521,2931 4491,2885 4466,2840C4456,2821 4445,2803 4441,2800C4433,2794 4404,2740 4339,2615C4311,2560 4282,2508 4274,2499C4262,2485 4266,2481 4307,2462C4334,2451 4366,2438 4380,2435C4425,2423 4460,2405 4460,2394C4460,2385 4525,2351 4573,2336C4587,2332 4589,2323 4584,2292C4576,2243 4598,2207 4651,2179C4684,2162 4711,2160 4860,2160C4959,2160 5039,2164 5051,2170C5063,2177 5070,2191 5070,2210C5070,2252 5098,2250 5102,2208C5105,2175 5105,2175 5165,2172C5297,2165 5355,2158 5364,2149C5370,2144 5402,2140 5437,2140C5494,2140 5501,2138 5511,2116C5519,2099 5534,2090 5559,2086C5661,2068 5767,2062 5988,2060C6195,2059 6235,2061 6256,2075C6287,2095 6289,2149 6260,2170C6233,2190 6234,2220 6263,2221C6275,2222 6290,2222 6297,2221C6303,2220 6311,2224 6315,2230C6318,2235 6339,2240 6361,2240C6382,2240 6400,2244 6400,2249C6400,2254 6417,2261 6438,2264C6458,2267 6486,2272 6500,2275C6514,2277 6541,2282 6560,2286C6579,2290 6601,2297 6608,2302C6622,2314 6624,2386 6610,2395C6605,2398 6600,2414 6600,2430C6600,2446 6596,2461 6591,2465C6585,2468 6578,2491 6574,2515C6571,2540 6565,2560 6561,2560C6553,2560 6533,2606 6525,2645C6521,2662 6508,2698 6495,2725C6482,2753 6462,2800 6450,2830C6438,2860 6417,2908 6404,2935C6391,2963 6380,2990 6380,2996C6380,3002 6358,3050 6330,3103C6277,3206 6280,3219 6344,3175C6364,3161 6385,3150 6391,3150C6396,3150 6403,3143 6406,3135C6410,3127 6416,3120 6421,3120C6437,3120 6520,3059 6520,3047C6520,3040 6535,3019 6554,3000C6573,2981 6618,2934 6654,2895L6719,2825L6744,2849C6758,2863 6770,2881 6770,2891C6770,2901 6774,2911 6779,2915C6785,2918 6792,2941 6796,2965C6799,2990 6806,3013 6811,3016C6816,3019 6820,3034 6820,3051C6820,3067 6823,3080 6828,3080C6832,3080 6861,3062 6893,3040C6924,3018 6954,3000 6958,3000C6963,3000 6979,2986 6996,2969C7012,2952 7037,2932 7052,2924C7078,2910 7080,2911 7096,2941C7106,2962 7110,2983 7105,3004C7102,3021 7096,3053 7093,3075C7090,3097 7084,3117 7080,3120C7076,3123 7070,3142 7066,3163C7060,3196 7061,3200 7079,3200C7090,3200 7102,3205 7105,3210C7108,3216 7122,3220 7135,3220C7147,3220 7160,3227 7164,3235C7167,3243 7176,3250 7184,3250C7202,3250 7240,3302 7240,3327C7240,3358 7219,3370 7169,3370C7143,3370 7118,3375 7115,3380C7112,3386 7096,3390 7081,3390C7066,3390 7045,3397 7034,3405C7024,3413 7007,3420 6997,3420C6988,3420 6972,3424 6962,3429C6953,3434 6925,3446 6900,3455C6875,3465 6832,3483 6805,3496C6777,3509 6751,3520 6746,3520C6732,3520 6390,3691 6335,3726C6308,3743 6275,3760 6263,3764C6250,3768 6234,3777 6227,3785C6220,3792 6190,3811 6160,3826C6086,3866 6073,3875 6053,3892C6043,3901 6025,3911 6013,3914C6000,3918 5984,3927 5977,3933C5954,3955 5901,3990 5892,3990C5887,3990 5875,3999 5865,4010C5855,4021 5843,4030 5837,4030C5828,4030 5821,4035 5734,4114C5706,4139 5678,4160 5671,4160C5665,4160 5660,4166 5660,4173C5660,4181 5649,4197 5635,4210C5621,4223 5610,4244 5610,4257C5610,4280 5611,4280 5724,4280C5795,4280 5841,4284 5845,4291C5849,4297 5858,4299 5866,4296C5873,4293 5882,4295 5885,4300C5889,4306 5899,4310 5910,4310C5920,4310 5948,4321 5971,4335C6007,4355 6028,4360 6091,4360C6209,4360 6246,4394 6336,4580C6362,4632 6387,4683 6391,4692C6396,4702 6400,4719 6400,4729C6400,4740 6405,4752 6410,4755C6416,4759 6420,4825 6420,4920C6420,5015 6416,5081 6410,5085C6405,5088 6400,5115 6400,5145C6400,5175 6396,5202 6390,5205C6385,5208 6380,5224 6380,5240C6380,5256 6375,5272 6370,5275C6364,5279 6360,5287 6361,5293C6362,5300 6360,5318 6355,5334C6345,5370 6270,5514 6258,5518C6247,5523 6248,5540 6260,5540C6265,5540 6287,5524 6309,5505C6330,5486 6352,5470 6357,5470C6374,5470 6790,5033 6790,5015C6790,5010 6808,4985 6830,4959C6852,4933 6870,4907 6870,4902C6870,4897 6877,4887 6885,4880C6901,4867 6975,4758 7004,4705C7013,4689 7034,4655 7049,4630C7087,4571 7210,4328 7210,4312C7210,4294 7285,4297 7300,4315C7307,4323 7318,4330 7324,4330C7331,4330 7351,4346 7370,4365C7389,4384 7409,4400 7415,4400C7421,4400 7437,4414 7450,4431C7464,4448 7489,4478 7506,4498C7523,4518 7545,4551 7555,4570C7565,4589 7576,4607 7580,4610C7584,4613 7601,4644 7618,4678C7645,4733 7647,4746 7637,4768C7631,4783 7623,4797 7620,4800C7617,4803 7604,4829 7591,4858C7577,4886 7563,4910 7559,4910C7555,4910 7548,4920 7545,4932C7541,4943 7529,4963 7519,4974C7475,5023 7440,5068 7440,5075C7440,5086 7117,5410 7106,5410C7101,5410 7080,5425 7059,5443C7038,5460 7000,5491 6975,5510C6950,5529 6924,5551 6916,5558C6908,5564 6897,5570 6892,5570C6887,5570 6875,5579 6865,5590C6855,5601 6843,5610 6838,5610C6829,5610 6770,5649 6760,5661C6757,5664 6697,5695 6625,5729C6554,5764 6477,5800 6455,5811C6433,5821 6401,5830 6384,5830C6368,5830 6345,5837 6334,5845C6324,5853 6307,5860 6297,5860C6288,5860 6272,5864 6262,5869C6243,5880 6171,5894 6153,5891C6147,5890 6139,5894 6135,5900C6132,5905 6090,5910 6041,5910C5993,5910 5950,5914 5944,5919C5939,5925 5877,5931 5805,5934C5734,5937 5648,5942 5615,5945C5551,5952 5549,5954 5477,6075C5470,6086 5455,6109 5443,6127C5430,6144 5420,6163 5420,6168C5420,6172 5409,6187 5395,6200C5381,6213 5370,6228 5370,6233C5370,6245 5322,6298 5230,6388C5114,6502 5083,6530 5073,6530C5067,6530 5055,6539 5045,6550C5035,6561 5023,6570 5018,6570C5010,6570 4951,6608 4940,6621C4928,6635 4788,6700 4770,6700C4759,6700 4750,6704 4750,6708C4750,6716 4702,6733 4600,6761C4575,6768 4551,6777 4546,6782C4540,6786 4520,6790 4500,6790C4480,6790 4460,6793 4456,6797C4453,6801 4424,6805 4392,6807C4361,6808 4296,6812 4249,6815C4200,6819 4160,6817 4156,6812ZM4375,6771C4488,6755 4564,6740 4575,6729C4580,6724 4594,6720 4607,6720C4619,6720 4639,6716 4652,6711C4665,6706 4695,6694 4720,6685C4811,6649 4927,6589 4985,6546C5018,6521 5049,6501 5054,6501C5077,6499 5263,6320 5320,6246C5339,6220 5367,6185 5381,6167C5395,6150 5410,6128 5413,6120C5417,6112 5434,6085 5450,6060C5466,6035 5484,6005 5490,5993C5495,5980 5504,5970 5511,5970C5517,5970 5520,5964 5518,5958C5515,5950 5499,5946 5477,5948C5446,5951 5440,5948 5440,5932C5440,5914 5452,5912 5638,5905C5746,5901 5854,5898 5878,5899C5902,5900 5920,5896 5920,5890C5920,5884 5955,5880 6014,5880C6067,5880 6112,5876 6115,5870C6118,5865 6134,5860 6150,5860C6166,5860 6182,5855 6185,5849C6189,5844 6202,5840 6213,5841C6237,5843 6250,5839 6319,5808C6343,5798 6369,5791 6378,5795C6386,5798 6408,5791 6427,5780C6446,5769 6467,5760 6473,5760C6496,5760 6744,5630 6800,5589C6830,5567 6864,5545 6875,5541C6886,5536 6918,5512 6947,5486C6975,5461 7001,5440 7005,5440C7030,5440 7407,5072 7450,5006C7464,4985 7487,4953 7503,4935C7518,4917 7530,4899 7530,4895C7530,4891 7536,4882 7543,4876C7550,4870 7569,4837 7585,4803L7614,4740L7590,4690C7577,4663 7564,4640 7560,4640C7557,4640 7548,4624 7540,4605C7533,4586 7512,4556 7493,4538C7475,4521 7460,4501 7460,4495C7460,4481 7408,4430 7394,4430C7388,4430 7369,4414 7350,4395C7331,4376 7310,4360 7303,4360C7295,4360 7287,4353 7284,4345C7280,4337 7269,4330 7259,4330C7245,4330 7222,4366 7165,4478C7089,4626 7081,4640 7045,4695C7034,4712 7016,4742 7006,4763C6995,4783 6984,4800 6980,4800C6976,4800 6970,4808 6966,4818C6957,4845 6922,4895 6862,4965C6833,5000 6800,5049 6800,5057C6800,5062 6778,5088 6750,5115C6723,5142 6700,5169 6700,5175C6700,5188 6376,5510 6363,5510C6358,5510 6343,5521 6330,5535C6317,5549 6301,5560 6294,5560C6288,5560 6277,5567 6270,5575C6263,5583 6250,5590 6241,5590C6232,5590 6198,5617 6165,5650C6132,5683 6102,5710 6097,5710C6092,5710 6073,5722 6055,5738C6038,5753 6013,5772 6000,5780C5988,5788 5967,5803 5955,5813C5942,5822 5927,5830 5922,5830C5917,5830 5907,5837 5900,5845C5893,5853 5877,5860 5864,5860C5849,5860 5840,5854 5840,5845C5840,5837 5845,5830 5850,5830C5856,5830 5883,5814 5910,5795C5937,5776 5963,5760 5967,5760C5971,5760 5995,5742 6021,5720C6047,5698 6072,5680 6077,5680C6090,5680 6174,5591 6214,5535C6278,5445 6341,5310 6320,5310C6315,5310 6304,5322 6296,5338C6274,5380 6107,5528 6019,5582C5952,5624 5820,5690 5805,5690C5796,5690 5778,5698 5764,5707C5734,5726 5630,5750 5545,5757C5512,5760 5481,5766 5476,5771C5463,5783 5363,5783 5355,5770C5352,5765 5330,5760 5306,5760C5283,5760 5260,5756 5255,5751C5249,5746 5224,5739 5198,5735L5150,5728L5150,5762C5150,5781 5158,5805 5168,5816C5188,5838 5265,5880 5285,5880C5308,5880 5310,5896 5292,5920C5247,5979 5206,6020 5172,6038C5150,6050 5136,6064 5138,6073C5139,6081 5136,6091 5130,6095C5125,6098 5120,6117 5120,6136C5120,6155 5116,6178 5111,6188C5106,6197 5095,6222 5086,6243C5078,6263 5066,6280 5060,6280C5047,6280 5047,6243 5060,6235C5066,6232 5070,6219 5070,6206C5070,6194 5074,6180 5080,6174C5085,6169 5092,6128 5096,6082C5100,6037 5107,5997 5111,5994C5122,5988 5123,5566 5113,5556C5108,5552 5100,5473 5093,5382C5078,5182 5071,5120 5060,5120C5056,5120 5049,5078 5045,5028C5041,4977 5035,4931 5030,4925C5026,4920 5020,4902 5017,4885C5014,4869 5006,4837 5000,4815C4994,4793 4987,4768 4986,4760C4975,4706 4942,4584 4930,4555C4925,4544 4916,4517 4909,4495C4902,4473 4893,4451 4889,4445C4885,4440 4879,4419 4876,4400C4872,4381 4864,4354 4858,4340C4842,4304 4835,4282 4815,4215C4805,4182 4793,4151 4788,4146C4784,4140 4780,4127 4780,4115C4780,4103 4773,4085 4765,4074C4757,4064 4750,4049 4750,4042C4750,4035 4724,3974 4691,3907C4577,3669 4532,3582 4512,3557C4506,3550 4490,3523 4475,3495C4459,3468 4444,3443 4440,3440C4437,3437 4426,3419 4416,3400C4407,3381 4386,3345 4370,3320C4354,3295 4336,3266 4331,3255C4325,3244 4303,3210 4280,3180C4258,3150 4237,3118 4233,3110C4210,3059 4119,2948 4009,2835C3856,2679 3790,2606 3790,2594C3790,2589 3763,2558 3730,2525C3697,2492 3670,2460 3670,2454C3670,2447 3658,2431 3643,2418C3627,2405 3585,2360 3548,2319C3511,2277 3460,2228 3435,2209C3409,2190 3374,2163 3355,2147C3337,2132 3319,2120 3316,2120C3310,2120 3252,2082 3240,2070C3231,2061 3175,2024 3160,2017C3152,2013 3125,1996 3100,1980C3075,1964 3039,1943 3020,1934C3001,1924 2972,1907 2955,1895C2939,1883 2909,1865 2890,1856C2871,1846 2826,1821 2790,1800C2715,1756 2044,1420 1925,1367C1788,1306 1772,1300 1757,1300C1748,1300 1738,1296 1735,1290C1732,1285 1713,1280 1694,1280C1675,1280 1652,1276 1642,1270C1623,1259 1522,1241 1440,1233C1410,1231 1381,1224 1376,1219C1363,1207 1127,1207 1114,1219C1109,1224 1080,1230 1050,1233C971,1240 877,1259 865,1271C860,1276 849,1280 840,1280C818,1280 712,1335 685,1360C666,1378 662,1389 667,1414C672,1445 771,1652 794,1680C801,1688 811,1707 818,1723C824,1738 839,1761 850,1773C861,1785 884,1812 901,1833C925,1862 939,1870 964,1870C982,1870 1001,1875 1008,1882C1015,1889 1020,1890 1020,1884C1020,1878 1011,1865 1000,1855C989,1845 980,1832 980,1825C980,1819 964,1799 945,1780C926,1761 910,1742 910,1737C910,1732 898,1713 883,1695C827,1628 771,1517 770,1473C770,1450 831,1405 873,1396C943,1382 1101,1377 1113,1389C1119,1395 1141,1400 1162,1400C1183,1400 1200,1405 1200,1411C1200,1417 1206,1420 1213,1417C1219,1415 1263,1432 1310,1456C1357,1480 1400,1500 1405,1500C1411,1500 1455,1520 1502,1544C1550,1568 1591,1586 1593,1583C1596,1581 1614,1588 1634,1600C1654,1611 1681,1620 1695,1620C1708,1620 1722,1624 1725,1630C1728,1635 1741,1640 1753,1639C1779,1639 1827,1648 1855,1660C1866,1664 1888,1673 1903,1679C1919,1685 1936,1688 1941,1684C1947,1681 1956,1682 1963,1687C1970,1692 1995,1703 2020,1710C2045,1718 2076,1730 2090,1737C2104,1744 2119,1750 2123,1750C2135,1750 2349,1857 2367,1872C2375,1879 2391,1889 2401,1895C2411,1900 2447,1924 2480,1947C2513,1971 2544,1990 2549,1990C2553,1990 2567,2001 2580,2015C2593,2029 2607,2040 2611,2040C2616,2040 2630,2049 2642,2060C2719,2128 2758,2160 2764,2160C2772,2160 2873,2241 2878,2252C2881,2259 2902,2248 2960,2212C2987,2195 3010,2190 3063,2190C3143,2190 3207,2218 3264,2276C3297,2310 3300,2318 3300,2370C3300,2402 3293,2441 3285,2456C3264,2496 3266,2510 3293,2510C3353,2510 3410,2560 3449,2647C3454,2658 3464,2671 3469,2675C3475,2678 3494,2710 3511,2746C3538,2801 3546,2810 3569,2810C3606,2810 3636,2845 3645,2898C3650,2931 3658,2943 3676,2950C3689,2955 3700,2965 3700,2973C3700,2980 3720,3006 3745,3030C3770,3054 3790,3079 3790,3085C3790,3091 3801,3107 3815,3120C3829,3133 3840,3149 3840,3156C3840,3163 3851,3177 3865,3188C3879,3199 3890,3211 3890,3214C3890,3217 3906,3243 3925,3270C3944,3297 3960,3323 3960,3326C3960,3330 3968,3340 3978,3349C3988,3358 4012,3393 4030,3427C4065,3490 4076,3495 4082,3450C4085,3427 4090,3425 4139,3422C4177,3420 4205,3424 4229,3437C4277,3461 4360,3540 4360,3562C4360,3571 4365,3582 4370,3585C4383,3593 4383,3677 4370,3685C4364,3688 4353,3705 4344,3721C4329,3751 4330,3753 4362,3793C4380,3816 4419,3887 4449,3950C4478,4013 4509,4078 4516,4093C4524,4109 4530,4129 4530,4138C4530,4147 4537,4164 4545,4174C4553,4185 4560,4204 4560,4217C4560,4230 4565,4240 4570,4240C4576,4240 4580,4255 4580,4273C4580,4290 4587,4314 4595,4325C4610,4343 4612,4343 4653,4302C4676,4279 4702,4260 4711,4260C4725,4260 4760,4324 4768,4365C4776,4407 4781,4613 4774,4629C4770,4638 4766,4659 4764,4675C4762,4692 4758,4720 4754,4738C4751,4756 4752,4776 4758,4783C4764,4790 4769,4805 4770,4815C4770,4826 4773,4858 4776,4886C4780,4917 4777,4947 4770,4960C4763,4973 4762,4986 4768,4993C4772,5000 4783,5025 4790,5050C4797,5075 4807,5100 4811,5105C4816,5111 4819,5125 4819,5135C4820,5146 4825,5182 4830,5215C4836,5248 4843,5294 4846,5318C4850,5341 4856,5360 4861,5360C4866,5360 4870,5425 4870,5504C4870,5584 4875,5661 4880,5676C4886,5691 4909,5720 4932,5740C4954,5761 4970,5783 4966,5789C4948,5817 4850,5726 4850,5681C4850,5670 4845,5658 4840,5655C4833,5651 4830,5605 4831,5537C4832,5410 4822,5282 4809,5274C4804,5271 4800,5247 4800,5220C4800,5193 4796,5169 4791,5166C4786,5162 4779,5137 4775,5110C4768,5058 4759,5050 4734,5075C4725,5083 4714,5090 4709,5090C4698,5090 4708,5040 4721,5026C4726,5020 4730,5004 4730,4989C4730,4974 4735,4958 4740,4955C4753,4947 4753,4885 4738,4841C4713,4762 4694,4720 4685,4720C4679,4720 4654,4700 4630,4675C4606,4650 4581,4630 4575,4630C4544,4628 4416,4429 4404,4361C4400,4341 4389,4312 4378,4295C4368,4279 4360,4259 4360,4252C4360,4245 4352,4227 4341,4212C4331,4197 4306,4159 4285,4127C4233,4049 4142,3964 4127,3979C4110,3996 4089,3992 4063,3968C4043,3950 4040,3937 4040,3880L4040,3814L3933,3710C3873,3653 3799,3582 3766,3551C3705,3492 3667,3425 3654,3351C3651,3333 3589,3271 3574,3270C3568,3270 3557,3263 3550,3256C3537,3239 3460,3200 3442,3200C3435,3200 3422,3196 3412,3191C3403,3185 3368,3173 3335,3164C3302,3154 3264,3140 3250,3133C3236,3126 3220,3120 3215,3120C3209,3120 3197,3108 3188,3093C3160,3046 2985,2880 2963,2880C2958,2880 2943,2869 2930,2855C2917,2841 2902,2830 2897,2830C2892,2830 2871,2816 2851,2800C2831,2783 2809,2765 2802,2759C2795,2753 2774,2742 2755,2735C2737,2727 2719,2716 2715,2711C2712,2706 2686,2690 2657,2675C2605,2650 2569,2629 2560,2620C2557,2617 2537,2606 2515,2595C2493,2584 2465,2559 2452,2540C2404,2468 2260,2332 2202,2303C2148,2277 2134,2275 1970,2270L1795,2264L1723,2227C1684,2207 1646,2190 1638,2189C1631,2189 1589,2169 1545,2145C1367,2047 1284,2006 1268,2004C1258,2003 1239,1995 1226,1986C1212,1977 1192,1970 1181,1970C1170,1970 1159,1966 1156,1961C1152,1956 1132,1949 1110,1945C1088,1941 1068,1934 1064,1929C1061,1924 1044,1920 1025,1920C1006,1920 989,1916 986,1911C982,1906 946,1899 905,1895C863,1891 827,1884 824,1879C821,1874 801,1870 780,1870C759,1870 739,1866 736,1861C733,1856 705,1849 674,1845C642,1841 610,1835 601,1830C550,1805 504,1787 496,1789C492,1790 482,1786 474,1779C454,1763 435,1774 416,1811C398,1846 394,1945 410,1955C416,1958 420,1976 420,1995C420,2014 425,2032 430,2035C436,2038 440,2051 440,2064C440,2076 447,2095 455,2106C463,2116 470,2133 470,2143C470,2152 474,2168 479,2178C484,2187 496,2215 506,2240C516,2265 532,2293 542,2303C552,2313 560,2324 560,2328C560,2343 749,2519 780,2534C813,2549 893,2602 901,2613C908,2622 922,2631 991,2669C1015,2682 1037,2696 1040,2699C1043,2703 1061,2714 1080,2724C1099,2733 1135,2754 1160,2770C1185,2786 1215,2804 1228,2810C1240,2815 1250,2826 1250,2835C1250,2843 1255,2850 1261,2850C1268,2850 1294,2868 1319,2890C1395,2957 1400,2960 1408,2960C1412,2960 1431,2976 1450,2995C1469,3014 1489,3030 1495,3030C1501,3030 1526,3050 1550,3075C1574,3100 1598,3120 1602,3120C1606,3120 1655,3165 1710,3220C1766,3275 1816,3320 1823,3320C1830,3320 1846,3337 1860,3357C1874,3378 1921,3431 1965,3476C2060,3573 2140,3665 2140,3677C2140,3682 2156,3701 2175,3720C2194,3739 2210,3759 2210,3765C2210,3771 2223,3787 2240,3800C2256,3814 2269,3828 2270,3832C2270,3843 2354,3964 2363,3968C2367,3970 2380,3990 2391,4012C2402,4034 2429,4077 2451,4108C2472,4139 2490,4170 2490,4176C2490,4182 2497,4193 2505,4200C2519,4212 2610,4390 2610,4406C2610,4411 2643,4482 2684,4565C2780,4762 2794,4792 2796,4812C2797,4822 2805,4841 2814,4854C2823,4868 2830,4888 2830,4899C2830,4910 2834,4921 2839,4924C2844,4928 2856,4956 2866,4988C2875,5019 2887,5050 2890,5055C2894,5061 2901,5081 2904,5100C2911,5133 2921,5163 2940,5200C2944,5209 2951,5231 2954,5250C2961,5284 2965,5296 2988,5350C2994,5364 3001,5386 3003,5400C3006,5414 3011,5436 3015,5450C3019,5464 3024,5489 3027,5505C3030,5522 3036,5540 3040,5545C3045,5551 3051,5573 3055,5595C3061,5633 3071,5664 3091,5702C3096,5712 3100,5727 3100,5735C3100,5743 3104,5758 3109,5768C3114,5777 3126,5810 3135,5840C3144,5870 3155,5904 3159,5915C3164,5926 3175,5955 3185,5980C3202,6026 3271,6168 3293,6205C3309,6231 3342,6281 3355,6299C3360,6306 3389,6338 3418,6370C3446,6401 3470,6432 3470,6438C3470,6445 3476,6450 3483,6450C3490,6450 3522,6477 3555,6510C3588,6543 3620,6570 3627,6570C3634,6570 3640,6574 3640,6579C3640,6585 3651,6595 3664,6602C3816,6684 3889,6720 3908,6720C3920,6720 3938,6724 3948,6729C3979,6746 4005,6753 4027,6751C4038,6750 4051,6754 4055,6759C4058,6765 4085,6770 4115,6770C4145,6770 4172,6775 4175,6781C4182,6792 4246,6789 4375,6771ZM5213,5962C5233,5942 5250,5922 5250,5918C5250,5911 5195,5879 5165,5869C5159,5867 5153,5895 5150,5936C5144,6019 5150,6021 5213,5962ZM5500,5731C5547,5726 5603,5717 5625,5710C5647,5704 5683,5694 5705,5689C5727,5683 5749,5675 5755,5669C5760,5664 5771,5660 5780,5660C5795,5660 5958,5576 6015,5540C6032,5529 6052,5517 6060,5513C6068,5510 6090,5492 6108,5473C6126,5455 6145,5440 6149,5440C6165,5440 6350,5231 6350,5212C6350,5206 6355,5200 6361,5198C6375,5193 6387,4781 6375,4754C6370,4743 6365,4731 6365,4725C6359,4690 6278,4517 6263,4507C6256,4503 6250,4493 6250,4486C6250,4460 6183,4409 6141,4403C6113,4399 6100,4401 6100,4409C6100,4415 6107,4423 6115,4426C6134,4434 6135,4460 6116,4460C6108,4460 6095,4454 6088,4447C6081,4440 6068,4431 6060,4427C6052,4423 6038,4416 6030,4410C5972,4372 5907,4341 5872,4335C5849,4331 5828,4324 5824,4319C5821,4314 5767,4310 5705,4310C5606,4310 5589,4308 5581,4293C5566,4263 5577,4219 5609,4186C5626,4168 5640,4149 5640,4142C5640,4135 5646,4130 5653,4130C5660,4130 5686,4110 5710,4085C5734,4060 5758,4040 5763,4040C5768,4040 5793,4022 5819,4000C5845,3978 5871,3960 5877,3960C5883,3960 5894,3953 5901,3944C5908,3935 5923,3924 5935,3919C5946,3914 5975,3896 6000,3880C6025,3864 6052,3847 6060,3843C6068,3840 6086,3828 6099,3818C6113,3808 6142,3791 6164,3781C6213,3759 6260,3717 6260,3695C6260,3686 6272,3657 6286,3629C6313,3575 6311,3558 6280,3578C6270,3584 6214,3592 6155,3596C6097,3600 6047,3607 6044,3611C6041,3616 5989,3620 5928,3620C5796,3620 5797,3620 5678,3753C5595,3846 5573,3866 5563,3856C5554,3847 5626,3757 5716,3666C5818,3563 5898,3490 5907,3490C5912,3490 5931,3474 5950,3455C5969,3436 5989,3420 5995,3420C6001,3420 6021,3404 6040,3385C6059,3366 6078,3350 6082,3350C6091,3350 6093,3349 6150,3302C6169,3286 6192,3271 6202,3267C6217,3262 6350,3011 6350,2987C6350,2980 6361,2953 6374,2925C6409,2854 6430,2804 6430,2791C6430,2785 6441,2761 6455,2736C6469,2711 6480,2684 6480,2675C6480,2667 6484,2652 6489,2642C6510,2603 6530,2551 6530,2537C6530,2528 6535,2518 6540,2515C6546,2512 6550,2499 6550,2486C6550,2474 6553,2460 6557,2456C6568,2445 6585,2367 6582,2343C6580,2327 6572,2320 6557,2321C6520,2322 6450,2308 6444,2299C6441,2294 6426,2290 6410,2290C6394,2290 6378,2285 6375,2280C6364,2263 6350,2280 6350,2310C6350,2326 6346,2342 6340,2345C6335,2348 6330,2364 6330,2379C6330,2394 6327,2410 6323,2414C6318,2418 6314,2431 6313,2443C6310,2475 6300,2522 6290,2545C6266,2605 6259,2630 6264,2639C6268,2644 6266,2651 6260,2655C6255,2658 6250,2672 6250,2685C6250,2707 6246,2720 6219,2785C6215,2796 6208,2824 6205,2847C6201,2871 6194,2892 6189,2896C6184,2899 6180,2914 6180,2930C6180,2946 6176,2961 6171,2964C6167,2967 6160,2987 6157,3007C6150,3048 6125,3090 6109,3090C6097,3090 6106,3039 6123,3005C6145,2962 6148,2952 6155,2902C6159,2873 6166,2850 6171,2850C6176,2850 6180,2836 6180,2820C6180,2803 6184,2782 6189,2772C6201,2749 6212,2720 6216,2695C6218,2684 6222,2658 6226,2637C6229,2617 6236,2597 6241,2594C6246,2591 6250,2578 6250,2565C6250,2552 6254,2539 6260,2535C6265,2532 6267,2523 6263,2515C6260,2506 6262,2494 6268,2487C6273,2481 6280,2462 6283,2445C6296,2378 6302,2354 6312,2333C6329,2297 6308,2260 6271,2260C6255,2260 6238,2256 6235,2250C6232,2245 6213,2240 6194,2240C6175,2240 6160,2236 6160,2231C6160,2226 6107,2219 6043,2215C5978,2211 5920,2204 5913,2198C5907,2193 5878,2190 5849,2192C5785,2196 5782,2201 5781,2332C5780,2380 5776,2422 5770,2425C5765,2428 5760,2460 5760,2496C5760,2532 5756,2560 5750,2560C5744,2560 5740,2589 5740,2628C5740,2666 5737,2700 5733,2704C5728,2708 5724,2728 5722,2748C5717,2819 5709,2875 5700,2895C5695,2906 5689,2930 5688,2949C5686,2968 5677,2988 5668,2994C5647,3007 5632,2994 5648,2978C5655,2971 5660,2951 5660,2934C5660,2916 5664,2899 5669,2896C5674,2892 5681,2847 5685,2795C5689,2743 5696,2697 5701,2694C5706,2691 5710,2660 5710,2625C5710,2590 5714,2560 5719,2558C5724,2557 5732,2484 5736,2398C5740,2311 5747,2240 5752,2240C5757,2240 5760,2225 5758,2208L5755,2175L5575,2176C5476,2177 5361,2183 5320,2189C5279,2196 5221,2203 5193,2206C5164,2209 5140,2216 5139,2221C5137,2258 5139,2328 5143,2340C5148,2354 5152,2378 5166,2490C5170,2515 5176,2540 5180,2545C5185,2551 5191,2597 5195,2648C5199,2699 5207,2743 5211,2746C5216,2749 5220,2769 5220,2790C5220,2811 5224,2831 5229,2834C5234,2837 5241,2878 5245,2925C5249,2972 5256,3012 5261,3016C5266,3019 5270,3040 5270,3064C5270,3087 5275,3111 5281,3117C5297,3133 5288,3215 5270,3215C5258,3215 5253,3193 5245,3120C5239,3068 5231,3018 5228,3010C5220,2991 5210,2937 5204,2885C5202,2863 5195,2823 5189,2795C5183,2768 5176,2725 5173,2700C5170,2675 5164,2651 5160,2645C5156,2640 5149,2593 5145,2542C5141,2492 5134,2447 5129,2444C5124,2441 5120,2420 5120,2396C5120,2373 5116,2350 5111,2345C5106,2339 5100,2322 5098,2305C5095,2276 5093,2275 5043,2273C5014,2272 4988,2276 4985,2281C4981,2286 4955,2290 4925,2290C4895,2290 4868,2294 4865,2300C4862,2306 4846,2310 4830,2310L4800,2310L4816,2348C4825,2368 4836,2393 4841,2402C4846,2412 4850,2429 4850,2439C4850,2450 4854,2461 4859,2464C4864,2467 4871,2486 4874,2506C4878,2525 4889,2556 4899,2573C4915,2601 4930,2646 4935,2675C4936,2685 4944,2708 4960,2745C4965,2756 4972,2781 4976,2800C4983,2834 4987,2845 5008,2887C5015,2900 5020,2919 5020,2929C5020,2940 5025,2952 5030,2955C5036,2959 5038,2965 5035,2970C5030,2979 5033,2987 5058,3037C5065,3050 5070,3068 5070,3078C5070,3088 5075,3101 5081,3107C5095,3121 5086,3150 5067,3150C5058,3150 5050,3134 5046,3108C5042,3085 5036,3061 5031,3055C5027,3050 5017,3025 5010,3000C5003,2975 4992,2950 4987,2943C4982,2936 4981,2926 4984,2921C4988,2916 4986,2909 4980,2905C4975,2902 4970,2890 4970,2879C4970,2860 4966,2850 4941,2802C4935,2789 4932,2775 4935,2770C4938,2765 4936,2759 4930,2755C4925,2752 4920,2740 4920,2729C4920,2719 4916,2701 4910,2690C4905,2679 4896,2661 4890,2650C4885,2639 4880,2622 4880,2612C4880,2602 4873,2585 4865,2574C4857,2564 4850,2545 4850,2533C4850,2521 4845,2508 4840,2505C4834,2501 4830,2493 4831,2487C4833,2474 4824,2446 4809,2418C4804,2408 4800,2393 4800,2385C4800,2357 4769,2320 4744,2320C4732,2320 4718,2325 4715,2330C4712,2336 4696,2340 4681,2340C4666,2340 4650,2344 4644,2348C4639,2352 4610,2364 4580,2374C4515,2396 4485,2419 4500,2434C4505,2439 4510,2452 4510,2462C4510,2472 4514,2488 4519,2498C4549,2557 4580,2627 4580,2636C4580,2642 4603,2692 4630,2746C4658,2800 4680,2848 4680,2853C4680,2858 4715,2931 4757,3016C4815,3132 4831,3173 4823,3181C4811,3193 4733,3041 4600,2750C4571,2687 4537,2614 4524,2588C4511,2561 4500,2531 4500,2521C4500,2510 4496,2498 4490,2495C4485,2492 4480,2480 4480,2470C4480,2445 4465,2437 4440,2450C4429,2455 4411,2465 4400,2470C4389,2476 4373,2480 4364,2480C4356,2480 4340,2484 4330,2490C4313,2499 4315,2506 4357,2587C4382,2636 4408,2682 4415,2690C4421,2698 4432,2720 4440,2738C4447,2755 4456,2770 4461,2770C4466,2770 4475,2782 4481,2798C4492,2828 4541,2903 4553,2908C4557,2910 4560,2916 4560,2921C4560,2930 4631,3038 4669,3085C4714,3141 5100,3520 5112,3520C5119,3520 5139,3534 5156,3551C5174,3568 5199,3588 5212,3594C5228,3602 5238,3619 5245,3652C5250,3678 5258,3702 5263,3706C5267,3710 5270,3730 5270,3751C5270,3772 5275,3792 5280,3795C5286,3798 5290,3832 5290,3871C5290,3934 5288,3940 5269,3940C5249,3940 5248,3936 5254,3883C5263,3805 5243,3752 5199,3728C5181,3718 5141,3685 5110,3655L5054,3600L4907,3600C4784,3600 4758,3603 4754,3615C4750,3623 4752,3636 4758,3643C4763,3649 4770,3668 4774,3685C4778,3701 4797,3734 4816,3757C4835,3780 4850,3803 4850,3809C4850,3815 4856,3820 4864,3820C4872,3820 4880,3823 4882,3828C4886,3837 4956,3890 4965,3890C4970,3890 5029,3929 5040,3940C5054,3954 5110,3990 5118,3990C5123,3990 5137,4001 5150,4015C5163,4029 5178,4040 5182,4040C5187,4040 5221,4065 5258,4096C5320,4149 5324,4151 5332,4130C5342,4104 5356,4111 5364,4147C5368,4163 5380,4195 5392,4218C5414,4262 5414,4262 5395,4298C5384,4317 5366,4338 5355,4344C5344,4350 5332,4359 5329,4363C5322,4372 5288,4393 5255,4408C5244,4414 5192,4458 5140,4508C5034,4609 4988,4679 5008,4711C5015,4721 5020,4741 5020,4754C5020,4768 5025,4782 5031,4786C5037,4789 5039,4803 5036,4815C5033,4828 5034,4842 5040,4845C5045,4848 5050,4864 5050,4880C5050,4896 5055,4912 5060,4915C5066,4918 5070,4943 5070,4969C5070,4995 5073,5020 5076,5023C5080,5027 5084,5046 5086,5067C5092,5138 5102,5195 5111,5204C5116,5210 5120,5249 5120,5291C5120,5335 5125,5372 5130,5375C5136,5379 5141,5418 5141,5463C5142,5508 5144,5578 5147,5618C5152,5689 5152,5690 5180,5690C5196,5690 5212,5695 5215,5700C5218,5706 5232,5710 5245,5710C5258,5710 5272,5715 5275,5720C5278,5726 5300,5730 5323,5730C5346,5730 5371,5734 5379,5739C5387,5744 5398,5746 5405,5744C5411,5741 5454,5735 5500,5731ZM4741,4636C4753,4623 4753,4415 4741,4392C4735,4383 4728,4358 4725,4338C4722,4317 4716,4300 4711,4300C4705,4300 4543,4459 4512,4494C4508,4499 4539,4549 4558,4569C4578,4589 4639,4630 4651,4630C4656,4630 4665,4641 4670,4655C4675,4669 4686,4680 4694,4680C4701,4680 4711,4690 4715,4703C4722,4722 4724,4719 4727,4685C4730,4663 4736,4641 4741,4636ZM5008,4602C5018,4578 5142,4452 5191,4415C5244,4375 5341,4310 5349,4310C5360,4310 5370,4285 5370,4255C5370,4234 5358,4220 5270,4150C5200,4094 5181,4080 5172,4080C5167,4080 5157,4073 5149,4064C5138,4051 5063,3996 5012,3965C5003,3960 4974,3940 4948,3923C4922,3905 4896,3890 4890,3890C4885,3890 4880,3885 4880,3880C4880,3874 4872,3866 4862,3862C4846,3856 4761,3802 4698,3759C4634,3714 4637,3735 4722,3910C4817,4104 4820,4111 4815,4120C4812,4125 4814,4131 4820,4135C4825,4138 4830,4151 4830,4164C4830,4176 4834,4190 4838,4196C4843,4201 4855,4232 4865,4265C4881,4320 4887,4337 4911,4395C4915,4406 4922,4431 4926,4450C4929,4469 4936,4491 4940,4500C4958,4536 4969,4567 4975,4598C4983,4637 4991,4639 5008,4602ZM4528,4428C4567,4382 4567,4381 4558,4328C4549,4274 4538,4240 4514,4183C4506,4166 4500,4147 4500,4141C4500,4135 4491,4115 4480,4095C4469,4075 4460,4054 4460,4047C4460,4023 4352,3822 4324,3793C4309,3777 4290,3776 4290,3791C4290,3797 4263,3834 4229,3872L4168,3943L4224,3999C4255,4030 4280,4059 4280,4064C4280,4069 4294,4088 4310,4107C4327,4125 4340,4147 4340,4154C4340,4162 4346,4173 4354,4179C4374,4196 4410,4267 4410,4290C4410,4300 4414,4311 4419,4314C4423,4317 4431,4334 4435,4352C4444,4392 4481,4483 4486,4477C4487,4476 4505,4454 4528,4428ZM4138,3929C4147,3918 4171,3892 4190,3872C4209,3851 4230,3828 4235,3819C4260,3779 4285,3743 4305,3720C4341,3677 4353,3628 4336,3589C4308,3523 4198,3445 4142,3452C4117,3455 4115,3459 4108,3520C4104,3556 4095,3619 4089,3660C4077,3738 4070,3916 4078,3938C4085,3957 4118,3952 4138,3929ZM4060,3651C4060,3620 4065,3589 4071,3583C4081,3573 4069,3539 4050,3520C4041,3511 4021,3475 4000,3433C3989,3410 3974,3387 3967,3383C3952,3373 3910,3314 3910,3302C3910,3297 3901,3285 3890,3275C3879,3265 3870,3251 3870,3244C3870,3237 3864,3227 3857,3223C3851,3219 3829,3193 3810,3166C3791,3139 3756,3096 3733,3070C3709,3044 3690,3018 3690,3011C3690,3005 3686,3000 3680,3000C3675,3000 3670,3013 3670,3029C3670,3046 3675,3062 3680,3065C3695,3074 3693,3266 3678,3290C3668,3306 3668,3314 3678,3330C3684,3341 3690,3358 3690,3368C3690,3378 3695,3391 3702,3398C3709,3405 3711,3410 3707,3410C3679,3410 3827,3589 3855,3590C3861,3590 3903,3628 3949,3674L4033,3759L4047,3733C4054,3719 4060,3682 4060,3651ZM4768,3743C4761,3727 4727,3654 4718,3634C4712,3622 4710,3604 4712,3594C4715,3577 4728,3575 4869,3572L5022,3569L4979,3520C4938,3474 4874,3397 4829,3341C4819,3328 4808,3308 4804,3296C4800,3285 4770,3245 4736,3208C4652,3115 4620,3078 4609,3058C4603,3048 4593,3040 4585,3040C4568,3040 4561,3065 4558,3140C4555,3187 4552,3195 4535,3198C4523,3200 4497,3186 4473,3165C4450,3146 4428,3130 4423,3130C4418,3130 4399,3114 4380,3095C4362,3076 4343,3063 4338,3066C4334,3069 4330,3099 4330,3134C4330,3198 4334,3207 4409,3320C4419,3334 4432,3360 4439,3378C4447,3395 4456,3410 4461,3410C4465,3410 4483,3438 4500,3473C4542,3557 4565,3598 4583,3618C4590,3627 4600,3643 4603,3653C4607,3662 4614,3670 4620,3670C4625,3670 4656,3688 4687,3710C4740,3746 4777,3761 4768,3743ZM6325,3689C6332,3678 6670,3512 6775,3468C6899,3415 6936,3401 6960,3395C6998,3385 7040,3366 7040,3359C7040,3350 7106,3339 7157,3340C7223,3341 7226,3312 7164,3273C7144,3260 7120,3250 7110,3250C7100,3250 7088,3246 7085,3240C7072,3220 7049,3231 7033,3265C7024,3284 7010,3300 7003,3300C6987,3300 6986,3274 7001,3265C7007,3261 7009,3252 7006,3244C7003,3237 7005,3228 7010,3225C7016,3221 7020,3210 7020,3199C7020,3189 7024,3172 7029,3162C7052,3117 7059,3090 7065,3034C7069,2996 7068,2970 7062,2966C7056,2963 7037,2976 7019,2995C7000,3014 6982,3030 6979,3030C6975,3030 6941,3050 6904,3075C6867,3100 6830,3119 6821,3118C6813,3116 6803,3102 6798,3085C6777,3013 6768,2984 6760,2965C6756,2954 6747,2930 6740,2913C6733,2895 6724,2880 6719,2880C6708,2880 6620,2964 6620,2975C6620,2979 6595,3009 6565,3041C6535,3073 6510,3103 6510,3109C6510,3115 6505,3120 6499,3120C6493,3120 6471,3134 6450,3150C6429,3167 6408,3180 6402,3180C6397,3180 6387,3187 6380,3196C6372,3204 6351,3218 6331,3226C6312,3234 6293,3244 6290,3248C6282,3259 6222,3300 6214,3300C6211,3300 6193,3312 6175,3328C6158,3343 6133,3362 6120,3370C6107,3378 6080,3400 6060,3418C6039,3435 6018,3450 6013,3450C6008,3450 5989,3466 5970,3485C5951,3504 5932,3520 5926,3520C5914,3520 5860,3571 5860,3582C5860,3593 6014,3592 6026,3581C6031,3576 6067,3569 6105,3566C6144,3563 6193,3559 6215,3556C6343,3537 6350,3537 6350,3554C6350,3563 6339,3593 6325,3620C6311,3647 6300,3676 6300,3685C6300,3702 6316,3705 6325,3689ZM5220,3682C5220,3666 5195,3620 5186,3620C5181,3620 5159,3604 5136,3584C5027,3490 4964,3440 4954,3440C4949,3440 5001,3496 5070,3565C5182,3677 5220,3707 5220,3682ZM3658,3181C3660,3118 3658,3080 3651,3075C3645,3072 3640,3047 3640,3020C3640,2993 3636,2968 3630,2965C3625,2962 3620,2949 3620,2936C3620,2909 3592,2850 3580,2850C3575,2850 3563,2862 3553,2876C3543,2891 3520,2918 3503,2936C3485,2955 3470,2973 3470,2977C3470,2981 3460,2994 3449,3006C3437,3019 3422,3038 3416,3048C3363,3139 3362,3150 3405,3150C3418,3150 3432,3155 3435,3160C3438,3166 3449,3170 3458,3170C3488,3170 3592,3229 3620,3262C3648,3295 3655,3281 3658,3181ZM3356,3088C3365,3070 3385,3039 3399,3020C3413,3001 3428,2981 3432,2975C3436,2970 3457,2944 3479,2919C3502,2894 3520,2863 3520,2851C3520,2831 3466,2712 3451,2700C3439,2690 3400,2631 3400,2622C3400,2612 3353,2570 3323,2553C3286,2532 3241,2537 3230,2563C3225,2575 3200,2612 3176,2645C3151,2678 3131,2710 3131,2715C3130,2721 3110,2744 3087,2768C3055,2799 3035,2810 3013,2810C2972,2810 2960,2792 2953,2725C2950,2695 2943,2667 2939,2664C2934,2661 2930,2626 2930,2586C2930,2546 2927,2510 2923,2506C2919,2502 2917,2460 2919,2412L2922,2324L2871,2282C2844,2259 2817,2240 2812,2240C2808,2240 2793,2229 2780,2215C2767,2201 2751,2190 2745,2190C2739,2190 2719,2174 2700,2155C2681,2136 2662,2120 2658,2120C2653,2120 2639,2111 2627,2100C2581,2058 2532,2020 2526,2020C2518,2020 2463,1982 2442,1963C2435,1956 2422,1950 2414,1950C2406,1950 2400,1946 2400,1941C2400,1929 2387,1922 2234,1846C2054,1758 1958,1720 1912,1720C1900,1720 1889,1716 1886,1711C1881,1704 1841,1691 1800,1685C1785,1682 1733,1669 1670,1651C1613,1636 1540,1605 1465,1566C1427,1546 1390,1530 1383,1530C1376,1530 1336,1512 1294,1490C1251,1468 1209,1450 1199,1450C1189,1450 1179,1446 1176,1441C1163,1420 978,1405 926,1420C848,1442 815,1463 812,1493C810,1508 814,1520 820,1520C826,1520 828,1525 824,1531C821,1537 827,1555 839,1571C850,1586 860,1603 860,1607C860,1614 880,1642 960,1745C1063,1878 1083,1900 1100,1900C1110,1900 1122,1905 1125,1910C1128,1916 1140,1920 1151,1920C1170,1920 1177,1922 1238,1953C1257,1962 1277,1970 1283,1970C1297,1971 1466,2054 1486,2071C1505,2086 1652,2160 1665,2160C1670,2160 1698,2172 1725,2186C1794,2221 1849,2240 1887,2240C1918,2240 1929,2228 1978,2140C1985,2126 1999,2106 2009,2095C2018,2084 2039,2055 2055,2030C2071,2005 2102,1963 2124,1937C2157,1896 2167,1889 2194,1892C2220,1894 2229,1903 2247,1940C2291,2030 2320,2108 2320,2134C2320,2148 2325,2169 2330,2180C2336,2191 2345,2209 2350,2220C2356,2232 2363,2276 2367,2320C2373,2397 2374,2400 2416,2441C2440,2465 2460,2489 2460,2495C2460,2514 2515,2560 2538,2560C2550,2560 2560,2564 2560,2569C2560,2579 2607,2609 2680,2647C2755,2686 2813,2722 2862,2759C2888,2779 2925,2806 2946,2820C3007,2862 3112,2954 3174,3020C3274,3125 3327,3145 3356,3088ZM3066,2738C3106,2694 3150,2636 3150,2625C3150,2622 3166,2598 3185,2573C3205,2547 3223,2516 3226,2503C3230,2490 3235,2480 3239,2480C3251,2480 3270,2415 3270,2373C3270,2340 3264,2325 3240,2302C3164,2226 3040,2197 2978,2242L2947,2264L2954,2454C2957,2559 2965,2649 2970,2654C2976,2660 2980,2678 2980,2695C2980,2731 3000,2780 3015,2780C3021,2780 3044,2761 3066,2738ZM2340,2325C2340,2317 2336,2302 2331,2292C2325,2283 2318,2254 2315,2228C2312,2202 2305,2178 2299,2175C2294,2171 2290,2156 2290,2140C2290,2124 2285,2108 2280,2105C2274,2101 2271,2093 2272,2087C2273,2080 2266,2057 2256,2035C2246,2013 2232,1980 2224,1962C2206,1920 2184,1912 2159,1938C2149,1950 2140,1963 2140,1968C2140,1973 2129,1987 2115,2000C2101,2013 2090,2029 2090,2035C2090,2042 2081,2055 2070,2065C2059,2075 2050,2089 2050,2097C2050,2104 2047,2110 2043,2110C2038,2110 2024,2127 2011,2148C1998,2168 1979,2197 1968,2213L1949,2240L2064,2240C2154,2240 2182,2243 2194,2255C2202,2264 2224,2277 2242,2285C2261,2292 2284,2308 2294,2319C2316,2344 2340,2346 2340,2325ZM4695,2301C4698,2295 4732,2288 4770,2284C4809,2280 4843,2273 4846,2269C4849,2264 4875,2260 4905,2260C4935,2260 4962,2256 4965,2250C4968,2245 4984,2240 5000,2240C5036,2240 5045,2227 5024,2206C5001,2182 4728,2183 4679,2206C4611,2239 4596,2264 4626,2294C4643,2312 4685,2315 4695,2301ZM6204,2170C6232,2153 6258,2121 6248,2116C6199,2091 6184,2089 5965,2094C5838,2097 5708,2101 5675,2104C5495,2121 5495,2140 5674,2140C5748,2140 5811,2144 5814,2149C5817,2154 5871,2161 5934,2165C5996,2169 6054,2176 6061,2181C6087,2197 6167,2191 6204,2170Z" style="fill:rgb(199,0,200);fill-rule:nonzero;stroke:rgb(199,0,200);stroke-width:50px;"/>
        <path d="M3605,6031C3589,6021 3563,6010 3548,6006C3532,6003 3520,5995 3520,5990C3520,5984 3515,5980 3509,5980C3478,5980 3220,5723 3220,5692C3220,5687 3213,5676 3204,5669C3195,5662 3177,5632 3164,5604C3151,5575 3137,5550 3133,5548C3122,5544 3050,5402 3050,5387C3050,5376 3038,5349 2994,5257C2986,5241 2980,5220 2980,5210C2980,5200 2976,5189 2971,5186C2967,5183 2960,5158 2956,5131C2952,5103 2945,5078 2940,5075C2934,5072 2930,5056 2930,5040C2930,5024 2925,5008 2920,5005C2914,5001 2909,4980 2909,4957C2909,4888 2899,4796 2890,4785C2876,4768 2874,4512 2888,4498C2895,4491 2900,4476 2900,4463C2900,4402 3027,4230 3072,4230C3081,4230 3092,4226 3095,4220C3098,4215 3130,4210 3165,4210C3200,4210 3232,4215 3235,4220C3238,4226 3252,4230 3266,4230C3291,4230 3429,4295 3484,4333C3525,4361 3690,4522 3690,4533C3690,4538 3702,4557 3718,4575C3800,4672 3858,4772 3905,4900C3915,4925 3926,4953 3931,4962C3936,4972 3940,4989 3940,4999C3940,5010 3944,5021 3949,5025C3954,5028 3962,5059 3965,5095C3969,5131 3976,5163 3981,5166C3986,5169 3990,5189 3990,5210C3990,5231 3995,5252 4000,5255C4006,5259 4010,5335 4010,5450C4010,5565 4006,5641 4000,5645C3995,5648 3990,5663 3990,5678C3990,5710 3964,5784 3925,5860C3892,5925 3781,6030 3745,6030C3732,6030 3718,6035 3715,6040C3705,6056 3638,6050 3605,6031ZM3769,5982C3823,5948 3879,5885 3909,5824C3926,5789 3940,5754 3940,5746C3940,5738 3945,5728 3950,5725C3956,5722 3960,5701 3960,5680C3960,5659 3964,5639 3969,5635C3982,5627 3983,5273 3970,5265C3965,5262 3960,5241 3960,5220C3960,5199 3956,5178 3950,5175C3945,5172 3940,5151 3940,5130C3940,5109 3935,5088 3930,5085C3924,5081 3920,5071 3921,5062C3923,5038 3909,4981 3899,4974C3894,4971 3890,4958 3890,4945C3890,4932 3886,4919 3881,4916C3876,4913 3869,4898 3866,4883C3856,4844 3801,4733 3784,4719C3776,4713 3770,4703 3770,4698C3770,4692 3748,4662 3720,4630C3693,4598 3670,4568 3670,4563C3670,4554 3501,4388 3469,4365C3434,4339 3263,4260 3243,4260C3231,4260 3218,4256 3215,4250C3212,4245 3189,4240 3164,4240C3140,4240 3120,4245 3120,4250C3120,4256 3110,4260 3097,4260C3082,4260 3055,4280 3019,4318C2964,4375 2938,4419 2924,4475C2912,4527 2908,4772 2919,4783C2925,4789 2930,4818 2930,4846C2930,4875 2934,4901 2939,4904C2943,4907 2950,4942 2954,4982C2958,5022 2965,5059 2970,5064C2976,5070 2980,5084 2980,5096C2980,5109 2984,5121 2989,5124C2993,5127 3000,5149 3003,5173C3006,5197 3018,5234 3028,5256C3039,5277 3056,5315 3065,5340C3091,5406 3136,5496 3180,5570C3202,5606 3223,5644 3229,5655C3234,5666 3252,5688 3269,5704C3286,5721 3300,5739 3300,5745C3300,5757 3427,5881 3475,5915C3520,5948 3554,5969 3570,5976C3578,5979 3599,5988 3615,5996C3652,6014 3730,6007 3769,5982Z" style="fill:rgb(199,0,200);fill-rule:nonzero;stroke:rgb(199,0,200);stroke-width:50px;"/>
        <g transform="matrix(1,0,0,1,-100,0)">
            <path d="M6179,5316L6201,5293L6180,5255C6166,5230 6157,5191 6153,5139C6150,5095 6143,5057 6138,5054C6126,5046 6128,4800 6140,4800C6146,4800 6150,4788 6150,4773C6150,4725 6161,4700 6181,4700C6192,4700 6200,4704 6200,4710C6200,4715 6214,4735 6230,4753C6247,4772 6260,4795 6260,4804C6260,4813 6265,4829 6270,4840C6276,4851 6284,4869 6290,4879C6295,4890 6302,4921 6306,4949C6310,4977 6317,5000 6323,5000C6329,5000 6330,4979 6326,4943C6322,4911 6317,4876 6316,4865C6313,4839 6303,4815 6274,4758C6249,4709 6243,4670 6259,4670C6270,4670 6330,4790 6330,4812C6330,4820 6335,4831 6342,4838C6358,4854 6357,5113 6341,5118C6335,5120 6330,5130 6330,5141C6330,5171 6275,5274 6240,5309C6221,5328 6198,5340 6182,5340L6157,5340L6179,5316ZM6263,5223C6284,5183 6287,5166 6283,5126C6279,5091 6281,5076 6291,5069C6302,5062 6303,5057 6293,5040C6286,5029 6280,5002 6280,4981C6280,4959 6276,4939 6271,4936C6267,4933 6260,4913 6257,4892C6250,4850 6231,4808 6200,4770L6180,4745L6180,4771C6180,4785 6175,4801 6169,4807C6163,4813 6160,4832 6162,4850C6164,4875 6173,4888 6195,4900C6222,4915 6225,4922 6228,4974C6231,5022 6235,5033 6251,5037C6275,5044 6276,5060 6252,5060C6226,5060 6210,5080 6210,5111C6210,5147 6236,5173 6263,5164C6282,5158 6283,5159 6271,5174C6252,5197 6235,5194 6212,5163C6188,5130 6171,5139 6190,5175C6197,5189 6201,5203 6197,5206C6189,5214 6217,5270 6229,5270C6233,5270 6248,5249 6263,5223Z" style="fill:rgb(199,0,200);fill-rule:nonzero;stroke:rgb(199,0,200);stroke-width:10px;"/>
        </g>
    </g>
</svg>
