<?xml version="1.0" encoding="UTF-8" standalone="no"?>
<!DOCTYPE svg PUBLIC "-//W3C//DTD SVG 1.1//EN" "http://www.w3.org/Graphics/SVG/1.1/DTD/svg11.dtd">
<svg width="100%" height="100%" viewBox="0 0 1000 1000" version="1.1" xmlns="http://www.w3.org/2000/svg" xmlns:xlink="http://www.w3.org/1999/xlink" xml:space="preserve" xmlns:serif="http://www.serif.com/" style="fill-rule:evenodd;clip-rule:evenodd;stroke-linejoin:round;stroke-miterlimit:2;">
    <g transform="matrix(0.1,0,0,-0.1,0,1000)">
        <g transform="matrix(1.07221,0,0,1.07221,-368.133,-361.753)">
            <path d="M7390,9139C7376,9134 7343,9105 7315,9075C7270,9025 7260,9019 7208,9010C7142,9000 7118,8987 7095,8948C7086,8932 7057,8908 7030,8895C7003,8881 6976,8861 6970,8851C6954,8820 6958,8768 6980,8732C7013,8679 7007,8628 6963,8578C6890,8498 6760,8470 6760,8535C6760,8571 6812,8607 6881,8621C6933,8631 6941,8636 6938,8654C6929,8717 6792,8743 6715,8695C6693,8682 6661,8670 6645,8670C6605,8670 6531,8632 6508,8600C6498,8586 6477,8537 6460,8491C6424,8388 6395,8355 6326,8340C6298,8334 6265,8327 6252,8323C6231,8318 6230,8320 6235,8343C6239,8357 6236,8394 6230,8425C6219,8480 6219,8483 6247,8522C6308,8609 6311,8617 6311,8678C6311,8711 6307,8748 6300,8759C6287,8784 6262,8787 6253,8765C6250,8756 6227,8739 6201,8726C6145,8697 6129,8680 6098,8615C6081,8579 6065,8560 6040,8548C6021,8539 5978,8519 5945,8503C5894,8479 5878,8464 5837,8405C5811,8366 5754,8301 5711,8260C5611,8165 5600,8136 5619,8016C5627,7972 5635,7904 5637,7865C5643,7780 5625,7751 5558,7731C5534,7724 5503,7711 5487,7704C5451,7685 5343,7549 5311,7480C5285,7426 5285,7423 5288,7213C5292,6917 5282,6896 5080,6741C4878,6586 4845,6535 4761,6243C4679,5956 4556,5737 4097,5063C4074,5029 4048,5001 4040,5001C4032,5000 3997,4987 3964,4971C3882,4932 3804,4853 3755,4758L3715,4681L3633,4733C3588,4762 3551,4787 3551,4790C3550,4793 3564,4801 3580,4807C3651,4834 3597,4879 3483,4887C3440,4890 3397,4897 3388,4901C3379,4906 3361,4937 3349,4969C3324,5039 3301,5064 3240,5085C3177,5107 3163,5124 3140,5201C3129,5239 3108,5283 3094,5300C3063,5336 3071,5352 3128,5371C3230,5404 3302,5460 3336,5535C3368,5602 3366,5632 3328,5712C3302,5764 3290,5780 3273,5780C3257,5780 3249,5770 3238,5738C3221,5682 3196,5680 3192,5735C3189,5786 3243,5881 3312,5946C3378,6008 3390,6005 3390,5928C3390,5850 3413,5807 3463,5791C3502,5778 3541,5790 3590,5830C3604,5841 3637,5854 3663,5859C3720,5869 3744,5889 3776,5953C3798,5996 3802,5999 3822,5989C3860,5969 3962,5984 4043,6023C4100,6050 4125,6068 4150,6103C4188,6156 4210,6166 4305,6175C4424,6187 4486,6226 4538,6325C4564,6373 4565,6382 4565,6527C4565,6664 4567,6682 4586,6706C4625,6759 4652,6771 4763,6785C4827,6792 4880,6804 4896,6815C4912,6825 4939,6867 4966,6925C5014,7026 5025,7107 4995,7146C4981,7164 4979,7164 4953,7134C4937,7118 4911,7083 4893,7057C4848,6993 4816,6988 4704,7029C4550,7085 4467,7068 4410,6970C4386,6929 4379,6924 4337,6918C4277,6910 4231,6883 4202,6839C4181,6810 4179,6796 4183,6739L4187,6673L4161,6686C4107,6714 4027,6697 3981,6646L3956,6620L3911,6664C3886,6689 3845,6716 3821,6725C3797,6733 3762,6753 3744,6770C3725,6786 3703,6800 3695,6800C3675,6800 3676,6803 3705,6846C3782,6959 3775,7106 3689,7204C3630,7271 3563,7302 3469,7308C3402,7312 3385,7309 3339,7287C3230,7237 3160,7133 3152,7012C3146,6931 3158,6918 3202,6955C3307,7044 3436,7039 3433,6947C3431,6870 3378,6836 3195,6796C3008,6755 2861,6673 2779,6563C2709,6470 2696,6425 2680,6222C2672,6114 2666,6081 2645,6041C2616,5984 2591,5971 2552,5995C2475,6044 2430,6113 2430,6180C2430,6229 2447,6264 2489,6304C2506,6321 2520,6339 2520,6346C2520,6363 2433,6382 2386,6374C2343,6367 2276,6337 2265,6320C2254,6303 2225,6309 2203,6332C2170,6368 2154,6432 2170,6469C2178,6489 2180,6518 2176,6554C2168,6614 2173,6623 2242,6666C2286,6694 2287,6699 2261,6731C2243,6753 2234,6755 2157,6754C2102,6754 2056,6747 2027,6736C1976,6717 1920,6661 1920,6629C1920,6615 1911,6608 1891,6604C1875,6600 1849,6585 1833,6568C1809,6543 1805,6531 1806,6483L1806,6428L1773,6464C1755,6483 1740,6508 1740,6517C1740,6550 1778,6597 1848,6651C1933,6717 1968,6764 1982,6832C1993,6887 1995,6876 1933,7115C1914,7192 1921,7279 1954,7359C1988,7437 1982,7451 1922,7443C1896,7440 1855,7429 1830,7418C1788,7400 1784,7400 1775,7415C1770,7425 1753,7448 1738,7467C1718,7492 1710,7514 1710,7541C1710,7578 1709,7580 1678,7580C1660,7580 1630,7571 1613,7560C1595,7549 1580,7544 1580,7549C1580,7562 1601,7576 1641,7589C1711,7611 1739,7666 1710,7720C1702,7734 1705,7755 1720,7799C1731,7832 1740,7879 1740,7903C1740,7959 1713,8050 1696,8050C1689,8050 1678,8027 1671,7996C1645,7880 1573,7826 1423,7809C1312,7797 1272,7786 1229,7757C1160,7711 1143,7621 1180,7503C1205,7421 1196,7392 1129,7349C1102,7332 1077,7320 1074,7323C1071,7326 1082,7368 1099,7416C1135,7519 1138,7563 1110,7608C1085,7649 1067,7649 1052,7606C1041,7577 1028,7566 972,7540C935,7522 898,7499 889,7488C865,7457 825,7470 811,7513C798,7553 801,7566 847,7642C890,7713 900,7787 876,7877C847,7994 779,8064 772,7985C761,7853 740,7819 652,7794C620,7785 584,7772 570,7765C520,7739 460,7592 460,7495C460,7434 476,7409 554,7348C582,7326 610,7297 616,7283C634,7241 614,7188 553,7118C485,7041 456,6981 463,6931C466,6900 462,6889 429,6853C369,6787 356,6696 397,6616C423,6566 491,6500 584,6437C644,6396 683,6361 702,6330C730,6288 731,6280 726,6215C723,6177 709,6110 695,6067C640,5896 676,5817 832,5770C940,5738 959,5715 980,5593C1008,5420 1122,5324 1455,5190C1527,5161 1603,5128 1625,5117L1665,5097L1610,5076C1534,5048 1451,4965 1420,4885C1385,4797 1386,4685 1423,4608C1471,4510 1559,4452 1677,4442C1756,4436 1763,4448 1721,4522C1681,4592 1680,4646 1716,4689C1736,4713 1750,4720 1779,4720C1823,4720 1880,4684 1909,4637C1929,4604 1929,4603 1911,4564C1901,4543 1865,4462 1832,4385C1771,4244 1758,4190 1744,4030C1731,3882 1696,3805 1506,3505C1433,3390 1413,3325 1428,3251C1448,3157 1527,3080 1627,3060C1700,3044 1705,3051 1690,3138C1664,3279 1715,3349 1959,3507C2039,3560 2124,3618 2148,3637C2172,3656 2194,3669 2197,3666C2209,3655 2179,3527 2144,3436C2124,3385 2088,3320 2063,3286C2012,3219 2005,3196 2036,3192C2073,3187 2151,3229 2215,3291L2278,3352L2290,3293C2296,3261 2305,3219 2310,3200C2315,3181 2324,3129 2330,3085C2343,2999 2366,2948 2390,2952C2411,2956 2446,3024 2465,3095C2473,3128 2494,3274 2510,3420C2556,3827 2560,3842 2636,3959C2672,4013 2709,4082 2720,4112C2741,4172 2765,4332 2756,4355C2753,4363 2759,4378 2768,4389C2785,4409 2785,4409 2840,4372C2880,4345 2912,4310 2956,4245C3012,4163 3111,4058 3168,4018L3190,4003L3170,3869C3146,3708 3145,3641 3165,3524C3176,3461 3178,3429 3171,3411C3150,3360 3139,3283 3139,3202C3140,3021 3247,2841 3396,2773C3425,2760 3503,2735 3567,2719C3758,2671 3750,2675 3750,2626C3750,2591 3746,2582 3723,2568C3689,2548 3420,2441 3328,2411C3279,2395 3245,2375 3203,2337C3140,2281 3100,2260 2945,2205C2778,2144 2722,2095 2705,1995C2701,1973 2689,1924 2678,1886C2665,1842 2660,1802 2664,1776C2667,1753 2673,1707 2677,1674C2693,1557 2748,1510 2918,1467C2948,1460 2974,1460 3007,1467C3048,1477 3057,1476 3082,1457C3112,1435 3230,1419 3230,1437C3230,1442 3212,1463 3190,1484C3135,1535 3115,1576 3129,1607C3136,1621 3140,1676 3139,1735L3137,1838L3184,1934C3240,2049 3260,2065 3345,2065C3416,2065 3458,2043 3485,1994C3494,1976 3509,1959 3516,1956C3545,1945 3524,1875 3481,1836C3433,1792 3467,1769 3535,1799C3624,1838 3680,1900 3680,1960C3680,1980 3685,2001 3691,2007C3698,2014 3703,2037 3703,2059C3703,2113 3664,2162 3600,2192C3572,2205 3550,2218 3550,2222C3550,2249 3731,2345 3892,2404C4022,2451 4081,2482 4118,2524C4138,2547 4158,2560 4175,2560C4211,2560 4214,2588 4192,2707C4181,2763 4175,2812 4178,2815C4181,2818 4203,2820 4226,2820C4261,2820 4270,2816 4275,2799C4287,2761 4403,2656 4482,2612C4525,2588 4610,2548 4672,2523C4734,2499 4793,2470 4802,2459C4811,2448 4822,2418 4826,2392C4829,2366 4838,2340 4846,2334C4857,2325 4846,2289 4786,2128C4686,1862 4686,1862 4616,1822C4583,1804 4535,1767 4509,1740C4475,1704 4449,1687 4410,1676C4338,1655 4314,1637 4289,1588C4278,1566 4249,1526 4225,1501C4170,1441 4160,1421 4160,1368C4160,1335 4170,1307 4205,1248C4230,1205 4250,1160 4250,1148C4250,1135 4259,1108 4269,1087C4279,1067 4291,1038 4295,1023C4306,975 4349,911 4380,895C4414,877 4480,875 4480,892C4480,898 4468,927 4454,956L4428,1009L4450,1038C4465,1058 4475,1091 4480,1136C4484,1174 4497,1230 4508,1260C4520,1290 4532,1332 4535,1354C4541,1389 4580,1440 4601,1440C4606,1440 4601,1420 4590,1395C4562,1329 4557,1288 4571,1226C4582,1177 4581,1163 4565,1110C4543,1036 4552,993 4606,928C4625,904 4648,877 4656,867C4679,839 4700,850 4746,915C4810,1005 4817,1043 4806,1206C4799,1304 4801,1328 4820,1397C4831,1440 4851,1493 4863,1515C4890,1563 4920,1574 4920,1536C4920,1505 4956,1470 4987,1470C5010,1470 5011,1467 5005,1427C5000,1394 5002,1381 5014,1371C5052,1339 5137,1414 5147,1487C5150,1517 5146,1532 5126,1559C5112,1578 5100,1607 5100,1622C5100,1659 5078,1710 5053,1733C5042,1743 5013,1754 4989,1758C4936,1767 4930,1785 4955,1863C4985,1953 5090,2200 5147,2312C5194,2404 5201,2426 5199,2467L5196,2515L5235,2514C5257,2514 5304,2505 5340,2495C5440,2468 5514,2478 5630,2534C5732,2584 5754,2588 5788,2564C5818,2543 5816,2522 5770,2408C5725,2295 5719,2231 5745,2142C5769,2061 5829,1998 5985,1888C6181,1750 6228,1723 6303,1703C6383,1682 6455,1691 6570,1737C6611,1754 6676,1773 6714,1779C6797,1794 6851,1820 6879,1859C6890,1875 6915,1924 6934,1969C6983,2085 7016,2137 7052,2156C7083,2172 7084,2172 7103,2146C7124,2116 7154,2113 7226,2132C7270,2144 7273,2144 7295,2118C7308,2103 7321,2071 7325,2043C7336,1968 7364,1915 7411,1881C7470,1838 7503,1832 7683,1831C7862,1830 7883,1836 7924,1897C7956,1943 7945,1960 7890,1953C7838,1946 7803,1956 7789,1981C7775,2009 7790,2020 7845,2020C7897,2021 7957,2049 7999,2094C8044,2140 8070,2140 8162,2093C8240,2054 8310,2041 8359,2058C8375,2064 8426,2093 8472,2122C8530,2160 8586,2186 8659,2209C8755,2239 8768,2246 8820,2298C8864,2343 8880,2368 8895,2415C8912,2470 8912,2483 8900,2595C8880,2775 8885,2810 8935,2864C9010,2944 9017,3000 8969,3104C8946,3154 8939,3179 8944,3202C8956,3264 9075,3393 9142,3419C9160,3426 9183,3425 9221,3414C9341,3383 9400,3404 9458,3500C9476,3530 9516,3585 9548,3623C9616,3703 9639,3750 9640,3807C9640,3856 9625,3900 9608,3900C9602,3900 9558,3862 9511,3816C9427,3734 9360,3690 9321,3690C9310,3690 9269,3703 9228,3719C9104,3769 9095,3769 8980,3715L8879,3668L8797,3675C8572,3696 8514,3668 8423,3496C8403,3457 8365,3404 8339,3379C8305,3344 8291,3322 8288,3296C8282,3243 8301,3182 8342,3123C8397,3043 8406,3008 8384,2952C8361,2890 8300,2827 8240,2801C8195,2781 8187,2781 8156,2794C8115,2811 8100,2836 8100,2885C8100,2967 8046,3013 7950,3012C7905,3012 7830,3032 7830,3046C7830,3048 7853,3071 7881,3097C7910,3123 7941,3163 7951,3185C7972,3230 7976,3320 7959,3353C7950,3369 7950,3375 7960,3378C7967,3381 7999,3407 8031,3436C8069,3471 8103,3493 8132,3500C8219,3523 8240,3532 8264,3560C8286,3587 8310,3646 8324,3711C8327,3725 8352,3767 8380,3804C8444,3891 8453,3924 8438,4012C8422,4101 8436,4127 8531,4195C8570,4222 8627,4266 8657,4292C8687,4319 8716,4340 8721,4340C8726,4340 8757,4329 8790,4315C8884,4275 8930,4284 8974,4350C8989,4373 9028,4405 9072,4432C9175,4495 9205,4547 9184,4628C9176,4656 9153,4657 9145,4629C9134,4596 9081,4570 9025,4570C8958,4571 8911,4589 8827,4647L8757,4695L8631,4696C8562,4697 8487,4703 8465,4709C8379,4732 8290,4711 8215,4648C8199,4634 8153,4605 8114,4582C7984,4506 7958,4461 7946,4287C7938,4171 7921,4130 7881,4130C7855,4130 7848,4136 7826,4184C7812,4214 7800,4243 7800,4247C7800,4267 7736,4330 7697,4349C7646,4374 7607,4376 7390,4366C7286,4361 7214,4353 7196,4344C7159,4326 7141,4326 7134,4345C7130,4354 7153,4388 7197,4437C7313,4567 7360,4636 7360,4681C7360,4723 7322,4779 7301,4766C7295,4762 7276,4732 7260,4700C7244,4668 7218,4632 7203,4620C7177,4600 7169,4598 7100,4605C6883,4628 6822,4593 6811,4443C6806,4383 6799,4357 6781,4332C6750,4288 6744,4233 6764,4174C6787,4107 6784,4078 6750,4013C6728,3970 6716,3927 6705,3846C6691,3741 6675,3699 6641,3674C6629,3664 6618,3670 6584,3705C6537,3753 6501,3767 6395,3776C6299,3784 6268,3795 6213,3841C6166,3881 6164,3881 6095,3878C6021,3875 6002,3866 5886,3784C5860,3765 5830,3750 5820,3750C5811,3750 5776,3776 5743,3808C5695,3855 5675,3868 5641,3874C5526,3892 5399,3821 5370,3722C5341,3623 5349,3540 5386,3540C5394,3540 5416,3556 5434,3575C5475,3618 5491,3619 5525,3578C5549,3549 5552,3540 5548,3484C5543,3406 5501,3339 5417,3275C5327,3206 5255,3185 5123,3189C5091,3190 5090,3191 5090,3233C5090,3300 5054,3426 5015,3496C4965,3585 4913,3650 4787,3777L4677,3888L4716,3912C4826,3981 4902,3986 5041,3936C5168,3891 5208,3885 5272,3904C5335,3922 5381,3966 5433,4055C5512,4191 5557,4210 5707,4169C5775,4150 5793,4148 5848,4158C5927,4171 6004,4210 6008,4239C6011,4261 6007,4263 5955,4275C5938,4279 5906,4302 5880,4330C5796,4419 5728,4440 5630,4405C5591,4391 5589,4391 5601,4407C5621,4431 5690,4460 5728,4460C5786,4460 5824,4436 5859,4379C5877,4349 5902,4317 5913,4308C5944,4283 5995,4286 6050,4316C6093,4339 6102,4341 6133,4331C6180,4315 6214,4325 6244,4365C6261,4387 6287,4404 6320,4415C6375,4433 6404,4464 6422,4521C6428,4543 6438,4564 6444,4569C6450,4574 6494,4580 6542,4581C6640,4585 6662,4596 6718,4670C6756,4719 6749,4743 6700,4733C6669,4727 6619,4752 6584,4791L6565,4813L6600,4806C6619,4802 6682,4797 6740,4794C6864,4788 6882,4796 6951,4882C7005,4951 7021,4989 7022,5058C7025,5166 7000,5186 6940,5125C6903,5087 6892,5084 6844,5102C6817,5112 6806,5110 6771,5092C6723,5067 6701,5065 6675,5083C6649,5103 6661,5139 6710,5188C6762,5240 6801,5257 6891,5270C7047,5292 7096,5325 7125,5424C7140,5475 7141,5494 7130,5580C7116,5698 7125,5737 7175,5776C7204,5798 7223,5802 7318,5809C7475,5821 7500,5840 7500,5947C7500,6018 7491,6025 7453,5980C7436,5959 7419,5950 7398,5950C7364,5950 7330,5966 7330,5981C7330,6008 7295,6062 7269,6075C7229,6096 7183,6093 7115,6064C7024,6025 6970,6007 6963,6013C6955,6022 6998,6078 7023,6092C7035,6099 7069,6105 7098,6106C7139,6107 7164,6116 7218,6149C7290,6193 7320,6198 7360,6175C7393,6156 7465,6156 7526,6175C7585,6193 7611,6194 7643,6179C7679,6163 7693,6125 7680,6084C7674,6065 7671,6046 7675,6040C7686,6021 7727,6030 7767,6059C7819,6097 7845,6160 7836,6223L7829,6268L7872,6274C7928,6282 7956,6302 8060,6402C8107,6448 8162,6500 8183,6519C8235,6564 8250,6604 8257,6718C8264,6843 8253,6892 8186,7032C8134,7140 8129,7147 8080,7174C8003,7216 7996,7209 8004,7091C8017,6915 8013,6853 7988,6801C7961,6747 7922,6722 7850,6713L7799,6707L7752,6758C7684,6831 7613,6856 7546,6830C7509,6816 7513,6836 7550,6859C7567,6869 7627,6885 7683,6893C7826,6916 7855,6926 7899,6968C7949,7016 7964,7069 7955,7169C7947,7263 7957,7291 8012,7329C8097,7388 8113,7405 8138,7459C8174,7538 8179,7674 8151,7835C8130,7959 8121,8100 8133,8135C8137,8146 8160,8165 8184,8178C8231,8203 8255,8240 8265,8303C8270,8336 8277,8344 8308,8356C8379,8385 8393,8395 8411,8435C8432,8483 8423,8498 8382,8481C8357,8471 8348,8472 8309,8494C8253,8527 8193,8528 8159,8499C8117,8462 8075,8450 7982,8450C7869,8450 7815,8426 7785,8363C7774,8340 7763,8321 7760,8320C7757,8320 7739,8343 7720,8371C7679,8432 7683,8443 7762,8482C7852,8525 7870,8572 7830,8665C7796,8745 7804,8761 7887,8775C7979,8790 8012,8855 7987,8969C7978,9005 7962,9057 7951,9083C7924,9145 7903,9142 7870,9073C7831,8993 7813,8978 7760,8981C7671,8985 7661,8981 7610,8934C7563,8890 7561,8889 7503,8892L7445,8895L7519,8918C7567,8933 7603,8952 7619,8969C7653,9006 7704,9114 7697,9134C7692,9148 7686,9148 7652,9136C7618,9124 7602,9124 7539,9136C7455,9152 7425,9153 7390,9139ZM7555,9085C7631,9075 7633,9074 7619,9048C7596,9002 7565,8979 7501,8960C7418,8935 7394,8919 7380,8874C7365,8831 7377,8812 7408,8829C7419,8835 7450,8840 7477,8840C7565,8840 7598,8851 7640,8891C7678,8928 7683,8930 7748,8930C7826,8930 7869,8951 7896,9002L7914,9035L7926,8995C7943,8942 7943,8878 7927,8856C7920,8846 7892,8834 7864,8829C7803,8818 7768,8792 7756,8751C7749,8726 7752,8706 7775,8650C7807,8570 7805,8563 7731,8525C7621,8470 7619,8422 7722,8298C7771,8239 7795,8236 7805,8286C7822,8377 7854,8400 7967,8400C8076,8401 8125,8413 8170,8449C8191,8466 8217,8480 8227,8480C8237,8480 8272,8467 8304,8450C8352,8426 8360,8420 8344,8414C8334,8411 8302,8397 8273,8385C8226,8364 8221,8358 8215,8323C8203,8256 8199,8249 8150,8219C8122,8202 8097,8177 8090,8159C8072,8116 8076,7990 8099,7858C8137,7641 8135,7568 8089,7473C8072,7439 8054,7421 7998,7389C7903,7334 7889,7303 7893,7157C7895,7064 7893,7048 7874,7023C7845,6982 7783,6954 7678,6935C7627,6926 7568,6909 7547,6899C7494,6871 7450,6794 7478,6776C7483,6773 7509,6778 7536,6786C7612,6809 7643,6799 7715,6724C7776,6660 7777,6660 7832,6660C7937,6660 8000,6696 8038,6778C8062,6831 8063,6839 8057,6964C8053,7036 8047,7105 8044,7118C8040,7133 8042,7140 8052,7140C8080,7140 8118,7084 8164,6976C8209,6869 8210,6866 8210,6761C8209,6632 8195,6586 8143,6545C8122,6529 8065,6474 8015,6424C7920,6328 7922,6329 7795,6308C7779,6305 7776,6298 7778,6275C7787,6184 7784,6153 7766,6125L7746,6095L7738,6129C7712,6226 7628,6263 7520,6225C7465,6206 7429,6206 7371,6227C7310,6248 7266,6239 7198,6193C7159,6166 7129,6154 7086,6148C7012,6138 6991,6125 6940,6055C6895,5993 6892,5985 6919,5970C6954,5952 7013,5959 7080,5991C7195,6046 7218,6052 7250,6035C7265,6027 7280,6010 7284,5997C7287,5984 7301,5961 7314,5947C7334,5926 7348,5920 7382,5920C7406,5920 7436,5927 7448,5936C7476,5955 7483,5950 7475,5917C7461,5865 7438,5855 7306,5850C7171,5844 7137,5833 7098,5778C7076,5747 7075,5737 7075,5585C7075,5366 7069,5358 6880,5325C6829,5316 6771,5300 6751,5290C6702,5265 6636,5192 6620,5146C6590,5054 6680,4999 6778,5049C6811,5066 6819,5066 6840,5054C6875,5035 6900,5037 6938,5060C6956,5071 6972,5080 6975,5080C6977,5080 6976,5063 6973,5043C6966,4995 6929,4929 6877,4873L6837,4830L6731,4831C6673,4831 6590,4835 6547,4838C6491,4844 6463,4842 6445,4832C6407,4813 6415,4801 6464,4803C6504,4805 6513,4801 6563,4753C6593,4724 6630,4698 6644,4694C6679,4686 6677,4674 6638,4650C6613,4635 6587,4630 6528,4630C6419,4630 6406,4623 6379,4550C6356,4486 6352,4483 6264,4450C6246,4444 6220,4426 6205,4410C6179,4383 6178,4382 6139,4398C6101,4413 6099,4412 6035,4379C5958,4340 5951,4342 5903,4416C5848,4500 5761,4529 5659,4498C5578,4474 5498,4373 5530,4335C5540,4323 5551,4324 5607,4345C5722,4389 5779,4374 5855,4283C5869,4265 5890,4248 5900,4245C5934,4234 5922,4223 5863,4211C5812,4201 5796,4203 5705,4226C5620,4247 5597,4250 5564,4241C5483,4219 5452,4189 5368,4052C5304,3946 5240,3934 5058,3994C4999,4014 4936,4030 4917,4030C4829,4030 4694,3966 4631,3894C4614,3875 4599,3860 4596,3860C4594,3860 4582,3875 4571,3894C4546,3933 4543,3998 4564,4039C4579,4066 4628,4113 4666,4136C4698,4156 4668,4173 4603,4173C4534,4173 4476,4150 4384,4085C4348,4060 4315,4040 4310,4040C4304,4040 4300,4054 4300,4071C4300,4169 4410,4261 4629,4344C4752,4392 4810,4393 4851,4349C4867,4332 4880,4314 4880,4309C4880,4304 4891,4295 4904,4290C4945,4275 4990,4296 5060,4363C5096,4398 5153,4448 5187,4474C5256,4526 5293,4571 5288,4598C5283,4625 5236,4614 5143,4564C5034,4505 5013,4506 4945,4573C4852,4667 4789,4681 4682,4630C4622,4602 4620,4602 4631,4623C4674,4703 4828,4866 4895,4903C4931,4922 4956,4925 5150,4930C5342,4936 5371,4939 5425,4960C5552,5009 5611,5068 5667,5203C5704,5293 5771,5383 5810,5395C5821,5399 5830,5407 5830,5415C5830,5425 5807,5429 5738,5432C5618,5436 5594,5430 5510,5380C5467,5354 5423,5336 5397,5333C5359,5329 5350,5333 5306,5369C5280,5392 5248,5410 5236,5411C5180,5414 5152,5407 5112,5379C5089,5363 5067,5350 5065,5350C5055,5350 5091,5424 5116,5457C5150,5502 5233,5562 5300,5590C5343,5608 5382,5615 5480,5620C5654,5629 5681,5646 5795,5820C5829,5872 5872,5929 5890,5947C5951,6007 6119,6071 6172,6055C6185,6051 6210,6034 6228,6019C6268,5984 6299,5983 6366,6014C6417,6038 6483,6105 6517,6167C6537,6204 6529,6221 6503,6197C6472,6170 6376,6130 6340,6130C6252,6130 6259,6207 6356,6323C6369,6339 6380,6355 6380,6360C6380,6377 6280,6420 6239,6420C6189,6420 6149,6397 6059,6318C5950,6223 5919,6214 5815,6250C5736,6277 5710,6275 5661,6239C5620,6210 5618,6209 5625,6232C5636,6270 5680,6340 5718,6382C5765,6434 5809,6455 5906,6474C6083,6507 6117,6539 6161,6714C6190,6829 6218,6867 6295,6894C6352,6914 6355,6917 6360,6952C6366,6999 6420,7075 6465,7101C6527,7138 6507,7150 6384,7150C6302,7150 6299,7151 6290,7176C6283,7194 6275,7200 6262,7196C6253,7193 6233,7188 6217,7184C6180,7175 6155,7137 6140,7065C6122,6979 6109,6963 6042,6950C5959,6934 5935,6922 5888,6877L5847,6837L5854,6866C5858,6882 5877,6926 5896,6964C5916,7002 5943,7076 5956,7129C5982,7233 6000,7264 6048,7295C6088,7321 6089,7340 6050,7340C6008,7340 5973,7320 5925,7270C5887,7230 5787,7150 5775,7150C5772,7150 5783,7176 5800,7208C5817,7240 5837,7302 5845,7346C5862,7436 5880,7465 5936,7494C5987,7521 6099,7523 6149,7498C6188,7477 6195,7480 6205,7517C6226,7604 6293,7648 6417,7657C6501,7663 6520,7672 6603,7746C6661,7797 6664,7814 6612,7805C6587,7801 6554,7806 6510,7819C6474,7831 6428,7840 6408,7840C6387,7840 6370,7844 6370,7849C6370,7870 6461,7935 6558,7983C6614,8012 6658,8039 6656,8045C6654,8050 6644,8053 6634,8051C6624,8049 6559,8046 6490,8045C6335,8044 6318,8036 6251,7936C6208,7873 6106,7770 6096,7781C6094,7783 6096,7808 6101,7835C6106,7863 6114,7942 6119,8012C6127,8126 6131,8146 6157,8192C6193,8256 6236,8287 6298,8295C6373,8305 6428,8329 6454,8363C6467,8381 6490,8432 6505,8477C6540,8579 6569,8610 6641,8621C6669,8626 6709,8640 6729,8654C6774,8685 6809,8692 6857,8678L6895,8667L6844,8650C6766,8623 6750,8612 6734,8574C6689,8466 6813,8428 6943,8512C7033,8570 7062,8662 7020,8756C6994,8812 7002,8828 7073,8868C7102,8885 7134,8909 7143,8923C7152,8937 7173,8951 7190,8954C7206,8957 7235,8963 7253,8966C7275,8971 7304,8993 7347,9037L7410,9103L7457,9097C7484,9093 7528,9088 7555,9085ZM6290,8688C6290,8645 6258,8560 6243,8560C6238,8560 6226,8546 6216,8530C6201,8504 6199,8486 6205,8415L6212,8330L6169,8259C6124,8183 6101,8103 6100,8015C6100,7988 6093,7936 6085,7900C6068,7822 6066,7730 6081,7730C6104,7730 6224,7849 6271,7917C6298,7957 6328,7994 6338,7999C6366,8014 6446,8022 6491,8015L6533,8008L6477,7977C6415,7944 6358,7894 6329,7846C6295,7791 6310,7762 6354,7795C6365,7803 6387,7810 6403,7810C6445,7810 6571,7770 6564,7758C6561,7753 6540,7735 6518,7719C6485,7696 6467,7690 6425,7690C6314,7690 6215,7637 6188,7564C6177,7533 6172,7529 6150,7535C6049,7559 5962,7552 5902,7513C5851,7480 5824,7431 5815,7356C5810,7319 5795,7273 5775,7235C5757,7201 5741,7162 5740,7149C5736,7108 5740,7090 5751,7090C5764,7090 5830,7144 5922,7230L5991,7294L5966,7250C5953,7225 5936,7177 5930,7143C5923,7109 5896,7037 5869,6984C5829,6904 5820,6877 5820,6834C5820,6805 5824,6778 5830,6775C5835,6772 5865,6796 5896,6829C5952,6889 5977,6903 6059,6916C6122,6925 6155,6961 6169,7036C6183,7110 6199,7141 6230,7157C6251,7167 6257,7166 6277,7144C6299,7120 6304,7119 6377,7125L6455,7131L6424,7103C6378,7061 6338,7004 6331,6968C6325,6940 6318,6934 6275,6920C6185,6893 6158,6849 6110,6663C6098,6614 6060,6566 6018,6544C6002,6536 5948,6520 5898,6510C5755,6479 5690,6430 5621,6300C5587,6236 5570,6148 5589,6136C5596,6131 5622,6152 5653,6184C5684,6217 5714,6240 5726,6240C5738,6240 5773,6231 5805,6220C5923,6179 5960,6190 6096,6306C6162,6362 6213,6390 6247,6390C6257,6390 6280,6381 6297,6370L6330,6350L6290,6289C6260,6243 6250,6217 6250,6187C6250,6105 6322,6076 6418,6120C6470,6144 6472,6133 6421,6087C6371,6042 6351,6032 6305,6026C6276,6022 6263,6026 6246,6044C6216,6076 6187,6090 6148,6090C6070,6090 5942,6037 5874,5978C5854,5960 5804,5895 5763,5833C5716,5761 5675,5711 5652,5695C5606,5665 5538,5649 5484,5657C5430,5664 5305,5636 5243,5603C5133,5545 5064,5465 5034,5362C5011,5283 5025,5277 5100,5334C5185,5398 5228,5399 5297,5342C5359,5292 5413,5293 5507,5346C5602,5400 5627,5408 5693,5402L5751,5397L5727,5371C5700,5342 5690,5325 5626,5189C5574,5078 5530,5033 5441,4999C5356,4967 5276,4958 5155,4964C5030,4970 4939,4960 4884,4934C4800,4894 4642,4719 4592,4612C4558,4537 4572,4531 4657,4580C4776,4649 4823,4647 4909,4566C5006,4474 5036,4470 5147,4531C5188,4553 5226,4570 5232,4568C5238,4566 5217,4542 5184,4514C5152,4487 5101,4440 5071,4410C4962,4299 4926,4286 4888,4345C4859,4390 4797,4415 4737,4407C4687,4400 4521,4334 4446,4291C4349,4235 4272,4136 4277,4073C4279,4032 4281,4024 4289,4011C4297,3999 4313,4006 4374,4048C4470,4115 4545,4150 4593,4150L4631,4150L4595,4118C4508,4043 4494,3928 4562,3854C4574,3841 4580,3822 4578,3805C4573,3762 4597,3764 4620,3809C4631,3832 4644,3850 4649,3850C4662,3850 4843,3657 4894,3591C5020,3425 5055,3285 5020,3094C5013,3054 5009,2986 5012,2938C5016,2866 5022,2841 5053,2775C5074,2732 5111,2669 5135,2635L5179,2572L5135,2555C5098,2541 5089,2533 5080,2502C5075,2482 5070,2455 5070,2443C5070,2415 5071,2415 5019,2445C4965,2476 4961,2476 4917,2446L4881,2421L4870,2456C4854,2503 4813,2531 4690,2579C4557,2631 4441,2699 4384,2758C4297,2848 4245,2996 4233,3183C4230,3242 4223,3290 4219,3290C4195,3290 4187,3052 4208,2977C4214,2957 4217,2940 4215,2940C4213,2940 4163,2970 4103,3007C3916,3123 3762,3295 3675,3483C3605,3637 3579,3743 3535,4066C3516,4205 3489,4286 3440,4352C3362,4456 3257,4522 3141,4542C3082,4552 3060,4551 2988,4536C2896,4517 2807,4480 2773,4448C2753,4429 2750,4429 2744,4444C2729,4483 2723,4454 2728,4365C2736,4207 2700,4087 2610,3970L2568,3915L2574,3965C2588,4067 2593,4168 2586,4203C2582,4223 2568,4253 2554,4270C2532,4295 2521,4300 2483,4300C2445,4300 2433,4295 2403,4265L2368,4230L2334,4260C2315,4276 2294,4290 2289,4290C2261,4290 2348,4419 2403,4460C2467,4507 2511,4515 2565,4491C2590,4480 2613,4464 2616,4456C2627,4428 2649,4439 2656,4475C2665,4525 2653,4587 2628,4624C2616,4641 2603,4656 2599,4658C2596,4659 2584,4667 2574,4674C2557,4687 2557,4690 2585,4730C2647,4819 2832,4920 2936,4920C3081,4920 3262,4873 3400,4799C3595,4694 3701,4627 3694,4611C3687,4592 3674,4401 3678,4377C3680,4368 3686,4360 3691,4360C3696,4360 3700,4388 3700,4423C3700,4581 3791,4771 3913,4868C3961,4907 4042,4950 4065,4950C4074,4950 4084,4958 4088,4968C4092,4977 4148,5055 4212,5141C4549,5591 4750,5947 4835,6244C4910,6501 4938,6545 5126,6685C5342,6846 5381,6943 5350,7235C5336,7365 5350,7432 5409,7523C5476,7624 5509,7656 5561,7670C5692,7705 5723,7781 5684,7973C5675,8017 5670,8075 5673,8103C5677,8150 5682,8157 5752,8224C5794,8263 5845,8322 5868,8355C5919,8432 5955,8464 6005,8480C6079,8503 6101,8522 6130,8586C6146,8620 6169,8655 6182,8664C6240,8706 6276,8728 6283,8729C6287,8730 6290,8711 6290,8688ZM1706,7889C1703,7856 1693,7813 1684,7794C1674,7774 1670,7750 1674,7735C1677,7721 1683,7699 1686,7685C1694,7651 1678,7634 1619,7615C1564,7596 1550,7578 1550,7526C1550,7486 1568,7478 1591,7507C1603,7520 1659,7550 1673,7550C1675,7550 1677,7536 1678,7519C1678,7500 1691,7472 1710,7449C1726,7428 1743,7397 1746,7380C1750,7363 1756,7348 1759,7345C1763,7343 1787,7354 1812,7370C1866,7404 1900,7414 1918,7401C1930,7394 1929,7388 1917,7364C1894,7319 1877,7215 1883,7159C1887,7131 1901,7070 1916,7022C1948,6921 1953,6830 1928,6785C1919,6769 1875,6724 1829,6685C1724,6596 1705,6570 1706,6520C1708,6474 1745,6418 1791,6394C1838,6370 1852,6388 1844,6461C1838,6514 1840,6521 1863,6544C1880,6561 1900,6570 1920,6570C1944,6570 1950,6574 1950,6593C1950,6627 1985,6677 2022,6696C2060,6716 2240,6729 2240,6712C2240,6707 2225,6693 2206,6682C2153,6651 2137,6619 2142,6558C2146,6523 2143,6495 2133,6474C2102,6409 2170,6270 2234,6270C2248,6270 2280,6284 2304,6302C2338,6325 2363,6334 2405,6338C2435,6340 2460,6339 2460,6336C2460,6332 2448,6313 2433,6294C2414,6269 2405,6243 2402,6204C2396,6129 2419,6073 2480,6016C2507,5991 2526,5970 2522,5969C2503,5966 2455,5974 2355,5997C2199,6032 2109,6027 2006,5977C1914,5931 1847,5860 1791,5748L1752,5669L1740,5705C1726,5748 1712,5746 1687,5699C1674,5676 1670,5650 1673,5618C1675,5591 1674,5570 1671,5570C1661,5571 1617,5612 1592,5644C1570,5672 1569,5680 1576,5767C1583,5860 1582,5861 1556,5889C1537,5908 1527,5932 1523,5961C1516,6028 1501,6058 1464,6081C1431,6101 1413,6138 1419,6170C1420,6178 1432,6213 1446,6247C1474,6318 1475,6329 1457,6355C1444,6372 1440,6370 1399,6325C1315,6234 1304,6197 1335,6097C1351,6043 1353,6047 1267,5978L1232,5950L1195,6058C1175,6117 1157,6176 1157,6189C1154,6223 1182,6237 1220,6223C1285,6198 1300,6230 1300,6395C1300,6494 1296,6530 1281,6570C1261,6623 1203,6720 1191,6720C1188,6719 1170,6688 1152,6650C1122,6588 1119,6573 1122,6510C1125,6433 1118,6427 1082,6480C1031,6556 1029,6657 1075,6770C1097,6823 1101,6845 1097,6890C1091,6949 1076,7006 1060,7030C1044,7055 1016,7028 1005,6977C993,6922 985,6913 965,6930C934,6956 955,7023 1018,7102C1050,7142 1063,7171 1080,7237C1089,7273 1099,7284 1149,7314C1238,7368 1251,7417 1210,7538C1159,7689 1222,7759 1425,7774C1529,7782 1615,7822 1659,7882C1676,7905 1690,7930 1690,7937C1690,7944 1695,7950 1701,7950C1709,7950 1711,7932 1706,7889ZM836,7857C851,7771 843,7724 804,7654C742,7544 759,7457 845,7435C879,7427 885,7428 905,7453C918,7467 957,7493 992,7510C1031,7528 1062,7550 1070,7565C1080,7583 1086,7587 1092,7578C1106,7555 1100,7505 1075,7430C1057,7378 1050,7335 1050,7283C1050,7202 1035,7156 994,7107C959,7065 930,7002 930,6966C930,6930 955,6900 986,6900C1008,6900 1020,6922 1033,6985C1036,7002 1039,7001 1049,6975C1073,6917 1074,6848 1051,6795C990,6648 1000,6529 1081,6436C1144,6365 1154,6372 1146,6477C1140,6559 1141,6567 1167,6618L1194,6671L1212,6648C1257,6590 1271,6525 1268,6386L1265,6255L1215,6258C1118,6264 1108,6214 1172,6039C1224,5898 1251,5866 1263,5930C1267,5950 1282,5967 1309,5985C1368,6022 1374,6038 1354,6113C1332,6193 1339,6220 1395,6279C1447,6333 1451,6321 1415,6232C1379,6143 1382,6126 1438,6071C1481,6029 1488,6017 1493,5971C1497,5941 1506,5908 1515,5896C1565,5828 1563,5833 1553,5768C1540,5686 1552,5645 1604,5595C1647,5554 1696,5523 1705,5532C1708,5534 1705,5561 1699,5591C1690,5632 1691,5652 1700,5675L1713,5705L1725,5657C1735,5620 1736,5592 1728,5542C1712,5440 1723,5248 1749,5173C1760,5139 1770,5108 1770,5105C1770,5102 1753,5108 1733,5118C1712,5129 1625,5165 1540,5200C1262,5312 1150,5374 1086,5453C1040,5511 1032,5528 1020,5605C1000,5730 968,5769 857,5806C813,5820 763,5845 746,5860C718,5885 715,5894 716,5942C716,5971 729,6034 744,6081C777,6188 780,6270 752,6332C732,6378 685,6421 548,6521C467,6580 429,6635 422,6700C416,6763 432,6802 482,6844C520,6877 521,6879 511,6915C498,6964 514,7002 580,7082C645,7159 663,7195 664,7245C665,7297 643,7331 579,7374C520,7414 490,7453 490,7491C490,7536 528,7644 559,7687C583,7721 598,7730 642,7740C671,7747 707,7759 721,7766C760,7785 798,7835 806,7875C814,7919 826,7912 836,7857ZM3555,7231C3608,7207 3666,7141 3681,7088C3711,6977 3653,6826 3557,6765C3513,6737 3540,6728 3613,6747C3676,6764 3679,6764 3699,6746C3711,6735 3720,6722 3720,6717C3720,6711 3717,6709 3714,6713C3711,6716 3688,6712 3663,6705C3612,6689 3573,6655 3497,6561C3432,6480 3392,6461 3288,6460C3173,6460 3107,6423 3071,6340C3045,6280 3044,6254 3069,6240C3089,6230 3106,6237 3237,6311C3260,6324 3282,6332 3285,6328C3289,6324 3278,6304 3262,6283C3245,6262 3219,6219 3205,6187C3178,6131 3083,6030 3057,6030C3049,6030 3045,6048 3045,6077C3045,6121 3043,6125 3018,6128C2969,6134 2913,6034 2880,5879C2857,5774 2832,5728 2781,5696C2743,5673 2642,5627 2600,5615C2579,5608 2580,5612 2613,5642C2677,5703 2652,5775 2561,5787C2513,5794 2380,5774 2330,5753C2252,5721 2223,5665 2284,5663C2322,5662 2360,5645 2360,5628C2360,5609 2271,5530 2250,5530C2219,5530 2217,5549 2244,5589C2275,5634 2277,5650 2250,5650C2215,5650 2173,5622 2158,5590C2148,5566 2140,5560 2124,5564C2093,5572 2064,5546 2044,5493C2034,5466 2016,5428 2003,5408C1988,5383 1980,5355 1980,5325C1980,5250 2022,5170 2062,5170C2076,5170 2080,5178 2080,5205C2080,5265 2138,5355 2180,5360C2209,5364 2217,5360 2229,5334C2238,5312 2238,5298 2224,5258C2209,5213 2209,5207 2225,5184C2234,5171 2255,5157 2271,5153C2320,5143 2327,5114 2302,5021C2275,4923 2274,4865 2300,4764L2321,4685L2293,4630C2279,4600 2266,4574 2265,4572C2264,4571 2236,4587 2204,4609C2172,4631 2142,4645 2137,4641C2133,4637 2137,4614 2146,4589C2205,4426 2100,4169 1901,3990L1835,3930L1832,4115L1830,4300L1876,4422C1924,4550 1940,4580 1940,4542C1940,4530 1945,4520 1950,4520C1968,4520 1961,4599 1939,4645C1888,4753 1753,4805 1681,4745C1632,4703 1613,4606 1641,4538C1647,4522 1651,4507 1648,4505C1646,4503 1622,4511 1594,4524C1435,4598 1415,4799 1551,4953C1573,4979 1606,5004 1627,5011C1675,5027 1774,5017 1833,4990C1908,4957 1924,4986 1866,5050C1848,5071 1822,5114 1809,5146C1787,5200 1785,5219 1786,5370C1786,5521 1788,5542 1813,5615C1884,5830 2016,5950 2181,5950C2214,5950 2291,5939 2352,5925C2413,5911 2489,5900 2522,5900C2667,5900 2732,5990 2751,6219C2769,6434 2786,6478 2895,6577C2969,6646 3057,6692 3156,6716C3194,6726 3260,6742 3304,6753C3431,6785 3500,6853 3500,6945C3500,6997 3483,7029 3440,7058C3390,7092 3310,7086 3241,7042C3181,7005 3176,7015 3214,7095C3279,7232 3422,7289 3555,7231ZM4964,7043C4950,6986 4891,6871 4868,6857C4855,6848 4806,6839 4755,6835C4654,6827 4608,6812 4567,6772C4512,6720 4505,6697 4508,6560C4511,6321 4460,6245 4280,6225C4192,6215 4157,6197 4115,6139C4060,6063 3907,5996 3843,6021C3823,6028 3819,6036 3822,6062C3825,6091 3822,6095 3801,6095C3781,6095 3772,6083 3744,6016C3725,5972 3706,5932 3701,5927C3696,5922 3670,5914 3643,5909C3617,5904 3576,5886 3552,5870C3503,5835 3493,5834 3468,5857C3454,5869 3450,5888 3450,5937C3450,5992 3447,6004 3424,6027C3361,6090 3253,6012 3160,5836C3115,5749 3122,5666 3177,5641C3211,5625 3224,5627 3255,5651C3277,5669 3284,5671 3291,5659C3316,5620 3281,5528 3224,5485C3205,5470 3161,5447 3128,5434C3057,5406 3041,5394 2988,5323C2950,5270 2880,5224 2855,5234C2848,5236 2837,5256 2830,5277C2799,5373 2751,5410 2658,5410C2567,5410 2497,5354 2469,5259C2455,5213 2463,5176 2495,5144C2531,5109 2571,5112 2620,5156L2659,5192L2666,5166C2669,5151 2670,5111 2668,5077C2659,4936 2535,4769 2405,4723C2389,4717 2368,4709 2358,4705C2345,4700 2339,4711 2326,4769C2305,4861 2306,4928 2330,5020C2340,5061 2347,5106 2343,5120C2335,5155 2311,5180 2285,5180C2246,5180 2237,5202 2254,5258C2267,5303 2267,5311 2252,5341C2243,5359 2228,5378 2219,5383C2176,5409 2090,5343 2069,5267C2052,5209 2044,5203 2027,5237C1994,5300 1995,5335 2033,5413C2052,5453 2073,5498 2079,5514C2090,5540 2094,5542 2125,5537C2158,5532 2161,5534 2174,5565C2182,5583 2198,5603 2209,5609L2230,5621L2209,5586C2184,5544 2191,5513 2226,5504C2261,5495 2304,5516 2345,5561C2398,5621 2388,5663 2315,5687L2285,5697L2310,5713C2338,5730 2481,5760 2541,5760C2566,5760 2588,5752 2606,5736C2633,5713 2634,5712 2617,5686C2607,5672 2575,5646 2545,5629C2485,5596 2479,5585 2511,5575C2540,5565 2623,5587 2709,5626C2849,5690 2876,5725 2906,5875C2924,5969 2963,6062 2999,6094C3018,6111 3020,6111 3026,6096C3030,6086 3026,6061 3017,6039C3008,6017 3006,5998 3011,5995C3028,5984 3105,6027 3148,6071C3172,6095 3208,6147 3227,6185C3247,6224 3276,6270 3291,6288C3325,6327 3327,6336 3301,6350C3277,6362 3248,6352 3169,6304C3098,6261 3075,6259 3085,6298C3107,6385 3172,6430 3278,6431C3406,6432 3448,6456 3539,6577C3625,6691 3687,6718 3788,6684C3829,6670 3852,6654 3882,6618C3928,6563 3965,6555 3999,6592C4058,6654 4120,6667 4160,6625C4190,6593 4222,6596 4230,6630C4233,6644 4233,6679 4229,6709C4216,6806 4251,6854 4348,6869C4410,6879 4427,6892 4451,6947C4461,6970 4478,6993 4489,6999C4524,7018 4596,7011 4680,6980C4813,6931 4879,6944 4936,7030C4967,7077 4973,7080 4964,7043ZM2733,5340C2747,5329 2765,5299 2774,5273C2795,5211 2825,5180 2864,5180C2912,5181 2974,5214 3010,5259L3044,5300L3065,5280C3077,5268 3097,5227 3108,5187C3132,5104 3151,5082 3232,5047C3286,5023 3290,5019 3304,4969C3313,4940 3319,4915 3317,4914C3315,4912 3278,4922 3235,4936C3074,4988 2888,4977 2715,4906C2682,4893 2654,4883 2652,4885C2650,4887 2660,4906 2673,4928C2705,4977 2730,5061 2730,5116C2730,5188 2688,5280 2654,5280C2648,5280 2630,5260 2616,5235C2575,5166 2527,5152 2514,5206C2505,5239 2546,5318 2584,5341C2626,5367 2699,5366 2733,5340ZM2720,4864C2654,4827 2577,4757 2555,4716L2535,4679L2569,4653C2609,4622 2630,4576 2630,4520L2630,4479L2599,4502C2552,4537 2467,4534 2410,4496C2331,4444 2272,4362 2255,4280C2237,4189 2215,4136 2174,4080C2150,4047 2130,4017 2130,4012C2130,4008 2164,4004 2206,4002C2267,4000 2287,4003 2313,4019C2360,4048 2381,4091 2381,4157C2381,4208 2385,4217 2415,4247C2438,4270 2457,4280 2479,4280L2511,4280L2480,4242C2443,4196 2430,4153 2430,4079C2430,3997 2380,3903 2287,3808C2207,3726 2108,3653 1917,3535C1760,3437 1690,3376 1656,3308C1626,3248 1621,3172 1645,3126C1665,3088 1665,3088 1623,3105C1542,3139 1480,3226 1480,3305C1480,3359 1510,3422 1609,3577C1747,3794 1776,3873 1796,4080L1809,4215L1806,4048C1805,3955 1807,3880 1811,3880C1839,3880 2011,4049 2070,4135C2165,4273 2211,4451 2180,4559C2175,4578 2172,4596 2175,4598C2177,4601 2200,4586 2225,4566L2270,4529L2295,4587C2329,4663 2350,4684 2419,4710C2450,4721 2498,4749 2525,4770C2606,4834 2617,4841 2677,4866C2753,4897 2776,4896 2720,4864ZM3518,4834C3504,4820 3500,4820 3474,4834L3445,4849L3490,4850C3531,4850 3533,4849 3518,4834ZM8617,4655L8749,4655L8807,4614C8871,4569 8937,4540 8975,4540C9012,4540 9005,4526 8956,4502C8898,4473 8881,4474 8790,4515C8708,4552 8678,4556 8618,4540C8589,4532 8573,4533 8540,4546C8488,4567 8422,4559 8364,4525C8331,4506 8317,4489 8299,4445C8281,4401 8266,4384 8224,4356C8183,4329 8169,4312 8161,4284C8148,4237 8155,4226 8192,4234C8221,4240 8222,4239 8215,4212C8210,4197 8206,4165 8204,4140C8202,4101 8199,4095 8174,4087C8129,4072 8101,4041 8059,3957C8018,3876 7979,3840 7930,3840C7910,3840 7901,3849 7886,3886C7874,3914 7855,3939 7836,3951L7805,3970L7779,3938C7747,3900 7730,3907 7711,3969C7697,4016 7645,4065 7593,4080C7572,4086 7505,4093 7445,4097C7351,4102 7328,4100 7297,4085C7247,4062 7200,4006 7200,3971C7200,3935 7180,3918 7095,3886C6967,3838 6930,3802 6890,3687C6869,3628 6863,3545 6879,3536C6884,3532 6898,3546 6910,3565C6946,3624 6977,3642 7027,3634C7080,3626 7094,3636 7125,3706C7149,3761 7176,3782 7240,3795C7259,3799 7305,3817 7343,3836C7380,3855 7413,3870 7416,3870C7419,3870 7403,3849 7380,3823C7349,3787 7323,3770 7277,3753C7196,3724 7150,3674 7125,3588C7086,3457 7039,3394 6959,3368C6940,3362 6863,3358 6784,3359C6666,3361 6641,3359 6630,3345C6619,3332 6620,3325 6638,3300C6650,3284 6660,3268 6660,3265C6660,3262 6643,3260 6623,3260C6588,3260 6577,3268 6490,3359C6438,3413 6384,3464 6370,3471C6328,3492 6231,3487 6177,3461C6118,3433 6022,3346 6014,3315C6010,3299 5999,3290 5977,3286C5883,3268 5732,3168 5663,3078C5622,3025 5580,2950 5580,2930C5580,2903 5610,2926 5648,2984C5725,3102 5861,3200 5996,3235C6137,3271 6316,3245 6398,3174C6471,3112 6475,3099 6475,2899C6475,2742 6477,2720 6493,2702C6520,2672 6554,2670 6608,2695C6678,2728 6730,2790 6812,2940C6870,3045 6903,3067 7045,3094C7150,3115 7186,3132 7259,3195C7371,3291 7426,3301 7590,3256C7705,3225 7797,3222 7856,3249C7879,3259 7901,3273 7904,3279C7919,3302 7928,3289 7924,3253C7917,3197 7890,3162 7808,3102C7748,3058 7741,3048 7763,3031C7837,2969 7842,2967 7913,2960C8021,2950 8040,2935 8040,2864C8040,2797 8090,2737 8156,2724C8294,2698 8479,2889 8455,3031C8451,3052 8427,3103 8400,3143C8373,3184 8349,3232 8345,3252C8339,3284 8343,3292 8390,3346C8418,3378 8458,3436 8478,3474C8551,3613 8601,3640 8756,3622C8868,3609 8921,3619 9004,3665C9079,3707 9108,3708 9197,3674C9235,3659 9283,3644 9305,3640L9345,3633L9290,3607C9249,3587 9208,3578 9124,3570C8948,3554 8758,3481 8744,3424C8740,3410 8740,3379 8743,3355C8750,3308 8734,3280 8702,3280C8674,3280 8621,3242 8600,3208C8569,3158 8575,3111 8620,3025C8657,2956 8671,2894 8654,2877C8650,2874 8632,2882 8614,2896L8580,2922L8570,2894C8564,2879 8558,2845 8557,2819C8555,2780 8561,2764 8588,2726C8627,2669 8629,2628 8595,2577C8567,2537 8506,2500 8465,2500C8451,2500 8400,2520 8352,2544C8235,2603 8181,2608 8135,2563C8110,2537 8109,2532 8115,2473C8121,2414 8120,2411 8095,2394C8080,2384 8042,2376 8002,2373C7915,2367 7885,2386 7832,2477C7771,2581 7752,2595 7671,2595C7613,2595 7598,2591 7552,2561L7499,2527L7402,2534C7322,2539 7296,2537 7252,2521L7199,2503L7222,2527C7253,2560 7278,2569 7387,2586C7499,2603 7519,2611 7548,2655C7575,2698 7600,2700 7664,2664C7717,2634 7724,2635 7868,2677C7918,2692 7960,2710 7960,2716C7960,2731 7888,2762 7775,2794C7676,2823 7633,2826 7582,2808C7552,2797 7544,2798 7512,2818C7420,2875 7389,2884 7331,2872C7301,2865 7259,2849 7237,2834C7202,2811 7195,2809 7173,2821C7083,2869 6931,2772 6847,2612C6808,2539 6791,2467 6809,2456C6814,2452 6837,2458 6859,2470C6881,2481 6902,2490 6906,2490C6928,2490 6862,2331 6811,2263C6784,2226 6725,2182 6715,2192C6713,2194 6717,2214 6723,2237C6729,2260 6731,2282 6728,2285C6715,2298 6661,2273 6575,2215C6439,2122 6417,2113 6331,2119L6306,2120L6335,2150C6351,2166 6360,2183 6357,2187C6353,2191 6295,2202 6228,2212C6084,2233 6034,2258 5989,2328C5930,2421 5966,2497 6100,2565C6188,2609 6220,2638 6254,2700C6317,2815 6272,2964 6175,2964C6152,2964 6120,2949 6068,2915C6021,2884 5984,2866 5965,2866C5947,2866 5906,2883 5866,2908C5774,2964 5728,2965 5659,2915C5548,2833 5471,2831 5315,2909C5206,2963 5180,2969 5161,2946C5152,2935 5159,2928 5197,2909C5229,2893 5263,2862 5300,2817C5381,2716 5393,2711 5555,2723L5645,2730L5575,2716C5537,2708 5471,2694 5430,2685C5300,2656 5262,2673 5202,2782C5159,2861 5139,2884 5100,2895C5086,2899 5072,2908 5068,2914C5057,2930 5058,2991 5071,3069L5083,3138L5189,3142C5269,3145 5307,3152 5343,3168C5460,3220 5556,3323 5587,3429C5609,3506 5593,3577 5543,3621C5513,3647 5501,3651 5472,3646C5453,3643 5426,3630 5412,3618L5388,3595L5395,3640C5408,3720 5429,3757 5477,3790C5529,3824 5575,3835 5628,3827C5656,3822 5676,3809 5707,3774C5754,3722 5797,3690 5822,3690C5840,3690 5909,3733 5988,3792C6022,3817 6042,3825 6090,3828C6146,3832 6152,3830 6187,3800C6238,3755 6271,3743 6379,3731C6490,3719 6539,3697 6562,3651C6588,3600 6593,3597 6636,3615C6716,3648 6741,3696 6760,3854C6768,3917 6780,3959 6801,4003C6835,4068 6836,4119 6809,4208C6796,4250 6796,4254 6828,4310C6854,4357 6860,4380 6860,4427C6860,4539 6921,4585 7039,4561C7114,4546 7180,4547 7214,4565C7230,4574 7245,4579 7247,4576C7249,4574 7210,4529 7160,4477C7058,4368 7051,4347 7099,4299C7133,4265 7152,4263 7211,4289C7256,4308 7407,4323 7576,4324C7648,4325 7661,4322 7699,4297C7732,4275 7749,4253 7772,4202C7812,4113 7834,4090 7880,4090C7928,4090 7967,4121 7979,4168C7984,4188 7991,4247 7994,4299C8001,4394 8017,4449 8048,4483C8057,4493 8094,4518 8130,4537C8166,4557 8210,4585 8229,4599C8312,4662 8339,4671 8415,4663C8454,4659 8544,4656 8617,4655ZM9154,4558C9144,4522 9121,4501 9047,4463C9006,4441 8965,4410 8944,4384C8925,4361 8902,4339 8893,4336C8885,4332 8853,4341 8823,4355C8790,4370 8749,4380 8724,4380C8685,4380 8673,4374 8622,4328C8590,4299 8533,4253 8495,4225C8399,4155 8384,4132 8388,4062C8397,3888 8399,3896 8354,3844C8306,3787 8285,3748 8275,3700C8263,3639 8231,3583 8202,3572C8187,3566 8149,3554 8116,3545C8072,3533 8045,3517 8006,3481C7917,3397 7898,3394 7803,3446C7733,3486 7738,3485 7593,3456C7500,3437 7466,3418 7434,3370C7419,3348 7400,3330 7391,3330C7360,3329 7294,3293 7234,3243C7154,3176 7132,3166 7018,3142C6880,3112 6838,3086 6783,2993C6755,2945 6752,2944 6660,2964C6624,2971 6580,2975 6562,2972C6531,2968 6530,2969 6530,3004C6530,3187 6379,3302 6138,3304C6084,3305 6040,3308 6040,3311C6040,3327 6159,3425 6198,3442C6252,3466 6317,3467 6365,3444C6385,3435 6431,3394 6468,3353C6546,3266 6596,3235 6646,3245C6685,3252 6688,3261 6660,3300C6646,3319 6643,3331 6651,3335C6657,3339 6712,3339 6773,3334C6936,3323 6986,3332 7050,3387C7097,3428 7119,3467 7149,3568C7176,3659 7215,3703 7290,3729C7330,3743 7358,3763 7400,3807C7430,3839 7464,3870 7475,3876C7486,3883 7491,3891 7487,3896C7470,3914 7408,3900 7346,3866C7311,3846 7259,3825 7231,3819C7165,3805 7127,3773 7096,3705L7072,3651L7018,3657C6968,3662 6962,3660 6931,3631L6897,3599L6903,3636C6913,3699 6959,3779 7002,3810C7024,3826 7070,3849 7106,3860C7191,3889 7230,3921 7230,3965C7230,4005 7279,4053 7336,4069C7392,4085 7563,4066 7620,4038C7658,4018 7668,4007 7687,3960C7701,3925 7719,3899 7737,3888C7765,3871 7765,3871 7788,3900C7801,3917 7816,3930 7821,3930C7836,3930 7870,3867 7870,3838C7870,3812 7873,3810 7912,3810C7935,3810 7973,3819 7996,3831C8034,3849 8044,3862 8084,3944C8126,4029 8134,4040 8177,4062C8221,4085 8225,4090 8222,4119C8221,4137 8226,4173 8233,4198C8251,4258 8246,4271 8209,4263C8193,4260 8180,4260 8180,4263C8180,4284 8200,4306 8246,4335C8288,4362 8305,4381 8327,4427C8364,4503 8419,4535 8495,4525C8543,4518 8586,4517 8680,4521C8714,4523 8739,4516 8784,4492C8873,4444 8906,4447 9042,4520C9104,4552 9156,4579 9158,4580C9160,4580 9158,4570 9154,4558ZM3225,4485C3338,4435 3442,4319 3474,4205C3483,4176 3502,4076 3516,3983C3544,3797 3576,3659 3615,3557C3717,3285 3895,3081 4157,2934C4229,2893 4258,2866 4219,2874C4206,2877 4135,2891 4061,2906C3935,2930 3761,2984 3659,3029C3566,3071 3428,3246 3364,3406C3310,3538 3297,3650 3307,3870C3320,4165 3314,4219 3251,4355C3216,4429 3184,4468 3124,4508C3094,4528 3164,4512 3225,4485ZM3045,4469C3102,4455 3163,4402 3185,4348C3205,4298 3215,4155 3203,4090L3194,4045L3136,4100C3104,4130 3047,4198 3010,4250C2941,4347 2908,4382 2856,4414C2823,4435 2829,4445 2886,4465C2934,4482 2987,4484 3045,4469ZM2317,4238C2351,4200 2362,4170 2356,4134C2345,4080 2287,4046 2236,4066C2215,4074 2226,4090 2252,4090C2283,4090 2320,4129 2320,4160C2320,4175 2311,4195 2300,4205C2280,4223 2272,4260 2288,4260C2293,4260 2306,4250 2317,4238ZM2557,4192C2562,4155 2541,3956 2504,3690C2496,3632 2479,3488 2465,3370C2441,3160 2423,3044 2414,3053C2411,3056 2416,3120 2424,3196C2447,3404 2460,3664 2460,3932C2460,4179 2462,4192 2503,4238C2521,4257 2526,4258 2538,4247C2545,4239 2554,4214 2557,4192ZM3284,3995C3271,3698 3274,3596 3299,3501C3335,3362 3422,3198 3494,3131C3508,3117 3520,3097 3520,3085C3520,3068 3540,3053 3618,3012C3742,2947 3911,2879 4020,2850C4067,2838 4111,2826 4118,2824C4125,2822 4130,2802 4130,2773C4131,2747 4135,2705 4140,2680C4144,2655 4146,2633 4144,2631C4142,2628 4118,2637 4091,2649C4034,2676 4005,2668 3988,2619L3978,2589L3940,2630C3898,2676 3888,2678 3842,2650C3802,2625 3800,2625 3800,2651C3800,2706 3783,2715 3588,2764C3363,2820 3297,2868 3218,3035C3187,3102 3185,3110 3185,3220C3185,3286 3190,3343 3197,3354C3207,3372 3209,3371 3225,3339C3272,3248 3378,3144 3401,3167C3408,3174 3396,3194 3365,3231C3311,3294 3258,3399 3234,3490C3208,3587 3212,3759 3244,3955C3258,4043 3270,4142 3271,4175C3272,4229 3273,4232 3282,4205C3288,4186 3288,4107 3284,3995ZM2298,4166C2302,4134 2285,4110 2259,4110C2241,4110 2240,4112 2255,4140C2263,4156 2270,4176 2270,4185C2270,4212 2295,4196 2298,4166ZM2264,4040L2295,4033L2258,4025C2209,4016 2183,4024 2200,4045C2207,4053 2217,4057 2223,4053C2229,4050 2247,4044 2264,4040ZM2423,3808C2418,3657 2418,3654 2383,3585C2340,3501 2302,3443 2242,3372C2197,3318 2094,3233 2085,3242C2082,3245 2101,3282 2126,3324C2183,3418 2218,3526 2227,3629C2233,3704 2233,3706 2285,3761C2335,3813 2399,3905 2413,3943C2416,3952 2421,3960 2424,3960C2426,3960 2426,3891 2423,3808ZM9576,3742C9567,3725 9535,3683 9505,3648C9474,3614 9436,3561 9420,3533C9379,3461 9353,3446 9287,3454C9128,3474 9135,3474 9088,3442C9023,3397 8932,3297 8909,3245C8886,3193 8889,3166 8926,3086C8962,3009 8958,2971 8909,2913C8835,2829 8825,2771 8850,2596C8857,2548 8860,2488 8856,2464C8845,2384 8795,2312 8725,2277C8673,2251 8565,2222 8540,2226C8522,2230 8492,2215 8427,2170C8319,2096 8290,2093 8184,2144C8059,2204 8043,2202 7959,2124C7913,2082 7861,2060 7806,2060C7771,2060 7740,2035 7740,2006C7740,1965 7777,1922 7821,1910C7870,1897 7861,1876 7808,1877C7645,1880 7495,1892 7471,1905C7418,1932 7370,2009 7370,2068C7370,2092 7330,2159 7309,2171C7288,2182 7229,2179 7170,2165C7149,2160 7143,2163 7133,2189C7122,2218 7119,2220 7083,2214C7005,2202 6966,2160 6904,2021C6854,1910 6821,1864 6781,1849C6768,1844 6724,1835 6684,1829C6644,1824 6585,1809 6553,1796C6370,1722 6317,1735 6036,1930C5835,2069 5801,2111 5792,2230C5788,2286 5792,2306 5819,2375C5863,2484 5869,2546 5840,2582C5795,2639 5725,2635 5603,2568C5505,2514 5418,2506 5317,2539C5251,2561 5250,2562 5185,2658C5116,2761 5063,2872 5081,2879C5103,2886 5146,2841 5186,2769C5237,2676 5270,2654 5355,2657C5388,2657 5452,2667 5497,2679C5542,2691 5592,2700 5609,2700C5625,2700 5651,2705 5666,2710C5687,2719 5691,2723 5681,2733C5673,2741 5628,2745 5542,2745C5458,2745 5407,2749 5393,2758C5381,2764 5350,2797 5325,2830L5279,2889L5349,2860C5388,2843 5439,2827 5463,2824C5522,2816 5604,2841 5671,2887C5741,2935 5774,2933 5860,2877C5946,2821 5988,2821 6068,2877C6158,2940 6165,2943 6199,2926C6230,2910 6260,2849 6260,2802C6260,2764 6218,2680 6184,2649C6168,2635 6122,2605 6081,2584C5954,2517 5910,2443 5947,2359C5997,2247 6071,2204 6248,2184C6314,2177 6325,2166 6285,2148C6203,2111 6345,2067 6443,2099C6463,2106 6513,2135 6553,2163C6696,2266 6711,2271 6679,2209C6666,2183 6662,2164 6668,2158C6686,2140 6760,2170 6806,2212C6866,2267 6934,2403 6934,2468C6935,2514 6934,2515 6905,2514C6889,2514 6867,2510 6858,2506C6830,2493 6836,2524 6876,2600C6944,2729 7058,2820 7135,2806C7153,2802 7173,2793 7180,2785C7190,2773 7197,2774 7224,2795C7309,2860 7380,2866 7465,2815C7540,2770 7561,2765 7599,2784C7624,2797 7638,2798 7677,2790C7754,2773 7900,2727 7900,2720C7900,2711 7762,2670 7730,2670C7716,2670 7684,2681 7658,2695C7595,2729 7577,2727 7538,2681C7495,2631 7477,2623 7400,2615C7296,2604 7238,2585 7204,2548C7175,2518 7150,2479 7150,2466C7150,2454 7188,2461 7245,2485C7300,2508 7313,2509 7410,2504L7515,2498L7565,2530C7592,2548 7632,2565 7652,2568C7716,2576 7746,2556 7796,2469C7821,2426 7855,2380 7872,2369C7931,2327 8067,2332 8121,2377C8151,2403 8152,2405 8145,2465C8139,2525 8140,2529 8166,2549C8181,2560 8203,2570 8215,2570C8228,2570 8283,2548 8338,2520C8394,2492 8452,2470 8470,2470C8529,2470 8598,2518 8631,2582C8660,2638 8655,2677 8615,2734C8579,2784 8570,2830 8590,2860C8599,2873 8604,2871 8621,2850L8642,2825L8666,2853C8700,2893 8696,2931 8650,3030C8628,3077 8610,3127 8610,3141C8610,3179 8646,3220 8705,3245C8776,3277 8783,3288 8775,3358C8767,3429 8774,3437 8891,3486C8985,3526 9027,3536 9153,3550C9207,3555 9262,3569 9293,3583C9351,3610 9484,3711 9545,3775C9583,3815 9585,3816 9588,3794C9590,3782 9584,3758 9576,3742ZM2396,3295C2387,3164 2378,3055 2375,3052C2372,3049 2370,3058 2370,3072C2370,3085 2356,3162 2340,3242L2310,3387L2355,3454C2380,3491 2400,3526 2400,3532C2400,3538 2402,3541 2405,3538C2408,3535 2404,3426 2396,3295ZM7790,3399C7818,3382 7859,3366 7882,3362L7924,3357L7885,3323C7814,3262 7732,3257 7591,3305C7550,3319 7506,3330 7493,3330C7464,3330 7464,3341 7494,3369C7510,3384 7547,3397 7606,3410C7727,3435 7733,3434 7790,3399ZM6673,2928C6704,2921 6730,2911 6730,2904C6730,2871 6641,2766 6590,2740C6532,2710 6520,2725 6520,2823C6520,2868 6524,2910 6528,2916C6541,2935 6575,2950 6595,2945C6606,2942 6641,2935 6673,2928ZM3936,2557C3959,2529 4011,2538 4028,2573C4035,2588 4046,2600 4051,2600C4071,2600 4100,2579 4100,2565C4100,2535 3973,2470 3815,2420C3740,2396 3579,2309 3535,2269C3470,2209 3469,2181 3534,2166C3566,2158 3617,2125 3637,2100C3672,2056 3637,2000 3574,2000C3548,2000 3537,2007 3519,2036C3488,2087 3424,2115 3340,2114C3232,2113 3195,2084 3128,1945C3085,1855 3085,1855 3087,1750C3089,1629 3079,1600 3030,1600C2956,1600 2934,1684 2964,1857C2982,1957 2996,1980 3072,2031C3128,2069 3137,2080 3124,2092C3115,2102 3007,2051 2978,2023C2946,1992 2885,1869 2863,1789C2849,1737 2849,1728 2864,1684C2886,1618 2885,1609 2845,1570C2812,1538 2810,1537 2786,1554C2757,1572 2720,1638 2720,1669C2720,1680 2736,1731 2754,1782C2773,1833 2797,1907 2806,1945C2826,2029 2843,2050 2912,2074C2989,2101 3060,2141 3060,2157C3060,2165 3057,2170 3053,2168C3048,2166 3023,2153 2995,2139C2968,2124 2921,2105 2892,2095C2811,2069 2797,2050 2756,1920C2720,1803 2700,1759 2700,1791C2700,1800 2708,1831 2719,1861C2729,1891 2740,1933 2744,1955C2762,2065 2803,2101 2975,2165C3114,2217 3178,2251 3225,2300C3273,2349 3293,2361 3414,2405C3550,2455 3718,2527 3750,2550C3765,2561 3787,2570 3797,2570C3808,2570 3832,2581 3851,2595L3885,2621L3903,2598C3913,2585 3928,2567 3936,2557ZM5170,2469C5170,2438 5158,2405 5126,2346C5029,2168 4890,1834 4890,1781C4890,1749 4923,1723 4973,1716C5027,1708 5048,1687 5058,1629C5068,1568 5063,1542 5034,1523C5002,1502 4960,1518 4960,1551C4960,1581 4932,1610 4905,1610C4854,1610 4804,1528 4768,1388C4749,1311 4748,1298 4760,1199C4771,1106 4770,1086 4756,1037C4731,951 4677,925 4627,975C4594,1009 4589,1053 4611,1115C4627,1162 4628,1172 4615,1226C4599,1293 4606,1336 4644,1428C4673,1496 4686,1560 4672,1560C4667,1560 4660,1551 4657,1541C4655,1530 4633,1509 4610,1493C4526,1437 4501,1410 4495,1372C4491,1352 4478,1304 4465,1265C4452,1227 4439,1171 4435,1142C4427,1071 4422,1060 4394,1060C4359,1060 4324,1079 4309,1108C4287,1148 4296,1215 4339,1353C4380,1483 4388,1530 4370,1530C4365,1530 4360,1524 4360,1516C4360,1485 4281,1260 4270,1260C4258,1260 4220,1356 4220,1384C4220,1400 4234,1426 4255,1448C4274,1469 4304,1513 4323,1546C4354,1601 4360,1606 4415,1625C4462,1640 4489,1658 4538,1707C4572,1742 4617,1779 4638,1789C4715,1829 4730,1854 4800,2056C4874,2271 4920,2378 4945,2394C4967,2409 4971,2408 5020,2374C5050,2354 5080,2340 5093,2342C5112,2345 5116,2354 5123,2415C5134,2504 5136,2510 5155,2510C5166,2510 5170,2499 5170,2469ZM3650,1954C3650,1929 3552,1830 3528,1830C3525,1830 3531,1847 3541,1867C3551,1888 3560,1914 3560,1927C3560,1945 3567,1949 3598,1953C3618,1955 3638,1957 3643,1958C3647,1959 3650,1957 3650,1954ZM2897,1728C2894,1721 2892,1726 2892,1740C2892,1754 2894,1759 2897,1753C2899,1746 2899,1734 2897,1728ZM2966,1544C3021,1519 3023,1517 3002,1507C2980,1497 2870,1514 2870,1527C2870,1533 2901,1570 2905,1570C2907,1570 2934,1558 2966,1544ZM3115,1524C3125,1505 3142,1484 3152,1479C3182,1463 3173,1451 3139,1460C3091,1474 3063,1496 3058,1524C3053,1547 3057,1551 3090,1559C3093,1559 3104,1544 3115,1524ZM5100,1501C5100,1483 5090,1460 5074,1443L5049,1415L5056,1450C5061,1478 5088,1528 5098,1530C5099,1530 5100,1517 5100,1501ZM4392,1013C4396,1011 4403,995 4409,977C4414,959 4421,937 4425,927C4431,913 4429,911 4414,916C4378,929 4320,996 4320,1025C4320,1031 4378,1022 4392,1013ZM4698,899C4696,893 4690,889 4685,889C4680,889 4674,893 4672,899C4670,905 4676,910 4685,910C4694,910 4700,905 4698,899Z" style="fill:rgb(143,133,163);fill-rule:nonzero;"/>
        </g>
        <g transform="matrix(1.07221,0,0,1.07221,-368.133,-361.753)">
            <path d="M4350,3698C4316,3638 4266,3513 4255,3460C4245,3411 4262,3432 4290,3504C4303,3536 4335,3598 4362,3643C4388,3687 4410,3729 4410,3737C4410,3767 4378,3747 4350,3698Z" style="fill:rgb(143,133,163);fill-rule:nonzero;"/>
        </g>
        <g transform="matrix(1.07221,0,0,1.07221,-368.133,-361.753)">
            <path d="M2032,3927C2007,3900 2004,3890 2023,3890C2040,3890 2082,3934 2073,3943C2062,3954 2055,3951 2032,3927Z" style="fill:rgb(143,133,163);fill-rule:nonzero;"/>
        </g>
        <g transform="matrix(1.07221,0,0,1.07221,-368.133,-361.753)">
            <path d="M4472,1619C4442,1596 4421,1576 4424,1573C4432,1565 4540,1638 4540,1650C4540,1667 4527,1661 4472,1619Z" style="fill:rgb(143,133,163);fill-rule:nonzero;"/>
        </g>
    </g>
</svg>
