<?xml version="1.0" encoding="UTF-8" standalone="no"?>
<!DOCTYPE svg PUBLIC "-//W3C//DTD SVG 1.1//EN" "http://www.w3.org/Graphics/SVG/1.1/DTD/svg11.dtd">
<svg width="100%" height="100%" viewBox="0 0 512 467" version="1.1" xmlns="http://www.w3.org/2000/svg" xmlns:xlink="http://www.w3.org/1999/xlink" xml:space="preserve" xmlns:serif="http://www.serif.com/" style="fill-rule:evenodd;clip-rule:evenodd;stroke-linejoin:round;stroke-miterlimit:2;">
    <g transform="matrix(0.1,0,0,-0.1,0,467)">
        <path d="M2245,4620C2188,4595 2159,4560 2087,4430C1978,4233 1946,4180 1935,4180C1929,4180 1911,4201 1894,4227C1852,4294 1821,4330 1803,4330C1790,4330 1789,4318 1794,4258C1827,3847 1829,3871 1765,3844C1733,3830 1694,3796 1643,3737L1612,3700L1430,3700L1430,3991C1430,4291 1429,4302 1387,4348C1361,4377 1344,4376 1336,4346C1331,4325 1294,3947 1275,3715C1271,3663 1261,3623 1248,3600C1223,3556 1110,3424 1091,3416C1072,3407 1022,3443 905,3552C767,3681 714,3722 694,3718C685,3716 668,3703 657,3688L637,3661L675,3608C696,3579 752,3509 799,3452C922,3304 939,3280 934,3265C926,3244 871,3222 801,3211C727,3199 710,3188 710,3149C710,3128 721,3112 756,3083C875,2985 900,2958 900,2929C900,2913 896,2900 892,2900C838,2900 593,3009 510,3069C434,3125 417,3133 401,3117C382,3098 388,3079 467,2911C563,2705 565,2674 488,2578C467,2551 467,2549 483,2516C504,2470 535,2451 605,2440C670,2429 707,2409 719,2377C732,2345 722,2274 699,2223C676,2173 679,2141 710,2110C740,2080 761,2085 830,2141C901,2198 975,2238 987,2226C992,2221 984,2210 970,2201C923,2171 840,2088 809,2039C756,1956 742,1902 720,1702C695,1462 686,1422 649,1377C622,1344 614,1340 570,1340C532,1340 515,1346 491,1366C449,1401 450,1434 495,1474C514,1492 530,1509 530,1513C530,1527 472,1519 431,1500C385,1477 370,1450 370,1392C370,1289 468,1238 605,1270C685,1288 775,1428 790,1558C803,1666 830,1832 841,1874C870,1982 949,2100 984,2087C1007,2078 1005,1916 980,1766C965,1674 963,1637 970,1608C985,1556 1025,1512 1068,1501C1112,1490 1453,1479 1494,1487C1509,1490 1539,1509 1560,1529C1591,1559 1598,1574 1604,1620C1620,1742 1712,2068 1737,2087C1758,2103 1785,2088 1805,2050C1813,2034 1826,1972 1834,1912C1842,1852 1855,1777 1864,1744C1872,1710 1883,1591 1890,1465C1896,1344 1905,1216 1911,1181C1927,1079 1995,946 2075,862C2162,769 2267,691 2360,650C2428,619 2446,616 2551,612C2680,608 2755,621 2850,667C2922,701 3189,966 3244,1059C3334,1208 3408,1415 3460,1665C3504,1879 3591,2144 3624,2165C3646,2179 3652,2168 3662,2098C3667,2056 3686,2001 3720,1932C3764,1841 3770,1819 3780,1729C3785,1674 3793,1623 3797,1617C3800,1611 3807,1559 3812,1501C3816,1443 3823,1372 3826,1344C3833,1285 3829,1280 3747,1255C3640,1222 3361,1054 3207,930C3102,846 3058,795 3062,762C3065,737 3068,735 3113,737C3158,738 3162,736 3185,700C3198,679 3216,658 3224,653C3232,649 3250,619 3263,588C3296,515 3320,507 3391,544C3419,558 3444,570 3446,570C3448,570 3456,557 3465,540C3478,516 3478,503 3468,465C3451,403 3462,393 3532,409C3561,416 3604,425 3627,429C3650,433 3676,442 3684,449C3713,473 3730,455 3727,403L3725,355L3769,355C3812,355 3814,353 3823,320C3836,269 3847,260 3893,262L3934,265L3942,221C3957,137 3981,131 4049,195C4075,220 4102,240 4109,240C4122,240 4150,181 4150,152C4150,142 4159,125 4169,115C4188,99 4190,99 4214,125C4257,172 4313,388 4331,575C4342,700 4337,807 4315,925C4308,964 4299,1012 4295,1034C4288,1078 4245,1176 4229,1186C4210,1198 4229,1282 4264,1335C4308,1403 4320,1440 4330,1541C4336,1605 4346,1641 4367,1681C4393,1732 4395,1742 4394,1852C4393,1959 4391,1972 4366,2014C4340,2059 4333,2090 4349,2090C4353,2090 4374,2076 4395,2060C4416,2043 4449,2020 4467,2009C4497,1990 4503,1989 4516,2002C4528,2013 4529,2026 4521,2059C4508,2119 4516,2134 4571,2160C4668,2206 4681,2241 4630,2315C4583,2383 4588,2393 4681,2424C4733,2441 4811,2456 4895,2465C4973,2474 5010,2493 5010,2525C5010,2561 4918,2605 4825,2614C4741,2623 4495,2607 4353,2584C4298,2575 4241,2570 4228,2573C4194,2582 4123,2680 4101,2748C4091,2780 4067,2832 4047,2862C4001,2930 3883,3050 3836,3075C3816,3086 3800,3102 3800,3112C3800,3153 3856,3249 3945,3361C4024,3461 4040,3487 4040,3516C4040,3566 4017,3570 3949,3532C3887,3498 3853,3492 3844,3514C3837,3532 3876,3661 3906,3721C3918,3746 3947,3789 3969,3818C4015,3876 4018,3889 3990,3915C3972,3932 3926,3939 3914,3927C3904,3917 3921,3900 3941,3900C3978,3900 3974,3871 3931,3825C3885,3775 3859,3721 3829,3616C3801,3515 3805,3402 3835,3450C3838,3456 3849,3460 3859,3460C3869,3460 3905,3474 3939,3491C4037,3540 4034,3526 3910,3375C3862,3315 3813,3242 3789,3193C3768,3148 3746,3109 3742,3106C3738,3104 3714,3115 3690,3132C3647,3160 3641,3161 3560,3158C3459,3154 3398,3129 3305,3050C3273,3023 3242,3000 3238,3000C3234,3000 3230,3048 3230,3108C3230,3215 3247,3351 3276,3465C3294,3540 3411,3850 3421,3850C3429,3850 3441,3801 3470,3635C3491,3522 3505,3482 3519,3496C3522,3499 3523,3529 3522,3561L3518,3621L3611,3758C3745,3957 3800,4028 3863,4088C3917,4138 3951,4152 3966,4129C3969,4123 3949,4085 3921,4044C3853,3947 3793,3823 3808,3808C3816,3800 3827,3811 3849,3846C3866,3872 3880,3901 3880,3910C3880,3919 3907,3966 3940,4014C4018,4129 4020,4170 3946,4170C3914,4170 3841,4121 3790,4063C3765,4036 3691,3936 3625,3842C3560,3747 3503,3670 3500,3670C3496,3670 3485,3722 3475,3786C3447,3957 3426,3952 3342,3758C3261,3568 3229,3449 3205,3239C3199,3184 3197,3180 3141,3137C3110,3112 3035,3042 2975,2982C2915,2921 2862,2874 2858,2876C2853,2879 2843,2895 2834,2911C2819,2940 2820,2943 2850,2988C2885,3041 2885,3051 2840,3146C2798,3238 2797,3256 2824,3335C2845,3396 2855,3411 2907,3453C2977,3510 2999,3538 3000,3567C3000,3596 2974,3620 2944,3620C2930,3620 2917,3626 2914,3634C2906,3654 2986,3817 3079,3970C3142,4073 3160,4111 3158,4135C3156,4157 3149,4166 3133,4168C3113,4171 3112,4168 3116,4138C3121,4110 3110,4086 3037,3968C2937,3805 2857,3632 2856,3576C2855,3531 2874,3517 2884,3554C2891,3582 2934,3600 2952,3582C2969,3565 2950,3530 2908,3499C2869,3471 2863,3470 2760,3470C2662,3470 2652,3472 2633,3493C2579,3550 2510,3701 2510,3760C2510,3775 2520,3796 2534,3810L2559,3833L2594,3795C2616,3772 2635,3760 2644,3763C2692,3782 3089,4100 3098,4128C3108,4158 3066,4132 2943,4032C2750,3875 2653,3800 2642,3800C2637,3800 2620,3816 2606,3835C2574,3877 2561,3878 2519,3843L2487,3816L2471,3840C2449,3874 2413,3904 2387,3910C2355,3918 2355,3957 2385,4010C2468,4156 2476,4200 2419,4200C2400,4200 2382,4191 2367,4174C2325,4124 2319,4120 2284,4120C2236,4120 2227,4149 2233,4275C2237,4357 2245,4397 2279,4497C2302,4565 2320,4624 2320,4630C2320,4645 2290,4641 2245,4620ZM2249,4553C2249,4537 2240,4494 2229,4455C2202,4358 2188,4206 2201,4155C2216,4102 2247,4060 2272,4060C2297,4060 2346,4094 2382,4134C2426,4186 2425,4155 2379,4079C2355,4039 2328,3984 2319,3957C2300,3900 2279,3880 2239,3880C2196,3880 2058,3837 2009,3808C1985,3793 1941,3761 1912,3736C1882,3711 1855,3690 1851,3690C1846,3690 1843,3772 1843,3873C1843,3973 1839,4097 1835,4148C1831,4198 1832,4240 1836,4240C1841,4240 1855,4224 1867,4205C1880,4186 1904,4163 1921,4154C1960,4134 1963,4137 2026,4250C2142,4458 2167,4500 2200,4538C2241,4587 2250,4589 2249,4553ZM1381,3870C1375,3531 1376,3436 1387,3400C1394,3375 1397,3341 1394,3323C1389,3296 1392,3289 1416,3273C1467,3240 1514,3249 1625,3317C1680,3350 1793,3417 1875,3465C1958,3514 2057,3573 2096,3597C2235,3681 2206,3648 2001,3489C1915,3422 1816,3344 1780,3315C1744,3287 1650,3212 1570,3149C1290,2926 1296,2928 1175,3070C1149,3100 1104,3150 1076,3180C1047,3210 980,3289 927,3355C874,3421 799,3513 760,3559C692,3641 674,3680 705,3680C713,3680 776,3627 846,3563C916,3498 992,3429 1014,3410C1062,3368 1152,3310 1168,3310C1186,3310 1182,3295 1160,3275C1149,3265 1140,3250 1140,3241C1140,3211 1175,3128 1197,3103C1210,3090 1220,3076 1220,3072C1220,3052 1273,2990 1290,2990C1321,2990 1314,3014 1270,3056C1248,3078 1230,3102 1230,3111C1230,3120 1221,3148 1210,3173C1187,3225 1190,3240 1236,3292C1254,3312 1274,3346 1279,3367C1285,3388 1296,3502 1305,3620C1318,3797 1364,4302 1369,4320C1370,4323 1375,4318 1380,4310C1385,4300 1386,4121 1381,3870ZM2412,3860C2441,3838 2454,3808 2470,3731C2476,3701 2492,3651 2506,3620C2523,3581 2530,3551 2528,3520C2526,3485 2529,3475 2542,3472C2554,3470 2560,3477 2562,3497L2565,3525L2583,3492C2606,3450 2652,3430 2727,3430C2805,3430 2816,3421 2804,3374C2794,3332 2803,3338 2649,3270C2467,3190 2320,3093 2320,3054C2320,3031 2352,3038 2382,3067C2397,3082 2410,3089 2410,3083C2410,3061 2370,2979 2358,2976C2351,2974 2282,2955 2205,2935C2128,2915 2037,2887 2002,2873C1878,2822 1929,2864 2086,2943C2184,2991 2237,3026 2250,3049C2255,3060 2260,3116 2260,3174C2260,3286 2253,3305 2207,3314C2089,3338 2074,3344 2037,3380C2016,3402 2002,3424 2005,3431C2008,3439 2044,3472 2085,3504C2220,3611 2241,3640 2205,3670C2185,3687 2134,3667 2020,3600C1926,3545 1899,3539 1876,3572C1852,3606 1856,3616 1908,3672C1995,3766 2073,3805 2216,3829C2255,3836 2300,3850 2316,3861C2353,3885 2381,3885 2412,3860ZM1810,3735C1810,3689 1806,3648 1800,3645C1784,3635 1670,3683 1670,3700C1670,3739 1777,3839 1802,3824C1807,3821 1810,3781 1810,3735ZM1676,3640C1778,3605 1873,3547 1868,3522C1864,3502 1521,3300 1490,3300C1471,3300 1438,3384 1429,3454C1417,3549 1427,3658 1449,3663C1502,3678 1591,3668 1676,3640ZM1253,3473C1247,3385 1233,3340 1212,3340C1184,3340 1128,3379 1136,3393C1155,3425 1248,3540 1256,3540C1257,3540 1256,3510 1253,3473ZM2011,3354C2064,3310 2114,3284 2165,3274C2206,3267 2220,3256 2220,3231C2220,3214 2153,3221 2090,3245C2021,3271 1940,3336 1940,3365C1940,3400 1960,3396 2011,3354ZM1943,3298C1995,3248 2081,3202 2165,3180L2225,3165L2228,3123C2231,3075 2217,3040 2194,3040C2185,3040 2121,3011 2050,2975C1850,2873 1811,2817 1881,2729L1910,2692L1855,2624C1780,2531 1750,2466 1735,2367C1725,2298 1722,2290 1716,2315C1712,2332 1702,2366 1694,2391C1680,2434 1683,2470 1700,2470C1704,2470 1724,2500 1743,2538C1763,2575 1795,2621 1814,2639C1852,2676 1860,2700 1834,2700C1819,2700 1710,2603 1710,2589C1710,2574 1669,2487 1665,2492C1658,2499 1635,2593 1620,2675C1603,2766 1594,2789 1562,2823L1536,2850L1340,2850C1068,2850 1027,2845 990,2807C962,2778 959,2777 943,2792C926,2810 923,2842 935,2910C941,2951 939,2959 916,2987C902,3004 864,3036 833,3060C725,3139 717,3180 807,3180C835,3180 876,3190 911,3206C944,3221 974,3230 978,3226C985,3218 1021,2977 1023,2923C1023,2905 1026,2890 1030,2890C1033,2890 1056,2910 1080,2935C1132,2988 1154,2991 1232,2955C1301,2923 1325,2924 1393,2960C1424,2977 1453,2990 1457,2990C1462,2990 1492,2965 1525,2935C1558,2905 1588,2880 1591,2880C1594,2880 1608,2892 1623,2908C1658,2945 1716,3070 1739,3159C1750,3204 1767,3243 1781,3258C1809,3288 1880,3340 1891,3340C1896,3340 1919,3321 1943,3298ZM2796,3157C2820,3107 2840,3059 2840,3049C2840,3019 2671,2812 2538,2678C2493,2633 2480,2631 2480,2668C2480,2739 2541,2853 2627,2941C2660,2976 2673,2997 2677,3027C2684,3080 2670,3087 2618,3056C2568,3027 2430,2988 2430,3003C2430,3018 2486,3112 2511,3139C2537,3166 2729,3262 2743,3253C2748,3250 2772,3207 2796,3157ZM1710,3182C1710,3140 1614,2927 1597,2933C1580,2938 1577,2963 1585,3044C1592,3114 1592,3115 1643,3157C1701,3205 1710,3208 1710,3182ZM1080,3058C1080,3021 1076,2990 1070,2990C1059,2990 1043,3045 1034,3120L1027,3175L1054,3151C1077,3129 1080,3119 1080,3058ZM3190,3047C3190,2976 3200,2950 3226,2950C3233,2950 3270,2975 3309,3005C3416,3090 3467,3110 3572,3110C3655,3110 3661,3109 3694,3079C3737,3042 3803,2930 3818,2868C3837,2795 3833,2687 3809,2609C3792,2552 3780,2533 3742,2500C3690,2454 3657,2450 3652,2490C3650,2504 3640,2539 3628,2568L3607,2621L3629,2648C3718,2759 3726,2777 3716,2836C3703,2902 3623,2906 3513,2844L3451,2809L3411,2835C3296,2911 3068,2908 2932,2829C2894,2807 2875,2812 2890,2840C2916,2888 3157,3120 3181,3120C3186,3120 3190,3087 3190,3047ZM527,3019C598,2973 803,2880 833,2880C849,2880 871,2855 902,2803C912,2788 927,2765 936,2753C963,2715 943,2727 881,2784C814,2846 782,2864 726,2874C634,2891 430,3027 430,3072C430,3082 429,3083 527,3019ZM3915,2965C4001,2879 4033,2833 4067,2744C4090,2684 4094,2660 4094,2555C4095,2484 4089,2412 4081,2380C4067,2322 4027,2236 4011,2225C4000,2219 3980,2250 3980,2275C3980,2301 3913,2431 3870,2488L3830,2541L3844,2597C3863,2670 3873,2679 3909,2657C3971,2620 4015,2649 4004,2719C3993,2788 3904,2921 3859,2935C3845,2940 3780,3037 3780,3054C3780,3056 3795,3053 3812,3047C3830,3040 3876,3004 3915,2965ZM2640,3006C2640,2979 2577,2952 2490,2940C2443,2934 2392,2925 2375,2920C2257,2886 2159,2850 2061,2804C1998,2774 1939,2750 1930,2750C1913,2750 1883,2777 1891,2785C1916,2809 2223,2907 2345,2930C2367,2934 2398,2942 2413,2949C2429,2955 2451,2960 2463,2960C2480,2960 2545,2982 2638,3019C2639,3020 2640,3014 2640,3006ZM555,2912C577,2895 627,2871 665,2860C804,2817 819,2810 864,2759C927,2689 954,2629 958,2547L962,2478L940,2490C899,2512 718,2515 645,2495C566,2474 537,2480 520,2520C509,2547 510,2554 534,2589C568,2638 583,2693 575,2737C570,2767 525,2875 500,2922C486,2948 487,2965 503,2953C509,2948 533,2929 555,2912ZM2540,2904C2540,2901 2531,2885 2520,2870C2484,2819 2451,2736 2445,2680C2439,2630 2441,2620 2469,2577C2486,2551 2500,2523 2500,2514C2500,2489 2454,2480 2326,2480C2186,2480 2016,2454 1896,2415C1854,2401 1813,2390 1805,2390C1765,2390 1810,2501 1890,2600C1918,2636 1947,2676 1953,2688C1979,2744 2382,2908 2498,2909C2521,2910 2540,2907 2540,2904ZM2823,2857C2833,2837 2844,2793 2847,2760C2852,2710 2850,2700 2837,2700C2820,2700 2730,2800 2730,2819C2730,2838 2782,2901 2793,2897C2799,2895 2812,2877 2823,2857ZM3918,2830C3980,2726 3984,2669 3927,2684C3900,2690 3877,2740 3865,2815C3862,2837 3856,2863 3854,2873C3842,2913 3886,2884 3918,2830ZM3354,2830C3396,2814 3429,2791 3474,2746C3578,2645 3626,2514 3618,2360C3613,2277 3600,2236 3523,2060L3508,2025L3478,2059C3445,2096 3445,2092 3471,2327C3483,2435 3470,2485 3426,2496C3370,2510 3357,2499 3203,2321L3174,2288L3134,2308C3113,2319 3063,2331 3025,2335C2986,2339 2948,2346 2939,2351C2909,2366 2896,2439 2894,2602C2893,2737 2895,2761 2909,2774C2933,2796 3032,2839 3082,2850C3151,2865 3287,2855 3354,2830ZM3686,2823C3694,2791 3652,2710 3617,2690C3590,2675 3588,2676 3545,2722C3520,2748 3500,2775 3500,2782C3500,2798 3573,2841 3615,2850C3658,2859 3679,2851 3686,2823ZM1550,2780C1563,2762 1577,2716 1586,2663C1607,2546 1637,2424 1672,2315C1694,2249 1701,2212 1698,2175C1693,2115 1618,1830 1608,1830C1595,1830 1598,1849 1635,2024C1654,2116 1670,2205 1670,2223C1670,2276 1523,2714 1495,2744L1471,2770L1050,2770L1030,2738C1019,2720 1010,2695 1010,2683C1010,2670 1005,2660 999,2660C978,2660 995,2758 1020,2785L1043,2810L1529,2810L1550,2780ZM2751,2716C2781,2683 2812,2659 2830,2655C2867,2647 2874,2625 2866,2546C2854,2443 2822,2397 2705,2318C2605,2251 2459,2184 2434,2194C2425,2198 2420,2216 2420,2248C2420,2291 2415,2303 2379,2344C2356,2370 2340,2393 2342,2395C2345,2398 2371,2404 2401,2410C2443,2418 2464,2429 2497,2462C2544,2508 2549,2527 2524,2565C2508,2590 2508,2591 2596,2680C2644,2730 2688,2770 2693,2770C2697,2770 2724,2746 2751,2716ZM1104,2703C1094,2656 1090,2649 1080,2655C1069,2662 1066,2713 1077,2723C1094,2741 1110,2729 1104,2703ZM1368,2713C1373,2703 1380,2681 1383,2663C1390,2627 1380,2620 1324,2620C1255,2620 1239,2596 1221,2467C1214,2419 1202,2386 1180,2353C1144,2297 1125,2237 1110,2129C1096,2030 1092,1828 1103,1778C1111,1740 1111,1740 1077,1740C1059,1740 1038,1734 1031,1728C1020,1717 1019,1725 1025,1775C1029,1808 1035,1885 1039,1946C1044,2036 1049,2062 1064,2079C1080,2097 1082,2112 1078,2215C1074,2316 1071,2333 1052,2353C1030,2376 1030,2378 1046,2415C1056,2440 1061,2477 1059,2519C1056,2609 1057,2610 1084,2610C1119,2610 1140,2636 1140,2679C1140,2700 1143,2720 1147,2723C1150,2727 1200,2730 1256,2730C1344,2730 1361,2727 1368,2713ZM1460,2715C1469,2704 1470,2690 1464,2668C1447,2609 1420,2630 1420,2703C1420,2733 1440,2739 1460,2715ZM1019,2502C1020,2462 1016,2441 1010,2445C1005,2448 1000,2488 1001,2533C1002,2629 1017,2603 1019,2502ZM4216,2477C4278,2355 4304,2244 4303,2105C4303,1978 4293,1952 4225,1886C4172,1834 4095,1791 4081,1805C4074,1812 4074,1838 4081,1882C4093,1961 4082,2037 4046,2115C4020,2173 4019,2170 4074,2249C4100,2286 4106,2290 4135,2284C4162,2279 4171,2283 4193,2310C4225,2347 4222,2367 4179,2449C4163,2479 4148,2526 4144,2554C4139,2602 4140,2604 4155,2585C4164,2574 4192,2525 4216,2477ZM1430,2570C1438,2569 1459,2572 1476,2575C1516,2584 1527,2569 1562,2462C1598,2350 1598,2348 1554,2371C1519,2388 1517,2388 1465,2369C1417,2351 1404,2350 1346,2361C1310,2367 1276,2378 1269,2386C1253,2406 1263,2523 1285,2556C1300,2580 1305,2581 1358,2576C1389,2573 1422,2570 1430,2570ZM4902,2564C4948,2546 4977,2524 4968,2515C4965,2511 4915,2502 4859,2494C4753,2479 4685,2461 4617,2433C4559,2408 4556,2366 4607,2288C4621,2268 4630,2246 4628,2240C4626,2233 4593,2212 4555,2192L4485,2155L4485,2098C4485,2066 4482,2040 4478,2040C4474,2040 4442,2067 4408,2099L4344,2158L4332,2240C4326,2284 4307,2360 4290,2408C4273,2456 4256,2502 4254,2510C4250,2522 4265,2530 4322,2545C4413,2569 4502,2577 4702,2578C4827,2580 4868,2577 4902,2564ZM903,2458C962,2445 978,2423 986,2343L993,2283L934,2251C901,2234 849,2197 816,2169C784,2142 753,2121 747,2123C720,2132 715,2160 732,2207C741,2234 752,2286 756,2323C763,2390 762,2392 730,2425C684,2472 696,2483 784,2475C823,2472 877,2464 903,2458ZM3856,2448C3892,2404 3936,2307 3948,2241C3962,2162 3954,2157 3807,2162C3691,2165 3688,2166 3664,2193C3626,2237 3635,2259 3750,2409C3780,2448 3810,2480 3816,2480C3823,2480 3841,2465 3856,2448ZM3432,2370C3429,2247 3421,2185 3406,2165C3394,2149 3389,2151 3337,2193C3306,2218 3271,2244 3260,2250C3226,2268 3236,2304 3295,2374C3359,2449 3375,2461 3410,2457C3435,2455 3435,2454 3432,2370ZM2270,2440C2270,2435 2261,2426 2250,2420C2202,2394 2207,2256 2259,2193C2288,2157 2289,2155 2274,2130C2252,2096 2208,2050 2198,2050C2193,2050 2157,2076 2118,2107C2031,2176 1928,2230 1838,2255C1762,2275 1751,2294 1794,2328C1829,2355 1964,2398 2100,2425C2228,2451 2270,2455 2270,2440ZM4159,2382C4175,2336 4171,2325 4142,2334C4117,2342 4111,2356 4118,2398C4124,2441 4140,2434 4159,2382ZM3700,2406C3700,2399 3693,2387 3685,2380C3673,2370 3670,2371 3670,2387C3670,2398 3673,2410 3677,2413C3688,2425 3700,2421 3700,2406ZM2880,2338C2880,2245 2871,2190 2855,2190C2843,2190 2788,2261 2777,2291C2770,2313 2847,2409 2873,2410C2877,2410 2880,2377 2880,2338ZM2336,2335C2355,2315 2372,2284 2376,2263C2382,2231 2379,2223 2356,2203C2334,2185 2326,2182 2311,2192C2285,2208 2268,2239 2259,2285C2242,2374 2278,2396 2336,2335ZM1381,2315C1415,2310 1435,2312 1458,2324C1518,2355 1558,2340 1610,2269C1634,2235 1637,2225 1629,2192C1624,2172 1616,2126 1610,2090C1596,2003 1572,1886 1555,1825C1536,1761 1499,1716 1471,1725C1460,1728 1437,1724 1421,1716C1386,1698 1265,1695 1209,1710C1180,1718 1169,1729 1154,1762C1138,1799 1135,1825 1138,1945C1139,2022 1145,2108 1151,2135C1175,2241 1201,2320 1215,2328C1230,2336 1274,2332 1381,2315ZM1040,2259C1040,2215 1036,2191 1030,2195C1012,2206 1018,2330 1037,2330C1039,2330 1040,2298 1040,2259ZM3055,2295C3196,2262 3312,2188 3410,2069C3445,2026 3478,1984 3482,1975C3488,1965 3479,1909 3455,1812C3435,1731 3414,1644 3408,1618C3401,1591 3394,1570 3391,1570C3388,1570 3368,1603 3347,1643L3309,1715L3329,1814C3355,1937 3355,1963 3330,2016C3306,2065 3283,2074 3223,2059C3183,2048 3158,2027 3041,1903C3033,1895 3014,1890 2992,1892C2959,1895 2955,1899 2939,1945C2925,1984 2921,2028 2920,2146C2920,2229 2923,2300 2927,2303C2937,2314 2990,2311 3055,2295ZM2772,2215C2796,2184 2827,2154 2843,2147C2869,2136 2870,2132 2870,2068C2870,1982 2861,1963 2794,1915C2716,1857 2559,1770 2534,1770C2514,1770 2512,1776 2508,1853C2503,1944 2485,1989 2419,2076C2397,2104 2380,2129 2380,2133C2380,2136 2406,2144 2438,2150C2505,2164 2611,2207 2666,2243C2687,2257 2710,2269 2717,2269C2723,2270 2748,2245 2772,2215ZM1925,2183C1961,2168 2035,2122 2088,2083C2141,2043 2189,2010 2195,2010C2200,2010 2230,2036 2262,2067L2320,2124L2363,2076C2386,2049 2417,2004 2432,1976C2457,1931 2460,1914 2460,1834L2460,1743L2403,1727C2315,1704 2118,1685 2094,1698C2081,1705 2070,1727 2062,1769C2040,1874 1990,2023 1964,2064C1924,2123 1858,2191 1825,2207L1795,2221L1827,2216C1845,2213 1889,2198 1925,2183ZM1820,2164C1935,2093 1981,1984 2076,1555C2113,1388 2133,1339 2184,1292C2233,1247 2273,1235 2351,1242C2416,1249 2459,1288 2467,1348C2474,1401 2466,1431 2434,1470C2404,1505 2409,1523 2441,1494C2480,1458 2503,1401 2497,1347C2492,1290 2468,1254 2417,1227C2326,1180 2240,1196 2163,1275C2104,1336 2093,1366 2040,1600C1973,1902 1951,1958 1868,2051C1850,2071 1816,2099 1792,2114C1747,2142 1734,2160 1744,2185C1750,2202 1768,2197 1820,2164ZM929,2090C834,1995 803,1911 771,1650C751,1490 732,1410 731,1480C730,1499 739,1596 750,1695C766,1828 778,1891 797,1940C824,2009 884,2090 939,2133C997,2179 991,2153 929,2090ZM4020,2085C4041,2042 4045,2021 4045,1940C4045,1875 4040,1835 4030,1815C4016,1788 4010,1785 3960,1782C3913,1780 3897,1784 3851,1812C3800,1843 3794,1851 3752,1945C3728,2000 3705,2063 3703,2085L3698,2125L3808,2122C3875,2120 3926,2122 3937,2129C3971,2149 3994,2137 4020,2085ZM3288,2018C3303,2003 3303,1927 3290,1840C3274,1742 3277,1744 3206,1798C3171,1825 3128,1853 3111,1861C3094,1869 3080,1880 3080,1885C3080,1902 3141,1970 3183,2001C3225,2031 3268,2038 3288,2018ZM1898,1956C1921,1922 1980,1756 1980,1725C1980,1696 1919,1714 1901,1749C1892,1765 1860,1942 1860,1975C1860,1999 1873,1992 1898,1956ZM2914,1908C2923,1871 2921,1770 2910,1749C2893,1719 2874,1726 2835,1776C2790,1836 2790,1860 2837,1899C2881,1936 2905,1938 2914,1908ZM4301,1827C4288,1814 4260,1826 4260,1846C4260,1855 4270,1876 4283,1893L4305,1925L4308,1881C4310,1857 4307,1833 4301,1827ZM3076,1843C3098,1835 3092,1820 3064,1810C3049,1804 3025,1790 3009,1779C2993,1768 2976,1762 2970,1765C2958,1772 2956,1843 2967,1854C2975,1861 3048,1854 3076,1843ZM4356,1778C4352,1749 4340,1711 4330,1694C4307,1657 4180,1549 4168,1556C4164,1559 4160,1590 4160,1626C4160,1662 4153,1707 4145,1727C4127,1770 4136,1787 4185,1796C4208,1800 4228,1797 4248,1785C4285,1763 4322,1771 4340,1805C4360,1842 4363,1836 4356,1778ZM2781,1778C2821,1720 2863,1680 2886,1680C2899,1680 2911,1676 2914,1671C2921,1660 2886,1504 2864,1444C2831,1355 2750,1248 2628,1132L2593,1099L2603,1335L2549,1420C2491,1513 2421,1608 2396,1629C2387,1636 2380,1648 2380,1655C2380,1669 2458,1700 2494,1701C2506,1701 2562,1725 2620,1755C2678,1785 2733,1809 2742,1809C2751,1810 2769,1795 2781,1778ZM1592,1748C1582,1726 1581,1727 1581,1760C1580,1786 1583,1791 1592,1782C1600,1774 1600,1765 1592,1748ZM3116,1772C3140,1756 3153,1712 3153,1645C3153,1567 3133,1433 3120,1425C3115,1422 3107,1441 3101,1468C3088,1529 3058,1600 3022,1653C3006,1676 2990,1700 2987,1707C2983,1713 2997,1731 3022,1749C3063,1779 3094,1787 3116,1772ZM3243,1711C3264,1686 3299,1628 3322,1582C3361,1503 3363,1496 3357,1434C3349,1347 3247,1121 3166,1009C3112,934 3083,909 3110,960C3117,973 3126,1048 3131,1129C3141,1291 3152,1368 3175,1450C3200,1538 3206,1687 3186,1734C3177,1755 3170,1774 3170,1776C3170,1787 3210,1752 3243,1711ZM3985,1744C4035,1744 4080,1742 4087,1741C4103,1740 4120,1676 4120,1617C4120,1579 4115,1564 4095,1545C4074,1523 4062,1520 3998,1520C3908,1520 3872,1539 3842,1603C3820,1651 3804,1739 3813,1764C3818,1778 3824,1777 3857,1763C3882,1752 3926,1746 3985,1744ZM1094,1681C1110,1650 1107,1640 1079,1640C1057,1640 1044,1676 1060,1695C1076,1715 1077,1714 1094,1681ZM1480,1657C1480,1637 1479,1637 1464,1652C1455,1661 1451,1673 1455,1679C1465,1695 1480,1682 1480,1657ZM1576,1648C1566,1597 1537,1546 1510,1532C1476,1514 1085,1519 1053,1538C1026,1553 997,1604 1002,1628C1004,1640 1012,1634 1027,1608C1044,1579 1057,1570 1087,1564C1136,1555 1482,1575 1508,1589C1519,1595 1535,1618 1544,1640C1563,1689 1585,1694 1576,1648ZM1983,1661C1987,1656 2009,1582 2030,1496C2052,1410 2075,1330 2081,1318C2099,1284 2172,1210 2202,1194C2243,1173 2338,1166 2390,1180C2443,1194 2515,1261 2525,1305C2538,1363 2542,1367 2556,1335C2572,1299 2573,1202 2559,1141C2543,1072 2515,1041 2431,1003C2366,973 2341,967 2258,963C2167,957 2159,959 2098,987C2017,1025 1973,1071 1955,1135C1942,1181 1910,1536 1910,1638L1910,1682L1943,1675C1960,1671 1979,1665 1983,1661ZM1408,1648C1437,1624 1419,1613 1338,1607C1292,1603 1229,1600 1196,1600C1140,1600 1138,1601 1144,1623C1147,1635 1150,1651 1150,1659C1150,1670 1172,1671 1273,1665C1340,1661 1401,1653 1408,1648ZM2355,1619C2380,1596 2400,1574 2400,1569C2400,1564 2387,1560 2370,1560C2332,1560 2329,1530 2363,1503C2405,1470 2440,1408 2440,1367C2440,1337 2433,1321 2409,1298C2381,1269 2376,1268 2319,1273C2238,1280 2201,1304 2168,1370C2140,1426 2105,1547 2098,1610L2095,1645L2145,1651C2173,1654 2221,1658 2253,1658C2307,1660 2313,1658 2355,1619ZM3011,1594C3041,1545 3052,1372 3026,1351C3012,1339 3003,1344 2959,1388C2918,1430 2909,1444 2914,1462C2918,1475 2927,1512 2936,1545C2944,1578 2953,1611 2955,1618C2963,1641 2988,1630 3011,1594ZM4280,1468C4264,1384 4238,1345 4176,1310C4103,1268 4099,1270 4106,1334C4111,1374 4108,1400 4096,1431C4087,1454 4081,1475 4084,1477C4098,1492 4169,1491 4192,1476C4225,1455 4243,1463 4264,1507C4288,1557 4295,1541 4280,1468ZM3873,1505C3883,1498 3923,1486 3961,1479C3999,1472 4035,1461 4041,1454C4073,1415 4069,1297 4035,1284C4012,1275 3924,1309 3895,1338C3860,1373 3840,1423 3840,1476C3840,1523 3845,1527 3873,1505ZM461,1346C477,1332 509,1316 531,1310C587,1295 573,1287 505,1295C458,1301 445,1307 425,1335C398,1370 393,1409 413,1443C424,1463 425,1461 428,1418C430,1380 437,1366 461,1346ZM2964,1333C3009,1295 3044,1291 3062,1320C3069,1331 3078,1340 3081,1340C3093,1340 3100,1163 3091,1085C3079,986 3058,921 3014,853C2982,802 2877,710 2853,710C2844,710 2840,726 2840,755C2840,780 2834,816 2826,834C2810,873 2735,932 2630,989L2560,1027L2638,1092C2714,1156 2815,1271 2867,1353C2894,1396 2887,1397 2964,1333ZM3960,1264C4027,1236 4112,1227 4159,1244C4181,1252 4182,1250 4176,1224C4168,1188 4063,970 4011,881C3921,728 3723,507 3665,495C3649,492 3607,476 3573,460C3480,416 3480,428 3581,590C3662,723 3677,749 3727,845C3778,946 3831,1107 3851,1224C3866,1311 3857,1308 3960,1264ZM3808,1211C3812,1185 3794,1160 3771,1160C3706,1159 3382,985 3212,859C3154,816 3104,783 3101,785C3087,800 3245,925 3430,1046C3541,1119 3778,1242 3795,1237C3800,1235 3806,1223 3808,1211ZM4229,1103C4239,1082 4258,1013 4270,950C4291,845 4292,817 4286,630C4283,517 4277,412 4273,395L4266,365L4260,395C4256,412 4255,481 4258,550C4263,700 4237,857 4190,959C4173,994 4160,1030 4160,1039C4160,1060 4193,1140 4202,1140C4206,1140 4218,1123 4229,1103ZM3790,1117C3790,1116 3779,1080 3765,1037C3730,931 3654,771 3590,669C3516,552 3515,552 3488,577C3449,611 3442,612 3388,581C3342,555 3333,553 3317,565C3307,572 3293,600 3286,627C3277,662 3267,678 3247,688C3233,695 3218,711 3214,723C3211,735 3199,755 3188,766L3169,787L3222,825C3305,884 3322,895 3396,941C3503,1008 3732,1119 3763,1120C3778,1120 3790,1119 3790,1117ZM2614,951C2648,935 2703,902 2737,877C2796,833 2799,829 2805,777C2817,681 2803,667 2672,649C2466,620 2291,687 2118,862C2016,964 2004,992 2079,955C2123,933 2140,930 2246,930C2355,931 2371,933 2435,960C2513,993 2524,992 2614,951ZM4158,917C4204,795 4205,786 4205,485C4205,326 4201,186 4197,175C4190,158 4186,162 4169,204C4139,284 4111,290 4046,230C3996,184 3980,180 3980,215C3980,229 3973,257 3965,276C3950,312 3949,312 3906,306C3863,299 3862,299 3856,333C3847,379 3820,403 3786,394C3764,389 3760,391 3760,411C3760,424 3757,452 3754,472C3748,508 3750,512 3857,622C3959,728 4033,825 4090,928C4103,951 4119,970 4126,970C4133,970 4147,946 4158,917Z" style="fill:rgb(39,145,239);fill-rule:nonzero;"/>
        <path d="M2470,3478C2470,3462 2489,3440 2503,3440C2507,3440 2510,3450 2508,3462C2505,3487 2470,3501 2470,3478Z" style="fill:rgb(39,145,239);fill-rule:nonzero;"/>
        <path d="M2403,3424C2395,3404 2411,3376 2434,3372C2445,3369 2450,3376 2450,3392C2450,3432 2415,3455 2403,3424Z" style="fill:rgb(39,145,239);fill-rule:nonzero;"/>
        <path d="M1398,2924C1382,2916 1370,2902 1370,2894C1370,2881 1376,2879 1398,2885C1413,2888 1436,2893 1450,2895C1464,2897 1477,2899 1480,2900C1487,2901 1439,2940 1431,2940C1428,2939 1413,2932 1398,2924Z" style="fill:rgb(39,145,239);fill-rule:nonzero;"/>
    </g>
</svg>
