<?xml version="1.0" encoding="UTF-8" standalone="no"?>
<!DOCTYPE svg PUBLIC "-//W3C//DTD SVG 1.1//EN" "http://www.w3.org/Graphics/SVG/1.1/DTD/svg11.dtd">
<svg width="100%" height="100%" viewBox="0 0 719 717" version="1.1" xmlns="http://www.w3.org/2000/svg" xmlns:xlink="http://www.w3.org/1999/xlink" xml:space="preserve" xmlns:serif="http://www.serif.com/" style="fill-rule:evenodd;clip-rule:evenodd;stroke-linejoin:round;stroke-miterlimit:2;">
    <g transform="matrix(1.0363,0,0,1.0363,337.07,398.589)">
        <g id="line___pokemon_gengar_2014_by_darshan2good_d857a94-pre.svg" transform="matrix(1,0,0,1,-376,-531.5)">
            <g transform="matrix(0.1,0,0,-0.1,0,1063)">
                <path d="M1890,9047C1840,9022 1839,9010 1843,8660C1848,8327 1857,8168 1891,7810C1934,7359 1943,7250 1937,7244C1932,7238 1799,7316 1657,7407C1516,7498 1370,7577 1287,7606C1265,7614 1208,7644 1161,7674C1070,7731 991,7770 966,7770C911,7770 885,7721 895,7635L901,7572L838,7565C752,7555 670,7526 643,7495C603,7449 617,7391 677,7350C697,7336 718,7320 724,7315C730,7309 752,7292 772,7276C793,7260 810,7241 810,7234C810,7226 785,7193 755,7160C725,7127 700,7091 700,7081C700,7036 722,7012 794,6980C975,6900 948,6923 1029,6785C1042,6763 1090,6671 1136,6580C1182,6489 1235,6390 1255,6360C1296,6298 1350,6185 1350,6162C1350,6153 1337,6107 1321,6060C1280,5940 1264,5881 1241,5755C1192,5487 1183,5279 1211,5020C1229,4848 1230,4856 1164,4750C1051,4569 1020,4469 1013,4248C1008,4112 1009,4096 1034,4010C1078,3855 1123,3777 1225,3675C1278,3622 1343,3568 1383,3545C1446,3509 1454,3500 1475,3448C1506,3371 1587,3263 1639,3228C1669,3208 1720,3204 1737,3221C1746,3230 1757,3224 1782,3200C1821,3161 1867,3140 1913,3140C1957,3140 1978,3164 1982,3220C1985,3258 1988,3265 2005,3262C2016,3261 2046,3257 2071,3254C2111,3248 2121,3251 2140,3270C2161,3291 2162,3298 2156,3368C2148,3456 2143,3455 2256,3377C2338,3321 2601,3180 2624,3180C2631,3180 2660,3149 2689,3111C2717,3072 2786,2998 2842,2946C2947,2847 3036,2793 3132,2768C3178,2756 3181,2757 3217,2786C3245,2809 3261,2834 3277,2881C3290,2916 3314,2975 3331,3011L3363,3078L3419,3089C3481,3101 3470,3108 3556,3004C3594,2958 3665,2819 3711,2698C3752,2594 3774,2555 3823,2503C3901,2421 4075,2373 4202,2399C4283,2415 4376,2458 4448,2513C4479,2537 4526,2572 4552,2591C4577,2610 4622,2655 4651,2690C4681,2726 4711,2762 4720,2770C4738,2787 4752,2807 4816,2903C4894,3021 4946,3189 4961,3368C4972,3507 4951,3669 4905,3799C4890,3843 4890,3844 4918,3879C5001,3984 5171,4294 5293,4565C5310,4604 5325,4636 5326,4638C5326,4639 5412,4669 5516,4705C5768,4790 5878,4832 5978,4880C6024,4902 6064,4920 6067,4920C6074,4920 6178,4968 6315,5036C6376,5065 6436,5092 6450,5095C6467,5099 6503,5090 6553,5070C6681,5019 6712,5043 6715,5193C6717,5272 6720,5285 6736,5291C6931,5369 6973,5396 6973,5447C6973,5479 6935,5514 6849,5563L6792,5595L6811,5619C6836,5649 6835,5691 6810,5723C6786,5754 6697,5783 6543,5811C6435,5830 6388,5836 6080,5864C5788,5892 5616,5910 5582,5918L5550,5925L5577,5952C5593,5967 5641,6010 5685,6047C5729,6084 5792,6139 5826,6169C5879,6218 6053,6364 6184,6470C6375,6625 6431,6673 6551,6781C6694,6911 6939,7124 6974,7150C6986,7158 7025,7196 7063,7234C7119,7291 7130,7308 7130,7336C7130,7360 7123,7374 7107,7384C7053,7420 6776,7439 6245,7444C6139,7445 5777,7429 5767,7423C5756,7417 5129,7417 5123,7424C5120,7427 5137,7455 5161,7487C5247,7599 5259,7639 5220,7675C5203,7690 5190,7692 5128,7686C5007,7675 4878,7661 4823,7654C4766,7647 4761,7652 4783,7691C4795,7715 4802,7725 4865,7825C4882,7853 4902,7891 4910,7910C4918,7929 4943,7979 4966,8020C5031,8135 5034,8209 4976,8224C4898,8243 4260,8047 3987,7921C3938,7898 3894,7882 3889,7886C3884,7889 3866,7917 3850,7949C3802,8046 3735,8089 3680,8060C3670,8055 3647,8025 3630,7995C3613,7965 3595,7940 3590,7940C3586,7940 3529,7994 3464,8060C3335,8190 3309,8207 3267,8191C3233,8178 3224,8157 3209,8042C3200,7975 3193,7950 3184,7952C3176,7954 3077,8045 2963,8156C2691,8419 2552,8549 2449,8640C2403,8680 2336,8741 2300,8775C2168,8900 2129,8933 2038,8996C1987,9031 1938,9060 1930,9060C1922,9060 1904,9054 1890,9047ZM1971,8913C1979,8904 2010,8879 2040,8857C2099,8812 2174,8746 2290,8635C2331,8596 2448,8487 2550,8393C2652,8300 2760,8199 2790,8169C2883,8078 3134,7837 3181,7794C3249,7731 3259,7727 3346,7740C3436,7752 3440,7754 3440,7786C3440,7809 3438,7810 3364,7810L3287,7810L3294,7863C3298,7891 3304,7941 3307,7973C3310,8004 3315,8030 3318,8030C3321,8030 3358,7997 3399,7958C3441,7918 3486,7876 3500,7865C3514,7854 3546,7828 3572,7807C3628,7761 3673,7758 3678,7800C3682,7840 3711,7930 3720,7930C3734,7930 3748,7906 3759,7863C3766,7839 3775,7820 3781,7820C3786,7820 3797,7805 3805,7786C3825,7739 3850,7733 3903,7764C3927,7778 3971,7798 4001,7809C4031,7819 4071,7834 4090,7843C4160,7874 4256,7909 4315,7925C4348,7934 4387,7948 4402,7956C4416,7964 4438,7970 4450,7970C4462,7970 4484,7977 4498,7985C4538,8007 4880,8114 4880,8104C4880,8089 4798,7940 4790,7940C4784,7940 4780,7931 4780,7920C4780,7909 4773,7897 4765,7894C4757,7890 4750,7883 4750,7877C4750,7871 4742,7857 4732,7846C4722,7834 4707,7809 4700,7790C4680,7738 4632,7663 4615,7656C4607,7653 4600,7641 4600,7629C4600,7618 4592,7595 4583,7578C4566,7550 4566,7548 4585,7533C4608,7516 4726,7521 4865,7545C4989,7567 5070,7573 5070,7562C5070,7557 5054,7540 5035,7524C5016,7509 5000,7488 5000,7478C5000,7469 4973,7439 4940,7413C4878,7363 4862,7327 4898,7316C4928,7307 5623,7307 5890,7316C6030,7321 6298,7325 6485,7325C6793,7325 6831,7323 6888,7306C6922,7295 6950,7283 6950,7280C6950,7270 6833,7170 6743,7102C6698,7068 6615,6997 6558,6944C6390,6787 6289,6697 6225,6650C6192,6626 6104,6554 6029,6489C5954,6424 5857,6345 5814,6312C5771,6279 5715,6231 5690,6206C5635,6148 5522,6050 5511,6050C5506,6050 5497,6078 5490,6113C5468,6218 5441,6253 5410,6215C5399,6202 5400,6184 5414,6118C5439,6002 5449,5808 5438,5642C5428,5492 5431,5450 5454,5450C5488,5450 5505,5520 5516,5698C5523,5827 5513,5819 5638,5800C5725,5787 5987,5762 6167,5750C6341,5737 6600,5700 6653,5678C6679,5668 6680,5666 6664,5649C6652,5635 6643,5633 6629,5640C6601,5656 6560,5652 6553,5633C6542,5606 6624,5544 6710,5515C6787,5489 6830,5466 6830,5450C6830,5445 6814,5436 6794,5430C6732,5409 6632,5361 6624,5348C6619,5341 6617,5303 6619,5263C6620,5223 6619,5186 6616,5182C6613,5177 6571,5182 6522,5193L6434,5212L6290,5142C6040,5020 5722,4884 5538,4822C5331,4751 5338,4749 5347,4874C5353,4952 5353,4952 5329,4948C5308,4945 5301,4931 5264,4810C5205,4618 5112,4406 5011,4235C4889,4029 4849,3964 4831,3941L4812,3917L4779,3948C4701,4021 4551,4071 4542,4028C4540,4016 4552,4004 4582,3989C4677,3941 4735,3885 4779,3800C4821,3721 4854,3602 4843,3573C4840,3565 4843,3547 4851,3534C4862,3513 4862,3483 4852,3367C4833,3149 4814,3092 4701,2924C4539,2682 4358,2540 4169,2505C4092,2491 4077,2491 4026,2504C3957,2522 3912,2548 3883,2588C3856,2625 3796,2744 3780,2795C3760,2855 3672,3017 3619,3090C3593,3126 3555,3166 3536,3179L3500,3202L3368,3185C3066,3147 3057,3147 2977,3176C2937,3190 2862,3215 2810,3230C2681,3269 2662,3276 2530,3342C2269,3473 2149,3560 1961,3760C1881,3845 1834,3887 1825,3883C1817,3880 1810,3873 1810,3866C1810,3844 1880,3754 1970,3661C2035,3593 2057,3564 2048,3558C2028,3546 1933,3520 1866,3508C1803,3497 1788,3487 1797,3462C1802,3450 1820,3448 1899,3453C1952,3456 2005,3462 2016,3465C2036,3471 2039,3467 2045,3420C2049,3392 2050,3367 2048,3365C2046,3363 2023,3372 1997,3386C1911,3429 1892,3417 1882,3313L1875,3245L1852,3270C1840,3284 1813,3314 1794,3338C1750,3389 1707,3396 1688,3355C1682,3341 1674,3330 1671,3330C1664,3331 1621,3399 1596,3447L1580,3479L1613,3482C1655,3486 1658,3520 1618,3531C1576,3542 1394,3665 1341,3718C1238,3821 1168,3935 1140,4046C1099,4208 1116,4400 1186,4575C1217,4652 1277,4740 1284,4719C1287,4711 1308,4649 1331,4580C1388,4410 1465,4298 1486,4354C1489,4362 1486,4378 1480,4391C1454,4439 1360,4732 1360,4765C1360,4783 1356,4802 1350,4805C1345,4808 1340,4832 1340,4858C1340,4885 1333,4933 1324,4965C1290,5088 1307,5605 1350,5805C1389,5983 1449,6144 1531,6292C1574,6369 1606,6438 1603,6446C1591,6477 1565,6451 1506,6353C1472,6296 1443,6250 1440,6250C1436,6250 1424,6267 1411,6288C1399,6308 1364,6366 1335,6415C1305,6465 1264,6539 1244,6580C1131,6814 1095,6883 1052,6945C1005,7013 1002,7016 917,7049C869,7068 830,7086 830,7090C830,7094 852,7120 880,7147C921,7188 930,7204 930,7232C930,7263 920,7276 840,7351L751,7435L783,7447C800,7453 861,7459 916,7459C994,7460 1020,7464 1030,7475C1040,7488 1040,7494 1027,7508C1012,7525 984,7637 993,7647C996,7649 1013,7643 1030,7633C1048,7623 1088,7600 1119,7583C1150,7565 1238,7520 1315,7482C1439,7421 1667,7289 1680,7271C1684,7264 1755,7220 1916,7122C1946,7104 1970,7082 1970,7073C1970,7064 1959,7028 1945,6993C1925,6944 1922,6926 1930,6910C1945,6881 1968,6885 1998,6923C2013,6940 2070,6999 2125,7054C2223,7150 2314,7219 2417,7275C2474,7305 2488,7326 2467,7347C2456,7358 2444,7356 2394,7334C2306,7294 2129,7185 2095,7150C2079,7134 2063,7120 2060,7120C2056,7120 2050,7175 2046,7242C2039,7378 2027,7526 2005,7730C1990,7870 1978,8016 1960,8280C1947,8484 1939,8930 1949,8930C1954,8930 1964,8923 1971,8913ZM2950,3120C3008,3110 3099,3099 3153,3095C3220,3090 3250,3084 3246,3076C3224,3029 3170,2888 3170,2880C3170,2863 3149,2869 3071,2907C3015,2935 2971,2969 2898,3038C2799,3134 2782,3158 2823,3146C2835,3142 2892,3131 2950,3120Z" style="fill:rgb(199,0,200);fill-rule:nonzero;"/>
                <path d="M2576,6774C2573,6765 2577,6734 2586,6705C2597,6664 2598,6646 2590,6630C2584,6619 2575,6610 2571,6610C2560,6610 2464,6493 2417,6423C2398,6394 2365,6328 2345,6275C2309,6181 2308,6178 2311,6062C2315,5951 2317,5940 2349,5876C2388,5801 2476,5711 2556,5666C2659,5609 2745,5586 2870,5584C2933,5583 2993,5579 3003,5575C3015,5570 3027,5573 3036,5582C3048,5594 3045,5610 3010,5705C2987,5766 2954,5849 2935,5890C2916,5931 2883,6021 2861,6090C2795,6298 2643,6745 2631,6768C2617,6794 2585,6797 2576,6774ZM2643,6513C2657,6479 2693,6372 2763,6149L2787,6072L2768,6024C2754,5988 2751,5962 2755,5925C2765,5849 2790,5830 2830,5870L2850,5890L2884,5816C2940,5693 2947,5670 2930,5660C2892,5636 2784,5651 2650,5698C2576,5725 2467,5820 2423,5898L2385,5965L2386,6075C2387,6171 2391,6195 2418,6268C2435,6313 2469,6379 2495,6415C2540,6479 2606,6550 2620,6550C2624,6550 2634,6533 2643,6513Z" style="fill:rgb(199,0,200);fill-rule:nonzero;"/>
                <path d="M4740,6183C4715,6169 4664,6139 4625,6116C4587,6094 4547,6072 4537,6068C4527,6064 4475,6035 4422,6004C4331,5950 4289,5924 4180,5855C4155,5839 4119,5817 4100,5807C4081,5796 4017,5753 3957,5711C3897,5669 3816,5615 3776,5590C3648,5511 3560,5441 3560,5421C3560,5397 3592,5385 3619,5399C3649,5415 3655,5413 3702,5369C3759,5315 3868,5264 3977,5240C4198,5191 4339,5232 4504,5393C4565,5454 4585,5482 4628,5570C4693,5707 4713,5802 4709,5962L4705,6080L4773,6126C4819,6157 4840,6177 4838,6188C4833,6214 4791,6212 4740,6183ZM4633,5993C4640,5932 4622,5771 4599,5695C4551,5541 4501,5466 4385,5380C4311,5325 4248,5303 4143,5296C4063,5291 4040,5294 3963,5316C3915,5330 3854,5353 3827,5368C3782,5392 3720,5446 3720,5460C3720,5463 3748,5483 3783,5504C3817,5524 3864,5555 3887,5571C3929,5600 3954,5603 3944,5576C3934,5550 3958,5510 3984,5510C4016,5510 4020,5518 4045,5615L4065,5695L4145,5742C4189,5768 4252,5808 4285,5830C4352,5876 4611,6030 4621,6030C4625,6030 4630,6013 4633,5993Z" style="fill:rgb(199,0,200);fill-rule:nonzero;"/>
                <path d="M1961,6031C1953,6017 1954,5994 1965,5947C1978,5890 1978,5870 1964,5769C1940,5589 1961,5334 2010,5200C2070,5038 2124,4963 2299,4796C2340,4757 2383,4715 2394,4704C2421,4677 2648,4535 2703,4511C2726,4501 2770,4481 2800,4467C2906,4419 2936,4408 3065,4373C3244,4325 3343,4310 3495,4308C3645,4306 3821,4334 3929,4377C4008,4408 4167,4499 4233,4552C4260,4573 4292,4593 4305,4596C4317,4599 4333,4614 4340,4628C4358,4667 4360,4670 4417,4746C4446,4784 4500,4866 4537,4929C4575,4992 4617,5052 4632,5063C4662,5085 4760,5204 4760,5219C4760,5224 4753,5231 4744,5234C4733,5238 4705,5220 4656,5177C4575,5105 4543,5085 4429,5036C4293,4977 4148,4950 3963,4949C3738,4948 3456,4980 3346,5020C3318,5030 3237,5054 3165,5074C2785,5180 2510,5327 2291,5543C2235,5599 2181,5658 2173,5673C2166,5688 2140,5731 2116,5768C2077,5830 2025,5943 2004,6014C1993,6050 1975,6058 1961,6031ZM2111,5650C2142,5609 2197,5546 2233,5510L2298,5444L2290,5400C2285,5375 2276,5342 2270,5325C2254,5285 2224,5170 2209,5093C2203,5058 2194,5030 2189,5030C2175,5030 2144,5082 2105,5170C2044,5307 2030,5375 2023,5556C2017,5725 2022,5768 2043,5740C2050,5731 2080,5691 2111,5650ZM2467,5307C2516,5272 2598,5221 2650,5194C2701,5167 2745,5139 2748,5131C2751,5123 2734,5051 2712,4971C2689,4891 2660,4783 2649,4733C2638,4682 2626,4640 2624,4640C2609,4640 2554,4676 2503,4718C2471,4744 2434,4774 2420,4783C2406,4793 2365,4830 2328,4867C2264,4930 2260,4936 2260,4979C2260,5050 2347,5370 2366,5370C2372,5370 2418,5341 2467,5307ZM2950,5066C2997,5048 3058,5027 3085,5020C3113,5013 3196,4990 3270,4970C3344,4949 3423,4928 3445,4923L3485,4914L3482,4870C3478,4822 3466,4763 3425,4585C3412,4525 3400,4461 3400,4444C3400,4394 3384,4388 3288,4400C3132,4419 2707,4560 2693,4597C2688,4609 2766,4932 2801,5046C2824,5120 2811,5119 2950,5066ZM4480,4962C4480,4952 4430,4881 4343,4766C4291,4698 4246,4652 4179,4600C4129,4561 4085,4531 4083,4534C4079,4538 4104,4666 4142,4833C4154,4888 4154,4888 4285,4915C4335,4925 4393,4941 4415,4951C4459,4970 4480,4974 4480,4962ZM3772,4880C3845,4874 3929,4873 3979,4878C4045,4885 4063,4884 4067,4873C4074,4856 4065,4794 4045,4710C4037,4674 4025,4614 4018,4575C4012,4537 4002,4499 3996,4491C3979,4469 3890,4431 3840,4425C3815,4421 3784,4414 3770,4409C3720,4390 3569,4372 3514,4377L3458,4383L3463,4419C3466,4439 3478,4496 3489,4545C3499,4595 3520,4689 3534,4755C3569,4914 3563,4904 3609,4896C3631,4893 3704,4885 3772,4880Z" style="fill:rgb(199,0,200);fill-rule:nonzero;"/>
                <path d="M4284,3056C4251,3032 4216,3003 4206,2991C4179,2961 4172,2964 4150,3014C4131,3059 4106,3080 4072,3080C4018,3080 3893,2881 3870,2761C3857,2693 3866,2640 3889,2640C3901,2640 3913,2665 3935,2738C3951,2791 3971,2851 3980,2870C4004,2925 4052,2991 4064,2987C4070,2986 4087,2960 4102,2930C4138,2854 4146,2847 4173,2861C4185,2868 4214,2892 4237,2916C4259,2940 4282,2960 4286,2960C4290,2960 4304,2969 4316,2981L4338,3001L4345,2964C4348,2944 4353,2907 4355,2884C4357,2860 4361,2836 4365,2830C4376,2812 4408,2819 4453,2850C4512,2890 4520,2889 4509,2843C4487,2753 4487,2751 4505,2744C4514,2740 4528,2744 4537,2753C4559,2774 4602,2909 4594,2932C4586,2958 4550,2963 4499,2945C4418,2915 4424,2914 4417,2969C4410,3030 4393,3068 4364,3087C4345,3099 4338,3097 4284,3056Z" style="fill:rgb(199,0,200);fill-rule:nonzero;"/>
            </g>
        </g>
    </g>
</svg>
