<?xml version="1.0" encoding="UTF-8" standalone="no"?>
<!DOCTYPE svg PUBLIC "-//W3C//DTD SVG 1.1//EN" "http://www.w3.org/Graphics/SVG/1.1/DTD/svg11.dtd">
<svg width="100%" height="100%" viewBox="0 0 623 700" version="1.1" xmlns="http://www.w3.org/2000/svg" xmlns:xlink="http://www.w3.org/1999/xlink" xml:space="preserve" xmlns:serif="http://www.serif.com/" style="fill-rule:evenodd;clip-rule:evenodd;stroke-linejoin:round;stroke-miterlimit:2;">
    <g transform="matrix(0.1,0,0,-0.1,0,700)">
        <path d="M4105,6779C4050,6731 3952,6604 3919,6539C3903,6506 3887,6460 3884,6437C3878,6397 3876,6394 3846,6394C3818,6394 3807,6404 3740,6494C3692,6557 3638,6615 3590,6653C3495,6729 3472,6740 3456,6717C3439,6694 3416,6513 3418,6410C3418,6363 3416,6317 3413,6306C3407,6286 3404,6286 3260,6310C3230,6315 3159,6319 3102,6319C3006,6320 2998,6318 2975,6295C2950,6271 2942,6226 2960,6215C2966,6212 2970,6200 2970,6189C2970,6172 2963,6170 2900,6170C2849,6170 2828,6166 2824,6156C2821,6148 2830,6107 2845,6064C2908,5871 2910,5864 2883,5856C2873,5853 2857,5838 2847,5823C2838,5807 2821,5781 2810,5764C2799,5748 2788,5718 2785,5699C2783,5680 2776,5649 2772,5629C2763,5596 2770,5487 2786,5400C2791,5371 2790,5367 2779,5378C2763,5392 2711,5394 2676,5380C2639,5366 2643,5331 2685,5276C2708,5245 2716,5228 2708,5226C2701,5224 2677,5217 2655,5211C2633,5205 2585,5176 2548,5146C2511,5116 2477,5090 2473,5089C2468,5087 2445,5055 2422,5018C2372,4939 2347,4850 2325,4685C2316,4619 2303,4547 2296,4525C2288,4503 2279,4456 2275,4421L2269,4357L2176,4266C2017,4109 1871,3914 1774,3731C1748,3680 1709,3630 1655,3575L1575,3494L1470,3468C1370,3443 1364,3442 1336,3458C1321,3467 1297,3495 1283,3520C1269,3545 1245,3586 1229,3612C1213,3639 1187,3688 1172,3722C1156,3757 1132,3797 1119,3811C1106,3825 1087,3852 1077,3871C1067,3890 1041,3927 1019,3953C987,3990 967,4003 923,4016C845,4039 709,4022 614,3978C429,3893 240,3729 175,3596C135,3516 123,3427 143,3373C159,3330 288,3191 468,3023C549,2948 616,2883 618,2879C623,2868 558,2740 548,2740C536,2740 470,2601 470,2577C470,2567 464,2547 456,2532C359,2343 342,1966 420,1737C431,1706 440,1675 440,1670C440,1652 522,1466 546,1430C559,1411 592,1364 620,1325C652,1281 669,1248 667,1235C664,1224 646,1161 625,1095C532,794 496,650 510,636C515,631 520,619 520,610C520,570 614,514 718,491C781,478 909,477 963,489C1029,505 1068,541 1191,703C1258,790 1319,864 1327,867C1336,871 1400,857 1469,837C1662,782 1692,779 2033,773L2350,767L2387,706C2451,599 2648,306 2685,263C2712,231 2729,221 2764,216C2859,201 3120,253 3230,308C3309,347 3313,367 3265,512C3228,622 3145,853 3060,1077C3011,1206 3012,1225 3068,1280C3100,1312 3119,1320 3199,1339C3250,1351 3353,1370 3428,1381C3569,1401 3583,1407 3605,1449C3624,1487 3634,1653 3621,1732C3605,1827 3600,2032 3611,2114C3615,2152 3629,2202 3640,2225C3682,2312 3950,2609 4019,2644C4112,2693 4246,2589 4308,2421C4370,2253 4380,2222 4380,2184C4380,2156 4386,2137 4400,2125C4411,2115 4420,2097 4420,2085C4420,2053 4452,1966 4493,1883C4519,1833 4546,1798 4584,1765L4639,1717L4604,1685C4572,1654 4570,1649 4570,1583C4570,1495 4583,1457 4631,1401C4652,1377 4668,1354 4665,1351C4658,1338 4719,1241 4746,1224C4768,1209 4794,1208 4988,1215C5107,1219 5239,1224 5280,1225C5367,1228 5503,1244 5517,1253C5534,1264 5560,1326 5560,1355C5560,1412 5528,1476 5487,1501C5466,1514 5440,1541 5429,1562C5419,1582 5407,1600 5403,1602C5381,1611 5322,1700 5316,1732C5312,1752 5264,1904 5210,2069C5155,2233 5110,2370 5110,2373C5110,2375 5147,2380 5193,2382C5260,2386 5286,2392 5337,2418C5371,2436 5406,2450 5414,2450C5423,2450 5458,2423 5493,2390C5529,2357 5567,2330 5578,2330C5629,2330 5744,2503 5804,2670C5819,2711 5836,2750 5841,2756C5848,2765 5878,2754 5959,2713C6075,2653 6093,2652 6122,2703C6155,2761 6120,3233 6049,3692C6033,3795 6012,3902 6001,3930C5991,3957 5984,3980 5987,3980C5989,3980 5983,3992 5972,4008C5961,4023 5921,4098 5882,4175C5825,4288 5798,4327 5748,4379C5713,4414 5666,4451 5643,4461C5621,4472 5562,4519 5513,4568C5434,4646 5369,4690 5298,4714C5264,4725 5279,4758 5344,4816C5387,4853 5417,4890 5434,4925C5452,4964 5470,4984 5502,5003C5556,5034 5629,5107 5636,5137C5642,5160 5609,5220 5549,5296C5515,5339 5513,5364 5540,5405C5551,5422 5560,5443 5560,5452C5560,5472 5498,5527 5417,5578L5358,5615L5364,5690C5367,5731 5371,5774 5374,5785C5377,5796 5384,5825 5390,5850C5396,5875 5405,5899 5411,5905C5416,5910 5420,5933 5420,5957C5420,5996 5416,6002 5383,6023C5330,6056 5288,6068 5193,6076L5112,6082L5129,6124C5171,6223 5165,6251 5096,6269C5071,6275 5042,6289 5032,6301C5007,6327 4998,6393 5006,6489C5010,6551 5008,6572 4993,6600C4965,6654 4918,6651 4767,6586C4745,6576 4731,6573 4734,6578C4741,6590 4621,6755 4590,6777C4557,6800 4508,6780 4440,6715C4410,6687 4369,6653 4349,6642L4313,6620L4266,6695C4222,6764 4176,6810 4151,6810C4145,6810 4125,6796 4105,6779ZM4184,6713C4225,6670 4310,6511 4310,6475C4310,6448 4306,6447 4160,6430C4071,6419 3988,6402 3947,6385C3931,6378 3930,6382 3936,6421C3949,6513 3966,6550 4040,6636C4059,6658 4088,6693 4103,6713C4118,6734 4135,6750 4139,6750C4144,6750 4164,6733 4184,6713ZM4649,6628L4699,6551L4651,6507C4625,6482 4594,6459 4582,6456C4553,6447 4484,6466 4468,6488C4461,6498 4433,6521 4406,6540L4356,6574L4411,6622C4441,6649 4488,6686 4515,6705C4574,6745 4572,6746 4649,6628ZM3581,6593C3659,6523 3740,6437 3740,6423C3740,6414 3730,6415 3699,6425C3639,6447 3582,6443 3522,6415C3492,6401 3466,6390 3464,6390C3461,6390 3462,6418 3465,6453C3483,6655 3480,6640 3505,6640C3518,6640 3550,6620 3581,6593ZM4939,6561C4963,6542 4964,6541 4952,6477C4936,6389 4937,6335 4955,6320C4977,6302 4974,6291 4945,6284C4909,6275 4914,6262 4958,6255C5032,6243 5079,6227 5096,6209C5112,6192 5108,6180 5020,5999C4916,5781 4905,5742 4941,5704C4954,5690 4977,5672 4993,5664C5018,5651 5020,5651 5020,5667C5020,5677 5003,5699 4983,5716L4946,5747L5015,5894C5053,5975 5088,6044 5093,6047C5111,6058 5108,6041 5080,5974C5049,5902 5042,5856 5061,5844C5076,5835 5086,5852 5110,5931C5121,5968 5137,6003 5145,6010C5155,6018 5184,6021 5234,6018C5300,6015 5311,6012 5334,5987C5365,5953 5366,5941 5339,5906C5317,5878 5310,5837 5307,5705C5305,5630 5304,5625 5282,5622C5247,5617 5260,5600 5319,5576C5348,5565 5397,5534 5428,5509C5480,5468 5485,5461 5482,5429C5473,5326 5475,5317 5519,5252C5577,5167 5573,5138 5488,5058C5424,4999 5392,4980 5322,4959C5273,4945 5268,4948 5251,5009C5237,5058 5206,5110 5147,5184C5109,5233 5108,5235 5128,5250C5139,5258 5164,5278 5184,5293C5218,5319 5232,5350 5210,5350C5204,5350 5181,5336 5158,5320C5115,5289 5047,5265 5030,5275C5013,5285 5029,5300 5085,5326C5139,5352 5178,5385 5167,5396C5164,5400 5121,5384 5072,5360C4969,5311 4981,5311 4790,5371C4635,5420 4628,5424 4656,5448C4687,5473 4768,5630 4776,5679C4782,5716 4780,5724 4754,5751C4722,5785 4565,5868 4554,5857C4543,5846 4569,5822 4646,5774C4687,5748 4724,5721 4729,5712C4744,5686 4687,5554 4634,5490C4607,5459 4604,5458 4553,5463C4523,5466 4485,5478 4467,5489C4378,5546 4300,5568 4300,5535C4300,5527 4306,5520 4314,5520C4321,5520 4333,5514 4339,5506C4346,5498 4363,5489 4378,5485C4463,5464 4462,5388 4376,5291C4351,5262 4330,5235 4330,5229C4330,5223 4341,5205 4355,5188C4417,5115 4406,5037 4315,4903C4247,4803 4206,4766 4181,4780C4154,4794 4052,4907 4033,4943C4006,4994 4012,5064 4050,5150L4083,5225L4055,5276C4033,5317 4028,5339 4029,5387C4031,5468 4021,5475 3911,5474C3864,5473 3790,5467 3747,5460C3704,5454 3662,5451 3655,5454C3647,5457 3634,5483 3626,5511C3589,5633 3539,5640 3394,5545C3339,5509 3288,5480 3279,5480C3268,5480 3260,5492 3256,5512C3242,5581 3206,5588 3159,5530L3126,5490L3101,5514C3050,5560 3010,5570 3010,5534C3010,5514 3002,5516 2968,5545C2952,5559 2930,5570 2919,5570C2874,5570 2895,5643 2944,5656C2973,5663 2995,5652 3055,5600C3080,5578 3107,5560 3115,5560C3139,5560 3145,5628 3124,5657C3097,5692 3022,5730 2978,5730C2928,5730 2874,5683 2859,5627C2836,5542 2869,5396 2929,5313C2945,5291 2961,5263 2965,5249C2977,5212 3023,5149 3069,5108C3101,5079 3110,5064 3110,5038C3110,5020 3117,4967 3126,4920C3136,4864 3139,4811 3134,4765C3126,4668 3092,4502 3073,4462C3041,4394 2910,4362 2910,4422C2910,4440 2915,4442 2941,4436C2980,4429 3025,4451 3043,4488C3058,4517 3085,4665 3095,4770C3107,4903 3065,5019 2934,5210C2858,5322 2831,5398 2823,5525C2815,5648 2830,5714 2876,5758C2908,5789 2914,5791 2948,5784C2968,5779 2993,5777 3003,5778C3013,5779 3033,5771 3047,5760C3061,5749 3076,5740 3081,5740C3085,5740 3112,5726 3140,5708C3180,5683 3193,5679 3203,5689C3227,5714 3105,5804 2986,5850C2947,5864 2928,5905 2913,5998C2894,6127 2892,6120 2954,6120C3004,6120 3009,6118 3034,6082C3048,6061 3060,6035 3060,6024C3060,6013 3066,5995 3074,5984C3093,5959 3107,5973 3116,6028C3122,6068 3122,6070 3097,6070C3074,6070 3066,6080 3036,6144C3016,6185 3003,6226 3006,6235C3015,6258 3064,6280 3107,6280C3169,6280 3324,6250 3341,6234C3349,6226 3361,6220 3367,6220C3373,6220 3419,6258 3469,6305C3568,6398 3597,6414 3644,6404C3692,6394 3726,6364 3754,6308C3783,6250 3787,6205 3765,6176C3757,6165 3750,6148 3750,6137C3750,6105 3782,6122 3812,6170L3840,6215L3818,6282C3806,6319 3799,6353 3803,6356C3816,6369 3860,6341 3860,6320C3860,6294 3876,6295 3941,6325C4009,6355 4092,6375 4244,6394C4310,6403 4367,6415 4371,6421C4374,6427 4375,6441 4372,6452C4368,6469 4370,6471 4390,6465C4403,6461 4434,6447 4458,6434C4528,6397 4587,6401 4647,6447C4708,6494 4869,6580 4895,6580C4906,6580 4926,6571 4939,6561ZM3574,5501C3588,5469 3600,5438 3600,5432C3600,5413 3551,5383 3508,5376C3468,5369 3303,5293 3270,5265C3240,5240 3141,5240 3078,5265C3051,5276 3055,5244 3084,5215C3107,5192 3114,5191 3184,5196C3252,5202 3263,5200 3323,5173C3395,5139 3423,5108 3476,5003C3500,4954 3510,4922 3510,4888C3510,4830 3493,4745 3473,4706C3461,4683 3454,4679 3432,4684C3417,4688 3368,4696 3323,4703C3248,4715 3240,4715 3218,4698C3206,4689 3192,4680 3188,4680C3183,4680 3180,4724 3180,4778C3180,4831 3173,4906 3165,4945C3157,4983 3150,5018 3150,5022C3150,5026 3173,5041 3201,5055C3241,5076 3251,5085 3248,5103C3245,5123 3239,5125 3183,5125C3125,5125 3119,5127 3080,5165C3057,5187 3026,5233 3010,5266C2993,5300 2974,5333 2965,5340C2933,5367 2892,5530 2918,5530C2922,5530 2950,5502 2981,5468C3021,5423 3041,5408 3053,5413C3069,5419 3069,5422 3054,5460C3035,5506 3044,5526 3068,5493C3078,5482 3098,5456 3113,5435C3129,5415 3146,5400 3152,5402C3158,5404 3170,5430 3179,5460C3199,5525 3220,5538 3220,5485C3220,5439 3235,5410 3260,5410C3271,5410 3317,5436 3362,5467C3474,5543 3520,5569 3535,5563C3542,5561 3560,5533 3574,5501ZM3950,5427C3984,5410 3982,5362 3946,5290C3906,5211 3857,5155 3805,5130C3757,5107 3747,5090 3781,5090C3830,5090 3967,5203 3985,5259C3993,5287 4012,5281 4024,5248C4031,5228 4028,5209 4012,5172C4000,5144 3988,5088 3984,5044C3978,4973 3980,4959 4000,4920C4028,4864 4160,4733 4197,4724C4220,4718 4228,4722 4245,4745C4256,4760 4286,4797 4311,4826C4419,4951 4450,5061 4410,5171L4388,5232L4419,5274C4448,5312 4467,5347 4483,5393C4492,5416 4522,5414 4605,5384C4644,5370 4736,5338 4811,5314C5023,5245 5102,5184 5205,5005C5255,4919 5258,4915 5291,4916C5310,4917 5335,4921 5348,4925C5362,4930 5370,4928 5370,4921C5370,4899 5306,4849 5231,4811L5156,4773L5192,4761C5220,4752 5231,4741 5240,4715C5249,4687 5264,4674 5318,4645C5398,4603 5502,4522 5497,4506C5495,4500 5442,4490 5364,4483C5160,4465 5062,4418 4891,4260C4792,4168 4767,4138 4730,4069C4703,4020 4669,3974 4645,3954C4487,3821 4448,3790 4441,3790C4429,3790 4277,3907 4268,3923C4264,3932 4276,3956 4300,3988C4376,4090 4412,4230 4414,4430C4415,4543 4412,4570 4397,4598C4369,4649 4314,4670 4201,4670C4058,4670 3922,4631 3727,4534C3656,4498 3595,4472 3589,4475C3584,4479 3580,4493 3580,4508C3580,4523 3569,4557 3554,4583C3524,4641 3528,4659 3581,4700C3620,4731 3632,4760 3607,4760C3600,4760 3588,4754 3582,4748C3559,4725 3550,4760 3550,4869C3550,4969 3549,4975 3515,5036C3496,5070 3480,5106 3480,5115C3480,5124 3495,5137 3515,5145C3557,5163 3620,5217 3620,5236C3620,5256 3614,5254 3574,5224C3533,5193 3523,5197 3543,5237C3551,5252 3563,5284 3569,5308C3576,5332 3587,5350 3595,5350C3603,5350 3624,5363 3642,5379C3665,5399 3692,5410 3725,5415C3753,5419 3784,5426 3795,5431C3827,5443 3923,5441 3950,5427ZM2781,5265L2801,5225L2760,5269C2738,5293 2720,5319 2720,5328C2720,5352 2758,5313 2781,5265ZM3510,5308C3510,5271 3472,5220 3433,5204C3395,5188 3348,5191 3323,5211C3291,5239 3326,5250 3375,5228C3416,5210 3447,5230 3461,5285C3469,5318 3477,5330 3491,5330C3504,5330 3510,5323 3510,5308ZM2750,5176C2750,5162 2674,5090 2659,5090C2644,5090 2573,4975 2556,4923C2541,4877 2540,4860 2550,4793C2568,4672 2569,4670 2599,4670C2613,4670 2643,4684 2664,4700C2716,4739 2727,4738 2701,4695C2683,4663 2681,4648 2686,4567C2696,4400 2731,4228 2769,4171C2786,4144 2799,4142 2640,4193C2546,4223 2544,4224 2452,4317C2401,4368 2353,4410 2345,4410C2337,4410 2326,4402 2320,4393C2312,4379 2311,4384 2315,4417C2319,4440 2323,4474 2325,4492C2327,4510 2338,4563 2349,4610C2360,4657 2378,4736 2389,4785C2417,4915 2444,4978 2494,5036C2519,5064 2564,5100 2597,5118C2630,5135 2664,5158 2675,5170C2696,5193 2750,5198 2750,5176ZM2890,5085C2944,5055 2992,5025 2998,5017C3025,4985 3065,4729 3041,4744C3030,4751 3021,4794 3011,4887C3003,4960 2983,5000 2953,5000C2935,5000 2936,4869 2954,4817C2962,4797 2964,4777 2959,4774C2945,4766 2930,4779 2936,4794C2943,4811 2929,4820 2882,4831C2840,4840 2810,4828 2810,4801C2810,4785 2817,4784 2861,4788C2898,4791 2911,4790 2906,4781C2902,4775 2891,4770 2880,4770C2870,4770 2839,4749 2810,4723L2758,4676L2764,4570C2770,4493 2777,4453 2793,4421C2820,4367 2841,4353 2912,4340C2972,4329 3026,4341 3079,4379C3106,4399 3130,4393 3130,4366C3130,4361 3142,4341 3156,4323C3188,4281 3257,4250 3328,4245C3356,4244 3391,4235 3405,4226C3418,4217 3470,4163 3519,4107C3580,4037 3626,3994 3660,3976C3747,3929 3736,3958 3629,4058C3573,4112 3505,4181 3478,4213L3429,4272L3460,4308C3477,4329 3501,4360 3513,4377C3556,4441 3511,4473 4189,3891C4417,3695 4635,3507 4675,3473C4715,3439 4750,3405 4753,3397C4756,3388 4727,3357 4670,3309C4621,3269 4577,3234 4572,3232C4557,3227 4473,3300 4446,3340C4432,3362 4408,3387 4393,3397C4377,3406 4334,3442 4295,3475C4257,3509 4202,3553 4173,3573C4087,3633 3960,3737 3857,3832C3760,3921 3759,3922 3677,3939C3632,3949 3568,3968 3534,3981L3473,4004L3414,3983C3382,3972 3333,3954 3305,3945C3278,3935 3247,3923 3238,3919C3228,3914 3211,3910 3199,3910C3177,3910 3039,3997 3007,4031C2996,4042 2976,4050 2956,4050C2927,4050 2917,4057 2883,4103C2862,4131 2834,4171 2823,4190C2791,4243 2754,4379 2735,4520C2717,4645 2717,4646 2739,4687C2750,4710 2760,4744 2760,4762C2760,4783 2778,4827 2808,4880C2868,4987 2884,5026 2876,5045C2866,5073 2852,5060 2822,4996C2771,4886 2644,4720 2612,4720C2594,4720 2588,4762 2592,4847C2596,4946 2631,5026 2669,5024C2694,5023 2735,5060 2767,5113C2777,5128 2786,5140 2789,5140C2792,5140 2837,5115 2890,5085ZM2947,4693C2934,4672 2911,4624 2896,4587C2874,4533 2870,4510 2876,4474C2883,4426 2877,4421 2841,4446C2819,4462 2818,4468 2822,4556L2825,4649L2865,4690C2895,4721 2912,4730 2937,4730L2970,4730L2947,4693ZM2996,4649L2980,4615L2986,4650C2989,4669 2994,4694 2998,4705C3004,4724 3004,4724 3008,4704C3010,4692 3004,4667 2996,4649ZM3037,4668C3034,4661 3032,4666 3032,4680C3032,4694 3034,4699 3037,4693C3039,4686 3039,4674 3037,4668ZM3435,4627C3518,4580 3545,4489 3494,4423C3480,4405 3463,4390 3457,4390C3450,4390 3436,4371 3425,4348C3388,4268 3323,4262 3233,4328C3137,4398 3120,4496 3186,4591C3223,4645 3233,4649 3320,4650C3380,4650 3403,4645 3435,4627ZM3027,4618C3024,4610 3021,4613 3021,4624C3020,4635 3023,4641 3026,4637C3029,4634 3030,4625 3027,4618ZM4333,4592C4359,4565 4360,4561 4360,4444C4359,4217 4332,4106 4257,4024C4230,3994 4201,3970 4192,3970C4184,3970 4161,3988 4142,4011C4123,4033 4082,4070 4051,4093C3984,4142 3918,4196 3838,4268C3806,4297 3756,4336 3727,4354C3699,4372 3667,4397 3657,4407C3640,4427 3640,4428 3663,4442C3705,4470 3864,4547 3925,4569C4019,4603 4107,4618 4211,4619C4303,4620 4307,4619 4333,4592ZM3000,4509C3000,4497 2961,4478 2950,4485C2939,4492 2936,4533 2946,4543C2954,4550 3000,4521 3000,4509ZM5653,4403C5705,4367 5805,4249 5848,4174L5882,4115L5853,4141C5807,4183 5714,4239 5637,4272L5565,4302L5366,4301L5166,4299L5036,4239C4964,4206 4898,4176 4890,4174C4882,4171 4913,4205 4960,4250C5087,4371 5191,4417 5375,4431C5536,4443 5605,4436 5653,4403ZM2443,4270C2527,4191 2595,4153 2674,4140C2703,4135 2747,4126 2771,4120C2850,4099 2865,4070 2796,4070C2686,4070 2650,4042 2496,3836C2431,3748 2404,3720 2387,3720C2375,3720 2334,3732 2295,3746C2139,3804 2092,3819 2016,3835C1972,3844 1933,3853 1928,3856C1914,3865 1941,3904 2063,4048C2170,4175 2338,4340 2359,4340C2364,4340 2402,4309 2443,4270ZM5582,4221C5682,4188 5708,4174 5772,4121C5879,4035 5956,3946 5969,3894C5975,3871 5991,3778 6005,3688C6018,3599 6034,3503 6039,3475C6044,3448 6047,3424 6046,3422C6044,3421 6024,3448 6000,3482C5976,3517 5948,3554 5937,3564C5926,3575 5889,3627 5855,3679C5774,3804 5771,3807 5717,3789C5642,3764 5390,3774 5390,3802C5390,3835 5203,3996 5153,4006C5133,4010 5096,4001 5030,3975C4947,3943 4922,3937 4823,3933C4761,3930 4710,3930 4710,3933C4710,3936 4721,3951 4734,3965C4747,3979 4767,4009 4777,4031C4794,4068 4806,4075 4970,4154C5066,4200 5159,4242 5175,4248C5192,4254 5264,4259 5335,4259C5462,4260 5470,4259 5582,4221ZM2953,4003C2957,4001 2960,3991 2960,3981C2960,3969 2976,3959 3020,3946C3055,3935 3085,3920 3091,3909C3096,3899 3134,3868 3175,3840C3250,3789 3340,3688 3442,3539C3500,3454 3526,3361 3502,3323C3478,3284 3339,3309 3176,3380C3087,3419 3079,3425 2989,3526C2872,3657 2852,3687 2782,3830C2730,3937 2718,3983 2736,4012C2742,4021 2936,4013 2953,4003ZM903,3966C943,3950 1040,3873 1040,3859C1040,3852 1024,3850 998,3853C937,3860 816,3834 734,3795C516,3695 303,3482 280,3341C277,3322 270,3305 264,3303C248,3298 180,3403 180,3434C180,3448 187,3481 196,3507C245,3652 420,3820 621,3915C749,3975 842,3992 903,3966ZM2680,3941C2680,3931 2716,3852 2760,3765C2829,3630 2852,3595 2923,3518C2968,3468 3032,3408 3065,3385C3129,3340 3276,3280 3373,3260L3431,3248L3408,3218C3370,3169 3323,3148 3265,3153C3153,3164 2966,3277 2807,3429C2698,3534 2633,3618 2595,3704C2581,3735 2566,3760 2561,3760C2516,3760 2577,3621 2673,3510C2814,3345 2997,3199 3125,3149C3169,3132 3216,3114 3230,3108L3255,3098L3201,3048C3171,3021 3115,2977 3076,2951C3037,2924 2972,2874 2931,2840C2849,2771 2865,2774 2714,2796C2686,2800 2670,2798 2665,2789C2653,2770 2694,2743 2755,2729C2830,2712 2868,2725 2960,2801C3001,2835 3060,2881 3090,2903C3120,2925 3192,2985 3250,3035C3308,3085 3369,3136 3387,3148C3447,3190 3431,3151 3356,3071C3315,3027 3254,2954 3220,2910C3187,2866 3155,2830 3150,2830C3133,2830 3139,2791 3170,2702C3205,2603 3254,2371 3271,2225C3291,2047 3263,1820 3200,1660C3179,1608 3152,1536 3140,1500C3128,1464 3109,1418 3099,1398C3077,1355 3023,1290 3008,1290C3003,1290 2985,1303 2967,1320C2849,1431 2633,1357 2394,1123C2290,1021 2245,916 2285,864C2319,819 2311,817 2133,823C2040,826 1927,835 1880,844C1702,875 1632,882 1608,869C1586,857 1588,855 1640,839C1670,829 1705,821 1717,821C1729,820 1741,816 1744,811C1755,794 1502,855 1482,874C1481,876 1539,897 1611,920C1691,947 1765,979 1799,1001C1892,1063 2002,1162 2047,1225C2102,1302 2181,1463 2214,1565C2245,1661 2280,1877 2280,1977C2280,2062 2285,2067 2391,2095C2560,2139 2638,2230 2547,2276C2521,2290 2494,2292 2389,2288C2319,2285 2258,2285 2252,2289C2247,2292 2239,2311 2235,2330C2222,2392 2170,2542 2143,2593C2058,2761 1879,2970 1747,3054C1607,3143 1504,3178 1345,3189L1255,3195L1340,3243C1432,3294 1540,3374 1540,3390C1540,3409 1509,3400 1412,3351C1321,3305 1259,3267 1184,3211C1159,3193 1020,3145 1020,3155C1020,3157 1059,3187 1108,3222C1312,3372 1287,3358 1470,3421C1506,3433 1569,3455 1611,3471C1653,3486 1752,3513 1831,3531C1994,3567 2081,3570 2245,3547C2348,3532 2390,3537 2390,3564C2390,3594 2650,3958 2673,3960C2677,3960 2680,3952 2680,3941ZM5197,3928C5240,3896 5312,3829 5308,3825C5307,3823 5262,3835 5210,3852L5115,3883L4960,3870C4678,3846 4691,3847 4684,3865C4674,3890 4686,3894 4728,3882C4759,3873 4781,3873 4836,3886C4874,3894 4936,3908 4973,3916C5011,3924 5051,3935 5063,3940C5105,3957 5165,3951 5197,3928ZM3622,3910L3729,3887L3889,3735L3875,3671C3858,3594 3862,3571 3901,3534C3927,3509 3930,3500 3930,3445C3930,3361 3961,3335 4071,3326C4099,3324 4124,3320 4126,3317C4128,3315 4121,3287 4109,3254C4083,3180 4087,3067 4118,2997C4136,2956 4144,2949 4184,2939C4241,2925 4248,2916 4258,2849L4266,2795L4315,2798C4342,2799 4382,2809 4403,2820C4449,2844 4483,2845 4501,2824C4509,2815 4528,2780 4545,2746C4573,2690 4581,2682 4650,2644C4729,2601 4738,2590 4771,2498C4800,2417 4824,2390 4866,2390C4920,2390 5041,2420 5046,2435C5055,2457 5031,2489 5002,2496C4894,2519 4840,2542 4815,2574C4785,2614 4782,2650 4809,2650C4836,2650 4928,2702 5080,2802C5238,2907 5270,2935 5270,2968C5270,2988 5266,2990 5248,2985C5209,2973 5049,2895 4970,2850C4834,2772 4750,2730 4730,2730C4707,2730 4703,2705 4724,2697C4759,2683 4841,2716 4980,2801L5015,2822L4975,2786C4935,2749 4770,2660 4744,2660C4722,2660 4638,2705 4618,2727C4608,2737 4594,2762 4586,2782C4567,2826 4577,2840 4640,2863C4717,2892 5060,3150 5060,3180C5060,3217 4950,3170 4799,3068C4746,3032 4687,2991 4668,2977C4647,2960 4613,2947 4580,2943C4519,2934 4504,2915 4549,2903C4586,2894 4590,2876 4558,2872C4545,2871 4513,2884 4485,2902L4435,2935L4421,3028L4407,3120L4433,3148C4474,3191 4466,3215 4420,3190C4390,3174 4376,3141 4369,3067C4366,3028 4356,2992 4348,2984C4323,2958 4269,2957 4217,2980C4158,3006 4148,3028 4146,3135C4145,3206 4149,3223 4179,3287C4197,3326 4227,3372 4245,3390L4278,3422L4386,3318C4446,3262 4514,3207 4537,3196L4579,3178L4662,3253C4708,3294 4760,3341 4778,3356C4802,3377 4815,3401 4826,3445C4835,3477 4853,3517 4866,3534C4898,3571 4884,3589 4842,3564C4809,3545 4790,3512 4790,3474C4790,3460 4786,3450 4780,3452C4766,3456 4591,3604 4591,3611C4590,3614 4636,3634 4693,3654C4780,3686 4815,3693 4930,3701C5099,3714 5135,3710 5250,3665C5403,3606 5535,3505 5639,3367C5704,3281 5720,3217 5720,3042C5720,2906 5718,2887 5689,2795C5653,2678 5629,2626 5605,2622C5591,2619 5591,2623 5610,2659C5639,2716 5619,2711 5546,2643C5485,2586 5389,2526 5320,2503C5301,2497 5258,2480 5225,2466C5192,2452 5152,2440 5137,2440C5099,2440 5050,2391 5050,2354C5050,2326 5110,2131 5155,2015C5189,1927 5223,1792 5216,1775C5212,1763 5193,1760 5133,1760C5090,1760 4974,1751 4875,1740L4695,1721L4670,1752C4656,1769 4629,1802 4610,1824C4551,1892 4541,1914 4460,2149C4339,2499 4305,2570 4199,2682L4145,2739L4095,2724C3943,2677 3942,2677 3771,2487C3638,2339 3585,2262 3565,2182C3547,2115 3545,1839 3560,1742C3566,1707 3568,1675 3565,1670C3561,1664 3544,1667 3522,1676C3502,1685 3445,1707 3396,1725C3347,1742 3304,1764 3299,1772C3294,1781 3294,1811 3300,1841C3339,2041 3307,2455 3236,2680C3222,2725 3210,2769 3210,2779C3210,2800 3272,2889 3349,2980C3380,3016 3415,3059 3427,3075L3448,3105L3484,3087C3521,3070 3584,3065 3615,3076C3623,3080 3645,3103 3662,3127C3702,3185 3703,3234 3666,3290C3635,3338 3634,3343 3660,3335C3697,3323 3739,3340 3756,3372C3775,3409 3768,3442 3729,3491C3706,3520 3700,3538 3700,3577C3700,3623 3697,3629 3643,3682C3555,3767 3436,3836 3347,3850C3256,3865 3234,3876 3275,3885C3337,3899 3406,3920 3420,3930C3439,3943 3488,3939 3622,3910ZM4640,3857C4640,3833 4501,3710 4473,3710C4449,3710 4462,3726 4544,3800C4623,3871 4640,3881 4640,3857ZM5185,3813C5376,3746 5413,3738 5562,3733C5670,3729 5714,3731 5724,3740C5733,3746 5743,3749 5749,3746C5761,3738 5855,3605 5931,3490C5961,3443 6005,3385 6028,3362C6064,3325 6069,3316 6059,3299C6053,3288 6051,3272 6054,3265C6062,3242 6045,3239 6005,3256C5984,3264 5961,3269 5954,3266C5934,3258 5937,3230 5957,3230C5987,3230 6058,3190 6076,3162C6092,3138 6094,3114 6091,2935C6090,2825 6084,2731 6079,2725C6066,2712 6012,2734 5910,2792C5807,2851 5793,2852 5785,2803C5765,2677 5726,2560 5706,2560C5699,2560 5689,2570 5683,2583C5675,2600 5680,2625 5706,2696C5773,2882 5797,3100 5765,3225C5735,3337 5660,3443 5524,3562C5437,3638 5362,3685 5273,3717C5210,3740 5194,3741 5002,3740C4778,3740 4704,3728 4614,3683C4564,3657 4530,3657 4530,3682C4530,3689 4556,3715 4587,3740C4634,3777 4652,3784 4694,3787C4722,3789 4795,3799 4855,3810C4916,3821 4976,3831 4990,3833C5031,3840 5142,3828 5185,3813ZM3396,3785C3513,3733 3668,3609 3657,3577C3655,3570 3638,3565 3620,3565C3602,3565 3585,3560 3583,3554C3581,3548 3606,3523 3639,3499C3707,3449 3736,3410 3718,3392C3700,3374 3670,3378 3614,3404C3557,3431 3551,3436 3530,3497C3516,3536 3471,3597 3365,3719C3279,3818 3283,3810 3313,3810C3328,3810 3365,3799 3396,3785ZM1057,3789C1085,3780 1102,3758 1176,3632C1224,3551 1274,3468 1287,3447C1301,3425 1310,3407 1308,3405C1306,3404 1286,3393 1263,3381C1202,3350 1161,3322 996,3192C767,3013 730,2981 702,2939C687,2918 670,2901 663,2900C656,2900 571,2978 474,3073L297,3245L325,3329C340,3374 370,3438 392,3470C476,3596 667,3736 825,3786C872,3801 1011,3803 1057,3789ZM2074,3775C2178,3747 2349,3682 2369,3664C2381,3653 2381,3648 2366,3626C2343,3590 2308,3584 2222,3605C2137,3625 2062,3622 1855,3591C1789,3581 1733,3574 1732,3576C1730,3577 1744,3595 1764,3615C1802,3652 1840,3718 1840,3745C1840,3754 1845,3770 1850,3781C1865,3809 1962,3806 2074,3775ZM4064,3601C4108,3564 4159,3525 4177,3516C4194,3507 4211,3496 4215,3491C4224,3476 4172,3406 4142,3393C4108,3378 4025,3376 3999,3390C3972,3405 3975,3452 4005,3488C4045,3536 4035,3560 3972,3560C3919,3560 3892,3614 3927,3652C3954,3682 3979,3673 4064,3601ZM3609,3295C3656,3244 3661,3213 3630,3163C3605,3122 3567,3097 3541,3105C3511,3114 3470,3168 3470,3199C3470,3217 3482,3237 3504,3259C3523,3277 3541,3303 3544,3316C3548,3329 3554,3340 3559,3340C3564,3340 3586,3320 3609,3295ZM1394,3146C1579,3110 1728,3031 1865,2895C2009,2752 2094,2612 2177,2378L2224,2245L2224,2010C2225,1784 2224,1771 2197,1671C2097,1298 1901,1070 1590,963C1504,933 1477,929 1383,927C1289,926 1263,929 1185,954C992,1014 847,1114 708,1281C598,1413 518,1575 469,1767C412,1993 410,2200 464,2417C496,2548 527,2622 603,2749C660,2845 676,2863 800,2972C948,3101 953,3104 1135,3140C1247,3163 1298,3164 1394,3146ZM4390,2930C4406,2900 4394,2874 4354,2850C4314,2825 4290,2830 4290,2863C4290,2890 4304,2910 4340,2934C4372,2955 4377,2954 4390,2930ZM5650,2545C5658,2519 5658,2505 5649,2488C5615,2421 5570,2404 5507,2436C5447,2467 5447,2470 5498,2496C5525,2509 5559,2533 5575,2550C5613,2590 5636,2589 5650,2545ZM4905,2478C4951,2462 4956,2452 4926,2440C4878,2422 4853,2428 4826,2463C4789,2512 4792,2524 4838,2504C4858,2495 4889,2483 4905,2478ZM2494,2234C2521,2224 2512,2201 2472,2181C2424,2157 2303,2124 2294,2133C2290,2136 2287,2156 2286,2177C2285,2207 2290,2216 2310,2227C2335,2240 2465,2245 2494,2234ZM3401,1670C3457,1647 3520,1620 3542,1609L3583,1588L3577,1529C3574,1496 3567,1463 3561,1456C3549,1442 3501,1431 3340,1405C3287,1397 3222,1383 3195,1375C3167,1367 3142,1360 3139,1360C3133,1360 3153,1422 3178,1481C3184,1496 3202,1545 3218,1591C3261,1712 3260,1710 3281,1710C3291,1710 3345,1692 3401,1670ZM5288,1675C5304,1662 5331,1622 5349,1587C5383,1517 5448,1450 5481,1450C5508,1450 5534,1389 5525,1343C5520,1317 5511,1305 5484,1292C5450,1276 5447,1276 5435,1293C5428,1303 5422,1326 5422,1345C5422,1392 5411,1420 5393,1420C5380,1420 5378,1411 5384,1361C5392,1287 5378,1267 5316,1272L5275,1275L5270,1332C5266,1375 5259,1395 5241,1412L5218,1435L5224,1395C5227,1373 5233,1345 5236,1333C5240,1317 5234,1304 5216,1285C5194,1264 5182,1259 5147,1262L5105,1265L5108,1307C5111,1358 5096,1400 5075,1400C5061,1400 5060,1392 5065,1346C5071,1299 5069,1289 5051,1271C5039,1259 5017,1250 5001,1250C4946,1250 4940,1257 4940,1321C4940,1353 4936,1380 4931,1380C4920,1380 4910,1355 4910,1326C4910,1313 4901,1291 4889,1276C4863,1243 4822,1242 4760,1273C4711,1297 4690,1328 4690,1377C4690,1402 4682,1415 4656,1435C4593,1483 4579,1581 4628,1630C4673,1675 4819,1696 5102,1699C5254,1700 5259,1699 5288,1675ZM2898,1316C2942,1293 2967,1259 2985,1195C2994,1162 3039,1034 3085,910C3235,504 3269,378 3237,352C3198,319 2969,263 2841,254C2722,246 2733,235 2466,645C2413,728 2358,810 2344,829C2327,854 2320,876 2320,910C2320,951 2327,967 2363,1016C2419,1092 2549,1205 2653,1269C2746,1326 2843,1345 2898,1316ZM736,1175C744,1155 758,1136 768,1132C777,1128 834,1092 894,1052C1022,967 1123,917 1203,899C1234,892 1260,882 1260,876C1260,862 1086,628 1039,579C1002,539 960,524 865,514C747,502 569,567 538,633C524,662 525,670 542,720C552,750 567,798 575,825C582,853 609,934 635,1005C661,1077 686,1152 692,1173C705,1219 717,1220 736,1175Z" style="fill:rgb(23,204,94);fill-rule:nonzero;"/>
        <path d="M3564,6351C3521,6321 3416,6211 3400,6180C3391,6163 3393,6160 3409,6160C3430,6160 3620,6337 3620,6356C3620,6381 3602,6379 3564,6351Z" style="fill:rgb(23,204,94);fill-rule:nonzero;"/>
        <path d="M4215,6365C4045,6342 3960,6307 3960,6262C3960,6247 3957,6225 3954,6213C3944,6178 3964,6185 4024,6239C4077,6287 4106,6300 4191,6315C4225,6321 4227,6320 4262,6263C4282,6231 4312,6177 4329,6143C4359,6083 4380,6063 4380,6095C4380,6123 4338,6221 4304,6272C4285,6300 4271,6324 4273,6326C4275,6328 4346,6331 4430,6333L4584,6335L4595,6278C4602,6247 4616,6208 4626,6193L4645,6165L4648,6196C4650,6212 4642,6257 4632,6295C4617,6352 4609,6366 4589,6371C4549,6382 4311,6379 4215,6365Z" style="fill:rgb(23,204,94);fill-rule:nonzero;"/>
        <path d="M3660,6337C3660,6324 3666,6293 3674,6268C3681,6244 3685,6209 3682,6192C3676,6146 3696,6152 3722,6204C3745,6252 3743,6275 3710,6328C3687,6366 3660,6371 3660,6337Z" style="fill:rgb(23,204,94);fill-rule:nonzero;"/>
        <path d="M3161,6071C3148,6058 3140,6037 3140,6018C3140,5976 3158,5913 3171,5904C3186,5895 3201,5920 3196,5945C3178,6029 3178,6030 3194,6030C3202,6030 3230,6019 3256,6005C3311,5976 3331,5982 3298,6017C3239,6081 3190,6100 3161,6071Z" style="fill:rgb(23,204,94);fill-rule:nonzero;"/>
        <path d="M3945,6000C3937,5986 3948,5970 3966,5970C3985,5970 4097,5914 4136,5884C4172,5857 4183,5862 4168,5896C4154,5926 4075,5977 4014,5996C3958,6013 3953,6013 3945,6000Z" style="fill:rgb(23,204,94);fill-rule:nonzero;"/>
        <path d="M3965,5931C3958,5919 3987,5896 4047,5866C4102,5839 4130,5833 4130,5850C4130,5874 3977,5949 3965,5931Z" style="fill:rgb(23,204,94);fill-rule:nonzero;"/>
        <path d="M3456,5849C3430,5816 3411,5785 3415,5782C3418,5779 3445,5801 3476,5830L3531,5885L3582,5830C3615,5794 3634,5780 3637,5788C3640,5796 3636,5813 3629,5827C3614,5855 3540,5910 3517,5910C3510,5910 3482,5883 3456,5849Z" style="fill:rgb(23,204,94);fill-rule:nonzero;"/>
        <path d="M4137,5713C4086,5631 4067,5580 4088,5580C4117,5580 4194,5708 4183,5737C4174,5759 4162,5752 4137,5713Z" style="fill:rgb(23,204,94);fill-rule:nonzero;"/>
        <path d="M4213,5723C4195,5670 4169,5621 4141,5586C4109,5546 4101,5520 4122,5520C4128,5520 4155,5542 4181,5569C4216,5605 4230,5630 4238,5665C4248,5714 4245,5740 4229,5740C4224,5740 4217,5732 4213,5723Z" style="fill:rgb(23,204,94);fill-rule:nonzero;"/>
        <path d="M5070,5696C5070,5676 5112,5628 5149,5607C5197,5579 5188,5607 5132,5663C5082,5713 5070,5719 5070,5696Z" style="fill:rgb(23,204,94);fill-rule:nonzero;"/>
        <path d="M4160,5220C4147,5196 4149,4987 4163,4974C4179,4958 4185,4987 4188,5102C4192,5225 4183,5263 4160,5220Z" style="fill:rgb(23,204,94);fill-rule:nonzero;"/>
        <path d="M3424,4899C3408,4882 3378,4859 3358,4849C3315,4827 3309,4810 3343,4810C3382,4810 3470,4880 3470,4912C3470,4938 3458,4934 3424,4899Z" style="fill:rgb(23,204,94);fill-rule:nonzero;"/>
        <path d="M4527,5343C4489,5337 4498,5316 4541,5310C4581,5303 4690,5252 4690,5240C4690,5235 4682,5229 4671,5225C4639,5215 4617,5183 4624,5156C4633,5120 4679,5069 4718,5053C4737,5045 4828,4987 4921,4924C5054,4834 5097,4810 5124,4810C5142,4810 5163,4816 5169,4824C5190,4849 5199,4941 5186,4981C5172,5021 5083,5150 5069,5150C5065,5150 5041,5164 5018,5180C4975,5210 4599,5351 4570,5349C4562,5348 4542,5345 4527,5343ZM4875,5175C4986,5154 5045,5119 5097,5041C5139,4981 5141,4974 5138,4916C5135,4861 5133,4855 5115,4858C5104,4860 5060,4887 5017,4918C4974,4950 4895,5003 4842,5037C4654,5157 4649,5162 4693,5180C4726,5193 4789,5192 4875,5175Z" style="fill:rgb(23,204,94);fill-rule:nonzero;"/>
        <path d="M3751,5257C3710,5239 3675,5219 3672,5211C3669,5201 3674,5199 3693,5203C3738,5215 3850,5269 3850,5280C3850,5296 3831,5291 3751,5257Z" style="fill:rgb(23,204,94);fill-rule:nonzero;"/>
        <path d="M4370,3665C4370,3644 4401,3590 4413,3590C4417,3590 4428,3574 4436,3555C4452,3515 4470,3509 4470,3543C4470,3575 4441,3623 4403,3655C4376,3677 4370,3679 4370,3665Z" style="fill:rgb(23,204,94);fill-rule:nonzero;"/>
        <path d="M4250,3552C4250,3541 4399,3486 4407,3494C4416,3503 4398,3522 4366,3535C4322,3553 4250,3564 4250,3552Z" style="fill:rgb(23,204,94);fill-rule:nonzero;"/>
        <path d="M2920,3871C2883,3861 2882,3813 2916,3750C2949,3690 3091,3550 3150,3520C3217,3486 3231,3500 3169,3541C3098,3589 2978,3710 2950,3764C2904,3850 2945,3860 3074,3795C3146,3759 3173,3757 3130,3791C3100,3815 2970,3880 2955,3879C2950,3878 2934,3875 2920,3871Z" style="fill:rgb(23,204,94);fill-rule:nonzero;"/>
        <path d="M2190,3489C2165,3485 2123,3481 2097,3481C2000,3479 1861,3436 1883,3414C1913,3383 2270,3444 2270,3479C2270,3486 2242,3503 2237,3499C2236,3498 2215,3494 2190,3489Z" style="fill:rgb(23,204,94);fill-rule:nonzero;"/>
        <path d="M2236,3399C2210,3369 2202,3340 2219,3340C2230,3340 2290,3407 2290,3420C2290,3440 2261,3429 2236,3399Z" style="fill:rgb(23,204,94);fill-rule:nonzero;"/>
        <path d="M1879,3332C1802,3291 1630,3188 1619,3174C1585,3132 1647,3151 1738,3210C1770,3230 1825,3263 1863,3283C1900,3304 1930,3325 1930,3330C1930,3348 1912,3349 1879,3332Z" style="fill:rgb(23,204,94);fill-rule:nonzero;"/>
        <path d="M2737,1950C2710,1945 2668,1931 2642,1918C2552,1874 2547,1807 2630,1760C2670,1738 2686,1735 2780,1735C2904,1735 2963,1753 3009,1806C3094,1902 3041,1961 2875,1959C2826,1958 2763,1954 2737,1950ZM2975,1894C2989,1880 2989,1875 2977,1856C2935,1792 2824,1761 2721,1785C2617,1810 2601,1838 2674,1870C2761,1909 2945,1923 2975,1894Z" style="fill:rgb(23,204,94);fill-rule:nonzero;"/>
        <path d="M4503,3118C4458,3087 4447,3060 4479,3060C4506,3060 4560,3108 4560,3131C4560,3156 4554,3154 4503,3118Z" style="fill:rgb(23,204,94);fill-rule:nonzero;"/>
        <path d="M5391,2770C5373,2758 5326,2736 5286,2720C5247,2705 5168,2667 5110,2636C5052,2604 4988,2572 4968,2563C4947,2554 4930,2543 4930,2537C4930,2520 5013,2538 5083,2571C5121,2588 5153,2600 5156,2597C5159,2595 5135,2577 5104,2559C5046,2524 5025,2500 5054,2500C5074,2500 5184,2555 5225,2585C5242,2597 5297,2629 5348,2655C5442,2703 5464,2724 5458,2763C5454,2792 5432,2794 5391,2770Z" style="fill:rgb(23,204,94);fill-rule:nonzero;"/>
        <path d="M5720,3521C5720,3510 5808,3428 5845,3405C5862,3394 5898,3364 5927,3338C5973,3296 6010,3277 6010,3297C6010,3311 5804,3500 5789,3500C5780,3500 5767,3507 5760,3515C5747,3531 5720,3535 5720,3521Z" style="fill:rgb(23,204,94);fill-rule:nonzero;"/>
        <path d="M1150,2799C1120,2794 1066,2776 1031,2760C959,2726 840,2635 840,2614C840,2593 847,2596 914,2644C1076,2759 1223,2790 1380,2741C1565,2683 1734,2498 1808,2270C1834,2190 1860,2035 1860,1958C1860,1926 1864,1900 1870,1900C1885,1900 1882,2091 1866,2180C1848,2275 1801,2404 1756,2478C1652,2649 1475,2775 1303,2800C1226,2811 1225,2811 1150,2799Z" style="fill:rgb(23,204,94);fill-rule:nonzero;"/>
        <path d="M1155,2408C1122,2396 1065,2356 1037,2325C1004,2288 959,2183 948,2116C927,1986 969,1843 1055,1751C1122,1679 1186,1650 1275,1650C1395,1650 1475,1704 1535,1824C1558,1870 1560,1885 1560,2011C1560,2147 1560,2147 1525,2218C1480,2308 1400,2383 1328,2405C1269,2422 1199,2423 1155,2408ZM1354,2336C1410,2303 1457,2250 1489,2180C1512,2131 1515,2113 1515,2010C1515,1883 1504,1849 1438,1774C1401,1732 1320,1690 1275,1690C1235,1690 1153,1729 1106,1770C1012,1853 967,2029 1006,2160C1058,2335 1218,2416 1354,2336Z" style="fill:rgb(23,204,94);fill-rule:nonzero;"/>
        <path d="M676,1854C687,1786 720,1697 760,1625C818,1520 920,1400 920,1437C920,1442 893,1479 860,1520C798,1598 714,1768 701,1844C698,1866 689,1885 682,1888C672,1891 670,1883 676,1854Z" style="fill:rgb(23,204,94);fill-rule:nonzero;"/>
        <path d="M1576,1384C1496,1329 1437,1310 1319,1299C1257,1294 1204,1287 1201,1285C1176,1260 1349,1259 1434,1284C1535,1314 1640,1373 1640,1401C1640,1417 1616,1411 1576,1384Z" style="fill:rgb(23,204,94);fill-rule:nonzero;"/>
        <path d="M5272,1578C5277,1560 5284,1537 5287,1527C5290,1516 5285,1504 5274,1495C5256,1482 5256,1481 5283,1471C5322,1456 5350,1457 5350,1474C5350,1482 5346,1492 5340,1495C5335,1498 5330,1508 5330,1515C5330,1531 5279,1609 5268,1610C5264,1610 5266,1595 5272,1578Z" style="fill:rgb(23,204,94);fill-rule:nonzero;"/>
        <path d="M4760,1480C4738,1466 4750,1462 4825,1455L4895,1449L4871,1469C4846,1491 4787,1497 4760,1480Z" style="fill:rgb(23,204,94);fill-rule:nonzero;"/>
        <path d="M4755,1395C4731,1372 4720,1320 4738,1320C4743,1320 4759,1334 4773,1350C4795,1374 4808,1380 4840,1380C4888,1380 4892,1394 4849,1409C4801,1425 4782,1423 4755,1395Z" style="fill:rgb(23,204,94);fill-rule:nonzero;"/>
    </g>
</svg>
