<?xml version="1.0" encoding="UTF-8" standalone="no"?>
<!DOCTYPE svg PUBLIC "-//W3C//DTD SVG 1.1//EN" "http://www.w3.org/Graphics/SVG/1.1/DTD/svg11.dtd">
<svg width="100%" height="100%" viewBox="0 0 656 568" version="1.1" xmlns="http://www.w3.org/2000/svg" xmlns:xlink="http://www.w3.org/1999/xlink" xml:space="preserve" xmlns:serif="http://www.serif.com/" style="fill-rule:evenodd;clip-rule:evenodd;stroke-linejoin:round;stroke-miterlimit:2;">
    <g transform="matrix(0.1,0,0,-0.1,-20.7847,782.5)">
        <path d="M4098,7715L3995,7621L3932,7620C3869,7620 3868,7621 3809,7673C3732,7744 3706,7757 3685,7740C3676,7732 3648,7691 3624,7649C3599,7607 3573,7566 3565,7560C3556,7552 3550,7530 3550,7504C3550,7470 3555,7457 3573,7446C3590,7434 3696,7410 3733,7410C3737,7410 3749,7401 3760,7390C3775,7375 3780,7357 3780,7314C3780,7263 3742,6970 3735,6962C3733,6960 3721,6966 3708,6974C3687,6988 3653,6989 3464,6985C3241,6979 3194,6973 3128,6939L3090,6920L3090,6948C3090,7024 2904,7187 2746,7250C2589,7312 2424,7313 2253,7252C2001,7163 1837,6926 1800,6597C1788,6497 1802,6346 1827,6293C1835,6275 1873,6231 1911,6195C1967,6143 2007,6117 2116,6063C2232,6006 2262,5996 2314,5993L2375,5990L2305,6010C2267,6021 2180,6058 2112,6091C2008,6142 1978,6162 1916,6223C1831,6307 1810,6355 1810,6464C1810,6559 1834,6700 1867,6802C1887,6863 1895,6879 1898,6860C1904,6822 1919,6810 1960,6810C2014,6810 2057,6827 2127,6876C2197,6926 2230,6931 2288,6901C2331,6879 2352,6858 2414,6775C2463,6709 2463,6722 2413,6643C2403,6628 2435,6658 2485,6710C2534,6762 2601,6831 2635,6863C2668,6894 2689,6920 2683,6920C2676,6920 2626,6877 2571,6824L2471,6729L2456,6758C2424,6821 2350,6898 2298,6924C2229,6958 2202,6957 2144,6916C2062,6858 2019,6838 1971,6836L1926,6835L1919,6875C1911,6923 1919,6941 1995,7038C2114,7191 2286,7271 2499,7271C2609,7272 2693,7253 2787,7209C2886,7162 3068,7006 3071,6965C3072,6957 3073,6942 3074,6933C3074,6923 3063,6909 3049,6901C3026,6888 3021,6889 2994,6908C2978,6919 2954,6931 2940,6934C2917,6940 2917,6939 2934,6928C2944,6921 2964,6906 2978,6894L3004,6873L2976,6855C2961,6845 2943,6825 2936,6811C2923,6788 2916,6785 2862,6785C2809,6785 2796,6781 2744,6745C2655,6684 2573,6599 2545,6538C2516,6475 2496,6348 2508,6305C2515,6280 2518,6287 2522,6350C2531,6468 2561,6549 2622,6616C2651,6647 2706,6694 2744,6721C2806,6765 2819,6770 2866,6770C2916,6770 2920,6768 2935,6736C2947,6711 2965,6697 3007,6679L3064,6654L3033,6635C3017,6624 2929,6539 2839,6445C2719,6320 2670,6276 2655,6278C2644,6280 2619,6283 2599,6286C2579,6289 2553,6287 2541,6280C2510,6264 2432,6155 2419,6109C2412,6088 2404,6070 2400,6070C2382,6070 2326,6143 2320,6177L2312,6215L2311,6172C2310,6135 2315,6123 2342,6096C2360,6078 2380,6061 2387,6059C2396,6056 2397,6044 2390,6015C2377,5959 2378,5718 2391,5664C2400,5629 2422,5598 2488,5527C2565,5444 2650,5338 2650,5326C2650,5324 2635,5326 2618,5331C2569,5345 2483,5342 2451,5326C2416,5307 2302,5186 2289,5153C2284,5140 2280,5116 2280,5101C2280,5077 2270,5067 2219,5035C2127,4979 2026,4877 1959,4776C1920,4717 1900,4694 1900,4708C1900,4743 1850,4890 1813,4964C1774,5041 1704,5122 1660,5140C1521,5197 1380,4947 1376,4639C1375,4524 1375,4523 1354,4532C1326,4545 1284,4525 1256,4487C1230,4451 1228,4351 1252,4305L1268,4275L1159,4219C980,4126 845,4019 763,3905C739,3872 692,3824 657,3799C548,3719 482,3608 460,3463C454,3426 442,3379 433,3360C424,3341 415,3303 412,3275C408,3229 402,3219 335,3150C278,3091 259,3063 247,3023C205,2883 216,2823 294,2745C358,2681 412,2665 537,2673C619,2678 622,2677 652,2650L683,2621L641,2631C556,2650 414,2608 337,2540C293,2502 290,2479 326,2451C412,2383 722,2370 841,2428C872,2443 881,2444 921,2433C945,2425 989,2418 1017,2417C1059,2415 1070,2411 1070,2398C1070,2358 1096,2350 1223,2350C1290,2350 1362,2355 1384,2359C1415,2367 1430,2365 1459,2350C1563,2296 1822,2302 1881,2361C1911,2391 1907,2464 1870,2536C1854,2568 1840,2596 1840,2596C1840,2597 1851,2601 1865,2604C1879,2608 1896,2621 1902,2634C1910,2654 1908,2666 1889,2699C1866,2740 1806,2790 1780,2790C1753,2790 1792,2817 1850,2840C1880,2852 1907,2866 1910,2871C1914,2876 1947,2864 1986,2845C2024,2826 2071,2805 2090,2799C2118,2790 2129,2779 2143,2746C2200,2607 2310,2472 2422,2403C2475,2370 2479,2366 2465,2350C2446,2329 2446,2290 2466,2262C2515,2192 2729,2150 2939,2170C3108,2186 3191,2215 3214,2266C3221,2281 3235,2285 3288,2288C3369,2291 3417,2303 3461,2333C3533,2381 3498,2434 3366,2476C3321,2490 3255,2504 3218,2507C3180,2510 3150,2514 3150,2515C3150,2516 3161,2543 3174,2576C3203,2647 3230,2782 3230,2854C3230,2920 3215,3007 3188,3090C3118,3311 2860,3694 2606,3955C2552,4010 2513,4056 2519,4058C2546,4067 2597,4109 2617,4139C2634,4163 2640,4187 2640,4224C2640,4289 2613,4335 2560,4359L2520,4377L2543,4398C2570,4423 2630,4446 2697,4456C2779,4468 2864,4498 2926,4538C3002,4588 3140,4718 3165,4764C3176,4784 3189,4799 3195,4797C3212,4791 3323,4688 3360,4643C3404,4591 3448,4566 3486,4572L3515,4576L3515,4395C3515,4097 3554,3966 3714,3725C3765,3648 3821,3562 3839,3534C3878,3471 3917,3444 4057,3384C4287,3286 4539,3230 4780,3223C4933,3218 4949,3220 5000,3240C5030,3252 5116,3279 5192,3299C5267,3320 5348,3349 5372,3363C5395,3377 5460,3429 5516,3477C5571,3526 5697,3630 5796,3707C5894,3785 6007,3881 6047,3922C6118,3994 6335,4290 6439,4454C6511,4569 6536,4635 6571,4803C6588,4881 6625,5017 6655,5105C6726,5318 6750,5397 6750,5415C6750,5434 6666,5720 6644,5774C6616,5846 6557,5922 6423,6061C6300,6189 6290,6202 6290,6237C6290,6353 6148,6516 5969,6606C5867,6657 5819,6666 5765,6645C5723,6629 5670,6578 5670,6552C5670,6539 5568,6523 5436,6515C5273,6506 5220,6454 5265,6347L5279,6312L5182,6301C5043,6283 5022,6276 4953,6221L4891,6171L4870,6200C4845,6235 4819,6238 4723,6215C4637,6195 4541,6149 4506,6111C4489,6094 4471,6080 4464,6080C4426,6080 4284,5993 4213,5926L4135,5853L4095,5865C4073,5871 4044,5882 4031,5889C3987,5913 3920,5982 3885,6039C3852,6094 3760,6190 3690,6242C3636,6283 3523,6335 3432,6363C3346,6390 3281,6432 3241,6488C3224,6513 3223,6522 3232,6558C3238,6581 3246,6600 3250,6600C3255,6600 3268,6584 3280,6565C3299,6534 3374,6470 3392,6470C3396,6470 3378,6490 3352,6514C3326,6538 3297,6572 3287,6589L3269,6620L3435,6620C3532,6620 3609,6624 3621,6631C3638,6640 3640,6650 3638,6702C3635,6757 3637,6764 3661,6782C3680,6796 3709,6803 3768,6807L3849,6813L3910,6756C3983,6689 4023,6667 4127,6639C4229,6611 4293,6571 4420,6454C4522,6360 4623,6279 4665,6258C4689,6246 4687,6248 4588,6338L4521,6399L4594,6452C4747,6563 5158,6850 5337,6973C5441,7043 5530,7111 5537,7123C5556,7157 5553,7198 5530,7212C5513,7223 5510,7236 5509,7295C5508,7398 5497,7462 5479,7473C5468,7480 5423,7471 5319,7442L5175,7400L5070,7440C5012,7462 4964,7485 4962,7490C4949,7528 4870,7678 4857,7688C4843,7700 4824,7693 4721,7640L4601,7578L4513,7590C4465,7596 4416,7603 4405,7605C4394,7608 4372,7630 4356,7655C4319,7714 4232,7810 4215,7810C4208,7810 4155,7767 4098,7715ZM4298,7695C4337,7651 4367,7614 4367,7614C4366,7613 4289,7615 4197,7619L4029,7625L4117,7702C4165,7745 4210,7779 4217,7777C4223,7776 4260,7739 4298,7695ZM3732,7599C3668,7589 3614,7583 3612,7585C3610,7587 3629,7620 3654,7659L3700,7731L3775,7673L3849,7615L3732,7599ZM4860,7640C4867,7623 4888,7584 4907,7553C4925,7522 4939,7496 4937,7494C4935,7492 4887,7504 4830,7520C4772,7536 4705,7554 4680,7561L4635,7572L4730,7621C4782,7647 4830,7669 4836,7669C4842,7670 4853,7656 4860,7640ZM4424,7575C4570,7558 4693,7532 4840,7489C4987,7446 5185,7367 5255,7324C5323,7283 5451,7216 5493,7201C5512,7194 5520,7183 5520,7167C5520,7135 5504,7118 5439,7077C5375,7036 5144,6876 4945,6734C4868,6678 4753,6597 4690,6552C4627,6507 4559,6458 4540,6442L4505,6413L4418,6493L4330,6573L4553,6800C4799,7050 4845,7108 4836,7154C4827,7198 4807,7214 4699,7270C4561,7341 4374,7402 4280,7407C4178,7413 4150,7395 4105,7297C4072,7225 3960,6875 3960,6842C3959,6783 3908,6799 3813,6887L3750,6945L3775,7065C3789,7131 3803,7222 3806,7267C3817,7399 3793,7431 3675,7444C3642,7448 3605,7457 3593,7466C3568,7482 3562,7522 3583,7537C3607,7557 3755,7581 3925,7594C4014,7601 4295,7590 4424,7575ZM5473,7408C5477,7384 5482,7334 5486,7297L5492,7228L5434,7258C5401,7274 5338,7310 5293,7337L5212,7387L5318,7418C5464,7460 5466,7460 5473,7408ZM4345,7371C4503,7332 4699,7252 4778,7193C4832,7152 4823,7126 4712,7000C4614,6890 4318,6590 4308,6590C4303,6590 4283,6601 4262,6614C4242,6626 4214,6641 4201,6645C4188,6649 4152,6673 4121,6698C4090,6723 4041,6754 4012,6768C3982,6781 3961,6797 3964,6803C3966,6810 4003,6919 4044,7045C4130,7305 4150,7348 4200,7372C4243,7394 4247,7394 4345,7371ZM3702,6948C3717,6938 3754,6907 3785,6878L3842,6825L3758,6825C3632,6825 3587,6786 3611,6698C3616,6676 3618,6655 3615,6652C3611,6648 3529,6643 3432,6640C3272,6635 3253,6637 3231,6653C3217,6663 3169,6688 3123,6710C3060,6739 3037,6755 3028,6777C3019,6800 3016,6802 3013,6787C3006,6758 3047,6722 3137,6680C3183,6659 3223,6634 3226,6626C3229,6618 3226,6594 3219,6573L3207,6536L3191,6560C3161,6609 3084,6673 3024,6701C2964,6729 2950,6743 2950,6780C2950,6815 3064,6890 3190,6939C3253,6964 3264,6965 3466,6965C3648,6965 3679,6963 3702,6948ZM3991,6754C4056,6721 4127,6670 4108,6670C4083,6670 3975,6728 3950,6755C3920,6787 3928,6786 3991,6754ZM3126,6598C3143,6580 3178,6535 3204,6498C3257,6421 3322,6377 3435,6341C3541,6307 3650,6246 3735,6174C3812,6108 3887,6010 3875,5991C3864,5972 3852,5979 3845,6011C3823,6108 3640,6207 3550,6170C3521,6158 3518,6160 3420,6245C3365,6293 3317,6336 3314,6342C3311,6347 3314,6357 3320,6365C3343,6393 3313,6380 3239,6332C3103,6243 2964,6117 2948,6068C2945,6059 2936,6060 2914,6074C2861,6109 2691,6245 2690,6254C2690,6265 3017,6602 3044,6617C3077,6636 3094,6632 3126,6598ZM5903,6606C6087,6530 6236,6381 6271,6237L6282,6188L6244,6149C6219,6123 6197,6110 6179,6110C6143,6110 6025,6160 5954,6205C5822,6289 5680,6472 5695,6539C5701,6568 5728,6598 5765,6618C5796,6636 5840,6632 5903,6606ZM5670,6505C5670,6481 5708,6412 5753,6353L5793,6300L5731,6207C5654,6089 5651,6042 5721,6017C5751,6007 5822,6049 5884,6115L5945,6179L5975,6160C6016,6133 6154,6080 6183,6080C6198,6080 6224,6096 6249,6121L6291,6161L6398,6049C6530,5910 6581,5846 6609,5781C6639,5711 6720,5436 6720,5405C6720,5391 6687,5280 6646,5157C6605,5035 6564,4897 6555,4850C6529,4715 6502,4624 6469,4558C6431,4483 6280,4259 6150,4085C6042,3940 5992,3892 5735,3688C5642,3614 5527,3519 5480,3477C5434,3435 5374,3389 5347,3375C5310,3354 5110,3291 5078,3290C5075,3290 5079,3308 5088,3330C5103,3365 5116,3375 5215,3426C5358,3501 5411,3536 5588,3677C5927,3947 5917,3936 6171,4307C6228,4391 6289,4479 6306,4503C6345,4560 6383,4674 6466,4995C6525,5221 6534,5267 6534,5345C6534,5416 6530,5445 6513,5483L6491,5530L6526,5504C6593,5452 6558,5500 6463,5589C6318,5725 6303,5731 6003,5760C5776,5781 5588,5849 5509,5938C5458,5996 5290,6336 5283,6396C5278,6434 5281,6439 5311,6462C5340,6484 5360,6488 5450,6494C5508,6498 5573,6505 5595,6510C5657,6522 5670,6521 5670,6505ZM3345,6284C3378,6253 3429,6210 3459,6187L3513,6145L3337,5975L3161,5804L3158,5750L3155,5695L3098,5695C2999,5696 2978,5731 2979,5894C2980,5978 2977,6009 2964,6027C2949,6051 2950,6053 3037,6139C3085,6187 3161,6251 3205,6282C3249,6313 3285,6339 3285,6339C3286,6340 3313,6315 3345,6284ZM5478,5933L5520,5881L5495,5844C5462,5796 5463,5774 5500,5755C5547,5731 5579,5736 5615,5774L5647,5809L5725,5785C5841,5749 5941,5731 6091,5720C6166,5715 6242,5705 6261,5698C6289,5689 6380,5634 6380,5627C6380,5626 6360,5626 6335,5628C6310,5630 6277,5629 6262,5624C6239,5618 6245,5615 6298,5610C6379,5601 6432,5565 6474,5490C6503,5439 6505,5429 6504,5340C6503,5257 6494,5209 6431,4961C6392,4805 6346,4643 6330,4603C6311,4555 6270,4488 6217,4417C6171,4355 6091,4242 6039,4166C5987,4089 5923,4002 5896,3973L5846,3918L5829,4002C5820,4048 5796,4123 5776,4169C5756,4214 5740,4259 5740,4269C5740,4302 5782,4326 5870,4344C6036,4377 6162,4467 6228,4600C6265,4673 6268,4712 6240,4757C6218,4795 6194,4808 6083,4844C5947,4889 5893,4944 5918,5011C5923,5024 5965,5092 6011,5162C6106,5306 6209,5490 6217,5532C6228,5586 6213,5610 6152,5638C6103,5661 6082,5665 6005,5664C5904,5664 5817,5642 5672,5583C5624,5563 5563,5539 5536,5530L5487,5514L5425,5594C5388,5644 5318,5714 5246,5775C5159,5850 5113,5898 5065,5965C5030,6015 4979,6078 4953,6107L4904,6159L4972,6209C5037,6256 5044,6258 5142,6270C5199,6277 5254,6286 5265,6290C5283,6297 5293,6281 5361,6141C5403,6055 5455,5962 5478,5933ZM5870,6233L5931,6186L5864,6126C5827,6092 5788,6060 5776,6053C5733,6028 5690,6043 5690,6083C5690,6099 5798,6279 5807,6280C5809,6280 5837,6259 5870,6233ZM2687,6218C2717,6194 2788,6140 2844,6097L2945,6020L2950,5892C2956,5751 2970,5711 3020,5685C3058,5665 3149,5666 3239,5686C3278,5695 3322,5699 3336,5696C3351,5692 3399,5654 3444,5611C3494,5563 3551,5520 3589,5501C3642,5474 3655,5462 3671,5424C3695,5371 3694,5366 3633,5181C3583,5033 3567,4901 3589,4825C3599,4789 3597,4776 3563,4686L3526,4588L3482,4594C3443,4599 3428,4610 3356,4683C3312,4729 3256,4779 3233,4794C3193,4821 3192,4822 3202,4858C3215,4905 3198,4989 3164,5047C3118,5125 3005,5177 2937,5151C2910,5141 2904,5144 2839,5202C2801,5237 2752,5275 2729,5287C2702,5302 2675,5330 2648,5371C2626,5406 2570,5473 2524,5521C2477,5570 2432,5626 2423,5647C2398,5704 2393,5924 2414,6014C2435,6104 2471,6175 2523,6228C2560,6266 2569,6271 2598,6266C2617,6263 2657,6242 2687,6218ZM4912,6121C4955,6071 5016,5994 5048,5948C5105,5868 5137,5836 5286,5704C5324,5670 5374,5619 5397,5589C5450,5520 5520,5392 5520,5363C5520,5314 5413,5280 5255,5280C5140,5280 5040,5266 4998,5244C4954,5221 4894,5156 4867,5103C4836,5043 4805,4944 4744,4715C4672,4441 4632,4359 4462,4130C4415,4067 4348,3970 4313,3916C4219,3768 4227,3722 4358,3658C4420,3627 4431,3625 4525,3625C4580,3626 4666,3630 4716,3634C4803,3642 4808,3642 4830,3620C4851,3599 4852,3591 4847,3521C4843,3479 4838,3425 4834,3400C4829,3363 4832,3350 4848,3330C4865,3309 4876,3305 4922,3306C4951,3307 4995,3315 5020,3323C5044,3332 5066,3338 5068,3336C5070,3334 5055,3316 5036,3297C4988,3249 4921,3235 4775,3244C4625,3253 4516,3273 4310,3327C4038,3398 3911,3465 3850,3568C3831,3599 3783,3672 3743,3729C3702,3786 3654,3865 3635,3904C3545,4086 3507,4409 3554,4585C3566,4630 3647,4831 3768,5110C3816,5223 4057,5626 4130,5718C4155,5749 4217,5807 4267,5845C4381,5932 4409,5958 4477,6043C4507,6081 4546,6120 4564,6131C4596,6150 4725,6196 4770,6203C4830,6213 4834,6210 4912,6121ZM3689,6133C3743,6111 3784,6076 3818,6025L3848,5979L3756,5884L3663,5789L3632,5820C3615,5837 3603,5857 3606,5865C3615,5887 3574,5920 3536,5920C3493,5920 3470,5929 3470,5945C3470,5952 3461,5968 3451,5981L3432,6005L3408,5983C3395,5970 3377,5960 3370,5960C3353,5960 3501,6114 3545,6141C3578,6162 3624,6160 3689,6133ZM4441,6031C4402,5982 4348,5934 4258,5867C4134,5775 4100,5732 3928,5446C3868,5347 3818,5264 3815,5262C3813,5259 3820,5290 3831,5331C3854,5416 3870,5444 3954,5549C3987,5591 4038,5661 4067,5705C4158,5844 4193,5888 4256,5940C4315,5988 4446,6070 4463,6070C4468,6070 4458,6053 4441,6031ZM3994,5885C4018,5871 4058,5857 4083,5854C4109,5850 4130,5846 4130,5843C4130,5832 3990,5626 3934,5555C3899,5510 3860,5451 3846,5424C3821,5373 3787,5242 3796,5229C3799,5224 3783,5186 3762,5143C3740,5100 3699,5009 3670,4940C3642,4871 3616,4813 3613,4810C3610,4807 3610,4859 3612,4925C3617,5035 3621,5057 3665,5190C3718,5352 3722,5387 3692,5446C3676,5478 3657,5494 3603,5523C3537,5558 3453,5630 3479,5630C3505,5630 3627,5719 3685,5780C3718,5816 3776,5877 3814,5917L3883,5990L3917,5950C3936,5928 3971,5899 3994,5885ZM3446,5948C3456,5914 3464,5910 3545,5893C3568,5889 3586,5879 3588,5870C3590,5859 3569,5851 3502,5838C3371,5812 3378,5809 3386,5883C3392,5938 3411,5980 3430,5980C3434,5980 3441,5965 3446,5948ZM3362,5876C3359,5793 3363,5791 3486,5815L3579,5833L3614,5809C3634,5796 3650,5779 3650,5772C3650,5759 3556,5687 3498,5656L3462,5637L3419,5674C3395,5694 3365,5713 3352,5717C3328,5723 3242,5716 3204,5704C3185,5699 3182,5703 3177,5742C3173,5785 3173,5785 3259,5867C3306,5913 3350,5948 3355,5946C3361,5944 3364,5914 3362,5876ZM5568,5852C5583,5842 5604,5830 5615,5826C5634,5819 5634,5817 5607,5794C5577,5768 5522,5762 5503,5781C5494,5790 5496,5802 5511,5831C5522,5853 5533,5870 5536,5870C5539,5870 5554,5862 5568,5852ZM6113,5628C6166,5612 6203,5576 6195,5547C6180,5497 6056,5273 5981,5162C5903,5045 5890,5018 5890,4971C5890,4903 5949,4858 6107,4806C6199,4775 6230,4748 6230,4696C6230,4615 6112,4466 6009,4417C5979,4403 5899,4379 5830,4365C5579,4314 5563,4303 5460,4121C5364,3951 5273,3831 5186,3758C5133,3713 4996,3632 4889,3582C4885,3581 4877,3593 4870,3609C4856,3643 4807,3670 4761,3670C4744,3670 4686,3663 4633,3654C4518,3636 4440,3645 4362,3684C4297,3717 4270,3746 4270,3783C4270,3822 4271,3824 4439,4052C4645,4330 4691,4414 4744,4605C4870,5066 4882,5098 4947,5165C5009,5229 5051,5241 5239,5250C5425,5259 5497,5276 5529,5317C5557,5352 5555,5377 5522,5441L5494,5495L5569,5521C5611,5536 5697,5566 5760,5589C5932,5650 6008,5658 6113,5628ZM2621,5305C2698,5289 2722,5274 2826,5182L2887,5127L2782,5005L2677,4882L2622,4876C2592,4872 2563,4873 2559,4877C2555,4881 2550,4915 2548,4952L2544,5018L2581,5029C2673,5057 2661,5138 2558,5181C2517,5198 2483,5185 2469,5147C2459,5118 2453,5115 2415,5113C2391,5112 2356,5104 2336,5096C2301,5081 2300,5081 2300,5104C2300,5152 2420,5294 2475,5309C2519,5322 2541,5322 2621,5305ZM2586,5136C2630,5097 2628,5079 2573,5047L2542,5029L2521,5065C2510,5084 2496,5100 2490,5100C2477,5100 2477,5126 2490,5151C2506,5180 2542,5174 2586,5136ZM3059,5110C3166,5056 3210,4911 3155,4797C3121,4725 2937,4560 2850,4524C2831,4515 2766,4498 2707,4484C2580,4456 2532,4436 2517,4403C2508,4384 2499,4380 2459,4380C2433,4380 2400,4376 2386,4370C2363,4362 2364,4366 2406,4430C2481,4547 2550,4736 2550,4827L2550,4860L2609,4860C2642,4860 2675,4863 2684,4866C2692,4869 2745,4926 2801,4991C2857,5057 2910,5115 2919,5120C2946,5136 3019,5131 3059,5110ZM1677,5101C1734,5065 1820,4912 1873,4750L1897,4676L1869,4598C1853,4555 1840,4509 1841,4497C1841,4485 1854,4511 1869,4555C1902,4650 1920,4685 1973,4765C2110,4968 2371,5133 2471,5080C2512,5058 2525,5012 2524,4890C2523,4785 2520,4765 2487,4668C2446,4548 2408,4467 2343,4365C2311,4316 2305,4302 2322,4318C2356,4349 2456,4367 2508,4352C2626,4317 2654,4200 2565,4121C2505,4069 2491,4070 2392,4138C2298,4202 2239,4234 2118,4286C2006,4334 2022,4312 2136,4260C2189,4236 2280,4185 2339,4147C2639,3950 3061,3399 3165,3070C3206,2939 3212,2896 3200,2805C3179,2647 3132,2528 3061,2451C3038,2427 3021,2406 3022,2406C3024,2405 3051,2392 3082,2376C3152,2342 3192,2306 3188,2282C3180,2236 3020,2200 2827,2200C2625,2200 2488,2239 2473,2299C2468,2319 2474,2330 2501,2353C2520,2369 2554,2391 2578,2402C2638,2429 2625,2435 2560,2411L2507,2391L2456,2417C2380,2455 2254,2588 2198,2689C2172,2736 2152,2775 2153,2776C2154,2777 2182,2772 2215,2764C2248,2757 2294,2750 2316,2750C2350,2750 2364,2744 2392,2716C2430,2678 2494,2656 2537,2666C2572,2674 2620,2718 2620,2741C2620,2755 2629,2757 2683,2753C2733,2750 2751,2753 2778,2769C2826,2800 2822,2838 2764,2900C2723,2944 2720,2950 2739,2950C2773,2950 2834,2985 2868,3025C2929,3094 2896,3170 2798,3185C2704,3199 2695,3202 2713,3212C2739,3226 2770,3294 2770,3335C2770,3454 2682,3472 2530,3384C2436,3329 2432,3329 2267,3350L2159,3363L2141,3399C2082,3515 2043,3691 2033,3883C2030,3947 2024,4000 2019,4000C2015,4000 1988,3980 1958,3955C1890,3896 1798,3850 1749,3850C1704,3850 1664,3880 1623,3945C1592,3995 1572,4001 1544,3968C1508,3928 1438,3890 1399,3890C1347,3890 1310,3935 1280,4033C1257,4106 1237,4138 1248,4085C1251,4065 1242,4049 1207,4011C1153,3953 1131,3906 1123,3828C1119,3786 1111,3765 1094,3749L1070,3727L1033,3765C1012,3786 971,3814 942,3827C897,3848 877,3852 815,3848L742,3845L762,3870C932,4089 1246,4270 1580,4339C1641,4351 1662,4358 1640,4359C1586,4360 1432,4331 1357,4305L1288,4281L1274,4316C1256,4358 1254,4425 1269,4462C1281,4494 1308,4510 1349,4510C1377,4510 1383,4504 1411,4449C1427,4415 1443,4390 1446,4392C1448,4395 1439,4424 1426,4457C1390,4545 1385,4601 1405,4726C1452,5029 1557,5174 1677,5101ZM5721,4292C5709,4270 5715,4244 5753,4154C5785,4079 5824,3926 5817,3906C5811,3891 5450,3598 5368,3542C5324,3512 5184,3433 5069,3373C5043,3359 4993,3343 4956,3337C4898,3327 4888,3328 4873,3343C4858,3358 4857,3367 4868,3430C4875,3469 4880,3512 4880,3526C4880,3548 4891,3556 4965,3590C5206,3701 5332,3829 5502,4136C5531,4189 5569,4243 5586,4257C5614,4278 5720,4321 5728,4315C5730,4313 5727,4303 5721,4292ZM1340,3890C1353,3883 1360,3869 1360,3850C1360,3827 1355,3820 1331,3815C1300,3808 1260,3823 1260,3841C1260,3846 1269,3869 1280,3890C1291,3912 1296,3930 1291,3930C1286,3930 1273,3912 1263,3890C1253,3868 1242,3850 1239,3850C1235,3850 1227,3864 1220,3880C1213,3897 1204,3910 1199,3910C1188,3910 1207,3860 1226,3839C1234,3830 1238,3816 1234,3807C1225,3783 1248,3722 1272,3706C1288,3695 1298,3694 1312,3701C1338,3715 1370,3786 1370,3833C1370,3868 1372,3870 1400,3870C1441,3870 1497,3900 1539,3944C1558,3964 1577,3980 1581,3980C1585,3980 1600,3960 1614,3936C1628,3912 1656,3878 1676,3860C1707,3833 1719,3829 1755,3832L1798,3835L1783,3806C1775,3791 1766,3755 1763,3726C1759,3684 1762,3670 1780,3648C1792,3632 1808,3620 1815,3620C1836,3620 1869,3669 1881,3717C1887,3741 1897,3760 1904,3760C1924,3761 2003,3800 1997,3806C1994,3810 1973,3805 1950,3796C1899,3776 1891,3776 1896,3798C1899,3807 1897,3826 1891,3840C1882,3863 1881,3862 1881,3825C1880,3772 1853,3669 1835,3651C1828,3644 1814,3640 1806,3643C1785,3651 1767,3698 1774,3725C1778,3742 1785,3745 1814,3742C1832,3740 1851,3743 1854,3749C1859,3756 1849,3760 1826,3760C1786,3760 1783,3767 1805,3814C1815,3834 1836,3854 1863,3867C1886,3878 1929,3909 1958,3935L2010,3982L2010,3911C2010,3748 2064,3498 2121,3402C2131,3384 2140,3368 2140,3366C2140,3364 2105,3360 2063,3357C1976,3351 1898,3325 1830,3280C1791,3254 1776,3250 1715,3250L1645,3251L1697,3276C1773,3313 1839,3400 1856,3487C1861,3514 1857,3524 1832,3550C1797,3585 1742,3591 1719,3563C1697,3538 1641,3518 1609,3525C1576,3532 1550,3564 1550,3597C1550,3635 1523,3651 1466,3648C1416,3645 1415,3644 1402,3605C1387,3558 1367,3540 1329,3540C1297,3540 1285,3554 1275,3599C1268,3632 1267,3633 1254,3615C1210,3556 1281,3395 1383,3320C1442,3277 1414,3283 1344,3328C1212,3413 1140,3566 1140,3761C1140,3872 1159,3935 1211,3994L1253,4041L1287,3971C1305,3932 1330,3896 1340,3890ZM953,3792C1064,3732 1093,3646 1012,3619C982,3609 975,3610 972,3621C966,3640 873,3730 859,3730C853,3730 870,3706 898,3676C950,3618 964,3581 948,3544C930,3505 846,3485 836,3518C833,3528 809,3556 783,3580L736,3625L767,3585C808,3531 830,3486 830,3457C830,3421 794,3380 762,3380C739,3380 732,3388 717,3425C706,3450 694,3470 689,3470C684,3470 686,3457 695,3440C719,3394 715,3334 685,3305C640,3259 582,3280 550,3354C531,3396 522,3381 539,3336C547,3315 545,3309 524,3295C510,3286 496,3281 493,3284C490,3287 485,3322 482,3362C475,3483 522,3624 599,3712C639,3757 720,3807 774,3821C823,3833 901,3821 953,3792ZM1318,3796C1341,3795 1349,3791 1345,3782C1342,3774 1340,3766 1340,3764C1340,3762 1327,3760 1311,3760C1294,3760 1278,3755 1274,3749C1265,3734 1250,3758 1250,3789C1250,3807 1254,3811 1268,3804C1277,3800 1300,3796 1318,3796ZM1320,3736C1320,3717 1303,3707 1283,3714C1271,3719 1270,3723 1280,3735C1296,3754 1320,3754 1320,3736ZM1123,3682C1133,3591 1167,3496 1216,3425L1260,3359L1204,3304C1160,3261 1141,3250 1121,3252C1096,3255 1095,3258 1096,3310C1097,3340 1101,3389 1105,3417C1114,3484 1100,3520 1047,3565C1022,3586 1013,3600 1022,3600C1055,3600 1082,3634 1082,3675C1082,3713 1094,3740 1110,3740C1114,3740 1120,3714 1123,3682ZM1527,3620C1529,3620 1530,3607 1530,3591C1530,3504 1662,3470 1725,3540C1747,3564 1778,3565 1809,3544C1829,3530 1832,3521 1827,3483C1825,3459 1821,3437 1818,3435C1816,3433 1794,3438 1770,3446C1738,3457 1701,3461 1645,3458C1553,3453 1494,3429 1438,3374C1403,3340 1400,3339 1377,3354C1326,3388 1258,3509 1261,3564C1262,3582 1263,3582 1269,3560C1274,3540 1283,3534 1314,3532C1380,3526 1398,3536 1412,3581C1425,3628 1450,3642 1495,3629C1511,3624 1526,3620 1527,3620ZM1068,3509C1088,3481 1091,3467 1085,3430C1069,3319 1068,3270 1080,3255C1089,3244 1088,3237 1071,3219C1060,3207 1043,3166 1033,3128L1015,3058L841,2898C734,2799 649,2730 622,2718C586,2702 561,2699 481,2702C392,2705 379,2708 342,2734C297,2765 264,2810 250,2861C240,2896 260,3011 284,3059C303,3095 410,3194 491,3251C556,3297 557,3297 579,3278C615,3250 666,3255 701,3289C717,3305 730,3327 730,3338C730,3353 739,3359 769,3364C818,3371 850,3409 850,3457C850,3476 854,3489 858,3486C871,3478 937,3499 955,3517C964,3525 974,3545 977,3561L983,3591L1014,3567C1031,3554 1056,3528 1068,3509ZM1756,3429C1780,3423 1800,3415 1800,3411C1800,3407 1789,3389 1776,3371C1702,3272 1587,3246 1459,3301L1409,3323L1437,3352C1465,3382 1524,3417 1570,3431C1608,3442 1706,3441 1756,3429ZM2717,3405C2766,3371 2747,3272 2678,3208C2660,3192 2652,3179 2660,3181C2703,3188 2848,3150 2862,3127C2877,3103 2869,3070 2840,3037C2808,3000 2756,2977 2659,2955L2595,2942L2642,2941C2683,2940 2694,2935 2734,2895C2786,2845 2794,2808 2759,2789C2724,2771 2637,2783 2568,2817L2505,2848L2554,2805C2609,2756 2610,2731 2558,2704C2518,2683 2474,2692 2411,2734C2375,2759 2341,2771 2288,2780C2043,2821 1836,2940 1764,3081C1742,3125 1740,3136 1750,3165C1772,3230 1875,3297 1997,3326C2070,3343 2145,3342 2331,3319C2450,3305 2420,3297 2594,3389C2660,3424 2686,3427 2717,3405ZM459,3253C437,3227 428,3239 435,3288C445,3355 453,3362 462,3311C467,3282 466,3262 459,3253ZM1326,3315C1351,3296 1378,3280 1386,3280C1414,3280 1399,3261 1346,3232C1279,3194 1214,3120 1164,3026L1126,2953L1064,2937C1030,2927 980,2920 953,2920L905,2921L974,2985C1027,3035 1047,3049 1064,3044C1113,3032 1181,3079 1201,3137C1210,3165 1209,3177 1193,3210L1173,3248L1224,3299C1252,3327 1276,3350 1277,3350C1279,3350 1300,3334 1326,3315ZM1534,3239C1572,3233 1640,3230 1686,3232L1769,3235L1749,3203C1734,3179 1729,3155 1730,3113C1731,3081 1728,3014 1723,2963C1712,2842 1695,2818 1617,2808C1557,2800 1490,2770 1370,2696C1329,2671 1288,2650 1279,2650C1269,2650 1258,2646 1255,2640C1238,2612 1334,2649 1427,2705L1501,2750L1532,2715C1569,2672 1689,2613 1755,2603C1816,2595 1832,2578 1860,2496C1902,2369 1871,2345 1660,2345C1545,2345 1519,2348 1485,2365C1445,2385 1445,2385 1448,2438C1452,2523 1434,2536 1425,2453L1418,2383L1358,2376C1270,2367 1127,2369 1111,2379C1089,2393 1104,2491 1139,2567C1168,2629 1169,2633 1153,2646C1143,2653 1132,2660 1129,2660C1110,2661 1088,2736 1093,2780C1106,2892 1208,3088 1296,3172C1348,3221 1420,3262 1445,3255C1456,3252 1496,3245 1534,3239ZM1160,3210C1209,3161 1154,3070 1076,3070C1054,3070 1050,3075 1050,3098C1051,3152 1098,3228 1133,3230C1137,3230 1149,3221 1160,3210ZM1824,2952L1855,2919L1827,2929C1811,2935 1788,2940 1775,2940C1747,2940 1738,2962 1746,3006L1752,3040L1773,3012C1784,2997 1807,2970 1824,2952ZM1096,2880C1070,2816 1065,2730 1083,2693C1099,2664 1098,2662 1074,2651C1002,2619 928,2525 943,2487C952,2464 976,2466 1038,2495C1066,2508 1090,2515 1090,2511C1090,2506 1087,2488 1084,2471C1078,2444 1073,2440 1046,2440C1029,2440 984,2447 946,2455C907,2463 874,2466 871,2461C853,2433 640,2409 521,2420C425,2430 367,2447 340,2472C320,2491 319,2493 336,2511C346,2522 388,2547 429,2568C500,2603 510,2605 608,2607C696,2608 721,2605 776,2584C867,2550 867,2554 775,2605C682,2656 640,2683 640,2691C640,2694 651,2702 664,2708C677,2714 731,2760 785,2811L882,2904L958,2902C1001,2901 1050,2906 1070,2913C1089,2920 1107,2925 1109,2924C1111,2922 1105,2902 1096,2880ZM1828,2905C1856,2894 1880,2884 1879,2881C1878,2870 1745,2810 1722,2810L1699,2810L1718,2835C1729,2849 1741,2876 1744,2896C1749,2917 1756,2930 1763,2927C1770,2925 1799,2915 1828,2905ZM1786,2762C1809,2750 1839,2727 1854,2710C1955,2589 1747,2591 1568,2713C1541,2731 1520,2748 1520,2752C1520,2755 1539,2765 1563,2774C1621,2796 1732,2790 1786,2762ZM1130,2640C1147,2631 1147,2628 1122,2580C1097,2534 1090,2529 1035,2512C1002,2502 972,2495 967,2497C951,2506 1006,2581 1054,2615C1111,2655 1106,2653 1130,2640ZM3232,2476C3336,2457 3434,2424 3456,2399C3474,2379 3474,2378 3450,2360C3419,2337 3368,2322 3292,2314C3233,2308 3230,2308 3192,2341C3170,2360 3129,2384 3101,2394L3050,2412L3092,2451C3116,2472 3140,2489 3145,2489C3151,2489 3190,2483 3232,2476Z" style="fill:rgb(199,0,200);fill-rule:nonzero;stroke:rgb(199,0,200);stroke-width:30px;"/>
    </g>
    <g transform="matrix(0.1,0,0,-0.1,-20.7847,782.5)">
        <path d="M5485,7166C5474,7158 5418,7126 5360,7095C5302,7063 5233,7023 5205,7004C5150,6968 4834,6718 4810,6693C4792,6673 4880,6740 5061,6881C5192,6983 5309,7060 5415,7113C5443,7127 5476,7147 5490,7159C5518,7182 5515,7187 5485,7166Z" style="fill:rgb(199,0,200);fill-rule:nonzero;stroke:rgb(199,0,200);stroke-width:30px;"/>
    </g>
    <g transform="matrix(0.1,0,0,-0.1,-20.7847,782.5)">
        <path d="M3163,6371C3108,6327 3073,6290 3086,6290C3097,6290 3228,6409 3218,6410C3215,6410 3190,6393 3163,6371Z" style="fill:rgb(199,0,200);fill-rule:nonzero;stroke:rgb(199,0,200);stroke-width:30px;"/>
    </g>
    <g transform="matrix(0.1,0,0,-0.1,-20.7847,782.5)">
        <path d="M2976,6223C2951,6198 2930,6170 2930,6161C2930,6148 2934,6150 2948,6166C2957,6178 2980,6206 2998,6229C3043,6283 3033,6281 2976,6223Z" style="fill:rgb(199,0,200);fill-rule:nonzero;stroke:rgb(199,0,200);stroke-width:30px;"/>
    </g>
    <g transform="matrix(0.1,0,0,-0.1,-20.7847,782.5)">
        <path d="M5773,6528C5778,6494 5808,6435 5816,6443C5820,6447 5781,6553 5773,6560C5770,6563 5770,6548 5773,6528Z" style="fill:rgb(199,0,200);fill-rule:nonzero;stroke:rgb(199,0,200);stroke-width:30px;"/>
    </g>
    <g transform="matrix(0.1,0,0,-0.1,-20.7847,782.5)">
        <path d="M5900,6370C5900,6333 6040,6239 6156,6200C6247,6168 6242,6177 6143,6224C6046,6271 5974,6316 5928,6358C5910,6374 5900,6379 5900,6370Z" style="fill:rgb(199,0,200);fill-rule:nonzero;stroke:rgb(199,0,200);stroke-width:30px;"/>
    </g>
    <g transform="matrix(0.1,0,0,-0.1,-20.7847,782.5)">
        <path d="M5840,5881C5821,5874 5835,5872 5891,5871C5985,5870 6109,5849 6215,5816C6258,5802 6296,5793 6298,5795C6307,5803 6191,5848 6120,5864C6035,5884 5875,5893 5840,5881Z" style="fill:rgb(199,0,200);fill-rule:nonzero;stroke:rgb(199,0,200);stroke-width:30px;"/>
    </g>
    <g transform="matrix(0.1,0,0,-0.1,-20.7847,782.5)">
        <path d="M6340,5807C6340,5804 6377,5784 6423,5762C6519,5715 6533,5701 6595,5595C6644,5511 6649,5530 6604,5626C6572,5693 6530,5734 6455,5770C6394,5799 6340,5816 6340,5807Z" style="fill:rgb(199,0,200);fill-rule:nonzero;stroke:rgb(199,0,200);stroke-width:30px;"/>
    </g>
    <g transform="matrix(0.1,0,0,-0.1,-20.7847,782.5)">
        <path d="M2876,5980C2873,5964 2867,5937 2864,5920C2855,5875 2868,5884 2880,5933C2886,5956 2893,5983 2896,5993C2899,6002 2897,6010 2891,6010C2886,6010 2879,5997 2876,5980Z" style="fill:rgb(199,0,200);fill-rule:nonzero;stroke:rgb(199,0,200);stroke-width:30px;"/>
    </g>
    <g transform="matrix(0.1,0,0,-0.1,-20.7847,782.5)">
        <path d="M2880,5767C2880,5751 2949,5670 2950,5686C2950,5696 2892,5780 2884,5780C2882,5780 2880,5774 2880,5767Z" style="fill:rgb(199,0,200);fill-rule:nonzero;stroke:rgb(199,0,200);stroke-width:30px;"/>
    </g>
    <g transform="matrix(0.1,0,0,-0.1,-20.7847,782.5)">
        <path d="M3610,5418C3611,5411 3617,5394 3624,5380C3636,5358 3636,5351 3618,5316C3595,5271 3530,5118 3530,5110C3531,5103 3592,5210 3632,5287L3664,5349L3644,5385C3623,5425 3610,5438 3610,5418Z" style="fill:rgb(199,0,200);fill-rule:nonzero;stroke:rgb(199,0,200);stroke-width:30px;"/>
    </g>
    <g transform="matrix(0.1,0,0,-0.1,-20.7847,782.5)">
        <path d="M4625,5008C4593,4968 4559,4917 4549,4894C4529,4850 4487,4680 4494,4673C4497,4670 4515,4720 4534,4783C4561,4869 4582,4914 4619,4966C4709,5095 4713,5120 4625,5008Z" style="fill:rgb(199,0,200);fill-rule:nonzero;stroke:rgb(199,0,200);stroke-width:30px;"/>
    </g>
    <g transform="matrix(0.1,0,0,-0.1,-20.7847,782.5)">
        <path d="M3983,4958C3972,4940 3958,4910 3952,4891C3933,4838 3963,4870 3990,4931C4015,4990 4011,5006 3983,4958Z" style="fill:rgb(199,0,200);fill-rule:nonzero;stroke:rgb(199,0,200);stroke-width:30px;"/>
    </g>
    <g transform="matrix(0.1,0,0,-0.1,-20.7847,782.5)">
        <path d="M4137,4893C4119,4858 4107,4797 4119,4805C4131,4812 4164,4910 4157,4917C4154,4919 4145,4909 4137,4893Z" style="fill:rgb(199,0,200);fill-rule:nonzero;stroke:rgb(199,0,200);stroke-width:30px;"/>
    </g>
    <g transform="matrix(0.1,0,0,-0.1,-20.7847,782.5)">
        <path d="M4276,4889C4273,4872 4270,4841 4270,4821C4271,4769 4287,4802 4291,4862C4294,4918 4285,4934 4276,4889Z" style="fill:rgb(199,0,200);fill-rule:nonzero;stroke:rgb(199,0,200);stroke-width:30px;"/>
    </g>
    <g transform="matrix(0.1,0,0,-0.1,-20.7847,782.5)">
        <path d="M4372,4418C4356,4389 4331,4335 4316,4298C4289,4230 4246,4061 4253,4054C4255,4052 4276,4109 4299,4181C4323,4254 4357,4347 4376,4388C4395,4429 4408,4465 4406,4467C4404,4469 4389,4447 4372,4418Z" style="fill:rgb(199,0,200);fill-rule:nonzero;stroke:rgb(199,0,200);stroke-width:30px;"/>
    </g>
    <g transform="matrix(0.1,0,0,-0.1,-20.7847,782.5)">
        <path d="M3495,6030C3480,6024 3487,6021 3523,6021C3565,6020 3572,6017 3590,5988C3607,5959 3610,5958 3610,5977C3610,5989 3598,6008 3584,6019C3556,6041 3528,6044 3495,6030Z" style="fill:rgb(199,0,200);fill-rule:nonzero;stroke:rgb(199,0,200);stroke-width:30px;"/>
    </g>
    <g transform="matrix(0.1,0,0,-0.1,-20.7847,782.5)">
        <path d="M3495,5960C3485,5949 3481,5940 3487,5940C3492,5940 3505,5949 3515,5960C3525,5971 3529,5980 3523,5980C3518,5980 3505,5971 3495,5960Z" style="fill:rgb(199,0,200);fill-rule:nonzero;stroke:rgb(199,0,200);stroke-width:30px;"/>
    </g>
    <g transform="matrix(0.1,0,0,-0.1,-20.7847,782.5)">
        <path d="M570,3158C570,3156 596,3132 628,3105C676,3063 681,3061 660,3088C638,3117 570,3170 570,3158Z" style="fill:rgb(199,0,200);fill-rule:nonzero;stroke:rgb(199,0,200);stroke-width:30px;"/>
    </g>
    <g transform="matrix(0.1,0,0,-0.1,-20.7847,782.5)">
        <path d="M688,2986C683,2959 680,2923 681,2906C681,2876 681,2875 691,2900C696,2913 700,2949 698,2980L695,3035L688,2986Z" style="fill:rgb(199,0,200);fill-rule:nonzero;stroke:rgb(199,0,200);stroke-width:30px;"/>
    </g>
    <g transform="matrix(0.1,0,0,-0.1,-20.7847,782.5)">
        <path d="M2251,3244C2211,3227 2214,3215 2254,3230C2319,3254 2413,3232 2429,3188C2456,3115 2356,3032 2241,3029C2212,3029 2209,3027 2225,3020C2281,2996 2361,3019 2417,3075C2452,3110 2460,3124 2460,3154C2460,3175 2455,3200 2450,3211C2425,3257 2321,3275 2251,3244Z" style="fill:rgb(199,0,200);fill-rule:nonzero;stroke:rgb(199,0,200);stroke-width:30px;"/>
    </g>
    <g transform="matrix(0.1,0,0,-0.1,-20.7847,782.5)">
        <path d="M1390,2575C1403,2561 1416,2552 1418,2555C1425,2562 1389,2600 1377,2600C1371,2600 1377,2589 1390,2575Z" style="fill:rgb(199,0,200);fill-rule:nonzero;stroke:rgb(199,0,200);stroke-width:30px;"/>
    </g>
    <g transform="matrix(0.1,0,0,-0.1,-20.7847,782.5)">
        <path d="M2793,6943C2808,6941 2832,6941 2848,6943C2863,6945 2850,6947 2820,6947C2790,6947 2777,6945 2793,6943Z" style="fill:rgb(199,0,200);fill-rule:nonzero;stroke:rgb(199,0,200);stroke-width:30px;"/>
    </g>
    <g transform="matrix(0.1,0,0,-0.1,-20.7847,782.5)">
        <path d="M2320,6448C2303,6400 2295,6264 2309,6256C2317,6251 2320,6269 2320,6317C2320,6354 2325,6405 2331,6429C2343,6482 2337,6493 2320,6448Z" style="fill:rgb(199,0,200);fill-rule:nonzero;stroke:rgb(199,0,200);stroke-width:30px;"/>
    </g>
    <g transform="matrix(0.1,0,0,-0.1,-20.7847,782.5)">
        <path d="M3454,6441C3458,6436 3475,6428 3492,6425C3549,6412 3613,6380 3710,6315C3828,6236 3871,6194 3912,6118C3929,6086 3959,6046 3979,6031C4021,5998 4074,5970 4092,5970C4099,5971 4092,5977 4075,5984C4025,6006 3961,6071 3917,6145C3844,6266 3630,6412 3477,6445C3460,6448 3451,6447 3454,6441Z" style="fill:rgb(199,0,200);fill-rule:nonzero;stroke:rgb(199,0,200);stroke-width:30px;"/>
    </g>
</svg>
