<?xml version="1.0" encoding="UTF-8" standalone="no"?>
<!DOCTYPE svg PUBLIC "-//W3C//DTD SVG 1.1//EN" "http://www.w3.org/Graphics/SVG/1.1/DTD/svg11.dtd">
<svg width="100%" height="100%" viewBox="0 0 960 618" version="1.1" xmlns="http://www.w3.org/2000/svg" xmlns:xlink="http://www.w3.org/1999/xlink" xml:space="preserve" xmlns:serif="http://www.serif.com/" style="fill-rule:evenodd;clip-rule:evenodd;stroke-linejoin:round;stroke-miterlimit:2;">
    <g transform="matrix(0.799735,0,0,0.799735,479.841,256.622)">
        <g id="Heatran.svg" transform="matrix(1,0,0,1,-600,-600)">
            <g transform="matrix(0.1,0,0,-0.1,0,1200)">
                <g transform="matrix(1,0,0,1,-122.943,81.1595)">
                    <path d="M4864,8800C4440,8757 3946,8439 3667,8029L3615,7952L3560,7946C3530,7942 3456,7924 3395,7905C3335,7887 3161,7843 3010,7809C2856,7775 2715,7737 2690,7725C2550,7654 2508,7505 2597,7400C2636,7355 2676,7332 2783,7294C2822,7279 2932,7235 3025,7195C3119,7155 3225,7112 3263,7100L3330,7078L3304,7037C3247,6943 3205,6827 3197,6739C3193,6696 3202,6612 3214,6580C3218,6569 3200,6554 3146,6526C3105,6505 3034,6459 2987,6424L2902,6361L2818,6376C2606,6415 2399,6346 2277,6196C2233,6144 2190,6056 2190,6020C2190,6000 2179,5989 2136,5967C2015,5904 1902,5770 1791,5558L1729,5442L1680,5430C1626,5417 1531,5364 1486,5322C1407,5247 1299,5078 1254,4959C1231,4898 1226,4866 1224,4772L1220,4660L1181,4610C1159,4583 1139,4548 1135,4533C1125,4484 1097,4463 1003,4426C839,4364 519,4188 483,4142C427,4067 556,3984 746,3973L838,3967L832,3861L827,3755L786,3710C700,3618 550,3357 550,3302C551,3252 585,3195 636,3162C702,3118 750,3105 855,3105C936,3105 952,3108 1014,3137C1094,3175 1236,3272 1368,3378L1461,3452L1520,3441C1593,3426 1896,3426 2060,3440C2248,3456 2425,3495 2595,3557C2697,3594 2702,3594 2756,3567C2885,3501 3103,3456 3290,3456C3408,3455 3431,3458 3472,3477C3565,3520 3594,3579 3552,3641C3535,3667 3299,3897 3209,3975C3184,3997 3161,4026 3157,4040C3154,4054 3141,4092 3127,4125C3080,4239 3078,4232 3181,4286C3300,4349 3350,4392 3350,4431C3350,4489 3271,4531 3105,4562C3070,4568 3042,4576 3044,4579C3046,4582 3039,4646 3029,4720C3004,4906 3005,5066 3030,5172C3055,5276 3055,5307 3031,5347C3001,5394 2994,5506 3017,5549C3027,5568 3040,5585 3045,5586C3051,5587 3073,5565 3095,5537C3118,5508 3158,5470 3185,5451C3230,5422 3240,5419 3285,5423L3335,5429L3370,5373C3416,5298 3604,5109 3709,5030C3872,4908 4116,4768 4313,4685C4361,4664 4400,4643 4400,4638C4400,4623 4371,4571 4314,4485C4236,4367 4231,4316 4293,4283C4368,4244 4475,4248 4625,4296C4731,4330 4882,4403 4916,4438L4944,4466L5080,4434C5391,4362 5758,4330 6064,4349C6280,4362 6439,4382 6605,4415C6670,4428 6727,4437 6730,4434C6733,4431 6735,4387 6735,4337C6734,4197 6714,4109 6634,3905C6611,3846 6607,3821 6608,3745C6609,3671 6604,3641 6583,3580C6568,3539 6553,3500 6549,3495C6545,3489 6520,3479 6493,3471C6411,3447 6229,3371 6152,3328C6111,3306 6058,3268 6034,3245C5996,3209 5990,3198 5990,3163C5990,3113 6019,3074 6074,3049C6137,3020 6391,3024 6470,3055C6481,3059 6493,3048 6510,3018C6539,2965 6681,2824 6758,2772C6829,2724 6902,2686 6958,2669C6985,2661 6999,2652 6996,2644C6983,2610 6969,2417 6975,2355C6995,2163 7062,2077 7230,2034C7456,1976 7647,2120 7831,2486L7904,2630L7981,2630C8120,2630 8280,2670 8475,2753C8686,2842 8877,2965 8901,3026C8907,3045 8915,3049 8932,3046C8996,3032 9115,3019 9224,3014C9480,3001 9650,3054 9707,3163C9732,3211 9727,3292 9696,3345C9652,3420 9594,3454 9345,3554C9194,3614 9134,3632 9048,3645C9017,3650 9011,3655 9005,3683C8990,3753 8934,3870 8864,3977C8780,4106 8756,4149 8764,4158C8768,4161 8814,4156 8868,4147C8921,4137 8981,4130 9001,4130C9033,4130 9039,4126 9050,4099C9068,4057 9145,3979 9212,3936C9271,3899 9428,3830 9454,3830C9468,3830 9470,3813 9470,3724C9470,3574 9482,3536 9537,3503C9606,3463 9713,3438 9795,3443C9913,3450 9957,3482 10098,3662L10181,3767L10263,3783C10308,3792 10408,3806 10485,3815C10671,3836 10759,3855 10855,3894C10925,3922 11039,3994 11040,4010C11040,4013 11047,4023 11054,4033C11067,4049 11074,4048 11180,4015C11317,3972 11415,3956 11486,3965C11598,3979 11745,4080 11769,4160C11780,4197 11779,4206 11760,4246C11742,4283 11720,4302 11625,4364C11507,4442 11414,4493 11369,4503C11346,4509 11342,4516 11337,4561C11329,4626 11280,4713 11198,4810C11050,4983 10971,5127 10970,5225C10970,5247 10963,5274 10955,5284C10947,5295 10940,5310 10940,5318C10940,5349 10869,5481 10829,5525C10795,5562 10782,5586 10768,5642C10741,5750 10690,5833 10586,5936C10512,6009 10478,6035 10410,6069C10363,6092 10296,6116 10261,6122C10205,6133 10191,6140 10146,6185C10118,6212 10061,6254 10020,6276C9979,6299 9915,6334 9878,6354C9819,6386 9810,6395 9810,6419C9810,6524 9524,6730 9292,6791C9209,6813 9037,6821 8945,6807L8895,6800L8893,6947C8887,7357 8808,7670 8580,8184C8460,8453 8413,8542 8347,8616C8274,8698 8221,8725 8135,8725C8068,8725 8056,8721 7940,8664C7712,8552 7532,8496 7291,8460C6947,8410 6626,8426 6110,8521C5992,8542 5883,8560 5868,8560C5850,8560 5826,8575 5792,8608C5706,8692 5565,8753 5380,8786C5282,8804 4984,8812 4864,8800ZM5397,8676C5571,8644 5686,8588 5765,8495C5880,8361 5902,8216 5852,7925L5834,7825L5775,7825C5715,7825 5715,7825 5715,7796C5715,7768 5718,7766 5775,7754C5826,7744 6237,7609 6586,7487C6769,7423 6820,7388 6820,7322C6820,7271 6780,7193 6721,7132C6621,7028 6584,7020 6195,7020C6025,7020 5806,7025 5710,7030C5614,7035 5465,7040 5380,7040C5202,7040 5214,7044 5070,6930C4919,6810 4693,6668 4552,6604C4111,6402 3749,6498 3580,6863C3559,6908 3534,6979 3525,7020C3502,7117 3502,7315 3525,7423C3622,7886 3993,8340 4460,8567C4605,8637 4730,8673 4900,8694C4975,8703 5318,8691 5397,8676ZM8196,8611C8285,8571 8352,8464 8524,8087C8632,7851 8692,7686 8741,7494C8791,7296 8811,7152 8817,6943L8823,6770L8776,6750C8720,6727 8693,6725 8625,6744C8566,6759 8519,6782 8501,6804C8485,6823 8460,6825 8460,6807C8460,6784 8543,6712 8600,6686C8630,6672 8681,6657 8714,6654C8761,6648 8774,6643 8778,6627C8799,6548 8881,6444 8969,6386C9098,6300 9242,6267 9485,6267C9639,6268 9690,6274 9755,6301C9784,6312 9792,6309 9901,6247C9965,6210 10036,6166 10060,6149L10103,6118L10059,6098C9975,6061 9949,6020 9949,5924L9948,5859L9917,5866C9688,5916 9576,5854 9505,5638C9441,5445 9397,5412 9268,5460C9204,5484 9147,5529 9113,5583C9092,5617 9086,5643 9076,5764C9062,5918 9047,5965 8997,6019C8947,6072 8861,6105 8588,6174C8449,6209 8302,6250 8262,6265C8190,6291 8170,6291 8170,6265C8170,6241 8242,6206 8421,6145C8518,6112 8598,6081 8599,6075C8601,6054 8432,5830 8346,5741C8215,5606 8093,5525 7964,5487L7912,5472L7807,5568C7733,5637 7701,5674 7696,5695C7683,5756 7619,5872 7569,5925C7476,6024 7326,6100 7227,6100C7195,6100 7178,6106 7164,6121C7154,6133 7120,6161 7090,6183C7060,6206 7009,6248 6978,6278C6925,6328 6900,6337 6900,6305C6900,6291 7065,6087 7081,6082C7086,6080 7079,6065 7065,6048C7044,6023 7040,6008 7040,5956C7040,5726 7257,5462 7477,5425C7566,5411 7680,5471 7695,5541C7699,5557 7703,5570 7704,5570C7712,5570 8155,5126 8187,5085C8261,4992 8262,4989 8244,4939C8236,4915 8220,4824 8209,4737C8183,4529 8171,4500 8098,4476C8069,4467 8020,4488 7930,4547C7861,4593 7841,4611 7836,4635C7826,4681 7754,4821 7720,4863C7644,4954 7509,4967 7430,4891C7394,4857 7350,4775 7334,4710C7318,4650 7312,4640 7283,4626C7237,4604 7195,4606 7126,4635C7057,4663 6910,4750 6903,4766C6901,4772 6908,4812 6919,4855C6931,4899 6940,4961 6940,4994C6940,5063 6939,5065 6760,5320C6582,5574 6566,5598 6513,5700C6465,5790 6419,5903 6406,5963C6397,6000 6360,6001 6360,5964C6360,5885 6475,5620 6594,5425C6624,5376 6647,5333 6645,5332C6637,5324 6482,5373 6407,5407C6340,5437 6166,5535 6101,5579C6089,5586 6091,5595 6108,5631C6174,5771 6125,6069 5999,6290L5961,6358L5981,6415C6009,6496 6015,6630 5996,6782C5987,6851 5980,6910 5980,6912C5980,6913 6096,6916 6238,6917C6516,6918 6586,6927 6679,6975C6780,7025 6885,7156 6916,7268C6944,7370 6917,7438 6828,7490C6773,7521 6562,7592 6157,7715C6027,7754 5918,7789 5915,7792C5912,7795 5921,7866 5936,7951C5968,8141 5967,8300 5932,8389C5920,8419 5912,8445 5913,8446C5914,8447 5949,8440 5991,8430C6095,8406 6329,8364 6480,8343C6573,8330 6677,8326 6890,8326C7157,8325 7185,8327 7331,8353C7583,8397 7753,8452 7955,8553C8124,8638 8133,8640 8196,8611ZM3590,7917C3590,7915 3566,7866 3536,7807C3441,7620 3390,7423 3390,7241L3390,7142L3233,7207C3146,7242 3028,7290 2970,7314C2912,7338 2833,7369 2793,7384C2753,7399 2706,7421 2688,7434C2632,7471 2622,7541 2665,7606C2691,7646 2764,7674 3015,7744C3259,7811 3338,7835 3490,7889C3572,7919 3590,7923 3590,7917ZM3433,6937L3453,6870L3431,6797C3420,6758 3410,6712 3410,6697C3410,6653 3436,6601 3464,6590C3495,6578 3517,6585 3553,6618L3580,6644L3630,6595C3678,6548 3679,6545 3662,6527C3628,6489 3554,6460 3493,6460C3351,6461 3257,6563 3257,6715C3257,6816 3303,6946 3373,7045L3394,7074L3403,7040C3408,7021 3421,6975 3433,6937ZM5348,6944C5365,6939 5363,6798 5346,6700C5328,6601 5300,6541 5249,6485C5177,6407 5101,6380 4953,6380C4837,6380 4773,6394 4685,6437C4580,6490 4581,6488 4658,6525C4695,6543 4761,6581 4805,6608L4885,6658L4888,6627C4897,6511 4916,6470 4959,6470C5023,6470 5060,6574 5036,6689L5023,6751L5086,6796C5121,6820 5173,6867 5202,6900C5253,6958 5255,6959 5295,6954C5317,6951 5341,6947 5348,6944ZM5726,6924L5928,6917L5936,6781C5946,6636 5939,6493 5921,6446L5910,6418L5864,6460C5783,6535 5694,6552 5616,6506C5490,6432 5454,6243 5520,6003C5531,5963 5540,5928 5540,5926C5540,5923 5503,5909 5458,5894C5412,5879 5370,5865 5364,5863C5357,5860 5345,5880 5336,5907C5285,6055 5169,6186 5046,6233C4926,6278 4835,6223 4793,6081C4772,6009 4779,5853 4806,5797C4820,5767 4821,5757 4812,5751C4805,5747 4748,5735 4685,5725C4560,5704 4540,5709 4540,5757C4540,5797 4482,5960 4448,6015C4369,6143 4306,6192 4218,6192C4171,6192 4163,6189 4129,6153C4109,6132 4083,6089 4072,6058C4049,5997 4030,5870 4030,5778L4030,5720L3995,5720C3977,5720 3939,5725 3911,5731C3863,5741 3861,5742 3855,5783C3822,5992 3737,6172 3646,6225C3604,6250 3528,6259 3505,6242C3499,6238 3476,6207 3453,6173C3413,6112 3391,6043 3373,5922L3365,5870L3320,5892L3275,5915L3258,6010C3248,6062 3229,6156 3214,6218L3188,6331L3226,6403C3246,6443 3264,6476 3265,6478C3267,6480 3290,6466 3317,6447C3384,6399 3429,6387 3515,6392C3593,6397 3649,6422 3703,6476L3731,6504L3788,6473C3959,6380 4196,6365 4427,6432L4499,6453L4577,6407C4734,6315 4820,6290 4981,6290C5130,6290 5242,6332 5323,6419C5412,6514 5457,6657 5446,6810C5443,6857 5437,6906 5434,6919C5427,6943 5428,6943 5476,6937C5503,6933 5616,6927 5726,6924ZM9189,6699C9291,6683 9405,6641 9492,6588C9593,6527 9682,6459 9703,6426C9738,6373 9705,6357 9518,6340C9248,6315 9014,6380 8908,6511C8878,6548 8820,6649 8820,6664C8820,6667 8913,6693 8965,6704C9005,6712 9127,6710 9189,6699ZM3155,6440C3137,6413 3119,6377 3115,6360C3111,6343 3097,6324 3082,6314C3025,6281 2978,6171 2959,6028C2946,5932 2959,5799 2991,5714L3012,5658L2987,5632C2939,5580 2926,5541 2925,5447C2925,5371 2922,5356 2906,5344C2877,5323 2825,5327 2740,5357C2632,5395 2603,5388 2524,5303L2462,5237L2455,5281C2443,5364 2420,5418 2384,5450C2355,5475 2341,5480 2296,5480C2205,5480 2136,5419 2067,5278L2025,5191L1985,5190C1963,5190 1907,5181 1860,5170C1700,5133 1664,5147 1701,5229C1711,5252 1728,5284 1739,5298C1749,5313 1792,5388 1834,5464C2026,5811 2087,5864 2475,6023C2668,6102 2724,6137 2959,6334C3048,6408 3164,6490 3181,6490C3185,6490 3174,6468 3155,6440ZM5776,6445C5927,6356 6060,6050 6060,5789C6060,5644 6018,5592 5918,5610C5792,5634 5677,5738 5605,5893C5530,6055 5507,6236 5549,6334C5605,6461 5683,6500 5776,6445ZM2824,6311C2832,6299 2666,6187 2588,6150C2511,6114 2300,6038 2300,6046C2300,6061 2376,6154 2423,6196C2483,6251 2554,6286 2642,6305C2715,6321 2816,6324 2824,6311ZM3174,6145C3183,6101 3199,6007 3210,5935C3222,5864 3242,5762 3255,5710C3281,5613 3288,5510 3270,5510C3250,5510 3170,5602 3134,5666C3114,5701 3092,5754 3084,5783C3067,5845 3066,5999 3081,6072C3095,6138 3140,6244 3151,6233C3155,6229 3165,6189 3174,6145ZM5042,6169C5141,6119 5232,6004 5274,5878C5331,5710 5326,5420 5266,5371C5243,5351 5179,5363 5104,5400C4997,5452 4925,5554 4863,5739C4807,5905 4805,6001 4854,6099C4900,6189 4959,6211 5042,6169ZM3597,6160C3668,6117 3746,5952 3776,5777C3794,5675 3799,5433 3783,5386C3761,5317 3715,5326 3623,5418C3501,5540 3442,5672 3435,5838C3431,5949 3442,6035 3471,6099C3508,6183 3537,6197 3597,6160ZM4277,6108C4356,6060 4443,5900 4474,5748C4494,5651 4494,5495 4475,5367C4452,5213 4431,5185 4364,5216C4296,5248 4215,5340 4166,5443C4101,5579 4086,5649 4086,5815C4086,5963 4099,6032 4140,6098C4157,6126 4165,6130 4201,6130C4226,6130 4256,6121 4277,6108ZM8692,6055C8700,6047 8586,5769 8529,5656C8451,5502 8352,5367 8254,5283C8224,5257 8198,5235 8196,5235C8195,5235 8143,5278 8082,5330C7979,5418 7972,5426 7993,5434C8204,5522 8338,5617 8478,5780C8547,5860 8660,6026 8660,6047C8660,6060 8682,6065 8692,6055ZM8817,6009C8890,5978 8947,5939 8961,5910C8973,5885 8991,5674 8994,5520C8995,5457 9003,5412 9024,5345C9053,5255 9053,5255 9054,4980L9055,4705L9082,4647C9107,4594 9108,4588 9095,4556C9080,4520 9085,4523 8910,4460C8864,4443 8809,4419 8788,4405C8767,4391 8747,4380 8742,4380C8737,4380 8717,4408 8697,4442C8667,4493 8660,4514 8660,4560C8658,4801 8527,5021 8349,5079C8326,5086 8298,5109 8272,5141L8231,5192L8294,5245C8466,5391 8658,5694 8737,5943C8753,5991 8766,6030 8767,6030C8768,6030 8790,6021 8817,6009ZM10288,5996C10427,5947 10594,5773 10643,5627C10670,5546 10683,5429 10671,5382C10658,5337 10640,5327 10570,5326C10542,5325 10534,5321 10532,5303C10528,5274 10560,5258 10626,5257C10711,5256 10771,5313 10786,5410C10790,5432 10796,5448 10801,5443C10805,5439 10821,5399 10836,5355C10859,5285 10862,5265 10857,5195C10850,5103 10821,4994 10778,4900C10727,4785 10698,4771 10589,4808C10511,4835 10408,4859 10306,4873L10217,4886L10205,4926C10186,4990 10120,5108 10074,5159C10028,5210 9938,5265 9915,5256C9885,5245 9899,5206 9945,5175C10055,5101 10140,4924 10140,4765C10140,4646 10105,4580 10042,4580C9954,4580 9770,4726 9712,4842C9675,4916 9653,4998 9642,5100C9635,5173 9618,5202 9607,5158C9592,5097 9620,4870 9654,4780C9658,4770 9647,4759 9619,4746C9593,4734 9556,4700 9513,4649C9442,4562 9426,4550 9382,4550C9341,4550 9236,4605 9204,4643C9143,4714 9137,4745 9130,4995C9123,5231 9113,5294 9071,5391C9061,5415 9049,5450 9045,5468L9038,5500L9087,5453C9153,5389 9222,5353 9306,5339C9459,5313 9539,5380 9609,5592C9634,5667 9663,5715 9700,5741C9730,5762 9734,5763 9875,5761L9986,5760L9998,5728C10033,5629 10232,5390 10279,5390C10312,5390 10304,5408 10250,5457C10186,5514 10120,5607 10078,5696C10049,5758 10039,5794 10024,5885C10018,5924 10050,5977 10093,5995C10135,6014 10237,6014 10288,5996ZM7348,5940C7453,5888 7526,5818 7568,5728C7629,5601 7620,5532 7540,5510C7463,5489 7371,5524 7278,5609C7180,5698 7100,5848 7100,5941C7100,5986 7112,5991 7205,5984C7249,5981 7287,5970 7348,5940ZM5610,5788C5699,5633 5890,5517 6006,5549C6040,5558 6046,5557 6079,5531C6148,5477 6327,5364 6401,5328C6504,5277 6564,5259 6641,5253L6706,5248L6779,5111L6852,4975L6841,4914C6835,4880 6830,4843 6830,4832C6830,4820 6811,4791 6787,4767C6738,4718 6720,4667 6720,4573L6720,4514L6518,4482C6239,4437 6144,4430 5855,4429C5500,4429 5259,4457 4950,4535C4753,4585 4486,4670 4466,4690C4460,4696 4448,4700 4439,4700C4418,4700 4193,4799 4090,4853C3835,4988 3616,5154 3482,5313C3380,5434 3360,5470 3360,5532C3360,5561 3347,5635 3330,5695C3314,5756 3300,5810 3300,5816C3300,5824 3311,5823 3334,5812C3366,5798 3368,5794 3374,5733C3396,5515 3592,5260 3738,5257C3777,5257 3787,5261 3815,5292C3858,5338 3870,5398 3870,5555C3870,5654 3873,5678 3883,5674C3890,5672 3929,5664 3970,5657L4043,5645L4062,5565C4098,5411 4186,5268 4292,5188C4407,5101 4488,5124 4525,5253C4542,5314 4560,5482 4560,5581L4560,5650L4614,5650C4643,5650 4707,5657 4755,5665C4803,5674 4844,5679 4844,5678C4845,5676 4859,5645 4874,5609C4946,5434 5097,5310 5238,5310C5301,5310 5324,5328 5351,5398C5370,5447 5374,5475 5374,5595C5375,5672 5373,5750 5370,5769L5365,5803L5455,5825C5505,5838 5552,5848 5560,5849C5568,5849 5591,5822 5610,5788ZM2332,5419C2343,5413 2361,5388 2372,5363C2429,5235 2354,4860 2246,4733C2182,4657 2085,4691 2068,4795C2064,4819 2041,4821 2028,4800C2013,4777 2037,4701 2069,4669C2120,4618 2214,4621 2278,4675C2348,4734 2450,5007 2450,5136C2450,5165 2455,5172 2483,5183C2500,5191 2537,5222 2563,5253C2590,5285 2623,5313 2637,5316C2653,5320 2686,5313 2731,5295C2828,5257 2880,5260 2973,5308C2986,5315 2980,5266 2959,5195C2932,5102 2924,4921 2939,4751C2956,4577 2954,4501 2934,4451C2919,4412 2870,4360 2849,4360C2839,4360 2730,4409 2730,4413C2730,4414 2737,4440 2745,4470C2766,4549 2764,4655 2740,4708C2711,4773 2624,4805 2542,4782C2499,4769 2515,4755 2574,4753C2665,4750 2700,4716 2700,4632C2700,4574 2677,4503 2625,4400C2537,4224 2442,4107 2351,4061C2301,4035 2270,4035 2238,4060C2143,4134 2166,4357 2288,4554C2317,4600 2304,4625 2270,4588C2233,4549 2169,4434 2150,4373L2132,4315L2054,4309C2010,4305 1910,4285 1830,4265C1600,4205 1474,4213 1333,4296C1244,4348 1195,4405 1190,4460C1185,4514 1192,4530 1243,4596C1273,4634 1321,4700 1351,4744C1381,4787 1411,4831 1419,4842C1431,4859 1431,4863 1416,4878C1400,4894 1396,4892 1354,4845L1310,4795L1316,4830C1338,4959 1392,5091 1465,5190C1528,5276 1669,5395 1686,5377C1689,5375 1675,5342 1655,5304C1606,5207 1609,5131 1665,5094C1700,5071 1796,5073 1897,5099C1942,5111 1983,5120 1988,5120C1994,5120 1996,5087 1992,5034C1987,4953 1988,4948 2006,4952C2022,4955 2026,4967 2031,5020C2038,5099 2061,5173 2108,5263C2176,5394 2264,5456 2332,5419ZM11082,4810C11169,4686 11243,4567 11254,4532C11260,4514 11256,4508 11233,4499C11168,4474 11140,4456 11084,4401C10983,4300 10920,4171 10942,4108C10948,4092 10956,4080 10962,4080C11000,4080 10825,3980 10721,3943C10672,3925 10307,3850 10269,3850C10265,3850 10268,3862 10276,3878C10325,3973 10241,4079 10070,4134C9918,4183 9764,4178 9643,4119C9571,4084 9527,4036 9504,3968L9488,3920L9382,3976C9250,4045 9184,4094 9145,4150C9117,4190 9115,4200 9116,4279C9117,4367 9144,4515 9161,4525C9166,4529 9182,4522 9197,4510C9242,4475 9312,4448 9375,4443C9429,4439 9440,4441 9481,4468C9506,4484 9544,4519 9565,4546C9618,4612 9682,4680 9693,4680C9698,4680 9722,4658 9747,4630C9795,4577 9905,4500 9959,4481C10007,4465 10086,4467 10124,4485C10192,4518 10231,4604 10231,4723L10231,4801L10258,4796C10273,4793 10314,4786 10350,4779C10385,4773 10466,4752 10530,4733C10657,4694 10711,4690 10759,4715C10805,4738 10862,4834 10900,4950L10934,5051L10967,4988C10985,4953 11037,4873 11082,4810ZM8465,4915C8540,4823 8568,4740 8573,4595C8578,4478 8580,4470 8660,4327C8686,4280 8691,4261 8687,4233C8680,4191 8632,4117 8568,4045L8523,3995L8500,4048C8484,4086 8472,4100 8458,4100C8441,4100 8439,4095 8444,4068C8447,4050 8453,3992 8456,3940C8463,3830 8446,3722 8400,3581C8312,3310 8201,3232 8141,3397C8063,3612 8106,3871 8248,4038C8281,4078 8290,4094 8281,4103C8273,4111 8258,4101 8221,4062C8128,3963 8065,3803 8053,3638C8047,3555 8046,3552 8021,3547C8007,3544 7921,3512 7830,3477C7542,3364 7410,3330 7263,3330C7031,3331 6847,3436 6756,3621C6707,3719 6704,3793 6745,3890C6836,4110 6851,4234 6824,4537C6817,4618 6825,4679 6844,4686C6852,4689 6902,4666 6956,4635C7084,4563 7172,4535 7251,4543L7309,4550L7312,4512C7314,4483 7320,4474 7336,4472C7355,4469 7358,4475 7364,4551C7384,4792 7512,4928 7625,4829C7713,4751 7797,4484 7807,4249C7811,4157 7809,4097 7800,4062C7759,3888 7596,3918 7460,4126C7435,4165 7408,4211 7401,4228C7387,4262 7362,4277 7354,4256C7348,4240 7392,4120 7427,4060C7496,3943 7606,3866 7702,3868C7816,3870 7881,3954 7902,4130C7911,4203 7910,4241 7897,4342C7887,4410 7877,4476 7873,4490C7867,4513 7868,4513 7916,4478C7991,4424 8024,4410 8082,4410C8215,4410 8264,4487 8289,4740C8295,4798 8303,4861 8306,4880L8312,4915L8337,4872C8352,4846 8369,4830 8381,4830C8404,4830 8405,4847 8385,4923C8377,4955 8370,4983 8370,4986C8370,5000 8436,4950 8465,4915ZM4668,4550C4764,4518 4844,4490 4846,4487C4854,4479 4652,4391 4570,4367C4471,4338 4398,4330 4352,4342C4312,4353 4314,4366 4368,4450C4387,4480 4416,4531 4432,4563C4455,4608 4466,4620 4478,4615C4488,4611 4573,4582 4668,4550ZM3158,4454C3209,4439 3250,4424 3250,4419C3250,4412 3103,4314 3078,4305C3071,4302 3054,4316 3042,4336C3019,4371 3019,4375 3031,4432C3039,4466 3049,4489 3055,4486C3061,4484 3108,4470 3158,4454ZM9057,4428C9053,4415 9044,4363 9036,4311C9027,4259 9019,4216 9018,4215C9013,4212 8806,4230 8793,4235C8771,4242 8780,4274 8810,4298C8850,4330 9043,4450 9054,4450C9058,4450 9060,4440 9057,4428ZM11399,4396C11463,4364 11640,4253 11668,4227C11680,4216 11690,4201 11690,4193C11690,4168 11621,4104 11563,4074C11511,4048 11496,4045 11415,4046C11339,4047 11305,4054 11197,4089C11126,4111 11062,4130 11055,4130C11027,4130 11030,4152 11065,4212C11174,4399 11279,4457 11399,4396ZM1251,4276C1283,4252 1344,4218 1387,4200C1454,4171 1480,4166 1570,4162C1678,4158 1687,4159 1924,4214C1984,4228 2052,4242 2075,4246L2117,4252L2122,4183C2130,4073 2188,3987 2265,3970C2313,3959 2387,3978 2441,4015C2503,4058 2602,4171 2651,4252C2674,4292 2695,4327 2697,4330C2699,4332 2727,4320 2759,4302C2828,4264 2880,4261 2928,4290C2946,4301 2962,4310 2964,4310C2968,4310 3060,4095 3060,4084C3060,4079 3034,4075 3002,4074C2968,4073 2926,4065 2900,4053C2811,4013 2683,3885 2616,3766C2595,3730 2589,3709 2593,3685L2598,3653L2502,3622C2297,3556 2146,3528 1915,3510C1757,3499 1612,3498 1560,3508C1529,3514 1525,3519 1523,3549C1521,3606 1455,3724 1400,3772C1265,3891 1093,3921 957,3850C935,3838 916,3831 913,3833C906,3841 939,4024 961,4095C986,4179 1071,4347 1106,4385L1132,4413L1162,4366C1179,4341 1219,4300 1251,4276ZM1002,4328C959,4255 912,4161 889,4103C863,4034 866,4036 765,4039C682,4042 550,4082 550,4105C550,4111 569,4127 593,4140C616,4153 666,4184 704,4208C776,4255 986,4359 1008,4360C1018,4360 1016,4351 1002,4328ZM9948,4070C9982,4064 10035,4051 10064,4040C10121,4018 10200,3957 10200,3934C10200,3926 10174,3891 10143,3856C10083,3791 10078,3785 10021,3710C9970,3643 9889,3560 9858,3544C9811,3519 9663,3533 9568,3571L9540,3582L9540,3689C9540,3812 9553,3898 9581,3952C9632,4051 9776,4098 9948,4070ZM8777,3940C8837,3847 8932,3644 8919,3637C8917,3636 8889,3622 8857,3606C8795,3575 8724,3505 8659,3409C8594,3313 8573,3232 8595,3167C8611,3120 8635,3102 8714,3074L8774,3053L8657,2976C8427,2824 8148,2720 7970,2720L7912,2720L7905,2758C7875,2921 7692,3030 7445,3030C7348,3030 7201,2998 7158,2968C7123,2944 7081,2881 7049,2808C7036,2776 7021,2750 7016,2750C7011,2750 6967,2771 6917,2797C6782,2869 6625,3005 6580,3090C6553,3141 6571,3289 6627,3464L6655,3552L6703,3486C6769,3397 6840,3337 6935,3289C7048,3233 7144,3216 7300,3223C7486,3232 7634,3277 7919,3411C7987,3444 8046,3468 8049,3465C8052,3462 8056,3447 8057,3432C8059,3417 8067,3381 8076,3352C8121,3192 8277,3183 8378,3335C8448,3440 8521,3675 8535,3837C8541,3901 8546,3921 8559,3925C8568,3928 8602,3957 8635,3990C8668,4023 8697,4050 8700,4050C8703,4050 8737,4000 8777,3940ZM3101,3978C3125,3961 3226,3866 3325,3768C3497,3597 3504,3589 3485,3574C3452,3550 3370,3530 3299,3530C3213,3530 3007,3565 2905,3597C2807,3628 2690,3686 2690,3703C2690,3744 2816,3911 2880,3955C2970,4017 3038,4024 3101,3978ZM1244,3795C1343,3765 1411,3707 1459,3612C1486,3558 1490,3563 1340,3450C1112,3279 986,3203 903,3187C823,3172 681,3219 655,3271C640,3298 642,3303 689,3395C865,3732 1038,3857 1244,3795ZM9124,3534C9208,3512 9495,3395 9550,3360C9632,3307 9655,3227 9603,3178C9562,3140 9536,3129 9451,3114C9345,3095 9216,3097 9038,3119C8954,3130 8858,3141 8825,3145C8723,3156 8690,3168 8690,3193C8690,3251 8811,3439 8883,3494C8955,3549 9023,3560 9124,3534ZM6507,3328C6498,3293 6488,3244 6484,3218C6480,3187 6472,3169 6461,3166C6452,3163 6390,3158 6323,3154C6186,3147 6110,3154 6110,3175C6110,3188 6213,3261 6280,3295C6343,3327 6514,3399 6518,3395C6520,3393 6515,3363 6507,3328ZM7635,2912C7714,2883 7770,2843 7798,2795C7834,2732 7825,2675 7758,2536C7659,2335 7559,2206 7455,2144C7411,2118 7396,2115 7325,2115C7258,2115 7237,2120 7195,2142C7100,2192 7071,2250 7070,2392C7070,2562 7089,2665 7152,2816C7181,2887 7182,2888 7238,2909C7317,2937 7330,2939 7460,2936C7547,2934 7589,2928 7635,2912Z" style="fill:rgb(189,206,214);fill-rule:nonzero;stroke:rgb(189,206,214);stroke-width:20px;"/>
                </g>
                <g transform="matrix(1,0,0,1,-122.943,81.1595)">
                    <path d="M4223,8335C4088,8293 3926,8132 3833,7945C3760,7800 3714,7617 3723,7513C3749,7235 3987,7221 4252,7482C4414,7642 4513,7824 4540,8008C4562,8159 4517,8290 4427,8330C4378,8353 4286,8355 4223,8335ZM4410,8262C4457,8229 4482,8161 4481,8068C4481,7967 4462,7891 4409,7787C4281,7531 4016,7306 3877,7335C3773,7357 3722,7515 3770,7671C3825,7853 3977,8089 4102,8186C4225,8281 4342,8310 4410,8262Z" style="fill:rgb(189,206,214);fill-rule:nonzero;stroke:rgb(189,206,214);stroke-width:20px;"/>
                </g>
                <g transform="matrix(1,0,0,1,-122.943,81.1595)">
                    <path d="M5498,7866C5339,7801 5221,7690 5119,7510C5035,7361 4990,7150 5022,7055C5034,7019 5038,7015 5070,7015L5105,7015L5103,7090C5098,7241 5136,7382 5218,7525C5274,7622 5461,7815 5528,7844C5551,7855 5570,7869 5570,7877C5570,7894 5565,7894 5498,7866Z" style="fill:rgb(189,206,214);fill-rule:nonzero;stroke:rgb(189,206,214);stroke-width:20px;"/>
                </g>
                <g transform="matrix(1,0,0,1,-122.943,81.1595)">
                    <path d="M7290,7848C7149,7827 7050,7711 7080,7602C7101,7521 7225,7351 7316,7280C7438,7182 7568,7143 7673,7174C7740,7194 7809,7251 7843,7315C7876,7377 7873,7478 7837,7552C7799,7630 7721,7713 7631,7772C7523,7842 7416,7866 7290,7848ZM7549,7744C7637,7701 7743,7600 7780,7525C7832,7421 7804,7316 7708,7253C7672,7228 7657,7225 7591,7225C7525,7225 7505,7230 7445,7259C7357,7302 7238,7419 7195,7505C7179,7538 7160,7571 7153,7578C7130,7601 7137,7669 7166,7707C7212,7767 7285,7792 7400,7785C7460,7781 7490,7773 7549,7744Z" style="fill:rgb(189,206,214);fill-rule:nonzero;stroke:rgb(189,206,214);stroke-width:20px;"/>
                </g>
                <g transform="matrix(1,0,0,1,-122.943,81.1595)">
                    <path d="M7973,7814C7950,7791 7948,7783 7953,7739C7961,7672 7989,7637 8063,7601C8148,7560 8201,7559 8241,7599C8288,7646 8274,7707 8200,7773C8120,7846 8022,7863 7973,7814ZM8155,7769C8181,7750 8212,7718 8224,7698C8243,7663 8244,7658 8230,7633C8200,7578 8096,7596 8021,7669C7983,7706 7973,7752 7995,7787C8010,7810 8017,7812 8060,7808C8094,7804 8122,7793 8155,7769Z" style="fill:rgb(189,206,214);fill-rule:nonzero;stroke:rgb(189,206,214);stroke-width:20px;"/>
                </g>
            </g>
        </g>
    </g>
</svg>
