<?xml version="1.0" encoding="UTF-8" standalone="no"?>
<!DOCTYPE svg PUBLIC "-//W3C//DTD SVG 1.1//EN" "http://www.w3.org/Graphics/SVG/1.1/DTD/svg11.dtd">
<svg width="100%" height="100%" viewBox="0 0 609 775" version="1.1" xmlns="http://www.w3.org/2000/svg" xmlns:xlink="http://www.w3.org/1999/xlink" xml:space="preserve" xmlns:serif="http://www.serif.com/" style="fill-rule:evenodd;clip-rule:evenodd;stroke-linejoin:round;stroke-miterlimit:2;">
    <g transform="matrix(0.1,0,0,-0.1,0,775)">
        <path d="M1125,7643C1048,7566 901,7050 912,6897L915,6855L769,6849C688,6845 617,6840 611,6836C591,6823 599,6802 633,6782C681,6752 918,6636 973,6615C1031,6593 1073,6547 1113,6462C1146,6391 1146,6372 1115,6150C1106,6087 1101,6019 1104,6000C1110,5960 1177,5785 1214,5711C1255,5632 1252,5626 1158,5589C1048,5546 962,5541 812,5569C730,5584 693,5587 679,5580C650,5564 654,5503 690,5437C721,5379 725,5354 714,5287C708,5255 701,5247 666,5231C644,5221 603,5194 575,5171C548,5148 515,5127 502,5123C396,5096 246,5215 189,5371C165,5438 150,5443 116,5397C98,5372 95,5355 95,5262C95,5168 98,5149 120,5106C153,5041 231,4956 288,4923L334,4896L304,4883C288,4877 263,4871 249,4870C216,4870 196,4848 205,4822C218,4779 403,4731 499,4745C596,4759 677,4831 725,4948C762,5035 768,5044 788,5028C796,5021 841,4966 888,4905C935,4845 993,4774 1017,4748C1040,4722 1060,4694 1060,4685C1060,4663 987,4586 932,4551C906,4535 826,4498 755,4470C515,4375 428,4315 374,4209C326,4113 329,3989 383,3899C428,3824 452,3822 476,3892C507,3988 654,4111 794,4161C866,4186 904,4183 908,4154C910,4142 896,4099 877,4059C834,3968 825,3914 840,3852C875,3707 1092,3566 1322,3541C1440,3528 1520,3527 1539,3539C1559,3552 1542,3571 1466,3623C1400,3668 1320,3738 1320,3751C1320,3755 1344,3748 1374,3734C1404,3721 1463,3702 1506,3693C1550,3684 1588,3674 1592,3671C1596,3668 1617,3598 1639,3515L1680,3365L1621,3240C1539,3065 1428,2762 1414,2668C1407,2624 1395,2619 1386,2655C1380,2679 1406,2966 1416,2981C1418,2985 1414,2993 1407,2998C1398,3006 1387,3004 1369,2992C1278,2931 1171,2729 1130,2542C1114,2468 1107,2454 1072,2422C1051,2402 1023,2363 1011,2335C954,2206 915,1980 927,1840C932,1782 930,1769 912,1744C886,1708 874,1661 860,1535C842,1385 858,1216 911,1010C962,809 951,764 839,705C733,650 598,565 575,540C555,518 555,518 578,500C622,464 694,455 936,455L1167,455L1214,412C1239,389 1269,370 1280,370C1303,370 1325,409 1335,465C1338,487 1344,518 1347,533C1350,551 1387,599 1445,660C1590,813 1726,1001 1894,1280C1981,1424 2113,1682 2125,1730C2128,1744 2139,1765 2149,1778L2166,1801L2286,1747C2449,1672 2645,1613 2787,1594C2816,1591 2844,1582 2850,1576C2855,1569 2876,1517 2896,1459C2972,1240 3112,948 3255,710C3296,641 3330,578 3330,569C3330,561 3305,522 3275,484C3213,407 3156,301 3162,273C3168,242 3302,250 3421,289C3474,306 3523,320 3530,320C3537,320 3575,299 3616,274C3774,175 4001,94 4145,83C4215,78 4228,80 4244,96C4281,132 4243,270 4143,469C4109,537 4076,615 4071,644C4013,941 4008,989 4000,1315C3996,1491 3996,1638 3999,1642C4010,1654 4178,1693 4193,1687C4201,1684 4240,1618 4280,1539C4414,1280 4635,973 4802,815C4946,679 5030,648 5310,629C5527,615 5708,629 5815,670C5874,692 5826,749 5675,836C5474,951 5489,939 5441,1025C5399,1100 5396,1111 5384,1229C5360,1454 5306,1650 5252,1707C5233,1728 5198,1785 5175,1836C5129,1935 5043,2075 5010,2105C4980,2132 4965,2107 4961,2025C4960,2014 4942,2050 4921,2105C4872,2232 4807,2362 4737,2470C4706,2516 4683,2557 4685,2561C4688,2564 4718,2571 4752,2574C5053,2608 5619,2824 5877,3002C6013,3096 6042,3148 6000,3217C5961,3281 5798,3350 5683,3350C5600,3350 5457,3317 5339,3270C5283,3247 5217,3227 5191,3224L5145,3219L5169,3237C5227,3279 5276,3324 5292,3349C5302,3364 5316,3423 5325,3480C5346,3620 5365,3693 5399,3761C5433,3830 5524,3952 5604,4038C5678,4117 5672,4130 5573,4106C5536,4096 5458,4071 5401,4049C5195,3972 5165,3943 5009,3677C4990,3644 4966,3613 4955,3607C4944,3601 4874,3577 4800,3553C4726,3529 4655,3502 4642,3494C4613,3475 4602,3447 4581,3336C4572,3287 4559,3245 4553,3243C4536,3237 4454,3324 4429,3372C4404,3420 4342,3466 4273,3486C4209,3504 4171,3498 4139,3464C4117,3440 4115,3432 4118,3337C4120,3276 4130,3192 4145,3128C4166,3035 4183,2986 4247,2841L4261,2807L4223,2815C4202,2819 4100,2825 3996,2829L3806,2835L3780,2880C3752,2928 3718,2941 3712,2905C3705,2854 3699,2840 3685,2840C3670,2840 3555,2973 3501,3052C3463,3109 3420,3198 3420,3222C3420,3233 3440,3244 3489,3259C3564,3282 3611,3313 3595,3328C3590,3333 3554,3347 3515,3358C3477,3370 3418,3393 3385,3410C3331,3437 3328,3440 3360,3436C3379,3433 3442,3419 3500,3405C3781,3335 4035,3398 4226,3585C4294,3652 4315,3680 4353,3760C4405,3867 4440,4001 4440,4091C4440,4155 4423,4237 4408,4246C4393,4255 4370,4230 4340,4171C4282,4056 4175,3931 4091,3882C3982,3818 3797,3774 3707,3790C3624,3805 3487,3881 3320,4005C3235,4068 3140,4133 3110,4149L3055,4179L3161,4180C3360,4180 3493,4233 3620,4360C3703,4442 3763,4535 3811,4657C3850,4752 3858,4805 3837,4813C3819,4820 3751,4789 3607,4706C3545,4670 3481,4636 3464,4630C3423,4614 3334,4626 3308,4652C3289,4671 3288,4680 3294,4758C3297,4805 3302,4845 3304,4847C3305,4849 3336,4838 3371,4824C3455,4790 3511,4790 3583,4825C3641,4854 3783,4971 3858,5053C3938,5141 3927,5142 3625,5075L3516,5050L3484,5073C3467,5085 3427,5113 3396,5134C3365,5156 3340,5180 3340,5190C3340,5200 3358,5227 3381,5251C3448,5323 3560,5471 3560,5487C3560,5514 3501,5496 3301,5411C3197,5366 3106,5330 3098,5330C3090,5330 3032,5355 2969,5385C2865,5435 2849,5446 2781,5520L2708,5601L2735,5803C2772,6066 2777,6150 2758,6150C2742,6150 2612,5976 2505,5813L2439,5710L2372,5708C2235,5703 2218,5706 2153,5745C2047,5808 1953,5842 1870,5847C1829,5849 1784,5853 1771,5856C1741,5862 1620,5978 1580,6039C1525,6121 1541,6146 1707,6245C1826,6316 1997,6430 2028,6459C2040,6471 2050,6486 2050,6492C2050,6506 1930,6498 1735,6471C1653,6459 1578,6450 1569,6450C1560,6450 1532,6486 1501,6538C1473,6586 1402,6685 1345,6758C1288,6832 1228,6913 1211,6938L1182,6985L1178,7307C1175,7586 1173,7632 1159,7645C1144,7660 1141,7660 1125,7643ZM1128,7243C1142,6923 1135,6942 1303,6735C1430,6576 1465,6525 1454,6509C1450,6502 1451,6500 1457,6503C1463,6507 1479,6478 1495,6432C1511,6390 1527,6344 1532,6330C1541,6306 1542,6306 1560,6347C1577,6385 1582,6389 1632,6399C1711,6415 1861,6433 1866,6427C1873,6421 1784,6358 1691,6303C1591,6243 1571,6236 1563,6255C1546,6301 1506,6191 1506,6100C1506,6031 1521,6004 1609,5910C1691,5823 1699,5806 1673,5778C1616,5715 1332,5626 1303,5662C1297,5669 1276,5718 1256,5770C1236,5822 1206,5895 1189,5933C1153,6011 1153,6060 1185,6265C1203,6380 1203,6389 1187,6455C1177,6497 1156,6546 1135,6576C1116,6604 1100,6633 1100,6641C1100,6667 1080,6680 1060,6668C1039,6654 994,6670 850,6739L756,6785L845,6796C947,6808 952,6807 1000,6768C1037,6738 1070,6731 1070,6754C1070,6762 1045,6790 1014,6817L958,6865L963,6955C968,7050 1007,7219 1066,7403C1085,7462 1104,7510 1108,7510C1113,7510 1121,7390 1128,7243ZM2691,5825C2680,5731 2668,5640 2664,5622C2658,5593 2662,5585 2700,5550C2724,5528 2741,5508 2739,5505C2736,5503 2708,5519 2675,5541L2616,5581L2476,5580C2398,5579 2330,5579 2323,5580C2310,5580 2269,5646 2277,5654C2281,5657 2323,5660 2371,5660L2459,5660L2582,5847C2665,5974 2706,6027 2708,6014C2710,6003 2702,5918 2691,5825ZM1920,5795C1991,5778 2167,5695 2215,5655C2239,5635 2229,5638 2163,5670C2063,5719 1979,5740 1879,5740C1783,5740 1729,5724 1563,5645C1371,5553 1293,5528 1185,5524L1095,5520L1165,5545C1204,5559 1286,5584 1348,5600C1513,5644 1675,5717 1755,5784C1790,5814 1827,5816 1920,5795ZM2012,5681C2093,5660 2194,5614 2249,5571C2282,5546 2291,5545 2439,5539C2562,5535 2602,5530 2630,5516C2704,5477 2787,5410 2834,5350C2861,5316 2897,5282 2914,5275L2945,5262L2895,5240C2814,5205 2787,5204 2718,5235C2668,5258 2641,5263 2576,5264C2527,5264 2482,5259 2462,5251C2444,5244 2427,5240 2424,5243C2421,5246 2414,5279 2410,5317C2398,5407 2373,5490 2354,5497C2329,5506 2327,5494 2345,5433C2365,5366 2376,5244 2366,5205C2347,5131 2157,5139 2121,5216C2103,5257 2108,5330 2136,5395C2171,5478 2171,5486 2136,5482C2065,5474 1951,5385 1910,5304C1874,5233 1874,5116 1912,5044C1945,4982 1999,4932 2075,4895C2127,4869 2130,4866 2110,4858C2068,4843 1985,4838 1945,4849C1883,4865 1796,4922 1792,4947C1790,4959 1801,4992 1815,5021C1862,5112 1846,5174 1768,5213C1735,5229 1719,5230 1573,5219C1337,5202 1281,5208 1179,5258C1133,5281 1069,5322 1037,5350C1005,5377 970,5400 959,5400C928,5400 889,5424 845,5470L805,5512L850,5507C1078,5480 1154,5476 1251,5487C1348,5498 1359,5502 1529,5585C1768,5702 1858,5720 2012,5681ZM789,5466C831,5423 832,5397 791,5419C753,5440 712,5510 738,5510C742,5510 765,5490 789,5466ZM2090,5395C2039,5312 2059,5192 2135,5135C2181,5099 2261,5090 2308,5114C2357,5139 2363,5136 2356,5089C2344,5012 2312,4953 2272,4934C2225,4912 2137,4912 2085,4934C1958,4988 1893,5153 1950,5278C1972,5326 2072,5430 2096,5430C2109,5430 2108,5424 2090,5395ZM3350,5300L3288,5220L3229,5252C3196,5270 3170,5288 3170,5291C3170,5295 3205,5313 3248,5330C3290,5348 3343,5370 3365,5379C3387,5389 3406,5393 3408,5389C3410,5384 3384,5344 3350,5300ZM862,5353C887,5338 804,5273 774,5284C757,5290 756,5323 771,5352C780,5369 788,5371 818,5365C838,5361 858,5356 862,5353ZM2974,5337C3031,5306 3056,5280 3028,5280C3000,5280 2890,5340 2890,5355C2890,5377 2908,5373 2974,5337ZM160,5331C160,5283 304,5124 374,5095C394,5087 438,5080 474,5080C538,5080 540,5081 597,5131C696,5219 721,5220 740,5141C750,5098 750,5086 737,5067C729,5055 708,5011 691,4969C638,4842 560,4781 450,4780C368,4780 229,4821 270,4833C349,4857 405,4877 418,4886C439,4901 424,4920 391,4920C329,4920 199,5037 155,5133C135,5174 130,5201 130,5266C130,5310 133,5350 136,5353C146,5363 160,5351 160,5331ZM1022,5287C1117,5219 1200,5183 1305,5162C1380,5148 1402,5148 1488,5159C1636,5179 1740,5184 1740,5172C1740,5166 1724,5152 1704,5139C1670,5118 1666,5118 1655,5133C1638,5157 1623,5154 1604,5125C1585,5096 1567,5094 1514,5116C1442,5146 1200,5114 1200,5075C1200,5068 1228,5049 1263,5032C1363,4985 1371,4975 1380,4889C1384,4849 1395,4795 1404,4771C1423,4720 1424,4710 1409,4710C1403,4710 1368,4697 1330,4680C1257,4648 1218,4643 1183,4663C1129,4693 998,4825 951,4897C879,5007 882,5016 979,4979C1067,4946 1086,4933 1100,4898C1130,4817 1130,4817 1185,4824C1233,4829 1238,4828 1284,4790C1337,4746 1350,4741 1350,4767C1350,4792 1243,4890 1174,4928C1032,5006 992,5021 915,5029C830,5037 823,5043 790,5128C760,5206 763,5218 813,5239C855,5257 920,5313 920,5331C920,5351 952,5337 1022,5287ZM3180,5230C3213,5214 3271,5172 3310,5137C3449,5011 3502,4997 3683,5040C3737,5052 3783,5060 3786,5058C3797,5047 3601,4880 3577,4880C3572,4880 3548,4900 3523,4925C3458,4992 3438,4982 3485,4905C3499,4883 3510,4862 3510,4859C3510,4840 3472,4843 3409,4865C3315,4898 3117,4950 3087,4950C3073,4950 3028,4928 2987,4900C2878,4829 2857,4820 2805,4820C2748,4820 2725,4832 2704,4872C2682,4915 2690,5002 2723,5073C2742,5115 2758,5134 2792,5154C2841,5183 3062,5259 3098,5260C3110,5260 3147,5247 3180,5230ZM2688,5204C2707,5200 2724,5192 2726,5185C2729,5178 2717,5151 2701,5124C2684,5097 2665,5051 2658,5023C2644,4966 2637,4961 2608,4986C2598,4996 2566,5007 2538,5011C2502,5017 2480,5026 2471,5040C2455,5064 2437,5066 2420,5045C2398,5018 2390,5042 2400,5109C2410,5181 2422,5198 2471,5211C2506,5220 2630,5216 2688,5204ZM1796,5115C1800,5100 1793,5071 1777,5035C1750,4977 1731,4968 1689,4990C1664,5004 1665,5018 1692,5022C1704,5024 1715,5031 1718,5038C1720,5046 1708,5050 1676,5050C1616,5050 1618,5064 1679,5085C1706,5094 1736,5110 1745,5120C1769,5147 1788,5145 1796,5115ZM1481,5078C1531,5061 1603,5013 1700,4932C1747,4893 1814,4846 1849,4828C2003,4750 2203,4797 2363,4948C2394,4979 2423,5000 2427,4997C2436,4987 2414,4899 2388,4844C2357,4777 2267,4687 2187,4643C2150,4622 2120,4601 2120,4595C2120,4589 2178,4582 2261,4578C2338,4574 2405,4568 2408,4565C2418,4555 2386,4534 2281,4482C2193,4438 2181,4435 2095,4432C1985,4428 1883,4451 1798,4501C1725,4544 1698,4571 1638,4664C1450,4957 1390,5035 1342,5046C1302,5056 1279,5070 1285,5081C1294,5094 1440,5092 1481,5078ZM2586,4954C2626,4935 2653,4895 2674,4820C2694,4750 2711,4593 2711,4470L2711,4375L2676,4343C2624,4295 2578,4287 2395,4293C2270,4297 2220,4303 2165,4320C2053,4355 2053,4372 2163,4385C2310,4401 2460,4499 2460,4579C2460,4607 2431,4620 2366,4620C2336,4620 2308,4625 2305,4630C2301,4636 2318,4659 2342,4683C2408,4747 2442,4812 2486,4958C2491,4975 2546,4973 2586,4954ZM3173,4890C3210,4861 3220,4813 3220,4665C3220,4547 3217,4530 3194,4480C3160,4406 3138,4390 3069,4390C3003,4390 2975,4410 2963,4467C2949,4532 2953,4802 2968,4828C2983,4854 3092,4910 3126,4910C3138,4910 3159,4901 3173,4890ZM1490,4796C1490,4791 1504,4765 1521,4738C1553,4685 1552,4659 1519,4700C1483,4745 1440,4825 1440,4845C1441,4862 1444,4861 1465,4835C1479,4819 1490,4801 1490,4796ZM2914,4763C2911,4736 2901,4696 2893,4672C2870,4604 2766,4420 2756,4430C2749,4437 2728,4777 2734,4787C2735,4788 2756,4784 2782,4778C2822,4768 2833,4770 2867,4788C2888,4799 2909,4809 2913,4809C2918,4810 2918,4789 2914,4763ZM3758,4648C3687,4499 3543,4352 3400,4282C3329,4248 3318,4246 3208,4242C3128,4239 3090,4241 3090,4248C3090,4254 3094,4261 3099,4264C3128,4282 3257,4509 3273,4571C3278,4589 3284,4591 3307,4586C3322,4583 3360,4577 3390,4574C3449,4567 3440,4563 3729,4717C3793,4750 3800,4735 3758,4648ZM1622,4539C1646,4527 1712,4487 1770,4450C1908,4362 1979,4326 2108,4283C2204,4251 2230,4247 2375,4239C2463,4235 2594,4231 2666,4230C2738,4230 2823,4225 2856,4219C2961,4200 3109,4114 3345,3934C3400,3893 3474,3842 3510,3822C3797,3661 4170,3783 4341,4096C4363,4137 4387,4170 4392,4170C4408,4170 4394,4020 4370,3925C4359,3882 4333,3812 4313,3771C4263,3670 4145,3551 4043,3497C3959,3453 3826,3421 3729,3420C3653,3420 3485,3449 3344,3486L3245,3512L3154,3601C3072,3681 3040,3704 3040,3683C3040,3663 3124,3568 3200,3502C3308,3409 3385,3358 3455,3335C3485,3324 3510,3312 3510,3308C3510,3276 3302,3277 3205,3309C2986,3382 2808,3516 2525,3823C2428,3928 2401,3941 2360,3900C2288,3828 2437,3592 2612,3504C2711,3454 2667,3446 2498,3484C2217,3548 1980,3734 1768,4055C1647,4240 1588,4336 1539,4426C1460,4573 1440,4604 1428,4592C1421,4585 1437,4541 1479,4453C1513,4382 1540,4317 1540,4308C1540,4280 1444,4185 1383,4153C1323,4121 1170,4084 1143,4094C1129,4100 1131,4104 1151,4126C1164,4140 1203,4175 1238,4203C1298,4252 1315,4280 1285,4280C1277,4280 1252,4267 1230,4251C1171,4209 1115,4197 1002,4202C912,4207 850,4223 850,4241C850,4245 867,4254 888,4261C998,4297 1116,4431 1141,4549C1156,4619 1163,4627 1194,4611C1214,4600 1227,4601 1282,4619C1318,4631 1367,4653 1391,4669L1435,4697L1507,4629C1547,4591 1599,4551 1622,4539ZM1094,4531C1070,4467 1022,4399 974,4359C936,4327 908,4312 818,4276C777,4260 772,4249 795,4230C808,4220 794,4210 712,4170C593,4111 482,4014 454,3945C443,3920 431,3902 425,3903C402,3911 378,4004 383,4070C394,4238 470,4313 737,4419C911,4488 952,4511 1030,4587L1105,4658L1108,4617C1110,4595 1104,4556 1094,4531ZM2920,4538C2920,4451 2939,4406 2990,4372C3018,4353 3034,4349 3073,4353C3099,4355 3120,4355 3120,4352C3120,4341 3047,4259 3029,4249C3008,4238 2946,4247 2843,4277C2748,4303 2737,4341 2800,4421C2821,4448 2854,4502 2872,4540C2890,4578 2908,4609 2913,4609C2917,4610 2920,4577 2920,4538ZM1698,4090C1873,3825 2002,3680 2150,3584C2323,3473 2552,3406 2679,3430C2709,3435 2736,3443 2739,3446C2751,3457 2720,3486 2655,3525C2553,3585 2450,3686 2411,3763C2376,3832 2374,3863 2403,3868C2426,3873 2446,3855 2523,3765C2619,3652 2700,3571 2779,3508C2932,3385 3096,3293 3208,3266L3277,3249L3283,3117C3287,3044 3294,2886 3300,2765C3305,2644 3312,2528 3315,2508C3318,2487 3316,2470 3312,2470C3307,2470 3281,2503 3255,2543C3229,2582 3187,2641 3163,2672C3140,2703 3102,2763 3079,2804C3057,2846 3032,2880 3024,2880C2986,2880 2958,2757 2956,2577C2955,2456 2958,2423 2978,2355C2991,2311 3012,2255 3026,2231C3057,2176 3056,2163 3025,2184C2973,2218 2963,2173 2989,2019C3021,1833 3108,1613 3192,1507C3209,1486 3220,1466 3217,1463C3213,1460 3190,1470 3164,1485C3122,1510 3116,1511 3102,1496C3088,1482 3090,1474 3123,1408C3195,1262 3368,1013 3474,901C3600,770 3792,635 3846,642C3884,646 3904,683 3939,819C3956,882 3971,934 3973,936C3977,941 4002,817 4021,698C4030,635 4030,617 4020,605C3998,579 3942,560 3853,550C3740,537 3687,497 3629,377C3616,351 3601,330 3595,330C3589,330 3573,356 3560,388C3543,431 3517,464 3455,525C3411,569 3360,625 3344,650C3268,762 3010,1262 3010,1296C3010,1305 3002,1324 2992,1338C2974,1365 2951,1422 2925,1510C2918,1535 2900,1588 2885,1628C2813,1832 2758,2112 2740,2379C2723,2614 2705,2720 2682,2728C2675,2730 2666,2722 2662,2710C2654,2688 2654,2688 2636,2715C2597,2774 2457,2910 2435,2910C2397,2910 2276,2819 2092,2651L1989,2558L1947,2586C1877,2633 1715,2802 1679,2864C1649,2918 1645,2921 1633,2904C1626,2894 1620,2868 1619,2846C1619,2823 1617,2796 1615,2786C1608,2748 1631,2534 1650,2455C1701,2249 1848,2035 2032,1899C2069,1871 2102,1841 2105,1831C2117,1791 2016,1574 1869,1328C1673,1000 1519,787 1387,661L1351,627L1337,663C1316,713 1290,718 1238,682C1174,638 1149,607 1130,548C1115,501 1110,495 1083,492C1042,488 996,528 974,585C946,661 947,667 1125,1405C1242,1886 1423,2598 1436,2621C1443,2635 1463,2692 1480,2746C1538,2934 1591,3076 1654,3213C1685,3279 1693,3290 1715,3290C1729,3290 1740,3293 1740,3298C1740,3302 1728,3346 1715,3395C1619,3735 1561,3991 1545,4145C1538,4211 1551,4263 1574,4258C1582,4256 1638,4181 1698,4090ZM1120,4154C1120,4151 1106,4135 1089,4119C1040,4073 1053,4065 1171,4066C1250,4066 1291,4071 1340,4088C1431,4118 1483,4125 1496,4108C1506,4096 1557,3847 1568,3757C1572,3720 1572,3719 1544,3726C1485,3740 1354,3783 1325,3798C1309,3806 1273,3835 1247,3863C1214,3896 1195,3909 1188,3902C1160,3874 1330,3660 1428,3603C1452,3589 1468,3574 1463,3569C1449,3555 1223,3599 1137,3632C1039,3669 945,3739 905,3804C880,3845 875,3864 875,3914C876,3968 882,3986 923,4062L971,4149L1018,4153C1108,4160 1120,4160 1120,4154ZM5524,4028C5520,4021 5493,3986 5464,3950C5359,3818 5327,3746 5280,3541C5263,3467 5245,3399 5240,3391C5235,3382 5198,3342 5158,3302C5078,3223 5060,3215 4910,3190C4841,3178 4840,3178 4764,3097C4722,3052 4676,2998 4662,2977C4639,2943 4635,2940 4629,2956C4618,2984 4619,3195 4630,3287C4643,3388 4662,3435 4698,3454C4713,3461 4786,3487 4860,3510C4934,3533 5003,3559 5012,3567C5021,3575 5054,3631 5086,3691C5176,3865 5206,3900 5301,3950C5448,4026 5543,4059 5524,4028ZM4283,3429C4385,3378 4404,3333 4420,3106C4425,3023 4438,2909 4447,2852C4456,2796 4461,2747 4458,2744C4448,2734 4333,2798 4311,2825C4255,2898 4178,3155 4164,3322C4153,3445 4188,3476 4283,3429ZM5832,3276C5887,3256 5970,3192 5970,3168C5970,3132 5848,3032 5730,2971C5654,2931 5563,2895 5502,2880C5483,2875 5461,2865 5452,2857C5420,2831 5325,2782 5254,2757C5109,2705 4861,2641 4709,2616C4665,2608 4625,2622 4610,2649C4601,2667 4605,2676 4641,2715C4702,2781 4980,3009 5092,3084C5236,3181 5334,3225 5505,3270C5590,3293 5776,3296 5832,3276ZM4518,3220L4560,3181L4560,3096C4560,2969 4582,2810 4600,2810C4605,2810 4649,2863 4698,2928C4836,3110 4859,3126 5042,3165C5147,3188 5168,3182 5109,3148C5012,3091 4775,2907 4631,2776C4584,2734 4543,2700 4539,2700C4518,2700 4497,2798 4469,3025C4459,3113 4458,3260 4468,3260C4472,3260 4494,3242 4518,3220ZM3375,3173C3378,3158 3393,3121 3407,3091C3430,3043 3433,3025 3432,2936C3431,2798 3447,2566 3470,2386C3482,2295 3486,2232 3481,2227C3466,2212 3379,2266 3263,2362C3203,2410 3149,2450 3142,2450C3089,2450 3141,2269 3244,2097C3297,2008 3377,1926 3466,1868C3582,1793 3575,1771 3458,1839C3360,1896 3286,1956 3190,2056C3107,2142 3103,2149 3068,2250C3017,2395 3011,2422 3004,2530C2997,2626 3013,2764 3031,2776C3036,2779 3044,2771 3049,2758C3062,2722 3199,2543 3270,2467C3374,2355 3427,2329 3381,2411C3359,2449 3357,2467 3349,2723C3341,2993 3346,3213 3360,3205C3364,3202 3371,3188 3375,3173ZM3574,2877C3589,2857 3619,2831 3641,2820C3675,2802 3680,2795 3680,2765C3680,2747 3676,2728 3670,2725C3665,2722 3660,2704 3660,2685C3660,2666 3655,2639 3649,2623C3639,2597 3637,2597 3630,2615C3620,2642 3536,2901 3532,2920C3527,2938 3535,2930 3574,2877ZM3499,2822C3500,2794 3524,2716 3569,2602C3607,2504 3650,2386 3665,2338C3708,2201 3729,2201 3757,2337C3780,2452 3790,2449 3790,2327C3790,2215 3765,2068 3713,1885C3676,1749 3643,1727 3593,1802C3578,1825 3545,1859 3520,1878C3402,1965 3375,1989 3330,2045C3273,2117 3220,2211 3185,2303C3141,2420 3149,2423 3253,2324C3349,2231 3458,2165 3503,2172C3524,2175 3525,2179 3523,2250C3522,2291 3514,2377 3505,2440C3483,2603 3471,2784 3482,2788C3487,2790 3488,2820 3486,2853C3482,2896 3483,2907 3489,2890C3494,2876 3498,2845 3499,2822ZM1350,2552C1350,2539 1328,2443 1301,2337C1274,2231 1246,2117 1240,2083C1233,2048 1224,2020 1219,2020C1201,2020 1140,2271 1140,2343C1140,2361 1149,2399 1160,2428C1171,2457 1180,2495 1180,2513C1180,2563 1242,2731 1291,2812L1335,2885L1343,2730C1347,2645 1350,2565 1350,2552ZM2584,2718L2690,2600L2690,2523C2691,2320 2735,2000 2794,1775C2813,1704 2826,1641 2823,1637C2813,1621 2538,1685 2425,1730C2265,1793 2055,1924 1947,2029C1808,2162 1699,2376 1670,2567C1660,2638 1654,2798 1662,2805C1664,2807 1686,2783 1711,2752C1756,2696 1868,2591 1943,2535C1992,2499 1996,2501 2135,2630C2249,2736 2364,2828 2415,2854C2442,2868 2446,2868 2461,2852C2470,2843 2525,2782 2584,2718ZM3740,2681C3728,2572 3732,2518 3750,2550C3754,2558 3761,2589 3765,2617C3769,2646 3775,2672 3779,2675C3788,2680 3824,2451 3816,2443C3810,2437 3803,2453 3798,2485C3796,2496 3788,2505 3780,2505C3766,2505 3751,2461 3725,2346C3722,2331 3716,2321 3712,2324C3703,2333 3660,2510 3660,2538C3660,2551 3667,2574 3675,2589C3683,2605 3697,2651 3706,2691C3739,2840 3757,2835 3740,2681ZM4261,2757C4385,2727 4509,2659 4601,2573C4639,2537 4670,2503 4670,2497C4670,2492 4681,2472 4695,2455C4729,2409 4882,2100 4914,2012C4943,1929 4946,1898 4926,1881C4908,1866 4821,1894 4698,1956C4648,1981 4598,2000 4587,1998C4539,1991 4562,1867 4641,1709C4661,1668 4685,1628 4694,1621C4716,1602 4714,1596 4680,1583C4643,1569 4641,1544 4674,1473C4741,1330 4896,1150 5025,1067C5108,1014 5255,960 5325,957C5373,955 5375,956 5386,989L5397,1022L5419,985C5443,943 5441,920 5412,920C5374,920 5305,889 5272,857C5228,815 5183,750 5174,717C5166,685 5143,682 5055,706C4977,726 4924,758 4843,833C4606,1055 4313,1506 4211,1805C4180,1896 4127,2102 4116,2175C4103,2256 4098,2270 4084,2270C4073,2270 4070,2254 4070,2200L4070,2130L4017,2130C3954,2130 3935,2145 3924,2205C3920,2226 3909,2262 3900,2285C3889,2309 3880,2367 3876,2429C3872,2486 3860,2576 3849,2628C3826,2743 3826,2754 3847,2776C3873,2801 4128,2790 4261,2757ZM1105,2323C1126,2185 1146,2094 1173,2022L1203,1938L1176,1852C1162,1804 1136,1709 1120,1640C1103,1571 1084,1495 1077,1471L1065,1427L1039,1491C1013,1554 990,1579 990,1543C990,1533 1006,1488 1024,1443L1058,1361L1018,1195C996,1104 974,1030 970,1030C933,1030 899,1549 929,1645L938,1675L951,1643C970,1597 980,1602 981,1658C981,1684 985,1804 989,1925C997,2144 997,2145 1032,2235C1051,2285 1070,2333 1073,2343C1083,2372 1099,2362 1105,2323ZM3885,1912C3885,1646 3884,1632 3861,1565C3831,1477 3825,1471 3806,1507C3760,1597 3758,1879 3803,2007C3817,2046 3834,2105 3840,2137C3855,2207 3859,2215 3873,2201C3881,2193 3885,2102 3885,1912ZM3165,2012C3268,1916 3381,1834 3489,1775L3565,1735L3570,1610C3577,1467 3587,1439 3665,1352C3691,1323 3710,1297 3707,1294C3700,1286 3513,1335 3445,1362C3313,1414 3311,1415 3213,1575C3124,1719 3043,1939 3033,2065L3027,2135L3051,2115C3064,2104 3115,2057 3165,2012ZM4082,2072C4095,2059 4156,1850 4165,1788C4173,1733 4171,1731 4062,1705C3989,1688 3988,1688 3967,1709C3948,1728 3946,1743 3942,1884C3939,1969 3941,2051 3944,2066C3951,2092 3952,2093 4012,2087C4045,2084 4077,2077 4082,2072ZM5076,1905C5089,1878 5095,1864 5088,1875C5081,1886 5059,1911 5039,1930C5020,1950 5006,1972 5008,1979C5015,1999 5049,1962 5076,1905ZM4698,1891C4729,1876 4778,1855 4805,1845C4833,1835 4860,1823 4866,1818C4873,1813 4903,1744 4935,1665C4966,1585 4996,1518 5001,1515C5006,1511 5010,1503 5010,1495C5010,1484 4984,1490 4903,1518C4779,1561 4779,1561 4687,1745C4630,1860 4610,1920 4629,1920C4636,1920 4666,1907 4698,1891ZM5072,1814C5088,1739 5123,1645 5161,1574C5203,1497 5214,1425 5185,1414C5145,1398 5037,1508 5004,1597C4995,1623 4972,1682 4953,1728C4935,1773 4920,1812 4920,1815C4920,1818 4938,1820 4959,1820C4983,1820 5007,1828 5021,1840C5053,1866 5063,1861 5072,1814ZM5120,1815C5120,1810 5115,1812 5110,1820C5105,1828 5100,1840 5100,1845C5100,1851 5105,1848 5110,1840C5115,1832 5120,1821 5120,1815ZM5199,1628C5200,1618 5196,1610 5191,1610C5183,1610 5119,1780 5121,1797C5122,1811 5199,1646 5199,1628ZM3729,1678C3720,1577 3723,1559 3766,1493C3785,1465 3800,1434 3800,1424C3800,1403 3759,1320 3748,1320C3744,1320 3713,1355 3680,1397L3619,1473L3622,1594L3625,1714L3663,1723C3689,1729 3705,1740 3712,1756C3730,1796 3736,1766 3729,1678ZM3942,1325C3943,1204 3938,1081 3931,1035C3905,866 3859,727 3825,713C3817,710 3771,734 3723,765C3614,837 3455,996 3361,1128C3289,1230 3190,1387 3190,1402C3190,1416 3216,1411 3281,1381C3353,1349 3565,1279 3651,1260L3707,1247L3713,1051C3719,851 3730,780 3755,780C3763,780 3776,793 3785,810C3818,874 3920,1261 3920,1322C3920,1358 3887,1420 3869,1420C3863,1420 3860,1428 3863,1438C3865,1447 3877,1491 3889,1535C3901,1579 3913,1622 3917,1630C3930,1661 3941,1528 3942,1325ZM5266,1524C5263,1512 5267,1487 5274,1468C5289,1432 5309,1109 5295,1122C5291,1126 5269,1180 5245,1242C5202,1354 5202,1354 5221,1378C5235,1396 5240,1419 5240,1459C5240,1490 5243,1533 5247,1554C5253,1591 5254,1592 5262,1570C5267,1556 5269,1536 5266,1524ZM4923,1460C5029,1422 5126,1382 5140,1372C5157,1359 5178,1317 5207,1241C5260,1101 5283,1066 5317,1075C5339,1080 5341,1078 5338,1053C5335,1029 5330,1025 5300,1022C5214,1013 5030,1120 4907,1249C4838,1322 4710,1498 4710,1521C4710,1536 4727,1532 4923,1460ZM3830,1092C3801,978 3774,878 3769,870C3764,861 3760,932 3760,1036C3760,1237 3768,1282 3821,1365L3854,1415L3868,1357C3882,1299 3882,1299 3830,1092ZM5518,850C5607,809 5770,719 5770,710C5770,679 5258,658 5229,687C5213,703 5257,778 5307,819C5341,847 5407,877 5438,879C5445,880 5481,866 5518,850ZM924,575C933,537 940,501 940,497C940,486 766,499 699,514C668,521 653,529 658,536C662,542 714,574 775,608C860,656 887,667 896,657C902,651 915,614 924,575ZM1288,546C1287,494 1281,448 1277,443C1265,431 1190,515 1190,541C1190,564 1259,640 1280,640C1289,640 1291,615 1288,546ZM4063,508C4112,443 4222,198 4208,185C4205,182 4187,206 4167,237C4148,269 4095,344 4051,404C3969,515 3965,521 3977,533C3995,552 4040,539 4063,508ZM3441,488C3463,465 3489,433 3497,416C3512,388 3511,385 3490,368C3464,347 3327,303 3256,294C3212,288 3207,289 3213,304C3234,357 3370,530 3391,530C3396,530 3418,511 3441,488ZM3967,444C4033,367 4190,148 4190,131C4190,97 3925,167 3773,241C3639,305 3634,322 3713,424C3758,481 3795,500 3862,500C3919,500 3919,500 3967,444Z" style="fill:rgb(143,133,163);fill-rule:nonzero;stroke:rgb(143,133,163);stroke-width:10px;"/>
        <path d="M2278,3395C2217,3311 2148,3182 2152,3158C2155,3135 2155,3135 2173,3155C2207,3194 2350,3419 2350,3434C2350,3437 2341,3440 2330,3440C2318,3440 2297,3422 2278,3395Z" style="fill:rgb(143,133,163);fill-rule:nonzero;stroke:rgb(143,133,163);stroke-width:10px;"/>
        <path d="M1760,3180C1760,3152 1786,3104 1805,3097C1825,3089 1825,3131 1805,3170C1787,3204 1760,3210 1760,3180Z" style="fill:rgb(143,133,163);fill-rule:nonzero;stroke:rgb(143,133,163);stroke-width:10px;"/>
    </g>
</svg>
