<?xml version="1.0" encoding="UTF-8" standalone="no"?>
<!DOCTYPE svg PUBLIC "-//W3C//DTD SVG 1.1//EN" "http://www.w3.org/Graphics/SVG/1.1/DTD/svg11.dtd">
<svg width="100%" height="100%" viewBox="0 0 610 792" version="1.1" xmlns="http://www.w3.org/2000/svg" xmlns:xlink="http://www.w3.org/1999/xlink" xml:space="preserve" xmlns:serif="http://www.serif.com/" style="fill-rule:evenodd;clip-rule:evenodd;stroke-linejoin:round;stroke-miterlimit:2;">
    <g transform="matrix(0.1,0,0,-0.1,0,792)">
        <g transform="matrix(-1,0,0,1,6142.86,0)">
            <path d="M2230,7825C2230,7816 2252,7782 2279,7747C2341,7667 2370,7620 2370,7596C2370,7583 2357,7595 2331,7631C2257,7735 2119,7805 2029,7785C1988,7776 1996,7761 2063,7722C2132,7682 2178,7626 2270,7470C2338,7355 2383,7304 2451,7266C2502,7237 2465,7234 2387,7260C2273,7299 2207,7270 2300,7222C2364,7189 2407,7144 2441,7074C2476,7004 2478,6948 2446,6942C2417,6936 2340,7027 2258,7161C2173,7301 2115,7370 2052,7407C2013,7430 1995,7434 1934,7434C1857,7433 1800,7416 1800,7394C1800,7384 1813,7380 1840,7380C1921,7380 2028,7306 2099,7201C2119,7170 2160,7100 2189,7045C2256,6918 2356,6767 2410,6711C2447,6673 2555,6612 2610,6597C2629,6592 2631,6585 2628,6538L2625,6485L2584,6482C2539,6479 2532,6484 2436,6594C2327,6719 2292,6727 2198,6645C2163,6615 2121,6585 2104,6580C2053,6563 1976,6598 1880,6681C1818,6734 1795,6749 1787,6741C1770,6724 1827,6618 1891,6546C1942,6489 2029,6430 2063,6430C2086,6430 2085,6403 2061,6390C1998,6357 1929,6397 1803,6542C1650,6718 1522,6828 1504,6799C1501,6793 1512,6769 1529,6747C1545,6724 1589,6656 1626,6595C1792,6322 1907,6207 2045,6175C2137,6153 2177,6168 2259,6256C2302,6302 2336,6330 2349,6330C2360,6330 2401,6302 2440,6268C2578,6146 2640,6103 2699,6086C2798,6058 2835,6066 2908,6130C2964,6180 2991,6181 3037,6135C3078,6094 3076,6074 3030,6078C2979,6083 2952,6072 2935,6039C2920,6011 2921,6003 2946,5915C2961,5863 2971,5817 2967,5814C2959,5806 2913,5840 2805,5934C2721,6006 2663,6039 2618,6040C2576,6040 2576,6023 2617,5997C2688,5952 2750,5880 2815,5770C2904,5618 2995,5548 3103,5547C3171,5546 3214,5570 3250,5628C3314,5731 3320,5735 3371,5699C3388,5687 3400,5669 3400,5657C3400,5643 3365,5597 3309,5535C3260,5480 3148,5341 3061,5225C2776,4845 2554,4546 2498,4465C2441,4384 2233,4048 2125,3865C2093,3810 2040,3731 2007,3690C1932,3596 1922,3575 1938,3549C1948,3534 1948,3521 1939,3489C1926,3447 1935,3425 1961,3435C1983,3443 2021,3590 2001,3590C1983,3590 1988,3614 2008,3627C2032,3642 2146,3811 2240,3970C2435,4303 2539,4462 2688,4655C2718,4694 2807,4812 2886,4918C3071,5165 3150,5249 3243,5295C3353,5350 3415,5341 3483,5258C3571,5150 3626,5026 3742,4675C3838,4385 3875,4304 3947,4229C4017,4156 4080,4127 4175,4126C4234,4126 4256,4130 4313,4158C4351,4175 4393,4193 4408,4197C4439,4204 4546,4310 4556,4343C4566,4377 4577,4379 4627,4353C4653,4341 4681,4330 4689,4330C4732,4330 4785,4355 4821,4392L4860,4432L4895,4402C4944,4358 5008,4323 5058,4312C5089,4305 5135,4307 5230,4320C5481,4356 5846,4355 5937,4319L5965,4308L5933,4294C5894,4277 5883,4262 5907,4254C5917,4251 5934,4245 5945,4240C5964,4233 5963,4231 5938,4221C5921,4215 5910,4203 5910,4192C5910,4169 5843,4138 5746,4116C5696,4104 5637,4077 5527,4014C5268,3865 5094,3772 5043,3755C4956,3725 4808,3750 4589,3833C4436,3891 4350,3941 4350,3972C4350,3982 4368,4031 4391,4081C4413,4131 4429,4174 4426,4177C4411,4193 4386,4161 4341,4068C4218,3810 4109,3402 4080,3090C4068,2949 4067,2853 4079,2846C4092,2838 4100,2866 4107,2938C4110,2973 4116,2997 4120,2993C4125,2989 4140,2952 4154,2912C4207,2762 4266,2629 4387,2380C4526,2094 4534,2074 4555,1953C4588,1766 4567,1617 4485,1444C4448,1363 4428,1337 4326,1231C4262,1165 4210,1102 4210,1092C4210,1070 4252,1030 4351,958C4445,889 4547,794 4538,785C4534,781 4517,789 4500,804C4450,846 4432,835 4471,786C4487,765 4488,760 4476,760C4452,760 4305,808 4180,857C3945,949 3830,1024 3845,1074C3848,1086 3854,1120 3857,1151C3862,1203 3860,1209 3831,1242C3814,1261 3769,1294 3731,1314C3624,1370 3588,1365 3254,1255C3055,1189 2903,1119 2840,1064C2679,924 2577,880 2366,854C2218,837 2190,828 2190,802C2190,769 2017,271 1984,210L1971,185L1970,216C1970,233 1976,268 1984,293C1997,336 1996,350 1980,350C1976,350 1949,314 1921,270C1892,226 1865,188 1859,185C1847,177 1847,235 1861,321C1867,360 1869,399 1865,408C1859,423 1856,422 1839,401C1829,388 1820,365 1820,350C1820,320 1765,236 1750,245C1738,252 1766,350 1873,680C1950,916 1949,886 1882,969C1813,1053 1748,1179 1719,1287C1691,1389 1696,1483 1733,1557C1753,1596 1760,1624 1760,1668C1760,1715 1767,1741 1799,1806C1849,1909 2074,2301 2262,2612C2344,2748 2417,2875 2425,2894C2447,2947 2426,2948 2371,2897C2308,2838 2282,2824 2274,2845C2256,2890 2323,3112 2430,3360C2495,3512 2582,3694 2603,3721C2610,3729 2669,3772 2735,3815C2871,3904 3059,4041 3139,4109C3232,4187 3341,4350 3300,4350C3295,4350 3266,4320 3236,4283C3132,4153 2977,4023 2775,3895C2593,3780 2378,3585 2364,3522C2346,3438 2327,3422 2322,3485C2320,3504 2315,3520 2311,3520C2307,3520 2274,3498 2239,3472C2168,3418 2111,3386 2103,3394C2100,3397 2108,3420 2121,3445C2138,3477 2142,3492 2134,3500C2126,3508 2113,3499 2087,3470C2042,3421 2030,3419 2037,3465C2041,3493 2039,3500 2027,3500C2004,3500 1988,3465 1992,3422C1994,3391 1999,3384 2020,3382C2034,3380 2053,3370 2062,3360C2084,3337 2113,3344 2204,3395L2269,3431L2298,3410C2336,3382 2354,3391 2379,3453C2450,3626 2461,3607 2394,3428C2333,3266 2320,3227 2175,2805C2002,2298 1992,2272 1860,2015C1794,1888 1726,1747 1707,1703C1661,1594 1597,1501 1509,1412C1413,1316 1388,1308 1271,1338C1162,1366 1140,1366 1140,1339C1140,1314 1155,1285 1186,1247C1217,1210 1216,1200 1182,1200C1135,1200 1014,1164 965,1136C912,1105 852,1033 817,957C775,869 767,865 657,880C541,895 486,883 340,810C111,697 54,623 240,680C420,736 532,745 600,710C622,699 670,664 707,632C745,600 782,570 790,564C798,559 864,553 937,550L1069,545L1104,511C1124,492 1142,479 1146,482C1149,485 1157,517 1165,553C1186,655 1223,714 1285,748C1308,761 1345,764 1450,765C1600,765 1574,757 1774,864C1853,906 1865,910 1878,896C1891,883 1885,858 1827,678C1761,476 1707,281 1696,205C1684,128 1720,124 1769,196C1782,215 1796,230 1801,230C1806,230 1810,202 1810,167C1810,130 1816,96 1823,86C1836,69 1840,72 1873,126C1894,158 1910,188 1910,192C1910,196 1914,200 1919,200C1925,200 1930,181 1932,158C1934,127 1940,114 1952,112C1985,106 2044,228 2135,490C2215,724 2242,789 2258,795C2267,798 2327,808 2391,815C2590,840 2655,868 2835,1005C2917,1067 2982,1107 3036,1130C3141,1174 3445,1273 3541,1296L3618,1313L3676,1290C3756,1258 3809,1223 3819,1198C3824,1185 3821,1154 3812,1120C3784,1018 3813,979 3970,900C4168,801 4418,720 4526,720C4623,720 4623,769 4527,865C4493,898 4438,946 4405,970C4329,1025 4270,1081 4270,1096C4270,1103 4307,1146 4352,1193C4489,1333 4590,1527 4610,1687C4622,1783 4609,1942 4579,2053C4566,2101 4515,2217 4453,2344C4395,2460 4328,2598 4304,2651C4246,2777 4141,3054 4134,3100C4115,3216 4283,3900 4330,3900C4336,3900 4391,3876 4453,3846C4666,3743 4859,3692 4993,3703C5068,3709 5129,3738 5445,3918C5685,4054 5744,4080 5813,4080C5868,4080 5876,4083 5914,4117C5936,4137 5957,4159 5959,4164C5961,4170 5972,4183 5984,4192C6002,4207 6004,4212 5993,4240C5983,4267 5984,4274 6001,4291C6028,4318 6014,4334 5949,4355C5824,4397 5649,4409 5458,4389C5271,4370 5097,4350 5075,4344C5062,4341 5034,4353 4994,4380C4909,4437 4881,4469 4865,4529C4858,4557 4842,4596 4831,4616C4813,4646 4811,4661 4816,4718C4821,4775 4820,4788 4805,4800C4790,4813 4786,4812 4774,4795C4766,4785 4760,4768 4760,4758C4760,4739 4715,4690 4699,4690C4681,4690 4691,4716 4751,4823C4840,4980 4846,4986 4932,5000C5026,5016 5091,5010 5340,4960C5481,4932 5576,4919 5643,4917L5741,4915L5770,4947C5863,5050 5838,5392 5716,5709C5696,5760 5673,5841 5664,5888C5615,6147 5516,6377 5435,6420C5390,6444 5380,6418 5380,6278C5380,6203 5376,6160 5370,6160C5364,6160 5338,6171 5312,6184C5248,6217 5111,6263 5015,6286C4949,6302 4895,6305 4705,6305C4468,6305 4430,6301 4304,6258C4222,6230 4209,6236 4215,6297C4221,6350 4217,6344 4180,6247C4161,6198 4147,6181 4088,6135C4049,6105 4015,6080 4010,6080C4006,6080 4000,6098 3997,6119C3983,6230 3792,6379 3641,6397C3558,6407 3578,6371 3665,6355C3763,6338 3907,6233 3951,6148C3979,6093 3977,5994 3948,5950C3893,5869 3801,5828 3759,5866C3747,5877 3728,5905 3717,5930C3689,5989 3572,6110 3542,6110C3503,6110 3518,6083 3581,6038C3632,6002 3651,5980 3694,5905C3786,5744 3823,5639 3841,5487C3854,5371 3849,5228 3831,5206C3799,5168 3715,5205 3647,5285C3587,5357 3492,5530 3454,5639C3427,5717 3384,5760 3333,5760C3285,5760 3273,5751 3221,5672C3195,5634 3166,5603 3146,5594C3117,5580 3109,5580 3056,5595C2981,5617 2933,5661 2858,5774C2777,5897 2780,5903 2878,5819C2927,5777 2946,5770 2979,5782C3002,5790 3002,5792 2998,5908L2995,6025L3057,6028C3096,6030 3120,6036 3123,6044C3130,6061 3095,6139 3067,6168C3034,6204 2994,6221 2964,6214C2949,6210 2915,6187 2887,6162L2837,6118L2764,6122C2673,6128 2624,6155 2515,6260C2413,6358 2394,6370 2346,6370C2310,6370 2300,6364 2236,6296C2137,6193 2077,6185 1963,6260C1885,6311 1826,6374 1735,6505C1595,6706 1600,6720 1748,6542C1865,6401 1890,6378 1957,6344C2007,6319 2010,6319 2043,6335C2063,6344 2090,6369 2104,6390C2118,6412 2143,6439 2160,6451C2213,6491 2199,6497 2108,6475C2073,6466 2008,6497 1945,6552C1891,6599 1892,6612 1947,6576C2038,6517 2129,6521 2203,6589C2299,6677 2327,6671 2419,6546C2484,6459 2512,6440 2579,6440C2656,6440 2673,6458 2678,6548C2682,6606 2686,6619 2713,6648C2740,6676 2750,6680 2795,6680C2894,6680 3022,6619 3130,6521C3175,6480 3200,6470 3200,6492C3200,6512 3093,6607 3030,6644C2884,6730 2778,6741 2686,6682C2658,6664 2627,6650 2616,6650C2604,6650 2568,6663 2535,6679C2437,6725 2351,6834 2211,7090C2143,7213 2071,7310 2015,7350C1976,7378 1971,7390 1998,7390C2023,7390 2079,7347 2119,7297C2153,7254 2220,7153 2220,7145C2220,7135 2296,7022 2333,6977C2424,6868 2510,6875 2510,6993C2510,7047 2480,7115 2431,7169C2398,7206 2397,7218 2428,7201C2463,7182 2488,7189 2515,7224C2549,7268 2586,7275 2718,7260C2811,7250 2822,7251 2877,7271C2909,7283 2949,7294 2965,7297C3033,7307 3043,7311 3032,7322C3025,7329 2992,7334 2957,7334C2907,7334 2888,7329 2863,7311C2834,7289 2829,7289 2759,7299C2718,7305 2636,7309 2575,7308C2441,7304 2418,7314 2365,7397C2345,7429 2306,7491 2278,7535C2250,7579 2210,7639 2187,7668C2165,7697 2150,7723 2153,7727C2164,7737 2240,7679 2289,7623C2314,7594 2349,7545 2365,7514C2382,7483 2400,7459 2405,7461C2425,7469 2415,7574 2388,7638C2374,7672 2366,7700 2370,7700C2380,7700 2448,7593 2491,7510C2563,7371 2640,7328 2775,7351C2954,7381 3075,7374 3223,7325C3263,7312 3299,7304 3303,7307C3307,7310 3308,7333 3304,7358L3297,7405L3341,7359C3366,7334 3412,7301 3443,7286C3498,7259 3509,7257 3698,7251C3915,7243 3948,7235 4008,7177C4074,7114 4084,7083 4090,6904C4095,6747 4096,6743 4123,6706C4139,6686 4170,6657 4192,6643C4229,6618 4239,6616 4326,6618C4391,6620 4428,6616 4447,6607C4463,6599 4499,6587 4527,6580C4633,6556 4700,6478 4700,6380C4700,6353 4702,6330 4705,6330C4708,6330 4730,6340 4753,6351C4901,6426 4920,6563 4801,6693C4752,6746 4736,6753 4606,6780C4484,6805 4434,6831 4393,6894C4348,6961 4334,7014 4349,7065C4371,7138 4373,7160 4358,7160C4336,7160 4283,7100 4261,7050C4225,6970 4235,6931 4329,6785C4357,6741 4380,6698 4380,6688C4380,6677 4368,6670 4340,6665C4270,6653 4227,6667 4179,6716L4135,6761L4130,6923C4123,7111 4115,7137 4031,7213C3965,7271 3901,7287 3673,7299C3528,7306 3494,7311 3456,7330C3393,7360 3334,7430 3313,7499C3304,7530 3293,7559 3289,7564C3272,7584 3256,7522 3256,7442C3257,7369 3255,7360 3241,7366C3141,7410 2969,7421 2809,7394C2753,7384 2698,7380 2677,7384C2620,7395 2575,7442 2512,7558C2449,7676 2356,7782 2283,7819C2233,7844 2230,7844 2230,7825ZM4346,6892C4374,6837 4425,6789 4482,6766C4500,6758 4556,6744 4605,6735C4708,6716 4746,6696 4783,6642C4840,6561 4842,6496 4791,6441C4754,6401 4744,6402 4735,6447C4730,6473 4712,6499 4672,6539C4626,6584 4598,6602 4525,6630C4436,6665 4435,6665 4418,6714C4408,6740 4385,6781 4367,6804C4297,6891 4275,6948 4287,7008L4294,7045L4307,6995C4314,6968 4332,6921 4346,6892ZM5492,6272C5544,6162 5601,5992 5589,5985C5584,5981 5546,6013 5505,6054L5430,6130L5430,6250C5430,6338 5433,6369 5441,6364C5448,6360 5471,6319 5492,6272ZM4765,6270C4975,6251 5177,6200 5337,6124C5519,6037 5644,5845 5730,5519C5759,5408 5778,5290 5767,5290C5764,5290 5753,5314 5742,5343C5720,5400 5552,5657 5480,5742C5456,5771 5408,5820 5373,5851C5315,5904 5297,5913 5161,5962C5142,5969 5140,5973 5150,5985C5160,5997 5159,6001 5146,6006C5129,6012 5115,6011 4940,5990C4820,5975 4736,5983 4644,6019C4572,6047 4440,6132 4440,6151C4440,6163 4739,6163 4847,6150C4893,6145 4960,6132 4997,6121C5097,6092 5130,6087 5130,6099C5130,6155 4686,6235 4507,6211C4416,6199 4394,6185 4404,6146C4418,6089 4635,5960 4743,5945C4769,5941 4790,5936 4790,5933C4790,5931 4778,5912 4763,5893C4739,5862 4735,5847 4735,5795C4735,5719 4767,5664 4835,5624C4874,5602 4879,5595 4868,5583C4858,5570 4836,5569 4750,5572C4627,5578 4569,5599 4523,5654C4494,5689 4460,5777 4460,5816C4460,5873 4396,5875 4347,5821C4302,5771 4286,5721 4286,5635C4286,5578 4291,5555 4313,5513C4328,5484 4340,5456 4340,5450C4340,5445 4322,5440 4301,5440C4221,5440 4161,5525 4160,5637C4160,5706 4142,5737 4111,5721C4081,5704 4019,5629 3999,5586C3949,5473 3934,5283 3965,5170C4001,5039 3998,5026 3922,5015C3844,5004 3773,4966 3753,4926C3744,4907 3733,4893 3729,4896C3725,4898 3707,4937 3690,4983C3647,5095 3564,5243 3512,5302C3478,5339 3456,5353 3413,5366C3357,5382 3285,5379 3247,5358C3237,5353 3226,5351 3223,5354C3217,5360 3409,5570 3421,5570C3425,5570 3446,5540 3466,5503C3580,5293 3643,5212 3722,5172C3783,5142 3815,5144 3850,5178C3873,5201 3879,5219 3886,5276C3897,5375 3877,5568 3845,5670C3802,5808 3802,5806 3846,5820C3899,5838 3978,5915 4005,5975C4032,6036 4125,6125 4214,6175C4282,6213 4425,6253 4545,6269C4643,6281 4643,6281 4765,6270ZM5159,5915C5249,5882 5310,5848 5360,5803C5453,5719 5580,5540 5678,5355C5696,5322 5729,5270 5752,5240C5796,5181 5800,5162 5779,5076C5754,4970 5726,4947 5680,4995C5652,5024 5624,5029 5635,5003C5647,4970 5645,4965 5620,4962C5597,4959 5421,4989 5230,5027C5117,5049 4897,5050 4839,5027C4781,5005 4758,4980 4755,4937C4752,4880 4609,4692 4577,4703C4558,4709 4539,4790 4542,4850C4543,4880 4541,4910 4537,4917C4517,4948 4477,4895 4456,4811C4448,4775 4440,4765 4425,4765C4408,4765 4404,4773 4400,4820C4397,4850 4391,4875 4385,4875C4366,4875 4330,4807 4330,4769C4330,4746 4325,4730 4319,4730C4312,4730 4265,4771 4214,4822L4120,4914L4120,4977C4120,5035 4110,5055 4095,5030C4079,5004 4070,5026 4070,5088C4070,5165 4064,5177 4039,5154C4009,5127 3996,5169 3996,5300C3995,5424 4015,5511 4066,5612C4101,5682 4120,5672 4120,5585C4120,5530 4134,5493 4168,5457C4208,5415 4240,5401 4317,5394C4415,5385 4420,5395 4370,5495C4319,5596 4315,5667 4358,5750C4373,5780 4390,5806 4397,5808C4404,5810 4413,5789 4420,5756C4451,5608 4566,5530 4754,5530C4853,5530 4910,5542 4935,5567C4958,5589 4951,5600 4885,5645C4811,5695 4780,5739 4780,5794C4780,5849 4811,5897 4863,5921C4899,5938 4920,5940 5010,5936C5072,5934 5133,5925 5159,5915ZM4080,4859C4080,4721 4029,4650 3931,4650C3806,4650 3727,4762 3774,4874C3797,4930 3841,4954 3973,4984C3991,4988 4004,5000 4011,5017L4021,5044L4051,4992C4077,4947 4080,4931 4080,4859ZM4289,4695C4301,4692 4310,4685 4310,4680C4310,4670 4292,4664 4230,4655C4205,4651 4173,4642 4159,4634C4126,4617 4062,4547 4049,4512C4036,4479 4046,4380 4066,4331C4085,4286 4147,4211 4176,4198C4208,4183 4206,4170 4172,4170C4079,4170 3967,4253 3907,4368C3873,4432 3805,4618 3812,4625C3814,4627 3850,4624 3893,4618C3983,4606 4007,4611 4050,4646C4091,4681 4106,4713 4115,4783L4122,4841L4195,4772C4235,4733 4277,4699 4289,4695ZM4506,4681C4500,4619 4503,4594 4520,4546C4531,4513 4540,4469 4540,4448C4540,4337 4401,4210 4278,4210C4182,4210 4091,4319 4090,4435C4090,4543 4152,4608 4269,4624C4333,4632 4359,4653 4366,4701C4373,4746 4376,4747 4410,4721C4434,4702 4434,4701 4415,4681C4400,4664 4399,4657 4409,4647C4425,4631 4442,4654 4472,4731C4501,4807 4515,4787 4506,4681ZM4771,4623C4826,4538 4834,4481 4799,4436C4758,4384 4695,4367 4642,4394C4591,4420 4577,4445 4576,4508C4576,4611 4614,4649 4731,4659C4740,4659 4758,4643 4771,4623ZM2286,2775C2291,2763 2227,2653 2163,2561C2161,2559 2158,2559 2155,2562C2150,2567 2183,2669 2215,2748C2229,2781 2237,2790 2256,2790C2270,2790 2283,2783 2286,2775ZM1649,1353C1663,1255 1703,1122 1741,1048C1757,1016 1770,986 1770,980C1770,974 1754,962 1734,954C1705,942 1685,941 1624,950C1582,955 1498,963 1437,966C1343,972 1319,970 1293,956C1275,947 1243,940 1220,940L1180,940L1180,1020C1180,1097 1179,1101 1154,1110C1117,1124 1132,1137 1200,1151C1233,1157 1267,1168 1276,1175C1292,1186 1291,1189 1270,1218C1234,1266 1248,1284 1315,1275C1347,1271 1394,1273 1426,1280C1475,1290 1491,1300 1554,1361C1593,1398 1628,1430 1631,1430C1635,1430 1643,1395 1649,1353ZM1097,1093L1152,1076L1149,1003C1146,947 1149,927 1161,914C1184,892 1254,894 1319,920C1364,937 1378,939 1407,929C1426,923 1456,921 1474,924C1495,928 1518,924 1539,914C1565,901 1585,900 1651,907C1729,916 1731,916 1708,898C1637,844 1590,828 1477,819C1304,806 1265,800 1232,782C1190,759 1152,706 1135,645L1120,595L1002,596C938,596 875,598 863,598C851,599 797,630 743,666C602,763 584,769 460,770C346,770 344,774 440,811C486,829 514,832 610,830C820,826 801,818 862,924C919,1021 997,1103 1039,1109C1041,1110 1068,1102 1097,1093Z" style="fill:rgb(199,0,200);fill-rule:nonzero;stroke:rgb(199,0,200);stroke-width:20px;"/>
        </g>
        <g transform="matrix(-1,0,0,1,6142.86,0)">
            <path d="M4542,6118C4548,6102 4619,6075 4680,6065C4719,6059 4723,6060 4710,6072C4692,6090 4586,6130 4558,6130C4547,6130 4540,6125 4542,6118Z" style="fill:rgb(199,0,200);fill-rule:nonzero;stroke:rgb(199,0,200);stroke-width:20px;"/>
        </g>
        <g transform="matrix(-1,0,0,1,6142.86,0)">
            <path d="M5145,5631C5138,5619 5209,5560 5231,5560C5255,5560 5311,5535 5343,5510C5361,5495 5370,5479 5370,5459C5370,5419 5340,5420 5265,5465C5229,5487 5203,5497 5197,5491C5180,5474 5209,5443 5267,5417C5340,5384 5506,5339 5526,5347C5553,5357 5540,5389 5485,5448C5426,5512 5417,5527 5451,5510C5462,5503 5475,5501 5478,5505C5502,5528 5390,5600 5293,5624C5218,5642 5154,5645 5145,5631Z" style="fill:rgb(199,0,200);fill-rule:nonzero;stroke:rgb(199,0,200);stroke-width:20px;"/>
        </g>
        <g transform="matrix(-1,0,0,1,6142.86,0)">
            <path d="M4712,5280C4674,5245 4672,5163 4705,5083C4720,5048 4750,5038 4750,5068C4750,5079 4743,5102 4734,5120C4721,5146 4719,5163 4726,5198C4737,5255 4758,5269 4802,5251C4820,5244 4849,5235 4865,5233C4882,5230 4954,5202 5025,5170C5266,5064 5490,4989 5490,5015C5490,5022 5424,5053 5333,5088C5246,5121 5125,5171 5064,5199C4926,5261 4812,5300 4768,5300C4748,5300 4725,5292 4712,5280Z" style="fill:rgb(199,0,200);fill-rule:nonzero;stroke:rgb(199,0,200);stroke-width:20px;"/>
        </g>
        <g transform="matrix(-1,0,0,1,6142.86,0)">
            <path d="M5362,5153C5365,5134 5511,5058 5573,5042C5605,5034 5611,5034 5608,5047C5605,5062 5559,5088 5446,5139C5367,5175 5357,5176 5362,5153Z" style="fill:rgb(199,0,200);fill-rule:nonzero;stroke:rgb(199,0,200);stroke-width:20px;"/>
        </g>
        <g transform="matrix(-1,0,0,1,6142.86,0)">
            <path d="M3872,4889C3860,4884 3843,4865 3833,4846C3810,4798 3828,4758 3884,4731C3957,4696 4015,4729 4008,4802C4004,4845 3978,4846 3965,4803C3959,4779 3950,4770 3935,4770C3906,4770 3870,4798 3870,4821C3870,4844 3885,4846 3894,4825C3904,4798 3920,4809 3920,4844C3920,4885 3903,4901 3872,4889Z" style="fill:rgb(199,0,200);fill-rule:nonzero;stroke:rgb(199,0,200);stroke-width:20px;"/>
        </g>
        <g transform="matrix(-1,0,0,1,6142.86,0)">
            <path d="M4260,4578C4242,4565 4213,4538 4196,4517C4170,4484 4165,4471 4167,4429C4171,4342 4234,4260 4298,4260C4362,4260 4434,4309 4415,4340C4405,4356 4393,4352 4357,4320C4338,4304 4311,4290 4298,4290C4238,4290 4190,4370 4204,4445C4213,4489 4272,4552 4320,4566C4338,4571 4355,4581 4358,4588C4365,4609 4296,4602 4260,4578Z" style="fill:rgb(199,0,200);fill-rule:nonzero;stroke:rgb(199,0,200);stroke-width:20px;"/>
        </g>
        <g transform="matrix(-1,0,0,1,6142.86,0)">
            <path d="M4436,4544C4415,4489 4459,4388 4485,4430C4492,4442 4462,4548 4450,4555C4445,4558 4439,4553 4436,4544Z" style="fill:rgb(199,0,200);fill-rule:nonzero;stroke:rgb(199,0,200);stroke-width:20px;"/>
        </g>
        <g transform="matrix(-1,0,0,1,6142.86,0)">
            <path d="M4294,4526C4272,4510 4275,4505 4322,4482C4343,4471 4359,4454 4365,4433C4379,4392 4388,4383 4396,4404C4406,4431 4390,4491 4365,4516C4337,4544 4322,4546 4294,4526Z" style="fill:rgb(199,0,200);fill-rule:nonzero;stroke:rgb(199,0,200);stroke-width:20px;"/>
        </g>
        <g transform="matrix(-1,0,0,1,6142.86,0)">
            <path d="M4628,4529C4601,4514 4606,4472 4639,4439C4670,4409 4698,4403 4731,4420C4757,4434 4755,4449 4725,4460C4711,4465 4694,4485 4686,4505C4671,4541 4658,4547 4628,4529Z" style="fill:rgb(199,0,200);fill-rule:nonzero;stroke:rgb(199,0,200);stroke-width:20px;"/>
        </g>
        <g transform="matrix(-1,0,0,1,6142.86,0)">
            <path d="M3467,7209C3449,7199 3450,7195 3483,7161C3538,7104 3631,6973 3698,6857C3764,6745 3791,6722 3818,6756C3838,6784 3829,6988 3804,7054C3775,7128 3719,7187 3657,7205C3599,7222 3494,7224 3467,7209ZM3655,7161C3708,7137 3746,7092 3766,7027C3785,6965 3797,6800 3783,6800C3778,6800 3761,6826 3747,6858C3711,6936 3633,7052 3570,7123L3518,7180L3567,7180C3593,7180 3633,7171 3655,7161Z" style="fill:rgb(199,0,200);fill-rule:nonzero;stroke:rgb(199,0,200);stroke-width:20px;"/>
        </g>
        <g transform="matrix(-1,0,0,1,6142.86,0)">
            <path d="M2930,7112C2900,7102 2853,7082 2825,7068C2730,7020 2707,7016 2625,7035C2513,7062 2498,7046 2548,6955C2583,6890 2651,6844 2724,6835C2786,6827 2825,6832 2970,6867C3053,6887 3091,6891 3151,6887C3240,6881 3272,6867 3358,6793C3419,6741 3451,6731 3430,6769C3419,6791 3322,6880 3310,6880C3305,6880 3282,6908 3257,6943C3145,7100 3047,7150 2930,7112ZM3073,7065C3092,7056 3133,7025 3164,6997C3223,6941 3237,6913 3198,6926C3152,6941 3042,6933 2936,6905C2751,6858 2646,6878 2579,6971L2557,7003L2586,6996C2602,6992 2644,6987 2680,6984C2743,6979 2748,6980 2860,7035C2983,7095 3004,7098 3073,7065Z" style="fill:rgb(199,0,200);fill-rule:nonzero;stroke:rgb(199,0,200);stroke-width:20px;"/>
        </g>
        <g transform="matrix(-1,0,0,1,6142.86,0)">
            <path d="M3440,7107C3440,7099 3452,7083 3466,7069C3494,7043 3540,6960 3540,6936C3540,6917 3582,6888 3593,6899C3597,6903 3583,6945 3561,6991C3532,7050 3510,7082 3487,7098C3449,7123 3440,7125 3440,7107Z" style="fill:rgb(199,0,200);fill-rule:nonzero;stroke:rgb(199,0,200);stroke-width:20px;"/>
        </g>
        <g transform="matrix(-1,0,0,1,6142.86,0)">
            <path d="M3380,7062C3380,7047 3483,6930 3496,6930C3526,6930 3508,6973 3459,7021C3414,7065 3380,7083 3380,7062Z" style="fill:rgb(199,0,200);fill-rule:nonzero;stroke:rgb(199,0,200);stroke-width:20px;"/>
        </g>
        <g transform="matrix(-1,0,0,1,6142.86,0)">
            <path d="M3230,7037C3230,7018 3274,7000 3320,7000C3372,7000 3380,7017 3336,7035C3291,7054 3230,7055 3230,7037Z" style="fill:rgb(199,0,200);fill-rule:nonzero;stroke:rgb(199,0,200);stroke-width:20px;"/>
        </g>
        <g transform="matrix(-1,0,0,1,6142.86,0)">
            <path d="M3957,6974C3953,6970 3950,6941 3950,6909C3950,6877 3945,6839 3938,6825C3918,6781 3941,6778 3993,6818L4040,6854L4015,6878C4001,6890 3990,6909 3990,6918C3989,6942 3965,6982 3957,6974Z" style="fill:rgb(199,0,200);fill-rule:nonzero;stroke:rgb(199,0,200);stroke-width:20px;"/>
        </g>
        <g transform="matrix(-1,0,0,1,6142.86,0)">
            <path d="M3385,6890C3372,6869 3399,6855 3457,6855C3511,6855 3539,6871 3506,6883C3469,6898 3392,6902 3385,6890Z" style="fill:rgb(199,0,200);fill-rule:nonzero;stroke:rgb(199,0,200);stroke-width:20px;"/>
        </g>
        <g transform="matrix(-1,0,0,1,6142.86,0)">
            <path d="M2872,6781C2854,6778 2841,6771 2842,6765C2848,6745 2980,6759 2980,6780C2980,6791 2926,6791 2872,6781Z" style="fill:rgb(199,0,200);fill-rule:nonzero;stroke:rgb(199,0,200);stroke-width:20px;"/>
        </g>
        <g transform="matrix(-1,0,0,1,6142.86,0)">
            <path d="M3150,6762C3150,6743 3179,6730 3265,6709C3395,6678 3424,6695 3334,6751C3304,6769 3297,6770 3265,6759C3237,6749 3223,6749 3197,6758C3158,6772 3150,6773 3150,6762Z" style="fill:rgb(199,0,200);fill-rule:nonzero;stroke:rgb(199,0,200);stroke-width:20px;"/>
        </g>
        <g transform="matrix(-1,0,0,1,6142.86,0)">
            <path d="M3068,6703C3020,6691 3071,6660 3178,6634C3218,6625 3253,6620 3257,6623C3283,6650 3124,6717 3068,6703Z" style="fill:rgb(199,0,200);fill-rule:nonzero;stroke:rgb(199,0,200);stroke-width:20px;"/>
        </g>
        <g transform="matrix(-1,0,0,1,6142.86,0)">
            <path d="M4010,6564C4010,6556 4015,6529 4021,6504C4031,6466 4039,6456 4073,6440C4095,6429 4116,6422 4118,6425C4121,6427 4109,6445 4091,6465C4061,6500 4052,6520 4068,6520C4072,6520 4098,6498 4125,6470C4176,6418 4190,6410 4190,6434C4190,6454 4153,6497 4098,6541C4046,6582 4010,6591 4010,6564Z" style="fill:rgb(199,0,200);fill-rule:nonzero;stroke:rgb(199,0,200);stroke-width:20px;"/>
        </g>
        <g transform="matrix(-1,0,0,1,6142.86,0)">
            <path d="M2857,6542C2847,6532 2840,6518 2840,6511C2840,6504 2827,6486 2810,6470L2781,6443L2888,6432C2947,6426 3007,6418 3023,6414C3044,6409 3050,6411 3050,6424C3050,6448 2971,6531 2933,6546C2890,6564 2876,6564 2857,6542ZM2940,6498C2967,6481 2971,6475 2957,6472C2937,6468 2870,6488 2870,6499C2870,6526 2896,6525 2940,6498Z" style="fill:rgb(199,0,200);fill-rule:nonzero;stroke:rgb(199,0,200);stroke-width:20px;"/>
        </g>
        <g transform="matrix(-1,0,0,1,6142.86,0)">
            <path d="M2600,6396C2600,6389 2625,6372 2655,6360C2687,6347 2710,6331 2710,6323C2710,6314 2704,6310 2696,6313C2688,6316 2665,6322 2646,6326C2597,6335 2599,6316 2650,6290C2701,6264 2740,6264 2747,6290C2753,6313 2770,6316 2788,6298C2805,6281 2824,6302 2815,6328C2807,6357 2756,6386 2692,6399C2622,6414 2600,6413 2600,6396Z" style="fill:rgb(199,0,200);fill-rule:nonzero;stroke:rgb(199,0,200);stroke-width:20px;"/>
        </g>
        <g transform="matrix(-1,0,0,1,6142.86,0)">
            <path d="M3280,6391C3280,6366 3434,6337 3503,6349C3559,6358 3549,6374 3483,6381C3358,6395 3280,6398 3280,6391Z" style="fill:rgb(199,0,200);fill-rule:nonzero;stroke:rgb(199,0,200);stroke-width:20px;"/>
        </g>
        <g transform="matrix(-1,0,0,1,6142.86,0)">
            <path d="M3440,6305C3440,6290 3452,6267 3466,6253C3491,6228 3495,6227 3586,6233C3691,6239 3691,6239 3704,6169C3710,6135 3754,6080 3766,6092C3769,6096 3765,6109 3757,6122C3749,6134 3739,6161 3736,6180C3732,6199 3720,6226 3709,6240C3690,6262 3678,6266 3598,6271C3520,6277 3505,6281 3481,6304C3447,6337 3440,6337 3440,6305Z" style="fill:rgb(199,0,200);fill-rule:nonzero;stroke:rgb(199,0,200);stroke-width:20px;"/>
        </g>
        <g transform="matrix(-1,0,0,1,6142.86,0)">
            <path d="M2385,6138C2352,6109 2336,6045 2353,6010C2370,5976 2387,5979 2408,6020C2421,6046 2435,6058 2467,6068C2521,6085 2526,6103 2489,6135C2451,6166 2419,6167 2385,6138Z" style="fill:rgb(199,0,200);fill-rule:nonzero;stroke:rgb(199,0,200);stroke-width:20px;"/>
        </g>
        <g transform="matrix(-1,0,0,1,6142.86,0)">
            <path d="M3333,5914C3325,5891 3341,5880 3396,5871C3463,5861 3489,5843 3511,5792C3528,5752 3553,5730 3567,5743C3570,5747 3565,5761 3556,5774C3547,5788 3540,5806 3540,5813C3540,5849 3419,5930 3365,5930C3351,5930 3337,5923 3333,5914Z" style="fill:rgb(199,0,200);fill-rule:nonzero;stroke:rgb(199,0,200);stroke-width:20px;"/>
        </g>
        <g transform="matrix(-1,0,0,1,6142.86,0)">
            <path d="M3044,5835C3035,5812 3049,5754 3069,5728C3095,5697 3104,5709 3091,5757C3086,5778 3078,5807 3075,5823C3069,5852 3053,5859 3044,5835Z" style="fill:rgb(199,0,200);fill-rule:nonzero;stroke:rgb(199,0,200);stroke-width:20px;"/>
        </g>
        <g transform="matrix(-1,0,0,1,6142.86,0)">
            <path d="M3447,4598C3412,4560 3332,4415 3341,4406C3354,4393 3380,4414 3405,4456C3419,4480 3449,4520 3471,4546C3510,4592 3518,4619 3492,4628C3485,4630 3465,4617 3447,4598Z" style="fill:rgb(199,0,200);fill-rule:nonzero;stroke:rgb(199,0,200);stroke-width:20px;"/>
        </g>
        <g transform="matrix(-1,0,0,1,6142.86,0)">
            <path d="M5746,4322C5734,4311 5741,4300 5770,4285C5803,4268 5810,4250 5782,4250C5763,4250 5740,4232 5740,4217C5740,4200 5822,4218 5844,4239L5864,4260L5839,4285C5814,4310 5757,4333 5746,4322Z" style="fill:rgb(199,0,200);fill-rule:nonzero;stroke:rgb(199,0,200);stroke-width:20px;"/>
        </g>
        <g transform="matrix(-1,0,0,1,6142.86,0)">
            <path d="M3231,1794C3187,1757 3154,1696 3136,1618C3127,1581 3093,1496 3060,1430C2993,1297 2984,1261 3026,1301C3052,1325 3263,1742 3276,1793C3284,1827 3271,1828 3231,1794Z" style="fill:rgb(199,0,200);fill-rule:nonzero;stroke:rgb(199,0,200);stroke-width:20px;"/>
        </g>
    </g>
</svg>
