<?xml version="1.0" encoding="UTF-8" standalone="no"?>
<!DOCTYPE svg PUBLIC "-//W3C//DTD SVG 1.1//EN" "http://www.w3.org/Graphics/SVG/1.1/DTD/svg11.dtd">
<svg width="100%" height="100%" viewBox="0 0 678 744" version="1.1" xmlns="http://www.w3.org/2000/svg" xmlns:xlink="http://www.w3.org/1999/xlink" xml:space="preserve" xmlns:serif="http://www.serif.com/" style="fill-rule:evenodd;clip-rule:evenodd;stroke-linejoin:round;stroke-miterlimit:2;">
    <g transform="matrix(0.1,0,0,-0.1,0,744)">
        <path d="M3015,7338C2948,7294 2811,7162 2737,7070C2704,7029 2674,6994 2669,6992C2665,6990 2656,6999 2649,7012C2596,7112 2420,7287 2385,7274C2352,7261 2334,7181 2315,6964C2308,6878 2300,6806 2297,6803C2294,6801 2256,6826 2212,6859C2168,6893 2122,6920 2110,6920C2090,6920 2088,6916 2093,6883C2109,6787 2188,6596 2269,6460C2314,6384 2433,6227 2502,6155C2523,6133 2540,6112 2540,6109C2540,6105 2511,6097 2475,6091C2323,6064 2066,5957 1865,5835C1563,5652 1259,5325 1132,5044C1082,4933 1090,4904 1162,4941C1214,4968 1346,5056 1355,5070C1365,5087 1393,5082 1386,5064C1383,5055 1377,5031 1374,5009C1369,4979 1371,4969 1384,4964C1404,4957 1517,5009 1582,5055C1608,5074 1634,5090 1639,5090C1643,5090 1650,5057 1653,5018C1657,4978 1662,4933 1666,4918C1674,4882 1652,4881 1620,4915C1607,4929 1588,4940 1577,4940C1560,4940 1558,4935 1562,4893C1565,4866 1579,4817 1594,4783C1610,4749 1619,4717 1616,4712C1613,4706 1580,4693 1543,4681C1464,4657 1290,4571 1192,4507C1155,4483 1070,4412 1002,4349C934,4286 842,4203 798,4163C670,4050 540,3996 322,3965C208,3949 180,3938 180,3911C180,3861 303,3798 438,3779C481,3773 518,3765 522,3761C526,3758 517,3730 503,3700C486,3664 475,3618 470,3565C461,3465 455,3451 385,3365C326,3294 281,3209 261,3133C231,3024 329,2987 474,3053C521,3075 530,3083 530,3104C530,3137 516,3137 448,3105C383,3075 349,3073 325,3100C307,3120 307,3122 329,3168C362,3235 477,3397 505,3416C518,3424 559,3436 597,3442C634,3447 687,3461 713,3472C739,3484 764,3490 767,3486C771,3483 768,3456 760,3427C732,3318 751,3234 810,3210C881,3181 1021,3232 1125,3325C1153,3349 1178,3370 1181,3370C1184,3370 1190,3330 1193,3281C1201,3175 1213,3144 1253,3131C1306,3112 1354,3128 1421,3186C1456,3216 1487,3240 1491,3240C1495,3240 1503,3217 1510,3189C1520,3150 1529,3134 1554,3119C1601,3090 1631,3095 1683,3140C1708,3162 1731,3177 1733,3173C1744,3154 1729,3105 1697,3057C1678,3028 1646,2974 1625,2936C1603,2896 1557,2836 1514,2793C1453,2730 1437,2719 1413,2722L1385,2725L1382,2857C1380,2985 1380,2992 1410,3061C1442,3136 1447,3160 1430,3160C1424,3160 1402,3122 1380,3075C1346,3000 1329,2979 1244,2898C1191,2847 1131,2794 1111,2781C1091,2768 1053,2741 1025,2720C952,2666 898,2646 863,2657C839,2665 835,2672 836,2701C838,2750 876,2873 910,2940C926,2972 965,3036 996,3081C1061,3177 1067,3190 1048,3190C1033,3190 949,3078 886,2973C857,2924 840,2906 806,2891C782,2881 739,2856 710,2836C681,2816 652,2800 644,2800C637,2800 611,2790 587,2779C535,2753 490,2759 490,2790C490,2814 545,2965 564,2995C571,3006 585,3044 594,3077C602,3111 632,3176 659,3221C703,3295 715,3331 690,3315C672,3304 590,3168 533,3054C455,2899 414,2775 431,2743C472,2666 638,2699 772,2811C798,2832 821,2850 824,2850C827,2850 818,2825 804,2794C767,2711 763,2661 789,2628C817,2592 864,2584 928,2604C1071,2646 1210,2750 1295,2878C1327,2927 1341,2925 1329,2873C1324,2852 1320,2802 1320,2763C1320,2680 1335,2656 1393,2645C1439,2636 1489,2659 1541,2712C1593,2765 1692,2916 1722,2987C1734,3016 1747,3040 1751,3040C1755,3040 1761,3019 1765,2994C1780,2894 1840,2721 1914,2570C1939,2518 1960,2468 1960,2460C1960,2426 1898,2196 1850,2050C1764,1790 1662,1599 1552,1492C1485,1427 1432,1401 1365,1400C1308,1400 1275,1422 1246,1478C1224,1520 1208,1526 1175,1504C1096,1452 1081,1285 1146,1173C1175,1123 1241,1064 1287,1049C1326,1036 1323,1027 1267,998C1229,979 1203,976 980,970C746,964 732,962 680,938C560,883 440,761 405,660C380,588 376,426 397,365C421,299 442,296 500,349C560,404 659,451 718,453L764,455L776,383C792,293 834,212 874,195C914,178 925,184 966,246C985,275 1031,326 1067,360L1133,422L1204,413C1338,398 1375,403 1525,457C1832,568 2081,599 2435,570C2580,558 2724,517 2822,459C2897,415 2910,412 2933,438C2947,453 2950,480 2950,596C2950,729 2949,738 2920,798C2886,870 2803,963 2748,991C2727,1002 2710,1015 2710,1020C2710,1025 2721,1045 2733,1064C2764,1109 2786,1208 2773,1247C2764,1272 2758,1275 2726,1273L2689,1271L2697,1308C2716,1395 2694,1474 2645,1500C2619,1514 2580,1499 2580,1476C2580,1454 2516,1390 2485,1381C2445,1371 2393,1385 2379,1412C2358,1450 2374,1671 2404,1772C2448,1922 2586,2281 2599,2279C2602,2279 2625,2247 2650,2208C2709,2115 2799,2020 2827,2020C2868,2020 2875,2052 2880,2270L2885,2475L2924,2410C2989,2303 3040,2239 3176,2099C3222,2052 3261,2002 3264,1989C3344,1611 3363,1399 3329,1263C3306,1175 3226,1147 3125,1194C3058,1224 3036,1218 3022,1166C2993,1063 3092,873 3192,838L3222,827L3176,787C3123,742 3078,661 3053,567C3041,518 3039,477 3043,373C3050,219 3061,173 3105,123C3148,73 3173,81 3240,165C3326,273 3456,371 3604,440C3749,508 3780,513 3990,507C4092,504 4193,496 4215,490C4279,471 4471,372 4520,332C4545,311 4616,249 4678,193C4749,128 4800,90 4814,90C4885,90 4912,343 4861,542C4823,690 4747,798 4647,848C4621,861 4600,876 4600,881C4600,886 4616,910 4635,935C4675,988 4693,1040 4688,1090C4685,1120 4681,1125 4656,1128C4640,1130 4610,1124 4588,1114C4567,1105 4548,1099 4545,1102C4542,1105 4551,1127 4564,1151C4619,1250 4617,1410 4561,1410C4550,1410 4519,1394 4490,1375C4447,1346 4429,1340 4386,1340C4290,1340 4190,1423 4109,1568C4064,1651 3875,2121 3854,2204L3847,2234L3891,2207C4029,2122 4157,2072 4191,2091C4202,2096 4210,2111 4210,2125C4210,2193 4065,2506 3928,2735C3813,2928 3715,3068 3582,3234C3509,3325 3490,3353 3496,3362C3507,3380 3523,3366 3592,3273C3774,3024 3988,2870 4149,2870C4203,2870 4226,2885 4236,2926C4248,2975 4233,3262 4216,3318C4206,3347 4200,3376 4202,3382C4204,3388 4230,3360 4259,3319C4326,3226 4566,2987 4644,2936C4722,2885 4789,2860 4851,2860C4956,2860 4994,2907 4993,3035C4993,3162 4953,3324 4887,3472C4873,3504 4865,3532 4869,3535C4874,3537 4897,3513 4922,3481C5010,3368 5259,3171 5405,3099C5544,3031 5622,3029 5687,3092C5750,3153 5753,3212 5698,3380C5664,3487 5596,3627 5538,3713C5516,3745 5501,3774 5504,3777C5507,3780 5529,3765 5552,3744C5711,3597 5980,3470 6135,3467C6196,3465 6212,3469 6259,3496C6296,3517 6317,3536 6323,3555C6336,3592 6307,3736 6275,3801C6222,3905 6114,4054 6014,4160C5977,4199 5950,4233 5953,4237C5957,4240 6008,4224 6067,4202C6216,4144 6319,4120 6430,4114C6509,4109 6531,4112 6559,4127C6638,4169 6662,4265 6618,4362C6565,4476 6356,4719 6245,4795C6195,4830 6177,4850 6198,4850C6202,4850 6234,4840 6270,4828C6324,4810 6359,4806 6480,4806C6615,4805 6628,4807 6663,4829C6705,4854 6740,4914 6740,4958C6740,5077 6451,5359 6194,5490L6115,5530L6185,5523C6224,5518 6290,5515 6332,5516C6400,5516 6414,5520 6450,5545C6596,5646 6512,5813 6220,6007C6028,6134 5789,6235 5580,6276C5533,6285 5492,6298 5488,6304C5484,6310 5478,6340 5474,6370C5458,6511 5405,6659 5354,6706C5286,6770 5167,6811 5015,6825C4958,6830 4913,6841 4858,6866C4739,6917 4668,6933 4550,6934C4435,6935 4376,6918 4351,6877C4314,6819 4332,6663 4390,6530C4407,6492 4420,6453 4420,6443C4420,6433 4400,6400 4375,6370C4294,6272 4264,6178 4276,6066C4284,5996 4313,5958 4392,5914C4444,5886 4449,5885 4587,5885C4665,5885 4730,5883 4733,5880C4750,5861 4793,5760 4805,5708C4843,5547 4806,5363 4693,5148C4650,5066 4559,4965 4475,4905C4365,4826 4153,4735 4033,4715C3983,4707 3981,4713 4009,4768C4063,4874 4058,5130 4002,5130C3980,5130 3964,5113 3926,5050L3898,5005L3904,5054C3907,5081 3910,5144 3910,5195L3910,5287L3978,5293C4037,5298 4055,5295 4135,5265C4290,5208 4409,5175 4421,5187C4435,5201 4426,5216 4370,5277C4302,5351 4286,5370 4291,5375C4294,5377 4329,5370 4370,5360C4462,5336 4480,5335 4480,5356C4480,5393 4242,5593 4028,5736C3907,5817 3674,5935 3520,5994C3412,6034 3165,6100 3118,6100C3093,6100 3090,6102 3099,6114C3106,6122 3133,6140 3160,6154C3338,6247 3560,6440 3560,6501C3560,6525 3544,6528 3442,6516L3379,6509L3456,6610C3555,6740 3622,6852 3644,6924C3660,6976 3661,6983 3647,6997C3634,7010 3624,7010 3557,6996C3516,6988 3456,6971 3423,6959C3326,6924 3300,6916 3295,6922C3292,6925 3278,6968 3265,7018C3212,7217 3139,7362 3090,7368C3074,7370 3045,7358 3015,7338ZM3103,7312C3133,7279 3188,7146 3220,7030C3253,6913 3265,6884 3288,6875C3295,6873 3334,6884 3374,6900C3454,6931 3556,6960 3589,6960C3601,6960 3610,6954 3610,6945C3610,6889 3405,6587 3291,6475C3263,6448 3240,6422 3240,6418C3240,6405 3269,6409 3293,6425C3331,6450 3431,6480 3474,6480L3514,6480L3455,6419C3341,6303 3194,6207 3111,6194C3069,6187 3068,6188 3075,6211C3079,6224 3089,6248 3098,6265C3106,6281 3115,6322 3118,6357L3123,6420L3086,6420C3066,6420 3020,6407 2985,6390C2890,6346 2889,6346 2846,6448C2804,6551 2756,6630 2737,6630C2703,6630 2663,6562 2630,6450C2618,6409 2603,6370 2598,6363C2591,6354 2572,6359 2522,6385C2394,6450 2384,6449 2389,6380C2391,6349 2389,6347 2376,6360C2357,6380 2257,6556 2221,6633C2182,6718 2136,6849 2143,6857C2152,6866 2189,6839 2258,6772C2301,6730 2320,6704 2320,6687C2320,6674 2327,6657 2335,6650C2357,6632 2365,6679 2351,6747C2336,6823 2337,6892 2355,7019C2374,7147 2396,7230 2412,7230C2428,7230 2488,7163 2577,7045C2619,6990 2657,6944 2661,6942C2671,6938 2667,6934 2780,7060C2888,7180 2973,7262 3029,7300C3081,7335 3082,7335 3103,7312ZM4650,6889C4751,6867 4860,6829 4860,6816C4860,6809 4848,6793 4834,6779C4798,6747 4762,6664 4755,6598C4742,6488 4752,6496 4646,6503C4568,6507 4546,6505 4510,6489C4487,6479 4466,6470 4463,6470C4455,6470 4408,6581 4389,6647C4367,6725 4364,6813 4383,6850C4390,6864 4411,6880 4430,6887C4473,6902 4590,6903 4650,6889ZM5115,6769C5233,6747 5336,6687 5370,6620C5393,6575 5440,6390 5440,6345C5440,6329 5449,6300 5460,6283C5476,6256 5486,6250 5513,6250C5558,6250 5653,6224 5722,6193C5771,6171 5786,6158 5818,6106C5840,6073 5874,6007 5895,5961C5939,5862 6022,5611 6014,5599C6011,5594 5998,5593 5984,5596C5949,5605 5953,5575 5989,5560C6047,5536 6050,5487 6014,5043C6009,4974 6007,4970 5984,4970C5953,4970 5940,4941 5910,4805C5899,4750 5878,4678 5864,4645C5850,4612 5828,4558 5816,4525C5787,4446 5712,4321 5619,4196C5535,4085 5319,3862 5249,3815C5225,3799 5189,3773 5169,3758C5148,3742 5092,3710 5044,3685C4995,3661 4936,3629 4913,3615L4872,3589L4846,3617C4824,3640 4818,3643 4810,3630C4805,3622 4803,3606 4806,3594C4813,3566 4792,3551 4728,3540C4698,3536 4645,3520 4612,3506C4578,3491 4482,3464 4399,3444C4227,3403 4233,3401 4182,3492C4136,3574 4116,3551 4146,3451C4160,3401 4160,3397 4143,3384C4107,3357 4045,3353 3742,3358L3588,3360L3559,3389C3536,3412 3530,3427 3530,3461C3530,3485 3520,3542 3509,3587C3485,3683 3489,3695 3549,3703C3615,3711 3750,3810 3750,3849C3750,3880 3723,3899 3566,3978C3487,4019 3419,4058 3416,4065C3413,4073 3421,4081 3438,4084C3489,4096 3555,4135 3603,4181C3686,4261 3664,4303 3505,4373C3472,4387 3423,4404 3395,4411C3368,4418 3341,4427 3336,4431C3331,4435 3346,4460 3370,4487C3417,4541 3450,4599 3450,4630C3450,4655 3415,4670 3356,4670C3303,4670 3250,4680 3250,4690C3250,4694 3283,4708 3323,4721C3456,4764 3606,4749 3786,4675L3866,4642L3986,4666C4458,4761 4715,4981 4835,5390C4861,5478 4862,5660 4836,5745C4815,5814 4777,5893 4752,5918C4736,5934 4723,5934 4627,5926C4484,5914 4427,5926 4365,5983C4262,6079 4287,6216 4438,6380C4506,6456 4546,6474 4620,6467C4723,6456 4725,6454 4744,6349C4753,6298 4770,6237 4781,6213C4805,6161 4803,6157 4719,6069C4637,5985 4634,5980 4658,5980C4669,5980 4716,6015 4764,6060L4849,6140L4897,6119C5002,6074 5156,6056 5198,6085C5236,6112 5271,6186 5291,6282C5320,6423 5314,6580 5280,6580C5274,6580 5270,6553 5270,6518C5269,6417 5251,6259 5235,6209C5226,6184 5208,6153 5195,6140C5127,6076 4898,6128 4829,6223C4814,6244 4798,6280 4795,6303C4775,6457 4786,6607 4825,6685C4864,6766 4887,6780 4980,6780C5022,6780 5083,6775 5115,6769ZM2778,6513C2795,6475 2820,6416 2833,6380C2864,6299 2876,6296 2977,6344C3098,6402 3103,6396 3055,6268C3010,6149 3010,6146 3058,6154C3092,6160 3094,6159 3076,6145C3060,6133 3021,6130 2871,6130C2769,6130 2668,6126 2648,6121C2620,6115 2606,6116 2590,6127C2558,6150 2488,6227 2462,6268C2439,6307 2415,6379 2424,6387C2426,6390 2464,6373 2507,6349C2616,6290 2628,6295 2657,6400C2686,6503 2719,6580 2735,6580C2742,6580 2761,6550 2778,6513ZM5945,6097C5956,6089 6003,6063 6050,6039C6144,5991 6231,5935 6306,5874C6405,5795 6420,5770 6427,5677C6434,5590 6431,5588 6340,5575C6272,5566 6098,5569 6087,5580C6082,5584 6068,5627 6056,5676C6030,5779 5946,6009 5919,6054C5887,6106 5900,6127 5945,6097ZM2912,6065C2935,6056 3019,6018 3097,5979C3238,5909 3299,5892 3253,5935C3230,5956 3072,6039 3012,6061C2961,6080 2960,6094 3011,6086C3246,6049 3549,5951 3773,5839C3974,5738 4088,5659 4382,5420C4392,5411 4398,5402 4395,5398C4387,5390 4190,5441 4035,5491C4002,5501 3956,5514 3933,5520C3889,5531 3821,5577 3743,5651C3668,5720 3630,5750 3614,5750C3586,5750 3601,5721 3648,5686C3696,5650 3849,5497 3933,5401C3990,5337 3993,5318 3948,5327C3844,5347 3462,5495 3335,5564C3282,5592 3270,5605 3233,5670C3177,5768 3135,5818 3121,5805C3113,5797 3121,5779 3147,5740C3218,5634 3339,5353 3324,5329C3315,5314 3293,5318 3227,5346C3068,5413 2824,5546 2725,5619C2677,5656 2637,5680 2626,5680C2621,5680 2510,5543 2428,5435C2403,5402 2372,5366 2360,5355C2347,5344 2312,5305 2280,5269C2239,5221 2221,5192 2217,5163C2210,5121 2190,5097 2151,5085C2128,5078 2127,5079 2132,5125C2136,5156 2163,5223 2209,5317C2273,5445 2288,5492 2260,5475C2255,5472 2229,5432 2201,5387C2133,5274 1974,5125 1787,4997C1719,4950 1700,4942 1700,4959C1700,4973 1802,5221 1850,5325C1873,5375 1921,5462 1956,5520C2017,5621 2030,5650 2012,5650C2000,5650 1958,5602 1929,5555C1915,5533 1868,5445 1824,5358L1746,5202L1589,5106C1439,5014 1410,5000 1410,5019C1410,5080 1571,5373 1653,5461C1690,5499 1703,5527 1688,5536C1666,5550 1579,5438 1465,5250C1434,5198 1400,5148 1391,5139C1371,5120 1207,5009 1173,4991C1140,4974 1143,4991 1187,5069C1365,5388 1612,5640 1932,5831C2032,5890 2182,5957 2333,6009C2531,6077 2529,6078 2403,5954C2282,5834 2251,5795 2267,5779C2278,5768 2279,5769 2381,5876C2510,6013 2571,6058 2655,6081C2698,6093 2861,6082 2912,6065ZM2679,5566C2707,5536 2704,5514 2668,5487C2646,5470 2638,5469 2625,5480C2605,5496 2606,5554 2626,5574C2647,5595 2653,5594 2679,5566ZM2558,5467C2602,5368 2679,5314 2780,5310C2881,5306 2896,5309 2956,5350C2989,5372 3021,5390 3028,5390C3046,5390 3043,5369 3019,5344L2998,5322L3019,5265C3064,5146 3032,5125 2942,5215L2887,5270L2794,5270C2708,5270 2698,5272 2631,5307C2552,5347 2480,5404 2480,5426C2480,5443 2522,5510 2532,5510C2536,5510 2548,5491 2558,5467ZM2800,5483C2800,5480 2793,5469 2784,5459C2775,5449 2765,5420 2762,5394C2757,5349 2757,5348 2727,5354C2692,5361 2650,5386 2650,5400C2650,5409 2777,5489 2793,5490C2797,5490 2800,5487 2800,5483ZM2860,5448C2831,5419 2828,5412 2834,5373C2840,5329 2834,5320 2812,5342C2776,5378 2816,5480 2866,5480L2892,5480L2860,5448ZM4069,5438C4194,5396 4195,5396 4275,5319C4319,5276 4353,5239 4350,5237C4347,5234 4278,5256 4195,5285C4047,5338 4044,5339 3988,5401C3935,5458 3920,5480 3936,5480C3940,5480 3999,5461 4069,5438ZM3482,5459L3502,5448L3481,5434C3460,5419 3451,5366 3468,5356C3481,5348 3520,5379 3530,5406C3539,5429 3540,5429 3577,5414C3653,5382 3688,5360 3718,5325C3776,5260 3753,5229 3665,5254C3421,5321 3448,5302 3435,5413C3427,5475 3436,5484 3482,5459ZM6234,5408C6377,5319 6607,5113 6641,5043C6670,4984 6664,4906 6629,4879C6580,4842 6477,4842 6255,4879C6045,4915 6055,4912 6056,4945C6057,4962 6064,5028 6073,5093C6083,5158 6090,5270 6090,5342L6090,5473L6120,5467C6136,5463 6188,5437 6234,5408ZM2925,5414C2943,5396 2941,5381 2918,5367C2883,5345 2852,5388 2882,5418C2898,5434 2905,5433 2925,5414ZM2518,5302C2549,5281 2583,5261 2593,5257C2615,5249 2615,5230 2592,5230C2582,5230 2549,5223 2519,5214C2476,5201 2454,5187 2412,5142C2369,5095 2356,5087 2342,5096C2300,5122 2274,5224 2304,5249C2315,5258 2319,5252 2324,5213C2336,5129 2341,5110 2354,5110C2369,5110 2380,5162 2380,5232C2380,5267 2386,5286 2406,5309C2420,5326 2438,5340 2446,5340C2455,5340 2487,5323 2518,5302ZM3253,5276C3363,5242 3400,5218 3400,5183C3400,5135 3381,5085 3353,5054C3304,5001 3197,4914 3111,4856C3017,4793 2985,4784 3020,4828C3076,4900 3121,4978 3150,5052C3190,5157 3187,5172 3132,5183C3100,5189 3086,5198 3075,5220C3059,5251 3055,5292 3068,5304C3079,5316 3163,5303 3253,5276ZM3871,5263C3885,5218 3877,5087 3854,5010C3845,4980 3818,4918 3794,4873C3766,4823 3753,4789 3760,4785C3776,4775 3788,4787 3846,4873C3876,4918 3921,4985 3948,5023L3995,5090L4001,5053C4018,4958 3978,4758 3934,4709C3911,4684 3860,4685 3807,4712C3724,4754 3572,4791 3479,4791C3387,4791 3346,4782 3211,4730C3133,4700 3121,4698 3048,4703C3005,4707 2962,4714 2952,4719C2938,4727 2940,4730 2965,4740C3100,4793 3241,4891 3376,5026C3464,5115 3529,5196 3543,5233C3546,5242 3551,5242 3560,5233C3581,5214 3568,5017 3541,4952C3501,4851 3543,4862 3589,4964C3604,4998 3637,5048 3662,5075C3687,5103 3733,5164 3764,5213C3828,5312 3851,5323 3871,5263ZM3484,5265C3507,5248 3501,5217 3466,5175L3441,5145L3440,5175C3440,5216 3451,5280 3459,5280C3462,5280 3473,5273 3484,5265ZM2880,5213C2907,5194 2949,5149 2950,5139C2950,5135 2923,5123 2891,5110C2818,5083 2663,4991 2591,4933C2561,4909 2524,4882 2508,4874C2479,4859 2477,4860 2422,4902C2391,4926 2363,4947 2360,4950C2357,4953 2322,4978 2283,5005C2243,5031 2210,5057 2210,5062C2210,5067 2217,5085 2226,5103L2243,5134L2259,5111C2315,5030 2438,4920 2474,4920C2482,4920 2514,4959 2545,5006C2609,5104 2694,5194 2742,5215C2787,5235 2850,5234 2880,5213ZM3693,5201C3708,5195 3705,5187 3668,5138C3644,5106 3622,5081 3618,5080C3608,5080 3607,5204 3616,5213C3623,5219 3655,5214 3693,5201ZM2610,5189C2610,5183 2590,5159 2567,5134C2543,5109 2512,5071 2499,5049C2467,4997 2434,4988 2403,5024C2384,5046 2382,5055 2391,5071C2412,5111 2478,5168 2519,5181C2569,5198 2610,5201 2610,5189ZM3130,5120C3130,5069 3027,4891 2947,4804C2897,4748 2896,4748 2848,4752C2790,4758 2781,4737 2833,4716C2886,4693 3076,4662 3225,4650C3302,4644 3373,4637 3383,4634C3416,4624 3402,4585 3339,4516L3278,4450L3192,4450C3110,4450 3066,4440 3088,4427C3093,4423 3140,4416 3191,4410C3396,4387 3600,4307 3600,4251C3600,4208 3478,4132 3375,4110C3342,4103 3311,4094 3307,4090C3297,4081 3430,4001 3573,3930C3704,3865 3718,3849 3675,3813C3642,3786 3541,3735 3499,3725C3480,3720 3465,3725 3442,3745C3398,3782 3385,3773 3411,3725C3454,3647 3482,3547 3484,3475C3485,3408 3484,3405 3461,3402C3381,3390 3213,3462 3098,3557C3023,3618 3007,3620 2955,3576C2915,3541 2821,3497 2803,3505C2789,3510 2788,3525 2793,3613C2801,3739 2823,3827 2856,3861C2881,3887 2888,3910 2870,3910C2865,3910 2841,3895 2817,3877C2772,3843 2683,3804 2673,3814C2670,3817 2676,3859 2688,3907C2700,3956 2712,4020 2715,4050C2726,4147 2726,4148 2769,4155C2814,4162 2860,4200 2860,4229C2860,4284 2752,4464 2656,4568C2624,4602 2562,4657 2518,4690C2450,4741 2433,4750 2396,4750C2330,4750 2219,4678 2095,4553C2018,4476 1974,4408 1951,4335C1919,4234 1943,4187 2024,4188C2049,4189 2086,4196 2106,4205C2127,4213 2147,4217 2150,4213C2160,4202 2180,3896 2171,3887C2167,3883 2139,3895 2109,3913C2078,3932 2046,3949 2037,3953C2017,3961 2005,3943 2019,3927C2046,3894 2071,3637 2054,3573C2045,3540 2007,3544 1931,3585L1868,3619L1821,3580C1764,3532 1615,3440 1596,3440C1560,3440 1548,3613 1576,3726C1585,3762 1590,3793 1587,3797C1583,3800 1567,3797 1551,3790C1515,3775 1386,3780 1369,3797C1337,3829 1399,3908 1547,4022C1606,4067 1648,4106 1643,4111C1638,4116 1604,4113 1565,4105C1485,4088 1410,4086 1410,4099C1410,4105 1433,4137 1461,4170C1516,4236 1643,4336 1724,4377C1798,4415 1850,4449 1850,4460C1850,4477 1822,4471 1769,4444C1706,4413 1671,4411 1634,4437C1593,4466 1567,4497 1574,4508C1577,4513 1596,4521 1617,4525C1725,4545 1996,4658 2007,4688C2018,4715 1998,4711 1911,4670L1820,4627L1778,4646C1754,4656 1719,4679 1700,4696C1665,4728 1591,4864 1602,4876C1606,4879 1630,4867 1656,4849C1707,4814 1788,4780 1820,4780C1850,4780 1844,4809 1813,4816C1737,4834 1670,4891 1728,4887C1749,4885 1756,4890 1758,4907C1762,4932 1795,4960 1820,4960C1829,4960 1860,4944 1890,4925C1920,4905 1965,4879 1990,4867C2014,4855 2067,4815 2106,4778C2218,4671 2226,4690 2125,4822C2065,4902 1990,5038 1990,5070C1990,5089 1994,5091 2018,5086C2132,5059 2270,4978 2448,4832L2488,4800L2557,4856C2706,4979 2813,5041 2980,5101C3103,5145 3130,5149 3130,5120ZM1719,5123C1719,5118 1712,5099 1705,5080L1692,5045L1691,5081C1690,5101 1693,5120 1697,5123C1706,5132 1720,5132 1719,5123ZM1981,4985C1998,4949 2010,4915 2008,4910C2003,4894 1880,4977 1880,4996C1880,5015 1917,5050 1937,5050C1945,5050 1965,5021 1981,4985ZM6110,4827C6148,4804 6196,4769 6217,4751C6444,4545 6450,4538 6550,4374C6576,4333 6590,4298 6590,4276C6590,4217 6526,4160 6459,4160C6370,4160 6186,4202 6084,4246C6026,4271 5956,4295 5929,4300C5902,4305 5871,4314 5860,4320C5816,4344 5845,4298 5994,4114C6162,3905 6243,3772 6261,3674C6275,3600 6268,3576 6223,3545C6174,3512 6127,3513 6020,3549C5815,3617 5791,3629 5630,3745C5472,3858 5440,3871 5426,3834C5423,3826 5459,3753 5507,3672C5605,3505 5654,3386 5671,3270C5682,3192 5682,3189 5659,3155C5612,3087 5557,3085 5437,3145C5349,3191 5270,3246 5148,3349C5019,3458 4957,3524 4962,3546C4964,3558 4997,3582 5051,3610C5224,3701 5306,3759 5396,3853C5686,4157 5711,4187 5798,4346C5897,4528 5937,4624 5960,4737C5992,4893 5987,4883 6016,4876C6030,4872 6073,4850 6110,4827ZM2471,4677C2560,4611 2591,4580 2656,4500C2740,4396 2798,4304 2806,4262C2826,4158 2666,4169 2480,4283C2444,4305 2399,4332 2379,4344L2342,4364L2217,4300C2110,4246 2083,4236 2038,4235C1990,4235 1985,4237 1976,4262C1954,4323 2087,4513 2226,4621C2301,4678 2370,4719 2395,4719C2406,4720 2440,4701 2471,4677ZM1711,4638C1757,4612 1760,4603 1723,4594C1635,4574 1543,4546 1533,4538C1509,4518 1520,4491 1575,4435C1605,4404 1630,4375 1630,4370C1630,4366 1609,4349 1583,4334C1523,4299 1409,4184 1386,4136C1377,4116 1370,4089 1372,4077C1375,4057 1382,4055 1438,4052C1472,4050 1500,4045 1500,4040C1500,4034 1496,4030 1491,4030C1473,4030 1359,3904 1333,3855C1292,3775 1308,3758 1450,3738L1525,3727L1523,3573C1521,3425 1519,3416 1493,3367C1477,3339 1435,3285 1399,3247C1340,3185 1330,3179 1299,3182C1248,3187 1238,3215 1244,3331C1248,3397 1259,3454 1280,3520C1296,3571 1310,3619 1310,3627C1310,3655 1284,3638 1258,3592C1229,3541 1215,3522 1131,3423C1027,3300 861,3216 820,3265C812,3275 809,3306 811,3357C814,3424 821,3447 856,3520C879,3567 923,3639 954,3680C985,3721 1010,3758 1010,3762C1010,3785 977,3761 905,3689C762,3545 586,3459 526,3503C495,3526 508,3622 554,3714C598,3804 689,3921 753,3970C814,4017 828,4050 781,4035C759,4028 599,3873 573,3833C560,3814 549,3810 506,3810C410,3810 223,3874 233,3903C235,3910 276,3920 331,3927C503,3948 661,4006 766,4086C809,4118 961,4255 1044,4335C1176,4462 1356,4574 1530,4636C1612,4666 1661,4666 1711,4638ZM2439,4262C2481,4235 2530,4208 2548,4201C2601,4179 2589,4156 2502,4115C2443,4087 2405,4051 2418,4038C2425,4031 2439,4034 2462,4049C2533,4094 2594,4119 2620,4113C2678,4099 2681,4080 2650,3921C2639,3864 2632,3809 2635,3799C2644,3772 2681,3766 2725,3784C2746,3793 2765,3798 2768,3795C2771,3793 2768,3753 2762,3708C2738,3542 2750,3468 2802,3462C2828,3459 2890,3485 2942,3522C2957,3532 2983,3545 2999,3551C3027,3561 3034,3558 3077,3523C3146,3467 3221,3422 3298,3390C3357,3366 3366,3359 3373,3329C3419,3148 3484,2999 3583,2845C3653,2736 3687,2658 3720,2535C3831,2117 4018,1616 4112,1485C4160,1419 4237,1344 4277,1324C4364,1283 4448,1289 4512,1341C4532,1357 4552,1370 4556,1370C4559,1370 4560,1335 4558,1292C4553,1216 4530,1151 4492,1108C4469,1081 4393,1085 4324,1115C4237,1154 4210,1144 4273,1096C4339,1046 4478,1034 4572,1070C4601,1081 4631,1090 4638,1090C4656,1090 4653,1052 4629,1004C4570,882 4365,791 4254,838C4237,845 4199,883 4166,925C4114,994 4079,1019 4080,988C4081,948 4219,801 4282,772C4303,763 4320,750 4320,743C4320,725 4262,709 4175,703C4110,699 4085,702 4042,718C3934,759 3830,854 3830,910C3830,938 3809,965 3797,953C3786,943 3789,881 3802,838C3810,810 3833,781 3877,741C3912,709 3940,678 3940,673C3940,667 3912,657 3878,650C3700,612 3498,727 3474,880C3462,962 3430,987 3430,914C3430,843 3355,819 3245,857C3188,876 3114,945 3087,1003C3065,1050 3043,1147 3053,1157C3057,1161 3089,1156 3124,1147C3160,1138 3203,1130 3222,1130C3269,1130 3330,1168 3352,1212C3378,1262 3386,1419 3371,1590C3355,1771 3282,2111 3225,2268C3211,2306 3203,2345 3206,2354C3215,2376 3198,2394 3132,2431C2955,2529 2759,2721 2635,2915C2542,3062 2529,3080 2520,3080C2500,3080 2511,3048 2556,2968C2582,2923 2609,2871 2616,2854C2638,2801 2618,2790 2445,2753C2325,2728 2154,2758 2073,2819C2022,2858 2006,2890 2037,2890C2089,2891 2250,2979 2250,3006C2250,3027 2231,3023 2178,2989C2130,2958 2128,2958 2087,2971C2035,2988 1933,3055 1919,3081C1908,3103 1927,3114 1990,3124C2032,3131 2094,3179 2116,3222C2130,3248 2130,3254 2116,3268C2095,3293 2000,3477 2000,3496C2000,3508 2007,3510 2031,3505C2075,3495 2097,3520 2106,3586C2112,3636 2098,3793 2083,3849C2078,3870 2080,3872 2101,3867C2114,3864 2139,3856 2157,3849C2216,3825 2218,3836 2213,4048C2208,4222 2209,4236 2226,4251C2255,4276 2322,4310 2344,4310C2354,4310 2397,4288 2439,4262ZM1931,3536C1944,3523 1961,3495 1969,3474C1977,3453 2003,3393 2027,3342C2051,3291 2070,3239 2068,3227C2064,3199 1999,3163 1940,3154C1915,3151 1890,3141 1883,3133C1856,3098 1925,3004 2008,2963L2065,2935L2030,2930C1983,2922 1970,2913 1970,2889C1970,2864 2033,2795 2084,2765C2176,2711 2352,2694 2500,2723C2541,2731 2577,2737 2579,2735C2580,2733 2575,2702 2566,2667C2553,2617 2550,2564 2552,2443L2555,2285L2511,2185C2386,1898 2329,1693 2328,1530C2328,1409 2344,1366 2397,1344C2470,1313 2554,1347 2595,1424C2615,1462 2644,1471 2654,1444C2657,1435 2660,1400 2660,1366C2660,1317 2655,1295 2637,1269C2615,1237 2611,1235 2546,1232C2500,1230 2464,1235 2434,1246C2376,1268 2354,1253 2398,1221C2465,1173 2588,1173 2680,1220C2744,1252 2752,1238 2724,1142C2686,1013 2504,908 2364,934C2319,943 2244,1015 2200,1093C2167,1152 2144,1160 2154,1108C2167,1045 2279,922 2363,879C2409,855 2409,834 2361,806C2331,789 2308,786 2210,786C2104,786 2089,788 2039,813C1968,848 1911,896 1895,935C1886,955 1883,987 1887,1028C1892,1079 1890,1090 1878,1090C1860,1090 1840,1022 1840,961C1840,920 1872,821 1896,785C1904,774 1910,757 1910,747C1910,729 1903,728 1823,732C1754,735 1724,742 1685,762C1600,806 1554,846 1516,908C1482,964 1480,972 1480,1055C1480,1148 1470,1160 1440,1104C1420,1069 1406,1065 1336,1080C1276,1092 1202,1148 1174,1201C1136,1276 1137,1416 1177,1455C1191,1469 1196,1467 1227,1430C1287,1360 1343,1346 1448,1371C1487,1381 1509,1397 1580,1469C1674,1563 1720,1633 1792,1785C1844,1896 1950,2213 1976,2333C1985,2375 1996,2410 2002,2410C2007,2410 2019,2402 2028,2393C2044,2377 2045,2378 2048,2394C2050,2404 2041,2428 2027,2449C1991,2503 1907,2665 1882,2730C1802,2930 1771,3171 1805,3327C1830,3447 1876,3560 1899,3560C1903,3560 1918,3549 1931,3536ZM1809,3493C1793,3435 1695,3239 1660,3198C1624,3155 1602,3151 1574,3181C1560,3197 1555,3221 1552,3295C1547,3397 1543,3389 1614,3405C1647,3412 1767,3487 1789,3513C1811,3541 1819,3532 1809,3493ZM4840,3450C4881,3370 4940,3115 4940,3018C4940,2955 4934,2942 4889,2920C4852,2901 4849,2900 4800,2917C4722,2944 4608,3032 4462,3177C4346,3292 4329,3312 4332,3337C4335,3363 4341,3367 4420,3388C4467,3401 4570,3431 4650,3454C4730,3478 4801,3495 4808,3492C4815,3490 4829,3471 4840,3450ZM3498,3277C3663,3082 3860,2790 3992,2544C4048,2439 4170,2163 4170,2141C4170,2119 4115,2135 4003,2191C3947,2220 3883,2259 3862,2279C3827,2311 3820,2327 3791,2435C3753,2575 3706,2719 3683,2764C3674,2781 3648,2822 3625,2855C3601,2888 3566,2948 3546,2987C3465,3148 3397,3360 3425,3360C3426,3360 3458,3322 3498,3277ZM4155,3309C4159,3303 4168,3254 4175,3200C4188,3100 4185,2979 4168,2948C4152,2916 4089,2925 3991,2975C3917,3012 3884,3037 3797,3123C3740,3179 3685,3240 3677,3257C3661,3287 3661,3288 3685,3292C3699,3295 3783,3295 3872,3293C3998,3290 4045,3292 4080,3303C4137,3322 4147,3323 4155,3309ZM2756,2682C2821,2606 2829,2593 2835,2544C2846,2451 2843,2118 2830,2085L2818,2055L2779,2099C2720,2165 2650,2267 2622,2330C2599,2378 2596,2399 2596,2500C2595,2595 2599,2628 2619,2693C2651,2793 2661,2792 2756,2682ZM2974,2487C3013,2458 3061,2424 3080,2412C3100,2401 3125,2381 3137,2368C3158,2346 3210,2204 3225,2130L3232,2095L3195,2130C3107,2213 2868,2540 2895,2540C2899,2540 2934,2516 2974,2487ZM1417,983C1463,844 1543,758 1680,700C1724,682 1753,677 1820,678C1926,678 1958,690 1967,730C1970,747 1976,762 1980,765C1984,767 2011,760 2041,749C2115,720 2305,717 2365,743C2417,766 2450,798 2450,825C2450,866 2473,883 2530,884C2581,885 2583,884 2630,831C2679,775 2746,653 2757,600C2764,563 2758,563 2658,590C2536,622 2425,633 2210,634C1993,635 1940,628 1740,580C1618,551 1539,527 1425,486C1364,464 1339,460 1225,460C1112,460 1091,457 1061,439C1043,428 1024,422 1020,427C1010,439 1028,607 1045,659C1069,732 1104,767 1196,813C1242,836 1280,858 1280,862C1280,871 1208,864 1137,848C1101,840 1082,829 1055,797C997,730 973,640 941,374C925,244 901,212 862,268C823,323 807,393 812,499C815,587 819,604 849,661C889,738 959,813 1020,845C1064,867 1178,892 1308,907C1371,915 1392,932 1345,938C1313,942 1313,953 1348,979C1381,1004 1409,1006 1417,983ZM2713,965C2761,945 2845,860 2874,802C2909,734 2924,643 2916,552C2905,414 2882,428 2815,615C2757,777 2749,791 2684,868C2628,934 2622,948 2642,968C2658,984 2670,983 2713,965ZM1020,916C1020,914 996,898 966,882C937,865 897,833 877,810C835,761 780,657 756,583C746,555 734,527 727,522C720,517 688,509 656,505L597,498L603,543C609,588 650,700 696,796C714,835 729,851 758,863C830,894 1020,933 1020,916ZM660,873C660,868 638,813 611,750C564,642 530,516 530,453C530,422 476,360 449,360C409,360 407,518 446,641C471,720 477,729 551,803C620,871 660,896 660,873ZM4607,815C4705,786 4806,645 4831,505C4848,407 4838,164 4817,142C4802,128 4799,130 4780,173C4768,199 4748,269 4734,328C4680,556 4639,665 4569,767C4540,809 4533,830 4548,830C4553,830 4579,823 4607,815ZM3262,769C3245,702 3228,569 3220,440C3206,223 3200,182 3179,157C3165,139 3158,137 3143,146C3118,161 3070,304 3070,365C3070,428 3096,590 3112,627C3136,681 3194,761 3219,775C3249,791 3266,789 3262,769ZM3486,727C3546,654 3610,617 3720,594C3812,575 3909,587 3967,627C4007,654 4012,655 4110,645C4185,637 4323,660 4351,686C4361,695 4372,715 4375,731C4382,761 4422,790 4458,790C4484,790 4501,769 4550,677C4618,552 4694,300 4665,300C4660,300 4616,331 4566,368C4447,458 4343,514 4239,542C4165,562 4132,564 3955,564C3737,564 3658,551 3590,506C3570,493 3532,471 3505,457C3477,443 3419,406 3375,375C3331,343 3290,315 3283,313C3247,299 3292,706 3332,757C3337,764 3339,774 3335,780C3331,786 3347,790 3382,789C3434,788 3435,788 3486,727Z" style="fill:rgb(225,85,19);fill-rule:nonzero;stroke:rgb(225,85,19);stroke-width:20px;"/>
        <path d="M5153,5688C5149,5681 5145,5630 5145,5575C5145,5520 5141,5432 5136,5379C5128,5287 5128,5282 5147,5276C5171,5268 5281,5301 5368,5341C5443,5376 5510,5434 5510,5463C5510,5495 5412,5582 5312,5638C5215,5693 5167,5709 5153,5688ZM5283,5614C5338,5582 5411,5528 5448,5493C5478,5464 5453,5430 5368,5385C5313,5356 5170,5307 5163,5314C5160,5316 5166,5365 5175,5421C5186,5486 5190,5543 5186,5579C5176,5664 5190,5669 5283,5614Z" style="fill:rgb(225,85,19);fill-rule:nonzero;stroke:rgb(225,85,19);stroke-width:20px;"/>
        <path d="M5116,5158C5107,5144 5093,5109 5084,5079C5066,5020 5050,4986 5008,4926C4954,4850 4974,4815 5088,4791C5214,4764 5370,4795 5401,4852C5429,4905 5335,5057 5220,5142C5166,5182 5135,5187 5116,5158ZM5258,5047C5353,4952 5379,4906 5359,4869C5347,4846 5262,4820 5200,4820C5145,4820 5039,4838 5027,4850C5022,4854 5037,4891 5059,4932C5081,4973 5109,5032 5119,5063C5141,5127 5148,5140 5158,5140C5162,5140 5207,5098 5258,5047Z" style="fill:rgb(225,85,19);fill-rule:nonzero;stroke:rgb(225,85,19);stroke-width:20px;"/>
        <path d="M4870,4743C4852,4728 4792,4683 4736,4645C4670,4599 4634,4567 4632,4554C4625,4505 4796,4401 4920,4378C4981,4366 4983,4367 5002,4390C5020,4412 5022,4424 5016,4505C5008,4611 4989,4683 4957,4731C4928,4775 4910,4777 4870,4743ZM4939,4682C4965,4632 4982,4537 4978,4470C4975,4421 4972,4415 4951,4412C4896,4404 4675,4514 4675,4549C4675,4557 4704,4580 4739,4602C4775,4623 4824,4659 4849,4680C4874,4702 4901,4719 4907,4720C4914,4720 4928,4703 4939,4682Z" style="fill:rgb(225,85,19);fill-rule:nonzero;stroke:rgb(225,85,19);stroke-width:20px;"/>
        <path d="M5520,4551C5534,4525 5641,4430 5657,4430C5692,4430 5648,4487 5566,4548C5529,4576 5505,4578 5520,4551Z" style="fill:rgb(225,85,19);fill-rule:nonzero;stroke:rgb(225,85,19);stroke-width:20px;"/>
        <path d="M4475,4490C4447,4472 4418,4459 4280,4407C4220,4384 4198,4366 4207,4344C4214,4324 4227,4327 4233,4349C4236,4362 4250,4371 4276,4376C4320,4383 4470,4438 4485,4451C4490,4456 4500,4460 4508,4460C4520,4460 4522,4439 4518,4337C4513,4212 4494,4140 4465,4140C4458,4140 4425,4160 4393,4184C4360,4208 4324,4233 4312,4239C4272,4260 4286,4215 4332,4176C4420,4100 4495,4083 4521,4132C4561,4206 4576,4442 4544,4488C4525,4515 4513,4515 4475,4490Z" style="fill:rgb(225,85,19);fill-rule:nonzero;stroke:rgb(225,85,19);stroke-width:20px;"/>
        <path d="M3921,4339C3875,4334 3826,4324 3811,4317C3752,4289 3783,4201 3894,4083C3961,4011 3987,3997 4008,4023C4030,4049 4080,4190 4092,4259C4109,4358 4108,4358 3921,4339ZM4047,4255C4039,4199 4003,4089 3986,4072C3976,4061 3961,4072 3908,4128C3845,4195 3823,4240 3836,4274C3842,4290 3878,4295 3989,4298L4053,4300L4047,4255Z" style="fill:rgb(225,85,19);fill-rule:nonzero;stroke:rgb(225,85,19);stroke-width:20px;"/>
        <path d="M5100,4218C5100,4202 5206,4065 5243,4034C5281,4002 5290,4018 5259,4062C5172,4187 5100,4257 5100,4218Z" style="fill:rgb(225,85,19);fill-rule:nonzero;stroke:rgb(225,85,19);stroke-width:20px;"/>
        <path d="M1744,3833C1693,3782 1630,3655 1630,3604C1630,3559 1650,3580 1689,3665C1711,3711 1739,3764 1753,3782C1785,3826 1793,3850 1775,3850C1768,3850 1754,3842 1744,3833Z" style="fill:rgb(225,85,19);fill-rule:nonzero;stroke:rgb(225,85,19);stroke-width:20px;"/>
        <path d="M3180,3757C3180,3724 3340,3520 3366,3520C3385,3520 3375,3540 3311,3630C3232,3742 3180,3792 3180,3757Z" style="fill:rgb(225,85,19);fill-rule:nonzero;stroke:rgb(225,85,19);stroke-width:20px;"/>
        <path d="M2259,4551C2175,4488 2115,4410 2150,4410C2155,4410 2192,4439 2232,4475C2272,4511 2314,4543 2326,4546C2356,4554 2396,4531 2490,4455C2575,4386 2608,4372 2589,4413C2573,4446 2365,4600 2336,4600C2329,4600 2294,4578 2259,4551Z" style="fill:rgb(225,85,19);fill-rule:nonzero;stroke:rgb(225,85,19);stroke-width:20px;"/>
        <path d="M2616,3539C2559,3487 2549,3470 2574,3470C2593,3470 2690,3559 2690,3576C2690,3600 2674,3592 2616,3539Z" style="fill:rgb(225,85,19);fill-rule:nonzero;stroke:rgb(225,85,19);stroke-width:20px;"/>
    </g>
</svg>
