<?xml version="1.0" encoding="UTF-8" standalone="no"?>
<!DOCTYPE svg PUBLIC "-//W3C//DTD SVG 1.1//EN" "http://www.w3.org/Graphics/SVG/1.1/DTD/svg11.dtd">
<svg width="100%" height="100%" viewBox="0 0 900 686" version="1.1" xmlns="http://www.w3.org/2000/svg" xmlns:xlink="http://www.w3.org/1999/xlink" xml:space="preserve" xmlns:serif="http://www.serif.com/" style="fill-rule:evenodd;clip-rule:evenodd;stroke-linejoin:round;stroke-miterlimit:2;">
    <g transform="matrix(1,0,0,0.570888,0,0)">
        <rect id="Artboard1" x="0" y="0" width="900" height="1200" style="fill:none;"/>
        <g id="Artboard11" serif:id="Artboard1">
            <g transform="matrix(-0.1,-0,0,-0.175166,898.155,1679.56)">
                <path d="M5843,9440C5816,9429 5806,9411 5776,9313C5737,9185 5711,9073 5665,8850C5635,8702 5592,8381 5565,8100C5557,8015 5545,7901 5540,7847C5534,7793 5530,7729 5530,7705C5530,7680 5527,7660 5524,7660C5521,7660 5500,7673 5477,7689C5418,7729 5355,7760 5280,7785C5245,7797 5213,7814 5209,7821C5205,7829 5197,7864 5190,7900C5162,8056 5062,8277 4982,8363C4949,8398 4890,8401 4868,8369C4855,8348 4854,8349 4841,8391C4757,8676 4634,8916 4497,9066C4468,9098 4410,9149 4367,9181C4303,9228 4278,9240 4226,9249C4156,9261 4080,9255 4035,9232C3997,9214 3960,9180 3960,9165C3960,9158 3953,9139 3945,9122L3929,9092L3781,9097C3604,9104 3524,9092 3448,9046C3403,9020 3389,9004 3360,8945C3330,8887 3310,8864 3241,8808C3196,8771 3146,8723 3130,8702C3101,8662 3060,8576 3060,8556C3060,8549 3054,8536 3047,8526C3034,8508 3031,8508 2982,8524C2943,8537 2906,8540 2823,8537C2764,8535 2704,8530 2691,8525C2654,8512 2666,8529 2776,8642C2831,8699 2890,8766 2906,8791C2943,8845 2975,8918 2967,8926C2964,8930 2908,8916 2843,8896C2727,8860 2705,8852 2655,8828C2623,8813 2618,8819 2630,8861C2643,8907 2643,8920 2626,8926C2603,8935 2470,8868 2407,8816C2352,8771 2348,8769 2334,8787C2322,8803 2319,8803 2310,8790C2286,8756 2161,8543 2149,8515C2141,8499 2133,8483 2130,8480C2127,8477 2112,8450 2097,8420C2062,8353 2060,8349 1982,8228C1948,8175 1920,8125 1920,8118C1920,8073 2121,8015 2178,8044C2208,8059 2278,8075 2353,8085C2406,8092 2577,8072 2586,8059C2589,8054 2578,8022 2562,7988C2545,7953 2529,7909 2525,7890C2502,7765 2420,7636 2320,7567C2207,7489 2196,7462 2195,7270C2195,7140 2192,7109 2177,7078C2160,7044 2080,6946 1864,6695C1722,6531 1645,6404 1605,6269C1579,6182 1574,6135 1590,6125C1595,6122 1643,6153 1697,6193C1833,6296 2038,6426 2047,6416C2055,6408 1993,6331 1925,6265C1844,6187 1773,6145 1676,6120C1578,6095 1548,6095 1471,6119C1323,6165 1224,6300 1178,6515C1158,6609 1155,6653 1156,6815C1156,7139 1214,7405 1348,7713C1493,8043 1522,8135 1523,8280C1524,8401 1484,8489 1380,8588C1253,8710 1135,8769 1003,8778C834,8788 710,8741 590,8620C365,8394 250,8148 247,7885C246,7830 252,7760 259,7730C278,7651 324,7554 367,7502C401,7460 470,7420 508,7420C584,7420 681,7495 725,7587C751,7642 773,7759 762,7788C753,7814 727,7794 709,7746C683,7681 634,7612 598,7590C561,7568 516,7576 459,7615C438,7630 420,7643 420,7644C420,7645 408,7677 394,7715C358,7809 349,8005 375,8096C417,8242 493,8348 614,8429C745,8516 835,8545 950,8537C1134,8525 1219,8407 1208,8182C1202,8073 1184,8020 1087,7825C1021,7691 919,7430 912,7375C910,7353 901,7323 894,7308C886,7293 868,7217 854,7138C810,6902 809,6517 851,6325C877,6206 926,6069 975,5974C1019,5890 1088,5781 1110,5760C1113,5757 1132,5733 1154,5707C1250,5588 1414,5454 1545,5387C1610,5355 1758,5310 1817,5305C1874,5300 1881,5294 1844,5280C1794,5261 1780,5241 1780,5191C1780,5105 1741,4972 1686,4862C1622,4736 1515,4627 1410,4579C1265,4514 1258,4502 1252,4301C1248,4170 1249,4155 1266,4143C1291,4125 1304,4127 1338,4155C1370,4182 1383,4179 1374,4146C1371,4134 1374,4112 1379,4096C1392,4063 1414,4067 1475,4114C1519,4148 1529,4158 1580,4224C1599,4249 1620,4269 1626,4270C1640,4270 1650,4238 1650,4192C1650,4121 1693,4099 1751,4141L1780,4161L1780,4128C1780,4090 1815,3919 1831,3879C1844,3845 1881,3826 1915,3834C1948,3842 2019,3907 2067,3972C2122,4048 2377,4448 2495,4645C2615,4846 2727,5061 2798,5225C2830,5300 2920,5545 2920,5557C2920,5562 2965,5610 3021,5665C3263,5905 3316,5991 3626,6650C3663,6730 3703,6803 3714,6813C3754,6846 3860,6871 3951,6868L4035,6865L4092,6750C4123,6687 4149,6629 4149,6622C4150,6615 4142,6591 4131,6567C4105,6508 4093,6475 4074,6400C4050,6310 4049,6079 4073,5995C4101,5899 4097,5885 4032,5816C4001,5782 3950,5726 3920,5691C3890,5656 3852,5613 3836,5596C3793,5549 3711,5445 3648,5356C3609,5301 3590,5265 3590,5246C3590,5223 3603,5203 3648,5160C3709,5101 3863,4980 3878,4980C3882,4980 3895,4972 3906,4962C3941,4930 4220,4770 4465,4640C4531,4605 4602,4566 4622,4553C4643,4540 4662,4530 4664,4530C4675,4530 4903,4398 4961,4358C5023,4316 5132,4214 5178,4154C5209,4114 5265,3995 5278,3940C5316,3785 5350,3600 5350,3546C5350,3478 5361,3456 5440,3360C5512,3272 5548,3172 5553,3043C5557,2938 5568,2917 5630,2899C5697,2879 5767,2932 5801,3027C5812,3061 5832,3064 5823,3032C5817,3006 5873,2960 5911,2960C5955,2960 6005,2984 6027,3016C6058,3062 6080,3132 6080,3186C6080,3282 5997,3483 5921,3574C5843,3666 5818,3728 5833,3794L5844,3842L5879,3835C5929,3825 6084,3747 6155,3695C6229,3641 6368,3562 6412,3549C6525,3517 6630,3570 6630,3659C6629,3737 6556,3839 6457,3901C6372,3954 6326,3984 6312,3997C6305,4004 6245,4049 6180,4097C6078,4172 6060,4188 6060,4212C6060,4247 6068,4251 6116,4239C6137,4234 6227,4223 6315,4215C6547,4193 6567,4191 6656,4169C6798,4136 6850,4147 6932,4227C7013,4307 7020,4377 6952,4442C6911,4482 6857,4498 6695,4520C6574,4537 6461,4578 6355,4645C6306,4675 6249,4705 6228,4711C6206,4716 6190,4725 6192,4730C6194,4734 6222,4766 6255,4801C6310,4859 6319,4864 6391,4881C6590,4930 6759,5031 6811,5132C6835,5180 6836,5266 6813,5300C6785,5341 6777,5346 6722,5360C6673,5373 6666,5372 6617,5351C6497,5298 6353,5246 6230,5210C6108,5174 6002,5118 5942,5058C5892,5008 5800,4884 5800,4867C5800,4863 5795,4854 5790,4847C5784,4840 5760,4810 5736,4780C5630,4648 5416,4579 5210,4609C5015,4638 4963,4652 4800,4722C4711,4760 4415,4908 4325,4959C4107,5083 3890,5240 3890,5273C3890,5300 4151,5657 4179,5668C4183,5669 4194,5651 4205,5628C4233,5565 4283,5480 4373,5345C4542,5092 4664,4961 4784,4904C4862,4867 4903,4863 4969,4886C5058,4917 5219,5069 5319,5217C5344,5254 5368,5287 5372,5288C5376,5290 5380,5296 5380,5301C5380,5305 5400,5340 5424,5377C5479,5463 5574,5652 5605,5738C5637,5827 5660,5925 5660,5977C5660,6016 5664,6021 5718,6061C5819,6135 5901,6261 5945,6409C5994,6576 6000,6720 5964,6880C5936,7009 5930,7048 5915,7245C5873,7775 5890,8401 5959,8880C5980,9020 5987,9050 6000,9050C6005,9050 6032,9031 6062,9007C6091,8983 6163,8927 6222,8882C6281,8838 6337,8794 6347,8786C6569,8608 6594,8585 6673,8494C6779,8372 6814,8312 6877,8150C6921,8034 6930,7996 6930,7913C6930,7782 6900,7730 6735,7582L6687,7538L6694,7474C6711,7307 6757,7102 6795,7024C6809,6996 6853,6939 6892,6897C6932,6855 6989,6791 7018,6755C7078,6680 7123,6654 7165,6670C7218,6690 7245,6808 7219,6905C7205,6958 7149,7068 7105,7129C7071,7175 7070,7181 7071,7261C7071,7307 7079,7377 7089,7415C7105,7478 7110,7487 7143,7503C7215,7539 7374,7535 7555,7493C7648,7472 7705,7446 7756,7405C7790,7377 7800,7360 7810,7318C7858,7107 8051,6900 8198,6900C8269,6900 8293,6917 8304,6973C8312,7020 8313,7020 8351,7020C8395,7020 8430,7047 8430,7082C8430,7094 8423,7157 8414,7222C8405,7288 8400,7343 8402,7346C8405,7348 8420,7346 8436,7339C8485,7320 8583,7326 8630,7350C8659,7365 8670,7376 8666,7386C8657,7409 8541,7577 8524,7590C8498,7612 8509,7619 8560,7613C8680,7599 8791,7700 8703,7745C8693,7751 8641,7786 8588,7823C8506,7881 8451,7929 8301,8074C8282,8092 8255,8106 8228,8110C8204,8114 8142,8124 8090,8133C8038,8142 7930,8158 7850,8170C7770,8182 7676,8197 7640,8205C7604,8212 7555,8221 7531,8225C7459,8235 7288,8285 7245,8310C7149,8363 6997,8467 6935,8521C6919,8535 6869,8578 6825,8616C6747,8683 6644,8780 6390,9026C6020,9385 5912,9467 5843,9440ZM5953,9374C6013,9332 6225,9143 6339,9029C6405,8963 6734,8651 6794,8598C6904,8500 6905,8499 6890,8493C6882,8490 6856,8468 6833,8444L6792,8401L6746,8460C6654,8577 6446,8763 6258,8896C6227,8918 6184,8951 6163,8968C6017,9089 6012,9093 5979,9077C5961,9067 5954,9054 5949,9020C5946,8995 5936,8923 5927,8860C5888,8593 5879,8489 5869,8187C5857,7867 5868,7310 5890,7150C5899,7079 5895,7065 5875,7095C5850,7131 5839,7141 5830,7135C5825,7132 5837,7102 5857,7067C5928,6941 5966,6762 5954,6615C5940,6461 5870,6268 5794,6177C5758,6134 5680,6069 5670,6075C5666,6077 5660,6102 5656,6129C5650,6173 5653,6185 5676,6221C5751,6340 5786,6486 5761,6577C5744,6638 5682,6725 5625,6765C5575,6801 5469,6840 5423,6840C5406,6840 5378,6859 5339,6895C5280,6949 5180,7013 5108,7043C5087,7052 5070,7061 5070,7063C5070,7066 5083,7095 5100,7128C5174,7278 5212,7442 5214,7627C5214,7699 5218,7761 5221,7765C5229,7772 5340,7731 5395,7700C5471,7658 5556,7592 5623,7524C5681,7465 5690,7459 5690,7480C5690,7496 5668,7525 5624,7569L5558,7635L5564,7735C5580,7981 5623,8380 5661,8635C5703,8912 5801,9329 5838,9388C5858,9420 5892,9416 5953,9374ZM4247,9212C4358,9177 4462,9082 4575,8910C4634,8820 4740,8612 4740,8586C4740,8579 4743,8570 4747,8567C4759,8554 4791,8455 4816,8352C4839,8254 4840,8241 4830,8117C4825,8044 4816,7893 4810,7780C4798,7541 4770,7246 4760,7257C4756,7261 4741,7314 4726,7373C4694,7503 4668,7562 4634,7581C4612,7592 4602,7592 4562,7578C4518,7562 4514,7562 4497,7578C4474,7598 4404,7741 4356,7865C4317,7966 4245,8196 4235,8250C4229,8286 4207,8382 4189,8460C4170,8537 4130,8636 4099,8684C4016,8809 3930,8799 3859,8655L3828,8591L3827,8263C3825,7838 3854,7537 3926,7230C3931,7207 3927,7203 3878,7188C3849,7179 3787,7162 3740,7150C3592,7113 3177,6980 3030,6922C2989,6905 2924,6880 2885,6865C2628,6767 2208,6562 1980,6423C1890,6367 1660,6212 1641,6193C1620,6171 1617,6185 1630,6242C1664,6387 1771,6552 1975,6775C2067,6875 2084,6895 2159,6993C2222,7074 2235,7133 2226,7278C2222,7335 2224,7387 2231,7412C2248,7477 2319,7536 2467,7609C2631,7689 2644,7696 2649,7711C2654,7727 2611,7716 2532,7679C2458,7645 2440,7642 2465,7670C2490,7697 2522,7771 2553,7871C2592,7994 2651,8077 2747,8143C2783,8168 2810,8223 2810,8274C2810,8292 2799,8328 2785,8354C2771,8380 2760,8403 2760,8404C2760,8406 2784,8419 2814,8433C2885,8467 3000,8490 3097,8490C3245,8490 3542,8431 3672,8376C3718,8357 3720,8356 3720,8374C3720,8397 3560,8452 3395,8484C3290,8505 3123,8523 3110,8515C3091,8503 3088,8541 3104,8584C3130,8651 3178,8717 3229,8756C3312,8819 3361,8872 3391,8931C3426,9000 3468,9032 3556,9054C3625,9072 3761,9074 3858,9060C3893,9055 3928,9054 3937,9057C3945,9060 3963,9086 3977,9116C4006,9178 4025,9197 4077,9216C4130,9234 4178,9233 4247,9212ZM2588,8838C2579,8807 2559,8780 2518,8742C2458,8686 2413,8624 2424,8612C2428,8609 2454,8631 2482,8663C2510,8695 2556,8736 2584,8753C2636,8787 2750,8840 2767,8840C2773,8840 2806,8849 2840,8860C2875,8871 2906,8878 2909,8875C2925,8858 2861,8778 2670,8578C2591,8495 2599,8500 2385,8420C2358,8410 2310,8392 2280,8381C2250,8369 2201,8357 2172,8353C2130,8348 2114,8341 2093,8316C2069,8287 2068,8287 2075,8310C2086,8345 2119,8390 2134,8390C2154,8390 2173,8416 2251,8557C2348,8731 2405,8792 2527,8854C2564,8873 2596,8887 2598,8885C2600,8883 2596,8862 2588,8838ZM1100,8730C1235,8689 1393,8557 1461,8430C1483,8390 1485,8373 1485,8265C1484,8154 1482,8137 1448,8039C1428,7980 1402,7911 1389,7884C1198,7464 1137,7235 1124,6890C1115,6646 1133,6511 1198,6350C1267,6178 1381,6087 1546,6073C1683,6062 1840,6131 1963,6257C1994,6289 2033,6334 2051,6358C2068,6381 2086,6400 2091,6400C2111,6400 2166,6330 2183,6283C2223,6165 2241,5899 2221,5707C2216,5664 2195,5578 2174,5513L2135,5397L2080,5372C2030,5348 2013,5346 1885,5346C1764,5345 1736,5348 1680,5368C1439,5454 1243,5615 1073,5870C1019,5950 967,6048 943,6114C904,6220 869,6393 859,6520C842,6728 863,7082 900,7210C905,7229 919,7283 930,7330C951,7417 1024,7615 1067,7705C1080,7733 1123,7823 1161,7907C1221,8040 1231,8070 1240,8150C1268,8402 1147,8572 939,8572C813,8572 731,8546 609,8468C395,8331 284,8068 334,7815C353,7716 382,7657 438,7601C525,7514 608,7524 683,7630C728,7695 731,7676 689,7592C668,7549 645,7521 612,7497C549,7451 531,7447 479,7465C397,7494 348,7559 303,7699C273,7796 271,7960 301,8065C312,8104 324,8149 329,8165C354,8260 462,8435 578,8569C634,8635 734,8701 815,8728C892,8753 1022,8754 1100,8730ZM4039,8707C4102,8641 4137,8548 4193,8300C4262,7998 4381,7677 4467,7563C4494,7526 4524,7521 4570,7545C4594,7557 4604,7558 4619,7549C4648,7530 4676,7462 4700,7352C4711,7297 4728,7227 4736,7198C4761,7110 4761,7107 4712,7098C4617,7082 4514,7016 4470,6944C4458,6925 4445,6910 4441,6910C4432,6910 4270,7246 4270,7265C4270,7269 4264,7286 4256,7303C4195,7445 4104,7741 4075,7893C4067,7938 4056,7989 4051,8005C4046,8022 4030,8103 4015,8185C3951,8557 3938,8616 3921,8646L3902,8678L3933,8709C3973,8749 4001,8748 4039,8707ZM3918,8553C3924,8521 3943,8416 3960,8320C4007,8047 4041,7889 4085,7720C4122,7581 4204,7339 4256,7213C4313,7075 4453,6799 4464,6803C4470,6805 4474,6825 4472,6847C4470,6880 4475,6895 4502,6931C4538,6977 4613,7040 4634,7040C4642,7040 4637,7020 4619,6983C4551,6845 4502,6649 4479,6425C4473,6359 4464,6301 4460,6297C4449,6285 4317,6432 4256,6524C4038,6852 3919,7253 3870,7820C3850,8044 3855,8587 3877,8623C3888,8640 3906,8609 3918,8553ZM2905,8500C2902,8495 2894,8490 2887,8490C2881,8490 2845,8478 2808,8464C2725,8432 2717,8415 2754,8338C2768,8308 2780,8276 2780,8268C2780,8238 2750,8181 2728,8169C2715,8163 2689,8142 2669,8123L2633,8089L2569,8101C2462,8121 2308,8117 2212,8090C2149,8073 2117,8069 2078,8074C2026,8081 1977,8101 1965,8120C1956,8135 2030,8240 2050,8240C2059,8240 2082,8257 2103,8279C2133,8310 2148,8319 2191,8324C2219,8328 2282,8346 2329,8365C2497,8431 2616,8472 2695,8490C2783,8510 2915,8516 2905,8500ZM7038,8400C7263,8238 7325,8219 7990,8116C8081,8101 8173,8087 8195,8084C8253,8075 8261,8069 8386,7950C8448,7891 8542,7814 8595,7779C8654,7739 8690,7708 8690,7698C8690,7651 8563,7627 8495,7661C8460,7678 8380,7791 8321,7907C8284,7979 8276,7989 8252,7988C8212,7988 8060,8008 8020,8020C7978,8032 7970,8032 7970,8022C7970,8005 8042,7980 8122,7970C8257,7953 8261,7951 8295,7884C8331,7814 8394,7718 8485,7595C8570,7479 8620,7404 8620,7390C8620,7358 8477,7348 8432,7377C8393,7402 8381,7421 8380,7456C8380,7473 8371,7529 8360,7580C8349,7631 8340,7677 8340,7681C8340,7709 8275,7758 8172,7806C8109,7836 8056,7860 8054,7860C8051,7860 8021,7873 7987,7889C7873,7942 7809,7970 7805,7970C7802,7970 7800,7966 7800,7960C7800,7944 7868,7906 8008,7845C8220,7752 8290,7713 8305,7676C8317,7647 8330,7568 8381,7234C8405,7075 8401,7050 8352,7050C8301,7050 8294,7066 8250,7260C8173,7605 8148,7659 8059,7680C8030,7687 7995,7699 7981,7706C7967,7714 7951,7720 7945,7720C7937,7720 7781,7781 7715,7811C7627,7850 7544,7878 7537,7871C7521,7855 7570,7832 7840,7726C7914,7697 8001,7665 8032,7655C8063,7646 8097,7628 8108,7616C8130,7591 8163,7502 8183,7410C8245,7137 8262,7061 8271,7033C8311,6903 8152,6892 8020,7016C7939,7092 7862,7227 7840,7332C7826,7403 7776,7452 7682,7489C7532,7548 7265,7577 7157,7546C7098,7529 7075,7507 7066,7460C7064,7446 7054,7395 7044,7347C7022,7234 7032,7184 7100,7080C7166,6978 7190,6913 7191,6832C7194,6662 7129,6656 7011,6813C6990,6842 6951,6885 6925,6910C6860,6972 6816,7043 6791,7125C6765,7215 6717,7489 6724,7515C6727,7526 6757,7559 6790,7588C6847,7639 6911,7716 6939,7769C6960,7808 6969,7905 6959,7982C6949,8053 6878,8250 6838,8315C6815,8354 6815,8371 6842,8405C6862,8431 6917,8470 6933,8470C6937,8470 6985,8439 7038,8400ZM4972,8326C5052,8235 5146,8002 5169,7837C5183,7737 5183,7554 5169,7453C5155,7351 5129,7264 5079,7162L5038,7078L5002,7085C4982,7089 4954,7094 4940,7096C4926,7099 4888,7127 4856,7160L4796,7219L4808,7324C4821,7433 4830,7561 4855,8000C4863,8146 4873,8279 4876,8295C4892,8370 4924,8380 4972,8326ZM4833,7134C4851,7110 4851,7110 4826,7110C4800,7110 4780,7134 4780,7164C4780,7185 4807,7169 4833,7134ZM3981,7036C4003,6970 4020,6914 4020,6910C4020,6906 3974,6900 3918,6898C3861,6895 3802,6887 3785,6880C3769,6873 3751,6866 3745,6866C3702,6861 3592,6776 3565,6726C3548,6694 3547,6688 3560,6680C3572,6672 3571,6667 3552,6641C3540,6624 3530,6608 3530,6605C3530,6602 3519,6583 3507,6562C3494,6542 3464,6489 3440,6445C3224,6043 3067,5819 2930,5718C2911,5704 2848,5668 2790,5639C2563,5525 2481,5444 2346,5206C2296,5118 2235,4996 2193,4900C2182,4875 2156,4818 2136,4773C2116,4728 2100,4688 2100,4684C2100,4680 2089,4652 2076,4621C1998,4438 1960,4343 1960,4332C1960,4325 1956,4320 1951,4320C1940,4320 1930,4345 1930,4374C1930,4386 1926,4400 1921,4406C1916,4411 1901,4453 1889,4500C1867,4576 1865,4605 1865,4780C1866,4896 1870,4989 1877,5010C1883,5029 1896,5080 1905,5123C1914,5165 1924,5200 1928,5200C1945,5200 2000,4964 2000,4893C2000,4866 1993,4809 1985,4765C1939,4511 1930,4430 1949,4430C1958,4430 1972,4481 1984,4560C1987,4579 1997,4640 2005,4695C2058,5028 2174,5459 2265,5666C2278,5696 2292,5737 2295,5758L2301,5795L2282,5771L2262,5747L2257,5936C2250,6226 2221,6337 2133,6409C2093,6442 2096,6456 2149,6483C2163,6491 2236,6529 2310,6568C2384,6607 2495,6661 2555,6688C2616,6715 2685,6746 2710,6758C2735,6769 2809,6799 2875,6824C2941,6850 3015,6879 3040,6890C3065,6901 3105,6917 3130,6925C3393,7016 3660,7099 3855,7148C3937,7169 3939,7168 3981,7036ZM5027,7038C5078,7022 5135,6998 5155,6984C5175,6971 5204,6953 5220,6945C5237,6936 5282,6900 5320,6864C5464,6728 5541,6558 5610,6220C5628,6136 5631,6093 5627,6005C5624,5945 5617,5879 5611,5860C5604,5841 5594,5809 5588,5790C5551,5669 5396,5377 5295,5237C5249,5174 5144,5052 5096,5008C5039,4955 4955,4910 4898,4902C4854,4897 4844,4916 4888,4925C4944,4937 5024,4985 5097,5054C5223,5172 5389,5389 5378,5422C5375,5429 5352,5405 5327,5370C5254,5270 5192,5197 5095,5095C5070,5070 4981,5002 4945,4981C4897,4953 4807,4943 4758,4959C4739,4965 4706,4988 4685,5010C4654,5042 4650,5050 4663,5055C4672,5059 4676,5068 4673,5076C4666,5095 4650,5094 4650,5075C4650,5050 4635,5058 4594,5103C4519,5184 4310,5481 4310,5506C4310,5522 4353,5545 4358,5531C4366,5507 4536,5271 4608,5185C4695,5081 4713,5066 4744,5074C4798,5087 4985,5321 5110,5530C5183,5651 5190,5663 5207,5697L5224,5730L5289,5724C5378,5716 5429,5731 5473,5779C5585,5903 5585,6155 5474,6433C5455,6481 5432,6552 5424,6591C5401,6701 5359,6783 5292,6849C5208,6931 5136,6963 5035,6964C4916,6965 4861,6927 4819,6816C4776,6699 4807,6465 4894,6248C4931,6156 5001,6013 5029,5971C5039,5957 5064,5918 5086,5885C5124,5827 5150,5793 5179,5763C5191,5751 5191,5743 5176,5712C5124,5602 5003,5414 4895,5275C4828,5189 4744,5100 4729,5100C4725,5100 4697,5128 4669,5163C4641,5197 4601,5245 4581,5269C4561,5293 4501,5377 4448,5456C4376,5563 4350,5610 4345,5642C4303,5948 4288,6058 4284,6075C4282,6086 4276,6118 4271,6145C4242,6301 4197,6431 4159,6466C4136,6487 4135,6497 4156,6546L4172,6585L4189,6560C4283,6418 4433,6250 4466,6250C4497,6250 4497,6251 4509,6390C4522,6539 4554,6715 4586,6814C4616,6908 4674,7032 4698,7053C4737,7088 4896,7081 5027,7038ZM5155,6905C5217,6878 5304,6796 5343,6730C5390,6648 5404,6571 5404,6400C5404,6210 5387,6148 5269,5892C5253,5857 5240,5825 5240,5821C5240,5817 5232,5805 5221,5796C5203,5780 5200,5782 5149,5851C5078,5946 5061,5975 4996,6105C4931,6237 4915,6275 4888,6360C4845,6496 4839,6528 4833,6641C4827,6755 4828,6757 4859,6822C4876,6858 4901,6895 4914,6903C4977,6945 5064,6946 5155,6905ZM5522,6784C5587,6759 5666,6695 5695,6646C5751,6550 5747,6416 5683,6302C5664,6267 5646,6241 5644,6243C5641,6246 5630,6285 5619,6331C5579,6502 5531,6627 5456,6753L5428,6800L5454,6800C5468,6800 5499,6793 5522,6784ZM3494,6444C3384,6204 3279,6018 3182,5891C3150,5850 3070,5761 3003,5694C2928,5618 2880,5563 2880,5551C2880,5528 2858,5464 2793,5301C2712,5099 2543,4774 2415,4575C2385,4528 2360,4488 2360,4486C2360,4480 2092,4063 2051,4005C1977,3901 1913,3852 1878,3871C1854,3884 1833,3968 1819,4097C1807,4219 1811,4972 1824,5003C1829,5013 1828,5020 1822,5020C1816,5020 1804,4995 1795,4965C1782,4920 1779,4848 1778,4565L1776,4219L1750,4190C1713,4149 1692,4151 1685,4198C1682,4218 1665,4280 1648,4335C1610,4456 1609,4479 1643,4553C1673,4616 1676,4634 1658,4628C1644,4623 1580,4502 1580,4480C1580,4472 1587,4433 1597,4393L1613,4321L1556,4245C1524,4204 1495,4170 1491,4170C1488,4170 1473,4159 1458,4145C1408,4099 1406,4102 1408,4265C1411,4482 1410,4478 1487,4545C1523,4577 1566,4624 1584,4650C1601,4676 1635,4725 1659,4760C1738,4874 1795,5031 1815,5192C1821,5235 1824,5240 1856,5250C1876,5257 1894,5260 1896,5257C1899,5254 1890,5205 1877,5148C1863,5092 1845,4980 1836,4900C1822,4770 1821,4743 1835,4640C1843,4577 1854,4509 1859,4490C1864,4471 1880,4415 1894,4365C1908,4316 1920,4265 1920,4253C1920,4209 1941,4220 1966,4277C2029,4420 2065,4507 2105,4610C2125,4662 2147,4719 2154,4735C2162,4752 2182,4799 2200,4840C2251,4958 2357,5166 2418,5269C2474,5362 2589,5492 2642,5521C2656,5529 2714,5559 2771,5589C2969,5691 3027,5738 3128,5874C3215,5993 3280,6089 3280,6101C3280,6106 3283,6110 3288,6110C3292,6110 3311,6138 3329,6173C3348,6207 3375,6258 3390,6285C3405,6313 3433,6364 3452,6400C3532,6549 3552,6570 3494,6444ZM4170,6388C4182,6360 4203,6293 4216,6241C4247,6118 4299,5794 4299,5725C4299,5696 4299,5696 4284,5715C4265,5741 4140,5983 4119,6035C4110,6057 4098,6088 4092,6103C4070,6155 4082,6325 4115,6428C4124,6455 4149,6437 4170,6388ZM5463,6378C5487,6321 5518,6178 5524,6100C5529,6031 5528,6027 5515,6050C5507,6064 5500,6086 5500,6100C5500,6114 5486,6159 5470,6200C5447,6257 5440,6291 5440,6343C5440,6380 5442,6410 5445,6410C5448,6410 5456,6395 5463,6378ZM5474,6078C5492,5989 5495,5887 5479,5842C5463,5795 5400,5757 5332,5753C5260,5748 5242,5759 5258,5794C5268,5817 5276,5820 5318,5820C5378,5820 5414,5845 5441,5904C5462,5950 5466,6042 5449,6105C5443,6127 5436,6159 5434,6175L5429,6205L5444,6180C5452,6166 5465,6120 5474,6078ZM5428,6035C5430,6000 5427,5957 5421,5937C5405,5891 5358,5850 5319,5850C5292,5850 5289,5853 5295,5873C5305,5905 5315,5913 5345,5913C5387,5913 5414,5985 5400,6061C5396,6084 5394,6110 5398,6118C5407,6143 5422,6102 5428,6035ZM5366,5964C5363,5956 5354,5950 5346,5950C5334,5950 5334,5956 5348,5993C5364,6033 5365,6034 5368,6007C5370,5991 5369,5972 5366,5964ZM4180,5838C4197,5806 4215,5757 4221,5728C4230,5690 4243,5665 4276,5630C4322,5580 4332,5556 4303,5562C4267,5569 4188,5717 4144,5860C4118,5944 4129,5938 4180,5838ZM4139,5781C4150,5749 4160,5718 4160,5712C4160,5706 4109,5637 4047,5558C3855,5314 3832,5267 3883,5220C3920,5184 4049,5089 4106,5055C4136,5037 4167,5017 4174,5011C4203,4986 4479,4838 4548,4809C4605,4786 4796,4690 4818,4674C4820,4673 4810,4655 4795,4635C4781,4614 4769,4589 4769,4579C4768,4568 4766,4556 4765,4550C4764,4545 4762,4535 4761,4529C4760,4520 4680,4560 4480,4669C4450,4685 4380,4722 4325,4751C4270,4779 4213,4811 4198,4821C4184,4832 4170,4840 4167,4840C4161,4840 4000,4937 3925,4986C3787,5076 3620,5218 3620,5245C3620,5264 3708,5391 3785,5485C3902,5626 4095,5840 4106,5840C4112,5840 4127,5814 4139,5781ZM2094,5252C2081,5204 2066,5152 2060,5136C2055,5120 2050,5093 2050,5076C2049,5059 2043,5032 2036,5015L2023,4985L2015,5030C2011,5055 2002,5086 1995,5100C1988,5114 1979,5144 1975,5165C1971,5187 1955,5226 1939,5252L1911,5298L1958,5305C1984,5309 2028,5320 2055,5329C2083,5339 2108,5345 2112,5343C2115,5341 2107,5301 2094,5252ZM6734,5325C6804,5296 6822,5203 6771,5133C6756,5112 6724,5078 6701,5058C6626,4994 6456,4923 6337,4905C6305,4900 6285,4890 6275,4876C6267,4865 6230,4825 6193,4788C6143,4737 6120,4720 6099,4720C6058,4720 5970,4700 5970,4690C5970,4686 6027,4683 6098,4684C6216,4685 6228,4683 6270,4660C6295,4646 6317,4633 6320,4630C6338,4611 6436,4558 6496,4536C6566,4510 6598,4503 6778,4475C6887,4458 6921,4442 6950,4395C6969,4365 6970,4355 6961,4327C6945,4278 6864,4202 6816,4189C6782,4180 6756,4182 6670,4200C6530,4229 6371,4249 6282,4250C6180,4250 6051,4286 5939,4346C5886,4373 5870,4376 5870,4356C5870,4344 5933,4308 6010,4276C6024,4270 6036,4265 6038,4264C6039,4263 6036,4250 6030,4235C6017,4200 6030,4161 6063,4141C6101,4117 6235,4016 6238,4008C6240,4003 6246,4000 6252,4000C6257,4000 6283,3981 6308,3959C6334,3936 6371,3910 6390,3901C6486,3857 6587,3745 6597,3672C6602,3638 6599,3631 6566,3602C6538,3577 6520,3570 6489,3570C6440,3570 6331,3615 6253,3668C6221,3689 6166,3727 6130,3751C6094,3776 6036,3808 6000,3822C5964,3837 5899,3864 5856,3881C5812,3899 5748,3933 5712,3957C5648,4000 5630,4007 5630,3992C5630,3971 5771,3870 5800,3870C5809,3870 5811,3860 5804,3828C5784,3722 5793,3694 5901,3545C5963,3459 6013,3356 6034,3269C6055,3184 6054,3162 6029,3095C6007,3037 5957,2990 5915,2990C5878,2990 5850,3026 5850,3074C5850,3173 5798,3272 5691,3375C5651,3415 5619,3458 5596,3505C5577,3543 5534,3617 5501,3669C5467,3721 5440,3771 5440,3779C5440,3788 5449,3824 5460,3858C5471,3893 5480,3932 5480,3943C5479,3965 5479,3965 5460,3941C5449,3928 5440,3911 5440,3903C5440,3895 5431,3867 5419,3840L5398,3791L5421,3744C5433,3718 5463,3668 5486,3632C5510,3596 5548,3529 5571,3483C5602,3422 5627,3388 5664,3356C5747,3285 5770,3244 5777,3158C5784,3066 5769,3011 5726,2965C5701,2939 5684,2930 5660,2930C5611,2930 5590,2954 5590,3010C5590,3069 5574,3160 5552,3225C5536,3273 5494,3342 5419,3443C5384,3490 5383,3496 5378,3593C5375,3653 5366,3711 5356,3734C5347,3755 5340,3785 5340,3800C5340,3847 5291,4018 5261,4079C5200,4199 5098,4306 4949,4405C4896,4440 4841,4475 4827,4481C4813,4488 4799,4500 4797,4509C4792,4535 4807,4592 4828,4619C4852,4652 4876,4651 5000,4617C5239,4552 5446,4559 5610,4637C5681,4672 5782,4774 5840,4870C5903,4975 5978,5059 6044,5099C6096,5130 6314,5210 6347,5210C6355,5210 6385,5219 6413,5231C6523,5275 6567,5294 6615,5316C6674,5344 6686,5345 6734,5325ZM1410,4532C1410,4528 1405,4519 1399,4513C1392,4506 1383,4439 1377,4363C1367,4227 1367,4225 1337,4197C1320,4182 1301,4171 1296,4173C1289,4175 1285,4224 1285,4306C1286,4455 1297,4487 1358,4519C1399,4541 1410,4544 1410,4532Z" style="fill:rgb(39,145,239);fill-rule:nonzero;stroke:rgb(39,145,239);stroke-width:43.73px;"/>
            </g>
        </g>
    </g>
</svg>
