<?xml version="1.0" encoding="UTF-8" standalone="no"?>
<!DOCTYPE svg PUBLIC "-//W3C//DTD SVG 1.1//EN" "http://www.w3.org/Graphics/SVG/1.1/DTD/svg11.dtd">
<svg width="100%" height="100%" viewBox="0 0 827 801" version="1.1" xmlns="http://www.w3.org/2000/svg" xmlns:xlink="http://www.w3.org/1999/xlink" xml:space="preserve" xmlns:serif="http://www.serif.com/" style="fill-rule:evenodd;clip-rule:evenodd;stroke-linejoin:round;stroke-miterlimit:2;">
    <g transform="matrix(0.284802,0,0,-0.284802,-115.183,800.294)">
        <g id="A_Legios.svg">
            <g>
                <path d="M2434,2644C2424,2620 2421,2594 2425,2569C2430,2539 2427,2527 2412,2512C2381,2481 2370,2455 2370,2411C2370,2386 2365,2370 2358,2370C2352,2370 2350,2373 2353,2376C2369,2393 2337,2419 2292,2426C2258,2431 2233,2443 2202,2471C2178,2492 2142,2514 2123,2521C2087,2532 2086,2532 1976,2499C1954,2492 1942,2495 1923,2510C1893,2534 1847,2536 1830,2515C1813,2494 1803,2496 1768,2526C1705,2578 1671,2539 1666,2412C1663,2337 1651,2295 1610,2219C1599,2199 1590,2174 1590,2165C1590,2140 1541,2152 1485,2190C1434,2225 1370,2250 1331,2250C1313,2250 1296,2261 1277,2286C1257,2310 1242,2320 1227,2318C1208,2315 1205,2308 1202,2261C1199,2218 1193,2201 1174,2183C1136,2148 1111,2081 1107,2006C1104,1957 1098,1932 1081,1910L1059,1880L1085,1870C1100,1864 1118,1860 1127,1860C1136,1860 1167,1849 1195,1835C1233,1818 1250,1803 1254,1785C1260,1763 1266,1760 1301,1760C1347,1760 1380,1774 1380,1795C1380,1802 1390,1812 1403,1816C1415,1820 1436,1830 1449,1839C1463,1848 1484,1853 1496,1852C1510,1850 1525,1858 1539,1876C1559,1902 1563,1902 1626,1896C1674,1891 1704,1882 1734,1862C1756,1846 1794,1826 1818,1815C1859,1797 1860,1796 1860,1747C1860,1716 1866,1690 1875,1680C1889,1665 1887,1662 1850,1651C1828,1645 1786,1620 1757,1597L1705,1555L1630,1567C1589,1574 1506,1579 1445,1578C1385,1578 1322,1581 1307,1585C1292,1589 1253,1618 1222,1650C1181,1690 1150,1712 1114,1724C1086,1733 1036,1757 1004,1776C866,1860 826,1868 785,1825C763,1800 758,1799 688,1805C642,1809 604,1808 586,1801C558,1790 557,1788 563,1732C566,1701 578,1652 590,1624L612,1572L586,1534C572,1512 550,1483 538,1468C522,1447 515,1422 510,1363C507,1320 499,1275 491,1262C474,1230 483,1213 521,1205C538,1201 578,1174 611,1145C681,1080 721,1067 827,1075C905,1081 905,1081 954,1046C983,1025 1015,1010 1032,1010C1078,1010 1127,1036 1144,1068C1158,1096 1158,1100 1140,1123C1099,1174 1121,1189 1201,1165C1273,1143 1299,1153 1336,1216C1370,1273 1367,1295 1319,1339C1282,1373 1278,1380 1285,1408C1291,1435 1314,1460 1334,1460C1336,1460 1346,1434 1355,1403C1364,1371 1383,1316 1397,1281L1422,1217L1362,1163C1209,1027 1172,761 1281,588C1327,517 1429,430 1468,430C1473,430 1509,457 1547,489L1617,548L1661,523C1716,492 1795,463 1855,455C1880,451 1900,445 1900,441C1900,437 1895,408 1889,376C1876,301 1889,260 1938,227C1989,191 2052,179 2112,191C2214,213 2254,270 2248,383C2246,414 2249,440 2253,440C2258,440 2284,433 2311,424C2376,403 2484,410 2563,440C2767,518 2883,847 2780,1056C2721,1177 2620,1264 2524,1276C2479,1282 2469,1289 2403,1360C2360,1406 2315,1444 2288,1455C2265,1466 2217,1497 2183,1525C2149,1553 2094,1592 2061,1611C1997,1647 1987,1660 2020,1660C2032,1660 2052,1671 2065,1684C2086,1705 2089,1715 2084,1757C2078,1802 2080,1806 2107,1817C2137,1831 2189,1877 2214,1912C2227,1931 2234,1932 2257,1924C2280,1916 2284,1909 2282,1885C2280,1867 2266,1845 2247,1829L2216,1803L2248,1780C2265,1767 2285,1740 2291,1721C2297,1701 2313,1668 2327,1646L2352,1608L2321,1576C2304,1558 2290,1537 2290,1529C2290,1504 2346,1433 2392,1400C2455,1354 2488,1359 2544,1421L2590,1473L2643,1467C2672,1463 2723,1465 2757,1470L2820,1480L2869,1429C2917,1379 2921,1377 2961,1383C3010,1389 3046,1413 3078,1460C3109,1506 3106,1541 3066,1592L3033,1636L3061,1668C3086,1696 3096,1719 3114,1802C3117,1817 3142,1846 3170,1870C3198,1894 3219,1917 3217,1923C3216,1928 3189,1942 3157,1954C3110,1971 3095,1983 3071,2022C3054,2048 3023,2082 3001,2097C2980,2113 2955,2139 2947,2155C2910,2230 2817,2308 2778,2296C2722,2278 2710,2279 2710,2303C2710,2338 2730,2392 2752,2417L2772,2438L2741,2454C2724,2463 2710,2474 2710,2478C2710,2489 2632,2593 2612,2608C2603,2614 2580,2620 2560,2620C2532,2620 2517,2627 2497,2650C2482,2667 2465,2680 2459,2680C2454,2680 2442,2664 2434,2644ZM2494,2631C2517,2607 2528,2603 2554,2607C2578,2611 2590,2606 2609,2586L2633,2560L2593,2560C2563,2560 2543,2552 2515,2530C2479,2501 2476,2501 2458,2516C2433,2540 2433,2660 2459,2660C2463,2660 2479,2647 2494,2631ZM2623,2543C2625,2538 2622,2523 2616,2508C2607,2488 2601,2483 2590,2490C2567,2505 2527,2502 2502,2485C2486,2473 2475,2472 2461,2480C2450,2485 2434,2487 2425,2483C2410,2478 2409,2480 2419,2498C2430,2518 2432,2519 2454,2505C2475,2491 2479,2492 2516,2519C2553,2547 2613,2560 2623,2543ZM1774,2492C1842,2441 1860,2431 1838,2457C1813,2485 1816,2499 1847,2506C1882,2515 1926,2491 1922,2464C1921,2454 1913,2387 1904,2315C1895,2244 1886,2183 1884,2181C1882,2178 1845,2194 1802,2216C1738,2248 1722,2262 1705,2295C1670,2367 1675,2530 1713,2530C1719,2530 1746,2513 1774,2492ZM2652,2467C2649,2423 2653,2402 2669,2374C2690,2339 2689,2313 2668,2326C2635,2346 2611,2451 2626,2508C2638,2552 2655,2525 2652,2467ZM2106,2502C2111,2498 2121,2471 2128,2441C2147,2357 2195,2267 2245,2221C2282,2187 2289,2175 2284,2155C2275,2121 2268,2118 2236,2139C2157,2191 2031,2436 2053,2495C2060,2511 2088,2515 2106,2502ZM2686,2455C2682,2436 2684,2419 2690,2415C2695,2412 2700,2397 2700,2382L2699,2355L2680,2379C2661,2402 2652,2478 2666,2493C2681,2507 2691,2486 2686,2455ZM2040,2448C2055,2387 2081,2318 2097,2295C2116,2266 2113,2257 2086,2264C2037,2276 1955,2221 1929,2159C1918,2131 1915,2130 1851,2130C1746,2130 1703,2093 1687,1987C1682,1953 1685,1944 1718,1908C1743,1880 1748,1870 1734,1878C1696,1898 1632,1979 1616,2027C1599,2077 1595,2176 1609,2198C1614,2207 1619,2184 1622,2138C1625,2094 1635,2046 1648,2016C1677,1952 1684,1960 1660,2030C1635,2102 1635,2219 1659,2280L1677,2324L1695,2290C1715,2250 1732,2236 1804,2198C1893,2150 1896,2152 1910,2288C1924,2415 1939,2462 1973,2478C2015,2498 2029,2492 2040,2448ZM2591,2477C2600,2470 2609,2448 2613,2426C2616,2405 2628,2370 2639,2348C2662,2302 2650,2291 2599,2309C2545,2328 2494,2323 2478,2298L2463,2276L2426,2314C2388,2354 2387,2357 2405,2446C2410,2471 2439,2482 2464,2468C2475,2462 2487,2464 2502,2474C2529,2493 2569,2494 2591,2477ZM2182,2453C2197,2437 2212,2407 2216,2386C2220,2363 2237,2332 2256,2310C2279,2284 2290,2263 2290,2241C2290,2202 2281,2202 2244,2243C2202,2288 2181,2323 2159,2388C2127,2480 2135,2502 2182,2453ZM2734,2441C2737,2436 2733,2426 2724,2419C2711,2409 2707,2409 2700,2420C2695,2428 2694,2438 2696,2442C2703,2453 2727,2452 2734,2441ZM2387,2398C2384,2391 2382,2396 2382,2410C2382,2424 2384,2429 2387,2423C2389,2416 2389,2404 2387,2398ZM2328,2405C2333,2401 2292,2322 2282,2316C2262,2304 2230,2352 2230,2395C2230,2421 2231,2421 2278,2414C2304,2411 2326,2406 2328,2405ZM2391,2328C2422,2293 2425,2285 2410,2275C2405,2272 2400,2258 2400,2245C2400,2218 2434,2190 2467,2190C2485,2190 2521,2153 2508,2147C2506,2146 2476,2118 2441,2085C2407,2052 2379,2032 2380,2040C2385,2072 2379,2081 2341,2096C2303,2111 2302,2112 2311,2144C2316,2163 2319,2211 2318,2252C2316,2304 2319,2332 2329,2343C2348,2367 2357,2364 2391,2328ZM1260,2279C1280,2257 1291,2232 1295,2198C1299,2171 1299,2146 1296,2143C1293,2139 1273,2150 1252,2167C1218,2194 1215,2202 1212,2254C1209,2319 1218,2324 1260,2279ZM2646,2271C2711,2241 2740,2231 2710,2250C2699,2257 2701,2261 2723,2269C2790,2295 2846,2269 2901,2189C2923,2156 2938,2130 2936,2130C2933,2130 2910,2143 2884,2159C2802,2212 2789,2210 2714,2141C2678,2107 2638,2073 2624,2064C2601,2049 2598,2049 2581,2064C2535,2106 2478,2255 2494,2296C2503,2320 2563,2310 2646,2271ZM2690,2300C2690,2288 2662,2275 2654,2283C2645,2292 2660,2310 2676,2310C2684,2310 2690,2305 2690,2300ZM2464,2264C2484,2245 2484,2226 2466,2211C2456,2202 2447,2204 2429,2219C2397,2244 2412,2257 2447,2236L2475,2219L2448,2243C2433,2257 2424,2271 2427,2274C2437,2284 2448,2281 2464,2264ZM2120,2235C2137,2226 2150,2216 2150,2211C2150,2206 2170,2180 2194,2153C2237,2105 2238,2104 2230,2053C2206,1904 2099,1810 1953,1810C1899,1810 1873,1816 1833,1835C1772,1866 1700,1940 1700,1972C1700,2015 1720,2066 1746,2091C1768,2112 1782,2115 1847,2117L1922,2119L1949,2164C1994,2243 2056,2268 2120,2235ZM1412,2214C1448,2196 1498,2133 1506,2096C1510,2079 1515,2070 1517,2077C1519,2083 1514,2105 1505,2126C1483,2179 1496,2182 1520,2129C1541,2082 1546,2040 1531,2040C1526,2040 1509,2059 1493,2081C1439,2161 1355,2183 1328,2124C1318,2102 1313,2100 1274,2106C1238,2111 1229,2108 1201,2083C1181,2065 1168,2042 1165,2020L1160,1985L1172,2024C1179,2045 1197,2072 1213,2083C1237,2101 1245,2103 1281,2093C1319,2083 1321,2084 1336,2111C1357,2153 1392,2158 1436,2125C1511,2068 1530,1989 1487,1918C1436,1834 1333,1798 1245,1834C1205,1851 1179,1888 1168,1944L1161,1985L1164,1938C1166,1907 1164,1893 1157,1897C1151,1900 1150,1898 1154,1891C1158,1885 1166,1882 1171,1885C1176,1889 1180,1887 1180,1881C1180,1860 1161,1861 1146,1882C1128,1907 1125,1924 1140,1915C1145,1912 1142,1928 1134,1952C1115,2004 1121,2073 1149,2127C1182,2192 1192,2196 1241,2161C1301,2117 1312,2120 1310,2178C1309,2204 1309,2229 1309,2233C1310,2243 1378,2231 1412,2214ZM2855,2164C2872,2156 2895,2142 2908,2132L2931,2114L2904,2065C2889,2037 2876,2014 2875,2012C2874,2011 2853,2019 2829,2030C2805,2041 2765,2050 2741,2050C2703,2050 2692,2045 2653,2006L2609,1961L2573,1986C2514,2026 2462,2015 2392,1947L2350,1906L2367,1950C2395,2020 2529,2154 2530,2113C2530,2108 2545,2087 2564,2065L2597,2026L2632,2052C2651,2067 2693,2104 2724,2135C2785,2194 2788,2195 2855,2164ZM1568,2120C1557,2102 1540,2093 1540,2104C1540,2106 1537,2115 1534,2124C1529,2136 1534,2140 1554,2140C1578,2140 1579,2138 1568,2120ZM1594,2060C1599,2026 1586,1975 1563,1941C1561,1938 1554,1945 1546,1955C1537,1968 1535,1981 1541,1995C1545,2006 1554,2034 1560,2058C1573,2111 1586,2112 1594,2060ZM2358,2052C2360,2039 2348,2013 2328,1988C2310,1964 2294,1943 2293,1941C2292,1939 2277,1943 2260,1950C2237,1959 2231,1967 2236,1979C2240,1988 2248,2018 2254,2046L2264,2097L2309,2085C2344,2077 2356,2069 2358,2052ZM2983,2080L3009,2059L2988,2018C2947,1940 2972,1801 3036,1751C3065,1728 3066,1722 3038,1693C2997,1649 2961,1672 2915,1772C2868,1874 2871,1982 2922,2068C2945,2106 2949,2106 2983,2080ZM2819,2019L2868,1999L2872,1907C2877,1803 2901,1736 2951,1684C2987,1646 2984,1634 2919,1576C2860,1522 2798,1497 2709,1492C2512,1480 2358,1596 2343,1769C2338,1821 2341,1837 2364,1885C2414,1985 2505,2019 2583,1966L2619,1941L2640,1976C2681,2041 2737,2055 2819,2019ZM3052,1961C3033,1928 3042,1852 3068,1824C3089,1802 3083,1755 3060,1755C3052,1755 3032,1775 3015,1798C2988,1838 2985,1849 2985,1920C2985,1984 2989,2002 3005,2020L3025,2042L3046,2015C3066,1990 3067,1986 3052,1961ZM1639,1948L1662,1910L1628,1910C1574,1910 1566,1921 1586,1964C1605,2003 1606,2003 1639,1948ZM2370,1991C2370,1985 2366,1979 2361,1976C2356,1973 2344,1941 2335,1905C2313,1823 2319,1737 2353,1669C2379,1616 2373,1605 2341,1646C2297,1702 2279,1814 2301,1895C2317,1954 2370,2028 2370,1991ZM3144,1941L3192,1924L3137,1877C3087,1834 3080,1831 3072,1847C3057,1877 3049,1921 3055,1941C3063,1964 3079,1964 3144,1941ZM1540,1914C1540,1909 1530,1894 1519,1881C1487,1847 1474,1869 1501,1914C1517,1942 1525,1948 1531,1938C1536,1931 1540,1920 1540,1914ZM1110,1882C1081,1877 1074,1886 1091,1906C1103,1920 1105,1920 1118,1903C1129,1887 1129,1885 1110,1882ZM913,1808C982,1774 983,1776 882,1750C820,1734 787,1697 750,1603C732,1557 712,1520 705,1520C660,1520 587,1640 574,1734C568,1777 569,1780 595,1790C621,1800 768,1789 791,1775C796,1771 800,1773 800,1779C800,1784 794,1790 788,1793C769,1799 808,1840 832,1840C842,1840 879,1826 913,1808ZM2280,1800C2280,1789 2276,1780 2271,1780C2258,1780 2239,1806 2247,1813C2260,1827 2280,1819 2280,1800ZM1350,1796C1350,1788 1335,1779 1315,1776C1276,1768 1260,1774 1260,1796C1260,1806 1272,1810 1305,1810C1337,1810 1350,1806 1350,1796ZM2054,1784C2078,1721 2045,1679 1967,1673C1902,1667 1884,1681 1876,1742L1869,1789L1952,1793C1998,1794 2038,1797 2041,1798C2045,1799 2051,1793 2054,1784ZM1028,1740C1051,1730 1070,1719 1070,1717C1070,1715 1062,1698 1053,1679C1044,1660 1034,1619 1032,1588L1028,1531L989,1550C943,1574 880,1576 839,1555C823,1546 793,1515 774,1485L740,1430L701,1446C647,1467 620,1461 593,1421L570,1387L570,1429C570,1469 602,1550 618,1550C622,1550 639,1541 655,1530C672,1519 693,1510 702,1510C720,1510 752,1564 785,1653C805,1706 845,1734 923,1750C983,1761 981,1761 1028,1740ZM1167,1678C1236,1618 1240,1611 1213,1584C1200,1571 1190,1552 1190,1540C1190,1505 1219,1448 1240,1443C1251,1440 1260,1431 1260,1423C1260,1401 1241,1370 1227,1370C1207,1370 1163,1420 1146,1462C1117,1530 1132,1637 1172,1653C1180,1656 1178,1659 1167,1659C1137,1661 1107,1580 1116,1522C1127,1443 1182,1360 1222,1360C1244,1360 1245,1348 1225,1311C1202,1266 1186,1267 1139,1313C1043,1409 1011,1580 1070,1678C1095,1719 1119,1719 1167,1678ZM1997,1615C2029,1601 2124,1538 2170,1500L2195,1479L2171,1486C2135,1496 1995,1492 1949,1480C1914,1470 1910,1466 1916,1447C1940,1372 1906,1245 1843,1169L1806,1125L1842,1158C1861,1177 1890,1217 1906,1248C1929,1295 1934,1318 1935,1382C1935,1425 1937,1460 1940,1460C1943,1460 1974,1465 2010,1471C2159,1495 2326,1430 2408,1316L2439,1272L2400,1266C2350,1258 2293,1231 2285,1213C2283,1205 2285,1178 2291,1153C2305,1099 2303,1097 2207,1075L2139,1059L2075,1091C2036,1110 1990,1124 1953,1127C1850,1136 1798,1095 1721,943C1699,898 1686,882 1675,886C1651,896 1552,1020 1525,1074C1511,1102 1500,1141 1500,1162C1500,1195 1503,1200 1523,1200C1562,1200 1666,1172 1725,1145C1757,1131 1785,1122 1787,1124C1790,1126 1770,1138 1743,1150C1604,1212 1497,1228 1485,1190C1482,1179 1482,1166 1485,1160C1488,1155 1489,1150 1486,1150C1474,1150 1410,1282 1387,1355C1353,1465 1345,1517 1360,1535C1383,1563 1580,1552 1745,1515C1773,1509 1774,1509 1756,1524C1737,1540 1737,1540 1761,1566C1824,1633 1909,1651 1997,1615ZM3040,1588C3081,1543 3084,1527 3061,1482C3037,1436 3001,1410 2950,1403C2917,1398 2910,1402 2877,1441C2857,1464 2840,1487 2840,1490C2840,1494 2861,1511 2888,1528C2914,1544 2948,1572 2964,1589C2981,1606 2997,1620 3002,1620C3007,1620 3024,1605 3040,1588ZM2427,1566C2448,1548 2486,1522 2513,1509L2560,1485L2531,1450C2515,1431 2500,1417 2498,1420C2496,1423 2479,1444 2461,1468C2442,1492 2406,1523 2379,1539C2334,1565 2332,1567 2347,1583C2372,1607 2385,1604 2427,1566ZM1302,1574C1337,1568 1339,1566 1333,1536C1326,1498 1315,1483 1277,1464C1251,1450 1246,1450 1230,1465C1207,1485 1197,1536 1210,1561C1221,1581 1241,1584 1302,1574ZM980,1538C1020,1517 1026,1509 1040,1460C1061,1390 1074,1366 1123,1307C1161,1261 1162,1259 1146,1235C1117,1192 1076,1158 1012,1128C952,1099 943,1098 862,1102C766,1108 699,1134 646,1186C583,1249 563,1346 600,1408C626,1451 642,1456 690,1436C744,1415 757,1416 766,1443C785,1504 851,1560 905,1560C922,1560 956,1550 980,1538ZM2368,1533C2409,1508 2460,1458 2476,1429C2494,1393 2475,1375 2436,1390C2402,1403 2320,1479 2309,1508C2292,1551 2320,1563 2368,1533ZM555,1402C556,1271 613,1175 722,1121C774,1094 779,1090 754,1090C710,1091 646,1124 602,1169C561,1211 520,1312 520,1371C520,1397 544,1470 552,1470C554,1470 555,1440 555,1402ZM1318,1316C1350,1288 1345,1256 1304,1210C1263,1165 1253,1163 1187,1186L1140,1202L1161,1231C1172,1247 1185,1258 1190,1255C1200,1249 1245,1306 1255,1338C1262,1363 1266,1362 1318,1316ZM535,1242C541,1220 540,1219 518,1225C487,1235 487,1235 500,1260C513,1284 524,1278 535,1242ZM2551,1238C2639,1208 2721,1124 2762,1022C2793,941 2793,799 2760,715C2696,550 2603,465 2457,440C2302,413 2158,492 2085,645C2061,696 2056,720 2053,805C2047,972 2085,1038 2197,1055C2223,1059 2262,1069 2283,1077C2318,1091 2321,1096 2316,1121C2296,1218 2294,1208 2341,1230C2391,1252 2497,1257 2551,1238ZM1484,1119C1505,1081 1520,1048 1519,1047C1517,1046 1502,1038 1485,1030C1469,1021 1447,999 1438,980L1420,945L1420,1030C1420,1121 1428,1190 1439,1190C1443,1190 1463,1158 1484,1119ZM1392,1143C1274,975 1290,763 1434,603L1481,551L1469,506C1463,481 1452,460 1446,460C1420,460 1349,524 1310,582C1252,670 1236,732 1243,856C1249,982 1277,1050 1352,1127C1407,1183 1425,1190 1392,1143ZM1112,1133C1136,1111 1135,1088 1106,1061C1070,1027 1020,1023 971,1051C925,1077 919,1090 953,1090C966,1090 1001,1103 1031,1119C1061,1134 1087,1148 1089,1149C1092,1149 1102,1143 1112,1133ZM1402,1028L1399,915L1363,880L1328,845L1333,927C1337,991 1345,1025 1369,1075C1385,1111 1400,1140 1402,1140C1404,1140 1404,1089 1402,1028ZM2058,1080C2105,1059 2109,1051 2080,1025C2045,994 2027,908 2032,804L2037,711L1986,689C1919,661 1811,665 1756,700L1719,723L1687,692C1599,609 1539,624 1480,743C1428,850 1421,947 1463,1004C1486,1036 1529,1027 1566,984C1584,962 1599,942 1600,939C1600,935 1583,938 1563,945C1542,952 1510,960 1491,962C1444,966 1439,944 1483,925C1513,913 1518,905 1524,865C1528,840 1542,807 1555,792L1578,765L1600,785C1619,802 1621,813 1618,862L1614,918L1649,889C1669,873 1688,860 1692,860C1695,860 1714,893 1734,933C1778,1025 1834,1089 1880,1100C1927,1112 2006,1103 2058,1080ZM1546,939C1579,930 1594,921 1601,903C1615,865 1612,804 1594,790C1571,770 1550,798 1536,866C1525,919 1522,924 1490,936C1462,946 1459,949 1478,949C1491,950 1521,945 1546,939ZM1434,814C1442,787 1452,756 1456,747C1461,732 1455,730 1412,730C1365,730 1361,732 1351,761C1334,811 1338,832 1372,867C1409,905 1405,908 1434,814ZM1509,660C1527,633 1553,601 1568,589L1595,568L1541,519C1511,492 1485,471 1484,473C1482,474 1485,493 1490,515C1499,553 1497,557 1461,595C1423,635 1380,693 1380,704C1380,707 1402,710 1428,710C1475,710 1478,709 1509,660ZM1740,695C1756,676 1842,650 1890,650C1923,650 1986,665 2031,684C2043,689 2051,682 2060,658C2067,640 2086,606 2102,582L2130,539L2077,515C1955,459 1829,459 1714,515C1655,544 1570,606 1570,620C1570,626 1586,630 1606,630C1635,630 1649,638 1679,669C1721,714 1724,715 1740,695ZM2181,488C2214,461 2220,451 2220,418L2220,379L2187,404C2118,457 2014,457 1944,405L1913,382L1919,417C1925,452 1927,454 1986,466C2020,473 2067,487 2091,498C2115,509 2136,519 2138,519C2140,520 2159,506 2181,488ZM2169,392C2240,335 2236,271 2160,233C2088,196 1983,207 1928,257C1886,295 1923,384 1995,417C2043,439 2125,427 2169,392Z" style="fill:rgb(225,84,18);fill-rule:nonzero;stroke:rgb(225,84,18);stroke-width:7.02px;"/>
                <path d="M2534,2426C2526,2404 2533,2367 2547,2362C2564,2357 2574,2384 2566,2415C2559,2443 2542,2448 2534,2426ZM2560,2394C2560,2380 2556,2372 2550,2375C2545,2378 2540,2392 2540,2406C2540,2420 2544,2428 2550,2425C2556,2422 2560,2408 2560,2394Z" style="fill:rgb(225,84,18);fill-rule:nonzero;stroke:rgb(225,84,18);stroke-width:7.02px;"/>
                <path d="M2436,2422C2433,2416 2434,2410 2439,2408C2452,2403 2463,2360 2451,2360C2446,2360 2439,2368 2436,2378C2432,2391 2432,2391 2433,2375C2434,2364 2442,2355 2450,2355C2461,2355 2464,2364 2462,2385C2458,2419 2445,2437 2436,2422Z" style="fill:rgb(225,84,18);fill-rule:nonzero;stroke:rgb(225,84,18);stroke-width:7.02px;"/>
                <path d="M2024,2125C2017,2109 2053,2028 2075,2010C2110,1981 2133,2026 2109,2073C2080,2129 2036,2156 2024,2125ZM2096,2063C2113,2022 2113,2020 2095,2020C2076,2020 2040,2078 2040,2109C2040,2133 2040,2133 2061,2114C2073,2104 2089,2081 2096,2063Z" style="fill:rgb(225,84,18);fill-rule:nonzero;stroke:rgb(225,84,18);stroke-width:7.02px;"/>
                <path d="M1833,2014C1820,1981 1886,1880 1912,1896C1928,1906 1920,1958 1898,1986C1862,2033 1844,2041 1833,2014ZM1889,1976C1926,1917 1911,1885 1871,1936C1850,1963 1842,2010 1859,2010C1864,2010 1878,1995 1889,1976Z" style="fill:rgb(225,84,18);fill-rule:nonzero;stroke:rgb(225,84,18);stroke-width:7.02px;"/>
                <path d="M1383,2040C1389,1996 1405,1970 1426,1970C1435,1970 1439,1980 1439,1998C1437,2021 1437,2022 1433,2003C1431,1990 1424,1980 1419,1980C1408,1980 1390,2023 1390,2051C1390,2076 1407,2075 1415,2049C1419,2038 1424,2031 1427,2033C1436,2043 1409,2080 1393,2080C1380,2080 1378,2072 1383,2040Z" style="fill:rgb(225,84,18);fill-rule:nonzero;stroke:rgb(225,84,18);stroke-width:7.02px;"/>
                <path d="M1257,2024C1242,2009 1251,1970 1274,1943C1293,1922 1301,1918 1311,1927C1320,1936 1319,1948 1309,1982C1296,2022 1273,2040 1257,2024ZM1296,1979C1303,1960 1305,1941 1302,1936C1294,1921 1260,1970 1260,1997C1260,2032 1282,2021 1296,1979Z" style="fill:rgb(225,84,18);fill-rule:nonzero;stroke:rgb(225,84,18);stroke-width:7.02px;"/>
                <path d="M2716,1908C2683,1861 2708,1734 2748,1742C2788,1750 2799,1873 2763,1912C2742,1935 2734,1935 2716,1908ZM2764,1888C2774,1847 2770,1784 2756,1764C2742,1746 2741,1747 2726,1782C2717,1803 2710,1831 2710,1845C2710,1901 2751,1934 2764,1888Z" style="fill:rgb(225,84,18);fill-rule:nonzero;stroke:rgb(225,84,18);stroke-width:7.02px;"/>
                <path d="M2469,1888C2442,1838 2469,1723 2505,1736C2525,1744 2543,1806 2537,1847C2527,1908 2491,1930 2469,1888ZM2520,1826C2520,1798 2515,1768 2510,1760C2483,1719 2455,1834 2481,1881C2499,1915 2520,1886 2520,1826Z" style="fill:rgb(225,84,18);fill-rule:nonzero;stroke:rgb(225,84,18);stroke-width:7.02px;"/>
                <path d="M1825,1500C1828,1495 1833,1490 1836,1490C1838,1490 1840,1495 1840,1500C1840,1506 1835,1510 1829,1510C1824,1510 1822,1506 1825,1500Z" style="fill:rgb(225,84,18);fill-rule:nonzero;stroke:rgb(225,84,18);stroke-width:7.02px;"/>
                <path d="M865,1430C850,1383 918,1279 954,1293C987,1306 970,1371 922,1423C891,1455 874,1457 865,1430ZM929,1401C953,1368 966,1315 953,1307C932,1294 880,1361 880,1402C880,1439 903,1438 929,1401Z" style="fill:rgb(225,84,18);fill-rule:nonzero;stroke:rgb(225,84,18);stroke-width:7.02px;"/>
                <path d="M664,1325C654,1300 670,1259 701,1227C728,1201 733,1199 746,1212C766,1232 755,1272 720,1310C689,1343 672,1348 664,1325ZM712,1303C754,1254 760,1198 721,1219C703,1229 670,1287 670,1309C670,1326 695,1322 712,1303Z" style="fill:rgb(225,84,18);fill-rule:nonzero;stroke:rgb(225,84,18);stroke-width:7.02px;"/>
                <path d="M2435,1110C2370,1085 2304,1020 2272,950C2241,885 2237,779 2263,719C2299,634 2395,561 2470,560C2582,560 2695,682 2715,825C2719,853 2730,887 2741,902C2766,937 2765,945 2735,958C2721,964 2710,977 2710,986C2710,1019 2664,1082 2624,1106C2573,1136 2506,1137 2435,1110ZM2580,1110C2621,1099 2674,1049 2690,1006C2696,990 2699,976 2697,974C2695,972 2671,977 2644,985C2587,1002 2536,1004 2510,990C2475,971 2450,916 2450,857C2450,806 2453,797 2485,765C2513,738 2529,730 2557,730C2589,730 2602,738 2648,786L2703,842L2695,804C2680,722 2607,620 2543,594C2439,550 2302,630 2269,754C2256,803 2263,893 2286,949C2306,1001 2396,1083 2452,1103C2504,1122 2534,1123 2580,1110ZM2678,958C2712,947 2740,935 2740,930C2740,912 2602,764 2576,755C2533,740 2478,774 2466,822C2454,869 2472,933 2506,967C2534,995 2566,994 2678,958Z" style="fill:rgb(225,84,18);fill-rule:nonzero;stroke:rgb(225,84,18);stroke-width:7.02px;"/>
                <path d="M1914,1031C1811,959 1804,949 1819,897C1838,833 1876,788 1908,792C1953,797 1965,839 1946,913L1930,975L1971,1012C1999,1036 2011,1053 2007,1064C1998,1088 1990,1085 1914,1031ZM1962,1021C1919,983 1918,982 1929,944C1935,923 1940,884 1940,858C1940,819 1936,810 1919,805C1890,795 1853,834 1835,892C1819,947 1820,950 1909,1014C1987,1071 2024,1076 1962,1021Z" style="fill:rgb(225,84,18);fill-rule:nonzero;stroke:rgb(225,84,18);stroke-width:7.02px;"/>
                <path d="M1861,951L1838,933L1857,889C1883,832 1905,812 1918,836C1927,853 1927,860 1909,933C1898,975 1894,977 1861,951ZM1900,924C1912,892 1913,840 1901,840C1891,840 1860,902 1860,922C1860,957 1887,959 1900,924Z" style="fill:rgb(225,84,18);fill-rule:nonzero;stroke:rgb(225,84,18);stroke-width:7.02px;"/>
                <path d="M1550,898C1550,863 1570,800 1580,800C1598,800 1594,901 1577,912C1557,925 1550,921 1550,898ZM1580,858C1580,809 1575,811 1566,863C1562,886 1563,900 1570,900C1575,900 1580,881 1580,858Z" style="fill:rgb(225,84,18);fill-rule:nonzero;stroke:rgb(225,84,18);stroke-width:7.02px;"/>
            </g>
        </g>
    </g>
</svg>
