<?xml version="1.0" encoding="UTF-8" standalone="no"?>
<!DOCTYPE svg PUBLIC "-//W3C//DTD SVG 1.1//EN" "http://www.w3.org/Graphics/SVG/1.1/DTD/svg11.dtd">
<svg width="100%" height="100%" viewBox="0 0 440 550" version="1.1" xmlns="http://www.w3.org/2000/svg" xmlns:xlink="http://www.w3.org/1999/xlink" xml:space="preserve" xmlns:serif="http://www.serif.com/" style="fill-rule:evenodd;clip-rule:evenodd;stroke-linejoin:round;stroke-miterlimit:2;">
    <g id="ArtBoard1" transform="matrix(0.79881,0,0,1,0,0)">
        <rect x="0" y="0" width="550" height="550" style="fill:none;"/>
        <g transform="matrix(0.125186,0,0,-0.1,-138.525,550)">
            <g transform="matrix(0.886341,0.745362,-0.745362,0.886341,2744.26,-2078.83)">
                <path d="M2926,5328C2818,5184 2763,5127 2615,5000C2323,4750 2251,4656 2195,4444C2162,4320 2167,4111 2206,4005C2211,3991 2200,3998 2172,4024C2117,4077 2100,4069 2100,3991C2100,3880 2136,3755 2192,3671C2210,3643 2211,3637 2198,3643C2126,3670 2036,3680 2019,3663C1996,3640 2088,3508 2161,3458C2183,3444 2222,3427 2250,3420C2299,3408 2299,3408 2305,3362C2308,3336 2313,3298 2316,3278C2319,3257 2319,3240 2315,3240C2312,3240 2292,3249 2270,3260C2223,3284 2200,3285 2200,3264C2200,3234 2278,3041 2308,2998C2325,2973 2343,2930 2348,2899C2362,2826 2393,2745 2434,2677L2468,2621L2432,2553C2412,2516 2386,2467 2375,2445L2353,2405L2289,2406C2254,2406 2194,2410 2157,2415C2091,2423 2088,2422 2058,2394C2022,2360 1964,2246 1955,2190C1949,2155 1944,2150 1889,2126C1795,2085 1792,2058 1917,2360C1976,2501 1999,2543 2077,2652C2177,2791 2196,2832 2185,2888C2167,2987 2034,3136 1911,3193C1852,3221 1836,3225 1760,3224C1572,3222 1479,3139 1435,2935C1417,2848 1392,2585 1385,2385C1381,2303 1368,2148 1354,2041C1317,1742 1322,1690 1394,1656C1440,1634 1534,1635 1585,1659C1607,1669 1659,1705 1700,1739C1741,1772 1793,1809 1816,1820C1865,1844 1952,1847 1970,1825C1977,1817 1998,1808 2019,1804C2039,1801 2071,1787 2090,1775C2109,1762 2137,1749 2153,1746C2168,1743 2191,1738 2204,1735C2221,1732 2235,1714 2255,1673C2290,1599 2318,1560 2336,1560C2344,1560 2350,1569 2350,1580C2350,1591 2353,1600 2358,1600C2367,1599 2444,1493 2484,1427C2509,1385 2510,1377 2497,1367C2471,1347 2440,1287 2440,1257C2440,1197 2498,1130 2568,1109C2602,1099 2607,1093 2633,1022C2649,979 2707,854 2762,742L2863,539L2846,432C2819,261 2817,256 2764,229C2738,216 2708,193 2697,178C2680,155 2679,147 2689,123C2713,65 2804,39 2905,60C3023,85 3047,144 3036,392C3030,545 3018,585 2966,640C2934,673 2931,682 2905,840C2890,931 2867,1038 2854,1077C2836,1133 2833,1155 2840,1175C2846,1190 2850,1212 2850,1224C2850,1237 2858,1258 2868,1271C2891,1301 2899,1470 2877,1470C2869,1470 2865,1490 2865,1537C2865,1575 2861,1607 2855,1610C2850,1613 2832,1596 2815,1573C2799,1550 2783,1531 2780,1531C2777,1530 2775,1598 2775,1681L2775,1833L2815,1845C2879,1864 2972,1915 3009,1952C3028,1970 3052,2005 3063,2030C3091,2091 3097,2219 3077,2279C3061,2323 3061,2324 3089,2356C3108,2377 3120,2405 3125,2436C3131,2476 3139,2491 3171,2518C3215,2556 3270,2631 3270,2653C3270,2672 3251,2679 3215,2673C3184,2666 3184,2666 3232,2737C3247,2760 3260,2783 3260,2789C3260,2807 3145,2802 3090,2781C3063,2770 3040,2764 3040,2767C3040,2769 3063,2798 3091,2830C3130,2875 3154,2893 3191,2905C3273,2933 3322,2986 3341,3069C3352,3120 3337,3147 3291,3160C3243,3173 3162,3158 3125,3128C3096,3105 3066,3051 3055,3002C3049,2971 3015,2938 2962,2910C2939,2899 2938,2899 2945,2930C2949,2947 2969,2989 2989,3022C3021,3074 3039,3091 3103,3130C3195,3185 3331,3291 3368,3335C3383,3353 3412,3373 3432,3379C3453,3386 3472,3396 3475,3401C3479,3406 3491,3410 3503,3410C3534,3410 3701,3453 3819,3491L3920,3523L3990,3491C4044,3466 4069,3460 4093,3464C4152,3476 4200,3533 4200,3591C4200,3661 4127,3689 4032,3656C4002,3645 3940,3642 3773,3643L3553,3645L3588,3695C3633,3761 3645,3791 3628,3802C3621,3806 3586,3810 3551,3810L3488,3810L3538,3855C3594,3905 3677,4013 3707,4075C3740,4141 3807,4361 3837,4500C3852,4569 3855,4630 3855,4825C3855,5153 3830,5306 3778,5298C3758,5295 3752,5283 3732,5205C3679,4997 3529,4765 3285,4514C3228,4455 3178,4408 3176,4411C3173,4413 3178,4478 3186,4555C3210,4778 3198,4990 3160,4990C3155,4990 3125,4940 3093,4879C3030,4759 2950,4653 2846,4550L2780,4486L2805,4567C2844,4693 2873,4765 2939,4896C3036,5090 3054,5153 3055,5291C3055,5403 3046,5440 3020,5440C3015,5440 2973,5389 2926,5328ZM3034,5404C3037,5395 3040,5344 3040,5290C3040,5164 3022,5106 2916,4880C2870,4784 2816,4651 2795,4585L2757,4465L2656,4365C2498,4208 2447,4093 2446,3892L2445,3780L2425,3807C2414,3823 2393,3848 2378,3865L2351,3895L2350,3870C2350,3856 2357,3821 2364,3793C2372,3764 2376,3723 2373,3701L2368,3663L2335,3699C2316,3719 2298,3732 2294,3728C2290,3723 2299,3690 2313,3653C2328,3615 2344,3561 2350,3533C2362,3468 2384,3424 2410,3410C2427,3401 2435,3404 2455,3426C2469,3441 2480,3461 2480,3471C2480,3481 2485,3492 2490,3495C2496,3498 2500,3496 2500,3490C2500,3483 2507,3462 2516,3443C2529,3418 2530,3406 2521,3397C2515,3391 2510,3373 2510,3358C2510,3343 2505,3330 2499,3330C2492,3330 2490,3319 2493,3300C2499,3273 2495,3275 2447,3328C2400,3379 2369,3430 2345,3495C2341,3506 2336,3510 2333,3503C2331,3497 2336,3476 2344,3456C2359,3421 2358,3420 2337,3420C2291,3420 2198,3449 2166,3471C2115,3508 2030,3617 2030,3646C2030,3677 2165,3648 2247,3600C2265,3589 2280,3583 2280,3586C2280,3589 2262,3613 2239,3638C2159,3729 2120,3840 2120,3975L2121,4055L2168,4004C2194,3976 2235,3916 2259,3870C2284,3824 2305,3791 2307,3797C2309,3803 2293,3843 2271,3887C2158,4105 2159,4375 2272,4608C2323,4712 2403,4799 2625,4990C2782,5126 2879,5229 2970,5359C3015,5423 3024,5430 3034,5404ZM3804,5248C3829,5178 3844,5007 3844,4800C3844,4584 3833,4512 3764,4282C3721,4137 3677,4044 3615,3961C3563,3893 3446,3790 3421,3790C3385,3790 3161,3665 3174,3653C3176,3650 3213,3669 3256,3695C3366,3762 3450,3791 3536,3793C3576,3794 3611,3792 3615,3788C3628,3775 3576,3694 3520,3640C3463,3585 3370,3530 3334,3530C3289,3530 3120,3465 3120,3448C3120,3443 3123,3440 3128,3442C3239,3498 3304,3514 3389,3507C3459,3501 3533,3474 3527,3456C3525,3450 3494,3430 3458,3411C3372,3367 3255,3351 3142,3367L3065,3378L3005,3334C2940,3285 2839,3233 2801,3228C2783,3226 2776,3230 2774,3245C2770,3274 2699,3332 2619,3370C2581,3389 2550,3407 2550,3412C2550,3416 2560,3425 2573,3431C2585,3438 2611,3456 2632,3471C2652,3487 2681,3503 2698,3506C2726,3512 2727,3511 2732,3467C2741,3386 2816,3322 2888,3334C2932,3341 2977,3383 2991,3431C3000,3459 3019,3480 3074,3521C3156,3583 3147,3593 3046,3555C3008,3541 2977,3531 2976,3532C2975,3534 2976,3558 2978,3587C2982,3637 2983,3639 3036,3671C3088,3703 3103,3720 3078,3720C3071,3720 3023,3709 2973,3696C2922,3684 2880,3675 2880,3676C2880,3678 2903,3709 2930,3746C3033,3881 3104,4066 3155,4336C3159,4359 3194,4401 3278,4487C3527,4739 3694,4991 3741,5184C3752,5229 3763,5271 3765,5278C3773,5302 3788,5290 3804,5248ZM3174,4953C3195,4876 3187,4634 3156,4429C3117,4174 3048,3953 2968,3825C2924,3756 2847,3660 2835,3660C2827,3660 2692,3611 2628,3585C2611,3578 2611,3580 2627,3616C2638,3643 2644,3687 2645,3756C2646,3844 2650,3861 2668,3885C2684,3905 2690,3926 2690,3964C2690,4044 2679,4050 2636,3995C2601,3949 2596,3934 2600,3897C2600,3888 2590,3855 2575,3825C2561,3794 2544,3739 2537,3703L2525,3636L2491,3708C2458,3780 2458,3782 2462,3903C2465,4003 2471,4038 2492,4099C2527,4194 2574,4265 2652,4337C2761,4437 2919,4602 2985,4683C3020,4727 3072,4809 3102,4866C3131,4923 3158,4970 3162,4970C3166,4970 3171,4962 3174,4953ZM2675,3934C2672,3917 2661,3895 2650,3885C2633,3869 2630,3855 2631,3774C2632,3683 2612,3589 2589,3574C2584,3571 2582,3565 2585,3560C2588,3555 2614,3562 2644,3575C2745,3620 3040,3709 3040,3695C3040,3687 2898,3603 2835,3574C2797,3556 2773,3541 2783,3540C2798,3540 2801,3533 2798,3508C2794,3463 2766,3463 2762,3508C2759,3533 2755,3540 2742,3536C2733,3533 2685,3519 2635,3505L2545,3479L2518,3510C2485,3546 2484,3546 2476,3518C2471,3499 2468,3497 2460,3510C2447,3530 2447,3567 2461,3572C2467,3574 2460,3595 2445,3622C2414,3677 2385,3759 2375,3815L2368,3855L2413,3795C2470,3719 2520,3626 2520,3594C2520,3581 2524,3570 2528,3570C2532,3570 2540,3609 2546,3658C2553,3716 2566,3765 2584,3805C2600,3838 2612,3880 2611,3897C2610,3918 2619,3945 2637,3971C2663,4011 2664,4011 2673,3988C2677,3976 2679,3951 2675,3934ZM2400,3679C2407,3668 2413,3621 2414,3575C2416,3517 2421,3485 2433,3466C2448,3444 2448,3440 2436,3440C2415,3440 2392,3527 2387,3623C2384,3665 2384,3700 2386,3700C2388,3700 2394,3691 2400,3679ZM2375,3571C2379,3535 2390,3485 2401,3460C2420,3415 2420,3415 2401,3438C2390,3450 2374,3495 2364,3538C2355,3580 2341,3627 2334,3642C2312,3684 2318,3698 2344,3666C2361,3645 2370,3619 2375,3571ZM4115,3644C4132,3650 4170,3635 4182,3616C4199,3591 4190,3581 4156,3587C4137,3590 4120,3588 4116,3581C4111,3574 4121,3570 4144,3570C4191,3570 4191,3551 4145,3511C4100,3471 4067,3471 3986,3510C3926,3539 3922,3540 3883,3526C3833,3508 3607,3444 3564,3435C3535,3429 3533,3431 3537,3453C3541,3472 3535,3480 3508,3493C3490,3501 3458,3511 3438,3515C3417,3519 3400,3525 3401,3529C3401,3532 3431,3555 3468,3580L3535,3625L3765,3627C3931,3629 4008,3633 4040,3643C4070,3653 4087,3654 4091,3647C4095,3642 4106,3640 4115,3644ZM2959,3557C2955,3527 2945,3490 2937,3473C2914,3429 2854,3380 2822,3380L2795,3380L2827,3399C2860,3420 2871,3450 2875,3530C2876,3571 2880,3577 2915,3597C2937,3609 2957,3617 2960,3615C2964,3613 2963,3587 2959,3557ZM3050,3520C3031,3504 3012,3491 3007,3490C3003,3490 2989,3466 2976,3436C2948,3374 2913,3346 2863,3347C2824,3348 2790,3370 2828,3370C2877,3370 2902,3392 2961,3489C2969,3502 2996,3521 3020,3531C3083,3556 3089,3554 3050,3520ZM2610,3476C2610,3474 2596,3463 2578,3452C2554,3437 2542,3434 2533,3442C2511,3460 2518,3469 2558,3473C2578,3475 2598,3477 2603,3478C2607,3479 2610,3478 2610,3476ZM2433,3313C2463,3281 2498,3244 2509,3230C2533,3201 2537,3217 2519,3269C2513,3287 2510,3303 2513,3306C2524,3317 2609,3228 2630,3185C2643,3158 2653,3114 2656,3068C2660,2996 2660,2995 2646,3032C2607,3130 2551,3180 2478,3180C2439,3180 2424,3174 2396,3149C2357,3116 2350,3099 2341,3025L2335,2975L2299,3045C2254,3131 2213,3246 2223,3256C2227,3260 2250,3254 2273,3243C2305,3228 2320,3213 2328,3188C2339,3157 2339,3159 2334,3210C2332,3240 2326,3298 2323,3339L2317,3414L2347,3392C2364,3380 2402,3345 2433,3313ZM2600,3364L2625,3351L2593,3350C2552,3350 2530,3359 2530,3377C2530,3393 2555,3388 2600,3364ZM3251,3352C3311,3353 3360,3353 3360,3350C3360,3324 3050,3096 3036,3111C3034,3113 3038,3144 3046,3180C3053,3216 3060,3270 3060,3301C3060,3332 3063,3359 3066,3362C3069,3365 3087,3364 3107,3358C3127,3353 3192,3350 3251,3352ZM2619,3336L2665,3343L2633,3316C2615,3301 2600,3281 2600,3272C2600,3260 2592,3264 2569,3286C2552,3302 2534,3323 2529,3332C2520,3348 2522,3349 2546,3339C2561,3334 2594,3332 2619,3336ZM3050,3311C3050,3254 3021,3129 2993,3067L2965,3005L2959,3110C2956,3168 2950,3227 2946,3241C2939,3264 2944,3271 2987,3303C3013,3322 3038,3339 3043,3339C3047,3340 3050,3327 3050,3311ZM2725,3287C2752,3263 2762,3249 2757,3236C2751,3222 2739,3220 2688,3222C2627,3225 2625,3226 2622,3253C2618,3285 2643,3320 2670,3320C2679,3320 2704,3305 2725,3287ZM2936,3204C2940,3169 2938,3133 2930,3106C2911,3041 2850,2932 2818,2905C2788,2880 2788,2880 2762,2899C2691,2950 2679,2972 2674,3060L2669,3142L2734,3091C2770,3063 2806,3040 2813,3040C2827,3040 2842,3074 2875,3180C2906,3277 2925,3285 2936,3204ZM2865,3198C2852,3141 2819,3060 2808,3060C2788,3060 2640,3183 2640,3199C2640,3203 2678,3207 2724,3208C2770,3209 2818,3214 2831,3219C2869,3234 2872,3232 2865,3198ZM1878,3192C2020,3138 2170,2971 2170,2868C2170,2818 2144,2768 2052,2643C2005,2578 1971,2540 1959,2540C1949,2540 1893,2549 1835,2561C1681,2590 1532,2647 1454,2706C1425,2727 1423,2732 1427,2782C1439,2928 1481,3065 1533,3124C1600,3201 1768,3234 1878,3192ZM2556,3138C2591,3107 2650,3002 2650,2971C2650,2957 2662,2915 2683,2857C2701,2805 2778,2811 2917,2875C3030,2927 3057,2951 3076,3016C3092,3071 3139,3140 3140,3110C3140,3099 3145,3101 3158,3117C3167,3130 3191,3143 3210,3147L3245,3153L3226,3126C3217,3111 3212,3095 3216,3092C3220,3088 3225,3091 3227,3097C3230,3104 3240,3120 3250,3132C3265,3151 3272,3153 3296,3145C3333,3132 3339,3088 3312,3027C3290,2977 3247,2941 3178,2916C3140,2902 3117,2882 3065,2820C2930,2658 2826,2585 2695,2559C2616,2544 2567,2557 2506,2611C2418,2689 2339,2904 2354,3028C2362,3094 2379,3123 2423,3150C2471,3180 2513,3176 2556,3138ZM2936,2956C2927,2927 2912,2896 2903,2888C2893,2879 2850,2861 2806,2848L2728,2825L2709,2849C2691,2871 2665,2948 2672,2956C2674,2957 2697,2939 2723,2915C2749,2890 2778,2870 2788,2870C2822,2870 2901,2977 2931,3064L2945,3104L2948,3056C2950,3030 2944,2985 2936,2956ZM3240,2782C3240,2768 3188,2695 3147,2653C3101,2605 3106,2599 3165,2635C3187,2649 3217,2660 3233,2660L3261,2660L3244,2628C3234,2610 3201,2569 3168,2538C3121,2491 3110,2474 3110,2448C3110,2410 3075,2347 3058,2352C3051,2355 3018,2421 2983,2500L2920,2644L2958,2683C2999,2726 3029,2744 3104,2771C3156,2789 3240,2796 3240,2782ZM1552,2635C1643,2593 1780,2552 1885,2538C1929,2532 1966,2526 1967,2525C1968,2525 1956,2490 1939,2449C1811,2139 1772,2040 1780,2040C1785,2040 1791,2048 1794,2058C1798,2068 1817,2082 1838,2089C1858,2097 1912,2121 1957,2143C2038,2183 2038,2183 2073,2167C2097,2155 2135,2150 2197,2150C2315,2150 2317,2148 2292,2069C2279,2031 2272,1984 2273,1953C2274,1917 2270,1896 2260,1886C2235,1861 2145,1849 1995,1851C1829,1854 1820,1851 1700,1755C1597,1674 1551,1651 1487,1650C1420,1650 1371,1675 1352,1719C1339,1750 1339,1771 1349,1875C1356,1941 1368,2039 1376,2092C1384,2146 1394,2281 1400,2393C1405,2505 1412,2622 1416,2653L1423,2709L1451,2690C1466,2679 1511,2654 1552,2635ZM2920,2611C2937,2579 2933,2575 2873,2561C2841,2554 2769,2530 2713,2508L2611,2468L2568,2493C2490,2539 2452,2588 2479,2604C2484,2607 2494,2603 2501,2594C2508,2586 2532,2569 2554,2558C2587,2541 2607,2538 2666,2542C2725,2546 2752,2554 2816,2587C2911,2636 2907,2635 2920,2611ZM2483,2539C2520,2503 2593,2460 2617,2460C2629,2460 2665,2471 2696,2485C2762,2514 2904,2560 2928,2560C2939,2560 2951,2547 2958,2528C2964,2511 2969,2495 2967,2494C2966,2493 2936,2476 2902,2457C2836,2421 2786,2416 2812,2448C2823,2462 2822,2463 2805,2455C2794,2450 2731,2443 2665,2440C2599,2436 2538,2430 2529,2426C2520,2422 2507,2427 2495,2440C2470,2467 2457,2465 2462,2435C2469,2401 2459,2404 2432,2445L2410,2480L2430,2520C2441,2542 2453,2560 2456,2560C2458,2560 2471,2550 2483,2539ZM3017,2388C3085,2236 3093,2173 3059,2060C3023,1939 2841,1836 2665,1837C2559,1837 2535,1848 2527,1896C2524,1916 2509,1950 2494,1971C2464,2015 2465,2024 2506,2120C2556,2239 2549,2335 2486,2367L2455,2383L2485,2396C2573,2433 2748,2438 2854,2406C2879,2398 2900,2396 2900,2401C2900,2406 2893,2410 2885,2410C2858,2410 2869,2424 2918,2452C2944,2467 2968,2479 2971,2479C2974,2480 2995,2438 3017,2388ZM2440,2400C2440,2392 2432,2390 2418,2394C2405,2397 2389,2400 2382,2400C2373,2400 2373,2407 2385,2431L2401,2461L2421,2437C2431,2423 2440,2406 2440,2400ZM2298,2391C2453,2379 2504,2358 2521,2300C2535,2255 2526,2211 2481,2099C2450,2021 2451,2003 2490,1952C2512,1925 2516,1870 2500,1839C2486,1814 2429,1786 2349,1766C2234,1738 2128,1749 2092,1793C2084,1802 2058,1812 2034,1816C1953,1828 1977,1840 2082,1840C2258,1840 2291,1860 2289,1966C2288,2001 2294,2040 2304,2062C2325,2111 2324,2146 2303,2155C2293,2159 2241,2164 2186,2166C2132,2168 2082,2174 2074,2181C2060,2192 2021,2190 1986,2175C1969,2167 1967,2170 1974,2200C1984,2254 2029,2342 2063,2378C2092,2408 2099,2411 2135,2406C2157,2403 2230,2396 2298,2391ZM2674,1825L2763,1825L2757,1595C2755,1469 2749,1357 2745,1348C2735,1324 2718,1325 2642,1356C2585,1379 2576,1380 2561,1366C2546,1353 2543,1355 2523,1391C2506,1422 2505,1430 2516,1430C2524,1430 2533,1436 2536,1443C2541,1457 2506,1718 2492,1765C2484,1789 2487,1799 2503,1818C2520,1837 2530,1839 2555,1833C2571,1829 2625,1825 2674,1825ZM2493,1685C2502,1636 2512,1559 2516,1516C2521,1451 2520,1439 2509,1446C2490,1458 2452,1502 2402,1574C2362,1631 2359,1638 2362,1694L2365,1753L2415,1770C2443,1779 2468,1784 2471,1781C2474,1778 2484,1735 2493,1685ZM2349,1679C2350,1627 2339,1579 2327,1583C2316,1586 2251,1709 2250,1727C2250,1734 2268,1740 2293,1742C2340,1745 2348,1737 2349,1679ZM2854,1508C2847,1419 2848,1416 2865,1430C2881,1444 2882,1442 2875,1410C2871,1391 2866,1373 2865,1372C2863,1370 2841,1383 2816,1402C2752,1449 2753,1467 2827,1568C2840,1585 2853,1600 2856,1600C2859,1600 2858,1558 2854,1508ZM2867,1333C2879,1316 2878,1310 2859,1286C2848,1271 2836,1240 2833,1217C2824,1148 2808,1138 2723,1146C2663,1151 2645,1149 2624,1136C2591,1114 2549,1123 2505,1161C2486,1178 2466,1207 2460,1226C2450,1256 2451,1267 2470,1306C2483,1331 2499,1354 2507,1357C2527,1365 2542,1341 2535,1313C2532,1300 2534,1290 2539,1290C2543,1290 2550,1304 2554,1320C2557,1337 2566,1353 2575,1356C2583,1359 2621,1350 2659,1335C2738,1304 2760,1309 2760,1360C2760,1419 2769,1424 2813,1387C2835,1369 2859,1345 2867,1333ZM2831,1102C2851,1050 2871,964 2890,844C2918,671 2930,619 2941,626C2959,637 2990,598 3005,547C3015,514 3020,454 3020,376L3020,257L2994,281C2973,301 2959,305 2904,305C2844,305 2839,307 2844,325C2847,336 2855,392 2862,450L2874,556L2788,721C2709,874 2640,1030 2625,1093C2616,1129 2637,1136 2740,1132C2817,1129 2822,1127 2831,1102ZM2989,264C3055,208 3007,89 2915,78L2885,75L2887,128C2889,160 2886,178 2880,175C2874,172 2870,147 2870,119L2870,70L2827,70C2803,70 2776,76 2766,83C2750,95 2750,99 2763,138C2771,161 2774,180 2770,180C2760,180 2740,133 2740,108C2740,88 2739,87 2720,105C2679,142 2697,179 2778,219C2802,231 2825,252 2830,265C2839,288 2845,290 2899,290C2948,290 2964,286 2989,264Z" style="fill:rgb(235,53,84);fill-rule:nonzero;stroke:rgb(235,53,84);stroke-width:22.68px;"/>
            </g>
            <g transform="matrix(0.886341,0.745362,-0.745362,0.886341,2744.26,-2078.83)">
                <path d="M2476,4623C2443,4571 2374,4407 2355,4334C2325,4217 2316,4010 2339,3987C2356,3970 2390,3991 2415,4034C2469,4126 2510,4315 2517,4506C2523,4664 2516,4684 2476,4623ZM2507,4513C2498,4342 2460,4162 2413,4062C2386,4005 2356,3980 2346,4006C2327,4056 2350,4277 2385,4380C2417,4476 2490,4630 2503,4630C2509,4630 2511,4587 2507,4513Z" style="fill:rgb(235,53,84);fill-rule:nonzero;stroke:rgb(235,53,84);stroke-width:22.68px;"/>
            </g>
            <g transform="matrix(0.886341,0.745362,-0.745362,0.886341,2744.26,-2078.83)">
                <path d="M3394,4408C3298,4306 3202,4194 3172,4146C3132,4084 3088,3951 3092,3908C3096,3864 3129,3859 3176,3895C3221,3929 3365,4102 3391,4152C3416,4202 3467,4360 3476,4415C3482,4455 3480,4460 3463,4460C3453,4460 3422,4436 3394,4408ZM3464,4423C3444,4338 3406,4219 3386,4175C3343,4083 3157,3880 3115,3880C3111,3880 3110,3907 3113,3941C3120,4022 3182,4150 3252,4228C3281,4260 3338,4324 3378,4369C3418,4413 3456,4450 3461,4450C3466,4450 3467,4438 3464,4423Z" style="fill:rgb(235,53,84);fill-rule:nonzero;stroke:rgb(235,53,84);stroke-width:22.68px;"/>
            </g>
            <g transform="matrix(0.886341,0.745362,-0.745362,0.886341,2744.26,-2078.83)">
                <path d="M2965,2180C2940,2141 2918,2130 2905,2150C2902,2156 2882,2160 2862,2160C2797,2160 2670,2071 2683,2036C2695,2004 2822,1970 2857,1989C2868,1994 2885,2015 2895,2034C2917,2075 2929,2078 2953,2050C2962,2039 2976,2030 2983,2030C3012,2030 3065,2118 3055,2150C3047,2174 3011,2220 2999,2220C2994,2220 2979,2202 2965,2180ZM3024,2178C3045,2148 3044,2124 3019,2084C2995,2045 2987,2043 2953,2069C2922,2094 2909,2089 2881,2040C2861,2003 2855,2000 2817,2000C2794,2000 2755,2009 2731,2020C2692,2038 2689,2042 2701,2057C2723,2083 2817,2140 2850,2147C2872,2151 2886,2147 2900,2135C2925,2112 2945,2121 2971,2165C2995,2206 3003,2208 3024,2178Z" style="fill:rgb(235,53,84);fill-rule:nonzero;stroke:rgb(235,53,84);stroke-width:22.68px;"/>
            </g>
        </g>
    </g>
</svg>
