<?xml version="1.0" encoding="UTF-8" standalone="no"?>
<!DOCTYPE svg PUBLIC "-//W3C//DTD SVG 1.1//EN" "http://www.w3.org/Graphics/SVG/1.1/DTD/svg11.dtd">
<svg width="100%" height="100%" viewBox="0 0 379 475" version="1.1" xmlns="http://www.w3.org/2000/svg" xmlns:xlink="http://www.w3.org/1999/xlink" xml:space="preserve" xmlns:serif="http://www.serif.com/" style="fill-rule:evenodd;clip-rule:evenodd;stroke-linecap:round;stroke-linejoin:round;stroke-miterlimit:1.5;">
    <g transform="matrix(0.79615,0,0,1,0,0)">
        <rect id="Artboard1" x="0" y="0" width="475" height="475" style="fill:none;"/>
        <g id="Artboard11" serif:id="Artboard1">
            <g transform="matrix(1.25604,0,0,1,-71.1547,0)">
                <path d="M206.736,68.318C228.568,41.059 256.002,22.26 288.305,10.811C273.82,35.955 259.515,61.1 248.964,86.244C251.896,97.832 254.038,109.736 255.942,121.735C239.796,117.692 216.308,105.635 205.071,105.605C200.539,105.593 198.063,107.293 197.063,110.225C196.804,110.984 197.185,111.58 197.525,112.227C194.323,114.418 198.042,119.918 201.067,125.085C199.525,127.909 199.433,130.905 199.681,133.94C181.869,103.644 185.299,47.903 198.704,23.382L206.736,68.318Z" style="fill:none;stroke:rgb(23,204,94);stroke-width:4px;"/>
            </g>
            <g transform="matrix(1.25604,0,0,1,-71.1547,0)">
                <path d="M230.324,60.03C246.674,41.763 263.691,23.914 288.305,10.811" style="fill:none;stroke:rgb(23,204,94);stroke-width:4px;"/>
            </g>
            <g transform="matrix(1.25604,0,0,1,-71.1547,0)">
                <path d="M203.099,122.413L203.444,117.485L210.54,117.14L212.511,114.479L216.454,115.317L218.671,112.262" style="fill:none;stroke:rgb(23,204,94);stroke-width:2.38px;"/>
            </g>
            <g transform="matrix(1.25604,0,0,1,-71.1547,0)">
                <path d="M197.348,112.262C197.793,112.689 197.971,112.615 199.114,112.262C201.218,111.611 203.794,107.661 201.984,106.085" style="fill:none;stroke:rgb(23,204,94);stroke-width:4px;"/>
            </g>
            <g transform="matrix(1.25604,0,0,1,-71.1547,0)">
                <path d="M208.474,97.46C220.721,101.684 228.309,97.379 233.852,89.378C224.143,90.135 215.555,92.629 208.474,97.46Z" style="fill:none;stroke:rgb(23,204,94);stroke-width:4px;"/>
            </g>
            <g transform="matrix(1.25604,0,0,1,-71.1547,0)">
                <path d="M218.671,92.483C217.736,95.036 219.338,98.511 221.779,98.396" style="fill:none;stroke:rgb(23,204,94);stroke-width:4px;"/>
            </g>
            <g transform="matrix(1.25604,0,0,1,-71.1547,0)">
                <path d="M225.031,96.967C224.925,95.578 225.179,94.318 226.015,93.265C226.803,93.912 226.99,94.975 226.904,96.228" style="fill:none;stroke:rgb(23,204,94);stroke-width:4px;"/>
            </g>
            <g transform="matrix(1.25604,0,0,1,-71.1547,0)">
                <path d="M216.32,93.265C217.372,87.211 219.654,81.157 223.466,75.104C226.45,79.645 228.415,84.442 229.822,89.378" style="fill:none;stroke:rgb(23,204,94);stroke-width:3.15px;"/>
            </g>
            <g transform="matrix(1.25604,0,0,1,-71.1547,0)">
                <path d="M217.404,99.111C218.625,102.932 220.487,105.005 223.712,107.775C226.245,103.618 227.766,99.729 228.985,95.441" style="fill:none;stroke:rgb(23,204,94);stroke-width:3.15px;"/>
            </g>
            <g transform="matrix(1.25604,0,0,1,-71.1547,0)">
                <path d="M201.414,99.111C204.008,94.799 206.405,90.289 208.474,85.452C207.947,81.335 206.884,77.266 204.912,73.28C200.736,77.358 198.428,82.409 197.274,88.064C197.768,92.16 198.948,95.935 201.414,99.111Z" style="fill:none;stroke:rgb(23,204,94);stroke-width:2.76px;"/>
            </g>
            <g transform="matrix(1.25604,0,0,1,-71.1547,0)">
                <path d="M198.565,102.522C199.063,106.688 197.9,109.542 195.254,110.942C193.314,110.154 192.116,109.068 191.438,107.775C193.288,105.701 195.621,103.923 198.565,102.522Z" style="fill:none;stroke:rgb(23,204,94);stroke-width:2px;"/>
            </g>
            <g transform="matrix(1.25604,0,0,1,-71.1547,0)">
                <path d="M197.274,108.483C195.479,107.43 195.607,104.677 198.313,105.613" style="fill:none;stroke:rgb(23,204,94);stroke-width:1.25px;"/>
            </g>
            <g transform="matrix(1.25604,0,0,1,-71.1547,0)">
                <path d="M192.904,105.422C192.375,101.621 192.771,97.923 193.756,94.29C194.233,97.599 195.113,100.665 197.274,102.963" style="fill:none;stroke:rgb(23,204,94);stroke-width:2px;"/>
            </g>
            <g transform="matrix(1.25604,0,0,1,-71.1547,0)">
                <path d="M200.98,125.045C204.557,128.879 211.43,131.149 220.243,131.41C222.81,132.585 225.033,134.218 226.614,136.708C229.955,133.38 233.675,130.621 238.33,129.265C239.817,125.101 242.904,122.538 247.019,121.002C259.41,126.955 266.91,135.09 267.146,146.463C288.677,119.441 287.07,92.803 262.526,70.36" style="fill:none;stroke:rgb(23,204,94);stroke-width:4px;"/>
            </g>
            <g transform="matrix(1.25604,0,0,1,-71.1547,0)">
                <path d="M253.519,106.952C256.41,108.384 259.089,111.081 261.65,114.484" style="fill:none;stroke:rgb(23,204,94);stroke-width:4px;"/>
            </g>
            <g transform="matrix(1.25604,0,0,1,-71.1547,0)">
                <path d="M263.929,118.734C266.39,123.392 267.937,129.27 267.933,137.213" style="fill:none;stroke:rgb(23,204,94);stroke-width:4px;"/>
            </g>
            <g transform="matrix(1.25604,0,0,1,-71.1547,0)">
                <path d="M270.274,106.952C273.996,118.105 273.307,128.874 269.473,139.369" style="fill:none;stroke:rgb(23,204,94);stroke-width:4px;"/>
            </g>
            <g transform="matrix(1.25604,0,0,1,-71.1547,0)">
                <path d="M254.998,80.852C263.315,88.806 265.965,95.361 267.933,100.994" style="fill:none;stroke:rgb(23,204,94);stroke-width:4px;"/>
            </g>
            <g transform="matrix(1.25604,0,0,1,-71.1547,0)">
                <path d="M277.912,90.923C288.937,90.707 296.927,86.703 301.381,78.603C292.897,79.18 287.799,78.456 282.193,77.063C275.584,75.422 269.133,66.45 258.57,65.483" style="fill:none;stroke:rgb(23,204,94);stroke-width:4px;"/>
            </g>
            <g transform="matrix(1.25604,0,0,1,-71.1547,0)">
                <path d="M206.094,128.541C203.571,129.306 201.39,130.456 199.708,132.168" style="fill:none;stroke:rgb(23,204,94);stroke-width:4px;"/>
            </g>
            <g transform="matrix(1.25604,0,0,1,-71.1547,0)">
                <path d="M258.57,133.409C246.015,126.056 235.533,127.333 226.552,136.603C211.178,131.234 199.744,135.255 190.678,144.921C200.726,156.069 215.584,155.376 232.466,146.971" style="fill:none;stroke:rgb(23,204,94);stroke-width:4px;"/>
            </g>
            <g transform="matrix(1.25604,0,0,1,-71.1547,0)">
                <path d="M229.391,145.532C241.282,150.474 251.744,149.105 260.061,138.278" style="fill:none;stroke:rgb(23,204,94);stroke-width:4px;"/>
            </g>
            <g transform="matrix(1.25604,0,0,1,-71.1547,0)">
                <path d="M255.658,142.967C259.191,144.006 262.899,144.283 266.835,143.572" style="fill:none;stroke:rgb(23,204,94);stroke-width:4px;"/>
            </g>
            <g transform="matrix(1.25604,0,0,1,-71.1547,0)">
                <path d="M250.814,129.847C252.634,128.338 254.637,127.286 256.995,127.122" style="fill:none;stroke:rgb(23,204,94);stroke-width:4px;"/>
            </g>
            <g transform="matrix(1.25604,0,0,1,-71.1547,0)">
                <path d="M276.574,131.866C278.449,132.184 279.838,133.329 281.04,134.792C278.044,138.206 274.54,140.697 270.468,142.16" style="fill:none;stroke:rgb(23,204,94);stroke-width:4px;"/>
            </g>
            <g transform="matrix(1.25604,0,0,1,-71.1547,0)">
                <path d="M196.396,139.75C188.302,141.86 181.541,145.072 177.316,150.378C187.552,156.798 196.253,156.858 204.975,152.933" style="fill:none;stroke:rgb(23,204,94);stroke-width:4px;"/>
            </g>
            <g transform="matrix(1.25604,0,0,1,-71.1547,0)">
                <path d="M199.021,132.582C196.771,134.485 194.988,136.854 194.211,140.23" style="fill:none;stroke:rgb(23,204,94);stroke-width:4px;"/>
            </g>
            <g transform="matrix(1.25604,0,0,1,-71.1547,0)">
                <path d="M192.24,126.313C190.517,130.899 189.455,135.88 189.835,141.728" style="fill:none;stroke:rgb(23,204,94);stroke-width:2.38px;"/>
            </g>
            <g transform="matrix(1.25604,0,0,1,-71.1547,0)">
                <path d="M186.603,143.127C180.631,127.314 183.632,115.677 189.758,105.124" style="fill:none;stroke:rgb(23,204,94);stroke-width:2.38px;"/>
            </g>
            <g transform="matrix(1.25604,0,0,1,-71.1547,0)">
                <path d="M342.56,63.432C338.344,62.972 335.319,63.579 333.542,65.305C329.98,69.76 343.906,77.324 349.508,75.801C353.436,74.733 353.036,70.555 350.642,68.311" style="fill:none;stroke:rgb(23,204,94);stroke-width:4px;"/>
            </g>
            <g transform="matrix(1.25604,0,0,1,-71.1547,0)">
                <path d="M352.454,73.825C359.116,79.197 368.32,77.408 369.574,73.628C371.278,68.496 363.207,66.147 356.22,66.286C368.405,66.591 377.628,66.821 378.05,60.175C378.474,53.503 365.947,50.268 357.206,58.352C356.282,59.206 355.1,58.839 354.003,58.401C360.857,53.102 365.873,44.165 360.343,39.327C354.469,34.188 344.631,41.504 343.457,54.435C342.629,43.616 341.05,34.195 334.415,34.181C321.612,34.155 325.259,49.559 336.681,59.264C331.88,54.687 327.546,51.694 323.13,51.576C319.026,51.467 317.747,53.123 317.414,55.371C316.629,60.666 326.663,63.125 333.922,64.586" style="fill:none;stroke:rgb(23,204,94);stroke-width:4px;"/>
            </g>
            <g transform="matrix(1.25604,0,0,1,-71.1547,0)">
                <path d="M325.993,62.772C295.706,95.069 361.511,118.184 361.621,77.198" style="fill:none;stroke:rgb(23,204,94);stroke-width:4px;"/>
            </g>
            <g transform="matrix(1.25604,0,0,1,-71.1547,0)">
                <path d="M319.865,71.874C324.657,77.136 326.113,83.956 326.172,91.427C329.439,85.975 333.483,82.006 339.063,80.97C341.672,85.895 341.214,91.547 339.823,97.419C345.637,92.83 351.638,88.702 359.248,88.549" style="fill:none;stroke:rgb(23,204,94);stroke-width:4px;"/>
            </g>
            <g transform="matrix(1.25604,0,0,1,-71.1547,0)">
                <path d="M341.272,59.552C345.077,56.564 355.14,60.307 354.044,64.677" style="fill:none;stroke:rgb(23,204,94);stroke-width:4px;"/>
            </g>
            <g transform="matrix(1.25604,0,0,1,-71.1547,0)">
                <path d="M191.837,155.707C183.236,169.947 181.165,185.275 185.377,201.651C191.462,183.537 200.946,167.455 214.751,153.119" style="fill:none;stroke:rgb(23,204,94);stroke-width:4px;"/>
            </g>
            <g transform="matrix(1.25604,0,0,1,-71.1547,0)">
                <path d="M217.954,152.319C215.459,170.796 216.28,188.417 223.313,204.43C232.753,191.378 244.399,141.592 259.513,146.979" style="fill:none;stroke:rgb(23,204,94);stroke-width:4px;"/>
            </g>
            <g transform="matrix(1.25604,0,0,1,-71.1547,0)">
                <path d="M254.02,144.403C270.4,150.845 282.461,166.054 295.598,171.445" style="fill:none;stroke:rgb(23,204,94);stroke-width:4px;"/>
            </g>
            <g transform="matrix(1.25604,0,0,1,-71.1547,0)">
                <path d="M189.491,210.336C188.593,217.464 188.879,224.222 192.089,230.066" style="fill:none;stroke:rgb(23,204,94);stroke-width:4px;"/>
            </g>
            <g transform="matrix(1.25604,0,0,1,-71.1547,0)">
                <path d="M227.411,216.399C221.249,224.755 217.18,234.094 215.381,244.503" style="fill:none;stroke:rgb(23,204,94);stroke-width:4px;"/>
            </g>
            <g transform="matrix(1.25604,0,0,1,-71.1547,0)">
                <path d="M201.329,169.864C203.121,185 191.546,199.092 181.55,219.623C171.025,241.242 173.852,255.838 149.115,264.666C154.986,270.082 160.857,270.467 166.728,265.821C162.137,273.232 161.4,281.455 164.611,290.508C171.558,284.069 176.939,277.353 180.395,270.297C180.851,281.235 185.509,289.19 192.33,295.609C196.02,288.443 198.431,280.883 199.452,272.895C200.038,281.647 203.646,287.981 209.365,292.626C208.812,279.635 208.77,267.375 209.654,256.437C208.436,277.223 211.925,289.22 216.873,298.497C225.554,289.701 231.066,279.908 232.561,268.853C237.926,280.479 247.163,288.006 259.509,292.241C259.899,281.836 259.554,271.518 254.793,261.731C259.319,279.663 288.895,263.921 289.442,256.341C276.876,255.913 261.559,249.028 258.258,239.643C254.117,224.062 243.473,207.003 239.202,196.043C237.68,192.138 240.965,170.952 249.885,168.132" style="fill:none;stroke:rgb(23,204,94);stroke-width:4px;"/>
            </g>
            <g transform="matrix(1.25604,0,0,1,-71.1547,0)">
                <path d="M199.881,249.713C202.492,253.373 205.482,256.709 209.243,259.384" style="fill:none;stroke:rgb(23,204,94);stroke-width:4px;"/>
            </g>
            <g transform="matrix(1.25604,0,0,1,-71.1547,0)">
                <path d="M331.065,189.529C332.501,174.722 348.855,164.225 355.063,167.058C359.258,168.972 353.944,186.507 335.254,186.819C333.063,186.855 333.808,182.538 334.712,179.279" style="fill:none;stroke:rgb(23,204,94);stroke-width:4px;"/>
            </g>
            <g transform="matrix(1.25604,0,0,1,-71.1547,0)">
                <path d="M346.716,199.435C336.952,193.651 349.883,177.601 357.989,178.554C366.891,179.6 367.844,192.923 358.851,199.866C347.905,208.318 338.347,205.26 332.672,196.294" style="fill:none;stroke:rgb(23,204,94);stroke-width:4px;"/>
            </g>
            <g transform="matrix(1.25604,0,0,1,-71.1547,0)">
                <path d="M358.112,178.153C355.635,170.151 356.976,160.291 363.717,158.627C373.095,156.312 377.082,167.178 376.037,172.733C374.064,183.217 370.474,190.399 364.395,192.506" style="fill:none;stroke:rgb(23,204,94);stroke-width:4px;"/>
            </g>
            <g transform="matrix(1.25604,0,0,1,-71.1547,0)">
                <path d="M361.869,158.997C360.2,152.9 363.108,146.799 370.308,146.184C376.62,145.646 382.591,153.051 381.827,160.906C381.167,167.685 378.956,171.347 375.913,174.211" style="fill:none;stroke:rgb(23,204,94);stroke-width:4px;"/>
            </g>
            <g transform="matrix(1.25604,0,0,1,-71.1547,0)">
                <path d="M346.839,185.114C354.302,184.802 357.104,188.212 358.481,193.491C361.197,186.843 361.332,180.817 352.63,180.001" style="fill:none;stroke:rgb(23,204,94);stroke-width:4px;"/>
            </g>
            <g transform="matrix(1.25604,0,0,1,-71.1547,0)">
                <path d="M356.695,169.345C360.596,164.751 365.642,165.764 371.54,170.947C372.282,163.969 367.663,159.031 359.166,162.118" style="fill:none;stroke:rgb(23,204,94);stroke-width:4px;"/>
            </g>
            <g transform="matrix(1.25604,0,0,1,-71.1547,0)">
                <path d="M361.625,157.56C365.592,152.659 369.75,148.316 377,152.948C376.17,148.944 373.638,146.689 368.918,146.68" style="fill:none;stroke:rgb(23,204,94);stroke-width:4px;"/>
            </g>
            <g transform="matrix(1.25604,0,0,1,-71.1547,0)">
                <path d="M243.927,166.622C250.149,164.224 261.981,181.317 273.884,192.97C289.383,208.143 308.53,215.917 330.789,217.753C342.871,218.75 355.946,210.339 360.881,198.173" style="fill:none;stroke:rgb(23,204,94);stroke-width:4px;"/>
            </g>
            <g transform="matrix(1.25604,0,0,1,-71.1547,0)">
                <path d="M252.252,148.377C259.146,148.774 272.348,172.787 286.885,172.652C302.354,172.507 324.936,160.367 335.571,160.233C341.949,160.153 346.266,163.118 349.862,166.837" style="fill:none;stroke:rgb(23,204,94);stroke-width:4px;"/>
            </g>
            <g transform="matrix(1.25604,0,0,1,-71.1547,0)">
                <path d="M243.445,204.835C251.503,198.056 260.661,199.597 270.486,206.19C258.995,211.929 265.71,219.595 265.294,225.475C264.906,230.964 262.252,234.955 257.982,237.544" style="fill:none;stroke:rgb(23,204,94);stroke-width:4px;"/>
            </g>
            <g transform="matrix(1.25604,0,0,1,-71.1547,0)">
                <path d="M243.881,174.081C290.546,216.955 313.531,253.165 331.268,289.176C341.718,310.394 334.394,335.008 320.039,329.159C353.059,361.045 395,300.12 377.353,266.215C400.123,273.572 420.444,259.994 424.166,233.515C408.01,245.671 387.553,244.246 363.777,232.341C392.135,237.182 401.179,200.622 387.98,185.815C388.232,200.003 376.479,204.273 358.282,203.221" style="fill:none;stroke:rgb(23,204,94);stroke-width:4px;"/>
            </g>
            <g transform="matrix(1.25604,0,0,1,-71.1547,0)">
                <path d="M387.467,190.731C388.644,212.492 382.568,227 367.525,232.54" style="fill:none;stroke:rgb(23,204,94);stroke-width:4px;"/>
            </g>
            <g transform="matrix(1.25604,0,0,1,-71.1547,0)">
                <path d="M422.654,234.889C413.249,256.667 395.948,264.942 372.375,262.492C388.608,286.297 359.095,340.964 322.713,331.712" style="fill:none;stroke:rgb(23,204,94);stroke-width:4px;"/>
            </g>
            <g transform="matrix(1.25604,0,0,1,-71.1547,0)">
                <path d="M117.186,211.885C133.055,236.352 161.492,216.548 183.885,194.465" style="fill:none;stroke:rgb(23,204,94);stroke-width:4px;"/>
            </g>
            <g transform="matrix(1.25604,0,0,1,-71.1547,0)">
                <path d="M114.491,205.437C111.056,171.859 156.138,176.284 169.64,173.098C178.131,171.095 184.409,167.017 188.793,161.164" style="fill:none;stroke:rgb(23,204,94);stroke-width:4px;"/>
            </g>
            <g transform="matrix(1.25604,0,0,1,-71.1547,0)">
                <path d="M119.408,214.945C106.435,222.599 87.033,216.85 85.19,204.348C84.344,198.61 89.954,193.644 95.408,194.445C103.681,195.66 101.817,204.733 100.959,213.147" style="fill:none;stroke:rgb(23,204,94);stroke-width:4px;"/>
            </g>
            <g transform="matrix(1.25604,0,0,1,-71.1547,0)">
                <path d="M85.212,204.141C88.535,200.003 92.703,198.016 98.339,199.765C96.925,197.718 95.094,195.897 91.362,195.114" style="fill:none;stroke:rgb(23,204,94);stroke-width:4px;"/>
            </g>
            <g transform="matrix(1.25604,0,0,1,-71.1547,0)">
                <path d="M86.789,198.011C82.944,196.263 77.374,191.06 77.958,187.683C78.548,184.275 82.744,181.222 87.104,180.941C92.974,180.564 98.456,188.084 97.275,194.621" style="fill:none;stroke:rgb(23,204,94);stroke-width:4px;"/>
            </g>
            <g transform="matrix(1.25604,0,0,1,-71.1547,0)">
                <path d="M79.219,191.152C81.059,186.281 85.028,185.287 90.967,187.88C90.67,183.988 88.915,181.322 83.359,181.848" style="fill:none;stroke:rgb(23,204,94);stroke-width:4px;"/>
            </g>
            <g transform="matrix(1.25604,0,0,1,-71.1547,0)">
                <path d="M93.628,183.405C91.71,177.968 94.194,174.931 99.739,175.521C106.22,176.211 109.473,179.286 110.067,185.021C110.355,187.8 108.961,190.39 107.111,191.92" style="fill:none;stroke:rgb(23,204,94);stroke-width:4px;"/>
            </g>
            <g transform="matrix(1.25604,0,0,1,-71.1547,0)">
                <path d="M93.195,179.581C97.052,178.229 100.402,177.74 103.839,180.488C104.239,178.459 103.294,176.577 100.33,175.6" style="fill:none;stroke:rgb(23,204,94);stroke-width:4px;"/>
            </g>
            <g transform="matrix(1.25604,0,0,1,-71.1547,0)">
                <path d="M99.66,196.572C101.432,191.285 111.619,190.253 114.404,195.547" style="fill:none;stroke:rgb(23,204,94);stroke-width:4px;"/>
            </g>
            <g transform="matrix(1.25604,0,0,1,-71.1547,0)">
                <path d="M101.67,204.811C106.55,211.347 111.233,207.743 114.325,198.78" style="fill:none;stroke:rgb(23,204,94);stroke-width:4px;"/>
            </g>
            <g transform="matrix(1.25604,0,0,1,-71.1547,0)">
                <path d="M143.404,222.24C132.343,233.836 103.385,240.607 95.506,221.175C85.888,238.743 92.732,248.976 110.841,254.192C92.683,262.846 77.023,260.198 75.85,241.009C59.099,256.815 65.917,278.948 88.786,281.547C49.032,326.995 101.653,368.901 133.059,326.013C110.817,333.4 110.468,313.477 151.076,266.726" style="fill:none;stroke:rgb(23,204,94);stroke-width:4px;"/>
            </g>
            <g transform="matrix(1.25604,0,0,1,-71.1547,0)">
                <path d="M79.424,295.399C68.789,334.986 98.962,350.596 132.474,326.583" style="fill:none;stroke:rgb(23,204,94);stroke-width:4px;"/>
            </g>
            <g transform="matrix(1.25604,0,0,1,-71.1547,0)">
                <path d="M154.865,261.906C161.731,254.487 168.017,246.97 173.652,239.346" style="fill:none;stroke:rgb(23,204,94);stroke-width:4px;"/>
            </g>
            <g transform="matrix(1.25604,0,0,1,-71.1547,0)">
                <path d="M252.855,289.788C245.246,308.448 242.78,320.985 243.385,328.556C244.3,340.021 250.894,345.035 252.008,358.662C253.218,373.454 248.987,393.073 240.228,421.876C232.754,446.451 229.842,465.224 212.278,463.492C208.41,463.111 209.509,452.015 214.049,446.861" style="fill:none;stroke:rgb(23,204,94);stroke-width:4px;"/>
            </g>
            <g transform="matrix(1.25604,0,0,1,-71.1547,0)">
                <path d="M201.885,444.282C189.223,457.474 195.566,465.508 211.556,463.131" style="fill:none;stroke:rgb(23,204,94);stroke-width:4px;"/>
            </g>
            <g transform="matrix(1.25604,0,0,1,-71.1547,0)">
                <path d="M200.654,462.823C184.31,458.227 184.989,444.841 203.179,436.829C219.727,429.54 223.031,400.906 224.227,370.222C224.731,357.27 218.09,334.018 212.196,317.662C209.909,311.317 209.916,301.294 209.639,292.248" style="fill:none;stroke:rgb(23,204,94);stroke-width:4px;"/>
            </g>
            <g transform="matrix(1.25604,0,0,1,-71.1547,0)">
                <path d="M171.688,283.749C175.33,346.165 206.856,328.958 223.781,372.355" style="fill:none;stroke:rgb(23,204,94);stroke-width:4px;"/>
            </g>
            <g transform="matrix(1.25604,0,0,1,-71.1547,0)">
                <path d="M233.271,444.897C249.436,451.006 256.526,435.945 255.913,410.572C255.664,400.256 252.139,388.928 251.437,375.239" style="fill:none;stroke:rgb(23,204,94);stroke-width:4px;"/>
            </g>
        </g>
    </g>
</svg>
