<?xml version="1.0" encoding="UTF-8" standalone="no"?>
<!DOCTYPE svg PUBLIC "-//W3C//DTD SVG 1.1//EN" "http://www.w3.org/Graphics/SVG/1.1/DTD/svg11.dtd">
<svg width="100%" height="100%" viewBox="0 0 615 792" version="1.1" xmlns="http://www.w3.org/2000/svg" xmlns:xlink="http://www.w3.org/1999/xlink" xml:space="preserve" xmlns:serif="http://www.serif.com/" style="fill-rule:evenodd;clip-rule:evenodd;stroke-linejoin:round;stroke-miterlimit:2;">
    <g transform="matrix(0.1,0,0,-0.1,0,792)">
        <path d="M2822,7798L2782,7675L2746,7672C2723,7670 2706,7662 2700,7649C2688,7627 2670,7531 2640,7332C2629,7259 2618,7189 2615,7177C2611,7162 2629,7122 2675,7045C2733,6947 2740,6930 2739,6885C2738,6858 2735,6824 2731,6810C2724,6786 2722,6788 2681,6844C2649,6888 2635,6899 2626,6890C2609,6873 2614,6706 2635,6634C2651,6577 2651,6568 2635,6484C2610,6351 2602,6380 2713,6163C2748,6094 2760,6060 2760,6026C2760,5973 2774,5933 2802,5903C2822,5881 2823,5876 2811,5815C2802,5766 2802,5739 2811,5707C2829,5637 2922,5470 2974,5413C3001,5383 3020,5357 3018,5354C3015,5352 2971,5343 2919,5334C2761,5309 2640,5259 2529,5174C2288,4988 2160,4705 2160,4355C2160,4246 2165,4210 2195,4082C2215,4001 2232,3926 2235,3915C2237,3904 2246,3836 2254,3765C2267,3655 2268,3632 2256,3611C2248,3596 2223,3549 2200,3506C2177,3462 2145,3410 2128,3391C2111,3372 2082,3334 2064,3306C1992,3198 1942,3135 1929,3136C1921,3137 1839,3156 1745,3178C1652,3201 1499,3238 1405,3261C1312,3284 1204,3304 1165,3306C1127,3307 1090,3309 1083,3309C1076,3310 1038,3339 998,3375C880,3481 671,3576 517,3595L458,3602L465,3568C480,3495 486,3491 650,3425C957,3302 1090,3228 1090,3179C1090,3170 1080,3160 1067,3156C1031,3146 904,3149 829,3161C769,3171 760,3175 765,3191C770,3206 757,3216 698,3246C615,3288 556,3326 487,3383C440,3422 422,3426 433,3396C442,3373 599,3260 681,3217C764,3174 759,3170 669,3204C486,3273 443,3302 404,3384C365,3468 382,3470 499,3396C603,3330 742,3263 792,3254C823,3249 831,3251 837,3266C845,3289 828,3300 684,3366C622,3395 545,3436 514,3457C483,3478 445,3503 431,3512C395,3536 353,3535 340,3509C318,3469 341,3412 452,3233C551,3071 671,2970 802,2936C877,2917 943,2877 1006,2814C1083,2737 1099,2735 1505,2735C1808,2735 1851,2737 1905,2754C1990,2780 2075,2827 2091,2857C2099,2871 2130,2902 2161,2926C2219,2970 2280,3034 2280,3050C2280,3054 2309,3090 2345,3130C2381,3169 2424,3223 2441,3250C2458,3278 2475,3300 2478,3300C2497,3298 2630,3114 2630,3090C2630,3081 2595,3057 2545,3032C2446,2981 2409,2943 2354,2833L2315,2757L2316,2606C2317,2465 2319,2449 2348,2362C2365,2312 2396,2244 2416,2212C2486,2101 2617,1987 2733,1935C2862,1879 3194,1844 3323,1874C3440,1901 3550,1970 3550,2016C3550,2038 3508,2059 3444,2071C3412,2077 3381,2085 3377,2089C3372,2094 3387,2105 3410,2114C3503,2151 3609,2288 3626,2392C3633,2434 3655,2459 3671,2443C3676,2438 3694,2370 3709,2293C3757,2060 3835,1937 4023,1801C4054,1778 4080,1754 4080,1747C4080,1732 3921,1632 3878,1619C3839,1608 3577,1585 3325,1571C3183,1563 3126,1555 3056,1535C2740,1443 2520,1279 2409,1054C2360,954 2342,871 2334,713L2327,592L2378,488C2435,371 2510,282 2628,188C2699,132 2833,60 2895,45C3049,9 3324,-2 3429,24C3460,32 3531,44 3587,50C3693,61 3783,52 3920,15C4033,-15 4055,-2 4163,159C4202,217 4246,281 4262,301C4295,341 4282,338 4518,369C4617,382 4667,393 4680,405C4690,414 4735,481 4781,553C4826,626 4872,695 4884,708C4909,736 4957,750 5191,800C5428,850 5432,854 5264,870C5204,876 5110,885 5055,890C5000,895 4923,902 4884,906L4814,912L4695,769L4577,627L4369,634C4254,638 4153,643 4144,647C4133,651 4063,588 3914,439L3699,225L3530,222C3337,218 3130,239 3047,270C3018,281 2956,316 2909,347C2819,409 2770,469 2701,606C2671,665 2668,678 2672,734C2688,923 2903,1111 3169,1166C3256,1183 3392,1196 3600,1205C3909,1218 4142,1260 4275,1325C4391,1382 4519,1482 4600,1577C4625,1606 4654,1632 4665,1634C4840,1670 4955,1708 5000,1747C5024,1766 5030,1780 5030,1810C5030,1857 5020,1865 4945,1880C4851,1898 4851,1898 4910,1931C4982,1969 5041,2035 5086,2124L5122,2197L5118,2323L5115,2448L5061,2555C5018,2640 4993,2675 4934,2734C4893,2774 4860,2814 4860,2821C4860,2829 4871,2852 4886,2873C4962,2985 4958,3100 4875,3180C4841,3213 4834,3215 4775,3215C4701,3215 4679,3201 4657,3135C4644,3098 4640,3095 4599,3090C4572,3087 4534,3071 4505,3052C4478,3034 4450,3022 4444,3024C4437,3027 4413,3034 4391,3040C4355,3049 4350,3054 4350,3080C4350,3140 4442,3464 4482,3543C4518,3615 4502,3710 4453,3710C4418,3710 4357,3664 4285,3583C4147,3430 3947,3230 3930,3230C3917,3230 3773,3403 3676,3535C3670,3544 3672,3553 3682,3564C3731,3612 3738,3750 3697,3851C3682,3887 3670,3921 3670,3926C3670,3947 3753,4046 3788,4067C3860,4111 3891,4098 3955,3995C4080,3796 4230,3743 4417,3835C4522,3887 4606,3988 4626,4088C4636,4139 4602,4130 4557,4071C4490,3983 4417,3941 4332,3940C4242,3940 4195,3981 4114,4132C4049,4253 3997,4310 3918,4345C3863,4370 3843,4374 3760,4375C3673,4375 3659,4372 3597,4343C3554,4323 3505,4287 3464,4249C3429,4215 3397,4190 3393,4194C3382,4205 3417,4328 3451,4397C3494,4485 3524,4518 3597,4552C3719,4611 3866,4776 3952,4951C4007,5065 4022,5138 4023,5305C4023,5457 4011,5521 3950,5679C3915,5770 3797,5934 3744,5966L3709,5987L3766,6020C3827,6054 3833,6054 3933,6024L3991,6007L4026,6041C4062,6075 4243,6309 4295,6388C4310,6411 4328,6430 4335,6430C4341,6430 4351,6413 4356,6393C4361,6373 4370,6355 4377,6353C4383,6351 4422,6397 4462,6457C4559,6601 4701,6821 4707,6837C4719,6868 4675,6845 4609,6788C4481,6675 4459,6659 4444,6671C4436,6677 4419,6679 4406,6676C4392,6673 4281,6573 4160,6454C3991,6290 3935,6240 3922,6246C3832,6284 3825,6285 3785,6261C3764,6249 3746,6241 3744,6243C3742,6245 3753,6264 3769,6286C3784,6307 3803,6343 3810,6365C3826,6416 3862,6480 3889,6504C3908,6521 3910,6521 3916,6506C3919,6497 3915,6471 3906,6449C3897,6426 3892,6400 3895,6390C3907,6352 3995,6336 4023,6368C4031,6377 4053,6419 4071,6460C4128,6590 4167,6644 4232,6686C4253,6699 4285,6732 4304,6758C4342,6809 4355,6863 4365,7012L4372,7098L4467,7204C4571,7319 4598,7335 4634,7301C4664,7273 4681,7274 4712,7308C4733,7330 4912,7598 5016,7761C5037,7795 5038,7810 5019,7810C5012,7810 4839,7660 4792,7614C4755,7576 4691,7530 4677,7530C4669,7530 4648,7538 4632,7547C4602,7564 4601,7564 4548,7528C4483,7483 4277,7319 4233,7277C4204,7250 4200,7240 4200,7196C4200,7168 4195,7127 4189,7105C4175,7053 4032,6760 4020,6760C4015,6760 4008,6786 4005,6818C3997,6889 3991,6910 3980,6910C3968,6910 3941,6882 3873,6798C3843,6760 3811,6730 3803,6730C3796,6730 3771,6739 3748,6751C3696,6778 3609,6786 3550,6770C3513,6760 3487,6740 3410,6662C3310,6560 3215,6443 3135,6322C3109,6282 3085,6251 3083,6253C3081,6255 3088,6295 3099,6341C3110,6387 3121,6464 3125,6512C3132,6593 3133,6598 3151,6587C3161,6581 3172,6578 3175,6581C3191,6597 3203,6727 3204,6897C3205,7159 3183,7175 3139,6944C3124,6863 3117,6851 3090,6868C3079,6874 3066,6880 3060,6880C3033,6880 2990,6738 2976,6605C2959,6454 2909,6290 2885,6310C2866,6326 2808,6458 2815,6470C2818,6475 2830,6480 2840,6480C2875,6480 2893,6535 2901,6675C2906,6747 2914,6843 2919,6889L2930,6974L2874,7061L2819,7148L2822,7282C2825,7411 2826,7415 2847,7413C2858,7412 2871,7417 2874,7426C2895,7480 2891,7920 2870,7920C2866,7920 2844,7865 2822,7798ZM2848,7638C2845,7594 2839,7576 2824,7565C2799,7548 2775,7395 2775,7250C2775,7149 2777,7142 2850,7010C2875,6965 2879,6947 2875,6914C2872,6892 2865,6804 2860,6719C2856,6634 2848,6557 2845,6548C2834,6520 2820,6527 2820,6560C2820,6577 2816,6590 2810,6590C2791,6590 2777,6544 2777,6480C2777,6423 2782,6405 2817,6335C2854,6262 2869,6211 2885,6108C2891,6072 2903,6060 2914,6079C2917,6084 2924,6132 2930,6185C2936,6248 2947,6294 2959,6314C2987,6361 2998,6405 3010,6520C3024,6657 3050,6796 3066,6818C3077,6834 3080,6833 3100,6807C3128,6772 3137,6773 3155,6813C3170,6844 3170,6843 3165,6776C3158,6696 3146,6664 3136,6698C3132,6710 3125,6720 3120,6720C3107,6720 3102,6694 3090,6565C3084,6505 3073,6433 3065,6405C3056,6378 3046,6310 3041,6255C3034,6168 3027,6143 2990,6065C2918,5910 2880,5789 2880,5707C2880,5681 2876,5670 2868,5672C2834,5684 2840,5802 2880,5879C2906,5931 2906,5944 2881,5930C2852,5915 2842,5917 2823,5947C2812,5964 2805,5995 2804,6030C2803,6078 2793,6105 2736,6217C2665,6359 2663,6366 2681,6496C2690,6567 2689,6586 2671,6657C2649,6743 2644,6790 2658,6790C2671,6790 2696,6759 2719,6713C2731,6689 2745,6670 2750,6670C2763,6670 2772,6745 2774,6868L2775,6975L2728,7049C2700,7092 2678,7139 2675,7164C2669,7204 2681,7309 2716,7517L2732,7619L2769,7617C2805,7615 2805,7616 2825,7675C2847,7742 2855,7730 2848,7638ZM4868,7607C4847,7569 4690,7351 4679,7344C4673,7341 4650,7351 4628,7366L4587,7395L4479,7282C4420,7220 4362,7150 4351,7127C4340,7103 4325,7032 4315,6960C4306,6892 4294,6827 4288,6815C4273,6786 4218,6730 4204,6730C4173,6730 4100,6625 4020,6465C3973,6371 3955,6372 3955,6467C3955,6529 3952,6543 3932,6562C3915,6580 3906,6582 3892,6574C3867,6559 3787,6436 3767,6383C3749,6335 3707,6263 3603,6104C3568,6051 3540,6004 3540,5999C3540,5973 3574,5998 3624,6060C3683,6132 3792,6230 3814,6230C3820,6230 3854,6221 3888,6209L3950,6188L4166,6399C4365,6595 4384,6610 4414,6608C4446,6606 4463,6615 4522,6662C4537,6674 4552,6682 4554,6679C4563,6671 4399,6439 4389,6445C4384,6449 4380,6467 4380,6486C4380,6561 4348,6529 4126,6232C4055,6138 3992,6060 3986,6060C3980,6060 3950,6067 3920,6075C3814,6104 3793,6098 3690,6010C3604,5936 3601,5932 3589,5885C3577,5839 3550,5810 3519,5810C3507,5810 3500,5822 3495,5853C3487,5901 3475,5920 3451,5920C3442,5920 3417,5929 3396,5941L3357,5962L3363,5931C3369,5905 3365,5898 3342,5883C3302,5858 3240,5798 3240,5783C3240,5764 3246,5766 3305,5811C3348,5843 3366,5851 3392,5848C3421,5845 3425,5848 3422,5867C3420,5884 3423,5888 3433,5884C3466,5872 3485,5766 3460,5736C3443,5715 3430,5725 3430,5759C3430,5775 3423,5793 3415,5800C3396,5815 3381,5808 3301,5750C3230,5698 3210,5697 3210,5749C3210,5803 3240,5868 3292,5927C3316,5954 3342,5992 3349,6011C3356,6030 3366,6055 3371,6067C3376,6080 3391,6092 3407,6096C3506,6117 3544,6173 3571,6339C3584,6420 3597,6445 3678,6538C3759,6632 3795,6667 3830,6685C3845,6693 3874,6722 3896,6750C3930,6794 3960,6814 3960,6793C3960,6767 3982,6661 3991,6638C4011,6590 4040,6608 4040,6668C4040,6682 4058,6721 4080,6755C4102,6788 4128,6840 4139,6870C4149,6900 4174,6957 4194,6995C4219,7044 4233,7088 4240,7140C4246,7181 4253,7222 4255,7231C4260,7245 4506,7450 4569,7492C4604,7516 4613,7515 4649,7484C4669,7467 4684,7461 4694,7467C4701,7471 4745,7510 4790,7553C4835,7595 4874,7630 4877,7630C4879,7630 4875,7620 4868,7607ZM3662,6735C3671,6731 3644,6697 3583,6634C3371,6416 3254,6257 3145,6042C3075,5902 3039,5809 3020,5713C3005,5639 2986,5608 2957,5612C2922,5617 2930,5700 2980,5850C3079,6148 3263,6435 3503,6668C3567,6730 3583,6740 3613,6740C3633,6740 3654,6738 3662,6735ZM3497,6332C3494,6302 3480,6256 3467,6231C3448,6194 3433,6180 3386,6156C3335,6131 3325,6121 3305,6076C3292,6048 3262,5999 3237,5967C3191,5909 3174,5871 3146,5769C3137,5739 3121,5705 3109,5694L3087,5675L3094,5724C3102,5777 3181,5955 3228,6022C3244,6046 3271,6090 3289,6120C3348,6218 3482,6400 3493,6393C3498,6390 3500,6364 3497,6332ZM3758,5898C3788,5865 3800,5827 3800,5760C3800,5669 3758,5634 3720,5693C3711,5707 3704,5752 3702,5818C3698,5914 3699,5920 3717,5920C3728,5920 3746,5910 3758,5898ZM3634,5806C3628,5724 3626,5718 3599,5705C3584,5697 3541,5664 3503,5632C3466,5599 3420,5565 3402,5556C3375,5542 3232,5522 3148,5520C3139,5520 3108,5500 3079,5476C3034,5438 3023,5433 3005,5442C2982,5455 2966,5473 2944,5514C2921,5556 2942,5570 2969,5531C2997,5492 3010,5492 3010,5530C3010,5553 3017,5563 3043,5576C3060,5585 3094,5606 3117,5621C3157,5649 3200,5659 3200,5641C3200,5636 3191,5630 3180,5627C3169,5624 3160,5618 3160,5612C3160,5599 3219,5590 3303,5590L3372,5590L3416,5638C3441,5664 3475,5704 3491,5728C3508,5751 3529,5770 3538,5770C3568,5770 3598,5798 3605,5833C3614,5871 3630,5904 3636,5897C3639,5894 3638,5853 3634,5806ZM3340,5692C3340,5646 3298,5624 3260,5651C3247,5660 3248,5663 3264,5673C3275,5680 3290,5693 3299,5702C3323,5727 3340,5723 3340,5692ZM3654,5661C3666,5642 3501,5521 3403,5479C3302,5434 3182,5399 3116,5393C3050,5387 3048,5388 3060,5407C3089,5453 3135,5472 3254,5486C3392,5502 3445,5524 3545,5610C3612,5667 3642,5681 3654,5661ZM3894,5651C3938,5602 3986,5348 3975,5225C3964,5109 3962,5097 3941,5038C3922,4982 3841,4853 3790,4795C3704,4699 3681,4676 3677,4680C3674,4683 3678,4726 3685,4777C3697,4866 3719,4920 3755,4950C3778,4969 3846,5100 3864,5159C3893,5257 3877,5439 3834,5505C3821,5525 3819,5543 3824,5592C3828,5626 3834,5658 3836,5662C3845,5677 3877,5670 3894,5651ZM3748,5597C3754,5590 3778,5528 3800,5459C3838,5346 3841,5328 3838,5255C3830,5106 3743,4985 3564,4878C3378,4767 3265,4621 3205,4414C3185,4343 3180,4306 3180,4208L3180,4088L3125,4028C3050,3947 2996,3833 2974,3706C2966,3657 2956,3667 2916,3769C2879,3860 2884,3879 2959,3924C3020,3962 3040,3988 3018,4002C3011,4006 2970,4010 2928,4010C2873,4010 2847,4014 2836,4025C2816,4046 2808,4122 2812,4285L2815,4425L2842,4428C2857,4430 2894,4418 2929,4401C2994,4368 3030,4362 3030,4383C3030,4419 2880,4590 2849,4590C2838,4590 2837,4623 2847,4634C2851,4638 2862,4665 2871,4696C2901,4794 3014,4961 3039,4945C3045,4942 3070,4903 3097,4859C3159,4755 3176,4756 3173,4863C3172,4906 3164,4963 3155,4989C3147,5015 3142,5044 3146,5053C3154,5074 3262,5110 3317,5110C3368,5110 3377,5098 3386,5014C3394,4944 3405,4919 3425,4926C3445,4934 3460,4993 3460,5066L3460,5127L3499,5145C3550,5168 3574,5193 3601,5254C3623,5305 3623,5343 3604,5501C3598,5547 3598,5548 3641,5578C3688,5611 3731,5618 3748,5597ZM3555,5281C3547,5241 3509,5200 3480,5200C3468,5200 3440,5215 3417,5234C3394,5253 3340,5287 3297,5310C3254,5334 3222,5356 3227,5360C3231,5364 3253,5373 3275,5380C3322,5395 3482,5470 3525,5497L3555,5517L3558,5416C3560,5360 3558,5300 3555,5281ZM3204,5305C3234,5286 3263,5270 3268,5270C3273,5270 3304,5252 3337,5231C3403,5189 3415,5167 3425,5077L3431,5025L3406,5084C3393,5116 3371,5154 3358,5168C3325,5204 3204,5257 3098,5282L3006,5304L3045,5321C3107,5348 3143,5344 3204,5305ZM3051,5246C3179,5214 3270,5179 3270,5162C3270,5158 3235,5144 3192,5132L3113,5108L3060,5135L3008,5162L2821,5157C2719,5154 2617,5149 2595,5145C2557,5139 2559,5141 2630,5181C2720,5231 2843,5279 2885,5279C2902,5280 2976,5265 3051,5246ZM3040,5087C3078,5068 3088,5057 3106,5010C3132,4945 3144,4880 3132,4880C3127,4880 3118,4892 3111,4908C3085,4966 3034,5030 3006,5040C2911,5073 2709,5027 2498,4925C2449,4901 2402,4884 2394,4887C2373,4895 2377,4951 2403,5001L2426,5044L2506,5056C2549,5063 2614,5076 2650,5085C2798,5125 2961,5126 3040,5087ZM2970,4987C2970,4979 2952,4948 2929,4916C2872,4837 2810,4698 2810,4651C2810,4613 2810,4613 2764,4607C2702,4600 2631,4550 2494,4418C2433,4358 2379,4310 2373,4310C2368,4310 2355,4319 2346,4329C2336,4340 2311,4352 2289,4355C2230,4365 2220,4380 2220,4463C2220,4553 2239,4642 2279,4746C2320,4852 2332,4869 2359,4853C2384,4837 2429,4836 2466,4850C2490,4859 2497,4858 2517,4835C2567,4782 2659,4816 2646,4884C2638,4927 2656,4943 2745,4969C2840,4996 2847,4998 2913,4999C2954,5000 2970,4996 2970,4987ZM2608,4878C2604,4849 2569,4843 2546,4866C2525,4887 2539,4900 2583,4900C2607,4900 2611,4896 2608,4878ZM3628,4774C3632,4686 3605,4627 3547,4600C3492,4574 3471,4552 3424,4470C3363,4362 3360,4355 3349,4269C3343,4223 3335,4178 3331,4170C3323,4155 3235,4128 3226,4138C3212,4152 3223,4244 3251,4359C3277,4464 3292,4501 3339,4580C3371,4635 3420,4699 3455,4733C3513,4789 3594,4842 3615,4836C3621,4835 3626,4806 3628,4774ZM2867,4531C2959,4458 2977,4421 2901,4459C2851,4485 2804,4486 2763,4461C2720,4434 2637,4348 2518,4205C2340,3992 2343,3994 2299,4041C2248,4095 2190,4232 2190,4297C2190,4334 2203,4324 2235,4263C2252,4232 2273,4202 2282,4196C2311,4179 2357,4210 2496,4342C2686,4522 2747,4569 2797,4570C2808,4570 2840,4553 2867,4531ZM2754,4339C2757,4322 2760,4269 2761,4221C2761,4174 2765,4111 2769,4082C2776,4030 2775,4024 2721,3916C2690,3854 2661,3792 2655,3779C2647,3759 2636,3754 2590,3750L2535,3745L2532,3708C2530,3681 2535,3665 2549,3651C2575,3625 2575,3614 2551,3600C2522,3585 2456,3588 2410,3606C2344,3632 2318,3708 2287,3955C2285,3973 2292,3976 2344,3980C2397,3985 2405,3989 2434,4025C2500,4108 2732,4370 2740,4370C2744,4370 2750,4356 2754,4339ZM2318,4291C2321,4272 2317,4269 2298,4272C2281,4274 2274,4282 2272,4302C2269,4327 2271,4329 2292,4321C2305,4317 2316,4303 2318,4291ZM3721,4314C3691,4306 3665,4302 3662,4304C3656,4311 3719,4328 3750,4328C3764,4329 3751,4322 3721,4314ZM3627,4284C3611,4275 3596,4271 3593,4274C3590,4277 3598,4284 3611,4289C3648,4304 3658,4301 3627,4284ZM3853,4236C3889,4221 3920,4182 3920,4150C3920,4130 3916,4130 3783,4132C3651,4135 3642,4134 3588,4108C3533,4083 3530,4082 3530,4101C3530,4129 3604,4198 3663,4226C3723,4253 3802,4258 3853,4236ZM4008,4187C4029,4158 4067,4097 4092,4050C4118,4003 4157,3941 4179,3911C4243,3826 4228,3815 4138,3880C4043,3948 3982,4046 3970,4150C3966,4186 3959,4224 3954,4234C3942,4266 3967,4244 4008,4187ZM3485,4184C3466,4159 3459,4141 3463,4122C3467,4102 3456,4077 3419,4020C3393,3978 3364,3927 3355,3906C3310,3798 3410,3741 3508,3818C3568,3865 3589,3874 3616,3861C3643,3849 3663,3790 3664,3713C3665,3635 3650,3628 3593,3679C3524,3739 3485,3755 3439,3741C3370,3720 3324,3637 3293,3475C3284,3431 3274,3391 3270,3387C3266,3382 3255,3420 3245,3470C3211,3643 3240,3812 3334,4005C3388,4116 3467,4220 3497,4220C3509,4220 3506,4211 3485,4184ZM3330,4112C3330,4107 3317,4079 3301,4049C3285,4019 3256,3950 3236,3895C3216,3840 3179,3752 3155,3700C3130,3648 3099,3565 3085,3515C3043,3367 2990,3268 2911,3189C2853,3131 2837,3120 2809,3120C2790,3121 2765,3126 2753,3133C2732,3145 2733,3145 2770,3145C2798,3145 2817,3153 2835,3170C2890,3221 2948,3366 2986,3544C3052,3853 3069,3896 3161,3995C3237,4077 3330,4141 3330,4112ZM3686,4059C3690,4052 3680,4023 3664,3994C3638,3946 3632,3940 3602,3940C3554,3940 3510,3918 3465,3871C3444,3849 3420,3830 3413,3830C3378,3830 3420,3926 3481,3988C3541,4048 3666,4091 3686,4059ZM2914,3945C2860,3913 2830,3865 2772,3718C2715,3575 2658,3459 2636,3441C2604,3414 2488,3463 2443,3523C2425,3546 2415,3566 2420,3568C2425,3570 2450,3562 2476,3551C2535,3524 2546,3525 2584,3554C2622,3583 2657,3645 2730,3815C2794,3962 2801,3970 2895,3970L2955,3970L2914,3945ZM4430,3902C4430,3893 4375,3867 4333,3855C4304,3847 4260,3859 4260,3876C4260,3889 4290,3897 4365,3903C4387,3905 4411,3907 4418,3908C4424,3909 4430,3906 4430,3902ZM2908,3698C2961,3633 2960,3614 2903,3420C2858,3268 2809,3190 2759,3190C2737,3190 2712,3211 2633,3295C2531,3404 2513,3429 2546,3415C2607,3389 2639,3386 2677,3402C2698,3411 2732,3421 2752,3425C2806,3434 2817,3459 2794,3525L2777,3578L2805,3656C2820,3700 2838,3744 2843,3755C2853,3774 2854,3774 2864,3756C2870,3746 2890,3720 2908,3698ZM2587,3709C2601,3695 2593,3670 2575,3670C2557,3670 2547,3687 2554,3705C2560,3723 2572,3724 2587,3709ZM3209,3415C3226,3342 3256,3285 3286,3270C3323,3249 3330,3267 3331,3395C3332,3532 3348,3499 3349,3356L3350,3257L3425,3187C3466,3149 3500,3113 3500,3106C3500,3099 3482,3085 3459,3075C3408,3052 3310,3051 3256,3074C3193,3100 3174,3095 3144,3048C3114,2998 3041,2920 3025,2920C3005,2920 2860,3043 2860,3059C2860,3068 2878,3094 2901,3115C2958,3170 3022,3256 3052,3315C3075,3360 3140,3542 3140,3561C3140,3566 3150,3595 3163,3627L3185,3685L3191,3575C3194,3515 3203,3443 3209,3415ZM3550,3645C3597,3610 3600,3604 3600,3525C3600,3426 3585,3406 3516,3413C3488,3416 3447,3424 3425,3432L3385,3445L3385,3541C3385,3659 3392,3670 3464,3670C3504,3670 3524,3664 3550,3645ZM4420,3626C4420,3619 4271,3406 4245,3376C4225,3353 4217,3349 4207,3359C4198,3368 4200,3380 4218,3414C4253,3480 4420,3655 4420,3626ZM654,3525C793,3473 1003,3353 973,3343C967,3341 935,3350 903,3364C844,3389 613,3510 575,3536C543,3559 578,3553 654,3525ZM2310,3511C2310,3489 2291,3470 2268,3470C2246,3470 2245,3482 2266,3521C2278,3546 2284,3549 2296,3539C2304,3533 2310,3520 2310,3511ZM2770,3482C2770,3457 2744,3442 2729,3457C2723,3463 2725,3478 2737,3498C2756,3531 2770,3524 2770,3482ZM3697,3431C3705,3412 3741,3364 3776,3326C3836,3259 3840,3252 3840,3207C3840,3167 3835,3154 3811,3129C3776,3094 3741,3092 3679,3120C3594,3157 3609,3116 3732,2967C3758,2935 3784,2899 3790,2887C3805,2857 3678,2990 3565,3125C3514,3186 3458,3251 3441,3270C3418,3297 3411,3315 3410,3348C3410,3371 3412,3390 3415,3390C3419,3390 3435,3383 3451,3374C3495,3352 3553,3354 3595,3380C3637,3406 3650,3427 3650,3472C3651,3504 3651,3504 3666,3485C3675,3474 3689,3449 3697,3431ZM2403,3393C2429,3367 2450,3342 2450,3337C2450,3320 2232,3086 2177,3044C2121,3002 2090,2990 2090,3008C2090,3024 2132,3145 2151,3184C2187,3258 2175,3267 2109,3215C2085,3196 2062,3180 2058,3180C2039,3180 2054,3214 2096,3265C2121,3296 2154,3343 2169,3368C2195,3413 2198,3415 2255,3422C2287,3426 2315,3432 2318,3435C2333,3449 2362,3435 2403,3393ZM4331,3270C4308,3181 4287,3104 4284,3099C4279,3089 4210,3086 4210,3095C4210,3098 4218,3117 4229,3138C4239,3158 4255,3200 4265,3230C4296,3325 4356,3447 4367,3436C4369,3434 4353,3359 4331,3270ZM4205,3316C4222,3304 4223,3298 4212,3262C4193,3198 4151,3110 4140,3110C4135,3110 4130,3132 4130,3159C4130,3193 4124,3215 4109,3233C4085,3264 4091,3281 4136,3311C4171,3334 4180,3334 4205,3316ZM1230,3255C1266,3247 1367,3223 1454,3202C1609,3165 1614,3163 1623,3134C1652,3047 1707,3019 1950,2971C2003,2960 2060,2923 2060,2899C2060,2854 1987,2819 1832,2787C1684,2758 1286,2755 1171,2783C1084,2804 1047,2822 1026,2852C1001,2887 1006,2908 1059,2989C1086,3031 1116,3091 1126,3123C1144,3182 1144,3183 1115,3253C1106,3275 1138,3276 1230,3255ZM695,3157C717,3148 769,3132 810,3121C851,3110 911,3094 942,3085C1011,3066 1034,3047 1020,3019C982,2949 817,2956 686,3034C635,3064 560,3128 560,3141C560,3147 579,3138 603,3122C626,3106 656,3089 669,3085C712,3072 687,3103 620,3147C495,3230 503,3231 695,3157ZM2661,3193C2674,3178 2673,3178 2653,3189C2629,3201 2624,3210 2639,3210C2644,3210 2654,3203 2661,3193ZM4064,3195C4080,3179 4094,3106 4088,3074C4081,3038 4053,3048 4021,3098C3984,3156 3981,3187 4013,3200C4044,3212 4047,3212 4064,3195ZM3968,3104C3998,3061 4031,3006 4043,2983C4063,2943 4063,2940 4046,2921C4018,2890 3978,2879 3909,2882C3851,2885 3845,2887 3847,2906C3848,2919 3829,2947 3790,2985C3757,3018 3730,3048 3730,3052C3730,3056 3746,3060 3767,3060C3796,3060 3810,3068 3841,3100C3863,3122 3883,3152 3886,3166C3890,3180 3897,3189 3904,3187C3910,3185 3939,3148 3968,3104ZM4855,3150C4889,3118 4904,3045 4889,2987C4876,2934 4860,2925 4860,2970C4860,3018 4823,3101 4783,3143L4745,3183L4788,3177C4813,3174 4842,3162 4855,3150ZM4800,3042C4811,3013 4820,2978 4820,2965C4820,2952 4825,2929 4830,2915C4842,2883 4828,2850 4801,2850C4788,2850 4779,2863 4770,2896C4763,2922 4742,2964 4723,2991C4686,3046 4679,3100 4707,3139L4723,3163L4751,3129C4767,3110 4789,3071 4800,3042ZM1799,3125C1905,3096 1920,3088 1920,3055C1920,3021 1895,3017 1821,3040C1732,3067 1676,3100 1672,3128C1668,3157 1681,3156 1799,3125ZM2062,3125C2069,3117 2050,3017 2039,3005C2033,2999 2020,3005 2004,3022C1975,3050 1976,3084 2006,3114C2021,3130 2051,3135 2062,3125ZM2756,3079C2780,3068 2810,3042 2825,3020C2840,2999 2881,2962 2917,2938C2982,2895 2983,2873 2918,2905C2862,2934 2695,3066 2676,3098C2666,3115 2693,3109 2756,3079ZM3225,3038C3232,3019 3184,2907 3162,2892C3144,2880 3080,2885 3080,2899C3080,2902 3098,2923 3120,2944C3142,2966 3160,2987 3160,2990C3160,3002 3201,3050 3211,3050C3216,3050 3223,3044 3225,3038ZM3578,3005C3607,2979 3636,2941 3648,2913C3672,2855 3695,2747 3687,2725C3678,2704 3661,2706 3666,2728C3669,2738 3649,2770 3615,2810C3508,2934 3460,3050 3515,3050C3522,3050 3550,3030 3578,3005ZM4650,3011C4710,2948 4743,2871 4748,2779C4752,2705 4746,2660 4734,2673C4731,2676 4722,2712 4715,2752C4700,2840 4667,2908 4606,2980C4581,3010 4560,3037 4560,3042C4560,3046 4572,3050 4587,3050C4604,3050 4625,3037 4650,3011ZM2776,2952C2831,2908 2925,2818 2986,2752C3076,2654 3098,2624 3103,2593C3114,2528 3186,2393 3242,2334C3309,2263 3353,2240 3425,2240C3455,2240 3480,2236 3480,2231C3480,2220 3385,2138 3353,2121C3304,2096 3096,2120 2980,2166C2856,2214 2714,2351 2633,2501C2578,2602 2548,2639 2502,2665C2447,2696 2425,2693 2373,2647L2337,2615L2343,2661C2364,2813 2456,2945 2585,3007C2623,3025 2660,3038 2666,3036C2672,3034 2722,2996 2776,2952ZM4326,3011C4358,2999 4388,2986 4392,2982C4397,2977 4375,2945 4344,2909C4313,2874 4269,2820 4246,2789C4223,2758 4188,2713 4167,2689C4122,2633 4091,2565 4090,2523C4090,2501 4085,2490 4076,2490C4041,2490 3876,2714 3864,2776C3856,2819 3868,2830 3926,2830C3982,2830 4059,2871 4115,2931C4150,2968 4159,2985 4151,2993C4143,3001 4137,3001 4128,2992C4111,2975 4090,2977 4090,2995C4090,3042 4213,3050 4326,3011ZM3254,2956C3244,2928 3240,2893 3243,2869L3248,2830L3192,2836C3131,2843 3111,2850 3151,2850C3190,2850 3216,2875 3230,2927C3244,2980 3259,3014 3266,3008C3268,3005 3263,2982 3254,2956ZM3386,3002C3392,2998 3407,2977 3418,2954C3429,2932 3446,2907 3455,2900C3464,2892 3480,2868 3491,2845C3509,2806 3609,2698 3658,2664C3670,2656 3680,2645 3680,2639C3680,2629 3578,2628 3510,2638C3472,2644 3465,2649 3462,2670C3456,2730 3439,2766 3407,2788C3389,2800 3367,2810 3358,2810C3339,2810 3293,2845 3280,2870C3269,2891 3299,2987 3322,3002C3338,3012 3371,3012 3386,3002ZM4519,2910C4576,2838 4618,2746 4631,2663C4646,2572 4639,2545 4599,2531C4553,2515 4458,2517 4434,2535C4414,2548 4330,2707 4330,2731C4330,2737 4355,2791 4386,2851C4427,2932 4447,2960 4461,2960C4471,2960 4497,2938 4519,2910ZM3757,2851L3790,2813L3766,2791C3743,2769 3741,2769 3732,2787C3718,2813 3707,2890 3717,2889C3721,2889 3740,2871 3757,2851ZM3252,2779C3320,2757 3360,2727 3360,2698C3360,2680 3349,2676 3276,2666C3255,2663 3229,2653 3219,2644C3191,2619 3162,2632 3077,2710C2973,2807 2974,2815 3094,2807C3148,2803 3216,2791 3252,2779ZM3829,2714C3897,2562 4089,2380 4269,2297C4363,2254 4454,2254 4563,2298C4606,2316 4647,2330 4653,2330C4660,2330 4714,2281 4774,2221C4897,2098 4895,2106 4824,2010C4800,1977 4780,1946 4780,1942C4780,1938 4761,1929 4737,1922C4659,1899 4466,1952 4348,2029C4265,2083 4204,2147 4114,2275C3979,2468 3935,2522 3892,2547C3861,2565 3842,2570 3822,2565C3785,2556 3753,2524 3739,2483C3711,2397 3698,2517 3726,2611C3743,2667 3790,2760 3802,2760C3806,2760 3818,2739 3829,2714ZM4302,2682C4334,2628 4381,2496 4376,2475C4368,2445 4329,2430 4259,2430C4203,2430 4195,2433 4164,2464C4145,2483 4130,2506 4130,2517C4130,2561 4249,2724 4273,2714C4280,2712 4293,2697 4302,2682ZM3420,2683C3420,2646 3406,2626 3386,2633C3371,2639 3372,2642 3387,2675C3407,2717 3420,2720 3420,2683ZM4936,2674C4969,2640 5020,2550 5020,2524C5020,2508 4996,2500 4947,2500C4924,2500 4888,2496 4867,2491C4816,2479 4812,2493 4844,2574C4858,2609 4870,2652 4870,2668C4870,2721 4886,2723 4936,2674ZM4775,2625C4757,2565 4700,2480 4653,2444C4591,2397 4478,2376 4415,2400L4389,2410L4412,2440C4432,2467 4439,2470 4489,2470C4605,2470 4660,2501 4733,2608C4760,2648 4784,2679 4786,2677C4788,2675 4783,2652 4775,2625ZM2512,2607C2531,2589 2570,2531 2599,2479C2671,2352 2737,2271 2819,2211C2926,2132 2988,2108 3208,2064C3239,2058 3236,2033 3198,1998C3148,1951 3092,1927 3020,1923C2899,1914 2727,1969 2644,2042C2604,2077 2508,2193 2464,2260C2422,2323 2360,2478 2360,2520C2360,2554 2390,2617 2414,2632C2440,2650 2480,2639 2512,2607ZM3460,2575C3496,2568 3551,2558 3583,2555C3637,2548 3670,2531 3670,2510C3670,2495 3627,2494 3560,2508C3524,2516 3449,2523 3393,2524C3309,2525 3288,2529 3271,2544C3255,2558 3253,2566 3261,2576C3282,2601 3336,2601 3460,2575ZM3391,2476C3567,2471 3594,2456 3564,2380C3544,2331 3501,2293 3455,2284C3365,2267 3240,2379 3215,2500L3208,2535L3237,2507C3265,2481 3271,2480 3391,2476ZM3897,2496C3913,2482 3971,2405 4026,2323C4223,2029 4387,1910 4642,1875C4669,1872 4691,1863 4694,1854C4703,1831 4674,1784 4637,1761C4581,1727 4472,1690 4426,1690C4296,1690 4034,1822 3922,1944C3819,2056 3762,2177 3753,2305C3741,2474 3812,2567 3897,2496ZM5045,2375C5045,2310 5040,2268 5032,2255C5021,2238 5019,2247 5024,2315C5030,2403 5028,2407 4985,2435L4955,2454L4985,2466C5041,2491 5045,2485 5045,2375ZM4872,2313C5002,2180 5008,2167 4968,2082C4941,2025 4849,1930 4821,1930C4803,1930 4805,1935 4838,1968C4858,1989 4886,2027 4898,2053C4919,2094 4920,2105 4910,2129C4896,2165 4739,2326 4711,2335C4699,2338 4690,2345 4690,2350C4690,2365 4743,2410 4760,2410C4768,2410 4819,2366 4872,2313ZM4395,2359C4451,2346 4497,2341 4524,2345L4565,2351L4535,2333C4490,2306 4362,2309 4287,2339C4180,2381 4249,2394 4395,2359ZM3396,2041C3479,2020 3490,2014 3490,1995C3490,1957 3341,1925 3290,1952C3259,1968 3253,2003 3274,2036C3294,2065 3304,2065 3396,2041ZM4867,1856C4950,1841 4990,1826 4990,1811C4990,1793 4939,1753 4902,1742C4847,1725 4779,1727 4752,1746C4728,1763 4723,1801 4740,1844C4751,1874 4758,1875 4867,1856ZM4249,1691C4349,1655 4373,1640 4423,1586C4487,1515 4485,1504 4387,1438C4308,1385 4232,1350 4191,1350L4157,1350L4165,1408C4181,1514 4177,1540 4144,1566C4128,1579 4089,1600 4058,1612C4026,1625 4000,1638 4000,1641C4000,1645 4013,1653 4029,1660C4045,1666 4073,1683 4091,1696C4133,1727 4148,1726 4249,1691ZM4590,1631C4590,1615 4560,1590 4541,1590C4519,1590 4496,1615 4505,1630C4513,1642 4590,1644 4590,1631ZM4072,1558L4132,1526L4125,1465C4121,1432 4117,1383 4116,1356L4115,1306L4067,1294C4040,1287 3997,1279 3970,1275L3923,1268L3904,1320C3883,1378 3870,1393 3846,1384C3830,1378 3810,1323 3810,1284C3810,1256 3787,1250 3678,1250C3591,1250 3590,1250 3559,1285C3541,1304 3519,1320 3510,1320C3489,1320 3470,1301 3470,1279C3470,1249 3446,1241 3326,1229C3230,1220 3200,1220 3167,1231C3129,1243 3125,1242 3061,1210C3025,1191 2957,1150 2910,1120C2863,1089 2811,1058 2793,1051C2775,1044 2757,1026 2750,1010C2743,994 2718,951 2695,915C2646,841 2629,778 2632,685C2633,651 2628,610 2621,592C2602,547 2562,549 2490,596C2385,664 2380,673 2380,765C2380,935 2454,1095 2595,1235C2703,1341 2847,1426 3000,1475C3136,1518 3222,1531 3442,1540C3692,1551 3852,1567 3894,1586C3938,1606 4001,1596 4072,1558ZM5147,843C5164,837 5135,829 5032,812C4957,799 4886,783 4875,775C4864,768 4815,698 4767,619C4637,409 4656,427 4564,414C4487,403 4450,409 4450,430C4450,450 4424,439 4398,410C4377,386 4364,380 4332,380C4270,380 4235,348 4136,198C4086,123 4039,58 4031,55C4023,52 3984,54 3946,59C3907,65 3849,72 3817,75C3786,79 3762,85 3765,90C3768,95 3792,106 3819,115C3882,135 3946,190 3937,214C3931,229 3921,231 3850,224C3805,220 3770,221 3770,226C3770,231 3850,315 3948,413L4127,591L4595,589L4631,627C4651,648 4700,705 4740,754C4781,802 4823,846 4834,851C4859,862 5115,855 5147,843ZM2451,578C2474,559 2469,559 2428,575C2418,579 2410,578 2410,573C2410,557 2453,524 2497,507C2534,492 2543,492 2574,505C2594,513 2618,520 2628,520C2639,520 2654,530 2662,542C2677,564 2677,563 2705,515C2720,487 2746,443 2763,417C2796,364 2808,294 2791,261C2781,243 2770,240 2722,240C2651,240 2599,264 2541,321C2462,400 2370,556 2370,611C2370,630 2371,630 2398,614C2414,605 2437,589 2451,578ZM2974,257C3034,218 3092,173 3103,158C3127,126 3120,87 3086,65C3065,51 3055,51 2978,69C2894,89 2744,143 2726,160C2721,165 2737,174 2761,181C2823,198 2850,230 2850,286C2850,310 2853,330 2858,330C2862,330 2914,297 2974,257ZM3280,190C3384,178 3427,166 3451,144C3481,117 3475,91 3434,74C3402,61 3182,35 3174,43C3172,45 3176,61 3183,79C3193,105 3192,112 3181,119C3171,126 3141,189 3140,207C3140,208 3152,207 3168,205C3183,203 3233,196 3280,190ZM3844,171C3851,161 3586,81 3539,80C3536,80 3534,102 3534,130L3535,180L3687,180C3770,180 3841,176 3844,171Z" style="fill:rgb(255,238,0);fill-rule:nonzero;"/>
        <path d="M2646,4174C2628,4156 2626,4127 2640,4099C2655,4071 2716,4072 2725,4101C2733,4126 2723,4172 2707,4182C2688,4194 2663,4191 2646,4174ZM2700,4129C2700,4117 2693,4110 2680,4110C2661,4110 2652,4138 2666,4153C2677,4164 2700,4148 2700,4129Z" style="fill:rgb(255,238,0);fill-rule:nonzero;"/>
        <path d="M2207,3364C2198,3355 2198,3307 2206,3286C2214,3265 2230,3275 2230,3301C2230,3312 2241,3325 2255,3332C2269,3338 2279,3348 2277,3354C2273,3367 2218,3374 2207,3364Z" style="fill:rgb(255,238,0);fill-rule:nonzero;"/>
    </g>
</svg>
