<?xml version="1.0" encoding="UTF-8" standalone="no"?>
<!DOCTYPE svg PUBLIC "-//W3C//DTD SVG 1.1//EN" "http://www.w3.org/Graphics/SVG/1.1/DTD/svg11.dtd">
<svg width="100%" height="100%" viewBox="0 0 1600 1521" version="1.1" xmlns="http://www.w3.org/2000/svg" xmlns:xlink="http://www.w3.org/1999/xlink" xml:space="preserve" xmlns:serif="http://www.serif.com/" style="fill-rule:evenodd;clip-rule:evenodd;stroke-linejoin:round;stroke-miterlimit:2;">
    <g transform="matrix(0.1,0,0,-0.1,0,1521)">
        <path d="M9546,15200C9399,15176 9225,15111 9118,15039C9030,14980 8882,14829 8824,14740C8797,14699 8755,14623 8730,14572C8706,14522 8681,14480 8675,14480C8668,14480 8605,14509 8534,14545C8101,14764 7765,14746 7485,14488C7355,14368 7218,14152 7170,13992C7158,13952 7142,13913 7134,13906C7127,13898 7088,13887 7048,13880C6840,13846 6716,13795 6621,13705C6533,13621 6497,13540 6469,13363C6463,13323 6455,13290 6451,13290C6438,13290 6380,13377 6349,13445C6307,13533 6307,13610 6349,13780C6415,14047 6378,14203 6212,14362C6113,14457 6001,14500 5855,14500C5710,14500 5608,14462 5498,14368C5419,14300 5441,14295 5308,14410C5173,14527 5046,14590 4909,14609C4722,14634 4533,14561 4372,14398C4254,14279 4220,14204 4220,14065C4220,13922 4266,13814 4385,13671C4426,13622 4460,13576 4460,13568C4460,13553 4407,13518 4310,13469C4186,13406 4099,13432 3870,13602C3627,13781 3527,13828 3376,13833L3297,13835L3299,13755C3301,13653 3321,13570 3414,13275C3501,12998 3512,12952 3500,12930C3495,12921 3428,12870 3350,12816C3117,12653 2839,12400 2692,12216C2492,11967 2359,11464 2390,11078C2436,10521 2758,10112 3385,9814L3499,9760L3425,9657C3289,9468 3187,9228 3111,8919C3046,8656 3021,8414 3010,7945C2999,7482 2987,7350 2930,7075C2874,6802 2742,6478 2583,6225C2348,5850 2306,5673 2274,4945L2267,4785L2175,4510C1989,3955 1848,3664 1686,3505C1546,3367 1077,2976 959,2900C928,2880 865,2849 819,2830C673,2773 517,2691 452,2639C405,2601 369,2559 314,2475C224,2338 65,2026 26,1910C-21,1771 -2,1727 130,1676C170,1660 237,1627 281,1602C360,1558 362,1557 428,1564C618,1582 639,1582 691,1570C721,1563 799,1530 865,1496L985,1436L1325,1438C1815,1441 2181,1464 2489,1511C2766,1553 2863,1591 2972,1700L3040,1768L3040,2067C3040,2479 3061,2717 3121,2970C3202,3319 3388,3674 3653,3991C3793,4158 4021,4388 4142,4483L4238,4559L4245,4637C4285,5126 4425,5500 4751,5991C4907,6228 5261,6693 5294,6706C5301,6709 5399,6666 5512,6611C5698,6521 5719,6508 5724,6483C5734,6432 5759,6238 5777,6080C5788,5980 5794,5844 5795,5695C5795,5474 5794,5461 5767,5357C5751,5297 5717,5191 5691,5122C5574,4813 5571,4793 5560,4275C5548,3727 5540,3637 5470,3223C5408,2857 5325,2558 5214,2305C5146,2150 5090,2071 4954,1940C4733,1727 4650,1616 4650,1533C4650,1482 4637,1466 4540,1395C4430,1313 4278,1155 4202,1041C4025,777 3960,388 4052,143C4075,81 4102,68 4156,94C4188,109 4191,109 4210,90C4220,80 4236,58 4244,41C4256,19 4270,9 4296,4C4378,-11 4665,23 4848,69C4976,102 5045,110 5286,120C5618,134 5724,152 5945,232C6366,385 6647,603 6755,860C6782,923 6782,928 6774,1035C6761,1191 6764,1674 6779,1880C6817,2414 6914,2970 6974,2993C6988,2999 7014,2982 7099,2913C7186,2842 7296,2824 7445,2855C7551,2878 7562,2876 7627,2823C7736,2734 7773,2725 7908,2759C8004,2784 8162,2812 8350,2840C8543,2868 8806,2923 8905,2956C9099,3019 9230,3108 9287,3217C9332,3300 9335,3330 9309,3440C9292,3512 9286,3577 9282,3711C9275,3985 9309,4250 9400,4645C9453,4873 9503,5155 9520,5319C9534,5467 9532,5749 9515,5844C9495,5955 9454,6031 9349,6151C9226,6291 9167,6376 9109,6495C9030,6657 9008,6780 9030,6933C9049,7069 9061,7061 9109,6879C9162,6672 9200,6600 9254,6600C9292,6600 9316,6641 9340,6743C9367,6862 9379,6900 9390,6900C9405,6900 9426,6810 9475,6545C9524,6278 9553,6178 9624,6025C9734,5791 9867,5661 10375,5298C10877,4938 11125,4745 11271,4600C11493,4379 11672,4087 11775,3776C11827,3620 11845,3520 11845,3390C11844,3284 11842,3268 11812,3195C11794,3149 11746,3066 11700,3000C11521,2742 11457,2641 11400,2526C11257,2234 11216,1994 11283,1846C11312,1783 11362,1742 11448,1710C11522,1682 11527,1677 11535,1622C11546,1541 11575,1520 11677,1520C11755,1520 11883,1550 12082,1614L12219,1658L12284,1634C12371,1603 12432,1596 12510,1610C12603,1626 12764,1677 12835,1712C12968,1779 13158,1915 13295,2041C13391,2130 13495,2214 13570,2263C13641,2310 13733,2397 13756,2441C13779,2485 13786,2608 13770,2685C13762,2725 13696,2867 13556,3144C13444,3365 13326,3610 13293,3690C13167,3989 13078,4300 12946,4895C12877,5209 12795,5539 12775,5587C12753,5640 12728,5663 12618,5736C12481,5827 12379,5909 12275,6014C12048,6243 11912,6459 11836,6713C11777,6910 11753,7086 11690,7780C11646,8270 11631,8510 11646,8510C11652,8510 11748,8363 11860,8183C12167,7690 12274,7535 12379,7431L12433,7377L12477,7463C12658,7825 12773,8335 12855,9145C12903,9623 12923,10090 12923,10745C12923,11426 12911,11630 12839,12174C12823,12299 12810,12416 12812,12432L12815,12461L12860,12429C13229,12162 14003,11567 14175,11417C14415,11207 14700,10918 14700,10884C14700,10859 14616,10868 14445,10910C14257,10957 14159,10962 14134,10925C14123,10909 14123,10900 14133,10880C14152,10842 14298,10749 14488,10654C14582,10607 14660,10566 14660,10562C14660,10559 14631,10507 14596,10446C14484,10253 14463,10206 14400,10013C14336,9819 14316,9714 14339,9686C14350,9673 14357,9673 14391,9685C14484,9718 14630,9852 14734,10001C14846,10159 14892,10220 14900,10220C14912,10220 14918,10160 14924,9990C14933,9752 14974,9580 15030,9550C15060,9534 15096,9559 15110,9607C15121,9649 15148,9837 15180,10097C15210,10348 15228,10403 15289,10434C15316,10449 15441,10476 15779,10541C15975,10578 16002,10587 15998,10609C15993,10635 15857,10695 15700,10739C15522,10791 15450,10818 15450,10836C15450,10851 15485,10938 15620,11265C15866,11858 15948,12080 15957,12181C15962,12229 15960,12238 15944,12244C15920,12253 15817,12144 15666,11950C15462,11686 15338,11507 15255,11358C15228,11309 15203,11270 15199,11270C15188,11270 15182,11315 15175,11439C15161,11699 15113,11838 15053,11788C15031,11770 15015,11729 14974,11586C14925,11417 14860,11221 14850,11215C14841,11209 14779,11280 14709,11375C14564,11573 14250,11890 13910,12181C13526,12509 13025,12852 12490,13152C12353,13229 12342,13234 12324,13219C12300,13199 12304,13125 12369,12490C12399,12198 12418,11967 12442,11610C12459,11356 12459,10291 12442,10065C12422,9805 12383,9358 12350,9020C12304,8557 12277,8370 12256,8370C12236,8370 12065,8593 11865,8882L11783,8998L11777,9277C11767,9687 11745,9839 11660,10092C11638,10157 11620,10212 11620,10216C11620,10219 11671,10273 11732,10337C11919,10527 12014,10671 12076,10860C12102,10939 12104,10956 12104,11105C12104,11250 12101,11273 12077,11351C12019,11541 11933,11711 11820,11860L11763,11935L11812,12005C11878,12098 11925,12193 11950,12281C11992,12435 11999,12725 11964,12919C11926,13132 11759,13424 11602,13556C11478,13659 11362,13712 11165,13756C10998,13794 10991,13796 10985,13833C10983,13851 10976,13948 10971,14050C10952,14407 10876,14585 10639,14822C10449,15012 10252,15122 9990,15181C9891,15204 9638,15214 9546,15200ZM9885,15119C10382,15058 10816,14658 10886,14195C10897,14121 10906,13821 10898,13820C10828,13812 10530,13754 10466,13735C10417,13721 10373,13713 10369,13717C10365,13721 10374,13764 10390,13812C10428,13931 10432,13950 10420,13950C10415,13950 10410,13942 10410,13933C10410,13905 10336,13747 10305,13706C10290,13686 10241,13641 10196,13606C10096,13528 10009,13437 9981,13383C9964,13349 9948,13336 9895,13311C9780,13256 9689,13237 9555,13236C9412,13236 9344,13252 9215,13314C9059,13389 8910,13528 8822,13682C8805,13711 8776,13778 8758,13830C8726,13923 8725,13928 8725,14100C8725,14248 8729,14288 8747,14362C8837,14713 9046,14955 9365,15076C9404,15090 9464,15108 9500,15115C9582,15131 9767,15133 9885,15119ZM8208,14594C8321,14566 8448,14513 8558,14447L8640,14398L8640,14184C8640,13892 8664,13780 8763,13620C8825,13519 8845,13482 8840,13476C8837,13474 8801,13478 8760,13487C8657,13508 8424,13508 8300,13487C8166,13463 8100,13447 7805,13368C7519,13291 7472,13286 7411,13329C7334,13384 7266,13541 7235,13736C7218,13841 7221,13891 7251,13989C7316,14197 7498,14430 7674,14530C7854,14631 7993,14648 8208,14594ZM5012,14505C5049,14493 5101,14470 5127,14454C5202,14411 5331,14276 5383,14185C5459,14056 5534,13797 5547,13625C5553,13540 5554,13537 5566,13565C5584,13607 5583,13778 5565,13903C5548,14013 5536,14058 5497,14162L5471,14229L5501,14267C5564,14347 5705,14415 5830,14427C6003,14443 6184,14331 6271,14154C6323,14049 6323,13984 6270,13775C6219,13571 6220,13547 6282,13418C6333,13312 6371,13259 6485,13135C6655,12948 6681,12883 6528,13027C6424,13124 6353,13169 6143,13274C5804,13443 5773,13450 5405,13451C5096,13451 5113,13456 4609,13222L4523,13182L4449,13219C4379,13254 4251,13339 4250,13350C4250,13353 4289,13375 4338,13399C4454,13457 4516,13499 4581,13565C4658,13643 4700,13721 4700,13788C4700,13817 4696,13839 4692,13836C4687,13833 4666,13802 4645,13766C4624,13731 4593,13687 4575,13670C4535,13631 4525,13635 4450,13717C4348,13829 4290,13947 4290,14045C4290,14147 4362,14294 4451,14375C4534,14452 4649,14511 4750,14530C4817,14543 4936,14532 5012,14505ZM7164,13678C7198,13530 7240,13416 7280,13364C7357,13263 7371,13240 7358,13235C7351,13232 7300,13214 7245,13194C7112,13146 6709,13010 6699,13010C6695,13010 6675,13034 6654,13063C6633,13091 6603,13130 6586,13148C6556,13180 6555,13185 6552,13281C6544,13497 6621,13648 6780,13729C6872,13776 6955,13795 7090,13799L7136,13800L7164,13678ZM3565,13705C3626,13675 3718,13619 3770,13581C4069,13361 4308,13202 4440,13135C4479,13115 4501,13110 4524,13114C4541,13118 4627,13156 4715,13200C4912,13298 5080,13355 5232,13374C5325,13386 5447,13394 5483,13391C5487,13390 5466,13359 5436,13322C5354,13221 5335,13173 5336,13070C5338,12890 5442,12718 5593,12650C5644,12626 5769,12623 5846,12644C5967,12676 6071,12759 6120,12861C6158,12942 6166,13013 6150,13128C6143,13179 6140,13223 6143,13226C6146,13229 6172,13219 6202,13204C6313,13148 6495,13014 6620,12895C6666,12851 6697,12827 6687,12843C6678,12858 6663,12881 6654,12895C6641,12915 6640,12921 6651,12924C6659,12927 6708,12940 6760,12955C6812,12969 6987,13026 7147,13080C7308,13134 7442,13174 7445,13169C7449,13164 7421,13067 7385,12953C7226,12457 7016,11955 6938,11884C6908,11856 6873,11839 6720,11775C6518,11692 6440,11629 6325,11455C6193,11257 6113,11052 6041,10730C5975,10435 5942,10362 5862,10340C5806,10325 5634,10327 5602,10344C5567,10362 5455,10479 5397,10558C5344,10631 5340,10642 5305,10840C5239,11211 5203,11347 5130,11490C4971,11804 4683,12000 4185,12131C3898,12206 3854,12243 3782,12470C3766,12522 3716,12660 3672,12775C3587,12999 3450,13404 3400,13584C3370,13692 3363,13750 3377,13764C3392,13779 3458,13758 3565,13705ZM11067,13701C11203,13675 11374,13617 11445,13575C11639,13458 11838,13152 11895,12881C11929,12717 11923,12506 11879,12331C11856,12237 11783,12089 11733,12033L11695,11990L11585,12035C11286,12155 10978,12148 10695,12015C10461,11906 10315,11708 10260,11428C10254,11396 10245,11370 10241,11370C10237,11370 10195,11393 10149,11422C9974,11529 9756,11622 9600,11656C9520,11673 9136,11675 8974,11659C8648,11628 8436,11543 8250,11372C8206,11331 8171,11295 8174,11293C8177,11290 8203,11309 8232,11335C8456,11538 8764,11618 9270,11607C9568,11600 9681,11576 9871,11479C9983,11421 10195,11284 10229,11247C10245,11229 10264,11180 10287,11093C10338,10898 10382,10814 10488,10706C10560,10632 10607,10605 10705,10580C10833,10547 10995,10557 11121,10606C11210,10641 11325,10716 11404,10794C11449,10837 11463,10854 11435,10831C11342,10753 11236,10687 11155,10654C10825,10520 10556,10607 10415,10895C10332,11063 10301,11275 10334,11440C10392,11726 10575,11914 10885,12006C10963,12029 10994,12033 11115,12034C11295,12035 11439,12005 11586,11935C11825,11821 12064,11364 12036,11071C11997,10651 11644,10254 11160,10085C11028,10039 10931,10023 10745,10014C10427,10000 10164,10046 9785,10182C9377,10328 8761,10516 8605,10541C8470,10564 8068,10559 7874,10532C7785,10520 7700,10510 7685,10510C7658,10510 7657,10511 7664,10558C7684,10698 7691,10773 7700,10957C7711,11177 7715,11194 7775,11268C7814,11316 7817,11331 7794,11354C7783,11365 7759,11370 7711,11370L7644,11370L7620,11423C7607,11451 7570,11531 7537,11600C7448,11788 7304,12101 7264,12194L7228,12277L7263,12366C7283,12415 7354,12622 7422,12826L7544,13197L7610,13219C7846,13298 8087,13374 8155,13391C8344,13440 8535,13457 8697,13441C8843,13426 8912,13404 9036,13331C9201,13235 9311,13198 9475,13185C9581,13176 9738,13194 9827,13224C9866,13237 9901,13246 9904,13243C9906,13240 9906,13174 9903,13095C9899,13003 9902,12918 9910,12856C9917,12803 9920,12757 9917,12753C9913,12750 9840,12762 9753,12781C9603,12812 9583,12814 9341,12818C9063,12822 8889,12810 8801,12780C8740,12760 8628,12700 8584,12665C8547,12636 8561,12619 8598,12647C8646,12683 8744,12728 8809,12745C8948,12781 9285,12781 9477,12745C9608,12721 9839,12661 9890,12639C9947,12613 9962,12600 10028,12510C10059,12469 10107,12414 10134,12387C10199,12325 10340,12255 10435,12239C10530,12223 10722,12233 10830,12261C10979,12298 11157,12406 11282,12534C11358,12612 11357,12627 11280,12558C11119,12416 10987,12339 10835,12298C10737,12272 10517,12267 10430,12289C10227,12339 10063,12508 10005,12725C9967,12870 9967,13145 10005,13237C10038,13316 10221,13519 10309,13574C10395,13629 10557,13677 10743,13704C10874,13724 10955,13723 11067,13701ZM5857,13320C6049,13238 6075,13203 6075,13040C6074,12962 6070,12936 6051,12896C5989,12764 5823,12679 5685,12707C5570,12731 5504,12784 5451,12892C5371,13053 5412,13227 5547,13311C5645,13372 5729,13374 5857,13320ZM12462,13084C13061,12738 13535,12407 13950,12047C14244,11791 14696,11300 14793,11129C14834,11057 14876,11068 14920,11163C14945,11215 15007,11421 15050,11590C15071,11669 15084,11609 15115,11290C15132,11113 15143,11070 15170,11070C15194,11070 15215,11102 15273,11220C15340,11358 15413,11477 15526,11633C15654,11808 15813,12009 15823,12010C15828,12010 15828,12000 15825,11988C15816,11955 15579,11362 15502,11180C15467,11095 15413,10968 15384,10897C15354,10827 15330,10766 15330,10762C15330,10757 15428,10730 15548,10701C15667,10671 15769,10643 15775,10638C15791,10623 15762,10612 15660,10595C15306,10535 15223,10510 15182,10453C15144,10399 15131,10330 15080,9912C15068,9816 15055,9729 15051,9717L15043,9696L15032,9717C15026,9728 15016,9800 15010,9876C14976,10336 14976,10334 14936,10338C14899,10343 14834,10276 14720,10115C14596,9939 14456,9780 14427,9780C14383,9780 14542,10189 14679,10431C14724,10510 14760,10579 14760,10585C14760,10600 14641,10669 14453,10765C14248,10869 14248,10878 14450,10830C14596,10795 14716,10782 14747,10799C14795,10824 14781,10903 14714,10996C14616,11131 14309,11419 14015,11651C13788,11831 12949,12463 12831,12544C12782,12577 12775,12579 12756,12567C12725,12546 12724,12469 12754,12235C12818,11738 12836,11515 12851,11040C12861,10710 12859,10527 12839,10055C12801,9124 12689,8290 12538,7820C12499,7697 12433,7529 12419,7515C12397,7494 12278,7661 12000,8108C11920,8236 11805,8417 11743,8511L11632,8682L11646,8729C11663,8785 11721,8892 11736,8897C11742,8899 11785,8850 11830,8788C12045,8497 12121,8399 12190,8328C12282,8232 12303,8228 12324,8299C12363,8432 12395,8661 12434,9090C12580,10682 12575,11278 12406,12893C12386,13085 12385,13120 12396,13120C12398,13120 12427,13104 12462,13084ZM3557,12818C3588,12782 3640,12657 3705,12460C3786,12214 3824,12171 4033,12086C4067,12072 4070,12068 4070,12032C4070,12011 4061,11947 4051,11889C4041,11832 4029,11741 4025,11688C4021,11634 4014,11590 4009,11590C4004,11590 3906,11642 3792,11706C3482,11879 3307,11960 3244,11960C3231,11960 3216,11951 3210,11940C3189,11901 3224,11847 3384,11671C3467,11578 3584,11419 3759,11162C3940,10895 4023,10789 4161,10650C4415,10395 4479,10311 4466,10248C4450,10166 4388,10079 4207,9887L4096,9768L3985,9774C3657,9793 3547,9816 3386,9896C3157,10011 3019,10110 2840,10290C2665,10464 2587,10586 2526,10779C2482,10918 2467,11029 2467,11205C2468,11431 2506,11639 2590,11870C2678,12110 2892,12360 3260,12651C3369,12737 3515,12840 3529,12840C3533,12840 3546,12830 3557,12818ZM7214,12124C7218,12110 7275,11980 7342,11837C7525,11440 7570,11338 7565,11330C7557,11317 7406,11262 7260,11218C7186,11196 7076,11163 7016,11144C6956,11125 6903,11110 6898,11110C6883,11110 6889,11141 6925,11253C6967,11381 6979,11463 6980,11620C6981,11767 6990,11806 7049,11904C7076,11949 7110,12010 7125,12040C7157,12105 7188,12150 7200,12150C7204,12150 7211,12138 7214,12124ZM4300,12020C4347,12009 4400,11995 4418,11989L4450,11978L4450,11806C4450,11550 4475,11432 4557,11297C4576,11265 4590,11237 4587,11234C4582,11228 4363,11360 4242,11442C4195,11474 4158,11508 4138,11538L4108,11585L4114,11720C4119,11847 4134,11949 4159,12013C4172,12046 4186,12047 4300,12020ZM4671,11865C4725,11834 4772,11805 4776,11799C4779,11793 4757,11763 4727,11731C4642,11642 4627,11605 4622,11477C4619,11402 4614,11370 4606,11373C4589,11379 4552,11479 4540,11554C4528,11629 4525,11875 4535,11903C4546,11930 4567,11924 4671,11865ZM3588,11729C3959,11522 4489,11201 4960,10898C5213,10736 5239,10713 5266,10635C5305,10519 5463,10332 5565,10280C5610,10258 5627,10255 5730,10255C5836,10255 5850,10257 5902,10283C6001,10331 6053,10408 6080,10542C6101,10647 6103,10649 6438,10817C6737,10967 6745,10970 7063,11074C7567,11239 7635,11259 7639,11248C7649,11220 7207,10803 6765,10426C6525,10220 6442,10140 6417,10088C6388,10026 6377,9943 6384,9820C6391,9685 6401,9638 6474,9413C6504,9321 6531,9227 6535,9205L6542,9165L6490,9215C6443,9261 6321,9408 6210,9554C6093,9708 5871,9939 5734,10050C5586,10169 5464,10171 5126,10058C4903,9984 4636,9871 4360,9734C4093,9602 4063,9589 4076,9613C4087,9631 4169,9726 4260,9825C4420,9999 4480,10076 4515,10152C4549,10224 4548,10292 4514,10355C4479,10422 4470,10433 4282,10629C4078,10841 4040,10890 3785,11265C3678,11423 3530,11616 3426,11734C3373,11794 3330,11846 3330,11851C3330,11864 3427,11818 3588,11729ZM6898,11695C6932,11596 6877,11305 6793,11137C6761,11072 6722,11047 6462,10919C6207,10795 6142,10765 6134,10772C6128,10778 6139,10853 6149,10867C6152,10873 6199,10882 6253,10888C6381,10902 6444,10931 6524,11013C6630,11121 6696,11279 6731,11505C6761,11694 6766,11709 6803,11726C6857,11749 6883,11741 6898,11695ZM4909,11636C4965,11576 4974,11554 4938,11564C4925,11568 4892,11573 4864,11577C4817,11582 4811,11580 4796,11558C4768,11516 4765,11449 4788,11397C4821,11323 4880,11299 4947,11334C4988,11355 5001,11373 5007,11420C5015,11476 5035,11470 5060,11404C5109,11272 5086,11219 4976,11212C4871,11205 4765,11264 4718,11354C4669,11449 4688,11576 4762,11649C4819,11707 4844,11704 4909,11636ZM6670,11622C6670,11504 6607,11264 6549,11163C6487,11056 6358,10970 6253,10968C6202,10967 6187,10978 6192,11011C6195,11034 6199,11035 6275,11035C6331,11036 6366,11041 6392,11054C6443,11079 6507,11150 6537,11217C6561,11270 6562,11279 6561,11446L6559,11620L6592,11640C6610,11651 6635,11660 6648,11660C6667,11660 6670,11655 6670,11622ZM6485,11402C6485,11290 6472,11239 6428,11178C6381,11111 6240,11083 6240,11140C6240,11167 6263,11180 6320,11187C6392,11195 6425,11225 6441,11296C6452,11343 6451,11359 6437,11402C6421,11452 6425,11485 6452,11518C6475,11545 6485,11510 6485,11402ZM5175,11134C5179,11103 5179,11076 5176,11073C5169,11066 5037,11088 5001,11102C4971,11113 4975,11117 5063,11156C5164,11201 5166,11201 5175,11134ZM7623,10908C7616,10813 7606,10704 7600,10665C7560,10406 7465,10177 7322,9997C7151,9782 6895,9650 6647,9650C6481,9650 6455,9679 6455,9865C6455,9971 6458,9990 6478,10028C6511,10090 6564,10145 6740,10299C6897,10436 7203,10708 7475,10953C7558,11027 7627,11086 7630,11085C7633,11083 7630,11004 7623,10908ZM5072,11009C5164,10986 5197,10972 5204,10954C5216,10924 5222,10840 5213,10840C5188,10840 4921,11016 4920,11033C4920,11042 4967,11035 5072,11009ZM8571,10463C8583,10451 8547,10375 8448,10204C8306,9960 8124,9679 8105,9673C8100,9672 8080,9690 8063,9713C8045,9736 7927,9861 7800,9990C7540,10255 7553,10230 7608,10340C7628,10380 7645,10400 7671,10413C7707,10430 7838,10453 8005,10470C8122,10481 8558,10476 8571,10463ZM8859,10408C8921,10384 8933,10373 9220,10069C9327,9956 9420,9863 9425,9863C9431,9862 9453,9917 9475,9984C9523,10128 9549,10176 9576,10172C9614,10165 9846,10078 9878,10058C9915,10035 9918,10018 9894,9926C9864,9808 9739,9413 9649,9150C9513,8753 9419,8477 9413,8458C9406,8433 9394,8436 9385,8463C9382,8475 9375,8640 9370,8830C9357,9305 9365,9276 9162,9620C9099,9727 8995,9915 8932,10038C8869,10160 8809,10265 8798,10271C8773,10285 8755,10270 8726,10211C8701,10161 8599,9859 8551,9690C8534,9632 8500,9518 8475,9435C8411,9224 8394,9112 8408,8985C8417,8906 8467,8624 8526,8328C8529,8312 8528,8300 8523,8300C8512,8300 8474,8360 8310,8630C8152,8892 8077,9005 7989,9115C7899,9229 7866,9265 7573,9560C7428,9706 7308,9828 7305,9831C7302,9835 7341,9893 7392,9961C7444,10029 7493,10096 7502,10108C7514,10126 7524,10130 7540,10125C7566,10117 7811,9873 7943,9725C7992,9670 8048,9599 8067,9568C8087,9536 8106,9512 8110,9515C8114,9517 8142,9559 8172,9607C8258,9745 8437,10034 8510,10155C8547,10216 8603,10305 8635,10353L8693,10442L8749,10435C8780,10431 8829,10419 8859,10408ZM9314,10262C9390,10237 9454,10210 9457,10203C9464,10186 9413,10023 9399,10014C9386,10006 9293,10096 9201,10205C9095,10332 9100,10324 9140,10315C9159,10312 9237,10288 9314,10262ZM11573,10103C11619,9996 11647,9884 11676,9690C11697,9545 11706,9155 11691,9065C11678,8991 11638,8890 11621,8890C11611,8890 11598,8924 11549,9080C11505,9219 11372,9481 11229,9710C11060,9982 11066,9969 11082,9975C11089,9977 11118,9987 11145,9996C11173,10005 11267,10045 11355,10086C11443,10126 11522,10160 11531,10160C11541,10160 11557,10139 11573,10103ZM8835,10048C8897,9929 9051,9648 9076,9610C9088,9591 9138,9509 9188,9429L9278,9284L9289,8964C9310,8389 9322,8270 9363,8248C9407,8225 9419,8251 9635,8867C9780,9278 9867,9543 9940,9799C9972,9911 10004,10006 10010,10010C10017,10014 10054,10009 10094,9999C10240,9962 10382,9948 10685,9940C10850,9936 10986,9932 10987,9931C10996,9927 11228,9565 11284,9468C11360,9336 11445,9153 11483,9040C11508,8965 11535,8841 11527,8834C11525,8832 11474,8876 11414,8931C11108,9217 10869,9358 10798,9293C10768,9266 10777,9237 10852,9123C10949,8975 11016,8847 11119,8607C11167,8495 11223,8374 11243,8337C11295,8244 11387,8124 11486,8018C11605,7891 11605,7891 11605,7735C11605,7610 11604,7600 11563,7475C11512,7316 11473,7166 11455,7052C11439,6955 11424,6935 11375,6944C11285,6961 11150,7055 10830,7324C10586,7529 10528,7586 10495,7651C10436,7766 10399,8008 10355,8570C10305,9203 10283,9320 10212,9320C10197,9320 10180,9316 10173,9312C10124,9281 10085,9043 10015,8350C9978,7985 9934,7654 9905,7517C9891,7453 9880,7385 9880,7367C9880,7279 10024,7147 10347,6937C10696,6710 11391,6324 11538,6276C11604,6254 11649,6261 11695,6301C11734,6336 11756,6387 11770,6485C11776,6524 11785,6559 11789,6563C11794,6568 11806,6550 11816,6523C11832,6483 11835,6448 11834,6310C11834,6133 11821,6038 11793,6007C11763,5975 11698,5991 11462,6090C11123,6233 10871,6331 10813,6343C10760,6354 10729,6348 10726,6325C10724,6308 10845,6225 11083,6079C11471,5841 11557,5779 11875,5516C11958,5447 12049,5390 12075,5390C12098,5390 12122,5412 12134,5445C12138,5456 12146,5582 12151,5724C12156,5867 12162,5986 12165,5988C12167,5991 12200,5966 12237,5933C12347,5837 12449,5757 12540,5695C12646,5622 12677,5594 12700,5550C12731,5489 12756,5395 12845,4995C12985,4366 13035,4173 13135,3874C13212,3644 13342,3355 13481,3109C13666,2782 13710,2680 13710,2586C13710,2517 13674,2443 13619,2398C13558,2348 13400,2250 13381,2250C13372,2250 13342,2284 13313,2328C13203,2493 13070,2589 12903,2625C12764,2655 12734,2668 12664,2732C12578,2810 12520,2846 12445,2869C12307,2912 12192,2905 12039,2845C11936,2804 11926,2804 11840,2831C11798,2844 11762,2849 11738,2846C11717,2842 11700,2844 11700,2849C11700,2854 11729,2901 11765,2953C11894,3143 11938,3273 11926,3435C11904,3727 11752,4111 11543,4402C11367,4647 11055,4912 10360,5405C9890,5738 9764,5870 9657,6141C9623,6225 9592,6353 9541,6606C9475,6934 9436,7031 9376,7016C9337,7006 9314,6960 9284,6833C9270,6771 9254,6718 9250,6715C9236,6706 9195,6851 9140,7105C9111,7237 9083,7356 9076,7370C9044,7439 9005,7368 8984,7201C8976,7135 8966,7071 8962,7059C8954,7040 8951,7041 8919,7082C8899,7105 8821,7212 8745,7318C8670,7423 8606,7510 8604,7510C8595,7510 8633,7427 8718,7257C8776,7143 8809,7065 8804,7060C8799,7055 8726,7037 8642,7020C8493,6991 8309,6936 8202,6889C8129,6857 8117,6866 8108,6962C8077,7300 7689,8422 7546,8586C7508,8630 7484,8625 7478,8572C7468,8492 7488,8331 7570,7815C7655,7283 7711,6911 7725,6776L7738,6647L7667,6541C7628,6483 7568,6398 7534,6352C7457,6250 7293,6060 7281,6060C7242,6060 6983,6480 6912,6657L6885,6725L6886,6990C6887,7337 6922,7703 6991,8090C7047,8406 7055,8467 7041,8484C7002,8530 7010,8545 6669,7750C6572,7522 6428,7188 6351,7007C6273,6827 6210,6676 6210,6671C6210,6656 6409,6260 6492,6110C6737,5669 7004,5271 7180,5087C7284,4977 7333,4955 7366,5005C7375,5018 7403,5076 7429,5132C7482,5250 7496,5277 7503,5270C7506,5267 7505,5245 7500,5220C7496,5195 7480,5072 7466,4945C7451,4819 7435,4695 7429,4671C7416,4614 7349,4510 7272,4429C7222,4376 7210,4367 7197,4378C7177,4395 7099,4525 6990,4725C6754,5157 6736,5186 6694,5196C6663,5204 6649,5188 6655,5150C6690,4935 6751,4651 6787,4536C6819,4435 6866,4329 6975,4109C7076,3906 7122,3827 7162,3784L7192,3752L7305,3869C7367,3933 7421,3982 7425,3978C7431,3972 7397,3918 7169,3565C7074,3418 6950,3180 6950,3145C6950,3132 6934,3092 6915,3055C6895,3018 6869,2956 6855,2917C6803,2759 6741,2350 6695,1850C6680,1679 6672,1346 6681,1225C6686,1154 6693,1058 6696,1014C6704,906 6686,851 6610,756C6542,672 6420,554 6383,537C6362,528 6356,529 6344,545C6336,555 6330,571 6330,580C6330,625 6284,766 6241,855C6178,983 6060,1115 5970,1157C5926,1178 5904,1197 5879,1234C5860,1260 5824,1301 5799,1324C5745,1373 5540,1481 5460,1504C5315,1544 4967,1558 4840,1527C4722,1498 4730,1498 4730,1534C4730,1584 4775,1642 4956,1826C5191,2066 5221,2108 5315,2340C5377,2493 5411,2598 5463,2806C5522,3038 5543,3150 5574,3400C5612,3707 5620,3828 5630,4245C5635,4454 5644,4657 5650,4695C5665,4797 5707,4950 5753,5070C5855,5341 5886,5511 5876,5760C5866,6043 5818,6410 5749,6735C5691,7009 5688,7263 5740,7515C5773,7670 5781,8140 5751,8140C5747,8140 5740,8063 5736,7969C5728,7765 5721,7708 5674,7496C5654,7407 5636,7292 5633,7239C5627,7134 5645,6793 5662,6692C5667,6657 5670,6627 5668,6625C5657,6613 5294,6810 5157,6902C4563,7301 4180,7793 4072,8300C3998,8642 4028,8999 4160,9355C4240,9570 4257,9593 4397,9667C4514,9729 4516,9729 4524,9678C4527,9654 4541,9487 4555,9305C4600,8715 4646,8443 4706,8403C4739,8382 4766,8395 4814,8453C4902,8561 4975,8779 5086,9267C5101,9334 5116,9394 5121,9401C5126,9410 5163,9408 5282,9392C5366,9380 5491,9366 5560,9360C5629,9354 5694,9346 5704,9343C5722,9338 5723,9329 5716,9156C5692,8471 5695,8418 5753,8412C5775,8409 5789,8417 5815,8444C5875,8508 6007,8787 6125,9100C6201,9302 6230,9370 6240,9370C6244,9370 6290,9319 6343,9258C6440,9143 6506,9084 6547,9074C6576,9066 6618,9093 6626,9124C6632,9149 6580,9360 6535,9489C6518,9541 6513,9566 6521,9571C6527,9574 6593,9581 6668,9584C6882,9595 6980,9622 7128,9712C7186,9747 7218,9760 7233,9756C7271,9747 7703,9324 7885,9120C7955,9041 8118,8796 8310,8480C8389,8351 8471,8221 8493,8192C8538,8132 8575,8116 8598,8146C8621,8176 8607,8329 8561,8551C8507,8810 8480,8981 8480,9056C8480,9130 8502,9252 8536,9375C8588,9558 8755,10091 8767,10113C8779,10134 8801,10113 8835,10048ZM5615,10036C5643,10023 5689,9990 5718,9964L5772,9915L5756,9693C5747,9571 5737,9464 5734,9455C5725,9432 5687,9427 5581,9434C5449,9443 5161,9485 5149,9497C5143,9503 5146,9557 5160,9650C5209,9985 5230,10028 5358,10050C5384,10054 5441,10058 5485,10059C5550,10060 5574,10055 5615,10036ZM5120,9933C5120,9857 5020,9324 4954,9045C4870,8692 4754,8424 4726,8518C4702,8598 4661,8932 4635,9255C4618,9475 4600,9774 4605,9778C4607,9780 4648,9797 4697,9815C4745,9834 4855,9876 4940,9909C5025,9942 5101,9969 5108,9970C5115,9970 5120,9956 5120,9933ZM5981,9713C6046,9646 6134,9536 6155,9497C6172,9464 6172,9463 6135,9354C6042,9082 5864,8660 5807,8575L5781,8537L5774,8564C5760,8620 5826,9751 5846,9804C5851,9817 5858,9815 5893,9791C5916,9775 5956,9740 5981,9713ZM3805,9709C3909,9703 4001,9695 4008,9691C4017,9686 4012,9671 3990,9636C3953,9579 3943,9536 3960,9515C3974,9498 4029,9495 4080,9510C4099,9515 4118,9516 4122,9512C4127,9507 4105,9428 4074,9336C3870,8721 3924,8200 4247,7677C4392,7443 4672,7169 5070,6870C5144,6814 5211,6765 5219,6760C5230,6754 5219,6736 5167,6679C5030,6526 4765,6166 4621,5936C4407,5594 4269,5270 4209,4967C4203,4938 4190,4846 4180,4761C4170,4677 4158,4605 4153,4601C3844,4341 3560,4035 3407,3799C3235,3531 3104,3231 3035,2945C2993,2772 2983,2670 2970,2270C2956,1855 2948,1775 2918,1743C2885,1708 2748,1643 2658,1621C2493,1579 2110,1534 2110,1556C2110,1561 2117,1599 2126,1640C2144,1726 2140,1892 2114,2037C2087,2193 2010,2314 1904,2366C1841,2397 1810,2430 1768,2514C1676,2698 1622,2761 1515,2811C1457,2839 1399,2850 1238,2866C1206,2869 1171,2879 1159,2889L1138,2906L1166,2939C1181,2957 1302,3065 1434,3179C1820,3510 1851,3546 1989,3818C2081,4002 2158,4197 2242,4464C2280,4585 2323,4705 2337,4729C2351,4753 2400,4813 2446,4863C2560,4984 2624,5084 2734,5312C2837,5525 2900,5683 2908,5747C2912,5785 2910,5790 2887,5795C2839,5807 2737,5741 2532,5567C2469,5513 2412,5470 2404,5470C2385,5470 2386,5515 2409,5625C2445,5794 2508,5938 2670,6220C2868,6566 2966,6825 3025,7160C3066,7394 3080,7584 3090,8022C3099,8449 3104,8505 3154,8753C3216,9059 3341,9396 3452,9558C3507,9638 3581,9720 3598,9720C3607,9720 3700,9715 3805,9709ZM11016,9152C11173,9045 11292,8947 11390,8842C11549,8673 11541,8696 11565,8350C11573,8232 11583,8114 11586,8088C11590,8058 11589,8040 11582,8040C11565,8040 11489,8122 11415,8221C11342,8319 11246,8499 11169,8685C11108,8834 11011,9024 10947,9122C10916,9170 10890,9212 10890,9215C10890,9231 10927,9212 11016,9152ZM10235,9065C10243,9010 10259,8850 10270,8710C10281,8570 10297,8372 10306,8270C10333,7942 10376,7706 10427,7607C10474,7514 11029,7037 11218,6926C11342,6853 11405,6844 11464,6891C11505,6923 11526,6976 11539,7075C11558,7227 11624,7439 11646,7418C11649,7415 11655,7356 11660,7288C11665,7221 11678,7091 11690,7001C11714,6804 11715,6674 11694,6531C11675,6401 11657,6359 11613,6346C11584,6338 11564,6345 11423,6414C11130,6557 10596,6861 10345,7029C10207,7121 10084,7215 10016,7281C9940,7356 9940,7354 9974,7470C10007,7583 10054,7956 10120,8620C10177,9193 10202,9289 10235,9065ZM7660,8187C7851,7706 8022,7119 8046,6863C8054,6778 8050,6764 7930,6475C7693,5905 7329,5103 7297,5083C7283,5074 7192,5174 7086,5314C6875,5595 6658,5956 6419,6424L6292,6672L6310,6714C6320,6736 6399,6922 6485,7125C6740,7724 6883,8045 6903,8057C6910,8061 6911,8057 6906,8044C6893,8009 6862,7806 6846,7650C6820,7389 6808,7185 6806,6965C6805,6760 6806,6753 6833,6675C6929,6393 7199,5970 7281,5970C7338,5970 7668,6372 7771,6566L7802,6625L7797,6755C7792,6881 7739,7255 7655,7760C7598,8103 7573,8294 7579,8345C7582,8368 7611,8312 7660,8187ZM8870,6954C8911,6945 8925,6913 8938,6794C8956,6633 9033,6439 9141,6278C9163,6247 9223,6176 9275,6120C9374,6013 9408,5958 9437,5850C9462,5759 9462,5416 9436,5245C9407,5044 9352,4760 9305,4560C9203,4134 9173,3678 9230,3435C9242,3381 9248,3331 9245,3311C9231,3232 9135,3142 8996,3075C8908,3033 8721,2977 8683,2982L8655,2985L8649,3120C8645,3194 8635,3287 8626,3325C8588,3482 8485,3637 8380,3693C8351,3708 8323,3735 8303,3766C8209,3908 8142,3966 8036,3994C8004,4002 7959,4021 7937,4036C7914,4052 7871,4069 7841,4075L7787,4086L7879,4179C8039,4341 8093,4429 8110,4561C8115,4602 8120,4833 8120,5074L8120,5513L8069,5609C7993,5751 7937,5831 7868,5895L7807,5952L7825,6008C7835,6040 7867,6121 7897,6190C8053,6545 8130,6737 8130,6770C8130,6797 8162,6818 8241,6845C8483,6928 8759,6976 8870,6954ZM12009,6193L12080,6096L12079,5891C12078,5667 12069,5496 12058,5485C12050,5477 12030,5492 11827,5658C11656,5797 11587,5848 11391,5980C11306,6037 11241,6085 11246,6087C11252,6089 11350,6052 11464,6004C11690,5911 11754,5896 11807,5924C11867,5954 11903,6048 11916,6205C11920,6252 11926,6290 11930,6290C11934,6290 11970,6246 12009,6193ZM7837,5818C7924,5726 8011,5570 8030,5470C8046,5384 8063,4963 8057,4780C8053,4638 8049,4604 8026,4534C7978,4383 7872,4253 7715,4151C7631,4096 7543,4054 7533,4064C7519,4077 7512,4188 7511,4390C7510,4634 7523,4834 7551,5025C7607,5405 7733,5860 7783,5860C7790,5860 7814,5841 7837,5818ZM2796,5638C2789,5599 2615,5245 2540,5115C2487,5025 2395,4900 2381,4900C2369,4900 2360,5020 2360,5175L2361,5315L2522,5455C2693,5604 2776,5670 2792,5670C2798,5670 2800,5657 2796,5638ZM6909,4708C7060,4428 7100,4361 7146,4313C7213,4242 7241,4252 7345,4385C7381,4432 7415,4470 7421,4470C7426,4470 7430,4402 7430,4304L7430,4139L7351,4042C7308,3989 7256,3929 7236,3910L7199,3875L7180,3900C7109,3993 6927,4356 6881,4496C6825,4668 6776,4900 6796,4900C6801,4900 6852,4813 6909,4708ZM7874,3994C7883,3991 7890,3984 7890,3980C7890,3976 7848,3943 7798,3906C7557,3736 7202,3373 7074,3168C7027,3091 7013,3112 7052,3203C7083,3276 7185,3446 7311,3637C7370,3726 7438,3831 7461,3870C7506,3947 7535,3968 7633,3995C7684,4010 7835,4009 7874,3994ZM8090,3885C8159,3850 8237,3759 8224,3727C8221,3719 8187,3695 8147,3674C8093,3645 8044,3605 7954,3515C7827,3389 7741,3274 7650,3110C7620,3058 7585,3003 7571,2987C7528,2940 7363,2905 7261,2921C7199,2931 7137,2969 7121,3009C7089,3084 7204,3246 7499,3541C7694,3735 7820,3841 7917,3891C7983,3925 8014,3924 8090,3885ZM8350,3619C8402,3588 8436,3553 8480,3485C8539,3394 8562,3297 8564,3127C8566,2939 8582,2951 8247,2900C8033,2868 7948,2850 7851,2818C7790,2798 7785,2798 7756,2814C7721,2833 7672,2893 7664,2927C7649,2985 7824,3268 7970,3423C8075,3534 8139,3583 8218,3616C8288,3645 8306,3645 8350,3619ZM12355,2815C12439,2794 12573,2726 12604,2689C12634,2654 12633,2642 12588,2535C12556,2458 12330,2014 12241,1853C12189,1758 12181,1748 12130,1721C11991,1648 11679,1575 11631,1604C11610,1617 11600,1688 11600,1825C11600,2030 11622,2112 11745,2363C11865,2610 11937,2703 12053,2762C12190,2831 12251,2841 12355,2815ZM1148,2789C1150,2778 1131,2765 1083,2745C847,2647 685,2527 488,2306C382,2186 303,2073 225,1928C163,1814 121,1764 96,1773C54,1790 108,1937 271,2250C421,2536 522,2632 782,2734C956,2802 1140,2830 1148,2789ZM1471,2750C1558,2705 1650,2592 1704,2463C1726,2409 1738,2350 1726,2350C1724,2350 1654,2332 1571,2310C1396,2264 1167,2179 1028,2108C913,2050 839,1979 734,1830C698,1778 656,1723 642,1707C613,1677 519,1643 436,1634C388,1629 380,1632 308,1675C254,1708 230,1728 230,1741C230,1772 333,1968 411,2086C465,2166 521,2232 624,2335C815,2525 956,2620 1153,2690C1198,2706 1262,2730 1295,2744C1369,2775 1418,2776 1471,2750ZM11822,2760C11843,2754 11862,2745 11865,2740C11868,2735 11849,2700 11822,2663C11756,2571 11703,2470 11631,2301C11555,2124 11531,2040 11523,1920C11516,1803 11508,1780 11477,1780C11446,1780 11374,1843 11349,1893C11323,1943 11321,2063 11344,2163C11372,2284 11501,2574 11571,2676C11626,2756 11721,2788 11822,2760ZM12793,2569C13021,2535 13151,2450 13265,2260L13315,2177L13200,2068C12970,1851 12760,1733 12537,1694C12377,1666 12270,1689 12285,1748C12291,1772 12685,2545 12703,2568C12714,2583 12706,2582 12793,2569ZM1921,2265C1959,2245 2011,2141 2035,2040C2045,1997 2054,1906 2057,1825C2061,1710 2058,1673 2043,1615C2025,1549 2023,1545 1990,1538C1925,1523 1406,1511 1185,1519L965,1526L870,1579C818,1608 764,1638 750,1645C736,1653 726,1664 727,1669C729,1675 749,1711 772,1751C890,1948 1021,2043 1328,2155C1617,2260 1847,2303 1921,2265ZM4970,1451C4957,1440 4901,1408 4846,1378C4679,1289 4584,1212 4496,1095C4402,971 4376,900 4325,630C4306,528 4280,392 4268,327C4243,194 4241,191 4158,187L4106,185L4097,245C4082,352 4095,564 4123,660C4221,1000 4424,1263 4681,1384C4768,1426 4911,1469 4960,1469L4995,1470L4970,1451ZM5410,1439C5553,1400 5734,1294 5793,1215C5811,1191 5811,1191 5783,1177C5768,1169 5719,1148 5674,1131C5497,1063 5307,905 5182,722C5103,606 5051,500 4999,342C4976,272 4948,205 4937,192C4894,146 4637,84 4441,73C4333,68 4320,69 4314,84C4303,111 4390,590 4446,815C4489,988 4588,1126 4742,1227C4820,1278 5102,1418 5175,1442C5243,1465 5321,1464 5410,1439ZM5937,1089C6054,1032 6191,826 6241,633C6267,529 6266,485 6236,455C6175,394 5815,257 5635,226C5499,202 5197,185 5120,196C5058,205 5055,206 5052,234C5045,292 5147,527 5246,682C5330,813 5460,929 5622,1018C5700,1062 5830,1109 5869,1110C5883,1110 5913,1101 5937,1089Z" style="fill:rgb(255,238,0);fill-rule:nonzero;stroke:rgb(255,238,0);stroke-width:20px;"/>
        <path d="M3483.03,12940.8C3485.82,12947.2 3484.48,12956.6 3480.36,12977.2C3471.49,13021.5 3446.76,13104 3394.92,13269C3300.87,13567.3 3281.03,13651.4 3279.01,13754.5L3277.01,13834.5C3276.87,13840 3278.99,13845.3 3282.86,13849.1C3286.74,13853 3292.03,13855.1 3297.51,13855L3376.51,13853L3376.66,13853C3530.93,13847.9 3633.61,13801 3881.86,13618.1L3881.92,13618.1C4100.67,13455.7 4182.49,13426.6 4300.94,13486.8L4300.98,13486.9C4357.85,13515.6 4399.29,13539.3 4423.31,13556.9C4428.49,13560.7 4433.7,13565.5 4437.09,13568.8C4427.23,13582.9 4398.24,13624 4369.66,13658.2L4369.63,13658.2C4246.84,13805.8 4200,13917.5 4200,14065C4200,14209.8 4234.89,14288.1 4357.78,14412.1C4523.76,14580.1 4718.88,14654.6 4911.65,14628.8L4911.75,14628.8C5052.24,14609.3 5182.66,14545.1 5321.08,14425.1C5360.55,14391 5386.19,14367.5 5404.9,14353.3C5411.29,14348.4 5416.69,14344.7 5421.55,14342.2C5425.21,14340.4 5428.07,14339.2 5431.06,14339.8C5436.38,14341 5441.27,14345.1 5447.9,14350.6C5457.6,14358.7 5469.27,14369.7 5484.95,14383.2L5485.01,14383.2C5599.01,14480.6 5704.72,14520 5855,14520C6006.69,14520 6122.99,14475.1 6225.84,14376.4C6397.39,14212.1 6436.62,14051.1 6368.42,13775.2C6328.1,13612 6326.73,13538.1 6367.05,13453.6C6367.1,13453.5 6367.15,13453.4 6367.2,13453.3C6385.39,13413.4 6421.61,13359.7 6442.38,13330.1C6444.83,13341.1 6447.42,13354 6449.22,13366C6449.23,13366 6449.24,13366.1 6449.25,13366.1C6478.2,13549.2 6516.19,13632.6 6607.19,13719.5L6607.24,13719.5C6704.64,13811.8 6831.44,13864.9 7044.64,13899.7C7076.4,13905.3 7117.72,13919.5 7119.96,13920.2C7120.05,13920.3 7120.14,13920.4 7120.23,13920.5C7120.73,13921.3 7125.31,13929.1 7128.44,13936C7135.64,13951.9 7143.92,13974.7 7150.84,13997.7C7199.7,14160.6 7339.1,14380.5 7471.43,14502.7L7471.45,14502.7C7757.5,14766.3 8100.66,14786.6 8543.03,14562.8L8543.05,14562.8C8597.46,14535.2 8647.02,14511.7 8669.24,14502.9C8670.07,14504 8670.93,14505.3 8671.72,14506.5C8682.3,14522.6 8697.31,14550.1 8711.97,14580.7C8711.99,14580.7 8712.02,14580.8 8712.04,14580.8C8737.36,14632.5 8779.92,14709.4 8807.28,14751C8866.4,14841.7 9017.19,14995.5 9106.85,15055.6C9215.85,15128.9 9393.04,15195.3 9542.78,15219.7C9542.85,15219.8 9542.92,15219.8 9542.99,15219.8C9636.53,15234 9893.71,15223.9 9994.45,15200.5C10260.4,15140.6 10460.3,15029 10653.1,14836.1C10894.2,14595.1 10971.6,14414.1 10991,14051.1L10991,14051C10995.9,13950.4 11002.8,13854.7 11004.8,13835.7C11005.7,13830.1 11006.2,13825.7 11008.7,13822C11011.1,13818.5 11015.5,13816.2 11022.4,13813.3C11045.3,13803.6 11087.8,13794.1 11169.4,13775.5C11370.2,13730.7 11488.4,13676.4 11614.8,13571.4C11614.8,13571.4 11614.8,13571.3 11614.9,13571.3C11774.8,13436.9 11945,13139.5 11983.7,12922.5C12019.2,12725.9 12011.9,12431.9 11969.3,12275.7C11969.3,12275.7 11969.3,12275.6 11969.2,12275.5C11943.7,12185.6 11895.8,12088.5 11828.4,11993.5L11787.8,11935.5L11835.9,11872.1C11950.3,11721.3 12037.4,11549.2 12096.1,11356.9C12120.7,11277 12124,11253.5 12124,11105C12124,10952.2 12121.7,10934.8 12095,10853.8C12032.1,10662 11936,10515.8 11746.4,10323.1C11701.5,10276 11656.1,10226.6 11641.9,10211.2C11647.5,10192.2 11662.1,10148.3 11678.9,10098.4L11679,10098.4C11764.6,9843.53 11786.9,9690.46 11797,9277.49L11797,9277.43L11802.9,9004.55L11881.3,8893.55C11881.4,8893.49 11881.4,8893.44 11881.4,8893.38C12040.7,8663.2 12181.5,8475.01 12241.6,8408.97C12244.5,8405.88 12247.4,8402.89 12250.1,8400.2C12252.4,8407.65 12255.2,8417.19 12257.3,8427.09C12275.3,8510.92 12298,8699.08 12330.1,9021.96C12363.1,9359.82 12402.1,9806.62 12422.1,10066.5C12439,10292.1 12439,11355.1 12422,11608.7C12398.1,11965.4 12379.1,12196.2 12349.1,12488C12303.4,12934.3 12287.9,13104.7 12290.9,13173.6C12292.6,13212.8 12301.6,13226.4 12311.2,13234.4C12317.4,13239.5 12323.3,13242.9 12330.4,13244.6C12337.1,13246.2 12345.1,13246.4 12356.1,13243.3C12376.9,13237.6 12415.1,13217.1 12499.8,13169.4C13036,12868.8 13538.1,12525 13923,12196.2C14264.4,11904 14579.5,11585.7 14725.1,11386.8C14768.6,11327.9 14808.8,11278.3 14834.9,11251.1C14837.3,11248.7 14839.8,11246.2 14842.2,11244C14842.6,11245 14843,11246 14843.4,11247.1C14866.7,11305.4 14915.8,11457.1 14954.8,11591.5C14979.8,11678.8 14995.8,11728.6 15009.3,11758.5C15019.9,11782 15029.7,11794.7 15040.2,11803.4C15054.1,11815 15068,11819.1 15081,11817.9C15093.8,11816.7 15106.5,11810.2 15118.1,11797.1C15133.8,11779.5 15148.4,11747.6 15160.3,11702.6C15176.8,11640.2 15189,11551 15195,11440.1C15198,11385.8 15202.9,11342.4 15206.4,11315.4C15215.7,11330.1 15227.1,11348.8 15237.5,11367.7C15320.9,11517.4 15445.3,11697.1 15650.2,11962.2L15650.2,11962.3C15773,12120 15864.9,12222.1 15909.1,12252.1C15927.9,12264.7 15942.8,12265.8 15951,12262.7C15960,12259.4 15966.2,12255 15970.8,12248.8C15975.1,12243 15978.2,12235.4 15979.1,12223.7C15979.9,12213.9 15979.1,12199.9 15976.9,12179.1C15967.8,12077.4 15885.9,11853.7 15638.5,11257.4C15544.2,11028.9 15498.7,10917.8 15480,10866.6C15475.9,10855.5 15472.9,10845.7 15471.3,10840.2C15476,10837.2 15485.1,10831.6 15494.8,10827.4C15532.2,10810.9 15600,10789 15705.5,10758.2C15817.3,10726.9 15918.5,10687.4 15971,10657.6C15989,10647.3 16001.8,10637.7 16008.6,10630C16014,10623.8 16016.7,10617.8 16017.6,10612.8C16017.7,10612.7 16017.7,10612.6 16017.7,10612.6C16019,10605.1 16018.4,10598.3 16015.5,10591.8C16013,10586.1 16008.6,10580.3 16000.5,10574.9C15980.9,10562 15924.9,10548.2 15782.7,10521.4C15449,10457.2 15325.4,10431.3 15298.7,10416.5C15298.5,10416.4 15298.3,10416.3 15298.1,10416.2C15271.9,10402.9 15255.5,10383.9 15241.9,10341.8C15226.3,10293.6 15214.6,10218.2 15199.9,10094.6C15167.7,9833.16 15140.4,9644.16 15129.3,9601.93C15129.3,9601.76 15129.3,9601.58 15129.2,9601.4C15110.9,9538.51 15059.9,9511.39 15020.6,9532.35L15020.6,9532.37C15000.9,9542.9 14981.6,9567.51 14965.7,9605.55C14933.2,9682.82 14910.4,9819.53 14904,9989.24L14904,9989.3C14900.5,10089 14897.4,10149.7 14892.8,10182.2C14868.9,10151.5 14819,10086.4 14750.4,9989.48C14643.6,9836.63 14493.1,9700.01 14397.7,9666.15L14397.7,9666.14C14365.6,9654.84 14351,9654.66 14340.2,9659.64C14334.5,9662.31 14329.3,9666.54 14323.7,9673.08C14323.7,9673.16 14323.6,9673.23 14323.5,9673.31C14314.6,9684.22 14308.8,9703.75 14310,9733.08C14312,9786.79 14335.3,9880.83 14381,10019.2C14444.5,10213.9 14465.7,10261.3 14578.7,10456C14600.7,10494.4 14622.8,10534.7 14633.8,10554.8C14607.8,10569.1 14543.2,10604 14479.1,10636.1C14344.7,10703.3 14232.1,10769.6 14170.1,10816.4C14140.3,10838.9 14121.6,10858.1 14115.1,10871.1C14108.2,10884.9 14105.5,10895.1 14105.6,10904.4C14105.8,10914.6 14109.2,10924.3 14117.4,10936.2C14130,10954.8 14156.1,10967.5 14199.3,10969.2C14252.2,10971.3 14334.5,10958.2 14449.8,10929.4C14550.4,10904.7 14620.3,10891.4 14660.1,10890.2C14664.9,10890.1 14669.9,10890.4 14674.2,10890.9C14669.2,10898.3 14661.6,10909.1 14653,10919.6C14572.7,11017.3 14352.9,11234.7 14161.8,11401.9C13990,11551.8 13217,12146 12848.3,12412.8L12831.7,12424.6C12831.8,12397.3 12844.3,12290.3 12858.8,12176.6C12931,11631.6 12943,11427.2 12943,10745C12943,10089.2 12923,9621.6 12874.9,9143L12874.9,9142.99C12792.6,8329.6 12676.6,7817.57 12494.9,7454.06C12494.9,7454 12494.8,7453.94 12494.8,7453.89L12450.8,7367.89C12447.9,7362.2 12442.4,7358.24 12436.1,7357.24C12429.8,7356.25 12423.4,7358.34 12418.9,7362.86L12364.9,7416.83C12259.4,7521.36 12151.5,7676.99 11843,8172.43C11766.5,8295.35 11697.6,8402.81 11660.1,8457.95C11660.6,8365.92 11677.6,8141.89 11709.9,7781.8C11772.7,7090.38 11796.4,6915 11855.2,6718.74C11930.3,6467.72 12064.9,6254.39 12289.2,6028.08C12392.2,5924.05 12493.3,5842.82 12629.1,5752.66C12744.9,5675.77 12770.3,5650.51 12793.5,5594.69C12813.6,5546.42 12896.2,5214.86 12965.5,4899.32C13097.1,4306.04 13185.8,3995.91 13311.4,3697.77C13311.5,3697.72 13311.5,3697.67 13311.5,3697.63C13344.4,3617.83 13462.1,3373.47 13573.8,3153.04L13573.9,3153.02C13715.2,2873.38 13781.4,2729.65 13789.6,2689.05C13806.5,2607.82 13798,2478.15 13773.7,2431.74C13749.8,2386.03 13654.8,2295.14 13581,2246.32C13581,2246.3 13581,2246.28 13580.9,2246.26C13506.7,2197.72 13403.7,2114.48 13308.6,2026.33L13308.5,2026.28C13170.2,1899.05 12978.3,1761.79 12844,1694.14C12843.9,1694.11 12843.9,1694.09 12843.8,1694.06C12771.7,1658.48 12608,1606.59 12513.5,1590.3C12432,1575.68 12368.2,1582.77 12277.3,1615.16C12277.2,1615.19 12277.1,1615.21 12277.1,1615.24L12218.5,1636.85L12088.1,1594.96C11886.2,1530.01 11756.2,1500 11677,1500C11620.2,1500 11584,1507.26 11560.2,1524.39C11535.1,1542.45 11521.7,1571.64 11515.2,1619.2C11512.6,1637.33 11511,1649.07 11505.4,1657.87C11501.9,1663.32 11496.5,1667.13 11488.5,1671.38C11477.4,1677.31 11462.1,1683.28 11441,1691.28C11348.9,1725.56 11295.9,1770.16 11264.8,1837.64L11264.8,1837.75C11196.1,1989.37 11235.5,2235.67 11382,2534.8L11382.1,2534.88C11439.4,2650.48 11503.6,2752.06 11683.6,3011.4L11683.6,3011.44C11728.6,3076.06 11775.8,3157.25 11793.4,3202.29C11793.4,3202.39 11793.5,3202.5 11793.5,3202.6C11822.3,3272.79 11824,3288.23 11825,3390.09C11825,3517.92 11807.2,3616.26 11756,3769.68L11756,3769.71C11654,4077.72 11476.8,4366.94 11256.9,4585.82C11111.3,4730.41 10863.9,4922.76 10363.4,5281.74C9850.48,5648.22 9716.96,5780.24 9605.9,6016.49L9605.86,6016.58C9534.2,6171 9504.79,6271.9 9455.33,6541.37C9424.65,6707.31 9405.06,6804.22 9391,6853.22C9390.79,6853.96 9390.58,6854.69 9390.36,6855.42C9382.76,6830.72 9371.31,6790.61 9359.5,6738.57C9359.49,6738.52 9359.48,6738.47 9359.47,6738.42C9344.09,6673.07 9327.95,6631.47 9309.34,6608.4C9293.27,6588.48 9275.03,6580 9254,6580C9226.7,6580 9201.71,6593.11 9178.37,6627.32C9149.93,6669.02 9122.3,6746.45 9089.65,6873.96C9077.17,6921.28 9067.2,6956.64 9058.89,6980.57C9055.85,6966.58 9052.42,6948.94 9049.81,6930.23L9049.8,6930.15C9028.38,6781.19 9050.06,6661.49 9126.98,6503.76C9184.24,6386.28 9242.59,6302.42 9364.02,6164.2L9364.05,6164.17C9472.26,6040.5 9514.07,5961.94 9534.68,5847.55L9534.69,5847.52C9551.86,5751.54 9554.06,5466.64 9539.91,5317.12C9539.91,5317.06 9539.9,5317 9539.89,5316.94C9522.83,5152.35 9472.68,4869.33 9419.49,4640.5C9328.98,4247.63 9295.03,3984.07 9301.99,3711.55C9305.93,3579.57 9311.72,3515.52 9328.46,3444.6C9356.1,3327.66 9352.45,3295.78 9304.71,3207.71C9245.86,3095.19 9111.5,3002.04 8911.25,2937C8811.58,2903.79 8547.07,2848.38 8352.91,2820.21C8165.82,2792.35 8008.58,2764.53 7913.04,2739.65C7912.99,2739.63 7912.94,2739.62 7912.89,2739.61C7841.21,2721.55 7795.48,2715.69 7753.28,2725.38C7711.16,2735.05 7672.1,2760.36 7614.36,2807.5C7590.74,2826.76 7575.23,2839.01 7558.64,2844.96C7533.72,2853.89 7507.1,2848.01 7449.24,2835.45C7449.19,2835.44 7449.13,2835.43 7449.07,2835.42C7292.78,2802.9 7177.61,2823.03 7086.4,2897.47C7036.88,2937.67 7008.09,2959.84 6989.96,2969.76C6986.83,2971.47 6982.95,2972.95 6980.96,2973.66C6980.27,2972.94 6979.4,2971.99 6978.79,2971.18C6975.61,2966.96 6972.4,2961.21 6969.05,2954.11C6957.28,2929.18 6944.83,2889.58 6932,2838.5C6880.69,2634.24 6825.45,2251.04 6798.95,1878.58L6798.95,1878.55C6784,1673.31 6780.98,1192.09 6793.93,1036.66C6793.94,1036.6 6793.94,1036.55 6793.94,1036.49C6802.37,923.757 6801.84,918.519 6773.41,852.177C6663.7,591.211 6379.34,368.568 5951.83,213.203L5951.81,213.194C5728.8,132.467 5621.86,114.145 5286.84,100.017C5048.14,90.113 4979.77,82.318 4852.99,49.633C4852.95,49.623 4852.91,49.613 4852.88,49.603C4667.09,2.904 4375.65,-30.902 4292.4,-15.674C4292.34,-15.663 4292.28,-15.652 4292.22,-15.64C4259.27,-9.303 4241.65,3.541 4226.44,31.423C4226.25,31.771 4226.07,32.125 4225.9,32.484C4218.83,47.524 4204.7,67.011 4195.86,75.858C4193.35,78.364 4191.17,80.502 4189.16,82.268C4188.18,83.131 4186.74,84.178 4186.02,84.69C4185.18,84.488 4183.36,84.029 4181.99,83.539C4177.39,81.896 4171.8,79.316 4164.56,75.923C4130.42,59.509 4104.54,57.617 4083.82,67.422C4063.96,76.822 4047.21,98.417 4033.26,136.001C3939.44,385.914 4004.84,782.835 4185.38,1052.12C4262.44,1167.7 4416.52,1327.9 4528.05,1411.04C4528.09,1411.07 4528.14,1411.1 4528.19,1411.14C4615.47,1475.03 4630,1487.11 4630,1533C4630,1569.17 4643.75,1610.48 4676.53,1661.57C4722.19,1732.76 4805.94,1825.08 4940.12,1954.4C5073.77,2083.13 5128.86,2160.72 5195.69,2313.03C5306.11,2564.73 5388.6,2862.22 5450.28,3226.34C5520.09,3639.19 5528.04,3728.95 5540.01,4275.43C5551.09,4797.51 5554.37,4817.64 5672.29,5129.06C5698.07,5197.48 5731.78,5302.57 5747.66,5362.09C5774.24,5464.47 5775,5477.34 5775,5694.93C5774,5843.09 5768.06,5978.33 5757.12,6077.78C5739.2,6235.1 5714.35,6428.24 5704.38,6479.11C5702.6,6487.99 5696.23,6492.98 5675.52,6505.51C5646.68,6522.97 5595.4,6548.43 5503.29,6593L5503.25,6593.02C5410.14,6638.33 5327.53,6675.6 5299.32,6684.61C5291.78,6677.01 5273.23,6657.95 5255.11,6636.5C5142.93,6503.61 4892.14,6169.05 4767.71,5980L4767.66,5979.94C4443.91,5492.33 4304.66,5120.99 4264.93,4635.37C4264.93,4635.32 4264.93,4635.27 4264.92,4635.21L4257.92,4557.21C4257.43,4551.75 4254.72,4546.73 4250.41,4543.32L4154.41,4467.32L4154.35,4467.27C4034.08,4372.84 3807.5,4144.16 3668.34,3978.16C3405.48,3663.72 3220.83,3311.66 3140.48,2965.48L3140.46,2965.39C3080.77,2713.68 3060,2476.89 3060,2067L3060,1768C3060,1762.7 3057.89,1757.61 3054.14,1753.86L2986.14,1685.86C2874.53,1574.25 2775.64,1534.23 2492,1491.23C2183.24,1444.11 1816.33,1421.01 1325.12,1418L985.118,1416C981.973,1415.98 978.868,1416.7 976.056,1418.11L856.056,1478.11C855.984,1478.15 855.912,1478.18 855.841,1478.22C791.565,1511.33 715.7,1543.69 686.469,1550.52C635.763,1562.22 615.252,1561.65 429.994,1544.1C358.86,1536.56 356.503,1537.06 271.268,1584.53C271.219,1584.56 271.169,1584.58 271.12,1584.61C227.865,1609.19 162.024,1641.64 122.661,1657.39C49.879,1685.53 9.549,1713.57 -7.415,1751.91C-24.254,1789.97 -18.688,1840.27 7.045,1916.38C46.364,2033.32 206.559,2347.88 297.268,2485.96C353.857,2572.38 391.067,2615.45 439.426,2654.55L439.506,2654.62C505.424,2707.35 663.464,2790.73 811.709,2848.63C856.615,2867.2 917.952,2897.32 948.157,2916.81L948.17,2916.81C1065.66,2992.48 1532.57,3381.84 1671.96,3519.24L1671.99,3519.27C1832.64,3676.95 1971.58,3965.97 2156.04,4516.35L2247.14,4788.68L2254.02,4945.88C2286.27,5679.51 2329.24,5857.72 2566.05,6235.62L2566.07,6235.64C2723.83,6486.68 2854.84,6808.14 2910.41,7079.02L2910.42,7079.06C2967.18,7352.92 2979.05,7484.39 2990.01,7945.47C3001.05,8416.56 3026.29,8659.62 3091.58,8923.79C3168.3,9235.71 3271.48,9477.89 3408.76,9668.67L3468.76,9752.19L3376.44,9795.93L3376.41,9795.94C2741.65,10097.6 2416.64,10512.5 2370.07,11076.4L2370.06,11076.4C2338.68,11467.2 2473.89,11976.4 2676.38,12228.5C2824.32,12413.7 3104.04,12668.3 3338.53,12832.4L3338.62,12832.4C3392.68,12869.9 3441.42,12905.8 3467.49,12927.1C3474.27,12932.6 3481.28,12939.1 3483.03,12940.8ZM9546,15200C9399,15176 9225,15111 9118,15039C9030,14980 8882,14829 8824,14740C8797,14699 8755,14623 8730,14572C8706,14522 8681,14480 8675,14480C8668,14480 8605,14509 8534,14545C8101,14764 7765,14746 7485,14488C7355,14368 7218,14152 7170,13992C7158,13952 7142,13913 7134,13906C7127,13898 7088,13887 7048,13880C6840,13846 6716,13795 6621,13705C6533,13621 6497,13540 6469,13363C6463,13323 6455,13290 6451,13290C6438,13290 6380,13377 6349,13445C6307,13533 6307,13610 6349,13780C6415,14047 6378,14203 6212,14362C6113,14457 6001,14500 5855,14500C5710,14500 5608,14462 5498,14368C5419,14300 5441,14295 5308,14410C5173,14527 5046,14590 4909,14609C4722,14634 4533,14561 4372,14398C4254,14279 4220,14204 4220,14065C4220,13922 4266,13814 4385,13671C4426,13622 4460,13576 4460,13568C4460,13553 4407,13518 4310,13469C4186,13406 4099,13432 3870,13602C3627,13781 3527,13828 3376,13833L3297,13835L3299,13755C3301,13653 3321,13570 3414,13275C3501,12998 3512,12952 3500,12930C3495,12921 3428,12870 3350,12816C3117,12653 2839,12400 2692,12216C2492,11967 2359,11464 2390,11078C2436,10521 2758,10112 3385,9814L3499,9760L3425,9657C3289,9468 3187,9228 3111,8919C3046,8656 3021,8414 3010,7945C2999,7482 2987,7350 2930,7075C2874,6802 2742,6478 2583,6225C2348,5850 2306,5673 2274,4945L2267,4785L2175,4510C1989,3955 1848,3664 1686,3505C1546,3367 1077,2976 959,2900C928,2880 865,2849 819,2830C673,2773 517,2691 452,2639C405,2601 369,2559 314,2475C224,2338 65,2026 26,1910C-21,1771 -2,1727 130,1676C170,1660 237,1627 281,1602C360,1558 362,1557 428,1564C618,1582 639,1582 691,1570C721,1563 799,1530 865,1496L985,1436L1325,1438C1815,1441 2181,1464 2489,1511C2766,1553 2863,1591 2972,1700L3040,1768L3040,2067C3040,2479 3061,2717 3121,2970C3202,3319 3388,3674 3653,3991C3793,4158 4021,4388 4142,4483L4238,4559L4245,4637C4285,5126 4425,5500 4751,5991C4907,6228 5261,6693 5294,6706C5301,6709 5399,6666 5512,6611C5698,6521 5719,6508 5724,6483C5734,6432 5759,6238 5777,6080C5788,5980 5794,5844 5795,5695C5795,5474 5794,5461 5767,5357C5751,5297 5717,5191 5691,5122C5574,4813 5571,4793 5560,4275C5548,3727 5540,3637 5470,3223C5408,2857 5325,2558 5214,2305C5146,2150 5090,2071 4954,1940C4733,1727 4650,1616 4650,1533C4650,1482 4637,1466 4540,1395C4430,1313 4278,1155 4202,1041C4025,777 3960,388 4052,143C4075,81 4102,68 4156,94C4188,109 4191,109 4210,90C4220,80 4236,58 4244,41C4256,19 4270,9 4296,4C4378,-11 4665,23 4848,69C4976,102 5045,110 5286,120C5618,134 5724,152 5945,232C6366,385 6647,603 6755,860C6782,923 6782,928 6774,1035C6761,1191 6764,1674 6779,1880C6817,2414 6914,2970 6974,2993C6988,2999 7014,2982 7099,2913C7186,2842 7296,2824 7445,2855C7551,2878 7562,2876 7627,2823C7736,2734 7773,2725 7908,2759C8004,2784 8162,2812 8350,2840C8543,2868 8806,2923 8905,2956C9099,3019 9230,3108 9287,3217C9332,3300 9335,3330 9309,3440C9292,3512 9286,3577 9282,3711C9275,3985 9309,4250 9400,4645C9453,4873 9503,5155 9520,5319C9534,5467 9532,5749 9515,5844C9495,5955 9454,6031 9349,6151C9226,6291 9167,6376 9109,6495C9030,6657 9008,6780 9030,6933C9049,7069 9061,7061 9109,6879C9162,6672 9200,6600 9254,6600C9292,6600 9316,6641 9340,6743C9367,6862 9379,6900 9390,6900C9405,6900 9426,6810 9475,6545C9524,6278 9553,6178 9624,6025C9734,5791 9867,5661 10375,5298C10877,4938 11125,4745 11271,4600C11493,4379 11672,4087 11775,3776C11827,3620 11845,3520 11845,3390C11844,3284 11842,3268 11812,3195C11794,3149 11746,3066 11700,3000C11521,2742 11457,2641 11400,2526C11257,2234 11216,1994 11283,1846C11312,1783 11362,1742 11448,1710C11522,1682 11527,1677 11535,1622C11546,1541 11575,1520 11677,1520C11755,1520 11883,1550 12082,1614L12219,1658L12284,1634C12371,1603 12432,1596 12510,1610C12603,1626 12764,1677 12835,1712C12968,1779 13158,1915 13295,2041C13391,2130 13495,2214 13570,2263C13641,2310 13733,2397 13756,2441C13779,2485 13786,2608 13770,2685C13762,2725 13696,2867 13556,3144C13444,3365 13326,3610 13293,3690C13167,3989 13078,4300 12946,4895C12877,5209 12795,5539 12775,5587C12753,5640 12728,5663 12618,5736C12481,5827 12379,5909 12275,6014C12048,6243 11912,6459 11836,6713C11777,6910 11753,7086 11690,7780C11646,8270 11631,8510 11646,8510C11652,8510 11748,8363 11860,8183C12167,7690 12274,7535 12379,7431L12433,7377L12477,7463C12658,7825 12773,8335 12855,9145C12903,9623 12923,10090 12923,10745C12923,11426 12911,11630 12839,12174C12823,12299 12810,12416 12812,12432L12815,12461L12860,12429C13229,12162 14003,11567 14175,11417C14415,11207 14700,10918 14700,10884C14700,10859 14616,10868 14445,10910C14257,10957 14159,10962 14134,10925C14123,10909 14123,10900 14133,10880C14152,10842 14298,10749 14488,10654C14582,10607 14660,10566 14660,10562C14660,10559 14631,10507 14596,10446C14484,10253 14463,10206 14400,10013C14336,9819 14316,9714 14339,9686C14350,9673 14357,9673 14391,9685C14484,9718 14630,9852 14734,10001C14846,10159 14892,10220 14900,10220C14912,10220 14918,10160 14924,9990C14933,9752 14974,9580 15030,9550C15060,9534 15096,9559 15110,9607C15121,9649 15148,9837 15180,10097C15210,10348 15228,10403 15289,10434C15316,10449 15441,10476 15779,10541C15975,10578 16002,10587 15998,10609C15993,10635 15857,10695 15700,10739C15522,10791 15450,10818 15450,10836C15450,10851 15485,10938 15620,11265C15866,11858 15948,12080 15957,12181C15962,12229 15960,12238 15944,12244C15920,12253 15817,12144 15666,11950C15462,11686 15338,11507 15255,11358C15228,11309 15203,11270 15199,11270C15188,11270 15182,11315 15175,11439C15161,11699 15113,11838 15053,11788C15031,11770 15015,11729 14974,11586C14925,11417 14860,11221 14850,11215C14841,11209 14779,11280 14709,11375C14564,11573 14250,11890 13910,12181C13526,12509 13025,12852 12490,13152C12353,13229 12342,13234 12324,13219C12300,13199 12304,13125 12369,12490C12399,12198 12418,11967 12442,11610C12459,11356 12459,10291 12442,10065C12422,9805 12383,9358 12350,9020C12304,8557 12277,8370 12256,8370C12236,8370 12065,8593 11865,8882L11783,8998L11777,9277C11767,9687 11745,9839 11660,10092C11638,10157 11620,10212 11620,10216C11620,10219 11671,10273 11732,10337C11919,10527 12014,10671 12076,10860C12102,10939 12104,10956 12104,11105C12104,11250 12101,11273 12077,11351C12019,11541 11933,11711 11820,11860L11763,11935L11812,12005C11878,12098 11925,12193 11950,12281C11992,12435 11999,12725 11964,12919C11926,13132 11759,13424 11602,13556C11478,13659 11362,13712 11165,13756C10998,13794 10991,13796 10985,13833C10983,13851 10976,13948 10971,14050C10952,14407 10876,14585 10639,14822C10449,15012 10252,15122 9990,15181C9891,15204 9638,15214 9546,15200Z" style="fill:rgb(255,238,0);stroke:rgb(255,238,0);stroke-width:20px;"/>
        <path d="M5754,12360C5641,12337 5542,12252 5520,12159C5486,12019 5596,11779 5721,11716C5848,11653 5977,11715 6057,11877C6089,11942 6094,11963 6098,12039C6104,12159 6084,12225 6029,12275C5952,12345 5843,12378 5754,12360ZM5931,12258C5987,12227 6008,12197 6021,12126C6041,12017 6011,11908 5942,11837C5895,11788 5861,11770 5814,11770C5752,11770 5713,11803 5648,11910C5595,11997 5575,12123 5605,12180C5655,12277 5825,12318 5931,12258Z" style="fill:rgb(255,238,0);fill-rule:nonzero;stroke:rgb(255,238,0);stroke-width:20px;"/>
        <path d="M5752.01,12369.8C5843.8,12388.4 5956.31,12354.6 6035.73,12282.4C6092.63,12230.7 6114.19,12162.6 6107.99,12038.5C6103.89,11960.6 6098.74,11939.1 6065.97,11872.6C5982.95,11704.5 5848.35,11641.7 5716.56,11707L5716.5,11707.1C5652.35,11739.4 5591.68,11816.8 5551.77,11904.5C5511.91,11992 5492.85,12089.5 5510.27,12161.3C5533.05,12257.6 5635.08,12346 5752.01,12369.8ZM5754,12360C5641,12337 5542,12252 5520,12159C5486,12019 5596,11779 5721,11716C5848,11653 5977,11715 6057,11877C6089,11942 6094,11963 6098,12039C6104,12159 6084,12225 6029,12275C5952,12345 5843,12378 5754,12360ZM5931,12258C5987,12227 6008,12197 6021,12126C6041,12017 6011,11908 5942,11837C5895,11788 5861,11770 5814,11770C5752,11770 5713,11803 5648,11910C5595,11997 5575,12123 5605,12180C5655,12277 5825,12318 5931,12258ZM5926.07,12249.3C5864.94,12283.9 5781.65,12283.3 5714.43,12257.3C5670.22,12240.2 5632.85,12212.2 5613.89,12175.4C5613.88,12175.4 5613.86,12175.4 5613.85,12175.3C5602.54,12153.9 5599.14,12121.9 5601.88,12086.2C5606.14,12030.6 5625.55,11966.1 5656.54,11915.2C5718.66,11812.9 5754.75,11780 5814,11780C5858.46,11780 5890.33,11797.6 5934.78,11843.9L5934.83,11844C6001.72,11912.8 6030.55,12018.5 6011.16,12124.2C5998.86,12191.4 5979.16,12219.9 5926.16,12249.3L5926.07,12249.3Z" style="fill:rgb(255,238,0);stroke:rgb(255,238,0);stroke-width:20px;"/>
        <path d="M5782,11243C5769,10982 5740,10701 5709,10545C5686,10423 5686,10419 5710,10448C5771,10521 5840,10893 5840,11144C5840,11257 5822,11405 5802,11459C5797,11473 5789,11392 5782,11243Z" style="fill:rgb(255,238,0);fill-rule:nonzero;stroke:rgb(255,238,0);stroke-width:20px;"/>
        <path d="M5772.01,11243.5C5777.67,11363.8 5784.12,11440.2 5789,11458.8C5790.28,11463.6 5792.17,11466.3 5793.35,11467.5C5795.17,11469.2 5797.11,11470 5798.89,11470.4C5802.13,11471 5808.39,11470.7 5811.38,11462.5C5831.6,11407.8 5850,11258.2 5850,11144C5850,10967.5 5816.03,10731.4 5774.62,10580.4C5756.46,10514.2 5736.52,10464.2 5717.7,10441.6C5712.55,10435.4 5708.37,10430.6 5705.23,10427.9C5702.82,10425.8 5700.62,10424.5 5698.87,10423.9C5695.44,10422.6 5692.46,10422.9 5689.94,10424C5687.47,10425 5685.11,10426.9 5683.54,10430.4C5682.3,10433.1 5681.43,10438.9 5682.31,10448.3C5683.79,10464.4 5689.42,10495.1 5699.17,10546.9L5699.19,10546.9C5730.13,10702.6 5759.04,10983 5772.01,11243.5ZM5782,11243C5769,10982 5740,10701 5709,10545C5686,10423 5686,10419 5710,10448C5771,10521 5840,10893 5840,11144C5840,11257 5822,11405 5802,11459C5797,11473 5789,11392 5782,11243Z" style="fill:rgb(255,238,0);stroke:rgb(255,238,0);stroke-width:20px;"/>
    </g>
</svg>
