<?xml version="1.0" encoding="UTF-8" standalone="no"?>
<!DOCTYPE svg PUBLIC "-//W3C//DTD SVG 1.1//EN" "http://www.w3.org/Graphics/SVG/1.1/DTD/svg11.dtd">
<svg width="100%" height="100%" viewBox="0 0 850 553" version="1.1" xmlns="http://www.w3.org/2000/svg" xmlns:xlink="http://www.w3.org/1999/xlink" xml:space="preserve" xmlns:serif="http://www.serif.com/" style="fill-rule:evenodd;clip-rule:evenodd;stroke-linejoin:round;stroke-miterlimit:2;">
    <g id="ArtBoard1" transform="matrix(1,0,0,1.35042,0,0)">
        <rect x="0" y="0" width="850" height="409" style="fill:none;"/>
        <g transform="matrix(0.1,0,0,-0.0740508,0,361.752)">
            <path d="M4650,3974C4604,3966 4562,3956 4558,3952C4553,3947 4525,3886 4494,3814C4463,3743 4434,3680 4429,3675C4425,3669 4357,3638 4280,3605L4138,3546L4113,3496C4099,3469 4072,3406 4053,3356L4017,3265L4046,3154C4061,3093 4071,3036 4067,3026C4053,2991 4023,3036 3989,3143C3970,3202 3947,3254 3933,3267C3902,3299 3746,3374 3741,3359C3739,3353 3761,3315 3790,3274C3838,3204 3841,3198 3830,3167C3814,3121 3792,3094 3780,3106C3774,3112 3754,3159 3735,3212C3699,3315 3681,3419 3679,3538C3677,3686 3661,3695 3547,3621C3440,3551 3405,3535 3309,3509C3197,3479 2986,3476 2896,3504C2786,3537 2633,3626 2571,3694C2525,3743 2506,3724 2496,3615C2474,3393 2391,3148 2313,3079C2277,3048 2244,3043 2191,3061C2165,3070 2155,3070 2145,3059C2133,3047 2134,3036 2152,2985C2183,2893 2200,2802 2200,2723C2200,2644 2183,2547 2170,2555C2166,2558 2159,2588 2155,2622C2151,2657 2144,2692 2139,2701C2131,2717 2016,2781 1973,2795C1942,2804 1943,2786 1976,2743C1990,2724 2006,2692 2012,2673C2017,2653 2033,2628 2046,2618C2059,2607 2074,2580 2080,2557C2086,2534 2100,2492 2111,2463C2122,2434 2129,2406 2125,2400C2107,2371 1963,2414 1873,2476L1818,2514L1821,2614L1825,2715L1747,2756C1704,2778 1658,2808 1643,2822C1618,2848 1618,2849 1630,2913C1636,2949 1640,2984 1638,2990C1636,2996 1613,2980 1587,2956C1542,2913 1540,2909 1540,2855C1540,2800 1542,2796 1595,2737C1667,2658 1700,2591 1700,2524C1700,2437 1709,2409 1744,2395C1761,2388 1789,2367 1805,2350C1849,2304 1882,2290 1949,2290C2015,2290 2025,2283 2010,2246L2001,2221L1926,2255C1885,2274 1844,2290 1836,2290C1827,2290 1797,2281 1768,2269C1720,2251 1694,2249 1504,2250L1293,2251L1207,2183C1142,2132 1091,2103 1005,2066C882,2015 877,2010 820,1908C766,1812 641,1696 528,1639C473,1611 467,1604 439,1542C422,1506 403,1443 395,1404C385,1353 370,1315 345,1277C311,1226 309,1217 300,1104C291,998 286,977 255,915C236,877 220,834 220,820C220,783 198,716 146,598C121,540 100,487 100,480C100,456 162,479 300,555C375,596 450,634 466,640C484,647 594,653 756,654L1017,657L1086,699C1124,722 1184,750 1219,760C1268,776 1298,794 1351,841C1446,925 1588,1003 1679,1020C1707,1025 1742,1036 1757,1043C1773,1051 1809,1063 1839,1071C1896,1085 1894,1084 2019,1237C2075,1306 2134,1355 2149,1346C2154,1342 2170,1315 2184,1284C2219,1207 2232,1221 2229,1333C2227,1403 2231,1433 2243,1457C2252,1475 2260,1497 2260,1507C2260,1545 2273,1550 2324,1535C2381,1518 2440,1515 2440,1530C2440,1536 2431,1540 2421,1540C2411,1540 2372,1549 2336,1560C2184,1607 2048,1798 2019,2006C2003,2124 2036,2283 2089,2343C2131,2391 2135,2385 2136,2272C2136,2159 2150,2101 2197,2006C2233,1936 2321,1832 2392,1778C2461,1726 2595,1650 2619,1650C2628,1650 2642,1645 2650,1640C2663,1631 2661,1627 2640,1610C2626,1599 2594,1580 2568,1567C2541,1555 2520,1542 2520,1538C2520,1515 2594,1545 2658,1593C2695,1621 2737,1619 2724,1591C2696,1530 2717,1437 2766,1405C2780,1396 2790,1380 2790,1366C2790,1327 2810,1282 2836,1265C2854,1253 2860,1241 2860,1211C2860,1159 2878,1112 2900,1105C2925,1097 2936,1081 2945,1043C2951,1015 2948,1010 2920,995C2903,986 2885,982 2880,985C2875,988 2859,1028 2845,1072C2801,1212 2784,1210 2750,1062C2738,1009 2724,960 2719,954C2709,941 2606,925 2472,914C2334,903 2349,879 2536,814C2704,755 2710,751 2710,695C2710,657 2707,651 2688,648C2656,644 2655,601 2678,417C2706,203 2726,194 2764,382C2776,445 2789,501 2793,507C2797,513 2810,515 2823,513C2855,507 2877,531 2885,582C2899,676 2900,677 2932,684C2979,693 3081,691 3120,680C3186,661 3186,663 3146,544C3126,484 3110,429 3110,422C3110,414 3127,410 3161,410L3212,410L3204,313C3193,181 3193,106 3205,100C3215,95 3400,452 3400,476C3400,484 3387,493 3371,497L3342,505L3372,558C3400,606 3405,610 3439,610C3513,610 3600,623 3600,634C3600,640 3575,664 3545,688C3514,711 3487,736 3484,744C3481,751 3513,832 3555,924C3623,1076 3641,1130 3624,1130C3614,1130 3561,1090 3479,1019C3435,981 3383,938 3363,923L3328,896L3309,919C3298,932 3290,949 3290,957C3290,980 3341,1040 3361,1040C3371,1040 3391,1051 3406,1064C3430,1084 3434,1095 3433,1139C3432,1183 3435,1190 3452,1190C3487,1190 3528,1219 3539,1251C3553,1291 3553,1347 3540,1355C3522,1366 3530,1380 3564,1394C3587,1403 3605,1422 3618,1447C3656,1523 3655,1555 3609,1606C3590,1626 3591,1627 3674,1699C3752,1766 3842,1865 3885,1932C3902,1960 3902,1960 3870,1977C3732,2052 3622,2204 3574,2385C3547,2485 3547,2780 3573,2859C3608,2963 3678,3035 3764,3056C3790,3062 3792,3061 3786,3044C3766,2996 3767,2942 3789,2906C3801,2887 3816,2843 3822,2808C3828,2773 3843,2725 3856,2700C3877,2662 3880,2641 3880,2557C3880,2481 3876,2451 3863,2429C3840,2391 3833,2392 3821,2438C3790,2554 3786,2647 3807,2783C3816,2843 3793,2827 3780,2764C3762,2676 3766,2552 3791,2451C3813,2362 3813,2359 3795,2326C3777,2293 3777,2290 3800,2178C3822,2074 3827,2062 3866,2020C3921,1960 3930,1941 3930,1882C3930,1815 3940,1770 3955,1770C3962,1770 3977,1806 3990,1851C4015,1938 4014,1937 4098,1960C4155,1975 4224,2039 4246,2096L4263,2141L4316,2090C4358,2048 4377,2036 4416,2029C4443,2024 4483,2007 4505,1991C4527,1975 4579,1950 4620,1936C4707,1905 4722,1896 4813,1821L4881,1765L5118,1769L5355,1772L5527,1860L5674,1860C5817,1860 5821,1859 5873,1831C5920,1804 5931,1802 5991,1807C6027,1810 6079,1808 6107,1801C6158,1791 6160,1791 6267,1843L6375,1895L6493,1892L6610,1889L6738,1963L6865,2037L7020,2043C7214,2051 7279,2063 7355,2106C7445,2156 7605,2192 7763,2198C7888,2202 7971,2196 8248,2163C8366,2149 8383,2149 8396,2162C8409,2175 8406,2184 8367,2236C8269,2369 7932,2730 7844,2796C7763,2857 7670,2953 7605,3045C7569,3095 7546,3114 7476,3153C7370,3212 7342,3235 7287,3313C7254,3358 7222,3388 7167,3424C7117,3455 7088,3482 7082,3499C7074,3524 7070,3525 6944,3537C6850,3545 6801,3555 6765,3571C6713,3595 6625,3605 6390,3614C6263,3618 6203,3633 6096,3687C6028,3721 6023,3722 5936,3718C5866,3714 5830,3707 5780,3686L5715,3658L5621,3675C5528,3693 5527,3693 5440,3671C5365,3651 5339,3649 5258,3655C5185,3660 5150,3658 5098,3645C5061,3636 5022,3631 5011,3635C4987,3642 4924,3616 4819,3554C4775,3528 4711,3502 4666,3490C4596,3472 4582,3464 4518,3405C4479,3369 4442,3340 4436,3340C4430,3340 4433,3345 4442,3351C4466,3364 4567,3519 4584,3567C4592,3589 4603,3650 4609,3701C4620,3792 4622,3796 4658,3825C4752,3901 4830,3972 4830,3980C4830,3994 4751,3991 4650,3974ZM4775,3952C4769,3947 4730,3915 4688,3881C4645,3847 4608,3816 4606,3811C4603,3806 4593,3756 4584,3699C4568,3593 4540,3519 4482,3430C4459,3394 4433,3374 4355,3330C4289,3293 4248,3263 4229,3237C4184,3175 4141,3060 4134,2980L4127,2908L4061,2855C4025,2826 3984,2787 3972,2770C3927,2710 3937,2750 3988,2832C4015,2878 4053,2945 4071,2982L4104,3049L4075,3150C4049,3242 4047,3255 4059,3298C4076,3362 4146,3510 4168,3526C4177,3533 4214,3551 4250,3565C4286,3580 4345,3605 4381,3622C4447,3651 4449,3654 4480,3724C4498,3763 4527,3827 4545,3866L4577,3937L4636,3947C4711,3960 4787,3963 4775,3952ZM2550,3681C2550,3663 2697,3560 2772,3525C2886,3473 2959,3456 3080,3457C3267,3458 3392,3492 3534,3581C3588,3615 3635,3638 3639,3634C3644,3629 3652,3560 3658,3480C3672,3310 3702,3191 3757,3089C3759,3086 3741,3076 3718,3067C3651,3041 3604,2996 3572,2927C3530,2838 3519,2783 3519,2655C3519,2465 3544,2348 3616,2210C3668,2109 3730,2035 3805,1986C3835,1965 3860,1946 3860,1943C3860,1917 3687,1735 3598,1666L3561,1638L3498,1654C3283,1707 2966,1700 2806,1639L2757,1621L2691,1647C2591,1686 2455,1758 2389,1806C2357,1830 2310,1878 2285,1912C2191,2041 2160,2137 2160,2303C2160,2377 2162,2384 2189,2409C2226,2444 2241,2521 2217,2548C2203,2564 2204,2573 2231,2648C2247,2694 2260,2743 2259,2758C2259,2787 2256,2784 2234,2725C2229,2712 2224,2739 2219,2800C2214,2863 2203,2919 2186,2964C2171,3002 2161,3035 2163,3037C2165,3039 2181,3035 2199,3029C2274,3003 2338,3042 2393,3147C2462,3281 2520,3497 2520,3624C2520,3653 2523,3680 2527,3683C2536,3693 2550,3692 2550,3681ZM6108,3654C6150,3634 6211,3613 6242,3606C6273,3600 6302,3591 6306,3587C6311,3583 6208,3582 6080,3586C5904,3591 5833,3597 5797,3609C5770,3618 5748,3630 5747,3635C5746,3641 5770,3655 5800,3667C5842,3684 5876,3689 5943,3690C6023,3690 6037,3687 6108,3654ZM5620,3649C5645,3644 5703,3623 5750,3603L5835,3566L6055,3559C6248,3554 6286,3555 6364,3571C6413,3582 6461,3590 6470,3590C6481,3590 6497,3571 6514,3537C6550,3463 6653,3366 6711,3350C6735,3343 6807,3323 6870,3304C6947,3282 7018,3268 7083,3264L7180,3257L7249,3186C7311,3123 7344,3084 7442,2957C7457,2938 7493,2909 7523,2892C7552,2876 7601,2839 7632,2811C7666,2780 7720,2745 7771,2722C7839,2690 7867,2670 7918,2616C7953,2579 7984,2551 7987,2554C7995,2561 7926,2653 7885,2688C7867,2705 7842,2721 7831,2725C7819,2728 7792,2757 7770,2788C7748,2819 7720,2859 7708,2875C7696,2892 7717,2876 7755,2841C7792,2806 7844,2762 7870,2744C7896,2725 7946,2677 7981,2637C8016,2596 8098,2505 8164,2435C8283,2306 8370,2202 8370,2188C8370,2175 8315,2179 8145,2201C7930,2230 7702,2232 7602,2206C7562,2196 7527,2190 7524,2193C7515,2202 7632,2235 7763,2261C7827,2274 7880,2289 7880,2294C7880,2307 7766,2293 7685,2270C7646,2259 7587,2250 7554,2250C7520,2250 7475,2243 7454,2234C7430,2224 7366,2215 7285,2210C7214,2205 7148,2200 7140,2197C7132,2194 7113,2189 7099,2186C7082,2182 7064,2166 7051,2145L7031,2110L6948,2109C6902,2109 6811,2103 6744,2097L6624,2085L6554,2033C6495,1989 6468,1977 6386,1955C6265,1924 6257,1924 6140,1956C6059,1977 6033,1980 5967,1975C5919,1970 5852,1973 5797,1980L5705,1993L5644,1962C5591,1935 5565,1929 5456,1920C5366,1912 5298,1900 5219,1876L5108,1842L4947,1910C4728,2002 4680,2017 4530,2040C4459,2051 4393,2063 4383,2067C4373,2070 4333,2104 4294,2142C4254,2179 4217,2210 4211,2210C4198,2210 4023,2307 3998,2328C3989,2336 3973,2364 3964,2391C3933,2476 3925,2451 3929,2285C3931,2231 3939,2195 3967,2126C4005,2030 4006,2011 3976,1890L3962,1835L3961,1893C3960,1949 3958,1952 3902,2013L3843,2076L3825,2181C3805,2298 3806,2302 3878,2409C3904,2446 3907,2457 3899,2484C3894,2501 3890,2551 3891,2595C3893,2655 3889,2683 3876,2708C3867,2726 3852,2775 3844,2817C3836,2858 3821,2905 3809,2921C3790,2948 3789,2955 3800,3003C3807,3032 3823,3081 3836,3112C3869,3191 3867,3218 3824,3269C3804,3292 3790,3313 3793,3316C3796,3319 3813,3314 3832,3304C3920,3259 3934,3239 3971,3110C3990,3046 3990,3045 3969,3005C3943,2956 3913,2743 3929,2727C3936,2720 3960,2726 4007,2747C4044,2764 4100,2783 4130,2790C4213,2809 4259,2836 4326,2906C4399,2983 4421,2986 4525,2937C4650,2877 4691,2867 4805,2872C4901,2875 4914,2878 4981,2913L5053,2950L5144,2916C5194,2897 5262,2876 5295,2870C5354,2858 5357,2858 5497,2904C5627,2947 5644,2950 5704,2944C5765,2938 5774,2940 5863,2979C5915,3001 5963,3020 5969,3020C5976,3020 6025,2996 6078,2968L6175,2915L6331,2909C6507,2901 6520,2897 6637,2808C6689,2768 6719,2753 6765,2743C6840,2727 7059,2726 7169,2741C7241,2751 7253,2750 7269,2736C7298,2710 7430,2668 7510,2661C7576,2654 7604,2644 7740,2577C7825,2536 7896,2503 7898,2505C7907,2514 7885,2531 7817,2568C7778,2590 7696,2649 7635,2700C7544,2776 7501,2804 7385,2860C7303,2900 7233,2941 7215,2960C7199,2978 7168,3006 7147,3023L7108,3053L7055,3024L7001,2996L6903,3062C6812,3124 6732,3162 6605,3204C6566,3216 6538,3237 6485,3291C6446,3330 6398,3375 6378,3390L6341,3417L6192,3412C6056,3408 6034,3410 5930,3434C5843,3455 5796,3461 5726,3459C5643,3457 5626,3460 5537,3494C5448,3527 5434,3529 5397,3520C5315,3498 5220,3458 5183,3428C5141,3395 5038,3340 5018,3340C5010,3340 4982,3358 4955,3381C4928,3403 4898,3426 4888,3431C4858,3447 4778,3418 4650,3344C4530,3275 4493,3258 4423,3240C4387,3231 4375,3221 4345,3175C4315,3127 4305,3119 4271,3114C4227,3107 4212,3094 4182,3035C4166,3005 4161,3000 4160,3016C4160,3046 4207,3108 4279,3171C4312,3200 4353,3243 4370,3266C4389,3293 4411,3311 4429,3315C4445,3318 4491,3349 4531,3382C4591,3433 4618,3448 4689,3470C4736,3485 4819,3523 4872,3554C4925,3585 4975,3610 4982,3610C4988,3610 5032,3594 5079,3574L5163,3537L5244,3579C5289,3602 5334,3621 5345,3621C5356,3621 5390,3629 5420,3640C5483,3661 5555,3664 5620,3649ZM5259,3631C5270,3624 5260,3615 5218,3594L5162,3567L5116,3584C5091,3594 5070,3605 5070,3609C5070,3617 5164,3636 5215,3638C5232,3639 5251,3636 5259,3631ZM6766,3544C6814,3526 6862,3517 6925,3514C7044,3507 7053,3505 7065,3478C7071,3465 7107,3434 7147,3408C7191,3379 7236,3338 7263,3302C7325,3222 7376,3178 7463,3131C7548,3084 7552,3080 7612,2980C7637,2939 7680,2874 7708,2837C7737,2800 7760,2765 7760,2759C7760,2743 7719,2770 7658,2826C7626,2855 7573,2893 7539,2911C7497,2934 7469,2958 7447,2989C7404,3054 7301,3176 7241,3234L7191,3284L7081,3291C7008,3296 6945,3306 6893,3323C6850,3337 6781,3358 6740,3370C6676,3389 6658,3399 6617,3441C6572,3488 6530,3546 6530,3563C6530,3567 6568,3570 6614,3570C6680,3570 6712,3564 6766,3544ZM5548,3465C5631,3433 5645,3431 5736,3433C5818,3435 5853,3430 5940,3407C6039,3380 6051,3378 6171,3385C6335,3394 6352,3388 6455,3290C6546,3203 6559,3195 6696,3144C6756,3122 6824,3087 6868,3056C6908,3028 6955,2996 6972,2986L7003,2966L7056,2995L7108,3023L7183,2956C7241,2905 7279,2880 7351,2850C7402,2828 7455,2803 7469,2794C7516,2764 7669,2646 7666,2642C7664,2640 7643,2648 7620,2660C7596,2672 7545,2685 7501,2690C7412,2699 7316,2731 7283,2761C7269,2775 7255,2780 7243,2776C7205,2761 6946,2750 6843,2759C6743,2768 6734,2771 6684,2807C6654,2828 6603,2863 6570,2886L6511,2927L6343,2934L6175,2942L6079,2996C6027,3026 5977,3050 5969,3050C5961,3050 5917,3032 5871,3010C5794,2973 5783,2970 5702,2970C5625,2970 5599,2965 5476,2924L5338,2878L5194,2925L5050,2973L4972,2936C4896,2901 4891,2900 4778,2900L4661,2900L4569,2945C4494,2982 4466,2990 4422,2990L4367,2990L4296,2916C4233,2850 4218,2840 4165,2826C4132,2817 4085,2803 4060,2795C4036,2787 4015,2782 4013,2783C4012,2785 4041,2809 4078,2837C4131,2876 4149,2896 4158,2926C4165,2948 4185,2992 4203,3025C4233,3081 4238,3085 4285,3095C4330,3104 4337,3109 4364,3157C4391,3204 4398,3210 4444,3221C4472,3227 4533,3253 4580,3278C4762,3376 4833,3410 4856,3410C4870,3410 4906,3390 4938,3365C4971,3339 5006,3320 5020,3320C5055,3320 5159,3371 5203,3409C5240,3442 5385,3499 5431,3500C5446,3500 5498,3484 5548,3465ZM4370,3304C4370,3300 4332,3260 4285,3214C4238,3168 4200,3133 4200,3137C4201,3142 4211,3165 4224,3190C4251,3240 4370,3333 4370,3304ZM4030,2986C4030,2971 3981,2880 3973,2880C3966,2880 3979,2947 3992,2976C4004,3002 4030,3009 4030,2986ZM1599,2891C1589,2848 1590,2846 1626,2809C1646,2788 1690,2757 1724,2739C1758,2721 1788,2702 1791,2697C1795,2692 1798,2644 1799,2591C1801,2505 1803,2493 1823,2477C1844,2460 1974,2395 2034,2371C2060,2360 2061,2358 2047,2337C2034,2317 2024,2315 1956,2316L1880,2317L1825,2369C1796,2397 1765,2420 1757,2420C1742,2420 1730,2467 1730,2526C1730,2583 1700,2646 1633,2730C1573,2805 1566,2818 1566,2857C1567,2884 1574,2908 1585,2920C1595,2931 1604,2939 1606,2937C1608,2936 1604,2915 1599,2891ZM2070,2720L2130,2690L2130,2635C2130,2604 2137,2563 2146,2542C2161,2505 2157,2428 2141,2446C2136,2451 2124,2489 2115,2530C2101,2585 2089,2612 2068,2632C2053,2646 2040,2668 2040,2681C2040,2693 2030,2714 2018,2727C1990,2757 1999,2756 2070,2720ZM2203,2477C2200,2457 2193,2440 2189,2440C2177,2440 2178,2463 2190,2496C2204,2532 2211,2522 2203,2477ZM4036,2274C4049,2271 4058,2264 4055,2260C4041,2238 3950,2305 3950,2337C3950,2345 3964,2335 3981,2315C3998,2296 4023,2277 4036,2274ZM4064,2236C4121,2235 4162,2211 4159,2181C4156,2150 4160,2147 4180,2165C4223,2204 4246,2151 4214,2087C4182,2025 4132,1989 4058,1975L4023,1968L4017,2022C4014,2051 4008,2086 4004,2099C3998,2120 3999,2121 4018,2111C4050,2094 4115,2097 4131,2117C4144,2132 4142,2133 4106,2127C4032,2115 3966,2167 3953,2246L3947,2283L3978,2260C4001,2243 4024,2236 4064,2236ZM1930,2228C1981,2206 2000,2192 1997,2181C1995,2172 1990,2166 1984,2166C1979,2167 1925,2178 1864,2191L1752,2214L1701,2181C1654,2150 1648,2149 1632,2163C1622,2172 1586,2181 1545,2185C1479,2191 1471,2190 1398,2156C1353,2135 1274,2110 1210,2096C1112,2076 1094,2068 1043,2029C1010,2003 983,1974 980,1960C976,1940 963,1931 917,1916C885,1906 857,1900 853,1904C850,1907 859,1928 874,1950C901,1991 945,2018 1082,2075C1118,2090 1181,2129 1222,2161C1264,2195 1309,2222 1329,2226C1348,2230 1441,2230 1536,2227C1690,2222 1713,2223 1756,2240C1824,2266 1849,2265 1930,2228ZM7520,2226C7520,2223 7464,2192 7397,2156L7273,2090L7139,2075C7065,2067 6970,2060 6928,2060C6856,2060 6846,2057 6788,2022C6753,2001 6695,1967 6659,1947L6593,1911L6492,1917C6382,1924 6348,1915 6217,1847C6161,1818 6158,1817 6105,1829C6070,1837 6025,1839 5985,1835C5923,1828 5918,1829 5869,1860L5819,1893L5664,1886C5510,1880 5509,1879 5432,1841L5355,1803L5150,1797C5037,1794 4936,1789 4924,1785C4909,1780 4888,1791 4842,1830C4757,1901 4681,1945 4600,1969C4506,1998 4497,2015 4580,2007C4650,1999 4766,1961 4970,1876C5063,1838 5112,1822 5130,1826C5144,1830 5202,1846 5259,1862C5328,1881 5404,1895 5481,1901C5582,1908 5608,1914 5659,1939L5718,1969L5797,1954C5852,1943 5901,1941 5966,1946C6047,1951 6067,1949 6153,1925L6250,1897L6366,1925C6467,1948 6491,1958 6558,2004C6600,2033 6643,2059 6653,2063C6663,2067 6753,2074 6853,2080L7034,2090L7070,2128C7102,2164 7112,2168 7183,2178C7226,2185 7296,2190 7338,2191C7390,2191 7430,2197 7460,2210C7507,2230 7520,2233 7520,2226ZM1920,2153L1985,2135L1991,2065C1994,2026 2000,1969 2005,1938C2013,1872 2027,1881 1871,1855C1768,1837 1768,1837 1693,1787C1664,1767 1627,1749 1611,1745C1590,1741 1554,1710 1495,1645L1409,1552L1312,1545C1231,1539 1207,1533 1165,1509C1091,1467 1068,1444 1006,1348L950,1260L857,1260C764,1260 764,1260 731,1226C712,1207 680,1187 655,1180C593,1163 542,1116 509,1046C493,1012 480,980 480,973C480,957 448,940 420,940C392,940 330,878 330,850C330,838 318,799 304,764C290,728 281,696 284,693C297,680 381,733 428,785C472,833 487,843 523,847C546,850 595,868 632,886C669,905 731,929 772,940C840,959 850,965 930,1045L1015,1130L1117,1130C1212,1130 1222,1132 1267,1159C1301,1180 1337,1192 1389,1199C1429,1204 1466,1212 1471,1217C1475,1221 1494,1261 1513,1305L1547,1385L1601,1393C1657,1401 1769,1458 1835,1513C1855,1529 1891,1577 1915,1620C1940,1663 1979,1718 2001,1744C2023,1769 2037,1790 2031,1790C2004,1790 1936,1711 1899,1639C1858,1557 1841,1540 1726,1470C1676,1440 1639,1426 1597,1420C1564,1415 1534,1407 1530,1403C1526,1399 1511,1365 1495,1328C1480,1291 1459,1253 1449,1244C1438,1235 1404,1225 1368,1221C1328,1217 1289,1205 1260,1188C1222,1165 1198,1161 1102,1154L990,1147L915,1068C843,992 837,987 758,963C712,949 646,923 610,904C572,885 531,871 512,872C485,873 469,862 409,802C341,731 310,712 325,748C329,757 338,787 344,813C357,868 390,908 429,916C483,927 495,937 507,981C531,1071 618,1160 681,1160C696,1160 716,1173 735,1195C765,1230 766,1231 864,1237L962,1243L1004,1300C1026,1331 1059,1377 1077,1402C1098,1433 1129,1460 1173,1484C1231,1517 1244,1520 1314,1520C1400,1520 1422,1528 1463,1574C1545,1665 1604,1719 1628,1725C1643,1728 1686,1751 1723,1775C1776,1809 1806,1821 1863,1830C1903,1836 1954,1846 1978,1852C2001,1858 2022,1861 2023,1859C2025,1857 2039,1830 2054,1799C2082,1743 2082,1742 2066,1689C2058,1659 2039,1620 2025,1601C2011,1582 2000,1559 2000,1550C2000,1541 1993,1514 1985,1489C1970,1445 1968,1444 1827,1373L1684,1302L1653,1204L1622,1105L1539,1088C1493,1078 1422,1054 1380,1034C1325,1007 1284,996 1226,989C1154,982 1145,978 1116,947C1099,928 1043,892 992,867C915,829 885,819 810,811C761,806 708,794 691,786C675,777 638,770 610,770C573,770 546,762 507,740C479,724 426,700 390,686C297,651 270,638 270,627C270,622 282,620 297,623C313,626 333,630 342,632C351,634 360,631 362,625C365,615 142,495 134,502C132,505 149,544 171,591C194,637 223,703 236,737C249,772 273,824 290,853C306,882 326,925 335,950C344,975 362,1011 376,1031C389,1051 409,1097 420,1135C441,1208 470,1257 523,1307C550,1334 571,1342 653,1359C707,1370 762,1386 775,1394C788,1403 817,1441 839,1479C887,1561 975,1643 1039,1666C1138,1701 1188,1732 1269,1807L1354,1885L1470,1891C1598,1898 1611,1902 1691,1972L1747,2020L1836,2020C1930,2020 1970,2027 1970,2041C1970,2054 1762,2052 1737,2039C1725,2032 1690,2004 1660,1975L1605,1923L1335,1909L1255,1831C1172,1750 1133,1725 1040,1695C971,1672 874,1582 820,1490C799,1454 772,1420 761,1413C750,1406 700,1393 650,1384C555,1367 520,1347 466,1283C440,1252 400,1169 400,1145C400,1138 384,1101 364,1063C344,1026 320,973 309,945C287,887 251,825 244,833C241,836 249,855 263,877C299,935 310,975 320,1089C326,1153 336,1205 347,1226C399,1322 496,1467 540,1511C567,1539 606,1595 627,1636L665,1710L709,1708L752,1705L797,1787C842,1870 842,1870 898,1885C975,1906 1004,1922 1008,1945C1013,1969 1054,2015 1095,2040C1112,2050 1157,2064 1195,2070C1282,2083 1348,2104 1423,2142C1475,2168 1487,2170 1541,2164C1584,2159 1603,2152 1611,2139C1625,2113 1643,2115 1698,2150C1739,2177 1751,2180 1800,2176C1830,2173 1884,2163 1920,2153ZM758,1758C750,1746 737,1734 729,1732C721,1729 726,1739 739,1754C769,1786 778,1788 758,1758ZM2126,1679C2136,1659 2140,1636 2136,1618C2132,1597 2141,1556 2164,1489C2198,1393 2218,1300 2206,1300C2203,1300 2194,1315 2186,1334C2178,1353 2151,1390 2126,1416C2066,1480 2054,1531 2075,1631C2083,1669 2090,1703 2090,1706C2090,1722 2112,1705 2126,1679ZM3284,1660C3426,1650 3540,1621 3585,1586C3607,1568 3613,1555 3612,1528C3609,1455 3579,1417 3513,1404C3484,1398 3482,1400 3487,1419C3493,1443 3488,1445 3461,1429C3447,1420 3414,1422 3317,1440C3157,1468 2888,1467 2832,1437C2789,1414 2767,1426 2744,1485C2715,1561 2747,1595 2883,1635C2995,1667 3097,1674 3284,1660ZM593,1620C582,1603 545,1557 509,1518C474,1479 439,1435 433,1421C406,1365 431,1464 460,1526C484,1579 495,1592 541,1618C610,1656 616,1657 593,1620ZM2190,1596C2190,1585 2187,1564 2183,1552C2174,1517 2160,1545 2160,1599C2160,1636 2162,1641 2175,1630C2183,1623 2190,1608 2190,1596ZM2248,1558C2252,1536 2209,1441 2203,1458C2200,1465 2201,1496 2205,1526C2210,1570 2215,1581 2228,1578C2237,1576 2246,1567 2248,1558ZM2065,1439C2069,1427 2061,1417 2035,1401C2007,1385 1991,1363 1965,1306C1930,1232 1917,1217 1806,1130C1774,1106 1744,1078 1739,1068C1731,1053 1716,1050 1661,1050C1599,1050 1591,1047 1554,1016C1533,998 1468,960 1410,932C1352,904 1283,862 1255,839C1185,780 1150,768 1035,762L935,758L890,714L844,670L791,680C701,697 562,692 476,670C433,658 390,651 381,653C372,655 385,662 410,669C435,676 478,694 505,710C537,727 578,740 617,744C652,748 695,757 714,765C733,773 786,784 832,789C900,797 932,808 1015,849C1087,885 1120,907 1133,929C1150,959 1154,960 1217,960C1274,960 1294,965 1354,996C1393,1017 1473,1045 1534,1060L1644,1087L1670,1171C1685,1217 1701,1264 1707,1275C1714,1287 1774,1322 1854,1359C2001,1428 1991,1418 2021,1530L2033,1575L2045,1515C2052,1482 2061,1448 2065,1439ZM3324,1414C3442,1391 3509,1364 3516,1334C3525,1299 3512,1242 3492,1232C3454,1212 3393,1212 3285,1230C3224,1241 3110,1254 3034,1259C2958,1264 2883,1273 2867,1279C2824,1296 2805,1366 2834,1405C2844,1419 2866,1426 2926,1431C3031,1440 3226,1432 3324,1414ZM2116,1389C2120,1382 2107,1364 2084,1345C2063,1327 2009,1267 1965,1211C1898,1127 1879,1108 1846,1099C1825,1093 1806,1091 1803,1094C1800,1097 1819,1114 1846,1132C1933,1192 1955,1217 1988,1292C2009,1340 2030,1372 2048,1383C2080,1402 2106,1405 2116,1389ZM3265,1205C3372,1186 3410,1168 3410,1136C3410,1095 3400,1081 3362,1069C3341,1063 3313,1044 3299,1027C3273,997 3271,997 3233,1008C3211,1015 3146,1025 3090,1031C2978,1042 2970,1044 2970,1065C2970,1073 2952,1097 2930,1119C2891,1157 2877,1203 2898,1225C2908,1236 3164,1222 3265,1205ZM2823,1063C2842,991 2844,960 2830,960C2825,960 2820,956 2820,950C2820,930 2869,941 2946,980L3025,1019L3105,1009C3227,994 3241,987 3278,925C3299,890 3318,870 3329,870C3340,870 3401,917 3465,975C3530,1033 3586,1080 3591,1080C3596,1080 3579,1036 3554,983C3470,804 3450,758 3450,744C3450,736 3475,711 3505,687L3560,645L3388,635L3344,560C3290,466 3290,460 3336,467C3359,471 3371,469 3369,463C3355,425 3224,160 3219,160C3209,160 3239,381 3256,423C3262,440 3258,441 3201,434C3151,429 3140,430 3140,442C3140,450 3160,508 3185,571C3235,698 3240,722 3212,697C3196,682 3189,682 3130,701C3082,716 3045,721 2985,718L2905,715L2902,763C2897,847 2870,816 2870,726C2870,697 2867,645 2864,611L2857,550L2816,550C2769,550 2744,538 2755,521C2763,507 2730,310 2720,310C2712,310 2704,375 2694,524C2689,589 2690,620 2698,620C2704,620 2710,614 2713,608C2724,577 2733,617 2738,708C2741,779 2739,809 2731,815C2723,819 2717,814 2713,801C2710,789 2707,780 2706,780C2706,780 2642,802 2565,829C2416,881 2415,884 2535,895C2699,910 2760,930 2760,969C2760,1002 2794,1140 2800,1133C2804,1128 2814,1097 2823,1063ZM1319,844C1293,816 1240,785 1240,797C1240,804 1328,868 1339,869C1342,870 1333,858 1319,844ZM1080,732C1080,714 992,680 946,680C862,680 901,722 994,731C1028,734 1061,738 1068,738C1074,739 1080,736 1080,732Z" style="fill:rgb(255,238,0);fill-rule:nonzero;stroke:rgb(255,238,0);stroke-width:30px;"/>
            <path d="M2505,3368C2503,3361 2496,3324 2491,3285C2485,3247 2472,3184 2461,3145C2450,3107 2443,3073 2446,3071C2464,3052 2509,3198 2517,3303C2522,3371 2517,3402 2505,3368Z" style="fill:rgb(255,238,0);fill-rule:nonzero;stroke:rgb(255,238,0);stroke-width:30px;"/>
            <path d="M2821,2782C2782,2744 2781,2709 2816,2681C2857,2649 2914,2653 2951,2689C3003,2742 2979,2796 2898,2806C2855,2812 2848,2810 2821,2782ZM2937,2768C2958,2751 2952,2723 2924,2701C2893,2677 2881,2675 2845,2692C2812,2707 2812,2742 2847,2770C2875,2792 2910,2791 2937,2768Z" style="fill:rgb(255,238,0);fill-rule:nonzero;stroke:rgb(255,238,0);stroke-width:30px;"/>
            <path d="M2644,2615C2606,2599 2585,2553 2594,2505C2612,2410 2737,2424 2753,2523C2764,2592 2706,2641 2644,2615ZM2717,2569C2734,2534 2720,2489 2687,2470C2664,2457 2659,2457 2641,2474C2616,2497 2613,2546 2636,2578C2657,2609 2700,2604 2717,2569Z" style="fill:rgb(255,238,0);fill-rule:nonzero;stroke:rgb(255,238,0);stroke-width:30px;"/>
            <path d="M2426,2545C2381,2496 2385,2427 2434,2394C2472,2370 2508,2383 2527,2427C2546,2473 2538,2529 2509,2553C2479,2577 2453,2574 2426,2545ZM2501,2524C2508,2515 2514,2493 2514,2475C2514,2434 2495,2410 2464,2410C2434,2410 2416,2443 2424,2483C2435,2538 2472,2558 2501,2524Z" style="fill:rgb(255,238,0);fill-rule:nonzero;stroke:rgb(255,238,0);stroke-width:30px;"/>
            <path d="M2894,2550C2862,2537 2830,2491 2830,2459C2830,2444 2842,2418 2856,2401C2878,2375 2889,2370 2926,2370C3013,2370 3051,2456 2993,2519C2962,2552 2926,2564 2894,2550ZM2960,2520C3012,2492 3005,2423 2948,2399C2904,2381 2866,2403 2862,2449C2856,2513 2906,2549 2960,2520Z" style="fill:rgb(255,238,0);fill-rule:nonzero;stroke:rgb(255,238,0);stroke-width:30px;"/>
            <path d="M2266,2458C2248,2433 2245,2359 2260,2329C2275,2302 2316,2305 2335,2334C2346,2351 2350,2376 2348,2417C2345,2474 2344,2475 2313,2478C2290,2480 2278,2475 2266,2458ZM2326,2435C2333,2407 2324,2362 2308,2342C2292,2324 2270,2346 2270,2381C2270,2445 2313,2487 2326,2435Z" style="fill:rgb(255,238,0);fill-rule:nonzero;stroke:rgb(255,238,0);stroke-width:30px;"/>
            <path d="M2190,2264C2171,2216 2202,2120 2235,2120C2255,2120 2264,2162 2256,2217C2246,2290 2209,2316 2190,2264ZM2237,2193C2241,2148 2240,2146 2226,2164C2207,2187 2203,2271 2221,2253C2227,2247 2234,2220 2237,2193Z" style="fill:rgb(255,238,0);fill-rule:nonzero;stroke:rgb(255,238,0);stroke-width:30px;"/>
            <path d="M5940,2606C5921,2599 5876,2579 5840,2561C5804,2544 5754,2527 5728,2524C5686,2518 5677,2521 5639,2548C5590,2584 5594,2585 5466,2496L5386,2440L5213,2440L5140,2499C5051,2572 5005,2585 4880,2577C4779,2569 4751,2561 4700,2520C4664,2492 4657,2490 4571,2490C4495,2490 4460,2496 4362,2526C4261,2557 4236,2561 4182,2556C4098,2547 3968,2520 3953,2508C3931,2490 3967,2441 4038,2395C4075,2371 4123,2333 4145,2310C4187,2266 4233,2239 4338,2197C4398,2172 4407,2171 4535,2177L4669,2183L4757,2128C4886,2046 4902,2040 4970,2040C5022,2040 5042,2046 5094,2075C5145,2103 5177,2113 5260,2125L5363,2139L5420,2195C5450,2225 5483,2250 5492,2250C5501,2250 5551,2239 5602,2225C5653,2211 5733,2195 5780,2190C5827,2185 5905,2167 5954,2150C6060,2115 6073,2114 6183,2139C6301,2167 6352,2185 6462,2241C6556,2288 6563,2290 6643,2290C6721,2290 6730,2292 6786,2326L6845,2362L7130,2350C7382,2340 7425,2340 7504,2354C7553,2363 7641,2370 7701,2370C7760,2370 7811,2374 7815,2379C7818,2384 7807,2398 7791,2409C7765,2428 7734,2436 7565,2471C7538,2476 7508,2487 7499,2496C7490,2504 7459,2515 7429,2520C7399,2524 7355,2538 7330,2549C7277,2573 7232,2575 7170,2556C7145,2549 7091,2539 7050,2535C6954,2526 6876,2507 6772,2465L6690,2431L6567,2490C6500,2522 6402,2563 6350,2581C6264,2611 6242,2614 6115,2617C6013,2619 5965,2616 5940,2606ZM6375,2547C6430,2526 6523,2485 6581,2456L6688,2403L6771,2437C6878,2481 6989,2510 7054,2510C7082,2510 7138,2520 7178,2532L7251,2553L7303,2530C7332,2518 7380,2502 7410,2496C7440,2490 7479,2477 7495,2468C7512,2460 7551,2447 7583,2441C7614,2435 7665,2425 7695,2419C7725,2413 7750,2404 7750,2399C7750,2394 7703,2390 7645,2390C7587,2390 7504,2383 7462,2374C7397,2361 7366,2360 7265,2369C7199,2375 7079,2382 6998,2386L6851,2393L6790,2356C6732,2322 6723,2320 6644,2320C6564,2320 6556,2318 6477,2276C6375,2221 6242,2174 6138,2156C6060,2142 6060,2142 5957,2175C5901,2194 5812,2213 5760,2219C5708,2225 5627,2241 5581,2255C5534,2269 5488,2280 5479,2280C5470,2280 5438,2253 5408,2220L5355,2161L5263,2151C5187,2143 5156,2134 5089,2101C4998,2055 4941,2049 4888,2076C4871,2085 4815,2119 4763,2152L4670,2212L4531,2205L4393,2198L4295,2241C4218,2275 4190,2293 4161,2328C4141,2352 4100,2386 4070,2405C4006,2444 3964,2485 3979,2494C3992,2503 4177,2530 4222,2530C4242,2530 4313,2514 4380,2495C4475,2468 4520,2460 4584,2460C4662,2460 4670,2462 4706,2491C4775,2546 4790,2550 4917,2550L5035,2550L5213,2410L5391,2410L5488,2480C5541,2518 5588,2550 5591,2550C5594,2550 5615,2536 5636,2519C5671,2492 5680,2489 5720,2494C5745,2497 5806,2520 5855,2545L5945,2589L6110,2587C6275,2585 6275,2585 6375,2547Z" style="fill:rgb(255,238,0);fill-rule:nonzero;stroke:rgb(255,238,0);stroke-width:30px;"/>
            <path d="M2915,1543C2840,1530 2792,1510 2834,1510C2856,1510 3021,1529 3070,1537L3105,1543L3075,1550C3032,1561 3005,1560 2915,1543Z" style="fill:rgb(255,238,0);fill-rule:nonzero;stroke:rgb(255,238,0);stroke-width:30px;"/>
            <path d="M3240,1541C3261,1529 3420,1519 3420,1529C3420,1543 3380,1550 3300,1550C3254,1549 3231,1546 3240,1541Z" style="fill:rgb(255,238,0);fill-rule:nonzero;stroke:rgb(255,238,0);stroke-width:30px;"/>
            <path d="M2930,1330C2887,1317 2926,1312 3110,1306C3309,1300 3326,1315 3137,1330C3008,1341 2965,1341 2930,1330Z" style="fill:rgb(255,238,0);fill-rule:nonzero;stroke:rgb(255,238,0);stroke-width:30px;"/>
            <path d="M3370,1283C3370,1272 3451,1248 3459,1256C3469,1265 3442,1281 3407,1287C3385,1290 3370,1289 3370,1283Z" style="fill:rgb(255,238,0);fill-rule:nonzero;stroke:rgb(255,238,0);stroke-width:30px;"/>
            <path d="M2958,1138C2951,1134 2947,1130 2950,1130C2953,1129 3000,1125 3055,1120C3110,1116 3182,1108 3214,1104C3255,1099 3271,1100 3267,1107C3255,1127 2982,1154 2958,1138Z" style="fill:rgb(255,238,0);fill-rule:nonzero;stroke:rgb(255,238,0);stroke-width:30px;"/>
            <path d="M2802,894C2784,886 2726,877 2674,873C2578,867 2548,856 2595,844C2634,834 2744,848 2810,871L2867,891L2926,852C3000,804 3116,752 3171,744C3238,733 3211,753 3112,789C3063,806 2990,841 2949,865C2869,913 2853,916 2802,894Z" style="fill:rgb(255,238,0);fill-rule:nonzero;stroke:rgb(255,238,0);stroke-width:30px;"/>
            <path d="M3260,705C3260,696 3322,669 3328,675C3337,684 3300,710 3278,710C3268,710 3260,708 3260,705Z" style="fill:rgb(255,238,0);fill-rule:nonzero;stroke:rgb(255,238,0);stroke-width:30px;"/>
            <path d="M5355,3951C5318,3938 5303,3927 5294,3904C5286,3884 5264,3864 5230,3846C5202,3831 5176,3811 5173,3801C5170,3792 5156,3773 5142,3758C5118,3732 5115,3732 5030,3737C4951,3742 4938,3740 4886,3717C4845,3698 4830,3695 4830,3705C4830,3722 4927,3800 4949,3800C4958,3800 4983,3788 5005,3775C5054,3745 5085,3744 5129,3771C5175,3799 5161,3806 5111,3780C5066,3758 5075,3756 4986,3807C4953,3827 4936,3823 4871,3779C4827,3749 4810,3732 4810,3716C4810,3704 4799,3683 4785,3670C4759,3646 4752,3620 4771,3620C4777,3620 4798,3633 4816,3650C4896,3720 5001,3744 5078,3710L5110,3696L5173,3756C5237,3818 5292,3866 5326,3887C5396,3933 5414,3946 5418,3958C5423,3973 5419,3972 5355,3951Z" style="fill:rgb(255,238,0);fill-rule:nonzero;stroke:rgb(255,238,0);stroke-width:30px;"/>
            <path d="M1348,2483L1345,2425L1295,2419L1245,2414L1304,2386C1374,2352 1389,2357 1404,2421C1414,2459 1419,2465 1444,2468C1489,2473 1558,2432 1613,2365C1692,2270 1694,2282 1624,2422C1602,2468 1590,2481 1566,2486C1549,2490 1524,2500 1510,2510C1496,2519 1455,2530 1418,2534L1351,2540L1348,2483ZM1534,2477C1567,2459 1596,2438 1598,2430C1602,2418 1598,2419 1579,2433C1531,2467 1480,2490 1451,2490C1415,2490 1380,2450 1380,2409C1380,2387 1375,2380 1360,2380C1336,2380 1335,2386 1355,2406C1364,2415 1370,2440 1370,2466L1370,2510L1423,2510C1462,2510 1489,2502 1534,2477Z" style="fill:rgb(255,238,0);fill-rule:nonzero;stroke:rgb(255,238,0);stroke-width:30px;"/>
            <path d="M4270,1884C4270,1880 4286,1857 4306,1833L4342,1789L4404,1795C4464,1802 4467,1801 4507,1768C4529,1750 4556,1730 4566,1724C4584,1713 4584,1711 4562,1659C4527,1579 4527,1576 4553,1548C4574,1525 4582,1523 4628,1528C4673,1532 4686,1529 4727,1502C4771,1475 4784,1472 4875,1468L4974,1465L4981,1505C4996,1591 5004,1600 5060,1600C5100,1600 5116,1605 5133,1623C5151,1642 5183,1690 5198,1723C5206,1739 5179,1729 5138,1700C5111,1681 5072,1666 5035,1659C4973,1648 4930,1627 4930,1609C4930,1585 4897,1530 4882,1530C4874,1530 4852,1542 4833,1556C4811,1573 4779,1585 4743,1589C4660,1601 4639,1641 4681,1709C4692,1727 4699,1748 4696,1755C4693,1763 4664,1771 4625,1775C4564,1782 4557,1785 4525,1823L4490,1863L4437,1850C4382,1837 4371,1840 4278,1888C4273,1890 4270,1888 4270,1884ZM4508,1811L4524,1787L4491,1805C4465,1818 4445,1821 4408,1816C4381,1812 4354,1813 4347,1817C4340,1822 4358,1828 4390,1831C4473,1840 4491,1837 4508,1811ZM4623,1754C4649,1751 4670,1744 4670,1740C4670,1736 4663,1719 4654,1701C4623,1639 4663,1575 4737,1568C4767,1565 4801,1553 4827,1536C4886,1497 4910,1503 4939,1567C4965,1623 4992,1640 5054,1640C5071,1640 5096,1647 5108,1656C5134,1674 5149,1668 5131,1646C5125,1639 5094,1630 5063,1628C4998,1622 4987,1611 4964,1532L4948,1479L4904,1485C4880,1488 4839,1493 4813,1496C4787,1499 4750,1513 4731,1526C4703,1545 4682,1550 4633,1550C4553,1550 4543,1564 4576,1634C4608,1703 4607,1726 4570,1745C4537,1762 4530,1774 4558,1766C4567,1763 4596,1758 4623,1754Z" style="fill:rgb(255,238,0);fill-rule:nonzero;stroke:rgb(255,238,0);stroke-width:30px;"/>
            <path d="M2574,1468C2559,1444 2536,1414 2521,1400C2503,1383 2490,1356 2482,1315C2464,1234 2451,1210 2424,1210C2411,1210 2386,1201 2368,1190C2350,1179 2329,1170 2322,1170C2315,1170 2291,1161 2269,1150L2228,1131L2177,1165C2149,1184 2124,1198 2122,1195C2120,1193 2123,1175 2130,1155C2144,1113 2170,1094 2225,1086C2247,1082 2277,1075 2291,1069C2306,1063 2331,1060 2346,1062C2371,1064 2380,1075 2404,1127C2432,1186 2435,1189 2480,1200C2506,1206 2536,1210 2546,1208C2563,1205 2565,1212 2566,1260C2566,1290 2574,1339 2583,1368C2594,1405 2596,1420 2588,1418C2581,1415 2573,1401 2569,1386C2564,1370 2551,1347 2538,1333C2516,1309 2516,1309 2535,1275C2545,1255 2551,1237 2548,1235C2545,1232 2526,1226 2505,1223C2469,1217 2468,1218 2479,1239C2486,1250 2495,1260 2500,1260C2505,1260 2507,1267 2504,1275C2492,1305 2511,1357 2548,1397C2596,1451 2623,1497 2611,1505C2605,1508 2589,1491 2574,1468ZM2414,1178C2380,1122 2347,1080 2338,1080C2320,1080 2246,1103 2236,1111C2225,1121 2236,1125 2313,1140C2349,1147 2370,1156 2370,1165C2370,1172 2380,1181 2393,1183C2405,1185 2416,1188 2418,1189C2420,1189 2418,1184 2414,1178ZM2200,1130C2214,1119 2219,1110 2212,1110C2193,1110 2160,1129 2160,1140C2160,1155 2172,1152 2200,1130Z" style="fill:rgb(255,238,0);fill-rule:nonzero;stroke:rgb(255,238,0);stroke-width:30px;"/>
        </g>
    </g>
</svg>
