<?xml version="1.0" encoding="UTF-8" standalone="no"?>
<!DOCTYPE svg PUBLIC "-//W3C//DTD SVG 1.1//EN" "http://www.w3.org/Graphics/SVG/1.1/DTD/svg11.dtd">
<svg width="100%" height="100%" viewBox="0 0 800 727" version="1.1" xmlns="http://www.w3.org/2000/svg" xmlns:xlink="http://www.w3.org/1999/xlink" xml:space="preserve" xmlns:serif="http://www.serif.com/" style="fill-rule:evenodd;clip-rule:evenodd;stroke-linejoin:round;stroke-miterlimit:2;">
    <g transform="matrix(0.1,0,0,-0.1,0,727)">
        <g transform="matrix(-1,0,0,1,8030.94,0)">
            <path d="M1878,7052C1858,7050 1837,7043 1831,7036C1823,7026 1841,7024 1918,7024C2007,7025 2021,7022 2082,6993C2124,6973 2154,6952 2160,6938C2170,6915 2217,6567 2245,6315C2262,6158 2282,6009 2310,5813C2321,5741 2330,5679 2330,5676C2330,5674 2336,5665 2344,5658C2351,5651 2404,5600 2461,5544C2553,5454 2641,5381 2886,5191C2988,5112 3087,4980 3188,4790C3255,4666 3266,4617 3275,4421L3282,4257L3424,4046C3502,3930 3627,3745 3702,3635C3841,3429 3880,3363 3880,3334C3880,3302 3700,3322 3337,3394C3157,3430 3005,3462 3000,3465C2995,3468 2979,3491 2964,3516C2939,3558 2920,3573 2920,3548C2920,3538 2986,3423 3162,3125C3253,2971 3300,2870 3307,2813L3313,2761L3276,2755C3223,2745 3112,2757 2882,2799L2679,2836L2658,2871C2646,2890 2635,2900 2633,2893C2627,2877 2658,2819 2732,2706C2977,2333 3061,2184 3047,2145C3035,2114 2929,2127 2586,2203C2405,2244 2386,2250 2364,2276C2317,2334 2342,2273 2441,2091C2497,1989 2589,1819 2647,1714C2704,1609 2754,1506 2757,1485L2763,1447L2597,1454C2505,1458 2339,1467 2228,1475C1988,1492 1910,1494 1910,1480C1910,1461 1989,1293 2237,780C2332,585 2357,524 2348,515C2342,509 2140,547 1920,597C1684,650 1502,690 1427,704C1328,724 1346,701 1449,675C1530,655 1533,653 1603,580C1643,538 1730,447 1798,377C1865,307 1920,246 1920,241C1920,232 1894,235 1816,252C1767,263 1479,412 1250,544C1187,580 1124,616 1110,624C1096,631 1073,662 1058,691C1033,739 710,1704 615,2015C594,2081 563,2182 544,2240C445,2553 465,2527 726,2007C800,1860 869,1725 879,1707C889,1689 930,1612 970,1535C1010,1458 1060,1364 1080,1325C1100,1287 1122,1238 1129,1218C1136,1197 1145,1180 1150,1180C1154,1180 1161,1649 1164,2223C1169,3209 1172,3360 1189,3360C1193,3360 1202,3343 1209,3323C1270,3150 1485,2629 1724,2075C1838,1811 1860,1767 1860,1804C1860,1822 1771,2047 1738,2113L1719,2152L1774,2328C1804,2425 1871,2651 1924,2830C2073,3336 2044,3275 2195,3420C2267,3489 2370,3588 2425,3640C2604,3810 2667,3875 2685,3910C2701,3941 2702,3963 2696,4105C2686,4364 2638,4833 2618,4880C2598,4928 2599,4880 2624,4648C2651,4403 2665,4234 2675,4060C2681,3955 2681,3955 2651,3910C2622,3867 2135,3385 2067,3332C2033,3305 2012,3244 1874,2770C1792,2486 1717,2244 1709,2235C1694,2220 1698,2250 1741,2477C1763,2597 1788,2733 1796,2780C1849,3085 1883,3266 1891,3288C1901,3313 2161,3570 2419,3811L2553,3935L2547,4135C2540,4353 2533,4420 2517,4420C2511,4420 2509,4386 2513,4323C2517,4269 2523,4162 2526,4085L2533,3945L2284,3711C2147,3582 2003,3450 1963,3417C1877,3347 1857,3309 1836,3185C1798,2958 1739,2623 1729,2581C1723,2556 1710,2481 1699,2415C1687,2349 1675,2292 1671,2288C1668,2284 1641,2335 1613,2403C1584,2470 1525,2611 1480,2715C1359,2999 1357,2944 1500,3161C1567,3262 1628,3361 1637,3380C1654,3421 1694,4145 1680,4170C1665,4196 1661,4149 1642,3775C1620,3360 1634,3411 1489,3193C1440,3119 1393,3045 1384,3028C1375,3011 1365,3002 1360,3006C1356,3011 1323,3094 1286,3190C1222,3360 1190,3414 1167,3391C1150,3374 1141,3297 1140,3158C1140,3083 1136,3019 1131,3016C1116,3007 819,3388 735,3525C676,3622 681,3615 674,3607C663,3596 683,3556 763,3437C832,3333 1023,3086 1104,2996C1123,2975 1130,2956 1130,2927L1130,2887L1027,2892C962,2896 912,2904 893,2913C852,2935 723,3056 623,3169C515,3290 446,3395 421,3481C396,3562 374,3585 384,3519C400,3407 523,3227 710,3040C825,2924 883,2883 948,2870C975,2865 1013,2853 1033,2844C1066,2828 1072,2819 1100,2736L1130,2645L1130,1300C1130,1283 983,1559 804,1915C695,2131 646,2224 547,2413C507,2489 480,2510 466,2474C455,2444 460,2421 531,2193C701,1642 935,932 1007,743C1045,643 1075,607 1157,565C1178,554 1244,516 1305,481C1478,381 1783,231 1838,220C1900,206 1944,212 1948,233C1950,242 1904,300 1836,372L1721,495L1793,500C1865,505 1865,505 1866,535C1867,552 1868,568 1869,571C1869,575 1932,565 2008,549C2329,480 2349,477 2365,490C2373,497 2380,509 2380,517C2380,540 2314,690 2217,885C2111,1098 1990,1358 1990,1371C1990,1376 2011,1380 2036,1380L2083,1380L2077,1415C2074,1434 2075,1452 2080,1455C2089,1461 2342,1443 2371,1434C2383,1431 2390,1397 2403,1277C2424,1090 2449,939 2462,922C2468,915 2479,911 2487,912C2497,914 2508,895 2521,852C2544,778 2556,775 2636,821L2690,852L2708,820C2740,761 2780,710 2794,710C2802,710 2834,731 2865,756C2907,790 2925,799 2933,791C2939,785 2952,780 2962,780C2991,780 3151,1004 3279,1227C3347,1346 3338,1365 3239,1314C3211,1300 3185,1291 3182,1294C3176,1301 3227,1417 3246,1438C3260,1455 3404,1445 3418,1426C3423,1420 3435,1386 3444,1350C3464,1276 3521,1103 3544,1047C3555,1022 3567,1010 3580,1010C3595,1010 3607,993 3629,945C3645,909 3665,880 3672,880C3679,880 3708,894 3735,910C3763,926 3788,940 3792,940C3796,940 3818,915 3840,885C3862,855 3887,830 3894,830C3902,830 3928,854 3954,884C3984,920 4010,940 4026,942C4047,944 4063,962 4101,1025C4157,1116 4198,1200 4241,1307C4289,1428 4276,1458 4197,1405C4177,1391 4160,1383 4160,1388C4160,1393 4169,1439 4179,1491C4190,1543 4201,1605 4204,1630C4210,1673 4215,1679 4297,1740C4627,1989 4860,2436 4860,2820C4860,2862 4863,2899 4866,2903C4869,2906 4928,2859 4996,2798C5092,2712 5119,2683 5114,2668C5111,2658 5086,2604 5058,2547C4973,2373 4920,2251 4920,2225C4920,2188 4945,2181 5014,2197C5102,2217 5354,2286 5460,2319C5524,2340 5550,2344 5550,2335C5550,2328 5525,2263 5495,2189C5400,1961 5392,1910 5451,1910C5468,1910 5543,1926 5618,1946C5757,1982 6040,2058 6072,2067C6086,2071 6077,2045 6034,1954C5943,1761 5910,1673 5910,1629L5910,1587L5963,1594C6010,1599 6501,1719 6544,1736C6568,1745 6565,1729 6510,1540C6484,1454 6467,1373 6466,1340L6465,1285L6500,1282C6519,1280 6624,1302 6733,1330C6842,1357 6933,1380 6936,1380C6938,1380 6940,1374 6940,1366C6940,1335 6967,1328 7022,1344C7051,1352 7076,1358 7077,1356C7079,1355 7053,1291 7020,1216C6987,1141 6960,1072 6960,1064C6960,1036 7008,1051 7101,1106C7287,1219 7456,1346 7588,1472L7650,1533L7650,1606C7650,1647 7643,1726 7635,1782C7588,2095 7526,2205 7135,2680C6913,2949 6792,3106 6706,3235C6584,3419 6544,3513 6483,3759C6421,4014 6374,4120 6254,4280C6163,4401 6034,4533 5925,4618C5707,4787 5291,4920 4898,4946C4780,4954 4727,4941 4611,4870C4442,4769 4307,4632 4238,4493L4208,4431L4212,4265C4214,4174 4215,4100 4214,4100C4213,4100 4184,4116 4151,4135C3912,4269 3679,4331 3395,4334L3305,4335L3299,4471C3291,4627 3286,4647 3218,4784C3159,4901 3138,4934 3047,5058C2988,5138 2956,5168 2826,5268C2593,5448 2409,5613 2367,5680C2350,5707 2314,5936 2280,6230C2268,6332 2243,6534 2224,6680C2185,6975 2189,6966 2100,7014C2049,7042 1953,7058 1878,7052ZM5135,4890C5384,4848 5589,4783 5758,4695C5891,4624 6057,4481 6186,4325C6338,4141 6391,4030 6460,3750C6503,3577 6526,3509 6576,3407C6663,3233 6802,3041 7109,2670C7369,2357 7499,2171 7548,2045C7587,1945 7620,1744 7620,1610L7620,1531L7546,1465C7441,1370 7337,1292 7166,1179C7033,1090 6990,1068 6990,1086C6990,1110 7035,1155 7116,1209C7197,1265 7295,1353 7357,1427C7367,1438 7406,1458 7443,1470C7482,1483 7508,1496 7503,1501C7498,1506 7430,1490 7345,1464C7143,1403 6978,1360 6969,1365C6960,1371 6969,1408 7015,1550C7035,1613 7057,1681 7062,1700C7068,1719 7097,1808 7126,1898C7156,1987 7183,2080 7187,2105C7193,2149 7192,2150 7164,2150C7148,2150 7072,2136 6995,2119C6741,2064 6476,2010 6453,2010C6438,2010 6430,2016 6430,2028C6430,2043 6468,2193 6561,2541C6590,2651 6593,2670 6580,2685C6567,2700 6565,2700 6551,2681C6538,2665 6481,2648 6265,2600C5870,2511 5867,2510 5862,2515C5855,2522 5881,2614 5960,2860C5999,2978 6033,3089 6036,3107C6044,3148 6035,3176 6017,3162C6004,3152 6002,3151 5616,3085C5474,3060 5348,3040 5338,3040C5310,3040 5314,3058 5394,3345C5479,3646 5479,3645 5469,3661C5463,3671 5458,3671 5447,3662C5439,3655 5354,3641 5259,3630C5163,3619 5069,3608 5050,3605C5031,3602 4979,3598 4935,3595C4891,3592 4824,3587 4786,3584L4718,3577L4725,3601C4738,3640 4842,3864 4924,4029C4967,4113 4999,4189 4996,4197C4993,4205 4986,4209 4982,4206C4977,4203 4951,4212 4924,4225C4897,4239 4869,4250 4862,4250C4854,4250 4814,4262 4772,4276C4678,4307 4497,4340 4413,4340C4362,4340 4346,4336 4323,4316C4286,4285 4270,4232 4270,4141C4270,4102 4266,4070 4261,4070C4250,4070 4243,4132 4234,4290C4228,4412 4228,4417 4253,4467C4298,4554 4341,4612 4430,4701C4522,4793 4674,4893 4758,4917C4819,4933 4918,4926 5135,4890ZM4593,4289C4775,4253 4970,4185 4958,4162C4830,3907 4719,3671 4696,3606C4690,3589 4683,3596 4653,3646C4594,3745 4496,3862 4395,3957L4300,4047L4300,4127C4300,4242 4325,4305 4374,4312C4409,4318 4490,4309 4593,4289ZM3541,4300C3886,4268 4180,4131 4421,3891C4709,3602 4859,3215 4836,2816C4822,2568 4751,2351 4604,2103C4585,2070 4553,2047 4563,2074C4566,2082 4572,2146 4575,2216C4582,2343 4573,2425 4555,2425C4549,2425 4521,2382 4492,2330C4382,2135 4274,1966 4240,1935C4223,1919 4220,1921 4181,1988C4159,2026 4134,2063 4125,2070C4107,2085 4105,2083 3990,1972C3904,1890 3846,1845 3832,1854C3827,1857 3800,1897 3772,1943C3743,1990 3713,2033 3705,2040C3688,2054 3661,2039 3521,1940C3475,1907 3433,1880 3428,1880C3417,1880 3408,1902 3304,2165C3257,2286 3212,2397 3204,2412C3177,2464 3155,2448 3094,2333C3073,2293 3052,2260 3048,2260C3044,2260 3034,2273 3025,2289C3005,2329 2906,2486 2797,2653C2748,2729 2709,2793 2712,2795C2716,2800 2781,2790 3034,2746C3083,2737 3167,2730 3222,2730C3315,2730 3321,2731 3331,2753C3345,2785 3328,2874 3296,2937C3283,2963 3249,3026 3220,3075L3168,3165L3219,3262C3276,3368 3273,3408 3216,3306C3197,3271 3175,3230 3169,3214C3160,3190 3156,3188 3149,3200C3095,3285 3022,3416 3025,3421C3028,3424 3082,3416 3147,3404C3675,3299 3856,3275 3895,3304C3912,3316 3913,3322 3901,3360C3894,3384 3770,3579 3616,3809C3466,4032 3334,4232 3321,4253L3298,4290L3320,4298C3355,4311 3417,4312 3541,4300ZM5434,3598C5422,3559 5345,3271 5315,3154C5299,3093 5290,3036 5293,3026C5303,3000 5283,2997 5908,3106C5959,3115 6004,3120 6007,3117C6010,3114 5984,3024 5950,2918C5916,2812 5878,2691 5865,2650C5830,2542 5826,2506 5843,2492C5859,2479 5862,2480 6325,2585C6434,2610 6530,2630 6537,2630C6556,2630 6553,2610 6515,2476C6437,2199 6397,2025 6406,1998C6411,1980 6418,1978 6464,1983C6492,1986 6654,2018 6824,2055C6994,2091 7141,2120 7151,2118C7167,2115 7167,2110 7146,2045C7133,2007 7093,1881 7056,1765C6959,1457 6967,1475 6917,1460C6797,1424 6519,1354 6515,1359C6510,1369 6566,1613 6580,1640C6595,1668 6630,1793 6630,1819C6630,1829 6623,1840 6615,1843C6607,1847 6505,1823 6388,1790C6089,1708 5978,1679 5975,1682C5970,1686 6010,1811 6023,1835C6080,1941 6151,2100 6157,2137C6162,2165 6160,2170 6143,2170C6133,2170 6025,2142 5904,2109C5598,2023 5509,2000 5482,2000C5468,2000 5461,1996 5466,1989C5477,1970 5559,1987 5851,2071C6004,2114 6131,2150 6134,2150C6137,2150 6140,2143 6140,2135C6140,2127 6134,2120 6127,2120C6120,2120 6109,2115 6103,2109C6096,2102 6043,2085 5983,2070C5924,2054 5786,2019 5677,1991C5437,1929 5436,1929 5445,1973C5454,2014 5458,2020 5474,2020C5495,2020 5659,2425 5644,2440C5639,2445 5606,2439 5560,2424C5438,2383 5038,2263 4998,2256C4974,2252 4960,2253 4960,2260C4960,2265 4964,2270 4969,2270C4974,2270 4984,2286 4990,2306C4997,2325 5040,2418 5087,2512C5133,2606 5168,2686 5163,2690C5159,2694 5115,2732 5065,2775C5016,2817 4950,2876 4919,2906L4863,2959L4857,3047C4850,3149 4796,3356 4751,3455C4734,3492 4720,3528 4720,3535C4720,3544 4747,3550 4808,3555C4919,3563 5362,3610 5375,3615C5381,3617 5398,3619 5413,3619C5438,3620 5440,3617 5434,3598ZM1127,2800C1129,2753 1128,2749 1119,2770C1076,2871 1077,2862 1102,2858C1122,2855 1125,2849 1127,2800ZM5606,2369L5591,2335L5590,2364C5590,2387 5587,2391 5573,2385C5471,2342 4972,2208 4955,2218C4950,2222 4965,2229 4990,2233C5049,2245 5378,2340 5505,2382C5560,2400 5608,2413 5613,2409C5617,2406 5614,2388 5606,2369ZM3203,2353C3217,2321 3263,2205 3305,2096C3347,1986 3388,1884 3396,1868C3411,1839 3412,1839 3438,1856C3467,1874 3553,1934 3632,1990C3678,2022 3680,2023 3699,2006C3709,1996 3740,1953 3766,1910C3792,1866 3820,1828 3828,1825C3848,1818 3886,1846 4004,1955C4058,2005 4105,2046 4110,2048C4115,2050 4137,2020 4159,1982C4215,1887 4220,1883 4257,1923C4305,1972 4435,2173 4493,2287C4522,2344 4548,2390 4553,2390C4562,2390 4562,2325 4550,2168C4539,2010 4529,1990 4413,1880C4193,1671 3982,1558 3695,1493C3635,1480 3571,1475 3435,1475L3255,1475L3203,1512C3152,1548 3042,1595 3033,1586C3023,1576 3042,1561 3083,1547C3151,1524 3210,1483 3210,1459C3210,1417 3061,1120 3040,1120C3036,1120 3027,1134 3020,1150C2995,1211 2966,1208 2822,1136C2783,1116 2744,1100 2735,1100C2726,1100 2697,1146 2660,1221C2600,1340 2599,1341 2567,1338C2536,1335 2535,1336 2532,1378L2529,1420L2647,1420C2712,1420 2771,1424 2779,1429C2799,1442 2788,1497 2750,1578C2733,1614 2722,1645 2724,1648C2727,1650 2757,1643 2791,1631C2826,1619 2861,1610 2869,1610C2899,1611 2851,1638 2781,1661C2745,1672 2705,1692 2693,1705C2681,1718 2639,1788 2600,1860C2520,2006 2520,2007 2560,2113C2576,2155 2587,2170 2600,2170C2611,2170 2655,2133 2701,2085C2796,1987 2884,1916 2902,1923C2909,1925 2934,1966 2957,2013C2994,2087 3004,2100 3034,2110C3074,2123 3083,2142 3071,2185C3064,2211 3070,2229 3113,2313C3141,2366 3167,2410 3171,2410C3174,2410 3189,2384 3203,2353ZM2493,2195C2560,2179 2567,2175 2553,2158C2547,2151 2535,2121 2525,2092C2516,2062 2504,2042 2500,2047C2496,2051 2474,2090 2451,2133C2405,2217 2404,2217 2493,2195ZM2798,2130C2854,2119 2914,2110 2930,2110C2946,2110 2962,2105 2965,2100C2972,2089 2900,1950 2888,1950C2879,1950 2685,2123 2675,2140C2666,2154 2681,2153 2798,2130ZM6590,1812C6590,1788 6556,1769 6475,1746C6341,1710 5972,1620 5955,1620C5946,1620 5940,1630 5940,1646C5940,1667 5944,1670 5960,1665C5970,1662 6010,1666 6047,1676C6170,1706 6554,1811 6559,1815C6566,1823 6590,1821 6590,1812ZM4175,1608C4169,1569 4108,1287 4091,1215L4083,1185L4064,1219C4054,1237 4036,1264 4024,1278L4004,1303L3944,1255C3912,1229 3866,1189 3843,1167C3820,1145 3795,1130 3788,1133C3780,1136 3751,1178 3723,1226C3653,1348 3616,1383 3595,1350C3582,1329 3572,1342 3568,1386C3566,1411 3569,1435 3575,1439C3580,1443 3628,1455 3680,1465C3816,1491 3940,1532 4060,1593C4118,1623 4169,1647 4173,1648C4178,1649 4179,1631 4175,1608ZM2041,1438C2054,1414 2053,1413 2012,1407C1986,1403 1976,1406 1964,1425C1955,1438 1951,1453 1954,1458C1963,1474 2030,1459 2041,1438ZM3538,1414C3534,1411 3522,1415 3510,1423C3495,1434 3492,1439 3502,1443C3517,1448 3547,1424 3538,1414ZM2484,1430C2508,1421 2510,1416 2510,1360C2510,1307 2506,1296 2484,1275C2439,1233 2463,1228 2510,1270C2535,1291 2562,1309 2570,1310C2579,1310 2606,1269 2639,1207C2692,1107 2716,1070 2730,1070C2734,1070 2786,1093 2844,1120C2902,1148 2957,1170 2966,1170C2976,1170 2994,1143 3013,1100C3031,1062 3051,1030 3057,1030C3066,1030 3067,1036 3059,1053C3050,1072 3056,1089 3099,1161C3146,1242 3153,1249 3219,1283C3257,1303 3291,1316 3294,1312C3304,1295 3073,933 2996,844C2962,805 2934,803 2958,840C2968,856 2968,860 2956,860C2948,860 2938,855 2935,849C2922,829 2797,731 2789,735C2785,738 2765,769 2746,805C2726,840 2705,872 2700,875C2694,878 2664,865 2632,846C2601,826 2572,810 2568,810C2565,810 2552,840 2540,878C2528,915 2516,952 2514,960C2509,972 2506,972 2495,956C2484,941 2479,940 2476,951C2459,1000 2406,1416 2415,1430C2423,1443 2452,1443 2484,1430ZM6948,1428C6944,1416 6586,1316 6523,1308C6501,1306 6494,1310 6492,1326C6489,1344 6493,1346 6518,1342C6544,1339 6758,1388 6870,1424C6928,1442 6953,1443 6948,1428ZM3552,1339C3552,1328 3553,1315 3554,1308C3556,1287 3533,1289 3521,1312C3511,1333 3510,1331 3516,1300C3519,1281 3522,1257 3522,1248C3521,1217 3537,1228 3569,1281C3590,1314 3606,1330 3617,1328C3627,1326 3663,1278 3698,1220C3757,1123 3774,1101 3792,1100C3796,1100 3841,1136 3892,1180C3943,1224 3990,1260 3997,1260C4004,1260 4026,1235 4045,1204C4065,1172 4085,1151 4090,1156C4094,1161 4110,1204 4124,1251C4150,1337 4163,1356 4209,1380C4232,1392 4233,1392 4226,1359C4208,1269 4060,990 4030,990C4021,990 3990,965 3960,935C3930,905 3900,880 3894,880C3888,880 3866,900 3846,925C3825,950 3801,970 3792,970C3783,970 3757,959 3735,945C3713,932 3689,920 3683,920C3676,920 3657,949 3641,985C3619,1033 3606,1050 3592,1050C3576,1050 3565,1070 3536,1152C3497,1260 3460,1389 3460,1415C3460,1438 3550,1363 3552,1339ZM7260,1359C7219,1321 7172,1282 7155,1273C7139,1265 7110,1246 7092,1233C7074,1219 7056,1210 7054,1213C7051,1216 7064,1252 7083,1294L7118,1369L7192,1390C7232,1402 7274,1415 7285,1420C7337,1442 7329,1423 7260,1359ZM1814,580C1829,565 1790,568 1707,586C1630,604 1600,616 1600,629C1600,640 1801,593 1814,580ZM1778,553C1858,544 1851,530 1767,530C1704,530 1690,533 1674,552L1655,573L1690,566C1709,562 1749,556 1778,553Z" style="fill:rgb(203,153,24);fill-rule:nonzero;stroke:rgb(203,153,24);stroke-width:40px;"/>
        </g>
        <g transform="matrix(-1,0,0,1,8030.94,0)">
            <path d="M4503,3688C4506,3681 4529,3614 4554,3540C4598,3408 4623,3290 4635,3160C4638,3124 4643,3085 4646,3073C4656,3024 4633,3054 4589,3148C4563,3201 4515,3286 4482,3336C4419,3432 4304,3563 4287,3557C4282,3556 4269,3525 4258,3490C4229,3393 4190,3291 4178,3284C4173,3281 4130,3319 4083,3369C4036,3420 3968,3486 3932,3517L3866,3572L3848,3550C3827,3524 3832,3511 3855,3530C3867,3540 3879,3534 3928,3492C3960,3464 4026,3398 4074,3346C4122,3293 4168,3250 4176,3250C4197,3250 4247,3365 4280,3490L4292,3535L4347,3475C4424,3391 4511,3256 4582,3110C4615,3041 4644,2983 4646,2981C4649,2978 4655,2981 4662,2988C4670,2996 4670,3032 4661,3132C4645,3302 4628,3390 4586,3520C4568,3578 4554,3627 4557,3629C4559,3632 4581,3614 4605,3590C4630,3566 4650,3551 4650,3557C4650,3563 4620,3598 4583,3634C4520,3697 4492,3715 4503,3688Z" style="fill:rgb(203,153,24);fill-rule:nonzero;stroke:rgb(203,153,24);stroke-width:40px;"/>
        </g>
        <g transform="matrix(-1,0,0,1,8030.94,0)">
            <path d="M3600,3286C3600,3277 3612,3257 3626,3243L3653,3216L3678,3245C3695,3265 3699,3275 3690,3278C3683,3281 3673,3275 3668,3265C3659,3250 3655,3251 3629,3276C3606,3298 3600,3300 3600,3286Z" style="fill:rgb(203,153,24);fill-rule:nonzero;stroke:rgb(203,153,24);stroke-width:40px;"/>
        </g>
        <g transform="matrix(-1,0,0,1,8030.94,0)">
            <path d="M4192,3180C4168,3152 4162,3122 4172,3075C4181,3032 4228,2980 4258,2980C4288,2980 4319,3009 4331,3050C4341,3084 4340,3096 4325,3131C4296,3195 4227,3220 4192,3180ZM4281,3151C4315,3116 4320,3065 4292,3030C4252,2980 4181,3043 4193,3117C4204,3185 4235,3197 4281,3151Z" style="fill:rgb(203,153,24);fill-rule:nonzero;stroke:rgb(203,153,24);stroke-width:40px;"/>
        </g>
        <g transform="matrix(-1,0,0,1,8030.94,0)">
            <path d="M3534,3166C3484,3144 3464,3080 3490,3022C3511,2974 3534,2960 3588,2960C3637,2960 3674,2988 3690,3036C3719,3123 3621,3205 3534,3166ZM3631,3137C3658,3117 3672,3081 3665,3050C3657,3015 3617,2980 3585,2980C3555,2980 3514,3014 3506,3044C3499,3073 3514,3118 3538,3136C3559,3153 3610,3153 3631,3137Z" style="fill:rgb(203,153,24);fill-rule:nonzero;stroke:rgb(203,153,24);stroke-width:40px;"/>
        </g>
        <g transform="matrix(-1,0,0,1,8030.94,0)">
            <path d="M3889,3001C3865,2976 3860,2964 3860,2921C3860,2880 3865,2865 3888,2840C3927,2797 3968,2791 4008,2825C4045,2856 4057,2904 4040,2954C4015,3030 3941,3053 3889,3001ZM4000,2972C4027,2939 4027,2877 4000,2850C3974,2824 3947,2825 3913,2854C3875,2887 3875,2953 3913,2986C3944,3013 3972,3008 4000,2972Z" style="fill:rgb(203,153,24);fill-rule:nonzero;stroke:rgb(203,153,24);stroke-width:40px;"/>
        </g>
        <g transform="matrix(-1,0,0,1,8030.94,0)">
            <path d="M4160,2847C4104,2803 4093,2722 4136,2671C4173,2626 4218,2628 4259,2675C4304,2726 4303,2779 4256,2826C4221,2861 4187,2869 4160,2847ZM4245,2807C4281,2755 4251,2668 4197,2668C4155,2668 4140,2687 4140,2742C4140,2825 4204,2865 4245,2807Z" style="fill:rgb(203,153,24);fill-rule:nonzero;stroke:rgb(203,153,24);stroke-width:40px;"/>
        </g>
        <g transform="matrix(-1,0,0,1,8030.94,0)">
            <path d="M3628,2811C3598,2785 3595,2776 3595,2726C3595,2655 3618,2629 3687,2623C3729,2618 3740,2622 3768,2645C3797,2669 3800,2677 3800,2724C3800,2766 3795,2781 3778,2797C3721,2848 3675,2853 3628,2811ZM3754,2779C3782,2746 3787,2705 3767,2679C3733,2635 3664,2632 3635,2673C3627,2685 3620,2711 3620,2732C3620,2809 3704,2838 3754,2779Z" style="fill:rgb(203,153,24);fill-rule:nonzero;stroke:rgb(203,153,24);stroke-width:40px;"/>
        </g>
        <g transform="matrix(-1,0,0,1,8030.94,0)">
            <path d="M3924,2636C3848,2603 3825,2513 3879,2459C3913,2426 3937,2423 3987,2447C4021,2463 4050,2508 4050,2546C4050,2576 4019,2627 3994,2639C3964,2653 3962,2652 3924,2636ZM4000,2600C4049,2551 4007,2460 3936,2460C3907,2460 3898,2465 3885,2491C3845,2567 3941,2659 4000,2600Z" style="fill:rgb(203,153,24);fill-rule:nonzero;stroke:rgb(203,153,24);stroke-width:40px;"/>
        </g>
        <g transform="matrix(-1,0,0,1,8030.94,0)">
            <path d="M3856,2266C3825,2238 3820,2226 3820,2189C3821,2134 3838,2111 3882,2103C3951,2092 4013,2148 4013,2221C4013,2276 3989,2300 3934,2300C3899,2300 3885,2294 3856,2266ZM3972,2263C4002,2236 3991,2174 3951,2143C3927,2124 3869,2127 3854,2148C3831,2177 3838,2210 3874,2246C3911,2283 3943,2289 3972,2263Z" style="fill:rgb(203,153,24);fill-rule:nonzero;stroke:rgb(203,153,24);stroke-width:40px;"/>
        </g>
        <g transform="matrix(-1,0,0,1,8030.94,0)">
            <path d="M1762,6960C1744,6932 1711,6872 1690,6827C1644,6732 1633,6675 1589,6320C1519,5751 1469,5538 1348,5307C1282,5181 1152,4970 1140,4970C1135,4970 1124,4996 1115,5028C1106,5059 1078,5147 1054,5222C1004,5375 990,5393 879,5445C817,5473 790,5477 790,5455C790,5447 799,5440 810,5440C837,5440 918,5399 958,5365C994,5335 1011,5292 1070,5086C1120,4915 1120,4921 1033,4821C1008,4792 991,4766 995,4762C1021,4736 1277,5106 1396,5342C1493,5535 1553,5805 1620,6355C1644,6550 1662,6675 1676,6726C1691,6785 1737,6882 1780,6945C1821,7006 1822,7010 1808,7010C1801,7010 1780,6987 1762,6960Z" style="fill:rgb(203,153,24);fill-rule:nonzero;stroke:rgb(203,153,24);stroke-width:40px;"/>
        </g>
        <g transform="matrix(-1,0,0,1,8030.94,0)">
            <path d="M714,5448C677,5422 584,5300 562,5250C543,5206 544,5054 565,4810C573,4714 580,4568 580,4486L580,4338L511,4131C442,3925 397,3748 384,3635C372,3525 397,3588 430,3750C450,3849 488,3985 536,4128L611,4350L605,4528C601,4625 592,4788 584,4888C563,5156 565,5195 597,5260C611,5289 652,5344 688,5381C754,5452 768,5486 714,5448Z" style="fill:rgb(203,153,24);fill-rule:nonzero;stroke:rgb(203,153,24);stroke-width:40px;"/>
        </g>
        <g transform="matrix(-1,0,0,1,8030.94,0)">
            <path d="M791,5338C792,5298 804,5263 813,5276C821,5290 809,5370 799,5370C794,5370 790,5355 791,5338Z" style="fill:rgb(203,153,24);fill-rule:nonzero;stroke:rgb(203,153,24);stroke-width:40px;"/>
        </g>
        <g transform="matrix(-1,0,0,1,8030.94,0)">
            <path d="M2169,5258C2134,5209 1939,4825 1786,4501C1672,4262 1662,4236 1680,4242C1686,4244 1733,4333 1784,4440C1835,4547 1930,4742 1995,4873C2095,5072 2117,5110 2135,5110C2164,5110 2171,5119 2158,5139C2151,5151 2155,5170 2174,5213C2196,5263 2202,5270 2228,5270C2252,5270 2280,5247 2391,5133C2465,5057 2538,4978 2554,4958C2583,4919 2600,4910 2600,4933C2600,4954 2355,5223 2284,5279C2240,5313 2205,5307 2169,5258Z" style="fill:rgb(203,153,24);fill-rule:nonzero;stroke:rgb(203,153,24);stroke-width:40px;"/>
        </g>
        <g transform="matrix(-1,0,0,1,8030.94,0)">
            <path d="M810,5198C811,5165 858,4899 864,4892C880,4877 879,4909 860,5031C835,5201 830,5220 819,5220C814,5220 810,5210 810,5198Z" style="fill:rgb(203,153,24);fill-rule:nonzero;stroke:rgb(203,153,24);stroke-width:40px;"/>
        </g>
        <g transform="matrix(-1,0,0,1,8030.94,0)">
            <path d="M2197,5123C2193,5120 2244,5064 2310,4998C2376,4933 2437,4869 2445,4857C2457,4839 2500,4521 2500,4451C2500,4440 2503,4439 2512,4448C2524,4460 2513,4624 2489,4786L2477,4865L2366,4978C2251,5096 2207,5134 2197,5123Z" style="fill:rgb(203,153,24);fill-rule:nonzero;stroke:rgb(203,153,24);stroke-width:40px;"/>
        </g>
        <g transform="matrix(-1,0,0,1,8030.94,0)">
            <path d="M832,4643C781,4577 748,4521 752,4509C755,4501 763,4505 773,4521C783,4534 811,4573 835,4608C860,4642 880,4672 880,4675C880,4690 858,4675 832,4643Z" style="fill:rgb(203,153,24);fill-rule:nonzero;stroke:rgb(203,153,24);stroke-width:40px;"/>
        </g>
        <g transform="matrix(-1,0,0,1,8030.94,0)">
            <path d="M702,4240C669,4170 598,3828 613,3813C626,3801 633,3820 647,3907C654,3955 674,4049 691,4114C721,4232 726,4292 702,4240Z" style="fill:rgb(203,153,24);fill-rule:nonzero;stroke:rgb(203,153,24);stroke-width:40px;"/>
        </g>
        <g transform="matrix(-1,0,0,1,8030.94,0)">
            <path d="M963,4083C856,3958 727,3775 732,3758C734,3752 776,3800 825,3866C873,3931 939,4017 972,4057C1004,4096 1030,4131 1030,4134C1030,4152 1007,4134 963,4083Z" style="fill:rgb(203,153,24);fill-rule:nonzero;stroke:rgb(203,153,24);stroke-width:40px;"/>
        </g>
        <g transform="matrix(-1,0,0,1,8030.94,0)">
            <path d="M2694,3783C2685,3751 2665,3678 2648,3621C2622,3528 2618,3484 2639,3519C2647,3531 2710,3749 2724,3813C2736,3865 2710,3840 2694,3783Z" style="fill:rgb(203,153,24);fill-rule:nonzero;stroke:rgb(203,153,24);stroke-width:40px;"/>
        </g>
        <g transform="matrix(-1,0,0,1,8030.94,0)">
            <path d="M530,3609C459,3576 454,3573 462,3565C470,3557 597,3609 611,3626C630,3649 602,3643 530,3609Z" style="fill:rgb(203,153,24);fill-rule:nonzero;stroke:rgb(203,153,24);stroke-width:40px;"/>
        </g>
        <g transform="matrix(-1,0,0,1,8030.94,0)">
            <path d="M2551,3310C2521,3217 2499,3138 2502,3134C2511,3125 2524,3154 2563,3270C2621,3443 2630,3480 2617,3480C2610,3480 2581,3404 2551,3310Z" style="fill:rgb(203,153,24);fill-rule:nonzero;stroke:rgb(203,153,24);stroke-width:40px;"/>
        </g>
        <g transform="matrix(-1,0,0,1,8030.94,0)">
            <path d="M2397,2865C2375,2816 2346,2741 2330,2700C2295,2607 2127,2216 2070,2097C2047,2048 2031,2006 2034,2002C2042,1994 2043,1995 2093,2095C2196,2303 2443,2901 2438,2934C2436,2948 2421,2923 2397,2865Z" style="fill:rgb(203,153,24);fill-rule:nonzero;stroke:rgb(203,153,24);stroke-width:40px;"/>
        </g>
        <g transform="matrix(-1,0,0,1,8030.94,0)">
            <path d="M1762,1490C1750,1476 1707,1414 1668,1350C1628,1287 1555,1172 1505,1095C1397,931 1387,913 1393,897C1397,884 1519,1065 1669,1305C1720,1388 1769,1463 1777,1472C1802,1500 1787,1517 1762,1490Z" style="fill:rgb(203,153,24);fill-rule:nonzero;stroke:rgb(203,153,24);stroke-width:40px;"/>
        </g>
        <g transform="matrix(-1,0,0,1,8030.94,0)">
            <path d="M1155,729C1100,706 1077,690 1101,690C1123,690 1232,728 1244,740C1261,757 1208,750 1155,729Z" style="fill:rgb(203,153,24);fill-rule:nonzero;stroke:rgb(203,153,24);stroke-width:40px;"/>
        </g>
    </g>
</svg>
