<?xml version="1.0" encoding="UTF-8" standalone="no"?>
<!DOCTYPE svg PUBLIC "-//W3C//DTD SVG 1.1//EN" "http://www.w3.org/Graphics/SVG/1.1/DTD/svg11.dtd">
<svg width="100%" height="100%" viewBox="0 0 900 1064" version="1.1" xmlns="http://www.w3.org/2000/svg" xmlns:xlink="http://www.w3.org/1999/xlink" xml:space="preserve" xmlns:serif="http://www.serif.com/" style="fill-rule:evenodd;clip-rule:evenodd;stroke-linejoin:round;stroke-miterlimit:2;">
    <g transform="matrix(1,0,0,0.886474,0,0)">
        <rect id="Artboard1" x="0" y="0" width="900" height="1200" style="fill:none;"/>
        <g id="Artboard11" serif:id="Artboard1">
            <g transform="matrix(0.1,0,0,-0.112807,0,1296.46)">
                <path d="M4823,11353C4801,11345 4809,11333 4838,11327C4860,11322 4871,11308 4897,11253C4914,11216 4934,11166 4941,11142C4948,11119 4959,11095 4967,11089C4974,11083 4980,11072 4980,11064C4980,11050 5002,10995 5027,10948C5043,10916 5064,10856 5121,10680C5143,10611 5165,10546 5169,10535C5184,10500 5301,10147 5312,10105C5318,10083 5333,10036 5346,10000C5358,9964 5381,9901 5395,9860C5409,9819 5425,9777 5431,9768C5436,9758 5440,9744 5440,9735C5440,9718 5467,9632 5479,9610C5484,9601 5491,9579 5494,9560C5498,9541 5505,9516 5510,9505C5518,9486 5581,9287 5586,9265C5587,9260 5602,9217 5618,9170C5687,8976 5699,8941 5729,8846C5746,8792 5760,8742 5760,8735C5760,8728 5768,8703 5779,8679C5789,8655 5801,8618 5804,8598C5811,8561 5810,8560 5780,8560C5761,8560 5750,8565 5750,8574C5750,8584 5728,8589 5673,8594C5630,8598 5559,8605 5515,8610C5471,8615 5383,8624 5320,8630C5257,8636 5151,8648 5085,8657C4842,8689 4787,8691 4362,8693L3930,8695L3936,8725C3939,8742 3958,8807 3977,8870C3996,8933 4016,8999 4021,9015C4025,9032 4037,9070 4046,9100C4055,9130 4068,9175 4075,9200C4088,9242 4099,9279 4166,9493C4180,9538 4198,9597 4207,9625C4215,9652 4231,9681 4241,9688C4251,9695 4260,9711 4260,9723C4260,9735 4271,9781 4285,9824C4299,9867 4310,9910 4310,9918C4310,9926 4325,9979 4344,10034C4363,10090 4386,10164 4395,10200C4418,10291 4440,10362 4451,10382C4456,10392 4460,10411 4460,10424C4460,10438 4464,10451 4469,10454C4474,10457 4481,10476 4484,10495C4488,10514 4502,10552 4515,10579C4529,10606 4540,10634 4540,10642C4540,10654 4554,10701 4606,10865C4615,10893 4625,10924 4629,10935C4634,10946 4645,10982 4655,11015C4678,11092 4762,11271 4783,11289C4803,11305 4805,11330 4787,11330C4779,11330 4766,11322 4758,11313C4725,11275 4640,11091 4640,11059C4640,11049 4636,11039 4631,11036C4626,11032 4619,11012 4615,10991C4611,10969 4602,10946 4595,10940C4587,10934 4565,10876 4545,10812C4525,10748 4504,10684 4500,10670C4495,10656 4477,10598 4459,10540C4442,10482 4417,10401 4404,10360C4391,10319 4380,10280 4380,10272C4380,10259 4365,10206 4330,10100C4320,10070 4308,10029 4305,10010C4301,9991 4294,9971 4291,9965C4287,9960 4273,9919 4260,9875C4240,9803 4181,9636 4159,9585C4154,9574 4146,9547 4141,9525C4126,9464 4114,9423 4085,9330C4070,9283 4054,9227 4049,9205C4043,9183 4031,9140 4021,9110C4003,9059 3988,9007 3954,8890C3947,8865 3931,8810 3919,8768L3896,8690L3840,8690C3760,8690 3425,8662 3360,8650C3330,8644 3271,8635 3230,8630C3189,8625 3135,8616 3110,8610C2943,8575 2909,8568 2855,8559C2822,8554 2781,8545 2763,8540C2745,8534 2715,8526 2697,8520C2679,8515 2655,8510 2645,8510C2635,8510 2619,8504 2611,8496C2602,8488 2559,8473 2515,8462C2420,8438 2327,8409 2210,8368C2163,8352 2110,8334 2091,8328C2073,8323 2042,8310 2023,8299C2003,8288 1986,8281 1983,8284C1980,8286 1957,8277 1932,8263C1906,8249 1863,8226 1836,8213C1780,8185 1671,8118 1620,8080C1601,8066 1556,8032 1520,8006C1436,7943 1351,7853 1289,7762C1242,7691 1240,7686 1240,7616C1240,7552 1244,7538 1271,7494C1322,7415 1339,7400 1510,7282C1609,7214 1827,7105 1897,7089C1923,7083 1960,7071 1978,7064C1996,7056 2019,7050 2029,7050C2039,7050 2050,7047 2053,7043C2064,7033 2186,7003 2270,6991C2311,6985 2374,6975 2410,6969C2566,6943 3061,6926 3089,6947C3098,6953 3103,6961 3100,6963C3097,6966 2985,6973 2850,6979C2518,6994 2343,7012 2160,7050C2130,7057 2098,7063 2090,7064C2082,7066 2068,7070 2060,7073C2052,7076 2020,7087 1990,7096C1960,7105 1917,7120 1895,7130C1873,7139 1845,7150 1833,7154C1753,7179 1532,7304 1439,7377C1382,7422 1320,7490 1320,7509C1320,7515 1316,7520 1311,7520C1306,7520 1299,7536 1296,7555C1285,7610 1319,7672 1403,7754C1460,7810 1497,7836 1580,7877C1638,7905 1696,7931 1710,7935C1724,7938 1744,7945 1755,7949C1808,7971 1859,7989 1895,7998C1989,8023 2028,8032 2080,8040C2110,8044 2164,8053 2200,8059C2389,8088 2500,8093 2975,8091C3245,8091 3501,8086 3545,8081C3618,8074 3666,8079 3644,8093C3639,8096 3581,8104 3515,8110C3376,8125 2525,8118 2375,8101C2326,8096 2227,8086 2155,8080C1977,8065 1868,8043 1783,8003C1743,7985 1706,7970 1700,7970C1687,7970 1612,7938 1555,7908C1509,7884 1381,7785 1362,7758C1355,7749 1344,7735 1337,7728C1330,7721 1316,7704 1307,7690C1294,7672 1290,7670 1290,7682C1290,7719 1443,7894 1555,7986C1588,8013 1617,8038 1620,8041C1633,8055 1919,8220 1931,8220C1939,8220 1962,8229 2065,8275C2093,8288 2138,8305 2165,8315C2193,8324 2224,8336 2235,8341C2246,8345 2280,8357 2310,8366C2340,8375 2376,8386 2390,8390C2404,8395 2429,8402 2445,8406C2462,8410 2477,8414 2480,8415C2496,8421 2530,8435 2567,8451C2613,8471 2637,8478 2775,8510C2825,8521 2879,8535 2895,8540C2912,8545 2961,8552 3005,8556C3049,8559 3094,8568 3105,8574C3116,8581 3161,8592 3205,8599C3249,8606 3303,8615 3325,8621C3431,8645 3665,8655 4110,8654C4366,8654 4609,8651 4650,8647C4735,8641 4932,8624 5065,8611C5308,8589 5602,8547 5780,8509C5805,8503 5857,8495 5895,8489C6067,8465 6175,8445 6330,8405C6366,8396 6413,8384 6435,8378C6490,8365 6499,8362 6545,8350C6567,8344 6610,8333 6640,8325C6670,8318 6736,8300 6785,8285C6835,8270 6893,8254 6915,8249C6937,8244 6964,8236 6975,8231C6986,8226 7024,8215 7060,8205C7096,8196 7139,8185 7155,8180C7172,8175 7214,8169 7250,8165C7286,8162 7333,8155 7355,8150C7391,8142 7463,8130 7655,8100C7840,8071 8035,8066 8193,8086C8249,8094 8258,8076 8203,8065C8183,8061 8146,8047 8121,8034C8096,8021 8069,8010 8063,8010C8056,8010 8050,8006 8050,8000C8050,7988 8067,7987 8074,7999C8077,8004 8094,8011 8112,8014C8130,8017 8155,8022 8166,8024C8178,8027 8208,8038 8233,8049C8258,8061 8284,8070 8290,8070C8295,8070 8308,8074 8318,8079C8327,8084 8349,8094 8365,8101C8382,8108 8399,8116 8404,8118C8424,8128 8392,8089 8350,8053C8244,7960 8070,7852 7880,7759C7735,7689 7754,7697 7580,7625C7506,7594 7436,7565 7425,7560C7340,7522 7286,7500 7275,7500C7268,7500 7246,7489 7226,7475C7206,7461 7177,7447 7162,7444C7147,7440 7131,7434 7125,7430C7101,7414 6901,7354 6805,7335C6760,7326 6638,7288 6611,7273C6580,7258 6577,7260 6549,7318C6536,7344 6506,7388 6481,7415C6419,7484 6215,7684 6182,7709C6165,7722 6160,7730 6170,7730C6178,7730 6271,7732 6375,7734C6604,7738 6868,7757 6889,7771C6900,7778 6884,7779 6835,7776C6797,7773 6691,7766 6600,7759C6448,7749 5994,7752 5915,7765C5862,7773 5627,7797 5580,7799C5555,7800 5492,7806 5440,7811C5388,7816 5318,7823 5285,7826C5252,7829 5203,7835 5175,7840C5148,7844 5121,7845 5115,7842C5106,7835 5125,7832 5258,7814L5310,7807L5310,7770C5310,7701 5274,7660 5174,7616C5130,7597 5091,7598 4978,7619C4888,7636 4817,7667 4749,7718C4676,7772 4650,7816 4657,7873C4663,7916 4670,7918 4757,7895C4825,7877 4875,7875 4848,7890C4839,7896 4810,7905 4783,7910C4757,7916 4706,7927 4670,7935C4634,7944 4578,7955 4545,7960C4401,7981 4385,7983 4395,7973C4401,7967 4458,7955 4523,7945L4640,7928L4640,7900C4640,7884 4636,7868 4630,7865C4617,7857 4618,7820 4633,7793C4653,7758 4723,7687 4765,7659C4805,7632 4867,7608 4905,7605C4950,7600 5068,7580 5084,7574C5118,7561 5189,7581 5250,7622C5316,7666 5340,7705 5340,7766C5340,7797 5343,7800 5369,7800L5397,7800L5393,7713C5389,7637 5391,7621 5409,7593C5440,7544 5496,7520 5579,7520C5672,7520 5710,7542 5739,7613C5751,7642 5765,7673 5771,7683C5777,7695 5777,7707 5770,7720C5750,7758 5756,7760 5888,7753C6000,7748 6022,7744 6070,7720C6137,7686 6339,7525 6350,7496C6354,7484 6372,7465 6389,7452C6494,7375 6640,7097 6669,6920C6692,6779 6661,6682 6571,6616C6505,6567 6316,6470 6240,6445C6237,6445 6219,6437 6199,6428C6179,6419 6148,6409 6129,6405C6110,6401 6091,6394 6085,6390C6076,6384 6042,6373 6005,6365C6000,6363 5977,6355 5956,6346L5917,6330L5996,6288C6098,6235 6124,6218 6187,6156C6254,6092 6285,6008 6278,5907C6271,5799 6200,5675 6052,5511C5947,5395 5941,5380 5940,5218C5940,5137 5944,5079 5950,5075C5956,5072 5960,5061 5960,5051C5960,5041 5969,5004 5981,4969C6003,4903 6024,4822 6041,4735C6047,4708 6060,4655 6070,4619C6101,4516 6113,4408 6114,4230C6115,4078 6103,3957 6080,3890C6076,3876 6064,3838 6055,3805C6046,3772 6035,3736 6030,3725C6026,3714 6012,3676 6000,3640C5976,3570 5935,3484 5915,3460C5908,3452 5899,3434 5895,3420C5887,3394 5826,3297 5799,3267C5768,3233 5713,3210 5678,3217C5607,3230 5557,3272 5545,3327C5539,3358 5551,3373 5564,3351C5574,3335 5660,3330 5693,3344C5733,3360 5822,3448 5845,3492C5890,3580 5910,3655 5910,3739C5910,3786 5906,3837 5901,3854C5895,3871 5886,3917 5881,3955C5870,4027 5855,4106 5845,4150C5837,4183 5838,4645 5846,4687C5849,4705 5848,4720 5844,4720C5834,4720 5816,4690 5753,4570C5728,4523 5702,4478 5695,4470C5688,4462 5681,4450 5679,4444C5669,4414 5490,4225 5424,4175C5375,4137 5281,4076 5238,4054C5178,4023 5032,3910 4986,3859C4959,3829 4936,3791 4929,3767C4914,3713 4923,3613 4945,3570C4967,3528 5012,3470 5023,3470C5027,3470 5043,3461 5058,3450C5086,3430 5142,3413 5220,3401L5265,3395L5220,3376C5084,3319 5004,3309 4906,3334C4772,3369 4733,3422 4730,3573C4728,3638 4707,3617 4631,3473C4618,3450 4607,3425 4606,3418C4604,3411 4600,3396 4596,3385C4577,3335 4570,3312 4564,3277C4561,3257 4554,3237 4549,3234C4524,3219 4563,3059 4599,3026C4609,3017 4640,3007 4669,3003C4697,3000 4720,2994 4720,2989C4720,2985 4703,2968 4683,2953C4662,2938 4644,2922 4642,2918C4640,2913 4631,2910 4622,2910C4613,2909 4587,2903 4566,2895C4519,2878 4464,2888 4382,2928C4338,2948 4323,2963 4298,3007C4282,3036 4264,3060 4258,3060C4248,3060 4254,3002 4270,2945C4295,2858 4300,2826 4300,2752C4300,2707 4296,2661 4291,2648C4286,2635 4274,2600 4265,2570C4236,2481 4199,2409 4135,2314C4108,2273 4006,2173 3967,2150C3950,2139 3927,2130 3917,2130C3903,2130 3907,2141 3940,2190C3963,2224 3986,2265 3992,2283C3998,2301 4007,2319 4011,2324C4016,2330 4020,2340 4020,2348C4020,2355 4030,2382 4041,2408C4107,2551 4134,2751 4126,3018C4123,3113 4116,3208 4111,3228C4106,3248 4094,3321 4084,3390C4075,3459 4064,3517 4060,3520C4056,3523 4048,3568 4042,3620C4036,3672 4025,3744 4018,3780C3998,3884 4007,4141 4031,4156C4036,4159 4040,4170 4040,4180C4040,4196 4047,4221 4075,4308C4078,4315 4080,4322 4080,4325C4081,4327 4096,4357 4115,4391C4134,4424 4150,4454 4150,4456C4150,4468 4248,4585 4314,4652C4392,4731 4451,4774 4555,4827C4631,4866 4834,4946 4880,4955C4899,4959 4920,4965 4925,4969C4941,4980 5001,4998 5045,5006C5067,5009 5090,5016 5095,5020C5101,5024 5119,5031 5135,5034C5152,5038 5181,5054 5200,5070C5233,5097 5235,5102 5235,5159C5234,5192 5238,5216 5242,5214C5246,5211 5250,5215 5250,5223C5250,5244 5206,5258 5116,5264C5028,5271 4991,5280 4911,5318C4812,5365 4804,5376 4801,5472C4800,5532 4804,5564 4814,5586C4823,5602 4830,5622 4830,5630C4830,5638 4839,5669 4850,5698C4875,5764 4875,5769 4848,5779C4830,5786 4818,5781 4792,5759C4774,5743 4754,5732 4749,5736C4744,5739 4716,5720 4687,5694C4659,5669 4599,5624 4555,5595C4464,5536 4147,5370 4125,5370C4116,5370 4082,5358 4048,5344C3993,5321 3973,5319 3841,5317C3718,5315 3689,5318 3655,5333C3592,5362 3518,5401 3485,5423C3448,5448 3320,5572 3320,5583C3320,5591 3252,5682 3224,5711C3206,5730 3151,5892 3127,5996C3107,6080 3104,6373 3121,6480C3126,6516 3135,6574 3140,6610C3152,6686 3172,6794 3195,6900C3204,6941 3216,6993 3220,7015C3261,7215 3403,7527 3541,7722C3579,7775 3615,7824 3623,7832C3630,7839 3653,7870 3675,7900C3744,7995 3828,8067 3857,8055C3894,8041 3952,8039 3948,8051C3944,8064 3848,8083 3733,8094C3681,8099 3670,8097 3670,8085C3670,8074 3682,8070 3715,8070C3771,8070 3774,8053 3726,8013C3707,7998 3669,7956 3641,7920C3613,7884 3586,7850 3580,7843C3540,7794 3427,7605 3365,7481C3223,7196 3173,7049 3114,6735C3087,6594 3080,6519 3074,6315C3071,6205 3067,6110 3065,6104C3063,6098 3036,6081 3003,6065C2806,5971 2477,5798 2449,5774C2441,5766 2430,5760 2425,5760C2421,5760 2386,5737 2348,5709C2266,5648 2243,5631 2147,5565C2070,5512 1991,5448 1896,5360C1814,5284 1581,5047 1550,5008C1325,4722 1248,4613 1162,4461C1002,4177 1014,4195 970,4184C929,4173 912,4151 858,4043C813,3950 807,3931 802,3854C798,3776 799,3767 819,3746L842,3722L815,3643C747,3446 730,3377 724,3254C718,3152 720,3128 734,3100C743,3082 750,3057 750,3045C750,3031 766,3008 790,2986C812,2966 830,2943 830,2935C830,2927 842,2917 856,2914C897,2904 1049,2920 1109,2941C1140,2951 1166,2960 1168,2960C1175,2960 1163,2898 1145,2840C1107,2713 1106,2712 1124,2685C1145,2653 1192,2623 1244,2609C1297,2595 1377,2614 1410,2649C1424,2663 1450,2687 1468,2702C1487,2718 1522,2772 1555,2836L1610,2944L1610,3038C1610,3104 1615,3140 1626,3163C1644,3199 1709,3270 1724,3270C1729,3270 1741,3277 1751,3286C1766,3299 1778,3300 1827,3292C1859,3286 1901,3277 1920,3272C1958,3262 2072,3210 2080,3199C2089,3188 2130,3169 2178,3155C2215,3144 2232,3143 2257,3152C2284,3162 2291,3172 2309,3229C2342,3335 2335,3458 2287,3571C2263,3630 2214,3677 2160,3695C2132,3704 2108,3715 2105,3720C2099,3730 2173,3889 2197,3916C2210,3932 2233,3939 2285,3944C2354,3951 2395,3961 2455,3985C2472,3992 2495,4001 2507,4004C2541,4015 2618,4107 2631,4153C2644,4202 2634,4225 2586,4258C2481,4330 2286,4366 2148,4339C2024,4314 1873,4202 1838,4108C1834,4099 1801,4075 1763,4054L1695,4016L1576,4017C1450,4019 1368,4032 1308,4058C1277,4072 1270,4080 1270,4103C1270,4139 1230,4180 1193,4181C1178,4182 1156,4183 1145,4184C1134,4185 1126,4191 1128,4198C1134,4228 1388,4591 1454,4665C1469,4682 1492,4711 1505,4730C1555,4807 1873,5110 2030,5230C2055,5249 2081,5271 2089,5278C2176,5362 2595,5650 2629,5650C2634,5650 2640,5653 2642,5658C2645,5665 2679,5683 2865,5776C2926,5806 3003,5845 3037,5862C3072,5880 3101,5892 3103,5889C3105,5887 3115,5858 3125,5825C3148,5751 3221,5599 3255,5554C3270,5534 3290,5520 3303,5519C3315,5519 3319,5516 3312,5513C3290,5504 3370,5431 3459,5378C3607,5290 3622,5287 3810,5287C4002,5287 4009,5289 4207,5386C4279,5421 4345,5448 4353,5444C4362,5441 4421,5473 4500,5527C4668,5639 4662,5635 4754,5703C4797,5735 4834,5759 4836,5757C4839,5754 4832,5733 4822,5709C4766,5585 4755,5429 4797,5371C4820,5341 4886,5293 4915,5287C4926,5285 4982,5270 5040,5255C5098,5239 5153,5227 5163,5228C5187,5229 5213,5176 5205,5139C5194,5089 5134,5057 5005,5033C4989,5030 4971,5024 4965,5020C4957,5014 4928,5005 4885,4994C4781,4970 4527,4854 4433,4788C4407,4770 4380,4753 4373,4750C4366,4747 4322,4707 4274,4661C4185,4573 4100,4456 4079,4392C4072,4372 4061,4346 4054,4335C4038,4308 4011,4229 3992,4150C3963,4029 3979,3600 4012,3600C4016,3600 4020,3585 4020,3568C4020,3550 4025,3517 4030,3495C4036,3473 4044,3428 4050,3395C4056,3362 4064,3313 4070,3285C4100,3130 4104,2806 4077,2675C4068,2631 4056,2570 4050,2540C4036,2473 4020,2422 3986,2347C3972,2316 3960,2286 3959,2282C3955,2267 3906,2194 3872,2153C3826,2095 3842,2059 3901,2090C3947,2115 3913,2070 3801,1959C3685,1843 3660,1827 3643,1853C3621,1887 3604,1891 3557,1871C3514,1852 3511,1852 3496,1869C3479,1888 3475,1920 3488,1936C3502,1952 3520,2025 3520,2068C3520,2101 3514,2113 3489,2134C3464,2155 3448,2160 3402,2160C3280,2160 3084,2025 3027,1901C3001,1844 2998,1844 2963,1915C2931,1978 2929,2004 2946,2087C2963,2171 2998,2253 3055,2340C3074,2370 3090,2397 3090,2401C3090,2405 3126,2463 3171,2530C3216,2598 3249,2658 3246,2666C3243,2674 3229,2685 3215,2692C3169,2713 2930,2666 2805,2610C2588,2515 2463,2440 2378,2353C2261,2234 2226,2080 2287,1953C2327,1868 2413,1743 2459,1702L2485,1679L2435,1686C2408,1689 2378,1696 2370,1700C2362,1704 2336,1711 2313,1715C2289,1719 2268,1726 2264,1731C2261,1736 2248,1740 2235,1740C2222,1740 2209,1744 2206,1749C2203,1754 2183,1761 2163,1765C2142,1769 2121,1775 2115,1780C2092,1797 1986,1830 1952,1830C1886,1830 1873,1793 1911,1717C1939,1663 2028,1552 2104,1477C2165,1418 2304,1320 2327,1320C2334,1320 2374,1308 2417,1294C2481,1272 2514,1268 2605,1267C2716,1266 3014,1294 3060,1310C3074,1315 3101,1322 3120,1325L3155,1332L3130,1314C3060,1263 3043,1207 3076,1141C3096,1101 3187,1041 3238,1033C3258,1030 3281,1023 3287,1018C3307,1002 3553,1027 3599,1049C3713,1104 3757,1132 3897,1238C3943,1273 3980,1299 3980,1297C3980,1294 3973,1273 3965,1250C3945,1192 3946,1164 3971,1123C3995,1085 4056,1053 4155,1025C4188,1016 4229,1005 4245,999C4262,994 4353,984 4448,978C4629,966 4825,976 4887,1001C4940,1023 4975,1037 5010,1051C5061,1070 5152,1125 5174,1149C5188,1164 5191,1179 5187,1204L5182,1237L5318,1242C5469,1247 5504,1257 5629,1332C5663,1353 5695,1370 5699,1370C5702,1370 5724,1387 5747,1409C5771,1430 5804,1453 5822,1460C6024,1539 6117,1596 6168,1672C6190,1705 6195,1727 6198,1787C6203,1868 6193,1890 6154,1890C6132,1890 6028,1831 6016,1811C6011,1803 5935,1765 5848,1726C5828,1717 5803,1710 5793,1710C5783,1710 5769,1705 5762,1698C5747,1683 5407,1675 5315,1688C5256,1697 5178,1712 5135,1724C5130,1726 5107,1730 5085,1735C4980,1757 4821,1870 4785,1950C4767,1991 4766,1995 4784,2079C4813,2220 4856,2273 5114,2483C5185,2541 5490,2839 5490,2851C5490,2854 5499,2868 5511,2881C5530,2902 5649,3076 5675,3118C5708,3173 5723,3190 5741,3190C5768,3190 5879,3307 5914,3371C5978,3490 6009,3559 6035,3635C6050,3679 6068,3729 6075,3745C6083,3762 6094,3800 6100,3830C6106,3860 6115,3905 6120,3930C6144,4046 6151,4137 6147,4275C6143,4428 6140,4457 6120,4545C6114,4573 6105,4618 6100,4647C6096,4675 6087,4713 6082,4732C6045,4850 5981,5082 5968,5140C5956,5199 5967,5322 5990,5374C5999,5397 6029,5438 6054,5465C6107,5522 6150,5575 6150,5586C6150,5590 6158,5600 6168,5609C6192,5630 6262,5743 6290,5805C6308,5845 6312,5870 6311,5934C6310,5977 6303,6029 6296,6049C6280,6096 6207,6195 6172,6217C6157,6226 6129,6248 6109,6266C6089,6283 6056,6303 6035,6310L5997,6323L6031,6335C6050,6342 6085,6355 6110,6364C6135,6373 6162,6384 6170,6389C6179,6394 6201,6401 6220,6405C6239,6409 6261,6416 6270,6420C6278,6424 6296,6432 6310,6437C6363,6458 6531,6545 6555,6565C6569,6576 6598,6599 6619,6615C6640,6632 6670,6665 6686,6690C6712,6731 6715,6743 6715,6830C6715,6917 6703,6987 6679,7032C6674,7042 6670,7054 6670,7059C6670,7064 6657,7098 6640,7133C6605,7210 6603,7230 6630,7230C6648,7230 6803,7278 6855,7300C6866,7304 6898,7315 6925,7325C6953,7334 6984,7345 6995,7350C7006,7355 7040,7366 7070,7375C7100,7385 7133,7396 7142,7401C7152,7406 7167,7410 7176,7410C7185,7410 7211,7419 7234,7429C7257,7440 7293,7456 7315,7465C7337,7474 7373,7490 7395,7500C7417,7509 7455,7526 7480,7537C7630,7603 7741,7657 8005,7792C8077,7829 8154,7867 8177,7877C8201,7887 8218,7900 8215,7907C8211,7919 8273,7971 8368,8035C8432,8077 8471,8129 8459,8152C8449,8171 8410,8176 8394,8160C8383,8149 8293,8133 8157,8119C8031,8106 7768,8122 7555,8155C7533,8159 7486,8165 7450,8170C7345,8183 7178,8209 7135,8219C7113,8225 7073,8234 7045,8240C7018,8246 6986,8255 6975,8260C6955,8268 6824,8301 6715,8325C6682,8333 6637,8344 6615,8350C6593,8356 6555,8367 6530,8373C6458,8392 6454,8398 6488,8434C6519,8466 6625,8601 6670,8665C6684,8685 6709,8720 6726,8743C6743,8766 6783,8830 6815,8885C6846,8940 6883,8999 6896,9017C6909,9034 6920,9052 6920,9055C6920,9058 6931,9076 6944,9093C6968,9127 7035,9281 7051,9340C7061,9378 7063,9604 7054,9660C7038,9760 6947,9903 6856,9971C6745,10056 6689,10076 6530,10090C6330,10108 6245,10120 6195,10139C6168,10150 6120,10166 6090,10175C6060,10184 6012,10203 5984,10216C5956,10229 5930,10240 5926,10240C5909,10240 5681,10355 5630,10390C5501,10477 5443,10517 5407,10544C5358,10582 5264,10666 5222,10710C5140,10797 5131,10803 5144,10762C5161,10710 5482,10444 5620,10367C5797,10269 5909,10214 5995,10180C6220,10094 6301,10074 6490,10059C6553,10054 6623,10048 6645,10045C6751,10030 6886,9932 6955,9822C7020,9717 7030,9679 7032,9522C7034,9396 7031,9378 7005,9298C6990,9249 6973,9210 6969,9210C6964,9210 6961,9207 6962,9203C6965,9194 6895,9057 6869,9019C6859,9004 6822,8945 6787,8887C6709,8760 6562,8558 6483,8471L6425,8408L6380,8419C6317,8436 6279,8451 6282,8460C6284,8464 6324,8508 6371,8558C6418,8607 6485,8688 6520,8736C6555,8785 6601,8846 6622,8871C6643,8897 6660,8920 6660,8923C6660,8929 6754,9084 6781,9123C6821,9179 6859,9258 6880,9325C6892,9364 6905,9409 6911,9426C6923,9467 6923,9563 6909,9634C6893,9720 6822,9819 6735,9874C6663,9920 6571,9947 6444,9960C6233,9980 5941,10063 5685,10175C5590,10216 5414,10340 5309,10439C5230,10513 5209,10539 5190,10587C5177,10619 5164,10650 5160,10655C5156,10661 5143,10694 5131,10730C5098,10831 5051,10968 5025,11040C4969,11193 4960,11213 4945,11230C4937,11239 4930,11251 4930,11257C4930,11262 4917,11285 4901,11307C4872,11346 4847,11361 4823,11353ZM5435,10294C5452,10283 5489,10256 5519,10236C5631,10157 5916,10036 6080,9996C6116,9988 6183,9971 6230,9959C6277,9947 6358,9934 6410,9930C6606,9913 6685,9885 6773,9801C6811,9765 6849,9722 6858,9705C6893,9638 6890,9401 6854,9305C6817,9207 6634,8926 6448,8682C6413,8637 6348,8572 6266,8501C6233,8473 6212,8461 6201,8466C6192,8469 6167,8477 6145,8482C6123,8487 6101,8493 6095,8494C6090,8496 6067,8500 6045,8504C6023,8508 5992,8515 5975,8520C5959,8525 5928,8531 5908,8535C5879,8539 5867,8548 5855,8573C5833,8621 5790,8761 5790,8787C5790,8799 5784,8829 5776,8852C5763,8894 5758,8914 5725,9035C5716,9068 5705,9102 5700,9110C5696,9119 5689,9141 5685,9160C5681,9179 5674,9200 5670,9205C5666,9211 5660,9224 5657,9235C5653,9254 5652,9254 5651,9234C5651,9222 5657,9196 5665,9177C5673,9157 5680,9130 5679,9118C5678,9097 5677,9098 5665,9125C5657,9142 5651,9165 5650,9178C5650,9190 5646,9200 5640,9200C5628,9200 5627,9240 5639,9260C5645,9268 5646,9278 5643,9284C5639,9289 5633,9285 5629,9274C5623,9260 5621,9263 5621,9290C5620,9320 5584,9456 5573,9470C5571,9472 5565,9468 5559,9460C5553,9450 5552,9455 5556,9478C5560,9497 5558,9510 5552,9510C5547,9510 5543,9516 5544,9523C5544,9529 5531,9578 5513,9630C5496,9682 5472,9758 5460,9798C5448,9838 5432,9877 5424,9884C5416,9892 5410,9908 5410,9920C5410,9933 5406,9939 5398,9934C5390,9929 5389,9939 5393,9971C5396,9995 5396,10007 5393,9998C5388,9977 5370,9974 5370,9994C5370,10001 5360,10029 5348,10056C5324,10111 5298,10220 5299,10265C5299,10285 5297,10291 5291,10282C5285,10272 5281,10275 5278,10294C5275,10309 5277,10320 5283,10320C5289,10320 5286,10326 5275,10333C5265,10341 5260,10352 5263,10357C5267,10363 5265,10381 5261,10398C5256,10415 5254,10431 5257,10434C5260,10437 5295,10411 5334,10377C5373,10343 5419,10306 5435,10294ZM5590,7783C5637,7780 5687,7771 5703,7763C5726,7751 5730,7744 5730,7704C5730,7649 5711,7603 5675,7570C5651,7548 5640,7545 5568,7545L5488,7545L5454,7584C5425,7618 5420,7631 5420,7676C5420,7723 5427,7747 5454,7788C5459,7797 5471,7799 5484,7795C5495,7792 5543,7786 5590,7783ZM3088,5992C3095,5960 3100,5929 3100,5923C3100,5918 3070,5900 3033,5885C2807,5790 2395,5561 2268,5458C2232,5429 2179,5387 2150,5365C1893,5170 1544,4830 1360,4594C1280,4491 1168,4336 1159,4315C1137,4261 1085,4190 1069,4190C1059,4190 1050,4195 1050,4200C1050,4211 1136,4361 1171,4412C1182,4427 1190,4442 1190,4445C1190,4448 1220,4496 1257,4553C1293,4609 1336,4675 1352,4700C1412,4795 1683,5112 1802,5225C1982,5397 2045,5455 2090,5491C2190,5570 2421,5730 2513,5784C2612,5842 2934,6001 2980,6015C2994,6019 3014,6029 3025,6036C3063,6063 3075,6054 3088,5992ZM5804,4413C5801,4315 5802,4216 5808,4175C5814,4137 5824,4067 5830,4020C5836,3973 5845,3926 5850,3915C5876,3857 5876,3641 5850,3585C5845,3574 5834,3549 5825,3529C5816,3509 5783,3465 5750,3431C5693,3372 5691,3370 5640,3370C5603,3370 5579,3376 5558,3391C5542,3403 5526,3409 5522,3405C5518,3401 5516,3377 5516,3352C5519,3281 5551,3234 5617,3205L5671,3181L5628,3113C5563,3010 5545,2984 5488,2913C5408,2814 5213,2615 5140,2557C5083,2512 4960,2408 4922,2372C4914,2365 4881,2327 4848,2287C4792,2221 4782,2204 4760,2145C4756,2134 4745,2108 4736,2087C4718,2045 4715,2000 4730,2000C4736,2000 4740,1992 4740,1983C4740,1944 4806,1858 4870,1812C4958,1749 5013,1725 5130,1701C5160,1695 5216,1683 5253,1675C5291,1667 5343,1660 5370,1660C5397,1660 5443,1655 5472,1649C5512,1640 5551,1640 5634,1650C5694,1656 5753,1666 5764,1670C5776,1674 5812,1686 5845,1696C5913,1717 5978,1753 6079,1824C6117,1850 6153,1869 6159,1865C6176,1855 6172,1738 6155,1702C6135,1663 6054,1589 5992,1555C5966,1540 5898,1512 5840,1492C5741,1458 5726,1456 5584,1452C5417,1447 5337,1460 5234,1505C5173,1532 5160,1535 5160,1521C5160,1509 5256,1465 5301,1455C5320,1451 5341,1443 5348,1437C5355,1431 5436,1427 5545,1426C5646,1426 5726,1422 5722,1419C5702,1402 5570,1320 5534,1302C5474,1272 5370,1256 5271,1263C5188,1269 5071,1292 5040,1309C5031,1314 5010,1321 4992,1325C4937,1337 4956,1313 5028,1279C5173,1211 5178,1205 5135,1160C5086,1108 4897,1029 4775,1009C4688,995 4617,995 4470,1009C4366,1018 4304,1028 4158,1059C4086,1075 4005,1116 3992,1145C3966,1202 4013,1303 4111,1401C4175,1466 4192,1490 4172,1490C4168,1490 4147,1475 4125,1458C4103,1440 4081,1422 4075,1418C4059,1406 3967,1330 3935,1302C3862,1239 3690,1123 3645,1106C3617,1097 3586,1085 3575,1080C3466,1032 3252,1034 3177,1083C3126,1116 3090,1163 3090,1197C3090,1215 3095,1230 3100,1230C3106,1230 3110,1237 3110,1245C3110,1253 3129,1272 3153,1288C3192,1314 3214,1324 3309,1362C3407,1401 3550,1489 3550,1512C3550,1527 3515,1520 3490,1500C3476,1489 3462,1480 3457,1480C3453,1480 3433,1470 3412,1457C3368,1430 3253,1386 3190,1371C3165,1366 3118,1354 3085,1345C3007,1325 2870,1310 2693,1303C2509,1297 2432,1312 2303,1380C2177,1447 2088,1521 2005,1627C1971,1671 1921,1759 1920,1778C1920,1802 1988,1791 2105,1750C2185,1721 2324,1680 2340,1680C2350,1680 2361,1676 2364,1671C2367,1666 2382,1660 2397,1657C2413,1654 2472,1642 2530,1631C2710,1594 2878,1594 3150,1629C3274,1645 3473,1706 3600,1767C3650,1791 3721,1840 3761,1879C3770,1888 3810,1927 3850,1965C3890,2004 3935,2051 3950,2071C3964,2091 4004,2130 4037,2158C4174,2273 4267,2420 4312,2595C4329,2660 4333,2800 4319,2863C4313,2895 4310,2923 4313,2926C4316,2929 4334,2920 4353,2906C4378,2886 4408,2877 4466,2869C4539,2858 4549,2859 4605,2880C4700,2917 4824,3052 4754,3042C4642,3028 4619,3035 4587,3099C4564,3145 4566,3176 4594,3268C4607,3310 4624,3365 4631,3390C4638,3415 4655,3455 4669,3480C4693,3521 4695,3523 4698,3500C4701,3473 4738,3392 4756,3373C4763,3366 4795,3347 4828,3330C4929,3279 5048,3279 5185,3331C5243,3353 5346,3418 5337,3427C5334,3429 5297,3432 5254,3434C5165,3438 5155,3441 5084,3486C5027,3521 4980,3568 4980,3587C4980,3594 4976,3600 4970,3600C4964,3600 4960,3638 4960,3694L4960,3788L5006,3839C5052,3890 5138,3957 5245,4023C5278,4044 5335,4080 5372,4103C5439,4145 5549,4239 5621,4315C5653,4349 5760,4511 5760,4526C5760,4536 5795,4579 5803,4580C5807,4580 5807,4505 5804,4413ZM2428,4281C2451,4269 2470,4262 2470,4265C2470,4268 2492,4256 2519,4240C2569,4209 2586,4178 2573,4143C2545,4067 2453,4014 2317,3994C2291,3991 2267,3983 2264,3978C2261,3973 2242,3971 2221,3974C2201,3978 2180,3977 2174,3973C2146,3952 2107,3885 2086,3819L2063,3745L2015,3748C1988,3749 1932,3746 1889,3740C1827,3733 1799,3723 1753,3694C1696,3658 1625,3579 1632,3558C1634,3552 1666,3570 1703,3598C1832,3696 1847,3702 1964,3702C2058,3701 2071,3699 2118,3673C2180,3639 2244,3580 2267,3536C2292,3489 2292,3255 2267,3217C2237,3171 2160,3182 2075,3244C2034,3275 1865,3338 1805,3346C1777,3350 1748,3356 1739,3361C1718,3372 1680,3361 1680,3344C1680,3336 1689,3330 1699,3330C1733,3330 1732,3311 1698,3297C1658,3279 1615,3235 1600,3195L1588,3165L1572,3189C1534,3245 1522,3255 1510,3243C1500,3234 1504,3223 1525,3196C1570,3137 1585,2935 1547,2892C1539,2883 1527,2859 1521,2840C1496,2760 1349,2650 1269,2650C1228,2650 1169,2670 1153,2690C1135,2712 1137,2741 1161,2796C1197,2876 1207,2938 1202,3056C1198,3190 1204,3207 1293,3292C1339,3336 1351,3353 1342,3362C1318,3386 1207,3272 1180,3195C1172,3172 1167,3121 1167,3077L1168,2999L1117,2976C1072,2957 1053,2954 973,2958C882,2962 880,2963 845,2998C740,3105 728,3257 806,3487C819,3526 830,3565 830,3573C830,3591 885,3699 931,3770C998,3873 1113,3962 1224,3997C1265,4009 1325,4008 1455,3990C1628,3967 1704,3975 1772,4022C1811,4049 1820,4045 1820,3999C1820,3955 1836,3916 1850,3925C1855,3928 1859,3957 1859,3989C1858,4050 1866,4070 1925,4162C1957,4212 2025,4259 2100,4284C2169,4307 2188,4309 2290,4306C2364,4304 2394,4298 2428,4281ZM1173,4159C1200,4147 1251,4067 1241,4053C1238,4047 1210,4037 1180,4029C1076,4004 936,3891 886,3793C877,3775 865,3760 860,3760C840,3760 819,3807 826,3836C840,3895 879,4007 908,4072C933,4126 946,4142 972,4153C1012,4170 1141,4174 1173,4159ZM3200,2652C3200,2647 3180,2615 3155,2579C3130,2544 3101,2496 3090,2472C3079,2449 3048,2391 3020,2345C2948,2222 2916,2142 2905,2055C2894,1971 2923,1899 3005,1808L3035,1775L3041,1820C3050,1888 3074,1933 3132,1993C3182,2043 3205,2057 3322,2109C3425,2155 3477,2125 3473,2021C3472,1991 3466,1962 3461,1957C3446,1942 3448,1878 3463,1860C3489,1828 3512,1823 3552,1838C3587,1852 3592,1852 3610,1835C3630,1817 3630,1817 3598,1802C3580,1795 3557,1784 3548,1779C3538,1774 3525,1770 3520,1770C3514,1770 3488,1761 3462,1749C3355,1703 3337,1697 3245,1677C3003,1625 2664,1619 2567,1665C2470,1711 2343,1871 2306,1994C2288,2052 2300,2180 2328,2240C2371,2335 2477,2416 2685,2515C2828,2583 2825,2582 2920,2614C3022,2648 3200,2673 3200,2652Z" style="fill:rgb(199,0,200);fill-rule:nonzero;stroke:rgb(199,0,200);stroke-width:72.48px;"/>
                <path d="M5341,10124C5341,10113 5344,10110 5347,10118C5350,10125 5349,10134 5346,10137C5343,10141 5340,10135 5341,10124Z" style="fill:rgb(199,0,200);fill-rule:nonzero;stroke:rgb(199,0,200);stroke-width:72.48px;"/>
                <path d="M4683,2258C4637,2225 4615,2169 4617,2091C4618,2032 4628,2011 4652,2010C4656,2010 4669,2031 4681,2058C4693,2084 4718,2138 4737,2178C4770,2248 4770,2253 4753,2266C4728,2284 4720,2283 4683,2258ZM4730,2237C4730,2230 4717,2197 4700,2165C4684,2133 4670,2101 4670,2094C4670,2088 4664,2080 4657,2077C4639,2070 4636,2125 4651,2165C4664,2197 4708,2250 4722,2250C4726,2250 4730,2244 4730,2237Z" style="fill:rgb(199,0,200);fill-rule:nonzero;stroke:rgb(199,0,200);stroke-width:72.48px;"/>
                <path d="M4501,2186C4494,2178 4485,2157 4480,2139C4472,2111 4474,2099 4496,2062C4528,2007 4538,2014 4510,2072C4493,2108 4491,2119 4501,2138C4518,2169 4528,2166 4536,2125C4539,2106 4546,2087 4551,2084C4556,2081 4560,2068 4560,2054C4560,2040 4567,2027 4575,2023C4600,2014 4603,2026 4586,2061C4577,2079 4567,2112 4563,2134C4554,2196 4528,2218 4501,2186Z" style="fill:rgb(199,0,200);fill-rule:nonzero;stroke:rgb(199,0,200);stroke-width:72.48px;"/>
                <path d="M4010,8030C4053,8021 4097,8013 4240,7991C4276,7985 4323,7981 4345,7982L4385,7983L4340,7990C4222,8011 4079,8031 4025,8035C3967,8039 3966,8039 4010,8030Z" style="fill:rgb(199,0,200);fill-rule:nonzero;stroke:rgb(199,0,200);stroke-width:72.48px;"/>
                <path d="M7945,7980C7838,7950 7833,7949 7640,7910C7615,7905 7561,7893 7520,7885C7417,7863 7368,7853 7278,7839C7235,7832 7200,7822 7200,7817C7200,7811 7216,7810 7238,7815C7344,7835 7381,7842 7450,7851C7491,7857 7534,7865 7545,7870C7564,7878 7728,7913 7833,7931C7859,7935 7906,7948 7938,7959C7969,7970 8004,7981 8015,7983C8028,7986 8024,7988 8005,7988C7989,7988 7962,7984 7945,7980Z" style="fill:rgb(199,0,200);fill-rule:nonzero;stroke:rgb(199,0,200);stroke-width:72.48px;"/>
                <path d="M4875,7870C4878,7865 4899,7860 4921,7860C4942,7860 4960,7865 4960,7870C4960,7876 4939,7880 4914,7880C4887,7880 4871,7876 4875,7870Z" style="fill:rgb(199,0,200);fill-rule:nonzero;stroke:rgb(199,0,200);stroke-width:72.48px;"/>
                <path d="M4991,7856C4993,7854 5020,7850 5050,7847C5086,7843 5096,7844 5080,7850C5055,7858 4983,7863 4991,7856Z" style="fill:rgb(199,0,200);fill-rule:nonzero;stroke:rgb(199,0,200);stroke-width:72.48px;"/>
                <path d="M7133,7803C7142,7801 7156,7801 7163,7803C7169,7806 7162,7808 7145,7808C7129,7808 7123,7806 7133,7803Z" style="fill:rgb(199,0,200);fill-rule:nonzero;stroke:rgb(199,0,200);stroke-width:72.48px;"/>
                <path d="M6985,7790C6961,7784 6968,7782 7018,7781C7053,7781 7080,7784 7080,7790C7080,7801 7030,7801 6985,7790Z" style="fill:rgb(199,0,200);fill-rule:nonzero;stroke:rgb(199,0,200);stroke-width:72.48px;"/>
                <path d="M4020,7584C3984,7576 3946,7566 3935,7561C3924,7556 3894,7542 3868,7530C3841,7518 3817,7504 3814,7498C3801,7477 3823,7477 3863,7497C3886,7509 3930,7526 3960,7535C4111,7581 4113,7581 4105,7538C4095,7473 4081,7294 4084,7260C4086,7241 4081,7178 4073,7120C4042,6893 4039,6862 4038,6769C4037,6688 4040,6666 4059,6631C4103,6545 4207,6485 4298,6492C4326,6495 4350,6493 4350,6489C4350,6471 4263,6410 4215,6395C4162,6378 4054,6378 4018,6394C3986,6409 3998,6371 4036,6338C4115,6269 4245,6203 4328,6190C4435,6174 4500,6190 4562,6248C4577,6262 4593,6271 4597,6267C4616,6247 4607,6162 4573,6058C4565,6032 4560,6006 4562,6000C4564,5994 4608,6017 4660,6051C4712,6085 4774,6122 4800,6132C4825,6143 4854,6155 4865,6160C4921,6184 4960,6188 5077,6186C5269,6181 5323,6172 5362,6140C5393,6114 5395,6108 5394,6054C5394,6019 5389,5995 5382,5992C5375,5990 5370,5983 5370,5976C5370,5970 5350,5944 5325,5920C5300,5896 5280,5871 5280,5864C5280,5851 5363,5856 5392,5871C5419,5886 5553,5881 5602,5865C5627,5856 5656,5841 5667,5831C5699,5801 5709,5818 5699,5885C5688,5957 5697,6061 5718,6113C5736,6159 5724,6178 5690,6160C5678,6154 5634,6148 5592,6147C5523,6146 5496,6151 5410,6182C5383,6191 5340,6247 5340,6273C5340,6281 5336,6292 5330,6295C5318,6303 5316,6567 5329,6574C5333,6577 5340,6605 5343,6637C5347,6669 5358,6718 5368,6746C5379,6774 5391,6815 5395,6836C5399,6857 5405,6879 5408,6885C5419,6901 5439,6964 5435,6968C5433,6970 5425,6963 5416,6953C5322,6844 5327,6847 5269,6847C5239,6848 5202,6855 5185,6864C5169,6873 5147,6880 5138,6880C5105,6880 5111,6898 5148,6913C5227,6945 5270,7010 5270,7099C5270,7150 5236,7275 5220,7285C5214,7288 5210,7298 5210,7306C5210,7314 5202,7339 5191,7360C5181,7381 5175,7401 5178,7404C5181,7408 5232,7410 5292,7410C5381,7410 5400,7413 5400,7425C5400,7438 5374,7440 5233,7441C5074,7442 5023,7446 4905,7469C4839,7482 4721,7507 4715,7509C4700,7515 4682,7519 4655,7524C4639,7526 4598,7536 4565,7545C4374,7598 4157,7613 4020,7584ZM4420,7551C4529,7530 4560,7518 4560,7493C4560,7439 4641,7390 4731,7390C4756,7390 4779,7388 4782,7385C4785,7382 4784,7361 4781,7337C4777,7314 4777,7261 4780,7220C4786,7134 4798,7124 4845,7168C4902,7219 5010,7340 5034,7378C5056,7413 5061,7415 5098,7412C5138,7408 5138,7408 5174,7323L5210,7237L5189,7176C5177,7142 5152,7091 5133,7063C5083,6988 4956,6872 4890,6843C4860,6829 4828,6814 4819,6810C4810,6805 4786,6798 4766,6795C4746,6791 4727,6784 4724,6779C4721,6774 4706,6770 4691,6770C4676,6770 4660,6767 4657,6763C4653,6760 4621,6755 4587,6754C4496,6751 4386,6782 4313,6831C4232,6887 4164,6986 4131,7095C4124,7118 4123,7457 4129,7510C4137,7570 4142,7573 4260,7567C4318,7564 4390,7557 4420,7551ZM4703,7479C4712,7474 4720,7463 4720,7455C4720,7447 4725,7440 4731,7440C4736,7440 4738,7436 4735,7430C4715,7397 4590,7447 4590,7488C4590,7499 4599,7501 4638,7495C4664,7491 4693,7484 4703,7479ZM4831,7451C4834,7448 4826,7435 4813,7423L4790,7401L4770,7430C4759,7445 4750,7461 4750,7464C4750,7472 4823,7460 4831,7451ZM4887,7410C4934,7393 4957,7329 4923,7312C4874,7286 4804,7370 4842,7408C4856,7422 4851,7422 4887,7410ZM5240,7105C5240,7051 5219,6990 5201,6990C5193,6990 5183,7012 5174,7050C5173,7058 5180,7080 5191,7098C5201,7116 5210,7138 5210,7146C5210,7154 5217,7160 5225,7160C5237,7160 5240,7147 5240,7105ZM4129,7005C4167,6920 4268,6812 4344,6776C4443,6729 4584,6708 4654,6729C4671,6734 4712,6747 4745,6756C4778,6766 4810,6777 4815,6781C4821,6784 4838,6790 4853,6794C4869,6798 4899,6812 4921,6826C4946,6842 4968,6848 4983,6844C5013,6837 5106,6690 5144,6589C5160,6546 5160,6540 5145,6489C5136,6459 5125,6426 5120,6415C5116,6404 5102,6370 5091,6340C5079,6309 5061,6270 5050,6252C5032,6223 5026,6220 4980,6220C4952,6220 4922,6216 4912,6211C4903,6206 4879,6195 4860,6188C4841,6181 4783,6154 4731,6128C4679,6101 4632,6080 4627,6080C4622,6080 4621,6094 4625,6113C4639,6181 4641,6266 4630,6322C4623,6353 4614,6377 4610,6375C4606,6372 4592,6351 4580,6328C4534,6240 4486,6216 4366,6222C4270,6227 4282,6222 4089,6325C4057,6342 4068,6350 4123,6350C4234,6350 4377,6437 4410,6524C4424,6561 4420,6564 4384,6545C4347,6526 4231,6525 4187,6543C4149,6560 4082,6630 4076,6662C4063,6725 4062,6769 4070,6886C4083,7067 4093,7086 4129,7005ZM5160,6984C5166,6970 5170,6957 5170,6956C5170,6952 5134,6940 5110,6935C5102,6934 5086,6929 5075,6925C5056,6917 5056,6918 5076,6941C5088,6954 5103,6975 5109,6988C5125,7017 5148,7016 5160,6984ZM5078,6877C5085,6871 5119,6857 5152,6846C5208,6827 5216,6820 5236,6780C5286,6677 5307,6615 5299,6590C5295,6576 5292,6511 5291,6445C5291,6351 5295,6312 5310,6266C5321,6233 5330,6205 5330,6202C5330,6200 5313,6201 5293,6205C5272,6209 5212,6214 5159,6217L5063,6221L5101,6293C5122,6333 5140,6375 5140,6387C5140,6399 5145,6412 5150,6415C5156,6418 5160,6432 5160,6445C5160,6458 5164,6471 5169,6474C5201,6494 5181,6602 5129,6688C5117,6708 5096,6745 5082,6770C5069,6795 5044,6829 5028,6846C5000,6875 5000,6879 5016,6888C5034,6898 5055,6894 5078,6877ZM5356,6813C5324,6699 5315,6672 5308,6676C5304,6679 5300,6689 5300,6698C5300,6707 5289,6737 5276,6763C5249,6815 5250,6817 5310,6823C5329,6825 5349,6828 5353,6828C5358,6829 5359,6822 5356,6813ZM5458,6131C5495,6112 5562,6103 5603,6111C5671,6124 5680,6122 5680,6097C5680,6084 5675,6069 5670,6064C5664,6058 5659,6015 5659,5967L5658,5880L5623,5895C5582,5912 5426,5916 5386,5900C5354,5888 5354,5890 5389,5942C5423,5994 5434,6030 5432,6093C5431,6144 5432,6144 5458,6131Z" style="fill:rgb(199,0,200);fill-rule:nonzero;stroke:rgb(199,0,200);stroke-width:29.35px;"/>
                <path d="M4392,7413C4369,7404 4350,7351 4351,7298C4353,7183 4384,7157 4422,7237C4435,7263 4448,7287 4451,7290C4454,7293 4463,7312 4471,7332C4483,7367 4482,7371 4460,7395C4437,7419 4419,7424 4392,7413ZM4445,7358C4437,7322 4403,7253 4389,7244C4376,7237 4378,7347 4390,7371C4396,7382 4411,7390 4426,7390C4450,7390 4451,7387 4445,7358Z" style="fill:rgb(199,0,200);fill-rule:nonzero;stroke:rgb(199,0,200);stroke-width:29.35px;"/>
                <path d="M4185,7332C4181,7328 4172,7310 4164,7292C4140,7233 4183,7165 4254,7153C4306,7145 4309,7167 4266,7230C4246,7259 4230,7290 4230,7299C4230,7317 4196,7343 4185,7332ZM4210,7271C4210,7267 4221,7246 4235,7225C4266,7181 4260,7168 4223,7196C4188,7222 4175,7244 4183,7264C4190,7281 4210,7286 4210,7271Z" style="fill:rgb(199,0,200);fill-rule:nonzero;stroke:rgb(199,0,200);stroke-width:29.35px;"/>
                <path d="M4341,7169C4304,7154 4276,7120 4252,7061C4229,7006 4224,6970 4238,6970C4243,6970 4268,6977 4294,6986C4332,6999 4349,7000 4385,6991C4440,6977 4487,6977 4495,6990C4498,6996 4509,7000 4519,7000C4529,7000 4543,7006 4549,7014C4559,7026 4552,7038 4513,7078C4463,7130 4395,7180 4376,7179C4370,7179 4354,7174 4341,7169ZM4449,7116C4456,7108 4460,7086 4458,7068C4455,7030 4431,7020 4406,7045C4390,7061 4384,7111 4397,7123C4408,7135 4437,7131 4449,7116ZM4330,7074C4330,7066 4326,7062 4320,7065C4315,7068 4310,7075 4310,7081C4310,7086 4315,7090 4320,7090C4326,7090 4330,7083 4330,7074Z" style="fill:rgb(199,0,200);fill-rule:nonzero;stroke:rgb(199,0,200);stroke-width:10px;"/>
                <path d="M4732,7038C4726,7032 4720,7022 4720,7016C4720,6992 4687,6971 4658,6977C4634,6982 4628,6980 4632,6969C4638,6951 4687,6945 4706,6961C4725,6977 4752,7028 4748,7041C4746,7047 4739,7045 4732,7038Z" style="fill:rgb(199,0,200);fill-rule:nonzero;stroke:rgb(199,0,200);stroke-width:29.35px;"/>
            </g>
        </g>
    </g>
</svg>
