<?xml version="1.0" encoding="UTF-8" standalone="no"?>
<!DOCTYPE svg PUBLIC "-//W3C//DTD SVG 1.1//EN" "http://www.w3.org/Graphics/SVG/1.1/DTD/svg11.dtd">
<svg width="100%" height="100%" viewBox="0 0 1809 1717" version="1.1" xmlns="http://www.w3.org/2000/svg" xmlns:xlink="http://www.w3.org/1999/xlink" xml:space="preserve" xmlns:serif="http://www.serif.com/" style="fill-rule:evenodd;clip-rule:evenodd;stroke-linecap:round;stroke-linejoin:round;stroke-miterlimit:1.5;">
    <g transform="matrix(0.990358,0,0,0.990358,-50.0785,-78.5853)">
        <path d="M1526.99,1484.91C1547.67,1486.46 1560,1494.44 1569.48,1504.62" style="fill:none;stroke:rgb(235,53,84);stroke-width:13.46px;"/>
    </g>
    <g transform="matrix(0.990358,0,0,0.990358,-50.0785,-78.5853)">
        <path d="M1498.23,1500.9C1515.67,1504.78 1528.62,1512.26 1538.3,1523.03" style="fill:none;stroke:rgb(235,53,84);stroke-width:13.46px;"/>
    </g>
    <g transform="matrix(0.990358,0,0,0.990358,-50.0785,-78.5853)">
        <path d="M1455.59,1515.28C1469.68,1519.1 1477.74,1528.04 1483.21,1539.19" style="fill:none;stroke:rgb(235,53,84);stroke-width:13.46px;"/>
    </g>
    <g transform="matrix(0.990358,0,0,0.990358,-50.0785,-78.5853)">
        <path d="M1399.61,1525.94C1413.02,1529.11 1422.13,1539.94 1429.5,1553.89" style="fill:none;stroke:rgb(235,53,84);stroke-width:13.46px;"/>
    </g>
    <g transform="matrix(0.990358,0,0,0.990358,-50.0785,-78.5853)">
        <path d="M1332.07,1530.21C1342.81,1537.78 1350.25,1546.44 1355.82,1555.73" style="fill:none;stroke:rgb(235,53,84);stroke-width:13.46px;"/>
    </g>
    <g transform="matrix(0.990358,0,0,0.990358,-50.0785,-78.5853)">
        <path d="M1366,1577.54C1369.38,1584.43 1371.07,1591.11 1371,1597.57" style="fill:none;stroke:rgb(235,53,84);stroke-width:13.46px;"/>
    </g>
    <g transform="matrix(0.990358,0,0,0.990358,-50.0785,-78.5853)">
        <path d="M1263.52,1524.26C1276.55,1540.62 1284.74,1557.46 1291.03,1574.49" style="fill:none;stroke:rgb(235,53,84);stroke-width:13.46px;"/>
    </g>
    <g transform="matrix(0.990358,0,0,0.990358,-50.0785,-78.5853)">
        <path d="M1201.43,1513.66C1212.79,1531.75 1220.27,1549.84 1224.9,1567.93" style="fill:none;stroke:rgb(235,53,84);stroke-width:13.46px;"/>
    </g>
    <g transform="matrix(0.990358,0,0,0.990358,-50.0785,-78.5853)">
        <path d="M1129.74,1494.73C1142.81,1513.44 1150.58,1533.66 1154.23,1555.06" style="fill:none;stroke:rgb(235,53,84);stroke-width:13.46px;"/>
    </g>
    <g transform="matrix(0.990358,0,0,0.990358,-50.0785,-78.5853)">
        <path d="M1059.19,1471.51C1072.56,1505.53 1075.02,1541.07 1067.52,1577.78" style="fill:none;stroke:rgb(235,53,84);stroke-width:13.46px;"/>
    </g>
    <g transform="matrix(0.990358,0,0,0.990358,-50.0785,-78.5853)">
        <path d="M980.946,1442.99C999.81,1489.54 997.42,1540.64 977.917,1595.95" style="fill:none;stroke:rgb(235,53,84);stroke-width:13.46px;"/>
    </g>
    <g transform="matrix(0.990358,0,0,0.990358,-50.0785,-78.5853)">
        <path d="M963.025,1625.86C946.291,1656 924.175,1684.25 882.505,1705.62" style="fill:none;stroke:rgb(235,53,84);stroke-width:13.46px;"/>
    </g>
    <g transform="matrix(0.990358,0,0,0.990358,-50.0785,-78.5853)">
        <path d="M1033.83,1660.57C1018.37,1685.75 997.3,1708.5 961.636,1724.93" style="fill:none;stroke:rgb(235,53,84);stroke-width:13.46px;"/>
    </g>
    <g transform="matrix(0.990358,0,0,0.990358,-50.0785,-78.5853)">
        <path d="M1157.26,1584.84C1156.35,1635.46 1143.93,1684.5 1089.1,1727.71" style="fill:none;stroke:rgb(235,53,84);stroke-width:13.46px;"/>
    </g>
    <g transform="matrix(0.990358,0,0,0.990358,-50.0785,-78.5853)">
        <path d="M1227.17,1587.87C1230.18,1642.55 1211.29,1687.08 1177.95,1724.93" style="fill:none;stroke:rgb(235,53,84);stroke-width:13.46px;"/>
    </g>
    <g transform="matrix(0.990358,0,0,0.990358,-50.0785,-78.5853)">
        <path d="M1295.83,1596.45C1298.87,1643.54 1285.31,1683.74 1260.75,1719.38" style="fill:none;stroke:rgb(235,53,84);stroke-width:13.46px;"/>
    </g>
    <g transform="matrix(0.990358,0,0,0.990358,-50.0785,-78.5853)">
        <path d="M1438.19,1578.03C1446.54,1615.95 1440.53,1649.32 1421.28,1678.49" style="fill:none;stroke:rgb(235,53,84);stroke-width:13.46px;"/>
    </g>
    <g transform="matrix(0.990358,0,0,0.990358,-50.0785,-78.5853)">
        <path d="M1371.55,1614.88C1369.85,1645.45 1360.22,1674.5 1341.01,1701.71" style="fill:none;stroke:rgb(235,53,84);stroke-width:13.46px;"/>
    </g>
    <g transform="matrix(0.990358,0,0,0.990358,-50.0785,-78.5853)">
        <path d="M1498.27,1562.63C1508.43,1591.5 1506.78,1619.66 1494.73,1647.19" style="fill:none;stroke:rgb(235,53,84);stroke-width:13.46px;"/>
    </g>
    <g transform="matrix(0.990358,0,0,0.990358,-50.0785,-78.5853)">
        <path d="M1581.69,1519.97C1591.05,1531.7 1594.87,1546.36 1592.79,1564.14" style="fill:none;stroke:rgb(235,53,84);stroke-width:13.46px;"/>
    </g>
    <g transform="matrix(0.990358,0,0,0.990358,-50.0785,-78.5853)">
        <path d="M1552.66,1549.88C1560.17,1567.76 1561.14,1589.05 1553.16,1615.01" style="fill:none;stroke:rgb(235,53,84);stroke-width:13.46px;"/>
    </g>
    <g transform="matrix(0.990358,0,0,0.990358,-50.0785,-78.5853)">
        <path d="M1549.79,1470.39C1598.76,1476.16 1623.65,1516.65 1604.88,1562.8" style="fill:none;stroke:rgb(235,53,84);stroke-width:13.46px;"/>
    </g>
    <g transform="matrix(0.990358,0,0,0.990358,-50.0785,-78.5853)">
        <path d="M887.271,1721.2C998.461,1729.43 1112.86,1730.05 1225.24,1723.9C1362.85,1716.38 1510.13,1661.23 1572.96,1598.79C1627.68,1544.4 1666.04,1482.95 1679.12,1410.58C1684.88,1378.7 1676.85,1333.84 1683.45,1308.75C1695.5,1262.93 1729.43,1238.36 1763.61,1241.59C1800.6,1245.09 1828.49,1287.82 1839.71,1301.17C1856.08,1320.66 1867.41,1305.21 1866.25,1287.09C1862.65,1230.97 1799.96,1194.3 1754.67,1192.58C1685.2,1189.94 1634.77,1231.34 1629.02,1291.69C1621.85,1366.9 1599.66,1433.25 1551.02,1469.61C1457.84,1539.28 1323.57,1546.57 1157,1501.03C1051.46,1472.18 952.82,1436.02 863.13,1388.19" style="fill:none;stroke:rgb(235,53,84);stroke-width:13.46px;"/>
    </g>
    <g transform="matrix(0.990358,0,0,0.990358,-50.0785,-78.5853)">
        <path d="M426.081,1746.68C461.038,1746.31 494.37,1743.77 503.017,1738.83C519.303,1729.52 534.695,1716.28 549.206,1699.16" style="fill:none;stroke:rgb(235,53,84);stroke-width:13.46px;"/>
    </g>
    <g transform="matrix(0.990358,0,0,0.990358,-50.0785,-78.5853)">
        <path d="M402.947,1697.57C405.46,1701.97 406.752,1706.82 406.141,1712.37" style="fill:none;stroke:rgb(235,53,84);stroke-width:13.46px;"/>
    </g>
    <g transform="matrix(0.990358,0,0,0.990358,-50.0785,-78.5853)">
        <path d="M421.961,1710.78C396.003,1711.11 370.255,1728.25 350.083,1751.87L427.119,1747.38C420.315,1736.81 421.486,1723.68 421.961,1710.78Z" style="fill:none;stroke:rgb(235,53,84);stroke-width:13.46px;"/>
    </g>
    <g transform="matrix(0.990358,0,0,0.990358,-50.0785,-78.5853)">
        <path d="M385.523,1702.12C355.014,1703.95 325.683,1711.55 299.169,1732.9C305.865,1736.31 313.715,1737.87 322.629,1737.73" style="fill:none;stroke:rgb(235,53,84);stroke-width:13.46px;"/>
    </g>
    <g transform="matrix(0.990358,0,0,0.990358,-50.0785,-78.5853)">
        <path d="M432.943,1689.15C392.402,1697.72 353.186,1713.35 316.639,1743.22C328.05,1746.47 341.049,1746.54 354.243,1746.22" style="fill:none;stroke:rgb(235,53,84);stroke-width:13.46px;"/>
    </g>
    <g transform="matrix(0.990358,0,0,0.990358,-50.0785,-78.5853)">
        <path d="M368.37,1527.09C348.102,1552.64 335.872,1577.17 329.373,1601.43C319.233,1639.29 323.787,1653.09 334.248,1659.44C356.095,1672.68 405.612,1684.81 444.413,1690.63" style="fill:none;stroke:rgb(235,53,84);stroke-width:13.46px;"/>
    </g>
    <g transform="matrix(0.990358,0,0,0.990358,-50.0785,-78.5853)">
        <path d="M449.927,1632.32C481.949,1664.25 523.394,1689.12 571.324,1707.66C591.988,1715.65 674.9,1714.26 726.254,1713.06" style="fill:none;stroke:rgb(235,53,84);stroke-width:13.46px;"/>
    </g>
    <g transform="matrix(0.990358,0,0,0.990358,-50.0785,-78.5853)">
        <path d="M718.863,1727.29C690.599,1740.88 668.665,1758.32 654.752,1780.64C679.993,1782.98 725.93,1778.78 751.386,1769.41" style="fill:none;stroke:rgb(235,53,84);stroke-width:13.46px;"/>
    </g>
    <g transform="matrix(0.990358,0,0,0.990358,-50.0785,-78.5853)">
        <path d="M751.503,1770.11C751.158,1789.2 766.027,1796.38 780.282,1804.04C802.149,1797.48 820.576,1786.96 834.331,1771.05" style="fill:none;stroke:rgb(235,53,84);stroke-width:13.46px;"/>
    </g>
    <g transform="matrix(0.990358,0,0,0.990358,-50.0785,-78.5853)">
        <path d="M850.944,1771.28C869.818,1780.17 892.436,1786.57 918.798,1790.47C917.216,1766.99 907.355,1744.54 885.807,1723.55" style="fill:none;stroke:rgb(235,53,84);stroke-width:13.46px;"/>
    </g>
    <g transform="matrix(0.990358,0,0,0.990358,-50.0785,-78.5853)">
        <path d="M918.892,1498.71C903.145,1442.99 870.609,1404.67 813.676,1391.93C771.813,1382.57 717.02,1407.36 681.974,1456.8C655.387,1494.31 637.283,1531.82 629.413,1569.33C623.533,1597.37 626.402,1617 644.014,1635.82C665.934,1659.25 708.839,1676.23 742.397,1693.77L717.015,1726.68C735.459,1738.8 745.906,1754.16 750.933,1771.72C760.735,1752.99 775.834,1725.37 792.937,1724.1C812.199,1722.67 827.322,1742.74 835.39,1771.72L852.012,1771.94C846.605,1747.17 866.64,1720.38 887.502,1723.87C877.503,1692.53 865.596,1661.43 845.947,1646.23C817.126,1623.93 806.124,1607.94 806.863,1597.19" style="fill:none;stroke:rgb(235,53,84);stroke-width:13.46px;"/>
    </g>
    <g transform="matrix(0.990358,0,0,0.990358,-50.0785,-78.5853)">
        <path d="M702.79,1065.72C726.791,1140.65 730.495,1227.43 759.953,1302.61C764.716,1327.68 786.193,1350.6 820.276,1364.99C855.762,1379.97 904.942,1411.19 912.131,1438.34C923.843,1482.57 924.264,1530.38 905.276,1584.34C884.92,1616.77 863.442,1634.59 840.84,1637.81C881.542,1593.51 887.119,1534.31 858.663,1485.63C836.382,1447.52 793.874,1427.96 742.13,1432.85C724.185,1434.55 704.127,1443.64 682.438,1458.44" style="fill:none;stroke:rgb(235,53,84);stroke-width:13.46px;"/>
    </g>
    <g transform="matrix(0.990358,0,0,0.990358,-50.0785,-78.5853)">
        <path d="M472.967,991.454C450.475,1055.47 429.607,1119.3 419.499,1181.93C446.156,1328.77 510.823,1456.04 629.678,1570.49" style="fill:none;stroke:rgb(235,53,84);stroke-width:13.46px;"/>
    </g>
    <g transform="matrix(0.990358,0,0,0.990358,-50.0785,-78.5853)">
        <path d="M415.583,990.512C384.566,1056.16 358.261,1123.6 341.303,1194.6C409.562,1358.59 502.504,1494.96 625.676,1597.5C625.484,1605.07 627.259,1611.66 631.351,1617.1C604.31,1623.1 571.643,1628.16 525.315,1630.95C505.071,1627.26 462.252,1594.73 413.054,1554.04" style="fill:none;stroke:rgb(235,53,84);stroke-width:13.46px;"/>
    </g>
    <g transform="matrix(0.990358,0,0,0.990358,-50.0785,-78.5853)">
        <path d="M268.069,1202.22C285.365,1197.96 310.426,1195.54 341.613,1194.56" style="fill:none;stroke:rgb(235,53,84);stroke-width:13.46px;"/>
    </g>
    <g transform="matrix(0.990358,0,0,0.990358,-50.0785,-78.5853)">
        <path d="M539.4,1001.65C517.607,1056.16 495.046,1110.37 497.868,1167C501.965,1249.24 582.256,1404.18 655.395,1500.73" style="fill:none;stroke:rgb(235,53,84);stroke-width:13.46px;"/>
    </g>
    <g transform="matrix(0.990358,0,0,0.990358,-50.0785,-78.5853)">
        <path d="M566.388,1087.64C529.08,1091.23 505.284,1108.72 499.217,1141.82C494.515,1167.47 500.071,1191.91 510.004,1206.54C520.349,1221.78 535.042,1232 553.885,1237.43" style="fill:none;stroke:rgb(235,53,84);stroke-width:13.46px;"/>
    </g>
    <g transform="matrix(0.990358,0,0,0.990358,-50.0785,-78.5853)">
        <path d="M655.346,1149.16C662.312,1164.63 666.724,1204.86 660.495,1225.89C654.35,1246.63 635.948,1264.79 607.788,1268.3" style="fill:none;stroke:rgb(235,53,84);stroke-width:13.46px;"/>
    </g>
    <g transform="matrix(0.990358,0,0,0.990358,-50.0785,-78.5853)">
        <path d="M633.495,1102.78C639.517,1106.69 644.979,1110.93 649.661,1115.64" style="fill:none;stroke:rgb(235,53,84);stroke-width:13.46px;"/>
    </g>
    <g transform="matrix(0.990358,0,0,0.990358,-50.0785,-78.5853)">
        <path d="M534.958,1169.96C531.487,1192.76 530.852,1214.76 552.425,1234.92C577.269,1258.14 604.087,1272.89 637.614,1272.61C669.065,1272.35 695.283,1247.56 697.369,1226.95C700.443,1196.59 692.652,1160.26 665.806,1132.27" style="fill:none;stroke:rgb(235,53,84);stroke-width:13.46px;"/>
    </g>
    <g transform="matrix(0.990358,0,0,0.990358,-50.0785,-78.5853)">
        <path d="M571.278,1107.03C564.77,1148.83 542.205,1160.47 544.066,1187.68C545.742,1212.18 566.032,1237.2 587.948,1242.35C597.485,1243.89 610.602,1244.83 617.121,1239.65C633.049,1227 640.034,1199.45 640.9,1161.7" style="fill:none;stroke:rgb(235,53,84);stroke-width:13.46px;"/>
    </g>
    <g transform="matrix(0.990358,0,0,0.990358,-50.0785,-78.5853)">
        <path d="M624.252,1130.06C602.345,1131.62 592.291,1123.44 593.814,1105.75C595.009,1091.87 619.623,1065.14 627.704,1044.24C638.448,1073.71 636.519,1102.27 624.252,1130.06Z" style="fill:none;stroke:rgb(235,53,84);stroke-width:13.46px;"/>
    </g>
    <g transform="matrix(0.990358,0,0,0.990358,-50.0785,-78.5853)">
        <path d="M623.781,1129.91C620.457,1139.74 624.122,1150.3 640.883,1162.23C664.007,1138.78 675.652,1116.23 677.439,1094.45C661.238,1109.13 644.173,1122.35 623.781,1129.91Z" style="fill:none;stroke:rgb(235,53,84);stroke-width:13.46px;"/>
    </g>
    <g transform="matrix(0.990358,0,0,0.990358,-50.0785,-78.5853)">
        <path d="M145.801,1121.24C140.871,1118.46 134.623,1117.37 127.35,1117.6C141.024,1133.9 151.624,1152.35 158.604,1173.33" style="fill:none;stroke:rgb(235,53,84);stroke-width:13.46px;"/>
    </g>
    <g transform="matrix(0.990358,0,0,0.990358,-50.0785,-78.5853)">
        <path d="M147.809,1102.16C137.326,1094.49 129.131,1090.59 123.334,1090.62C135.788,1103.62 147.613,1122.13 158.729,1146.85" style="fill:none;stroke:rgb(235,53,84);stroke-width:13.46px;"/>
    </g>
    <g transform="matrix(0.990358,0,0,0.990358,-50.0785,-78.5853)">
        <path d="M158.102,1134.92C153.265,1112.73 145.743,1091.21 132.873,1071.03C154.57,1077.35 169.083,1096.01 180.067,1120.74" style="fill:none;stroke:rgb(235,53,84);stroke-width:13.46px;"/>
    </g>
    <g transform="matrix(0.990358,0,0,0.990358,-50.0785,-78.5853)">
        <path d="M210.322,1249.16L208.113,1221.65C221.021,1227.61 237.88,1229.78 257.215,1229.58" style="fill:none;stroke:rgb(235,53,84);stroke-width:13.46px;"/>
    </g>
    <g transform="matrix(0.990358,0,0,0.990358,-50.0785,-78.5853)">
        <path d="M178.984,1236.86C176.709,1228.06 177.163,1216.96 177.139,1209.13C177.092,1193.62 201.54,1176.07 194.423,1134.63" style="fill:none;stroke:rgb(235,53,84);stroke-width:13.46px;"/>
    </g>
    <g transform="matrix(0.990358,0,0,0.990358,-50.0785,-78.5853)">
        <path d="M260.943,1173.01C245.539,1169.42 231.633,1164.32 218.425,1158.53L181.193,1121.07C174.603,1128.73 167.081,1133.96 157.981,1135.09C162.218,1173.14 151.955,1208.51 161.658,1230.24C193.354,1245.34 227.394,1257.51 263.012,1267.7" style="fill:none;stroke:rgb(235,53,84);stroke-width:13.46px;"/>
    </g>
    <g transform="matrix(0.990358,0,0,0.990358,-50.0785,-78.5853)">
        <path d="M330.752,1011.9C300.84,1065.66 275.153,1127.16 254.219,1197.38C268.21,1351.95 327.878,1495.68 451.702,1635.77L413.322,1554.3C348.091,1463.06 308.337,1339.64 278.658,1203.5C299.13,1131.65 325.961,1063.16 359.457,998.199" style="fill:none;stroke:rgb(235,53,84);stroke-width:13.46px;"/>
    </g>
    <g transform="matrix(0.990358,0,0,0.990358,-50.0785,-78.5853)">
        <path d="M450.204,699.671L440.938,659.791L421.577,621.566L359.358,617.925L360.02,560.34L293.499,563.815L287.79,500.934L234.341,502.589L235.748,437.557L170.798,427.38L178.907,353.413L156.898,319.655" style="fill:none;stroke:rgb(235,53,84);stroke-width:13.46px;"/>
    </g>
    <g transform="matrix(0.990358,0,0,0.990358,-50.0785,-78.5853)">
        <path d="M385.862,696.691C384.197,685.026 397.326,682.034 399.762,673.392C401.888,665.847 386.141,667.27 383.744,658.831C381.098,649.519 383.66,640.856 394.996,636.988C406.117,633.193 413.711,639.366 428.091,635.532" style="fill:none;stroke:rgb(235,53,84);stroke-width:13.46px;"/>
    </g>
    <g transform="matrix(0.990358,0,0,0.990358,-50.0785,-78.5853)">
        <path d="M374.155,806.021C365.247,815.549 357.23,827.526 358.302,837.858C359.118,845.718 363.645,850.444 375.313,852.519C388.884,854.933 390.809,861.214 386.234,871.218C384.33,876.765 384.336,882.073 389.213,886.773" style="fill:none;stroke:rgb(235,53,84);stroke-width:13.46px;"/>
    </g>
    <g transform="matrix(0.990358,0,0,0.990358,-50.0785,-78.5853)">
        <path d="M69.689,757.977C74.756,760.897 80.296,763.501 86.719,765.517" style="fill:none;stroke:rgb(235,53,84);stroke-width:13.46px;"/>
    </g>
    <g transform="matrix(0.990358,0,0,0.990358,-50.0785,-78.5853)">
        <path d="M110.865,770.431C118.662,767.335 124.446,762.428 127.725,755.266" style="fill:none;stroke:rgb(235,53,84);stroke-width:13.46px;"/>
    </g>
    <g transform="matrix(0.990358,0,0,0.990358,-50.0785,-78.5853)">
        <path d="M495.58,705.306C477.008,702.174 458.166,700.66 439.153,700.176" style="fill:none;stroke:rgb(235,53,84);stroke-width:13.46px;"/>
    </g>
    <g transform="matrix(0.990358,0,0,0.990358,-50.0785,-78.5853)">
        <path d="M418.22,698.356L345.08,697.528" style="fill:none;stroke:rgb(235,53,84);stroke-width:13.46px;"/>
    </g>
    <g transform="matrix(0.990358,0,0,0.990358,-50.0785,-78.5853)">
        <path d="M331.594,696.536C307.267,695.588 282.008,695.387 255.475,696.205" style="fill:none;stroke:rgb(235,53,84);stroke-width:13.46px;"/>
    </g>
    <g transform="matrix(0.990358,0,0,0.990358,-50.0785,-78.5853)">
        <path d="M242.899,697.859C216.394,698.657 176.142,702.775 161.071,708.119C134.899,717.398 110.46,725.597 110.104,742.703C109.885,753.239 122.343,756.207 141.048,755.445" style="fill:none;stroke:rgb(235,53,84);stroke-width:13.46px;"/>
    </g>
    <g transform="matrix(0.990358,0,0,0.990358,-50.0785,-78.5853)">
        <path d="M529.738,655.292C504.791,681.374 490.402,708.508 484.761,739.417C463.564,722.611 443.995,705.805 426.328,688.999C411.39,708.771 395.456,727.944 378.753,746.657C367.611,726.98 354.201,707.781 336.35,689.516C324.79,710.496 312.935,730.147 300.669,747.95C279.889,730.046 265.003,709.616 249.346,689.516C234.305,715.32 217.559,740.13 198.281,763.463C181.573,747.936 170.881,731.371 164.41,714.079C149.536,737.277 138.946,762.189 129.376,787.509C110.966,773.856 96.488,756.441 86.197,735.022C85.971,751.742 86.866,768.462 89.817,785.182C78.244,772.782 68.877,759.365 61.893,744.847C62.484,779.981 79.765,806.666 108.95,827.326C126.257,839.578 208.841,810.649 255.034,805.608C339.039,796.441 403.425,807.723 469.084,828.903" style="fill:none;stroke:rgb(235,53,84);stroke-width:13.46px;"/>
    </g>
    <g transform="matrix(0.990358,0,0,0.990358,-50.0785,-78.5853)">
        <path d="M702.634,1066.99C731.422,1037.47 736.458,1005.63 718.406,982.701C657.198,904.975 588.58,829.207 487.774,827.697C456.703,827.231 436.791,842.08 419.774,857.948C375.583,899.156 354.609,921.656 338.07,963.956C331.183,981.57 329.465,997.222 330.313,1013.34C353.662,986.733 441.767,984.222 521.645,997.568C591.792,1009.29 673.421,1035.29 702.634,1066.99Z" style="fill:none;stroke:rgb(235,53,84);stroke-width:13.46px;"/>
    </g>
    <g transform="matrix(0.990358,0,0,0.990358,-50.0785,-78.5853)">
        <path d="M679.381,573.448C680.381,583.047 681.732,593.304 678.76,602.241" style="fill:none;stroke:rgb(235,53,84);stroke-width:13.46px;"/>
    </g>
    <g transform="matrix(0.990358,0,0,0.990358,-50.0785,-78.5853)">
        <path d="M688.317,612.418C696.919,612.949 706.817,615.97 710.78,607.578" style="fill:none;stroke:rgb(235,53,84);stroke-width:13.46px;"/>
    </g>
    <g transform="matrix(0.990358,0,0,0.990358,-50.0785,-78.5853)">
        <path d="M557.381,540.175C550.328,546.401 549.442,563.172 561.154,577.903" style="fill:none;stroke:rgb(235,53,84);stroke-width:13.46px;"/>
    </g>
    <g transform="matrix(0.921109,0.65167,-0.65167,0.921109,346.399,-415.373)">
        <ellipse cx="582.361" cy="550.997" rx="4.686" ry="9.77" style="fill:rgb(235,53,84);"/>
    </g>
    <g transform="matrix(0.990358,0,0,0.990358,-50.0785,-78.5853)">
        <path d="M568.62,543.491C561.482,555.374 558.883,572.095 567.19,576.295C579.905,582.723 593.851,572.481 603.489,556.2" style="fill:none;stroke:rgb(235,53,84);stroke-width:13.46px;"/>
    </g>
    <g transform="matrix(0.990358,0,0,0.990358,-50.0785,-78.5853)">
        <path d="M593.857,534.446C580.024,533.918 567.842,535.919 557.186,540.262C594.435,547.053 625.578,565.393 653.084,590.612C652.195,575.272 646.525,557.966 632.583,545.511" style="fill:none;stroke:rgb(235,53,84);stroke-width:13.46px;"/>
    </g>
    <g transform="matrix(0.990358,0,0,0.990358,-50.0785,-78.5853)">
        <path d="M496.296,524.986C521.594,540.21 555.931,530.781 579.002,532.413C652.1,537.583 720.029,589.613 731.421,660.243" style="fill:none;stroke:rgb(235,53,84);stroke-width:13.46px;"/>
    </g>
    <g transform="matrix(0.990358,0,0,0.990358,-50.0785,-78.5853)">
        <path d="M735.8,808.834C752.743,814.777 764.359,823.96 762.229,842.089C760.572,856.189 771.08,871.379 787.615,871.043C798.71,870.817 809.731,868.805 821.434,870.267C838.453,873.34 841.131,885.55 857.288,887.63C872.792,889.626 878.535,913.813 871.077,933.562C866.796,944.896 861.262,959.141 843.643,963.475C829.723,966.898 818.466,977.887 828.725,991.116C836.607,1001.28 834.728,1007.42 824.537,1014.23C813.369,1021.7 814.143,1033.06 826.088,1049.14C835.063,1061.21 860.478,1061.92 881.936,1053.48C900.865,1046.04 911.956,1071.44 898.846,1076.6C896.522,1071.36 892.344,1067.58 882.867,1067.91C861.111,1068.67 857.963,1084.42 821.744,1083.89C797.57,1083.53 771.166,1057.59 773.342,1042.78C776.772,1019.43 773.615,1012.31 760.001,1012.99C735.616,1014.21 739.089,991.325 750.693,969.087C764.518,942.594 756.821,934.014 737.817,922.082C727.328,915.496 707.24,914.461 690.21,914.519C657.194,914.632 630.913,895.893 642.313,875.154C649.649,861.808 648.82,846.822 641.925,839.764C635.038,832.715 627.602,831.035 617.685,821.924C614.394,818.9 593.407,827.952 590.925,806.992C589.731,796.911 593.485,787.802 603.044,774.608C609.042,766.331 602.976,741.052 587.337,731.946C577.697,727.596 558.241,734.394 550.299,716.142C542.783,698.868 568.627,681.225 559.51,665.432C552.946,654.062 535.203,657.293 528.289,653.991C519.364,648.33 516.497,639.515 515.879,625.679C515.485,616.862 512.443,608.765 507.346,601.246" style="fill:none;stroke:rgb(235,53,84);stroke-width:13.46px;"/>
    </g>
    <g transform="matrix(0.990358,0,0,0.990358,-50.0785,-78.5853)">
        <path d="M818.413,766.73C858.991,753.041 887.767,766.079 887.06,804.35C886.811,817.796 898.401,826.245 910.717,823.741C968.152,812.064 998.336,817.847 1000.5,841.582C1004.76,861.29 976.533,870.467 978.589,886.086C980.728,902.341 1002.61,909.226 1025.52,901.599C1044.38,895.32 1062.1,909.889 1053.63,926.421C1037.59,912.725 1022.08,921.919 1005.71,941.655C987.293,963.852 949.558,952.856 937.672,928.36C932.433,917.563 946.907,897.664 934.375,891.903C918.463,887.586 909.723,892.744 902.767,901.793C893.798,913.461 884.956,925.841 873.291,922.348" style="fill:none;stroke:rgb(235,53,84);stroke-width:13.46px;"/>
    </g>
    <g transform="matrix(0.990358,0,0,0.990358,-50.0785,-78.5853)">
        <path d="M805.013,717.551C816.028,729.238 827.249,734.719 838.677,733.995C860.183,732.633 867.536,719.15 873.582,703.124C883.764,676.135 889.021,664.6 908.487,662.634C918.665,661.606 923.282,665.482 925.707,672.873C913.505,671.865 905.383,677.603 901.972,686.835C895.652,703.936 912.098,714.697 908.798,726.084C904.519,740.846 896.111,734.6 890.957,748.888C887.51,758.445 904.511,776.87 883.666,785.034" style="fill:none;stroke:rgb(235,53,84);stroke-width:13.46px;"/>
    </g>
    <g transform="matrix(0.990358,0,0,0.990358,-50.0785,-78.5853)">
        <path d="M296.049,186.809C309.393,185.027 314.349,175.274 314.457,162.675C314.572,149.287 302.736,145.531 299.445,137.476C297.017,131.533 304.745,123.386 311.776,120.141C321.07,115.85 320.14,101.964 314.278,91.904C310.947,101.559 305.934,109.532 297.837,114.422C274.707,128.388 251.716,119.352 245.295,145.518C242.057,158.712 245.874,168.192 254.23,177.329" style="fill:none;stroke:rgb(235,53,84);stroke-width:13.46px;"/>
    </g>
    <g transform="matrix(0.990358,0,0,0.990358,-50.0785,-78.5853)">
        <path d="M263.345,177.597C243.311,176.026 225.534,180.84 211.696,194.519" style="fill:none;stroke:rgb(235,53,84);stroke-width:13.46px;"/>
    </g>
    <g transform="matrix(0.990358,0,0,0.990358,-50.0785,-78.5853)">
        <path d="M279.786,180.457C298.24,185.647 312.333,195.328 316.007,215.773" style="fill:none;stroke:rgb(235,53,84);stroke-width:13.46px;"/>
    </g>
    <g transform="matrix(0.990358,0,0,0.990358,-50.0785,-78.5853)">
        <path d="M260.501,311.684C280.011,313.353 295.892,305.345 307.396,285.663C316.25,297.125 327.274,305.281 344.139,304.536C377.122,303.078 377.531,265.82 360.009,252.065C360.323,278.932 334.58,291.633 313.114,270.366C316.416,266.639 318.057,261.749 317.547,255.354" style="fill:none;stroke:rgb(235,53,84);stroke-width:13.46px;"/>
    </g>
    <g transform="matrix(0.990358,0,0,0.990358,-50.0785,-78.5853)">
        <path d="M238.696,194.617C232.23,192.938 216.88,213.257 217.559,223.623C218.015,230.586 221.299,238.145 225.703,236.89C233.435,234.688 238.585,226.504 241.532,219.231C245.562,209.285 248.453,197.15 238.696,194.617Z" style="fill:none;stroke:rgb(235,53,84);stroke-width:13.46px;"/>
    </g>
    <g transform="matrix(0.990358,0,0,0.990358,-50.0785,-78.5853)">
        <path d="M232.433,293.871C233.863,279.687 241.072,267.081 252.986,255.757C272.782,258.675 293.089,259.17 314.106,256.293C346.336,251.881 360.682,207.334 341.806,185.343C336.223,207.988 322.003,220.347 294.983,221.086C282.741,221.421 269.843,220.279 256.381,217.869C259.298,205.036 260.596,192.58 249.947,190.169C234.035,186.565 222.879,194.697 213.132,201.428C214.717,196.333 215.444,192.287 211.524,193.922C205.527,199.76 201.141,205.598 197.584,211.436C186.671,215.317 176.412,215.274 167.024,210.006C170.343,221.365 178.009,229.283 188.648,234.847C187.95,256.173 196.119,275.9 214.026,293.871" style="fill:none;stroke:rgb(235,53,84);stroke-width:13.46px;"/>
    </g>
    <g transform="matrix(0.990358,0,0,0.990358,-50.0785,-78.5853)">
        <path d="M137.43,305.781C172.446,295.981 208.849,292.417 246.482,294.397C254.119,301.854 257.532,308.586 260.863,313.571C266.31,321.721 311.88,357.881 363.795,403.81C423.044,456.228 491.348,520.578 531.51,556.728C547.995,571.566 569.513,584.037 591.015,592.193C580.649,600.351 567.273,604.952 550.869,605.974C536.839,606.848 519.661,601.408 499.339,601.779C474.086,602.241 448.461,605.052 426.238,611.366L427.437,538.865L358.53,544.857L357.931,475.95L284.83,484.339L283.632,421.424L205.738,422.024L211.13,356.113L137.43,305.781Z" style="fill:none;stroke:rgb(235,53,84);stroke-width:13.46px;"/>
    </g>
    <g transform="matrix(0.990358,0,0,0.990358,-50.0785,-78.5853)">
        <path d="M588.849,593.476C601.722,585.521 638.273,585.352 661.083,592.506C678.166,597.865 692.24,612.509 696.958,630.32C702.949,652.935 718.742,666.15 746.649,660.862C779.134,654.707 799.584,671.168 805.067,694.555C809.774,714.635 803.524,724.07 791.493,740.126" style="fill:none;stroke:rgb(235,53,84);stroke-width:13.46px;"/>
    </g>
    <g transform="matrix(0.990358,0,0,0.990358,-50.0785,-78.5853)">
        <path d="M738.523,923.031C727.478,942.584 720.746,962.567 720.734,983.223" style="fill:none;stroke:rgb(235,53,84);stroke-width:13.46px;"/>
    </g>
    <g transform="matrix(0.990358,0,0,0.990358,-50.0785,-78.5853)">
        <path d="M601.567,1087.34C588.667,1064.79 573.514,1048.99 556.263,1039.49C567.06,1057.83 564.613,1084.09 571.561,1107.54C577.445,1108.93 584.514,1109.65 592.742,1109.7" style="fill:none;stroke:rgb(235,53,84);stroke-width:13.46px;"/>
    </g>
</svg>
