<?xml version="1.0" encoding="UTF-8" standalone="no"?>
<!DOCTYPE svg PUBLIC "-//W3C//DTD SVG 1.1//EN" "http://www.w3.org/Graphics/SVG/1.1/DTD/svg11.dtd">
<svg width="100%" height="100%" viewBox="0 0 710 710" version="1.1" xmlns="http://www.w3.org/2000/svg" xmlns:xlink="http://www.w3.org/1999/xlink" xml:space="preserve" xmlns:serif="http://www.serif.com/" style="fill-rule:evenodd;clip-rule:evenodd;stroke-linejoin:round;stroke-miterlimit:2;">
    <g transform="matrix(-0.980488,0,0,0.980488,354.711,354.711)">
        <g id="pokemon_009___blastoise__line_art__by_illustrationoverdose_d8io7gq-fullview.svg" transform="matrix(1,0,0,1,-400,-400)">
            <g transform="matrix(0.1,0,0,-0.1,0,800)">
                <path d="M4990,7507C4965,7495 4932,7475 4916,7462C4891,7443 4875,7440 4803,7440C4732,7440 4707,7435 4637,7408L4555,7376L4350,7375C4157,7374 4140,7372 4057,7347C3942,7311 3916,7298 3891,7257C3860,7206 3863,7115 3900,6976C3930,6866 3979,6731 4024,6640C4040,6609 4045,6587 4039,6570C4035,6556 4032,6519 4031,6488C4030,6439 4024,6422 3992,6371C3970,6339 3948,6299 3941,6282L3929,6253L3812,6247C3667,6240 3535,6214 3349,6154C3085,6069 2881,5973 2754,5872L2706,5834L2648,5858C2551,5897 2506,5897 2420,5861C2379,5844 2319,5814 2288,5795L2230,5761L2163,5837C1963,6062 1880,6134 1803,6146C1744,6155 1631,6138 1554,6109C1442,6067 1342,5931 1317,5787C1307,5724 1307,5720 1338,5658C1390,5553 1644,5240 1677,5240C1696,5240 1693,5232 1661,5181C1616,5112 1544,4953 1524,4883C1510,4830 1501,4817 1464,4791C1395,4741 1325,4633 1290,4523C1278,4482 1265,4464 1231,4440C1193,4412 1189,4405 1192,4372C1194,4344 1202,4331 1228,4313C1246,4301 1265,4290 1270,4288C1276,4286 1270,4265 1258,4240C1240,4205 1235,4178 1236,4118C1236,4050 1240,4037 1261,4014C1282,3991 1291,3989 1338,3992C1390,3997 1391,3996 1386,3971C1383,3957 1376,3900 1370,3845C1362,3773 1354,3740 1341,3725C1276,3654 1222,3476 1213,3300L1207,3185L1156,3129C896,2846 790,2556 790,2127C790,1874 824,1716 931,1483L963,1411L908,1351C839,1277 790,1183 790,1124C790,1060 825,1023 895,1015L949,1008L898,926C870,882 824,812 796,771C714,653 710,646 710,625C710,601 770,540 817,516C887,481 1022,467 1255,473C1544,480 1643,498 1897,590C2102,665 2241,738 2361,834C2418,880 2486,943 2512,975L2558,1033L2772,1036C2889,1038 3032,1045 3090,1050C3340,1076 3729,1176 3874,1252L3904,1267L3948,1171C3972,1118 4014,1023 4041,960L4090,845L4068,830C3948,749 3895,682 3895,609C3895,553 3915,526 3980,496C4018,479 4050,475 4178,472C4272,469 4363,473 4413,480C4458,487 4542,494 4600,496C4658,497 4755,505 4815,513C4940,531 5223,591 5290,615C5325,627 5344,629 5375,621C5439,605 5667,598 5764,609C5815,615 5864,627 5879,637C5896,648 5931,655 5979,657C6065,662 6107,680 6116,716C6125,752 6105,785 6040,836C5966,895 5854,952 5745,985C5696,1000 5654,1014 5653,1014C5652,1015 5655,1032 5660,1051C5666,1070 5704,1128 5745,1180C5838,1298 5903,1425 5936,1555C5959,1646 5961,1669 5957,1810C5954,1940 5948,1986 5921,2098C5883,2259 5865,2306 5792,2435C5734,2537 5610,2680 5535,2732C5516,2744 5500,2759 5500,2763C5500,2767 5518,2793 5540,2821C5568,2857 5580,2881 5580,2904C5580,2929 5586,2939 5605,2948C5618,2954 5641,2981 5654,3009C5691,3082 5769,3350 5786,3465C5794,3520 5802,3566 5804,3567C5806,3569 5845,3561 5891,3549C5945,3536 6022,3527 6105,3523C6196,3520 6246,3513 6270,3502C6294,3491 6341,3485 6425,3482C6538,3479 6547,3477 6580,3451C6677,3375 6731,3385 6746,3481C6751,3512 6759,3520 6797,3539C6849,3564 6831,3572 6943,3472C7010,3412 7049,3404 7075,3444C7096,3476 7104,3553 7092,3623C7087,3654 7085,3680 7087,3680C7089,3680 7117,3667 7150,3650C7217,3616 7257,3612 7276,3638C7319,3695 7259,3832 7141,3942C7075,4005 7060,4024 7041,4080C6986,4235 6824,4469 6752,4499C6730,4508 6714,4530 6684,4593C6651,4661 6627,4693 6535,4786C6475,4848 6407,4907 6385,4918C6363,4930 6348,4939 6352,4940C6355,4940 6412,4951 6477,4966C6645,5002 6670,5029 6685,5190C6701,5353 6636,5640 6562,5739C6496,5826 6444,5860 6378,5860C6331,5860 6121,5819 6050,5795C6025,5787 5907,5756 5786,5725C5666,5695 5556,5661 5542,5651L5516,5632L5490,5669C5476,5689 5461,5710 5457,5716C5453,5724 5469,5734 5503,5745C5597,5775 5787,5881 5872,5950C6081,6118 6178,6301 6206,6575C6209,6614 6220,6661 6230,6680C6264,6748 6264,6867 6229,7000C6217,7048 6138,7145 6082,7182C6036,7211 6033,7212 5939,7206C5887,7203 5802,7193 5751,7184C5672,7170 5657,7169 5649,7181C5644,7189 5645,7199 5650,7204C5668,7222 5660,7255 5624,7310C5572,7388 5543,7417 5477,7456C5402,7500 5359,7506 5283,7485L5223,7468L5168,7499C5102,7536 5054,7539 4990,7507ZM5167,7454L5194,7433L5161,7415C5127,7398 5054,7399 4960,7419L4925,7426L4973,7454C5057,7503 5105,7503 5167,7454ZM5420,7439C5444,7428 5479,7408 5498,7394C5533,7367 5620,7254 5620,7235C5620,7230 5602,7205 5580,7180L5541,7135L5540,7195C5539,7228 5534,7264 5529,7275C5523,7289 5522,7278 5525,7240C5529,7204 5526,7170 5516,7143C5508,7119 5504,7099 5508,7096C5512,7094 5549,7100 5590,7110C5806,7164 5996,7183 6046,7157C6084,7138 6139,7077 6174,7017C6195,6982 6200,6961 6198,6928C6196,6896 6191,6886 6180,6889C6146,6898 6049,6890 6015,6875C5960,6853 5920,6856 5847,6891C5790,6917 5775,6920 5739,6913C5674,6900 5682,6885 5753,6884C5791,6884 5838,6875 5873,6861L5931,6839L6008,6861C6083,6882 6180,6884 6211,6865C6227,6855 6216,6741 6195,6701L6180,6671L6123,6706C6072,6736 6058,6740 5995,6740C5891,6740 5835,6719 5667,6618C5497,6515 5440,6488 5332,6458C5185,6417 4872,6435 4801,6489C4766,6516 4762,6581 4791,6645C4823,6715 4824,6718 4802,6690C4785,6670 4771,6635 4755,6574C4753,6568 4727,6549 4696,6531C4577,6464 4532,6400 4543,6316L4549,6275L4307,6275C4112,6274 4056,6271 4018,6258C3991,6249 3970,6245 3970,6249C3970,6253 3993,6294 4020,6340C4065,6414 4070,6430 4071,6484C4072,6518 4075,6559 4079,6575C4084,6598 4074,6632 4033,6725C3983,6839 3921,7037 3905,7127C3897,7178 3912,7229 3943,7258C3955,7269 4006,7291 4055,7307C4141,7333 4155,7334 4355,7335C4557,7336 4567,7337 4630,7363C4741,7407 4781,7412 4920,7400C5080,7386 5163,7373 5223,7354C5249,7345 5276,7340 5282,7342C5297,7347 5205,7380 5178,7380C5141,7380 5162,7399 5228,7423C5340,7466 5358,7467 5420,7439ZM5609,7139C5588,7127 5574,7146 5590,7165C5602,7180 5604,7180 5613,7164C5619,7153 5618,7145 5609,7139ZM6093,6704C6147,6677 6170,6650 6170,6614C6170,6563 6134,6392 6110,6325C6060,6191 5923,6027 5783,5934C5673,5861 5408,5743 5396,5762C5357,5818 5328,5849 5227,5941C5118,6040 5094,6057 4976,6115C4827,6188 4677,6247 4617,6257C4594,6260 4572,6268 4568,6274C4552,6297 4560,6394 4579,6424C4598,6453 4723,6540 4744,6540C4750,6540 4762,6525 4770,6507C4792,6460 4868,6433 5017,6419C5263,6397 5395,6432 5657,6588C5750,6643 5848,6695 5875,6703C5943,6724 6052,6724 6093,6704ZM4512,6250C4573,6244 4647,6228 4707,6208C4847,6162 5084,6042 5150,5984C5269,5881 5344,5801 5409,5710C5505,5577 5504,5578 5486,5522C5477,5496 5467,5454 5464,5428C5459,5389 5453,5381 5433,5375C5419,5372 5407,5370 5405,5372C5404,5374 5388,5409 5369,5450C5269,5673 5102,5885 4962,5967C4927,5988 4911,5991 4879,5986C4844,5980 4825,5986 4742,6026C4527,6129 4329,6190 4107,6221C4059,6228 4022,6235 4024,6238C4044,6257 4356,6265 4512,6250ZM4175,6189C4409,6146 4550,6101 4716,6017L4782,5984L4628,5962C4445,5935 4232,5885 4095,5835C3963,5787 3825,5725 3772,5689C3730,5661 3728,5660 3692,5676C3592,5717 3067,5744 2896,5716C2809,5701 2658,5664 2604,5643C2590,5638 2594,5648 2620,5680C2747,5843 2927,5959 3222,6069C3604,6211 3876,6245 4175,6189ZM1883,6062C1930,6027 2201,5751 2208,5731C2209,5726 2178,5698 2138,5668C2007,5569 1842,5401 1758,5282C1743,5260 1741,5260 1702,5275C1672,5287 1644,5314 1593,5378C1364,5665 1342,5704 1359,5790C1382,5906 1461,6019 1548,6061C1611,6092 1702,6110 1773,6106C1822,6102 1839,6096 1883,6062ZM4881,5957C4835,5901 4704,5382 4654,5056C4619,4826 4612,4646 4635,4545C4659,4436 4757,4142 4820,3990C4848,3921 4874,3858 4878,3850C4881,3842 4871,3850 4856,3868C4794,3941 4557,4125 4375,4242C4232,4334 3941,4460 3871,4460C3844,4460 3836,4469 3784,4558C3714,4675 3656,4803 3635,4887C3622,4938 3621,4963 3630,5037C3656,5251 3725,5614 3745,5646C3763,5673 3915,5748 4073,5806C4289,5885 4637,5957 4859,5968C4886,5970 4890,5967 4881,5957ZM4956,5951C5014,5916 5121,5807 5195,5708C5263,5618 5380,5407 5380,5374C5380,5350 5339,5358 5282,5393C5244,5416 5220,5440 5199,5476C5140,5580 5040,5690 5004,5690C4990,5690 4920,5514 4891,5410C4861,5299 4835,5150 4804,4917C4773,4679 4775,4645 4835,4479C4909,4270 4979,4124 5056,4018L5090,3970L5068,3913C5056,3879 5029,3837 5004,3810C4938,3741 4930,3751 4821,4025C4758,4184 4694,4372 4658,4505C4605,4695 4651,5092 4786,5620C4838,5823 4856,5881 4882,5933C4903,5975 4913,5978 4956,5951ZM2601,5830C2695,5801 2698,5797 2665,5764C2650,5748 2621,5712 2599,5684C2569,5644 2542,5624 2478,5592C2364,5535 2277,5467 2129,5320C1948,5140 1766,4893 1654,4677L1608,4587L1579,4651C1528,4765 1546,4878 1645,5070C1745,5263 1995,5544 2190,5682C2298,5759 2472,5850 2511,5850C2526,5850 2566,5841 2601,5830ZM6457,5794C6551,5723 6613,5569 6640,5337C6658,5186 6640,5075 6592,5042C6547,5010 6056,4916 5823,4895C5757,4889 5747,4890 5700,4916C5558,4993 5486,5143 5486,5365C5486,5455 5490,5485 5508,5531C5544,5621 5554,5626 5787,5685C5901,5714 6048,5752 6113,5769C6259,5807 6379,5829 6405,5823C6416,5820 6439,5807 6457,5794ZM3525,5686C3688,5666 3723,5655 3717,5627C3661,5382 3611,5084 3609,4987C3608,4918 3618,4860 3642,4795C3662,4741 3736,4596 3779,4525L3822,4455L3283,3920C2986,3626 2723,3360 2698,3330L2653,3275L2479,3318C2253,3372 2175,3383 2000,3383C1830,3382 1693,3362 1566,3319C1518,3302 1474,3292 1469,3297C1446,3320 1409,3501 1403,3615C1394,3802 1436,4110 1492,4269C1532,4382 1639,4615 1702,4725C1894,5061 2178,5383 2418,5538C2512,5599 2735,5672 2909,5700C2988,5713 3381,5703 3525,5686ZM5045,5648C5074,5626 5202,5459 5195,5452C5193,5450 5178,5456 5161,5464C5118,5487 5034,5483 4937,5454C4922,5449 4924,5460 4951,5532C4968,5578 4986,5627 4992,5643C5004,5676 5009,5676 5045,5648ZM5090,5439C5084,5428 5080,5414 5082,5408C5084,5402 5092,5411 5099,5428C5107,5446 5118,5460 5124,5460C5131,5460 5163,5444 5196,5424C5345,5332 5352,5330 5436,5355C5455,5361 5458,5356 5469,5275C5476,5227 5492,5158 5505,5122C5518,5086 5528,5055 5527,5054C5526,5053 5495,5043 5457,5031C5396,5010 5386,5003 5344,4947C5287,4871 5242,4831 5215,4830C5185,4830 5115,4906 5085,4973C5054,5040 5045,5048 5065,4989C5086,4931 5115,4887 5156,4850C5176,4833 5191,4817 5189,4815C5187,4813 5106,4791 5010,4767C4914,4742 4827,4718 4818,4715C4796,4706 4796,4700 4820,4895C4846,5098 4876,5276 4898,5365L4916,5435L4971,5446C5001,5453 5042,5458 5063,5459C5098,5460 5100,5459 5090,5439ZM5579,4989C5603,4961 5635,4930 5651,4921L5679,4904L5645,4862C5605,4811 5556,4698 5530,4595C5488,4430 5481,4169 5511,3824C5529,3617 5506,3531 5406,3422C5373,3386 5271,3310 5256,3310C5253,3310 5256,3327 5262,3348C5268,3368 5273,3432 5273,3490C5273,3649 5215,3846 5142,3940C5088,4009 5021,4136 5000,4210C4967,4327 4962,4494 4989,4602C5025,4752 5025,4753 5116,4774C5245,4804 5252,4809 5391,4973C5412,4997 5476,5028 5530,5039C5533,5040 5555,5017 5579,4989ZM6333,4899C6443,4845 6585,4699 6645,4580C6715,4441 6735,4334 6720,4182C6698,3963 6651,3853 6527,3726C6427,3623 6335,3574 6222,3562C5977,3535 5561,3668 5536,3780C5531,3805 5533,3806 5599,3816C5765,3843 5922,3961 6059,4163C6104,4230 6083,4221 6035,4153C6013,4121 5959,4059 5915,4014C5847,3946 5819,3925 5740,3887C5640,3839 5542,3813 5535,3834C5527,3856 5510,4126 5510,4228C5510,4495 5564,4726 5656,4852C5686,4892 5695,4898 5710,4890C5737,4876 5860,4878 5970,4895C6114,4917 6107,4919 6140,4848C6170,4783 6189,4687 6190,4590C6191,4542 6193,4538 6202,4558C6211,4575 6211,4610 6203,4687C6194,4770 6185,4806 6161,4854C6145,4887 6133,4917 6136,4919C6144,4928 6225,4938 6249,4933C6263,4931 6301,4915 6333,4899ZM1514,4633C1481,4567 1473,4482 1494,4417C1508,4369 1508,4366 1480,4297C1464,4257 1446,4197 1439,4163C1432,4128 1422,4100 1418,4100C1414,4100 1399,4117 1385,4139C1314,4245 1292,4397 1330,4510C1361,4603 1423,4702 1477,4749L1525,4790L1532,4737C1538,4692 1536,4678 1514,4633ZM5002,4713C4945,4569 4938,4357 4985,4198C5015,4097 4988,4150 4894,4377C4843,4502 4792,4676 4804,4688C4811,4695 5004,4747 5009,4744C5011,4742 5008,4728 5002,4713ZM1577,4613L1597,4565L1558,4480C1523,4404 1517,4397 1507,4415C1489,4448 1495,4560 1518,4613C1529,4639 1543,4660 1548,4660C1553,4660 1566,4639 1577,4613ZM6819,4380C6907,4275 6995,4109 7020,4001C7037,3929 7028,3826 7001,3773C6913,3600 6657,3493 6396,3520C6279,3532 6264,3542 6328,3565C6452,3610 6593,3742 6659,3877C6741,4044 6770,4313 6720,4445C6714,4460 6710,4474 6710,4476C6710,4490 6776,4431 6819,4380ZM3967,4415C4167,4346 4311,4269 4530,4112C4677,4006 4786,3912 4866,3824L4934,3748L4916,3702C4870,3576 4693,3318 4598,3237C4569,3213 4476,3146 4391,3090C4121,2909 3944,2738 3663,2387L3528,2219L3367,2141C3101,2012 2978,1958 2970,1967C2965,1971 2941,2027 2917,2090C2837,2292 2760,2623 2721,2925C2709,3019 2692,3133 2684,3179L2669,3262L2706,3309C2760,3378 3833,4447 3849,4449C3857,4449 3910,4434 3967,4415ZM1287,4334C1285,4331 1271,4335 1256,4341C1222,4357 1223,4383 1258,4410L1285,4432L1288,4385C1290,4359 1289,4336 1287,4334ZM1382,4108C1399,4086 1411,4068 1409,4066C1376,4041 1350,4030 1323,4030C1296,4030 1288,4035 1280,4056C1265,4095 1268,4165 1287,4212L1304,4254L1328,4200C1341,4171 1365,4129 1382,4108ZM7169,3856C7220,3789 7250,3728 7250,3690C7250,3650 7239,3651 7139,3700C7093,3722 7050,3740 7044,3740C7022,3740 7020,3757 7035,3800C7043,3823 7050,3871 7050,3907L7050,3971L7090,3939C7112,3921 7148,3884 7169,3856ZM5162,3874C5205,3793 5249,3636 5257,3530C5264,3435 5250,3362 5201,3235C5168,3150 5160,3116 5151,3006C5144,2922 5133,2862 5121,2834C5092,2770 5026,2712 4909,2648C4682,2524 4547,2419 4433,2275C4387,2217 4338,2132 4257,1971C4134,1726 4089,1663 3989,1603C3899,1549 3842,1540 3610,1543C3377,1545 3373,1545 3047,1444C2882,1393 2859,1388 2795,1392C2757,1395 2713,1403 2699,1411C2684,1419 2643,1462 2606,1506C2533,1597 2492,1634 2376,1709C2245,1794 2102,1826 1898,1817C1764,1811 1697,1794 1592,1741C1558,1724 1512,1694 1491,1675L1453,1641L1423,1673C1383,1714 1326,1819 1305,1890C1272,2002 1274,2200 1310,2295C1321,2324 1321,2324 1354,2244C1372,2199 1399,2143 1414,2119C1429,2095 1449,2063 1458,2048C1468,2032 1481,2020 1488,2020C1495,2020 1531,2035 1568,2054C1699,2119 1763,2135 1890,2134C1981,2133 2025,2127 2099,2107C2230,2070 2342,2015 2428,1945C2469,1912 2513,1876 2526,1866C2548,1848 2556,1847 2665,1859C2810,1875 2890,1897 3016,1956C3070,1981 3175,2028 3248,2061C3521,2182 3537,2194 3683,2380C3854,2597 4029,2786 4171,2905C4219,2945 4331,3026 4420,3086C4605,3209 4676,3274 4772,3410C4838,3503 4950,3707 4950,3734C4950,3742 4966,3757 4984,3768C5026,3793 5076,3860 5092,3912C5098,3933 5108,3949 5114,3947C5120,3945 5141,3912 5162,3874ZM7029,3698C7063,3617 7067,3476 7035,3463C7020,3458 6856,3591 6867,3600C6872,3603 6896,3623 6922,3643C6948,3664 6977,3694 6987,3710C6996,3727 7006,3740 7008,3740C7009,3740 7019,3721 7029,3698ZM5598,3686C5625,3668 5673,3642 5704,3630C5769,3603 5768,3607 5745,3460C5730,3363 5657,3106 5622,3026C5610,3000 5593,2979 5580,2975C5568,2971 5557,2970 5555,2972C5554,2973 5538,3011 5521,3055C5487,3139 5442,3215 5380,3290L5342,3335L5368,3354L5394,3374L5448,3314C5506,3250 5580,3143 5580,3123C5580,3116 5585,3110 5590,3110C5603,3110 5578,3172 5545,3222C5532,3242 5494,3287 5462,3322L5402,3385L5441,3429C5498,3493 5529,3563 5536,3648C5540,3687 5544,3720 5545,3720C5547,3720 5570,3705 5598,3686ZM1405,3440C1414,3404 1428,3354 1436,3329L1451,3283L1396,3179C1366,3122 1332,3041 1320,3001C1295,2916 1290,2918 1263,3026C1241,3118 1241,3315 1264,3434C1284,3536 1306,3600 1346,3667L1375,3715L1382,3610C1385,3552 1395,3476 1405,3440ZM6710,3502C6710,3486 6704,3466 6697,3456C6681,3434 6658,3439 6616,3473L6587,3497L6646,3512C6678,3520 6706,3528 6708,3529C6709,3529 6710,3517 6710,3502ZM2260,3346C2382,3326 2644,3260 2652,3247C2655,3241 2663,3200 2669,3156C2675,3111 2689,3005 2701,2920C2747,2573 2816,2287 2909,2051C2932,1994 2950,1946 2948,1945C2930,1930 2811,1898 2727,1886C2558,1860 2561,1860 2468,1939C2308,2075 2101,2151 1885,2153C1774,2153 1759,2151 1683,2122C1638,2105 1577,2077 1547,2060L1493,2030L1458,2082C1378,2204 1306,2400 1289,2546C1264,2760 1328,3044 1443,3227C1467,3265 1477,3271 1562,3298C1668,3333 1732,3347 1846,3360C1945,3371 2149,3364 2260,3346ZM5367,3275C5448,3178 5540,2991 5540,2922C5540,2893 5496,2818 5461,2786C5443,2769 5436,2771 5303,2839L5165,2910L5173,3023C5185,3173 5219,3265 5276,3297C5297,3310 5318,3320 5322,3320C5326,3320 5346,3300 5367,3275ZM1237,3077C1244,3037 1258,2976 1270,2942C1282,2908 1289,2872 1286,2863C1283,2853 1276,2798 1270,2741C1258,2628 1268,2500 1297,2401C1312,2348 1312,2344 1289,2281C1268,2224 1265,2197 1266,2090C1266,1908 1304,1787 1395,1675L1438,1622L1399,1584C1377,1562 1341,1522 1318,1493L1278,1441L1250,1462C1210,1491 1119,1483 1054,1445C1029,1430 1007,1420 1005,1422C995,1432 906,1643 885,1704C827,1877 811,2189 850,2412C894,2671 960,2822 1114,3019C1158,3075 1199,3128 1205,3136C1210,3144 1217,3150 1220,3150C1223,3150 1231,3117 1237,3077ZM5334,2803C5469,2731 5492,2716 5574,2646C5656,2576 5717,2491 5788,2348C5872,2181 5910,2019 5917,1810C5921,1678 5919,1656 5896,1566C5860,1427 5786,1287 5694,1185C5663,1150 5659,1148 5664,1170C5668,1184 5673,1263 5676,1345C5690,1677 5618,1973 5440,2315C5323,2542 5278,2612 5168,2741C5142,2772 5124,2801 5129,2806C5134,2811 5143,2832 5149,2852C5163,2896 5152,2899 5334,2803ZM5204,2670C5336,2501 5477,2233 5559,1995C5619,1821 5625,1797 5645,1647C5672,1446 5661,1213 5619,1060C5578,916 5488,774 5397,712C5326,663 5202,627 4895,566C4846,556 4627,530 4595,530C4566,530 4567,532 4615,558C4642,573 4670,596 4678,610C4693,640 4689,723 4670,745C4647,773 4518,826 4428,845C4362,859 4316,862 4240,857L4139,852L4115,903C4024,1096 3943,1290 3915,1380C3866,1536 3865,1527 3932,1554C4006,1584 4083,1641 4130,1701C4151,1728 4216,1845 4275,1962C4334,2079 4396,2195 4413,2220C4460,2290 4627,2451 4710,2506C4751,2534 4841,2588 4909,2626C4980,2666 5050,2713 5074,2737L5115,2780L5138,2752C5151,2737 5181,2700 5204,2670ZM2124,1784C2241,1764 2277,1749 2391,1674C2457,1631 2512,1584 2565,1526C2639,1444 2642,1439 2647,1381C2657,1271 2591,1125 2469,986C2391,898 2241,786 2118,727C2015,676 1956,653 1758,584C1530,505 1078,480 880,536C821,552 750,601 750,624C750,631 777,675 811,721C844,767 901,855 937,915C1107,1198 1308,1469 1459,1617C1546,1703 1650,1759 1765,1784C1858,1803 2014,1804 2124,1784ZM3860,1509C3860,1500 3871,1455 3884,1409C3903,1344 3906,1322 3897,1313C3876,1292 3720,1230 3599,1195C3441,1149 3213,1103 3087,1091C2939,1077 2567,1067 2571,1076C2573,1081 2594,1123 2618,1170C2654,1241 2662,1269 2667,1331L2673,1406L2729,1387C2807,1360 2861,1368 3075,1433C3238,1483 3351,1512 3420,1523C3434,1526 3538,1527 3652,1526C3837,1525 3860,1523 3860,1509ZM1241,1450C1251,1444 1260,1435 1260,1429C1260,1424 1233,1386 1200,1344C1167,1303 1111,1224 1074,1169C1031,1104 999,1065 982,1059C949,1046 866,1053 845,1070C823,1088 826,1155 852,1209C881,1268 1022,1410 1080,1438C1128,1462 1208,1467 1241,1450ZM5741,945C5796,926 5873,894 5911,873C5982,834 6080,753 6080,732C6080,712 6041,698 5967,693L5895,687L5882,723C5866,768 5798,814 5680,861C5633,880 5593,897 5591,900C5583,910 5614,980 5627,980C5634,980 5685,964 5741,945ZM5681,840C5795,789 5858,747 5866,714C5876,676 5855,662 5770,649C5691,637 5447,642 5397,657L5368,666L5413,698C5457,729 5518,797 5553,853C5563,868 5575,880 5580,880C5585,880 5630,862 5681,840ZM4436,825C4521,808 4634,756 4655,727C4680,691 4674,633 4642,600C4587,546 4412,507 4215,506C4079,505 4003,520 3959,557C3907,601 3924,657 4017,739C4138,847 4236,867 4436,825Z" style="fill:rgb(39,145,239);fill-rule:nonzero;stroke:rgb(39,145,239);stroke-width:20px;"/>
                <path d="M5363,7277C5383,7222 5393,7129 5382,7106C5376,7092 5375,7078 5380,7075C5384,7072 5393,7084 5399,7102C5411,7139 5390,7265 5369,7284C5360,7292 5359,7290 5363,7277Z" style="fill:rgb(39,145,239);fill-rule:nonzero;stroke:rgb(39,145,239);stroke-width:20px;"/>
                <path d="M3970,7220C3970,7216 3981,7209 3994,7206C4015,7201 4018,7192 4029,7110C4042,7011 4082,6888 4130,6804C4146,6775 4157,6743 4154,6733C4149,6716 4150,6716 4162,6733C4238,6838 4340,7010 4340,7032C4340,7062 4311,7087 4220,7138C4136,7185 3970,7239 3970,7220ZM4161,7144C4274,7089 4320,7056 4320,7029C4320,7018 4289,6962 4250,6903C4212,6844 4180,6793 4180,6788C4180,6765 4159,6786 4132,6838C4070,6956 4016,7190 4052,7190C4060,7190 4109,7169 4161,7144Z" style="fill:rgb(39,145,239);fill-rule:nonzero;stroke:rgb(39,145,239);stroke-width:20px;"/>
                <path d="M4800,7129C4775,7126 4765,7122 4778,7122C4790,7121 4800,7119 4800,7118C4800,7116 4793,7097 4785,7075C4768,7028 4766,6947 4780,6920C4788,6905 4785,6898 4768,6886C4726,6856 4759,6859 4821,6891C4923,6942 5051,6988 5169,7016C5345,7057 5340,7083 5147,7110C5005,7130 4864,7138 4800,7129ZM5125,7094C5186,7086 5244,7077 5255,7073C5273,7068 5273,7067 5250,7058C5236,7053 5187,7040 5140,7029C5093,7018 5038,7003 5016,6994C4995,6986 4977,6980 4976,6982C4974,6984 4968,7003 4962,7026C4955,7048 4941,7075 4930,7085C4909,7104 4858,7110 4827,7096C4813,7089 4811,7091 4816,7105C4822,7120 4834,7121 4919,7115C4972,7112 5065,7102 5125,7094ZM4924,7071C4933,7061 4944,7035 4947,7015C4952,6985 4949,6974 4935,6964C4907,6943 4900,6947 4900,6983C4900,7040 4863,7059 4835,7016C4822,6997 4821,6984 4828,6956C4836,6928 4835,6920 4822,6915C4800,6907 4790,6928 4790,6988C4790,7031 4795,7046 4815,7065C4845,7096 4899,7099 4924,7071Z" style="fill:rgb(39,145,239);fill-rule:nonzero;stroke:rgb(39,145,239);stroke-width:20px;"/>
                <path d="M6401,5723C6372,5664 6357,5576 6365,5501C6381,5348 6448,5179 6513,5124L6544,5098L6563,5147C6589,5212 6583,5388 6551,5506C6525,5600 6473,5701 6442,5715C6427,5721 6422,5731 6426,5742C6436,5773 6421,5761 6401,5723ZM6478,5642C6532,5540 6554,5442 6554,5293C6555,5135 6546,5114 6499,5170C6409,5277 6352,5567 6401,5673C6420,5716 6444,5706 6478,5642Z" style="fill:rgb(39,145,239);fill-rule:nonzero;stroke:rgb(39,145,239);stroke-width:20px;"/>
            </g>
            <g transform="matrix(0.1,0,0,-0.1,0,800)">
                <path d="M4990,7507C4965,7495 4932,7475 4916,7462C4891,7443 4875,7440 4803,7440C4732,7440 4707,7435 4637,7408L4555,7376L4350,7375C4157,7374 4140,7372 4057,7347C3942,7311 3916,7298 3891,7257C3860,7206 3863,7115 3900,6976C3930,6866 3979,6731 4024,6640C4040,6609 4045,6587 4039,6570C4035,6556 4032,6519 4031,6488C4030,6439 4024,6422 3992,6371C3970,6339 3948,6299 3941,6282L3929,6253L3812,6247C3667,6240 3535,6214 3349,6154C3085,6069 2881,5973 2754,5872L2706,5834L2648,5858C2551,5897 2506,5897 2420,5861C2379,5844 2319,5814 2288,5795L2230,5761L2163,5837C1963,6062 1880,6134 1803,6146C1744,6155 1631,6138 1554,6109C1442,6067 1342,5931 1317,5787C1307,5724 1307,5720 1338,5658C1390,5553 1644,5240 1677,5240C1696,5240 1693,5232 1661,5181C1616,5112 1544,4953 1524,4883C1510,4830 1501,4817 1464,4791C1395,4741 1325,4633 1290,4523C1278,4482 1265,4464 1231,4440C1193,4412 1189,4405 1192,4372C1194,4344 1202,4331 1228,4313C1246,4301 1265,4290 1270,4288C1276,4286 1270,4265 1258,4240C1240,4205 1235,4178 1236,4118C1236,4050 1240,4037 1261,4014C1282,3991 1291,3989 1338,3992C1390,3997 1391,3996 1386,3971C1383,3957 1376,3900 1370,3845C1362,3773 1354,3740 1341,3725C1276,3654 1222,3476 1213,3300L1207,3185L1156,3129C896,2846 790,2556 790,2127C790,1874 824,1716 931,1483L963,1411L908,1351C839,1277 790,1183 790,1124C790,1060 825,1023 895,1015L949,1008L898,926C870,882 824,812 796,771C714,653 710,646 710,625C710,601 770,540 817,516C887,481 1022,467 1255,473C1544,480 1643,498 1897,590C2102,665 2241,738 2361,834C2418,880 2486,943 2512,975L2558,1033L2772,1036C2889,1038 3032,1045 3090,1050C3340,1076 3729,1176 3874,1252L3904,1267L3948,1171C3972,1118 4014,1023 4041,960L4090,845L4068,830C3948,749 3895,682 3895,609C3895,553 3915,526 3980,496C4018,479 4050,475 4178,472C4272,469 4363,473 4413,480C4458,487 4542,494 4600,496C4658,497 4755,505 4815,513C4940,531 5223,591 5290,615C5325,627 5344,629 5375,621C5439,605 5667,598 5764,609C5815,615 5864,627 5879,637C5896,648 5931,655 5979,657C6065,662 6107,680 6116,716C6125,752 6105,785 6040,836C5966,895 5854,952 5745,985C5696,1000 5654,1014 5653,1014C5652,1015 5655,1032 5660,1051C5666,1070 5704,1128 5745,1180C5838,1298 5903,1425 5936,1555C5959,1646 5961,1669 5957,1810C5954,1940 5948,1986 5921,2098C5883,2259 5865,2306 5792,2435C5734,2537 5610,2680 5535,2732C5516,2744 5500,2759 5500,2763C5500,2767 5518,2793 5540,2821C5568,2857 5580,2881 5580,2904C5580,2929 5586,2939 5605,2948C5618,2954 5641,2981 5654,3009C5691,3082 5769,3350 5786,3465C5794,3520 5802,3566 5804,3567C5806,3569 5845,3561 5891,3549C5945,3536 6022,3527 6105,3523C6196,3520 6246,3513 6270,3502C6294,3491 6341,3485 6425,3482C6538,3479 6547,3477 6580,3451C6677,3375 6731,3385 6746,3481C6751,3512 6759,3520 6797,3539C6849,3564 6831,3572 6943,3472C7010,3412 7049,3404 7075,3444C7096,3476 7104,3553 7092,3623C7087,3654 7085,3680 7087,3680C7089,3680 7117,3667 7150,3650C7217,3616 7257,3612 7276,3638C7319,3695 7259,3832 7141,3942C7075,4005 7060,4024 7041,4080C6986,4235 6824,4469 6752,4499C6730,4508 6714,4530 6684,4593C6651,4661 6627,4693 6535,4786C6475,4848 6407,4907 6385,4918C6363,4930 6348,4939 6352,4940C6355,4940 6412,4951 6477,4966C6645,5002 6670,5029 6685,5190C6701,5353 6636,5640 6562,5739C6496,5826 6444,5860 6378,5860C6331,5860 6121,5819 6050,5795C6025,5787 5907,5756 5786,5725C5666,5695 5556,5661 5542,5651L5516,5632L5490,5669C5476,5689 5461,5710 5457,5716C5453,5724 5469,5734 5503,5745C5597,5775 5787,5881 5872,5950C6081,6118 6178,6301 6206,6575C6209,6614 6220,6661 6230,6680C6264,6748 6264,6867 6229,7000C6217,7048 6138,7145 6082,7182C6036,7211 6033,7212 5939,7206C5887,7203 5802,7193 5751,7184C5672,7170 5657,7169 5649,7181C5644,7189 5645,7199 5650,7204C5668,7222 5660,7255 5624,7310C5572,7388 5543,7417 5477,7456C5402,7500 5359,7506 5283,7485L5223,7468L5168,7499C5102,7536 5054,7539 4990,7507ZM5167,7454L5194,7433L5161,7415C5127,7398 5054,7399 4960,7419L4925,7426L4973,7454C5057,7503 5105,7503 5167,7454ZM5420,7439C5444,7428 5479,7408 5498,7394C5533,7367 5620,7254 5620,7235C5620,7230 5602,7205 5580,7180L5541,7135L5540,7195C5539,7228 5534,7264 5529,7275C5523,7289 5522,7278 5525,7240C5529,7204 5526,7170 5516,7143C5508,7119 5504,7099 5508,7096C5512,7094 5549,7100 5590,7110C5806,7164 5996,7183 6046,7157C6084,7138 6139,7077 6174,7017C6195,6982 6200,6961 6198,6928C6196,6896 6191,6886 6180,6889C6146,6898 6049,6890 6015,6875C5960,6853 5920,6856 5847,6891C5790,6917 5775,6920 5739,6913C5674,6900 5682,6885 5753,6884C5791,6884 5838,6875 5873,6861L5931,6839L6008,6861C6083,6882 6180,6884 6211,6865C6227,6855 6216,6741 6195,6701L6180,6671L6123,6706C6072,6736 6058,6740 5995,6740C5891,6740 5835,6719 5667,6618C5497,6515 5440,6488 5332,6458C5185,6417 4872,6435 4801,6489C4766,6516 4762,6581 4791,6645C4823,6715 4824,6718 4802,6690C4785,6670 4771,6635 4755,6574C4753,6568 4727,6549 4696,6531C4577,6464 4532,6400 4543,6316L4549,6275L4307,6275C4112,6274 4056,6271 4018,6258C3991,6249 3970,6245 3970,6249C3970,6253 3993,6294 4020,6340C4065,6414 4070,6430 4071,6484C4072,6518 4075,6559 4079,6575C4084,6598 4074,6632 4033,6725C3983,6839 3921,7037 3905,7127C3897,7178 3912,7229 3943,7258C3955,7269 4006,7291 4055,7307C4141,7333 4155,7334 4355,7335C4557,7336 4567,7337 4630,7363C4741,7407 4781,7412 4920,7400C5080,7386 5163,7373 5223,7354C5249,7345 5276,7340 5282,7342C5297,7347 5205,7380 5178,7380C5141,7380 5162,7399 5228,7423C5340,7466 5358,7467 5420,7439ZM5609,7139C5588,7127 5574,7146 5590,7165C5602,7180 5604,7180 5613,7164C5619,7153 5618,7145 5609,7139ZM6093,6704C6147,6677 6170,6650 6170,6614C6170,6563 6134,6392 6110,6325C6060,6191 5923,6027 5783,5934C5673,5861 5408,5743 5396,5762C5357,5818 5328,5849 5227,5941C5118,6040 5094,6057 4976,6115C4827,6188 4677,6247 4617,6257C4594,6260 4572,6268 4568,6274C4552,6297 4560,6394 4579,6424C4598,6453 4723,6540 4744,6540C4750,6540 4762,6525 4770,6507C4792,6460 4868,6433 5017,6419C5263,6397 5395,6432 5657,6588C5750,6643 5848,6695 5875,6703C5943,6724 6052,6724 6093,6704ZM4512,6250C4573,6244 4647,6228 4707,6208C4847,6162 5084,6042 5150,5984C5269,5881 5344,5801 5409,5710C5505,5577 5504,5578 5486,5522C5477,5496 5467,5454 5464,5428C5459,5389 5453,5381 5433,5375C5419,5372 5407,5370 5405,5372C5404,5374 5388,5409 5369,5450C5269,5673 5102,5885 4962,5967C4927,5988 4911,5991 4879,5986C4844,5980 4825,5986 4742,6026C4527,6129 4329,6190 4107,6221C4059,6228 4022,6235 4024,6238C4044,6257 4356,6265 4512,6250ZM4175,6189C4409,6146 4550,6101 4716,6017L4782,5984L4628,5962C4445,5935 4232,5885 4095,5835C3963,5787 3825,5725 3772,5689C3730,5661 3728,5660 3692,5676C3592,5717 3067,5744 2896,5716C2809,5701 2658,5664 2604,5643C2590,5638 2594,5648 2620,5680C2747,5843 2927,5959 3222,6069C3604,6211 3876,6245 4175,6189ZM1883,6062C1930,6027 2201,5751 2208,5731C2209,5726 2178,5698 2138,5668C2007,5569 1842,5401 1758,5282C1743,5260 1741,5260 1702,5275C1672,5287 1644,5314 1593,5378C1364,5665 1342,5704 1359,5790C1382,5906 1461,6019 1548,6061C1611,6092 1702,6110 1773,6106C1822,6102 1839,6096 1883,6062ZM4881,5957C4835,5901 4704,5382 4654,5056C4619,4826 4612,4646 4635,4545C4659,4436 4757,4142 4820,3990C4848,3921 4874,3858 4878,3850C4881,3842 4871,3850 4856,3868C4794,3941 4557,4125 4375,4242C4232,4334 3941,4460 3871,4460C3844,4460 3836,4469 3784,4558C3714,4675 3656,4803 3635,4887C3622,4938 3621,4963 3630,5037C3656,5251 3725,5614 3745,5646C3763,5673 3915,5748 4073,5806C4289,5885 4637,5957 4859,5968C4886,5970 4890,5967 4881,5957ZM4956,5951C5014,5916 5121,5807 5195,5708C5263,5618 5380,5407 5380,5374C5380,5350 5339,5358 5282,5393C5244,5416 5220,5440 5199,5476C5140,5580 5040,5690 5004,5690C4990,5690 4920,5514 4891,5410C4861,5299 4835,5150 4804,4917C4773,4679 4775,4645 4835,4479C4909,4270 4979,4124 5056,4018L5090,3970L5068,3913C5056,3879 5029,3837 5004,3810C4938,3741 4930,3751 4821,4025C4758,4184 4694,4372 4658,4505C4605,4695 4651,5092 4786,5620C4838,5823 4856,5881 4882,5933C4903,5975 4913,5978 4956,5951ZM2601,5830C2695,5801 2698,5797 2665,5764C2650,5748 2621,5712 2599,5684C2569,5644 2542,5624 2478,5592C2364,5535 2277,5467 2129,5320C1948,5140 1766,4893 1654,4677L1608,4587L1579,4651C1528,4765 1546,4878 1645,5070C1745,5263 1995,5544 2190,5682C2298,5759 2472,5850 2511,5850C2526,5850 2566,5841 2601,5830ZM6457,5794C6551,5723 6613,5569 6640,5337C6658,5186 6640,5075 6592,5042C6547,5010 6056,4916 5823,4895C5757,4889 5747,4890 5700,4916C5558,4993 5486,5143 5486,5365C5486,5455 5490,5485 5508,5531C5544,5621 5554,5626 5787,5685C5901,5714 6048,5752 6113,5769C6259,5807 6379,5829 6405,5823C6416,5820 6439,5807 6457,5794ZM3525,5686C3688,5666 3723,5655 3717,5627C3661,5382 3611,5084 3609,4987C3608,4918 3618,4860 3642,4795C3662,4741 3736,4596 3779,4525L3822,4455L3283,3920C2986,3626 2723,3360 2698,3330L2653,3275L2479,3318C2253,3372 2175,3383 2000,3383C1830,3382 1693,3362 1566,3319C1518,3302 1474,3292 1469,3297C1446,3320 1409,3501 1403,3615C1394,3802 1436,4110 1492,4269C1532,4382 1639,4615 1702,4725C1894,5061 2178,5383 2418,5538C2512,5599 2735,5672 2909,5700C2988,5713 3381,5703 3525,5686ZM5045,5648C5074,5626 5202,5459 5195,5452C5193,5450 5178,5456 5161,5464C5118,5487 5034,5483 4937,5454C4922,5449 4924,5460 4951,5532C4968,5578 4986,5627 4992,5643C5004,5676 5009,5676 5045,5648ZM5090,5439C5084,5428 5080,5414 5082,5408C5084,5402 5092,5411 5099,5428C5107,5446 5118,5460 5124,5460C5131,5460 5163,5444 5196,5424C5345,5332 5352,5330 5436,5355C5455,5361 5458,5356 5469,5275C5476,5227 5492,5158 5505,5122C5518,5086 5528,5055 5527,5054C5526,5053 5495,5043 5457,5031C5396,5010 5386,5003 5344,4947C5287,4871 5242,4831 5215,4830C5185,4830 5115,4906 5085,4973C5054,5040 5045,5048 5065,4989C5086,4931 5115,4887 5156,4850C5176,4833 5191,4817 5189,4815C5187,4813 5106,4791 5010,4767C4914,4742 4827,4718 4818,4715C4796,4706 4796,4700 4820,4895C4846,5098 4876,5276 4898,5365L4916,5435L4971,5446C5001,5453 5042,5458 5063,5459C5098,5460 5100,5459 5090,5439ZM5579,4989C5603,4961 5635,4930 5651,4921L5679,4904L5645,4862C5605,4811 5556,4698 5530,4595C5488,4430 5481,4169 5511,3824C5529,3617 5506,3531 5406,3422C5373,3386 5271,3310 5256,3310C5253,3310 5256,3327 5262,3348C5268,3368 5273,3432 5273,3490C5273,3649 5215,3846 5142,3940C5088,4009 5021,4136 5000,4210C4967,4327 4962,4494 4989,4602C5025,4752 5025,4753 5116,4774C5245,4804 5252,4809 5391,4973C5412,4997 5476,5028 5530,5039C5533,5040 5555,5017 5579,4989ZM6333,4899C6443,4845 6585,4699 6645,4580C6715,4441 6735,4334 6720,4182C6698,3963 6651,3853 6527,3726C6427,3623 6335,3574 6222,3562C5977,3535 5561,3668 5536,3780C5531,3805 5533,3806 5599,3816C5765,3843 5922,3961 6059,4163C6104,4230 6083,4221 6035,4153C6013,4121 5959,4059 5915,4014C5847,3946 5819,3925 5740,3887C5640,3839 5542,3813 5535,3834C5527,3856 5510,4126 5510,4228C5510,4495 5564,4726 5656,4852C5686,4892 5695,4898 5710,4890C5737,4876 5860,4878 5970,4895C6114,4917 6107,4919 6140,4848C6170,4783 6189,4687 6190,4590C6191,4542 6193,4538 6202,4558C6211,4575 6211,4610 6203,4687C6194,4770 6185,4806 6161,4854C6145,4887 6133,4917 6136,4919C6144,4928 6225,4938 6249,4933C6263,4931 6301,4915 6333,4899ZM1514,4633C1481,4567 1473,4482 1494,4417C1508,4369 1508,4366 1480,4297C1464,4257 1446,4197 1439,4163C1432,4128 1422,4100 1418,4100C1414,4100 1399,4117 1385,4139C1314,4245 1292,4397 1330,4510C1361,4603 1423,4702 1477,4749L1525,4790L1532,4737C1538,4692 1536,4678 1514,4633ZM5002,4713C4945,4569 4938,4357 4985,4198C5015,4097 4988,4150 4894,4377C4843,4502 4792,4676 4804,4688C4811,4695 5004,4747 5009,4744C5011,4742 5008,4728 5002,4713ZM1577,4613L1597,4565L1558,4480C1523,4404 1517,4397 1507,4415C1489,4448 1495,4560 1518,4613C1529,4639 1543,4660 1548,4660C1553,4660 1566,4639 1577,4613ZM6819,4380C6907,4275 6995,4109 7020,4001C7037,3929 7028,3826 7001,3773C6913,3600 6657,3493 6396,3520C6279,3532 6264,3542 6328,3565C6452,3610 6593,3742 6659,3877C6741,4044 6770,4313 6720,4445C6714,4460 6710,4474 6710,4476C6710,4490 6776,4431 6819,4380ZM3967,4415C4167,4346 4311,4269 4530,4112C4677,4006 4786,3912 4866,3824L4934,3748L4916,3702C4870,3576 4693,3318 4598,3237C4569,3213 4476,3146 4391,3090C4121,2909 3944,2738 3663,2387L3528,2219L3367,2141C3101,2012 2978,1958 2970,1967C2965,1971 2941,2027 2917,2090C2837,2292 2760,2623 2721,2925C2709,3019 2692,3133 2684,3179L2669,3262L2706,3309C2760,3378 3833,4447 3849,4449C3857,4449 3910,4434 3967,4415ZM1287,4334C1285,4331 1271,4335 1256,4341C1222,4357 1223,4383 1258,4410L1285,4432L1288,4385C1290,4359 1289,4336 1287,4334ZM1382,4108C1399,4086 1411,4068 1409,4066C1376,4041 1350,4030 1323,4030C1296,4030 1288,4035 1280,4056C1265,4095 1268,4165 1287,4212L1304,4254L1328,4200C1341,4171 1365,4129 1382,4108ZM7169,3856C7220,3789 7250,3728 7250,3690C7250,3650 7239,3651 7139,3700C7093,3722 7050,3740 7044,3740C7022,3740 7020,3757 7035,3800C7043,3823 7050,3871 7050,3907L7050,3971L7090,3939C7112,3921 7148,3884 7169,3856ZM5162,3874C5205,3793 5249,3636 5257,3530C5264,3435 5250,3362 5201,3235C5168,3150 5160,3116 5151,3006C5144,2922 5133,2862 5121,2834C5092,2770 5026,2712 4909,2648C4682,2524 4547,2419 4433,2275C4387,2217 4338,2132 4257,1971C4134,1726 4089,1663 3989,1603C3899,1549 3842,1540 3610,1543C3377,1545 3373,1545 3047,1444C2882,1393 2859,1388 2795,1392C2757,1395 2713,1403 2699,1411C2684,1419 2643,1462 2606,1506C2533,1597 2492,1634 2376,1709C2245,1794 2102,1826 1898,1817C1764,1811 1697,1794 1592,1741C1558,1724 1512,1694 1491,1675L1453,1641L1423,1673C1383,1714 1326,1819 1305,1890C1272,2002 1274,2200 1310,2295C1321,2324 1321,2324 1354,2244C1372,2199 1399,2143 1414,2119C1429,2095 1449,2063 1458,2048C1468,2032 1481,2020 1488,2020C1495,2020 1531,2035 1568,2054C1699,2119 1763,2135 1890,2134C1981,2133 2025,2127 2099,2107C2230,2070 2342,2015 2428,1945C2469,1912 2513,1876 2526,1866C2548,1848 2556,1847 2665,1859C2810,1875 2890,1897 3016,1956C3070,1981 3175,2028 3248,2061C3521,2182 3537,2194 3683,2380C3854,2597 4029,2786 4171,2905C4219,2945 4331,3026 4420,3086C4605,3209 4676,3274 4772,3410C4838,3503 4950,3707 4950,3734C4950,3742 4966,3757 4984,3768C5026,3793 5076,3860 5092,3912C5098,3933 5108,3949 5114,3947C5120,3945 5141,3912 5162,3874ZM7029,3698C7063,3617 7067,3476 7035,3463C7020,3458 6856,3591 6867,3600C6872,3603 6896,3623 6922,3643C6948,3664 6977,3694 6987,3710C6996,3727 7006,3740 7008,3740C7009,3740 7019,3721 7029,3698ZM5598,3686C5625,3668 5673,3642 5704,3630C5769,3603 5768,3607 5745,3460C5730,3363 5657,3106 5622,3026C5610,3000 5593,2979 5580,2975C5568,2971 5557,2970 5555,2972C5554,2973 5538,3011 5521,3055C5487,3139 5442,3215 5380,3290L5342,3335L5368,3354L5394,3374L5448,3314C5506,3250 5580,3143 5580,3123C5580,3116 5585,3110 5590,3110C5603,3110 5578,3172 5545,3222C5532,3242 5494,3287 5462,3322L5402,3385L5441,3429C5498,3493 5529,3563 5536,3648C5540,3687 5544,3720 5545,3720C5547,3720 5570,3705 5598,3686ZM1405,3440C1414,3404 1428,3354 1436,3329L1451,3283L1396,3179C1366,3122 1332,3041 1320,3001C1295,2916 1290,2918 1263,3026C1241,3118 1241,3315 1264,3434C1284,3536 1306,3600 1346,3667L1375,3715L1382,3610C1385,3552 1395,3476 1405,3440ZM6710,3502C6710,3486 6704,3466 6697,3456C6681,3434 6658,3439 6616,3473L6587,3497L6646,3512C6678,3520 6706,3528 6708,3529C6709,3529 6710,3517 6710,3502ZM2260,3346C2382,3326 2644,3260 2652,3247C2655,3241 2663,3200 2669,3156C2675,3111 2689,3005 2701,2920C2747,2573 2816,2287 2909,2051C2932,1994 2950,1946 2948,1945C2930,1930 2811,1898 2727,1886C2558,1860 2561,1860 2468,1939C2308,2075 2101,2151 1885,2153C1774,2153 1759,2151 1683,2122C1638,2105 1577,2077 1547,2060L1493,2030L1458,2082C1378,2204 1306,2400 1289,2546C1264,2760 1328,3044 1443,3227C1467,3265 1477,3271 1562,3298C1668,3333 1732,3347 1846,3360C1945,3371 2149,3364 2260,3346ZM5367,3275C5448,3178 5540,2991 5540,2922C5540,2893 5496,2818 5461,2786C5443,2769 5436,2771 5303,2839L5165,2910L5173,3023C5185,3173 5219,3265 5276,3297C5297,3310 5318,3320 5322,3320C5326,3320 5346,3300 5367,3275ZM1237,3077C1244,3037 1258,2976 1270,2942C1282,2908 1289,2872 1286,2863C1283,2853 1276,2798 1270,2741C1258,2628 1268,2500 1297,2401C1312,2348 1312,2344 1289,2281C1268,2224 1265,2197 1266,2090C1266,1908 1304,1787 1395,1675L1438,1622L1399,1584C1377,1562 1341,1522 1318,1493L1278,1441L1250,1462C1210,1491 1119,1483 1054,1445C1029,1430 1007,1420 1005,1422C995,1432 906,1643 885,1704C827,1877 811,2189 850,2412C894,2671 960,2822 1114,3019C1158,3075 1199,3128 1205,3136C1210,3144 1217,3150 1220,3150C1223,3150 1231,3117 1237,3077ZM5334,2803C5469,2731 5492,2716 5574,2646C5656,2576 5717,2491 5788,2348C5872,2181 5910,2019 5917,1810C5921,1678 5919,1656 5896,1566C5860,1427 5786,1287 5694,1185C5663,1150 5659,1148 5664,1170C5668,1184 5673,1263 5676,1345C5690,1677 5618,1973 5440,2315C5323,2542 5278,2612 5168,2741C5142,2772 5124,2801 5129,2806C5134,2811 5143,2832 5149,2852C5163,2896 5152,2899 5334,2803ZM5204,2670C5336,2501 5477,2233 5559,1995C5619,1821 5625,1797 5645,1647C5672,1446 5661,1213 5619,1060C5578,916 5488,774 5397,712C5326,663 5202,627 4895,566C4846,556 4627,530 4595,530C4566,530 4567,532 4615,558C4642,573 4670,596 4678,610C4693,640 4689,723 4670,745C4647,773 4518,826 4428,845C4362,859 4316,862 4240,857L4139,852L4115,903C4024,1096 3943,1290 3915,1380C3866,1536 3865,1527 3932,1554C4006,1584 4083,1641 4130,1701C4151,1728 4216,1845 4275,1962C4334,2079 4396,2195 4413,2220C4460,2290 4627,2451 4710,2506C4751,2534 4841,2588 4909,2626C4980,2666 5050,2713 5074,2737L5115,2780L5138,2752C5151,2737 5181,2700 5204,2670ZM2124,1784C2241,1764 2277,1749 2391,1674C2457,1631 2512,1584 2565,1526C2639,1444 2642,1439 2647,1381C2657,1271 2591,1125 2469,986C2391,898 2241,786 2118,727C2015,676 1956,653 1758,584C1530,505 1078,480 880,536C821,552 750,601 750,624C750,631 777,675 811,721C844,767 901,855 937,915C1107,1198 1308,1469 1459,1617C1546,1703 1650,1759 1765,1784C1858,1803 2014,1804 2124,1784ZM3860,1509C3860,1500 3871,1455 3884,1409C3903,1344 3906,1322 3897,1313C3876,1292 3720,1230 3599,1195C3441,1149 3213,1103 3087,1091C2939,1077 2567,1067 2571,1076C2573,1081 2594,1123 2618,1170C2654,1241 2662,1269 2667,1331L2673,1406L2729,1387C2807,1360 2861,1368 3075,1433C3238,1483 3351,1512 3420,1523C3434,1526 3538,1527 3652,1526C3837,1525 3860,1523 3860,1509ZM1241,1450C1251,1444 1260,1435 1260,1429C1260,1424 1233,1386 1200,1344C1167,1303 1111,1224 1074,1169C1031,1104 999,1065 982,1059C949,1046 866,1053 845,1070C823,1088 826,1155 852,1209C881,1268 1022,1410 1080,1438C1128,1462 1208,1467 1241,1450ZM5741,945C5796,926 5873,894 5911,873C5982,834 6080,753 6080,732C6080,712 6041,698 5967,693L5895,687L5882,723C5866,768 5798,814 5680,861C5633,880 5593,897 5591,900C5583,910 5614,980 5627,980C5634,980 5685,964 5741,945ZM5681,840C5795,789 5858,747 5866,714C5876,676 5855,662 5770,649C5691,637 5447,642 5397,657L5368,666L5413,698C5457,729 5518,797 5553,853C5563,868 5575,880 5580,880C5585,880 5630,862 5681,840ZM4436,825C4521,808 4634,756 4655,727C4680,691 4674,633 4642,600C4587,546 4412,507 4215,506C4079,505 4003,520 3959,557C3907,601 3924,657 4017,739C4138,847 4236,867 4436,825Z" style="fill:rgb(39,145,239);fill-rule:nonzero;stroke:rgb(39,145,239);stroke-width:30px;"/>
                <path d="M5363,7277C5383,7222 5393,7129 5382,7106C5376,7092 5375,7078 5380,7075C5384,7072 5393,7084 5399,7102C5411,7139 5390,7265 5369,7284C5360,7292 5359,7290 5363,7277Z" style="fill:rgb(39,145,239);fill-rule:nonzero;stroke:rgb(39,145,239);stroke-width:20px;"/>
                <path d="M3970,7220C3970,7216 3981,7209 3994,7206C4015,7201 4018,7192 4029,7110C4042,7011 4082,6888 4130,6804C4146,6775 4157,6743 4154,6733C4149,6716 4150,6716 4162,6733C4238,6838 4340,7010 4340,7032C4340,7062 4311,7087 4220,7138C4136,7185 3970,7239 3970,7220ZM4161,7144C4274,7089 4320,7056 4320,7029C4320,7018 4289,6962 4250,6903C4212,6844 4180,6793 4180,6788C4180,6765 4159,6786 4132,6838C4070,6956 4016,7190 4052,7190C4060,7190 4109,7169 4161,7144Z" style="fill:rgb(39,145,239);fill-rule:nonzero;stroke:rgb(39,145,239);stroke-width:20px;"/>
                <path d="M4800,7129C4775,7126 4765,7122 4778,7122C4790,7121 4800,7119 4800,7118C4800,7116 4793,7097 4785,7075C4768,7028 4766,6947 4780,6920C4788,6905 4785,6898 4768,6886C4726,6856 4759,6859 4821,6891C4923,6942 5051,6988 5169,7016C5345,7057 5340,7083 5147,7110C5005,7130 4864,7138 4800,7129ZM5125,7094C5186,7086 5244,7077 5255,7073C5273,7068 5273,7067 5250,7058C5236,7053 5187,7040 5140,7029C5093,7018 5038,7003 5016,6994C4995,6986 4977,6980 4976,6982C4974,6984 4968,7003 4962,7026C4955,7048 4941,7075 4930,7085C4909,7104 4858,7110 4827,7096C4813,7089 4811,7091 4816,7105C4822,7120 4834,7121 4919,7115C4972,7112 5065,7102 5125,7094ZM4924,7071C4933,7061 4944,7035 4947,7015C4952,6985 4949,6974 4935,6964C4907,6943 4900,6947 4900,6983C4900,7040 4863,7059 4835,7016C4822,6997 4821,6984 4828,6956C4836,6928 4835,6920 4822,6915C4800,6907 4790,6928 4790,6988C4790,7031 4795,7046 4815,7065C4845,7096 4899,7099 4924,7071Z" style="fill:rgb(39,145,239);fill-rule:nonzero;stroke:rgb(39,145,239);stroke-width:20px;"/>
                <path d="M6401,5723C6372,5664 6357,5576 6365,5501C6381,5348 6448,5179 6513,5124L6544,5098L6563,5147C6589,5212 6583,5388 6551,5506C6525,5600 6473,5701 6442,5715C6427,5721 6422,5731 6426,5742C6436,5773 6421,5761 6401,5723ZM6478,5642C6532,5540 6554,5442 6554,5293C6555,5135 6546,5114 6499,5170C6409,5277 6352,5567 6401,5673C6420,5716 6444,5706 6478,5642Z" style="fill:rgb(39,145,239);fill-rule:nonzero;stroke:rgb(39,145,239);stroke-width:20px;"/>
            </g>
        </g>
        <g id="pokemon_009___blastoise__line_art__by_illustrationoverdose_d8io7gq-fullview.svg1" serif:id="pokemon_009___blastoise__line_art__by_illustrationoverdose_d8io7gq-fullview.svg">
        </g>
    </g>
</svg>
