<?xml version="1.0" encoding="UTF-8" standalone="no"?>
<!DOCTYPE svg PUBLIC "-//W3C//DTD SVG 1.1//EN" "http://www.w3.org/Graphics/SVG/1.1/DTD/svg11.dtd">
<svg width="100%" height="100%" viewBox="0 0 793 1101" version="1.1" xmlns="http://www.w3.org/2000/svg" xmlns:xlink="http://www.w3.org/1999/xlink" xml:space="preserve" xmlns:serif="http://www.serif.com/" style="fill-rule:evenodd;clip-rule:evenodd;stroke-linejoin:round;stroke-miterlimit:2;">
    <g transform="matrix(-0.1,-0,0,-0.1,792.637,1101)">
        <path d="M2925,10991C2727,10959 2579,10866 2514,10734C2459,10622 2472,10469 2549,10304C2600,10196 2638,10142 2734,10042C2904,9864 3054,9793 3569,9639L3783,9575L3913,9435C4074,9261 4166,9152 4291,8985C4584,8591 4841,8122 5011,7671C5032,7614 5050,7563 5050,7558C5050,7553 5019,7584 4981,7627C4798,7834 4474,8080 4197,8221C4131,8255 3983,8320 3868,8365C3753,8411 3626,8468 3587,8491C3507,8538 3339,8698 3318,8745L3306,8775L3302,8730C3294,8623 3344,8421 3413,8283C3487,8138 3608,7989 3768,7847C3968,7669 4104,7579 4455,7390C4765,7224 4898,7135 4981,7042C5053,6960 5054,6959 5040,6884C5013,6742 4909,6641 4668,6521C4223,6299 3676,6232 3205,6342C3097,6367 2892,6436 2795,6480C2679,6533 2651,6541 2628,6529C2611,6520 2608,6512 2614,6474C2617,6450 2631,6408 2645,6380C2659,6353 2670,6328 2670,6325C2670,6314 2491,6411 2408,6467C2362,6498 2280,6559 2225,6604C2098,6708 2081,6720 2053,6720C2004,6720 1997,6642 2034,6525L2058,6450L1967,6532C1917,6578 1783,6706 1669,6818C1555,6929 1455,7020 1447,7020C1439,7020 1422,7011 1409,7001C1386,6983 1385,6975 1382,6844C1380,6768 1383,6669 1390,6625C1422,6396 1523,6132 1634,5987L1668,5942L1612,5935C1335,5902 991,5731 433,5350C111,5130 -8,5027 16,4988C27,4971 156,4987 351,5030C447,5052 587,5080 661,5094C798,5119 1060,5154 1066,5147C1068,5145 1056,5108 1039,5065C961,4865 915,4627 870,4195C815,3659 794,3575 637,3258C566,3112 552,3091 535,3096C458,3118 425,3102 410,3035C398,2983 398,2818 410,2710C415,2663 424,2549 430,2455C488,1541 721,785 1052,442C1118,374 1252,253 1314,206C1472,87 1656,53 1700,135C1720,173 1706,226 1629,402C1457,796 1335,1170 1261,1530C1224,1708 1190,2045 1190,2226C1190,2281 1185,2312 1175,2326C1141,2371 1162,2549 1219,2695C1292,2885 1449,3058 1860,3400C2147,3638 2334,3821 2409,3936L2462,4017L2579,4028C2643,4035 2727,4043 2767,4046L2839,4052L2900,3959C2975,3845 3080,3633 3114,3527C3145,3434 3167,3316 3176,3199L3182,3113L3130,3114C3085,3115 3075,3111 3055,3087C3023,3051 2986,2931 2950,2751C2897,2484 2886,2344 2886,1935C2886,1462 2905,1210 2956,1001C2979,909 2980,891 2971,836C2957,755 2957,605 2971,538C2977,509 2998,455 3017,419C3052,352 3085,324 3120,335C3132,339 3144,330 3161,305C3174,285 3211,249 3243,225C3376,124 3569,102 3608,184C3621,209 3620,218 3600,269C3550,398 3518,508 3500,618C3489,682 3480,738 3480,742C3480,752 3607,901 3880,1210C4301,1688 4435,1861 4575,2108C4612,2174 4652,2230 4686,2262C4794,2364 4959,2654 5029,2866C5097,3071 5112,3227 5087,3490C5085,3515 5085,3515 5194,3522C5254,3525 5313,3531 5326,3534C5346,3539 5351,3535 5361,3498C5419,3284 5424,2902 5374,2575C5353,2438 5293,2213 5269,2180C5243,2145 5237,2119 5198,1845C5169,1637 5166,1593 5166,1380C5166,1054 5200,818 5275,600C5368,335 5483,183 5662,90C5817,9 5898,-7 5970,30C6028,59 6029,81 5981,204C5836,574 5788,1173 5866,1640C5906,1879 5995,2167 6119,2462C6157,2552 6227,2716 6274,2828C6474,3302 6529,3544 6530,3962L6530,4169L6584,4250C6694,4413 6769,4600 6812,4812C6844,4972 6844,5237 6811,5390C6759,5638 6653,5872 6439,6220C6278,6482 6194,6632 6145,6750L6107,6840L6144,6884C6164,6909 6232,6977 6294,7036C6356,7094 6445,7185 6491,7237C6717,7493 6804,7667 6960,8173C6999,8298 7041,8425 7054,8453C7066,8482 7080,8518 7084,8534L7091,8562L7067,8544C7053,8533 6964,8457 6869,8375C6773,8292 6637,8177 6565,8120C6293,7902 6130,7716 6024,7502C5993,7440 5966,7390 5965,7392C5957,7400 5940,7665 5939,7803L5937,7961L6055,8028C6198,8109 6273,8176 6291,8240C6298,8265 6316,8296 6330,8310C6345,8324 6373,8378 6395,8435C6457,8597 6532,8758 6599,8875C6837,9288 7376,9978 7746,10345C7814,10413 7878,10485 7890,10510C7919,10566 7921,10650 7896,10699C7851,10785 7718,10874 7588,10905C7496,10926 7333,10924 7232,10900C7033,10852 6865,10728 6784,10568C6751,10503 6727,10406 6735,10370C6741,10343 6738,10339 6703,10325C6624,10291 6220,10150 6116,10119L6009,10088L5973,10129C5882,10236 5676,10278 5484,10230C5383,10204 5275,10151 5227,10104L5190,10067L5048,10073C4881,10080 4672,10111 4330,10181C4195,10209 4004,10247 3905,10267C3806,10287 3724,10304 3723,10305C3721,10306 3735,10333 3752,10366C3781,10418 3785,10434 3785,10500C3785,10594 3754,10666 3678,10746C3578,10852 3449,10924 3280,10967C3176,10993 3009,11004 2925,10991ZM3254,10850C3427,10806 3599,10691 3649,10586C3705,10471 3645,10353 3512,10314C3437,10292 3354,10305 3254,10354C3126,10418 3010,10559 3024,10634C3029,10663 3029,10664 3015,10646C2992,10615 2987,10550 3005,10500C3045,10388 3123,10304 3244,10244C3342,10196 3430,10182 3512,10200C3596,10219 3619,10217 3730,10188C3861,10153 4305,10058 4535,10016C4795,9969 4951,9950 5085,9950C5255,9950 5250,9952 5339,9841C5511,9624 5676,9357 5830,9045C5934,8834 6046,8572 6036,8562C6033,8560 6000,8584 5963,8617C5639,8901 5129,9198 4600,9410C4374,9500 3892,9663 3485,9786C2995,9934 2860,10023 2658,10329C2648,10343 2640,10363 2640,10373C2640,10383 2634,10401 2626,10413C2593,10465 2589,10607 2618,10672C2657,10761 2766,10833 2907,10864C2995,10884 3148,10878 3254,10850ZM7558,10785C7638,10766 7691,10739 7745,10689C7835,10606 7815,10560 7591,10333C7330,10068 7124,9825 6868,9480C6669,9212 6543,9016 6440,8817L6373,8689L6367,8807C6351,9125 6251,9537 6111,9863L6064,9975L6171,10007C6307,10048 6630,10163 6732,10206C6804,10236 6816,10238 6888,10233C6982,10226 7045,10242 7175,10306C7277,10355 7359,10422 7385,10476C7409,10526 7398,10575 7360,10595C7320,10615 7285,10615 7323,10594C7354,10577 7358,10545 7334,10499C7322,10474 7292,10456 7187,10405C7010,10320 6922,10301 6872,10336C6791,10393 6929,10629 7095,10717C7153,10747 7258,10784 7310,10793C7369,10803 7500,10799 7558,10785ZM5841,10104C5914,10070 5927,10059 5958,10011C6093,9800 6240,9309 6284,8920C6309,8703 6308,8551 6281,8452C6268,8407 6254,8367 6249,8364C6218,8345 6142,8429 6114,8514C6072,8644 5971,8882 5881,9065C5732,9367 5601,9578 5374,9883C5252,10046 5252,10038 5378,10090C5487,10136 5561,10150 5666,10146C5748,10143 5767,10139 5841,10104ZM4315,9401C4457,9350 4731,9243 4814,9204L4873,9177L4835,9159C4745,9115 4715,9059 4715,8935C4715,8799 4770,8662 4887,8506C5089,8237 5396,8048 5728,7989C5795,7978 5801,7975 5795,7956C5780,7904 5769,7703 5774,7585C5791,7229 5885,6869 6046,6549C6113,6415 6131,6384 6310,6090C6493,5791 6588,5578 6636,5365C6644,5327 6654,5228 6657,5145C6663,4978 6649,4869 6605,4715C6581,4633 6511,4456 6505,4462C6503,4464 6508,4494 6516,4530C6562,4743 6532,5048 6458,5122C6431,5149 6418,5136 6363,5026C6338,4976 6304,4915 6287,4891C6241,4824 6136,4717 6057,4656C5992,4606 5793,4480 5780,4480C5777,4480 5775,4558 5774,4653C5773,4843 5747,5034 5704,5170C5679,5249 5641,5308 5622,5297C5617,5293 5595,5261 5576,5226C5487,5066 5317,4876 5162,4762C5116,4728 5033,4677 4977,4649C4856,4589 4862,4582 4884,4756C4892,4821 4897,4877 4895,4879C4886,4887 4809,4753 4791,4697C4755,4585 4747,4516 4753,4372C4759,4218 4777,4115 4855,3790C4937,3446 4943,3408 4937,3240C4929,3000 4874,2834 4692,2510L4595,2335L4510,2312C4463,2300 4396,2289 4361,2287L4297,2285L4245,2490C4216,2603 4186,2718 4177,2746C4163,2795 4163,2797 4186,2836C4269,2974 4262,3298 4169,3560C4121,3694 4122,3682 4167,3666C4223,3646 4306,3637 4326,3648C4340,3656 4335,3664 4287,3701C4256,3725 4170,3778 4096,3818C3772,3993 3627,4121 3515,4333C3471,4417 3442,4496 3453,4506C3461,4514 3493,4495 3572,4434C3720,4320 3947,4240 4010,4280C4035,4295 3985,4337 3875,4392C3624,4518 3495,4641 3388,4855C3348,4934 3306,5053 3295,5118C3288,5162 3288,5162 3311,5149C3408,5098 3478,5044 3565,4956C3665,4855 3794,4759 3881,4721C3940,4695 4032,4669 4028,4679C4026,4683 3967,4737 3897,4799C3671,4998 3601,5079 3525,5230C3480,5320 3440,5436 3440,5477C3440,5506 3440,5506 3575,5453C3843,5348 4183,5132 4403,4927C4429,4903 4453,4886 4455,4890C4458,4894 4453,4917 4445,4940C4374,5143 3905,5479 3528,5599C3361,5652 3325,5651 3301,5591C3282,5547 3318,5379 3375,5237C3381,5222 3373,5224 3328,5249C3259,5288 3219,5289 3191,5254C3166,5223 3165,5176 3184,5075C3192,5037 3197,5004 3195,5002C3193,5000 3174,5008 3152,5019C3089,5051 2877,5119 2725,5155C2148,5293 1348,5328 791,5239C723,5228 617,5208 557,5195C496,5181 445,5172 443,5173C438,5178 838,5442 960,5514C1100,5597 1320,5703 1440,5745C1498,5765 1596,5790 1658,5801C1721,5811 1777,5823 1782,5826C1788,5830 1802,5834 1814,5835C1825,5836 1838,5838 1843,5839C1855,5841 1851,5880 1834,5913C1825,5931 1789,5986 1755,6035C1612,6240 1533,6463 1506,6733L1500,6792L1672,6627C1924,6386 2105,6235 2244,6152C2349,6088 2536,6040 2556,6071C2564,6085 2522,6128 2424,6206C2379,6241 2323,6291 2300,6317C2260,6363 2200,6456 2200,6473C2200,6478 2219,6466 2243,6447C2308,6393 2451,6306 2564,6251C2689,6191 2926,6107 2951,6115C2989,6127 2972,6165 2890,6254C2846,6301 2810,6342 2810,6344C2810,6347 2852,6329 2903,6306C3330,6106 3879,6086 4392,6250C4686,6344 4892,6453 5025,6585C5135,6695 5165,6755 5165,6870C5165,6980 5142,7027 5041,7133C4959,7218 4831,7310 4651,7410L4540,7472L4540,7511C4540,7611 4638,7719 4729,7720C4775,7720 5091,7386 5167,7255C5186,7222 5211,7187 5221,7177C5240,7160 5240,7162 5240,7267C5240,7429 5191,7602 5059,7913C4821,8470 4475,9006 4112,9381L3989,9509L4092,9476C4149,9458 4249,9424 4315,9401ZM4968,9116C4945,9099 4945,9057 4970,8979C4998,8887 5040,8826 5104,8785C5173,8741 5186,8741 5156,8785C5125,8830 5074,8953 5064,9004C5058,9039 5059,9042 5075,9037C5084,9033 5102,9027 5114,9024C5131,9020 5138,9007 5147,8961C5177,8803 5286,8681 5412,8664C5491,8653 5503,8688 5465,8817L5452,8860L5479,8844C5495,8835 5521,8800 5539,8766C5607,8636 5625,8611 5661,8591C5719,8558 5723,8566 5675,8615C5636,8653 5630,8665 5630,8700C5630,8746 5627,8746 5705,8691C5894,8557 6020,8454 6069,8394C6121,8330 6122,8327 6117,8278C6110,8226 6069,8143 6045,8133C6024,8125 5836,8159 5750,8186C5651,8217 5586,8259 5552,8315C5520,8368 5508,8372 5517,8328C5531,8254 5566,8215 5652,8175C5707,8150 5903,8100 5948,8100C5985,8100 5973,8085 5911,8056L5852,8027L5748,8048C5476,8103 5265,8214 5072,8403C4887,8585 4787,8771 4786,8935C4786,9040 4815,9083 4908,9116C4928,9123 4954,9129 4965,9129C4984,9129 4984,9129 4968,9116ZM5251,8949C5259,8901 5289,8841 5311,8829C5324,8822 5337,8823 5351,8831C5368,8840 5371,8848 5367,8876C5360,8915 5367,8918 5402,8890C5445,8856 5479,8697 5445,8684C5419,8674 5330,8711 5290,8749C5242,8795 5188,8906 5182,8973L5177,9024L5211,9004C5236,8989 5246,8975 5251,8949ZM3600,8370C3641,8350 3713,8318 3760,8300C4152,8148 4367,8030 4623,7825C4715,7751 4720,7745 4698,7737C4632,7713 4589,7684 4565,7649C4535,7606 4511,7546 4510,7513C4510,7500 4507,7490 4504,7490C4490,7490 4199,7657 4110,7716C3814,7911 3556,8178 3464,8386C3415,8496 3415,8494 3472,8449C3501,8427 3558,8391 3600,8370ZM6198,8281L6224,8274L6186,8232C6142,8184 6126,8178 6140,8216C6146,8230 6150,8255 6150,8271C6150,8290 6154,8299 6161,8295C6167,8291 6183,8285 6198,8281ZM6788,8038C6655,7685 6553,7511 6352,7292L6266,7198L6257,7226C6235,7293 6171,7350 6115,7350C6101,7350 6090,7352 6090,7355C6090,7358 6106,7394 6125,7435C6211,7616 6358,7791 6582,7982C6649,8039 6738,8115 6779,8153C6821,8190 6855,8220 6856,8220C6857,8220 6826,8138 6788,8038ZM6163,7303C6192,7288 6230,7222 6230,7185C6229,7173 6193,7128 6144,7078L6059,6990L6049,7018C6043,7033 6033,7068 6028,7095C6018,7140 6020,7154 6045,7230C6060,7277 6078,7318 6084,7322C6096,7330 6121,7324 6163,7303ZM5664,5045C5698,4868 5714,4682 5708,4538L5703,4418L5751,4423C5960,4448 6308,4734 6412,4967L6434,5015L6442,4980C6447,4961 6453,4892 6457,4828C6466,4650 6437,4480 6365,4288C6342,4227 6326,4204 6270,4150C6088,3973 5806,3826 5501,3750C5376,3718 5183,3690 5095,3690C5041,3690 5041,3690 5031,3728C4904,4211 4846,4520 4882,4520C4909,4520 5094,4617 5170,4671C5323,4779 5512,4991 5590,5143C5632,5223 5630,5225 5664,5045ZM1955,5144C2510,5105 2876,5031 3159,4900C3251,4856 3252,4856 3285,4791C3303,4755 3333,4702 3352,4674L3386,4624L3357,4597C3329,4571 3328,4567 3332,4502C3339,4413 3385,4298 3460,4181C3519,4091 3520,4088 3493,4095C3190,4172 2903,4203 2680,4181C2617,4175 2555,4167 2543,4164C2521,4158 2521,4158 2537,4212C2555,4275 2565,4513 2551,4538C2542,4552 2541,4551 2540,4528C2540,4474 2407,4198 2314,4059C2238,3945 2078,3787 1805,3557C1498,3297 1266,3070 1185,2947C1124,2853 1080,2753 1053,2643C1034,2565 1031,2345 1049,2313C1057,2297 1056,2289 1041,2276C1023,2260 1015,2268 859,2472C557,2866 568,2848 584,2878C592,2893 610,2916 625,2930C640,2944 682,3009 720,3075C920,3429 972,3601 1015,4048C1055,4469 1063,4545 1085,4680C1099,4760 1120,4875 1134,4935C1147,4996 1164,5071 1170,5102L1181,5159L1306,5162C1506,5167 1720,5161 1955,5144ZM3154,4019C3399,3984 3736,3888 3832,3827C3861,3808 3908,3781 3937,3767C3987,3741 3989,3738 4014,3663C4046,3567 4046,3552 4016,3404C3956,3113 3886,2965 3640,2611C3575,2516 3519,2433 3516,2427C3508,2407 3345,2582 3286,2673L3231,2757L3250,2795C3289,2872 3305,2975 3305,3150C3305,3327 3293,3409 3244,3557C3207,3670 3130,3827 3063,3928C3031,3976 3001,4021 2997,4028C2987,4044 2989,4044 3154,4019ZM6390,3751C6364,3437 6315,3272 6082,2730C6008,2557 5923,2349 5894,2268C5849,2145 5777,1907 5756,1810C5753,1796 5737,1778 5721,1769L5692,1752L5593,1874C5538,1940 5471,2028 5445,2068L5397,2140L5433,2263C5494,2468 5514,2587 5532,2858C5546,3068 5534,3286 5499,3454C5488,3508 5483,3556 5487,3560C5491,3564 5542,3579 5600,3594C5869,3664 6145,3804 6331,3964L6395,4019L6398,3952C6400,3915 6396,3825 6390,3751ZM4099,2972C4089,2900 4084,2887 4065,2878C4020,2858 3948,2690 3968,2655C3976,2641 3968,2622 3930,2566C3904,2527 3814,2387 3730,2255C3646,2123 3573,2011 3568,2005C3556,1991 3580,2057 3629,2172C3672,2274 3677,2303 3659,2343C3649,2366 3658,2382 3758,2526C3889,2716 3935,2790 3996,2911C4040,2999 4098,3159 4102,3203C4103,3215 4106,3187 4108,3140C4110,3093 4106,3018 4099,2972ZM513,2989C506,2962 490,2965 490,2995C490,3012 494,3018 504,3014C512,3011 516,3001 513,2989ZM3164,2972C3163,2965 3162,2948 3161,2933L3159,2905L3144,2933C3127,2964 3132,2994 3153,2987C3159,2985 3165,2978 3164,2972ZM535,2794C561,2758 676,2607 791,2459C980,2217 1003,2190 1030,2190C1049,2190 1065,2199 1078,2215C1089,2229 1101,2240 1104,2240C1107,2240 1110,2213 1110,2181C1110,2125 1108,2119 1066,2073C1042,2047 1020,2027 1017,2030C1015,2033 986,2076 953,2125C871,2247 776,2368 633,2533C515,2668 513,2671 501,2738C494,2775 486,2817 483,2833C480,2848 480,2860 483,2860C486,2860 509,2830 535,2794ZM3133,2792C3208,2607 3406,2368 3518,2328C3535,2321 3550,2309 3550,2301C3550,2278 3516,2200 3507,2200C3502,2200 3451,2246 3393,2303C3285,2407 3161,2554 3102,2647L3068,2699L3084,2776C3093,2818 3100,2855 3100,2858C3100,2870 3109,2852 3133,2792ZM4125,2728C4133,2699 4164,2581 4194,2467C4229,2329 4254,2251 4267,2239C4284,2221 4292,2221 4363,2230C4405,2236 4466,2250 4497,2260C4529,2270 4556,2277 4558,2275C4560,2273 4548,2253 4530,2231C4500,2194 4491,2190 4391,2166C4332,2152 4267,2140 4248,2140L4212,2140L4165,2288C4140,2369 4103,2485 4083,2546L4047,2656L4071,2718C4084,2752 4098,2780 4102,2780C4106,2780 4116,2756 4125,2728ZM3128,2535C3201,2426 3345,2263 3429,2195C3471,2161 3488,2140 3484,2130C3453,2058 3373,1812 3350,1717C3326,1620 3311,1583 3263,1502C3232,1449 3173,1342 3133,1265C3091,1184 3059,1131 3056,1140C3031,1213 3007,1734 3013,2055C3019,2349 3045,2649 3064,2629C3066,2627 3095,2585 3128,2535ZM836,2210C868,2168 917,2102 944,2062C1003,1977 1024,1970 1075,2024L1107,2059L1113,1842C1117,1686 1125,1594 1139,1515C1151,1455 1160,1403 1160,1400C1160,1397 1146,1395 1128,1395C1085,1395 1057,1352 1033,1252C1018,1188 1015,1131 1015,918L1015,661L982,713C868,893 740,1234 670,1540C619,1766 559,2167 524,2515L517,2584L647,2435C718,2352 803,2251 836,2210ZM4084,2352C4163,2101 4168,2091 4198,2083C4214,2079 4271,2086 4334,2099C4394,2111 4444,2119 4445,2118C4457,2106 4101,1647 3956,1485C3916,1441 3911,1438 3910,1458C3910,1484 3893,1521 3876,1532C3833,1561 3777,1530 3562,1363C3445,1272 3198,1099 3192,1104C3182,1114 3357,1427 3572,1785C3707,2011 4023,2509 4030,2509C4033,2509 4057,2439 4084,2352ZM5555,1851C5668,1710 5683,1696 5711,1703C5731,1708 5732,1706 5726,1664C5720,1617 5687,1560 5667,1560C5660,1560 5586,1657 5501,1776C5351,1986 5346,1993 5349,2039C5353,2128 5358,2128 5412,2044C5439,2001 5504,1914 5555,1851ZM5470,1745C5537,1652 5604,1563 5618,1548C5645,1518 5678,1512 5699,1533C5710,1543 5712,1541 5706,1520C5703,1506 5697,1430 5694,1350C5687,1167 5685,1157 5659,1165C5606,1182 5554,1099 5515,937C5488,825 5460,650 5460,595C5460,476 5383,690 5341,926C5308,1112 5297,1275 5303,1503C5308,1719 5328,1937 5340,1923C5344,1919 5403,1839 5470,1745ZM3857,1423L3861,1375L3709,1205C3553,1030 3394,841 3211,615C3107,487 3106,486 3098,515C3079,583 3077,734 3094,818C3126,976 3132,985 3255,1073C3316,1115 3445,1210 3544,1283C3861,1518 3849,1512 3857,1423ZM1159,1337C1173,1321 1193,1268 1216,1179C1284,921 1387,632 1510,354C1543,279 1569,215 1566,213C1546,193 1237,410 1138,513L1082,572L1073,658C1060,796 1064,1176 1079,1245C1093,1308 1115,1360 1129,1360C1133,1360 1146,1349 1159,1337ZM5673,1093C5682,1076 5690,1014 5693,937C5706,668 5772,336 5837,207C5845,191 5850,174 5848,169C5843,155 5692,232 5637,276C5577,325 5502,425 5494,467C5481,538 5535,884 5580,1014C5617,1121 5646,1146 5673,1093ZM3455,340C3469,304 3484,269 3487,261C3492,250 3485,248 3450,254C3390,263 3301,313 3250,365L3207,409L3291,514L3374,619L3401,512C3416,453 3440,376 3455,340Z" style="fill:rgb(23,204,94);fill-rule:nonzero;"/>
    </g>
</svg>
