<?xml version="1.0" encoding="UTF-8" standalone="no"?>
<!DOCTYPE svg PUBLIC "-//W3C//DTD SVG 1.1//EN" "http://www.w3.org/Graphics/SVG/1.1/DTD/svg11.dtd">
<svg width="100%" height="100%" viewBox="0 0 592 837" version="1.1" xmlns="http://www.w3.org/2000/svg" xmlns:xlink="http://www.w3.org/1999/xlink" xml:space="preserve" xmlns:serif="http://www.serif.com/" style="fill-rule:evenodd;clip-rule:evenodd;stroke-linejoin:round;stroke-miterlimit:2;">
    <g transform="matrix(1.06705,0,0,1.00552,295.573,414.413)">
        <g id="wulaosu.svg" transform="matrix(1,0,0,1,-277,-420)">
            <g transform="matrix(0.1,0,0,-0.1,0,840)">
                <path d="M4150,8282C4088,8243 3928,8089 3872,8015C3826,7955 3812,7940 3798,7940C3794,7940 3774,7954 3754,7972C3706,8015 3693,8005 3654,7896C3606,7764 3529,7658 3428,7583C3381,7549 3203,7470 3173,7470C3157,7470 3157,7481 3170,7607C3190,7809 3198,7922 3193,7936C3185,7957 3167,7953 3121,7920L3079,7889L3081,8010C3082,8083 3079,8135 3073,8141C3060,8154 3004,8107 2956,8042C2914,7984 2860,7877 2830,7790C2801,7709 2793,7700 2781,7733C2757,7795 2722,7747 2689,7608C2658,7477 2667,7353 2721,7173C2733,7135 2731,7124 2705,7043C2679,6966 2675,6937 2672,6815C2670,6734 2673,6649 2680,6615C2695,6537 2704,6246 2693,6197C2689,6176 2681,6159 2675,6159C2663,6159 2654,6198 2630,6364C2620,6435 2607,6497 2601,6503C2582,6522 2562,6501 2543,6444C2532,6412 2519,6385 2513,6383C2507,6381 2494,6403 2485,6432C2464,6495 2378,6657 2340,6702C2325,6719 2309,6730 2303,6727C2297,6723 2289,6693 2285,6659C2281,6626 2274,6602 2270,6607C2265,6611 2248,6651 2231,6695C2190,6800 2110,6951 2088,6964C2076,6972 2067,6971 2059,6963C2044,6948 2014,6689 2005,6497C1997,6340 1987,6306 1953,6326C1943,6332 1926,6363 1915,6396C1882,6491 1880,6494 1869,6483C1858,6472 1836,6385 1825,6307C1822,6280 1813,6257 1805,6254C1798,6251 1767,6256 1736,6265C1650,6290 1647,6288 1655,6173C1662,6077 1661,6073 1630,6003C1612,5963 1593,5930 1588,5930C1568,5930 1500,6136 1500,6197C1500,6230 1516,6226 1572,6175C1621,6131 1650,6119 1650,6141C1650,6159 1532,6269 1505,6276C1467,6286 1457,6273 1465,6223C1469,6198 1474,6171 1478,6162C1481,6152 1479,6149 1471,6154C1458,6162 1416,6252 1381,6348C1366,6387 1352,6410 1342,6410C1330,6410 1328,6399 1334,6343C1345,6223 1417,5914 1461,5794C1477,5750 1497,5722 1536,5685C1594,5631 1605,5594 1576,5555C1556,5528 1538,5546 1509,5623C1496,5658 1469,5704 1447,5728C1414,5763 1401,5770 1370,5770C1347,5770 1302,5784 1259,5805C1218,5824 1172,5840 1155,5840C1139,5841 1114,5847 1100,5855C1006,5909 835,5808 503,5502C419,5426 394,5396 369,5343C293,5184 197,4864 89,4406L66,4308L122,4196C154,4135 193,4068 210,4048C280,3963 429,3930 739,3930C840,3930 962,3934 1009,3940C1056,3945 1136,3954 1185,3960C1235,3965 1306,3974 1344,3979C1382,3984 1418,3986 1425,3984C1437,3979 1470,3839 1470,3795C1470,3784 1440,3741 1404,3700C1256,3529 1128,3351 1056,3214C1010,3125 957,3071 932,3086C882,3117 783,3498 761,3744C746,3917 726,3914 630,3724C532,3532 480,3354 464,3158C456,3066 446,3075 430,3188C425,3223 419,3255 415,3258C390,3283 323,3085 314,2960C307,2867 325,2620 345,2524C375,2383 457,2227 583,2072C665,1971 666,1970 684,1878C694,1827 738,1623 782,1425C871,1020 910,830 910,793C910,728 869,705 742,697C676,693 636,685 605,670C552,644 484,571 475,529C470,509 431,462 355,387C209,242 168,164 225,138C243,130 264,130 306,139C359,149 365,148 382,130C404,106 433,105 515,125C612,149 634,146 645,107C659,63 677,62 866,104C953,123 1108,155 1210,175C1495,229 1581,249 1596,261C1616,278 1613,331 1584,450C1544,616 1544,614 1594,863C1639,1087 1646,1126 1676,1325C1684,1380 1693,1433 1696,1442C1703,1465 1767,1482 1832,1478L1883,1475L1905,1409C1934,1322 2057,1085 2117,1001C2185,906 2233,856 2322,790C2464,685 2638,617 2822,595C2899,586 2907,602 2850,651C2826,672 2808,691 2811,694C2814,697 2843,692 2875,683C2918,671 2978,666 3090,666C3298,666 3340,687 3234,740C3206,754 3169,776 3153,790C3071,857 2939,1125 2900,1305C2889,1354 2850,1613 2850,1638C2850,1674 2871,1639 2904,1548C2973,1361 3116,1087 3223,935C3295,834 3431,680 3508,612C3675,466 3706,463 3660,595C3649,628 3641,658 3643,663C3644,668 3663,650 3685,624C3772,515 3964,349 4058,300C4133,261 4133,282 4057,437C3982,590 3976,612 4017,580C4041,562 4045,561 4059,574C4072,588 4070,600 4043,682C4026,733 3980,852 3942,945C3903,1039 3849,1170 3821,1238C3766,1369 3759,1404 3787,1398C3807,1394 3938,1161 4106,832C4215,619 4222,595 4200,520C4163,393 4168,273 4213,248C4229,239 4358,234 4700,228C4956,224 5188,217 5215,211C5243,206 5285,197 5310,191C5335,185 5375,180 5400,180C5485,180 5492,220 5422,311C5396,346 5345,396 5309,423C5265,457 5239,485 5227,514C5193,590 5145,628 5054,649C5011,659 4993,659 4941,645C4846,621 4847,620 4830,850C4819,1003 4794,1238 4781,1320C4775,1350 4764,1418 4755,1470C4738,1573 4706,1746 4686,1853L4672,1921L4741,2013C4869,2185 4957,2373 5012,2589C5041,2707 5053,2867 5036,2918C5024,2954 4985,2946 4924,2894C4894,2868 4867,2850 4864,2853C4859,2858 4890,3013 4921,3135C4927,3157 4934,3252 4937,3345C4944,3586 4916,3710 4855,3710C4836,3710 4819,3695 4784,3648C4681,3508 4495,3188 4461,3090C4450,3059 4447,3057 4441,3075C4436,3086 4432,3124 4431,3160C4430,3196 4425,3268 4419,3322L4408,3418L4451,3507C4491,3589 4494,3600 4493,3670C4491,3758 4454,3899 4416,3965C4401,3990 4343,4058 4287,4118C4169,4241 4143,4277 4071,4416C4001,4550 3912,4668 3796,4776C3654,4911 3522,4981 3383,4996C3307,5004 3282,5020 3275,5067C3251,5226 3192,5347 3051,5525C2988,5605 2979,5614 2887,5694C2829,5744 2813,5766 2775,5845C2750,5896 2730,5945 2730,5954C2730,5962 2754,5985 2783,6003C2941,6104 3096,6304 3170,6503C3201,6585 3209,6683 3210,6952L3210,7199L3240,7233C3298,7299 3435,7384 3745,7547C3850,7602 3971,7668 4015,7695C4178,7793 4324,7924 4401,8039C4434,8090 4436,8098 4415,8106C4394,8115 4350,8095 4263,8038C4184,7987 4164,7980 4173,8008C4266,8292 4261,8352 4150,8282ZM4192,8244C4200,8237 4168,8120 4131,8022C4097,7930 4094,7910 4113,7910C4120,7910 4172,7937 4229,7971C4285,8004 4336,8030 4342,8028C4356,8023 4205,7882 4110,7811C4068,7780 3972,7721 3895,7679C3818,7637 3679,7561 3586,7511C3372,7395 3293,7342 3208,7258C3128,7179 3066,7086 3000,6947C2939,6819 2902,6706 2846,6482C2784,6233 2742,6113 2702,6068C2674,6035 2671,6061 2698,6118L2725,6175L2725,6986L2764,7065C2840,7218 3034,7368 3270,7457C3468,7532 3567,7617 3649,7782C3676,7839 3702,7897 3706,7913C3714,7947 3726,7947 3761,7914C3799,7878 3828,7887 3877,7952C3928,8018 4014,8108 4105,8188C4175,8250 4182,8255 4192,8244ZM3037,7973C3034,7913 3026,7848 3019,7827C2998,7764 3020,7761 3070,7820C3109,7866 3147,7897 3155,7888C3157,7886 3153,7853 3145,7815C3138,7776 3129,7679 3125,7598C3116,7431 3125,7448 3010,7377C2969,7352 2898,7297 2852,7254C2806,7212 2767,7180 2764,7183C2761,7186 2751,7214 2742,7247C2722,7318 2719,7618 2738,7663C2758,7709 2768,7693 2771,7610C2778,7474 2808,7483 2830,7628C2845,7723 2876,7813 2925,7905C2971,7991 3028,8080 3037,8080C3040,8080 3040,8032 3037,7973ZM3166,6790C3163,6679 3157,6642 3136,6582C3103,6485 3003,6324 2986,6340C2984,6343 2990,6379 3001,6420C3025,6511 3030,6684 3011,6785L2998,6856L3050,6959C3078,7017 3114,7082 3128,7104L3155,7145L3163,7035C3167,6975 3169,6864 3166,6790ZM2285,6510C2300,6510 2305,6523 2315,6588C2319,6611 2325,6630 2330,6630C2337,6630 2450,6412 2450,6399C2450,6396 2437,6395 2421,6398C2405,6400 2383,6397 2371,6391C2353,6381 2350,6382 2350,6398C2350,6409 2344,6423 2337,6429C2311,6450 2281,6399 2220,6232C2174,6107 2110,5888 2110,5857C2110,5845 2106,5840 2101,5845C2093,5854 2027,6058 1992,6182L1976,6240L2004,6269C2040,6306 2046,6341 2059,6560C2071,6751 2079,6835 2087,6858C2091,6866 2131,6795 2182,6691C2233,6586 2277,6510 2285,6510ZM2977,6623C2974,6547 2965,6442 2956,6390L2941,6295L2885,6243C2828,6189 2803,6177 2814,6208C2836,6274 2902,6511 2919,6590C2953,6737 2960,6760 2972,6760C2979,6760 2981,6717 2977,6623ZM2440,6308C2464,6255 2464,6233 2441,6145L2423,6075L2412,6116C2384,6216 2371,6328 2387,6343C2403,6360 2422,6347 2440,6308ZM2325,6278C2329,6254 2348,6181 2366,6116C2409,5964 2409,5945 2369,5924C2337,5908 2165,5840 2155,5840C2144,5840 2152,5870 2206,6040C2276,6257 2299,6320 2310,6320C2314,6320 2321,6301 2325,6278ZM2579,6288C2598,6224 2622,6080 2616,6057C2610,6033 2497,5960 2467,5960C2440,5960 2446,6024 2486,6151C2541,6324 2559,6351 2579,6288ZM1981,6063C2018,5957 2052,5855 2055,5837C2061,5805 2060,5803 2020,5791C1997,5784 1964,5770 1947,5759C1907,5735 1883,5735 1871,5758C1866,5768 1858,5865 1854,5973C1848,6147 1849,6175 1865,6215C1876,6246 1887,6260 1897,6258C1907,6256 1936,6188 1981,6063ZM1814,5738C1824,5717 1817,5716 1753,5731C1681,5748 1662,5760 1655,5790C1648,5824 1685,5991 1706,6016C1720,6034 1721,6033 1716,6005C1713,5989 1707,5940 1704,5896C1698,5831 1699,5818 1711,5822C1747,5833 1776,6021 1750,6071C1739,6091 1748,6118 1779,6154C1794,6171 1795,6157 1800,5964C1803,5849 1809,5747 1814,5738ZM2694,5911C2739,5828 2798,5677 2821,5587C2836,5531 2844,5461 2848,5365C2854,5180 2842,4928 2826,4933C2820,4935 2802,4961 2785,4991C2719,5111 2575,5290 2544,5290C2521,5290 2528,5264 2578,5162C2666,4986 2688,4914 2691,4795C2694,4691 2669,4681 2545,4741C2473,4776 2384,4841 2312,4913C2221,5001 2216,5032 2301,4974C2431,4885 2454,4871 2463,4877C2480,4888 2365,4986 2296,5020C2232,5052 2194,5056 2148,5036C2134,5030 2125,5039 2103,5076C2088,5102 2062,5138 2047,5156C2031,5175 2021,5194 2024,5199C2027,5204 2054,5214 2082,5220C2210,5251 2420,5326 2420,5341C2420,5346 2394,5350 2363,5351C2331,5351 2274,5361 2235,5373C2167,5395 2165,5397 2158,5435C2154,5457 2151,5492 2151,5512C2150,5563 2133,5595 2099,5611L2070,5625L2099,5685C2114,5718 2136,5752 2146,5761C2156,5769 2235,5803 2320,5835C2405,5867 2511,5910 2555,5931C2599,5951 2642,5968 2650,5967C2658,5966 2678,5940 2694,5911ZM1558,5880C1564,5880 1574,5870 1581,5859C1595,5832 1584,5747 1567,5752C1550,5757 1510,5841 1503,5886L1497,5925L1522,5903C1535,5890 1551,5880 1558,5880ZM1084,5810C1098,5805 1118,5792 1129,5781C1146,5764 1148,5756 1139,5733C1123,5689 1061,5613 1025,5590C995,5571 987,5570 950,5581C901,5596 880,5617 904,5626C926,5635 1000,5739 1000,5762C1000,5792 985,5783 935,5724C897,5680 882,5669 861,5672C821,5677 823,5706 866,5745C938,5811 1019,5835 1084,5810ZM1271,5744C1293,5721 1293,5717 1282,5672C1241,5520 1170,5452 1079,5479C1025,5495 1028,5520 1093,5590C1150,5651 1178,5701 1187,5755C1192,5786 1194,5788 1220,5779C1235,5773 1258,5758 1271,5744ZM2080,5734C2080,5722 2056,5683 2032,5658C1990,5612 1962,5624 1981,5679C1987,5696 2004,5717 2019,5725C2045,5739 2080,5745 2080,5734ZM1400,5715C1437,5696 1462,5649 1458,5607C1454,5567 1428,5561 1364,5586L1318,5604L1323,5658C1331,5730 1347,5742 1400,5715ZM816,5634C827,5612 855,5584 894,5558C928,5535 970,5504 988,5488C1006,5473 1043,5449 1069,5435C1165,5387 1230,5277 1230,5164C1230,5117 1215,5099 1132,5036C1095,5008 1061,4972 1049,4949C1011,4873 940,4670 940,4633C940,4607 968,4621 980,4653C986,4670 996,4695 1000,4707C1014,4742 1053,4760 1147,4776C1266,4795 1367,4794 1491,4771C1717,4730 1796,4665 1955,4390C2035,4251 2199,3919 2230,3833C2259,3754 2253,3737 2203,3746C2150,3756 2042,3801 1981,3838C1873,3905 1873,3870 1981,3742C2071,3634 2180,3477 2180,3454C2180,3428 2040,3446 1947,3485C1911,3500 1910,3499 1910,3480C1910,3468 1947,3420 2000,3364C2108,3249 2115,3238 2092,3218C2070,3199 1991,3168 1981,3175C1976,3177 1975,3191 1977,3205C1986,3248 1956,3247 1866,3201C1812,3173 1774,3159 1756,3162C1730,3165 1725,3173 1695,3255C1677,3305 1652,3371 1640,3403C1617,3461 1617,3461 1634,3553C1644,3604 1663,3688 1677,3740C1715,3886 1724,3929 1718,3935C1709,3944 1659,3916 1585,3860C1543,3828 1518,3815 1515,3823C1512,3829 1504,3867 1497,3907C1483,3980 1488,4010 1515,4010C1536,4010 1534,4037 1513,4042C1503,4045 1434,4038 1360,4028C1024,3982 994,3980 750,3980C544,3981 508,3983 523,3994C544,4010 545,4026 524,4034C506,4041 473,4035 413,4013C341,3987 281,4023 201,4143C150,4219 130,4270 130,4331C130,4389 186,4626 279,4955C290,4994 306,5050 314,5081C359,5243 406,5336 479,5413C554,5493 779,5682 791,5675C795,5672 807,5653 816,5634ZM1810,5661C1810,5651 1734,5606 1700,5595C1684,5590 1680,5593 1680,5610C1680,5656 1697,5670 1755,5670C1785,5670 1810,5666 1810,5661ZM3003,5516C3087,5411 3192,5240 3215,5170C3231,5123 3231,5117 3214,5073C3204,5047 3181,5006 3162,4982C3144,4958 3131,4935 3135,4932C3138,4929 3171,4934 3208,4943C3399,4992 3580,4926 3779,4736C3882,4637 4052,4419 4037,4404C4034,4401 3994,4443 3947,4498C3766,4707 3636,4790 3486,4790C3415,4790 3409,4788 3349,4748C3273,4696 3238,4654 3260,4640C3268,4635 3309,4630 3351,4630C3455,4630 3469,4618 3486,4514C3502,4416 3504,4298 3489,4283C3481,4275 3464,4276 3427,4287C3350,4308 3216,4305 3084,4279C3006,4264 2966,4260 2959,4267C2953,4273 2942,4307 2933,4344L2918,4411L2965,4468C3025,4540 3038,4566 3021,4583C3012,4592 2996,4590 2948,4573C2880,4548 2855,4553 2844,4596C2839,4616 2845,4628 2879,4659C2904,4682 2932,4724 2951,4766L2982,4835L2977,5065C2972,5307 2957,5403 2901,5564C2860,5680 2879,5671 3003,5516ZM2076,5575L2110,5561L2110,5481C2110,5437 2113,5395 2116,5386C2119,5378 2153,5359 2191,5344C2230,5330 2260,5316 2258,5315C2243,5300 1920,5218 1858,5213L1782,5207L1756,5249C1730,5290 1704,5296 1715,5259C1718,5249 1723,5231 1726,5220C1737,5180 1701,5200 1661,5257C1628,5302 1620,5322 1620,5357C1620,5410 1634,5440 1658,5440C1668,5440 1706,5409 1744,5370C1781,5332 1817,5300 1824,5300C1844,5300 1858,5321 1862,5355L1865,5385L1960,5385C2014,5385 2057,5389 2059,5395C2067,5416 2013,5430 1924,5430C1827,5430 1820,5426 1820,5379C1820,5350 1808,5357 1775,5403C1758,5426 1725,5455 1702,5468C1638,5504 1636,5501 1805,5572C1869,5598 1882,5600 1958,5595C2004,5592 2057,5583 2076,5575ZM1317,5449C1322,5415 1320,5412 1290,5401C1272,5395 1242,5390 1223,5390C1174,5390 1170,5414 1212,5458C1231,5478 1255,5508 1265,5525L1284,5555L1298,5520C1306,5501 1315,5469 1317,5449ZM1393,5529C1416,5517 1454,5491 1478,5472C1529,5430 1531,5413 1495,5275C1454,5119 1446,5110 1323,5095C1261,5087 1263,5085 1258,5220L1255,5315L1291,5312C1323,5309 1331,5313 1358,5348C1378,5373 1401,5390 1421,5394C1460,5401 1455,5422 1411,5431C1371,5439 1373,5437 1350,5499C1328,5556 1332,5559 1393,5529ZM1599,5464L1586,5435L1582,5462C1580,5477 1585,5499 1592,5512C1604,5534 1605,5534 1608,5514C1609,5503 1605,5480 1599,5464ZM1594,5271C1632,5174 1653,5157 1747,5150L1824,5145L1890,5050C1930,4993 1981,4935 2016,4907C2151,4797 2425,4649 2574,4606C2675,4576 2680,4574 2680,4554C2680,4537 2683,4537 2602,4551C2550,4560 2536,4560 2529,4549C2517,4529 2550,4499 2657,4427C2730,4379 2754,4357 2770,4325C2810,4243 2794,4225 2710,4255C2593,4296 2591,4259 2705,4141C2752,4093 2790,4046 2790,4038C2790,4029 2782,4016 2773,4009C2748,3988 2700,3909 2700,3888C2700,3864 2669,3800 2657,3800C2633,3800 2347,4116 2278,4218C2219,4305 2130,4485 2130,4516C2130,4532 2143,4548 2172,4567C2196,4583 2216,4603 2218,4612C2225,4648 2122,4733 1995,4797C1922,4834 1786,4883 1680,4910C1522,4950 1281,4931 1120,4866C1085,4852 1052,4840 1047,4840C1032,4840 1069,4878 1107,4901C1149,4927 1152,4953 1113,4944L1085,4937L1110,4965C1148,5006 1205,5031 1299,5046C1432,5067 1440,5070 1481,5107L1519,5142L1577,5115C1609,5101 1667,5069 1706,5044C1775,5002 1810,4990 1810,5009C1810,5024 1732,5084 1636,5142C1587,5171 1543,5202 1537,5211C1527,5227 1546,5340 1559,5340C1563,5340 1579,5309 1594,5271ZM1992,5113C2012,5092 2040,5056 2054,5032C2071,5005 2094,4983 2115,4974C2133,4967 2152,4955 2155,4949C2167,4931 2151,4926 2123,4941C2091,4958 1933,5105 1919,5132C1900,5167 1953,5153 1992,5113ZM2918,4975C2913,4826 2901,4786 2832,4707C2809,4680 2790,4649 2789,4637C2785,4566 2806,4518 2847,4501L2875,4490L2875,4347C2875,4224 2872,4201 2855,4173C2835,4138 2810,4131 2791,4153C2783,4164 2786,4169 2805,4178C2839,4194 2853,4234 2844,4295C2835,4365 2817,4395 2760,4436C2732,4456 2710,4475 2710,4478C2710,4482 2717,4494 2725,4504C2742,4527 2744,4573 2730,4601C2722,4615 2724,4633 2735,4668C2744,4694 2754,4754 2757,4803C2760,4851 2764,4890 2765,4890C2766,4890 2781,4885 2799,4879C2866,4856 2890,4901 2906,5075C2917,5186 2923,5132 2918,4975ZM2288,4844C2317,4813 2339,4786 2336,4783C2333,4780 2301,4794 2265,4815C2218,4841 2200,4856 2204,4867C2207,4875 2210,4886 2210,4891C2210,4913 2239,4896 2288,4844ZM1580,4859C1720,4842 1980,4743 2082,4667C2116,4641 2117,4636 2084,4588C2050,4539 2056,4493 2111,4379C2194,4207 2306,4055 2496,3858C2558,3794 2618,3724 2629,3702C2640,3680 2657,3659 2667,3655C2696,3643 2882,3610 2923,3610C2965,3610 2969,3601 2939,3574C2928,3564 2904,3532 2887,3503C2868,3471 2848,3450 2838,3450C2828,3450 2767,3476 2702,3509C2571,3574 2531,3587 2501,3570C2452,3544 2478,3481 2634,3250C2714,3131 2801,2968 2865,2817C2946,2627 3013,2644 3138,2887C3212,3033 3250,3139 3301,3347C3319,3417 3337,3480 3342,3486C3346,3492 3369,3500 3393,3503C3416,3506 3445,3512 3458,3516C3479,3522 3480,3520 3480,3454C3480,3416 3475,3356 3470,3320C3464,3284 3457,3233 3454,3205C3445,3125 3442,3115 3409,3074C3346,2996 3337,2960 3336,2805C3336,2556 3408,2198 3536,1805C3588,1646 3754,1224 3866,964C3929,817 3980,688 3980,673C3980,672 3975,670 3970,670C3960,670 3947,695 3852,903C3814,984 3790,1012 3790,974C3790,966 3814,902 3844,832C3899,702 3923,632 3936,570C3939,551 3951,518 3961,498C4007,408 3981,420 3837,558C3769,622 3693,693 3668,715C3631,748 3616,772 3586,852C3522,1017 3495,1005 3550,837C3587,727 3597,666 3581,655C3563,645 3399,810 3313,925C3184,1097 3086,1272 2985,1510C2954,1584 2913,1672 2895,1705C2865,1760 2862,1777 2851,1905C2835,2089 2796,2260 2769,2260C2757,2260 2757,2255 2780,2175C2819,2039 2797,2063 2740,2220C2655,2455 2569,2637 2491,2745C2443,2813 2319,2960 2311,2960C2307,2960 2278,2982 2246,3009C2214,3036 2161,3073 2129,3090C2096,3107 2070,3123 2070,3125C2070,3128 2088,3139 2110,3150C2182,3187 2192,3251 2135,3317C2094,3365 2093,3370 2121,3370C2132,3370 2161,3375 2186,3381C2270,3403 2269,3451 2180,3590C2147,3641 2123,3686 2126,3689C2129,3692 2159,3693 2193,3692C2269,3688 2310,3712 2310,3761C2310,3818 2255,3957 2145,4175C2012,4441 1921,4596 1858,4666C1785,4746 1644,4813 1490,4841C1346,4867 1411,4881 1580,4859ZM3608,4699C3669,4667 3745,4611 3737,4604C3735,4601 3720,4604 3704,4610C3688,4617 3642,4625 3602,4630C3548,4636 3522,4644 3506,4659C3493,4671 3465,4686 3444,4691C3408,4701 3407,4703 3425,4716C3459,4741 3541,4733 3608,4699ZM3724,4526C3929,4427 3974,4389 4254,4090C4313,4027 4372,3955 4386,3929C4413,3875 4450,3716 4450,3653C4450,3599 4399,3494 4341,3429C4319,3403 4269,3361 4230,3334C4167,3291 4152,3285 4097,3282C4002,3277 3919,3320 3617,3534C3466,3641 3461,3653 3555,3686C3632,3714 3638,3730 3569,3730L3517,3730L3523,3783C3531,3859 3584,3966 3629,3995C3714,4051 3919,4120 4003,4120C4042,4120 4052,4133 4023,4148C4005,4158 3849,4185 3750,4196C3659,4206 3605,4227 3590,4258C3583,4273 3575,4344 3572,4424C3568,4535 3570,4564 3581,4571C3603,4584 3606,4584 3724,4526ZM3455,4230C3568,4194 3648,4156 3656,4135C3663,4118 3654,4102 3612,4056L3579,4020L3542,4035C3522,4044 3476,4070 3440,4094C3404,4118 3364,4143 3350,4150C3336,4157 3316,4171 3304,4181C3293,4191 3260,4204 3231,4210C3173,4221 3160,4226 3160,4241C3160,4280 3314,4274 3455,4230ZM3125,4214C3125,4198 3010,4100 2972,4083C2897,4052 2875,4103 2935,4168C2954,4190 2984,4212 3002,4218C3043,4231 3125,4229 3125,4214ZM3269,4156C3286,4135 3148,4020 3105,4020C3020,4020 3038,4104 3135,4154C3172,4174 3253,4175 3269,4156ZM3388,4088C3395,4081 3400,4068 3400,4059C3400,4033 3313,3942 3281,3935C3219,3922 3180,3952 3195,4000C3199,4012 3224,4039 3252,4060C3304,4102 3362,4114 3388,4088ZM2946,4032C2967,4025 2967,4024 2931,3960C2911,3924 2884,3869 2871,3838C2858,3806 2842,3780 2835,3780C2815,3780 2771,3819 2755,3851C2736,3887 2747,3912 2815,3988C2863,4042 2887,4050 2946,4032ZM3503,4011C3537,3998 3545,3968 3524,3925C3492,3857 3421,3823 3369,3850C3345,3863 3344,3907 3366,3938C3383,3962 3457,4020 3471,4020C3475,4020 3490,4016 3503,4011ZM3083,3982C3127,3977 3137,3965 3117,3942C3078,3898 3020,3749 3020,3693C3020,3669 3016,3660 3004,3660C2978,3660 2927,3695 2901,3731L2877,3763L2916,3843C2970,3954 3007,4004 3028,3994C3037,3990 3062,3985 3083,3982ZM3193,3900C3217,3886 3237,3881 3254,3886C3268,3889 3280,3888 3280,3883C3280,3878 3264,3834 3244,3785C3223,3736 3205,3676 3202,3652C3199,3628 3192,3606 3186,3604C3165,3596 3079,3641 3068,3666C3059,3685 3062,3705 3083,3769C3119,3877 3137,3920 3149,3920C3154,3920 3174,3911 3193,3900ZM3356,3810C3389,3794 3403,3792 3424,3800C3470,3817 3480,3813 3480,3776C3480,3749 3468,3730 3420,3677C3387,3641 3360,3607 3360,3601C3360,3582 3383,3589 3412,3617C3437,3641 3440,3642 3440,3624C3440,3592 3411,3560 3383,3560C3299,3560 3234,3609 3246,3664C3255,3707 3301,3830 3308,3830C3311,3830 3333,3821 3356,3810ZM2771,3764C2801,3744 2825,3723 2825,3716C2825,3704 2749,3695 2713,3705C2695,3709 2690,3717 2690,3743C2690,3769 2704,3800 2716,3800C2717,3800 2742,3784 2771,3764ZM1586,3638C1552,3483 1525,3347 1501,3205C1490,3139 1475,3051 1468,3010C1453,2925 1451,2736 1464,2723C1468,2719 1479,2726 1488,2740C1497,2754 1521,2781 1541,2800C1561,2819 1597,2858 1620,2885C1729,3015 1869,3140 1906,3140C1909,3140 1909,3125 1906,3108C1883,2997 1868,2890 1850,2695C1826,2447 1829,2412 1881,2270C1923,2155 1960,1976 1960,1886C1960,1785 1932,1700 1875,1628C1817,1554 1784,1531 1765,1551C1753,1563 1753,1574 1765,1630C1801,1793 1804,1831 1787,1914C1744,2123 1595,2312 1396,2409C1104,2552 834,2556 688,2421C634,2371 621,2337 620,2240C618,2148 610,2142 567,2200C489,2304 437,2420 405,2559C380,2665 367,2854 378,2953C389,3052 400,3074 427,3047C442,3032 456,2925 459,2793C460,2780 465,2770 470,2770C476,2770 480,2820 480,2899C480,2993 484,3038 496,3065C504,3085 524,3168 540,3248C571,3405 591,3472 640,3590C657,3631 674,3673 677,3683C688,3717 698,3699 704,3633C715,3532 740,3403 815,3077C841,2959 884,2856 903,2863C917,2868 914,2908 895,2970C888,2995 879,3029 876,3045L869,3075L889,3050C925,3005 953,2914 946,2869C941,2838 943,2829 952,2832C970,2838 990,2880 990,2911C990,2948 1020,3031 1046,3065C1058,3082 1090,3133 1116,3180C1220,3370 1406,3611 1551,3745C1600,3791 1605,3793 1608,3773C1610,3761 1600,3700 1586,3638ZM4885,3559C4933,3288 4850,2893 4702,2692C4644,2613 4617,2563 4625,2550C4636,2532 4646,2540 4688,2600C4773,2720 4950,2890 4991,2890C5007,2890 5010,2883 5010,2843C5010,2816 5001,2750 4990,2695C4938,2426 4813,2160 4653,1975C4584,1896 4444,1772 4434,1782C4432,1785 4454,1827 4485,1876C4539,1962 4554,2010 4526,2010C4519,2010 4498,1982 4480,1948C4401,1798 4289,1675 4163,1601C4078,1551 3900,1470 3817,1444C3767,1429 3758,1428 3745,1441C3721,1465 3605,1781 3541,1995C3489,2172 3452,2334 3420,2526C3399,2654 3392,2909 3409,2953C3425,2995 3480,3050 3506,3050C3552,3050 3833,2989 3897,2965C4173,2861 4442,2665 4519,2513C4552,2446 4566,2432 4582,2448C4608,2474 4523,2607 4421,2702C4339,2778 4181,2887 4097,2925C4065,2940 4036,2957 4034,2964C4029,2976 4088,3149 4115,3200C4125,3219 4151,3239 4192,3259C4227,3276 4279,3310 4308,3336C4351,3374 4364,3380 4372,3369C4381,3355 4377,3088 4364,2923C4360,2868 4361,2840 4368,2840C4374,2840 4425,2931 4483,3043C4624,3318 4808,3628 4844,3652C4862,3664 4870,3647 4885,3559ZM3144,3544C3181,3538 3189,3523 3168,3502C3149,3483 3113,3488 3096,3512C3076,3540 3075,3564 3094,3557C3102,3554 3125,3548 3144,3544ZM2754,3409C2819,3376 2879,3351 2887,3354C2895,3357 2918,3396 2938,3440C2984,3544 2999,3544 3054,3443C3077,3400 3100,3370 3109,3370C3117,3370 3155,3400 3192,3437C3229,3474 3262,3501 3265,3498C3274,3489 3228,3304 3181,3160C3134,3018 3043,2826 3005,2790C2980,2766 2979,2766 2960,2786C2950,2796 2923,2846 2902,2896C2805,3116 2716,3269 2594,3426C2559,3471 2530,3513 2530,3520C2530,3526 2553,3518 2583,3500C2611,3483 2688,3442 2754,3409ZM3633,3471C3765,3368 4004,3230 4052,3230C4076,3230 4075,3225 4034,3113C3994,3004 3983,2988 3971,3010C3938,3068 3893,3120 3874,3120C3863,3120 3838,3104 3819,3084C3781,3044 3791,3045 3631,3074C3585,3083 3542,3094 3536,3099C3527,3107 3527,3155 3537,3301C3549,3488 3553,3520 3565,3520C3568,3520 3598,3498 3633,3471ZM1631,3308C1643,3268 1659,3222 1667,3206C1679,3182 1680,3176 1668,3169C1645,3154 1570,3158 1564,3175C1556,3194 1590,3380 1601,3380C1605,3380 1619,3347 1631,3308ZM1740,3110C1740,3105 1703,3061 1657,3013C1612,2964 1557,2901 1536,2872C1515,2843 1496,2821 1494,2823C1484,2833 1536,3088 1552,3107C1565,3123 1740,3126 1740,3110ZM2080,3036C2289,2926 2480,2684 2609,2366C2665,2227 2752,1989 2775,1912C2792,1856 2789,1840 2762,1840C2752,1840 2711,1817 2670,1789C2574,1723 2467,1673 2310,1622C2154,1571 2028,1541 1942,1534L1875,1529L1913,1561C1988,1624 2024,1743 2024,1925C2023,2038 2005,2119 1939,2303L1899,2415L1903,2540C1911,2731 1948,3053 1966,3082C1971,3090 1999,3079 2080,3036ZM1165,2427C1295,2387 1397,2341 1461,2293C1544,2230 1633,2121 1683,2021C1724,1939 1725,1934 1724,1841C1724,1776 1715,1704 1696,1615C1646,1384 1629,1297 1615,1210C1603,1133 1590,1067 1545,830C1514,667 1482,548 1466,532C1450,516 1448,516 1430,540C1408,569 1378,649 1357,735C1327,854 1275,1233 1256,1474C1243,1627 1232,1675 1214,1657C1210,1654 1201,1598 1194,1533C1167,1291 1109,1064 1048,963C1009,898 979,931 925,1092C893,1189 810,1560 810,1608C810,1617 799,1640 785,1660C768,1685 756,1724 745,1795C736,1850 722,1927 713,1965C705,2004 695,2099 692,2178L687,2321L716,2351C748,2385 813,2426 868,2447C923,2467 1067,2457 1165,2427ZM4649,1818C4667,1728 4698,1551 4720,1410C4731,1336 4745,1253 4750,1225C4770,1124 4782,933 4775,835C4762,652 4707,496 4630,426C4595,394 4584,390 4537,390C4428,390 4318,478 4263,609C4215,722 4124,905 4054,1027C4017,1092 3958,1201 3923,1268C3853,1404 3852,1410 3918,1431C3991,1454 4207,1572 4285,1631C4329,1664 4392,1707 4425,1725C4459,1744 4514,1784 4550,1815C4585,1845 4619,1870 4626,1870C4633,1870 4643,1847 4649,1818ZM2812,1725C2801,1588 2809,1441 2834,1329C2866,1185 2911,1047 2957,956C2976,919 2989,886 2986,883C2983,880 2953,898 2919,924C2859,969 2840,978 2840,962C2840,957 2899,906 2970,849C3042,792 3100,741 3100,736C3100,731 3035,729 2938,733C2790,739 2771,742 2726,765C2699,779 2675,788 2672,785C2669,782 2685,760 2708,737C2751,694 2761,670 2737,670C2708,670 2576,721 2488,766C2407,808 2378,831 2269,940L2143,1065L2057,1240C1975,1404 1958,1452 1979,1464C1983,1467 2043,1481 2111,1496C2318,1539 2602,1651 2715,1734C2747,1758 2774,1770 2790,1768C2813,1765 2815,1761 2812,1725ZM1220,1188C1220,1181 1229,1117 1239,1045C1249,974 1261,886 1265,850C1275,759 1316,616 1352,548C1384,489 1402,476 1476,465C1524,458 1540,433 1540,365C1540,316 1524,294 1483,286C1385,266 1192,239 1166,242C1137,245 1135,248 1126,300L1118,355L1230,455L1230,526C1230,586 1227,599 1208,617C1171,650 1144,660 1072,667C1035,670 999,677 993,683C984,689 980,721 980,776C980,859 980,860 1008,866C1078,881 1092,892 1120,954C1153,1028 1200,1162 1200,1184C1200,1193 1205,1200 1210,1200C1216,1200 1220,1194 1220,1188ZM740,652C740,648 719,624 694,600C669,575 639,539 628,520C601,476 582,460 554,460C503,460 499,513 545,569C588,619 740,684 740,652ZM944,627C961,615 959,610 912,554C821,446 807,436 737,433C664,429 645,438 653,472C662,508 725,586 768,615C797,635 817,640 865,640C900,640 934,634 944,627ZM1143,589C1180,572 1195,533 1175,504C1135,443 1022,401 913,409C851,413 938,562 1020,593C1046,603 1118,600 1143,589ZM5074,579C5109,552 5155,471 5143,459C5131,447 5010,482 4955,515C4912,539 4892,570 4905,590C4908,595 4942,600 4979,600C5033,600 5053,596 5074,579ZM4836,554C4840,540 4860,508 4882,483C4919,440 4921,435 4918,376L4915,315L4845,302C4796,293 4706,290 4540,292C4258,297 4247,300 4242,373C4240,400 4244,428 4251,436C4261,448 4269,444 4303,414C4373,351 4415,338 4545,342C4656,345 4660,346 4690,375C4717,400 4773,502 4793,563C4802,589 4829,584 4836,554ZM518,421C528,415 519,396 480,344C381,210 372,202 318,185C290,177 265,172 262,175C233,204 434,430 489,430C498,430 511,426 518,421ZM5217,398C5251,378 5343,281 5361,248C5372,228 5370,227 5319,234C5289,238 5234,247 5195,255C5157,263 5099,271 5066,274C5034,277 5006,281 5004,283C4993,294 4990,379 4999,403L5010,432L5098,425C5156,420 5195,411 5217,398ZM778,384C780,383 764,358 742,328C721,299 695,261 685,243C674,225 653,206 638,199C601,184 446,153 431,158C412,164 484,288 552,366L582,399L678,393C731,390 777,386 778,384ZM960,363C1011,359 1039,352 1047,341C1054,332 1060,295 1060,258L1060,191L1023,181C1002,176 929,160 860,146C791,133 727,118 718,115C697,107 685,130 694,163C701,193 770,296 814,344C840,372 855,380 867,375C877,371 919,366 960,363ZM5402,276C5418,247 5395,265 5369,303L5346,335L5369,315C5382,304 5396,287 5402,276Z" style="fill:rgb(225,84,18);fill-rule:nonzero;"/>
                <path d="M2557,5534C2528,5489 2503,5413 2514,5402C2527,5390 2569,5448 2585,5502C2605,5569 2590,5585 2557,5534Z" style="fill:rgb(225,84,18);fill-rule:nonzero;"/>
                <path d="M850,4492C797,4431 746,4343 759,4336C777,4325 909,4498 910,4533C910,4551 888,4536 850,4492Z" style="fill:rgb(225,84,18);fill-rule:nonzero;"/>
                <path d="M4559,2193C4554,2178 4546,2147 4543,2123C4538,2088 4540,2080 4553,2080C4573,2080 4585,2103 4593,2153C4603,2217 4579,2245 4559,2193Z" style="fill:rgb(225,84,18);fill-rule:nonzero;"/>
            </g>
        </g>
    </g>
</svg>
