<?xml version="1.0" encoding="UTF-8" standalone="no"?>
<!DOCTYPE svg PUBLIC "-//W3C//DTD SVG 1.1//EN" "http://www.w3.org/Graphics/SVG/1.1/DTD/svg11.dtd">
<svg width="100%" height="100%" viewBox="0 0 24 24" version="1.1" xmlns="http://www.w3.org/2000/svg" xmlns:xlink="http://www.w3.org/1999/xlink" xml:space="preserve" xmlns:serif="http://www.serif.com/" style="fill-rule:evenodd;clip-rule:evenodd;stroke-linecap:round;stroke-linejoin:round;">
    <g transform="matrix(1,0,0,1,-0.280165,-0.286998)">
        <path d="M20.893,13.393L19.758,12.258C19.587,12.087 19.445,11.889 19.337,11.673L18.257,9.513C18.187,9.373 18.043,9.285 17.887,9.285C17.777,9.285 17.672,9.328 17.594,9.406C17.382,9.618 17.07,9.699 16.782,9.616L15.509,9.253C15.431,9.231 15.35,9.22 15.268,9.22C14.78,9.22 14.378,9.622 14.378,10.11C14.378,10.406 14.526,10.683 14.771,10.848L15.358,11.238C15.948,11.633 16.032,12.468 15.53,12.97L15.33,13.17C15.118,13.382 15,13.668 15,13.966L15,14.376C15,14.785 14.89,15.185 14.68,15.534L13.365,17.725C12.984,18.36 12.296,18.75 11.555,18.75C10.976,18.75 10.5,18.274 10.5,17.695L10.5,16.523C10.5,15.603 9.94,14.776 9.086,14.434L8.431,14.173C7.453,13.781 6.874,12.752 7.048,11.713L7.055,11.671C7.101,11.393 7.2,11.126 7.345,10.884L7.435,10.734C7.923,9.921 8.875,9.5 9.805,9.686L10.983,9.922C11.555,10.036 12.125,9.688 12.285,9.127L12.493,8.397C12.641,7.879 12.397,7.323 11.915,7.082L11.25,6.75L11.159,6.841C10.737,7.263 10.165,7.5 9.568,7.5L9.388,7.5C9.139,7.5 8.901,7.6 8.726,7.774C8.551,7.95 8.313,8.05 8.065,8.05C7.554,8.05 7.134,7.629 7.134,7.119C7.134,6.949 7.18,6.782 7.268,6.637L8.679,4.284C8.82,4.05 8.917,3.793 8.965,3.524M20.893,13.393C20.965,12.931 21.002,12.465 21.002,11.997C21.002,7.06 16.939,2.997 12.002,2.997C10.967,2.997 9.939,3.176 8.965,3.525M20.893,13.393C20.209,17.752 16.414,20.997 12.002,20.997C7.065,20.997 3.002,16.934 3.002,11.997C3.002,8.207 5.397,4.804 8.965,3.525" style="fill:none;fill-rule:nonzero;stroke:white;stroke-width:1.5px;"/>
    </g>
</svg>
