<?xml version="1.0" encoding="UTF-8" standalone="no"?>
<!DOCTYPE svg PUBLIC "-//W3C//DTD SVG 1.1//EN" "http://www.w3.org/Graphics/SVG/1.1/DTD/svg11.dtd">
<svg width="100%" height="100%" viewBox="0 0 24 24" version="1.1" xmlns="http://www.w3.org/2000/svg" xmlns:xlink="http://www.w3.org/1999/xlink" xml:space="preserve" xmlns:serif="http://www.serif.com/" style="fill-rule:evenodd;clip-rule:evenodd;stroke-linecap:round;stroke-linejoin:round;">
    <g transform="matrix(1,0,0,1,-0.278261,-0.289863)">
        <path d="M15.75,6C15.75,8.057 14.057,9.75 12,9.75C9.943,9.75 8.25,8.057 8.25,6C8.25,3.943 9.943,2.25 12,2.25C14.057,2.25 15.75,3.943 15.75,6ZM4.501,20.118C4.567,16.05 7.932,12.74 12,12.74C16.068,12.74 19.433,16.05 19.499,20.118C17.146,21.197 14.588,21.754 12,21.75C9.324,21.75 6.784,21.166 4.501,20.118Z" style="fill:none;fill-rule:nonzero;stroke:white;stroke-width:1.5px;"/>
    </g>
</svg>
