<?xml version="1.0" encoding="UTF-8" standalone="no"?>
<!DOCTYPE svg PUBLIC "-//W3C//DTD SVG 1.1//EN" "http://www.w3.org/Graphics/SVG/1.1/DTD/svg11.dtd">
<svg width="100%" height="100%" viewBox="0 0 100 100" version="1.1" xmlns="http://www.w3.org/2000/svg" xmlns:xlink="http://www.w3.org/1999/xlink" xml:space="preserve" xmlns:serif="http://www.serif.com/" style="fill-rule:evenodd;clip-rule:evenodd;stroke-linecap:square;stroke-linejoin:round;stroke-miterlimit:1.5;">
    <path d="M40.176,95.697L40.176,84.875C28.606,85.461 23.489,78.16 18.92,70.189C16.764,66.43 24.636,77.339 38.05,77.339L40.176,71.059C25.54,65.703 19.931,58.447 19.982,50C20.137,44.272 22.935,39.469 25.296,34.247C24.173,29.464 24.9,24.682 27.899,19.899C32.136,21.083 35.164,23.476 36.927,27.134C45.296,23.533 53.664,23.644 62.033,27.134C64.228,23.911 67.505,21.41 72.174,19.837C75.494,24.253 75.8,29.046 73.843,34.121C78.004,39.127 79.718,44.376 79.718,50C79.718,60.184 71.494,68.274 57.828,72.088C58.826,73.747 60.035,74.915 60.035,78.224L59.93,96.08" style="fill:none;stroke:white;stroke-width:8px;"/>
    <path d="M39.955,96.08C21.359,96.08 4.481,77.779 4.207,50.413C3.965,26.308 24.566,3.362 50,3.362C75.434,3.362 95.873,24.566 95.873,50C95.873,72.531 81.642,95.839 60.849,96.08" style="fill:none;stroke:white;stroke-width:8px;"/>
</svg>
