<?xml version="1.0" encoding="UTF-8" standalone="no"?>
<!DOCTYPE svg PUBLIC "-//W3C//DTD SVG 1.1//EN" "http://www.w3.org/Graphics/SVG/1.1/DTD/svg11.dtd">
<svg width="100%" height="100%" viewBox="0 0 50 50" version="1.1" xmlns="http://www.w3.org/2000/svg" xmlns:xlink="http://www.w3.org/1999/xlink" xml:space="preserve" xmlns:serif="http://www.serif.com/" style="fill-rule:evenodd;clip-rule:evenodd;stroke-linejoin:round;stroke-miterlimit:2;">
    <g transform="matrix(1.8,0,0,1.8,-13.2174,-6.73913)">
        <circle cx="21.232" cy="17.633" r="13.333" style="fill:url(#_Radial1);"/>
    </g>
    <g transform="matrix(1,0,0,1,0.654149,-0.806176)">
        <path d="M29.392,10.085C37.006,12.011 42.583,18.185 42.583,25.495C42.583,34.343 34.411,41.527 24.346,41.527C14.281,41.527 6.109,34.343 6.109,25.495C6.109,18.185 11.686,12.011 19.3,10.085C17.684,11.494 16.662,13.568 16.662,15.878C16.662,20.119 20.105,23.562 24.346,23.562C28.587,23.562 32.03,20.119 32.03,15.878C32.03,13.568 31.008,11.494 29.392,10.085Z" style="fill:rgb(37,37,37);"/>
    </g>
    <defs>
        <radialGradient id="_Radial1" cx="0" cy="0" r="1" gradientUnits="userSpaceOnUse" gradientTransform="matrix(13.3333,0,-0,13.3333,21.2319,17.6329)"><stop offset="0" style="stop-color:rgb(140,137,178);stop-opacity:1"/><stop offset="1" style="stop-color:rgb(43,53,66);stop-opacity:1"/></radialGradient>
    </defs>
</svg>
