<?xml version="1.0" encoding="UTF-8" standalone="no"?>
<!DOCTYPE svg PUBLIC "-//W3C//DTD SVG 1.1//EN" "http://www.w3.org/Graphics/SVG/1.1/DTD/svg11.dtd">
<svg width="100%" height="100%" viewBox="0 0 50 50" version="1.1" xmlns="http://www.w3.org/2000/svg" xmlns:xlink="http://www.w3.org/1999/xlink" xml:space="preserve" xmlns:serif="http://www.serif.com/" style="fill-rule:evenodd;clip-rule:evenodd;stroke-linejoin:round;stroke-miterlimit:2;">
    <g transform="matrix(1.8,0,0,1.8,-13.2174,-6.73913)">
        <circle cx="21.232" cy="17.633" r="13.333" style="fill:url(#_Radial1);"/>
    </g>
    <path d="M40.499,9.64C33.942,11.652 28.936,14.304 29.098,18.819C29.258,23.265 38.317,29.569 37.446,35.621C36.783,40.221 32.924,43.373 25.05,43.147C15.75,42.881 7.586,39.115 7.832,28.152C8.162,13.467 23.476,11.126 40.499,9.64ZM21.183,35.76C18.463,34.879 15.908,35.233 15.481,36.551C15.054,37.869 16.915,39.655 19.636,40.536C22.356,41.418 24.911,41.063 25.338,39.745C25.765,38.427 23.903,36.641 21.183,35.76Z" style="fill:rgb(37,37,37);"/>
    <defs>
        <radialGradient id="_Radial1" cx="0" cy="0" r="1" gradientUnits="userSpaceOnUse" gradientTransform="matrix(13.3333,0,-0,13.3333,21.2319,17.6329)"><stop offset="0" style="stop-color:rgb(0,146,255);stop-opacity:1"/><stop offset="1" style="stop-color:rgb(0,44,191);stop-opacity:1"/></radialGradient>
    </defs>
</svg>
