<?xml version="1.0" encoding="UTF-8" standalone="no"?>
<!DOCTYPE svg PUBLIC "-//W3C//DTD SVG 1.1//EN" "http://www.w3.org/Graphics/SVG/1.1/DTD/svg11.dtd">
<svg width="100%" height="100%" viewBox="0 0 50 50" version="1.1" xmlns="http://www.w3.org/2000/svg" xmlns:xlink="http://www.w3.org/1999/xlink" xml:space="preserve" xmlns:serif="http://www.serif.com/" style="fill-rule:evenodd;clip-rule:evenodd;stroke-linejoin:round;stroke-miterlimit:2;">
    <g transform="matrix(1.8,0,0,1.8,-13.2174,-6.73913)">
        <circle cx="21.232" cy="17.633" r="13.333" style="fill:url(#_Radial1);"/>
    </g>
    <path d="M29.407,25.366L39.544,25.366L41.203,27.026L41.203,37.566L39.642,39.127L34.05,39.127L32.924,40.253L32.924,44.291L17.327,44.291L17.327,40.851L19.061,40.851L20.681,39.231L20.681,35.788L22.576,33.893L25.962,33.893L27.588,32.268L27.588,27.054L29.407,25.366Z" style="fill:rgb(37,37,37);"/>
    <path d="M15.83,11.852C15.83,11.068 15.193,10.432 14.409,10.432L10.149,10.432C9.365,10.432 8.728,11.068 8.728,11.852L8.728,22.441C8.728,23.225 9.365,23.862 10.149,23.862L14.409,23.862C15.193,23.862 15.83,23.225 15.83,22.441L15.83,11.852Z" style="fill:rgb(37,37,37);"/>
    <g transform="matrix(1,0,0,1.16115,8.44057,-3.78351)">
        <path d="M15.83,11.655C15.83,10.98 15.193,10.432 14.409,10.432L10.149,10.432C9.365,10.432 8.728,10.98 8.728,11.655L8.728,22.639C8.728,23.314 9.365,23.862 10.149,23.862L14.409,23.862C15.193,23.862 15.83,23.314 15.83,22.639L15.83,11.655Z" style="fill:rgb(37,37,37);"/>
    </g>
    <g transform="matrix(1,0,0,1.16115,17.1285,-3.78351)">
        <path d="M15.83,11.655C15.83,10.98 15.193,10.432 14.409,10.432L10.149,10.432C9.365,10.432 8.728,10.98 8.728,11.655L8.728,22.639C8.728,23.314 9.365,23.862 10.149,23.862L14.409,23.862C15.193,23.862 15.83,23.314 15.83,22.639L15.83,11.655Z" style="fill:rgb(37,37,37);"/>
    </g>
    <path d="M8.728,27.093L10.455,25.366L24.27,25.366L25.962,27.058L25.962,30.532L24.224,32.271L20.72,32.271L19.098,33.893L19.098,37.141L17.129,39.109L10.288,39.109L8.691,37.513L8.728,27.093Z" style="fill:rgb(37,37,37);"/>
    <g transform="matrix(1,0,0,1,25.3217,0.185508)">
        <path d="M15.83,11.852C15.83,11.068 15.193,10.432 14.409,10.432L10.149,10.432C9.365,10.432 8.728,11.068 8.728,11.852L8.728,22.441C8.728,23.225 9.365,23.862 10.149,23.862L14.409,23.862C15.193,23.862 15.83,23.225 15.83,22.441L15.83,11.852Z" style="fill:rgb(37,37,37);"/>
    </g>
    <defs>
        <radialGradient id="_Radial1" cx="0" cy="0" r="1" gradientUnits="userSpaceOnUse" gradientTransform="matrix(13.3333,0,-0,13.3333,21.2319,17.6329)"><stop offset="0" style="stop-color:rgb(255,150,0);stop-opacity:1"/><stop offset="1" style="stop-color:rgb(216,65,23);stop-opacity:1"/></radialGradient>
    </defs>
</svg>
