<?xml version="1.0" encoding="UTF-8" standalone="no"?>
<!DOCTYPE svg PUBLIC "-//W3C//DTD SVG 1.1//EN" "http://www.w3.org/Graphics/SVG/1.1/DTD/svg11.dtd">
<svg width="100%" height="100%" viewBox="0 0 50 50" version="1.1" xmlns="http://www.w3.org/2000/svg" xmlns:xlink="http://www.w3.org/1999/xlink" xml:space="preserve" xmlns:serif="http://www.serif.com/" style="fill-rule:evenodd;clip-rule:evenodd;stroke-linejoin:round;stroke-miterlimit:2;">
    <g transform="matrix(1.8,0,0,1.8,-13.2174,-6.73913)">
        <circle cx="21.232" cy="17.633" r="13.333" style="fill:url(#_Radial1);"/>
    </g>
    <path d="M6.547,30.115C8.203,31.81 10.153,33.13 12.716,33.67C6.285,25.405 8.04,19.479 14.308,14.841C10.85,20.203 13.154,23.193 16.719,25.663C15.858,24.844 15.383,23.595 15.39,21.952C15.414,16.233 21.771,13.918 23.614,11.317C25.233,9.032 24.266,6.81 22.501,4.608C30.467,7.537 31.727,14.893 31.189,23.437C35.802,23.398 38.882,21.63 40.279,17.964C43.417,23.905 40.023,27.979 34.497,31.444C38.119,31.408 41.377,30.099 44.174,27.178C40.335,46.897 11.83,51.104 6.547,30.115ZM16.997,38.827C17.69,41.358 19.921,42.932 24.324,43.155C26.831,43.282 31.619,42.244 31.961,39.538C32.116,38.309 30.464,37.604 30.291,35.024C30.186,33.448 30.984,32.374 32.363,31.623C30.368,31.446 28.617,32.243 27.2,34.375C27.385,32.231 26.746,30.747 25.283,29.923C23.535,28.938 24.473,27.605 26.117,25.841C23.03,26.206 21.008,27.278 20.053,29.57C19.326,31.312 22.719,32.256 22.315,33.571C21.914,34.875 21.839,35.366 20.954,35.859C20.944,33.898 19.385,33.195 16.842,33.293C18.718,34.16 19.414,35.285 18.388,36.786C18.018,37.328 16.771,38.002 16.997,38.827Z" style="fill:rgb(37,37,37);"/>
    <defs>
        <radialGradient id="_Radial1" cx="0" cy="0" r="1" gradientUnits="userSpaceOnUse" gradientTransform="matrix(13.3333,0,-0,13.3333,21.2319,17.6329)"><stop offset="0" style="stop-color:rgb(234,42,31);stop-opacity:1"/><stop offset="1" style="stop-color:rgb(168,0,60);stop-opacity:1"/></radialGradient>
    </defs>
</svg>
