<?xml version="1.0" standalone="no"?><!-- Generator: Gravit.io --><svg xmlns="http://www.w3.org/2000/svg" xmlns:xlink="http://www.w3.org/1999/xlink" style="isolation:isolate" viewBox="0 0 240 120" width="240" height="120"><defs><clipPath id="_clipPath_fASXmCvqsa5sUJ8rd2pmURp3O1y62PDW"><rect width="240" height="120"/></clipPath></defs><g clip-path="url(#_clipPath_fASXmCvqsa5sUJ8rd2pmURp3O1y62PDW)"><path d=" M 96.012 106.738 L 96.012 106.738 Q 87.164 106.738 81.48 104.746 L 81.48 104.746 L 81.48 104.746 Q 75.797 102.754 72.809 97.891 L 72.809 97.891 L 72.809 97.891 Q 69.82 93.027 69.82 84.531 L 69.82 84.531 L 70.172 74.453 L 70.172 74.453 Q 70.172 68.77 68.473 66.572 L 68.473 66.572 L 68.473 66.572 Q 66.773 64.375 63.258 64.375 L 63.258 64.375 L 58.219 64.375 L 58.219 53.652 L 63.141 53.652 L 63.141 53.652 Q 66.891 53.652 68.678 51.367 L 68.678 51.367 L 68.678 51.367 Q 70.465 49.082 70.465 44.102 L 70.465 44.102 L 70.172 32.793 L 70.172 32.793 Q 70.172 22.129 76.002 16.65 L 76.002 16.65 L 76.002 16.65 Q 81.832 11.172 93.141 11.172 L 93.141 11.172 L 102.867 11.172 L 102.867 22.012 L 91.09 22.012 L 91.09 22.012 Q 87.223 22.012 85.377 24.414 L 85.377 24.414 L 85.377 24.414 Q 83.531 26.816 83.531 31.621 L 83.531 31.621 L 83.766 42.754 L 83.766 42.754 Q 83.766 48.027 81.51 52.217 L 81.51 52.217 L 81.51 52.217 Q 79.254 56.406 75.211 58.984 L 75.211 58.984 L 75.211 58.984 Q 78.961 61.387 81.246 65.898 L 81.246 65.898 L 81.246 65.898 Q 83.531 70.41 83.531 76.094 L 83.531 76.094 L 83.297 84.531 L 83.297 84.531 Q 83.297 90.625 85.875 93.379 L 85.875 93.379 L 85.875 93.379 Q 88.453 96.133 94.313 96.133 L 94.313 96.133 L 102.691 96.133 L 102.691 106.738 L 96.012 106.738 L 96.012 106.738 Z " fill="rgb(112,180,47)"/><path d=" M 137.418 106.738 L 130.738 106.738 L 130.738 96.133 L 139.117 96.133 L 139.117 96.133 Q 144.977 96.133 147.555 93.379 L 147.555 93.379 L 147.555 93.379 Q 150.133 90.625 150.133 84.531 L 150.133 84.531 L 149.898 76.094 L 149.898 76.094 Q 149.898 70.41 152.184 65.898 L 152.184 65.898 L 152.184 65.898 Q 154.469 61.387 158.219 58.984 L 158.219 58.984 L 158.219 58.984 Q 154.176 56.406 151.92 52.217 L 151.92 52.217 L 151.92 52.217 Q 149.664 48.027 149.664 42.754 L 149.664 42.754 L 149.898 31.621 L 149.898 31.621 Q 149.898 26.816 148.053 24.414 L 148.053 24.414 L 148.053 24.414 Q 146.207 22.012 142.34 22.012 L 142.34 22.012 L 130.563 22.012 L 130.563 11.172 L 140.289 11.172 L 140.289 11.172 Q 151.598 11.172 157.428 16.65 L 157.428 16.65 L 157.428 16.65 Q 163.258 22.129 163.258 32.793 L 163.258 32.793 L 162.965 44.102 L 162.965 44.102 Q 162.965 49.082 164.752 51.367 L 164.752 51.367 L 164.752 51.367 Q 166.539 53.652 170.289 53.652 L 170.289 53.652 L 175.211 53.652 L 175.211 64.375 L 170.172 64.375 L 170.172 64.375 Q 166.656 64.375 164.957 66.572 L 164.957 66.572 L 164.957 66.572 Q 163.258 68.77 163.258 74.453 L 163.258 74.453 L 163.609 84.531 L 163.609 84.531 Q 163.609 93.027 160.621 97.891 L 160.621 97.891 L 160.621 97.891 Q 157.633 102.754 151.949 104.746 L 151.949 104.746 L 151.949 104.746 Q 146.266 106.738 137.418 106.738 L 137.418 106.738 L 137.418 106.738 Z " fill="rgb(195,195,2)"/></g></svg>