<?xml version="1.0" standalone="no"?><!-- Generator: Gravit.io --><svg xmlns="http://www.w3.org/2000/svg" xmlns:xlink="http://www.w3.org/1999/xlink" style="isolation:isolate" viewBox="0 0 1000 770" width="1000" height="770"><defs><clipPath id="_clipPath_N2MzoiqsBqmtvk43xpG1f2C5drpPNt2D"><rect width="1000" height="770"/></clipPath></defs><g clip-path="url(#_clipPath_N2MzoiqsBqmtvk43xpG1f2C5drpPNt2D)"><path d="M 625.403 204 L 629.597 204 C 631.475 204 633 205.525 633 207.403 L 633 273.597 C 633 275.475 631.475 277 629.597 277 L 625.403 277 C 623.525 277 622 275.475 622 273.597 L 622 207.403 C 622 205.525 623.525 204 625.403 204 Z" style="stroke:none;fill:#D0D0D0;stroke-miterlimit:10;"/><g><path d=" M 48.093 404.847 C 24.14 312.623 51.887 -79.402 800.479 185.939" fill="none" vector-effect="non-scaling-stroke" stroke-width="9" stroke-dasharray="12.04,12.04" stroke="rgb(50,138,87)" stroke-linejoin="miter" stroke-linecap="butt" stroke-miterlimit="10"/><linearGradient id="_lgradient_101" x1="0.5000365297956302" y1="1.0001383106476842" x2="0.5000365297956303" y2="0.000048594904226151314" gradientTransform="matrix(404.555,0,0,284.953,315.406,435.67)" gradientUnits="userSpaceOnUse"><stop offset="0%" stop-opacity="0.25" style="stop-color:rgb(128,128,128)"/><stop offset="54%" stop-opacity="0.12" style="stop-color:rgb(128,128,128)"/><stop offset="100%" stop-opacity="0.1" style="stop-color:rgb(128,128,128)"/></linearGradient><path d=" M 719.96 515.71 C 719.971 474.413 688.551 439.892 647.436 436.025 C 606.32 432.159 569.016 460.217 561.327 500.792 L 315.406 494.122 L 318.106 536.372 C 318.106 536.372 283.039 617.284 467.339 638.843 L 467.339 720.623 L 680.401 720.623 L 680.401 584.651 C 704.883 570.315 719.937 544.081 719.96 515.71 Z " fill="url(#_lgradient_101)"/><path d=" M 326.55 538.145 C 326.55 538.145 292.971 615.629 469.467 636.301 L 469.467 714.652 L 673.513 714.652 L 673.513 507.147 L 323.929 497.679 L 326.55 538.145 Z " fill="rgb(246,185,173)"/><linearGradient id="_lgradient_102" x1="0" y1="0.5" x2="6.123233995736766e-17" y2="-0.5" gradientTransform="matrix(184.492,0,0,147.123,249.758,85.163)" gradientUnits="userSpaceOnUse"><stop offset="0%" stop-opacity="0.1" style="stop-color:rgb(128,128,128)"/></linearGradient><path d=" M 428.528 214.799 L 428.528 214.799 C 417.452 232.276 394.341 237.528 376.8 226.554 L 267.244 154.361 C 249.767 143.285 244.515 120.173 255.49 102.632 L 255.49 102.632 C 266.564 85.179 289.646 79.93 307.179 90.878 L 416.734 163.071 C 434.226 174.133 439.496 197.248 428.528 214.799 Z " fill="url(#_lgradient_102)"/><path d=" M 422.459 210.848 L 422.459 210.848 C 412.164 227.093 390.681 231.975 374.376 221.775 L 272.506 154.666 C 256.26 144.371 251.378 122.889 261.579 106.583 L 261.579 106.583 C 271.874 90.338 293.356 85.456 309.662 95.656 L 411.512 162.775 C 427.759 173.063 432.649 194.54 422.459 210.848 Z " fill="rgb(246,185,173)"/><circle vector-effect="non-scaling-stroke" cx="634.771354071351" cy="518.3503424520376" r="76.62682741218407" fill="rgb(246,185,173)"/><g style="mix-blend-mode:normal;" opacity="0.15"><path d="M 346.026 15.286 L 602.467 15.286 C 619.066 15.286 632.543 28.762 632.543 45.362 L 632.543 602.209 C 632.543 618.809 619.066 632.286 602.467 632.286 L 346.026 632.286 C 329.426 632.286 315.949 618.809 315.949 602.209 L 315.949 45.362 C 315.949 28.762 329.426 15.286 346.026 15.286 Z" style="stroke:none;fill:#000000;stroke-miterlimit:10;"/></g><path d="M 624.573 125 L 630.44 125 C 631.857 125 633.007 126.15 633.007 127.566 L 633.007 163.949 C 633.007 165.365 631.857 166.515 630.44 166.515 L 624.573 166.515 C 623.157 166.515 622.007 165.365 622.007 163.949 L 622.007 127.566 C 622.007 126.15 623.157 125 624.573 125 Z" style="stroke:none;fill:#FF5430;stroke-miterlimit:10;"/><path d="M 345.547 19 L 602.946 19 C 617.21 19 628.791 30.581 628.791 44.845 L 628.791 602.657 C 628.791 616.921 617.21 628.502 602.946 628.502 L 345.547 628.502 C 331.283 628.502 319.702 616.921 319.702 602.657 L 319.702 44.845 C 319.702 30.581 331.283 19 345.547 19 Z" style="stroke:none;fill:#FFFFFF;stroke-miterlimit:10;"/><linearGradient id="_lgradient_103" x1="0.05468239108371264" y1="0.03134556574923403" x2="0.9073014542576621" y2="0.9487767584097853" gradientTransform="matrix(293.59,0,0,545.699,327.417,52.765)" gradientUnits="userSpaceOnUse"><stop offset="0%" stop-opacity="1" style="stop-color:rgb(42,163,92)"/><stop offset="50.8695652173913%" stop-opacity="1" style="stop-color:rgb(149,191,56)"/><stop offset="98.69565217391305%" stop-opacity="1" style="stop-color:rgb(255,205,25)"/></linearGradient><path d=" M 551.858 52.765 C 530.573 52.765 414.964 52.765 395.718 52.765 L 339.161 52.765 C 336.047 52.762 333.06 54.034 330.857 56.301 C 328.654 58.567 327.417 61.643 327.417 64.849 L 327.417 586.369 C 327.414 589.576 328.649 592.652 330.85 594.921 C 333.051 597.189 336.038 598.464 339.152 598.464 L 609.262 598.464 C 612.376 598.466 615.363 597.194 617.566 594.928 C 619.769 592.661 621.007 589.586 621.007 586.379 L 621.007 64.86 C 621.009 61.653 619.774 58.577 617.573 56.308 C 615.372 54.04 612.386 52.765 609.272 52.765 L 551.858 52.765 Z " fill="url(#_lgradient_103)"/><path d="M 440.766 35.546 L 505.707 35.546 C 506.795 35.546 507.678 36.429 507.678 37.517 L 507.678 37.882 C 507.678 38.969 506.795 39.852 505.707 39.852 L 440.766 39.852 C 439.678 39.852 438.795 38.969 438.795 37.882 L 438.795 37.517 C 438.795 36.429 439.678 35.546 440.766 35.546 Z" style="stroke:none;fill:#C1C1C1;stroke-miterlimit:10;"/><path d="M 440.766 613.766 L 505.707 613.766 C 506.795 613.766 507.678 614.649 507.678 615.737 L 507.678 616.102 C 507.678 617.189 506.795 618.072 505.707 618.072 L 440.766 618.072 C 439.678 618.072 438.795 617.189 438.795 616.102 L 438.795 615.737 C 438.795 614.649 439.678 613.766 440.766 613.766 Z" style="stroke:none;fill:#C1C1C1;stroke-miterlimit:10;"/><circle vector-effect="non-scaling-stroke" cx="350.50639698513845" cy="37.69931366118118" r="5.326358135597786" fill="rgb(193,193,193)"/><linearGradient id="_lgradient_104" x1="0" y1="0.5" x2="6.123233995736766e-17" y2="-0.5" gradientTransform="matrix(124.8,0,0,273.173,589.522,259.724)" gradientUnits="userSpaceOnUse"><stop offset="0%" stop-opacity="0.1" style="stop-color:rgb(128,128,128)"/></linearGradient><path d=" M 684.312 531.859 L 684.312 531.859 C 662.074 537.002 646.812 522.498 641.668 500.27 L 590.571 310.541 C 585.487 288.226 599.374 265.993 621.657 260.773 L 621.657 260.773 C 643.972 255.689 666.204 269.576 671.425 291.859 L 713.122 486.456 C 718.266 508.724 706.541 526.716 684.312 531.859 Z " fill="url(#_lgradient_104)"/><path d="M 623.867 270.389 L 623.867 270.389 C 642.618 266.056 661.359 277.763 665.692 296.514 L 712.678 499.872 C 717.011 518.624 705.304 537.365 686.553 541.697 L 686.553 541.697 C 667.802 546.029 649.061 534.323 644.729 515.572 L 597.742 312.214 C 593.41 293.462 605.116 274.721 623.867 270.389 Z" style="stroke:none;fill:#F6B9AD;stroke-miterlimit:10;"/><linearGradient id="_lgradient_105" x1="0" y1="0.5" x2="6.123233995736766e-17" y2="-0.5" gradientTransform="matrix(291.649,0,0,67.986,419.434,689.014)" gradientUnits="userSpaceOnUse"><stop offset="0%" stop-opacity="0.1" style="stop-color:rgb(128,128,128)"/></linearGradient><rect x="419.434" y="689.014" width="291.649" height="67.986" transform="matrix(1,0,0,1,0,0)" fill="url(#_lgradient_105)"/><rect x="427.316" y="696.897" width="275.884" height="53.206" transform="matrix(1,0,0,1,0,0)" fill="rgb(85,181,125)"/><linearGradient id="_lgradient_106" x1="0" y1="0.5" x2="6.123233995736766e-17" y2="-0.5" gradientTransform="matrix(126.473,0,0,126.058,431.671,260.757)" gradientUnits="userSpaceOnUse"><stop offset="0%" stop-opacity="0.1" style="stop-color:rgb(128,128,128)"/></linearGradient><path d=" M 558.145 312.535 C 558.145 307.818 557.159 306.614 555.051 304.788 L 497.834 261.693 C 496.173 260.444 493.889 260.444 492.228 261.693 L 436.017 303.614 C 433.269 305.58 431.709 308.812 431.878 312.19 L 431.819 312.19 L 431.671 376.769 L 431.671 376.769 L 431.671 377.628 C 431.666 381.515 438.994 386.685 442.875 386.696 L 441.455 386.696 L 494.76 386.815 L 548.734 386.815 C 553.921 386.815 558.026 381.646 558.026 378.182 L 558.026 312.584 L 558.145 312.535 Z " fill="url(#_lgradient_106)"/><path d=" M 432.852 312.367 L 556.832 312.649 L 556.692 374.703 C 556.687 376.773 554.839 378.446 552.564 378.441 L 437.285 378.179 C 436.08 378.177 434.926 377.739 434.075 376.962 C 433.225 376.185 432.749 375.133 432.752 374.037 L 432.892 312.367 L 432.852 312.367 Z " fill="rgb(42,163,92)"/><g opacity="0.2"><path d=" M 432.852 312.367 L 556.832 312.649 L 556.692 374.58 C 556.687 376.645 554.839 378.315 552.565 378.31 L 437.285 378.049 C 436.08 378.046 434.926 377.609 434.076 376.833 C 433.226 376.058 432.75 375.008 432.752 373.914 L 432.892 312.367 L 432.852 312.367 Z " fill="rgb(255,255,255)"/></g><path d=" M 432.864 312.346 L 432.726 375.001 C 432.72 377.554 433.73 380.005 435.531 381.814 C 437.333 383.623 439.779 384.642 442.332 384.647 L 547.06 384.883" fill="rgb(239,239,239)"/><path d=" M 556.854 312.621 L 556.716 375.316 C 556.711 377.869 555.691 380.316 553.882 382.117 C 552.073 383.919 549.623 384.928 547.07 384.923 L 442.342 384.686" fill="rgb(255,255,255)"/><path d=" M 492.218 263.327 L 437.041 304.02 C 434.347 305.914 432.812 309.056 432.972 312.346 L 557.011 312.74 C 557.011 308.158 556.026 306.956 553.977 305.222 L 497.765 263.347 C 496.126 262.107 493.866 262.099 492.218 263.327 L 492.218 263.327 Z " fill="rgb(42,163,92)"/><g opacity="0.2"><path d=" M 492.218 263.327 L 437.041 304.02 C 434.347 305.914 432.812 309.056 432.972 312.346 L 557.011 312.74 C 557.011 308.158 556.026 306.956 553.977 305.222 L 497.765 263.347 C 496.126 262.107 493.866 262.099 492.218 263.327 L 492.218 263.327 Z " fill="rgb(0,0,0)"/></g><path d=" M 542.321 277.2 L 528.723 266.775 L 492.691 313.764 L 472.68 298.423 L 462.245 312.02 L 489.055 332.554 L 489.055 332.554 L 495.933 337.707 L 542.321 277.2 L 542.321 277.2 Z " fill="rgb(255,255,255)"/><linearGradient id="_lgradient_107" x1="0" y1="0.5" x2="6.123233995736766e-17" y2="-0.5" gradientTransform="matrix(167.498,0,0,135.013,243.19,200.548)" gradientUnits="userSpaceOnUse"><stop offset="0%" stop-opacity="0.1" style="stop-color:rgb(128,128,128)"/></linearGradient><path d=" M 404.999 318.206 L 404.999 318.206 C 394.004 335.552 371.066 340.763 353.655 329.872 L 260.544 269.247 C 243.199 258.251 237.987 235.314 248.878 217.903 L 248.878 217.903 C 259.874 200.557 282.812 195.345 300.222 206.237 L 393.333 266.862 C 410.679 277.857 415.89 300.795 404.999 318.206 Z " fill="url(#_lgradient_107)"/><path d=" M 400.053 315.014 L 400.053 315.014 C 389.758 331.259 368.276 336.141 351.97 325.941 L 264.761 269.158 C 248.516 258.863 243.634 237.381 253.834 221.075 L 253.834 221.075 C 264.13 204.83 285.612 199.948 301.917 210.148 L 389.126 266.931 C 405.372 277.226 410.254 298.709 400.053 315.014 Z " fill="rgb(246,185,173)"/><linearGradient id="_lgradient_108" x1="0" y1="0.5" x2="6.123233995736766e-17" y2="-0.5" gradientTransform="matrix(147.527,0,0,121.591,244.131,314.021)" gradientUnits="userSpaceOnUse"><stop offset="0%" stop-opacity="0.1" style="stop-color:rgb(128,128,128)"/></linearGradient><path d=" M 386.003 418.332 L 386.003 418.332 C 375.061 435.602 352.226 440.793 334.895 429.949 L 261.411 382.408 C 244.142 371.467 238.951 348.632 249.795 331.301 L 249.795 331.301 C 260.736 314.031 283.571 308.841 300.902 319.684 L 374.376 367.235 C 391.643 378.172 396.838 401.001 386.003 418.332 L 386.003 418.332 Z " fill="url(#_lgradient_108)"/><linearGradient id="_lgradient_109" x1="0" y1="0.5" x2="6.123233995736766e-17" y2="-0.5" gradientTransform="matrix(120.222,0,0,107.901,253.037,428.51)" gradientUnits="userSpaceOnUse"><stop offset="0%" stop-opacity="0.1" style="stop-color:rgb(128,128,128)"/></linearGradient><path d=" M 367.558 518.971 L 367.558 518.971 C 356.519 536.399 333.476 541.638 315.987 530.696 L 270.476 497.492 C 253.048 486.453 247.809 463.41 258.751 445.921 L 258.751 445.921 C 269.803 428.507 292.843 423.286 310.322 434.235 L 355.833 467.43 C 373.243 478.468 378.48 501.488 367.558 518.971 Z " fill="url(#_lgradient_109)"/><path d=" M 363.883 516.498 L 363.883 516.498 C 353.587 532.744 332.105 537.626 315.8 527.425 L 273.363 496.467 C 257.117 486.172 252.236 464.689 262.436 448.384 L 262.436 448.384 C 272.731 432.139 294.214 427.257 310.519 437.457 L 352.956 468.415 C 369.201 478.711 374.083 500.193 363.883 516.498 L 363.883 516.498 Z " fill="rgb(246,185,173)"/><linearGradient id="_lgradient_110" x1="0" y1="0.5" x2="0.5352372123584815" y2="-0.344701797385753" gradientTransform="matrix(156.682,0,0,103.209,800.479,156.515)" gradientUnits="userSpaceOnUse"><stop offset="100%" stop-opacity="0.25" style="stop-color:rgb(128,128,128)"/><stop offset="100%" stop-opacity="0.24898189287023667" style="stop-color:rgb(128,128,128)"/><stop offset="100%" stop-opacity="0.11991541879229657" style="stop-color:rgb(128,128,128)"/></linearGradient><path d=" M 951.225 258.798 L 957.161 259.724 L 956.235 258.848 L 956.731 258.848 L 955.954 258.583 L 848.33 156.515 L 822.206 197.736 L 800.479 235.336 L 810.549 236.906 L 806.084 257.277 L 951.225 258.798 L 951.225 258.798 Z " fill="url(#_lgradient_110)"/><path d=" M 826.72 199.549 L 806.878 233.958 L 952.382 257.652 L 858.664 192.39 L 826.72 199.549 L 826.72 199.549 Z " fill="rgb(42,163,92)"/><g opacity="0.2"><path d=" M 826.72 199.886 L 806.878 234.294 L 952.382 257.988 L 858.664 192.726 L 826.72 199.886 L 826.72 199.886 Z " fill="rgb(0,0,0)"/></g><path d=" M 850.612 162.187 L 952.382 257.988 L 826.72 199.886 L 850.612 162.187 L 850.612 162.187 Z " fill="rgb(42,163,92)"/><path d=" M 812.235 254.516 L 951.986 257.178 L 821.528 210.848 L 812.235 254.516 L 812.235 254.516 Z " fill="rgb(42,163,92)"/><path d=" M 381.963 415.761 L 381.963 415.761 C 371.668 432.006 350.185 436.888 333.88 426.688 L 264.752 381.955 C 248.506 371.66 243.624 350.178 253.825 333.873 L 253.825 333.873 C 264.104 317.61 285.589 312.705 301.907 322.896 L 371.036 367.629 C 387.312 377.926 392.197 399.445 381.963 415.761 Z " fill="rgb(246,185,173)"/><path d=" M 45.59 390.569 C 88.561 661.008 495.933 645.386 495.933 429.949" fill="none" vector-effect="non-scaling-stroke" stroke-width="9" stroke-dasharray="12.04,12.04" stroke="rgb(50,138,87)" stroke-linejoin="miter" stroke-linecap="butt" stroke-miterlimit="10"/></g></g></svg>