<?xml version="1.0" standalone="no"?><!-- Generator: Gravit.io --><svg xmlns="http://www.w3.org/2000/svg" xmlns:xlink="http://www.w3.org/1999/xlink" style="isolation:isolate" viewBox="0 0 20 20" width="20" height="20"><defs><clipPath id="_clipPath_gTBtS7nvMduFYklyg5zZ3oqsDdQfUfCD"><rect width="20" height="20"/></clipPath></defs><g clip-path="url(#_clipPath_gTBtS7nvMduFYklyg5zZ3oqsDdQfUfCD)"><circle vector-effect="non-scaling-stroke" cx="0" cy="0" r="1" transform="matrix(8.13,0,0,8.13,10.136,8.87)" fill="none" stroke-width="1.4" stroke="rgb(255,255,255)" stroke-linejoin="miter" stroke-linecap="square" stroke-miterlimit="3"/><path d=" M 8.104 16.49 Q 8.104 14.457 8.104 13.855 C 8.104 13.726 8.104 13.646 8.104 13.616 Q 8.304 13.152 8.618 12.426 C 5.627 11.886 3.881 9.076 5.865 6.013 C 5.818 5.203 5.469 4.489 6.167 3.87 C 6.418 3.647 7.735 4.221 8.31 4.886 Q 10.088 3.84 12.136 4.806 C 12.723 3.967 14.025 3.679 14.247 3.901 C 14.66 4.6 14.581 4.79 14.422 5.997 Q 16.978 10.807 11.654 12.426 L 12.168 13.616 L 12.168 16.49" fill="none" vector-effect="non-scaling-stroke" stroke-width="1.4" stroke="rgb(255,255,255)" stroke-linejoin="round" stroke-linecap="round" stroke-miterlimit="3"/><path d=" M 4.722 12.521 C 5.818 12.744 5.691 13.426 6.199 13.887 Q 6.834 14.379 7.913 14.045" fill="none" vector-effect="non-scaling-stroke" stroke-width="1.4" stroke="rgb(255,255,255)" stroke-linejoin="round" stroke-linecap="round" stroke-miterlimit="3"/></g></svg>