<?xml version="1.0" standalone="no"?><!-- Generator: Gravit.io --><svg xmlns="http://www.w3.org/2000/svg" xmlns:xlink="http://www.w3.org/1999/xlink" style="isolation:isolate" viewBox="0 0 20 20" width="20" height="20"><defs><clipPath id="_clipPath_fMiXeWBaUTHlj2dDtMp9LCkX0pgCY9Yq"><rect width="20" height="20"/></clipPath></defs><g clip-path="url(#_clipPath_fMiXeWBaUTHlj2dDtMp9LCkX0pgCY9Yq)"><clipPath id="_clipPath_J2lHbb4lFqQ2TVcHUCjMrJhQZjumZxh0"><rect x="0" y="0" width="20" height="20" transform="matrix(1,0,0,1,0,0)" fill="rgb(255,255,255)"/></clipPath><g clip-path="url(#_clipPath_J2lHbb4lFqQ2TVcHUCjMrJhQZjumZxh0)"><g><clipPath id="_clipPath_fIqbTeFFa0XOQ4QdnQLK3NPZLzTZvcFJ"><rect x="0" y="0" width="20" height="20" transform="matrix(1,0,0,1,0,0)" fill="rgb(255,255,255)"/></clipPath><g clip-path="url(#_clipPath_fIqbTeFFa0XOQ4QdnQLK3NPZLzTZvcFJ)"><g><g><circle vector-effect="non-scaling-stroke" cx="0" cy="0" r="1" transform="matrix(8.13,0,0,8.13,10,10)" fill="none" stroke-width="1.4" stroke="rgb(40,163,95)" stroke-opacity="10000" stroke-linejoin="miter" stroke-linecap="square" stroke-miterlimit="3"/><path d=" M 7.968 17.62 Q 7.968 15.587 7.968 14.985 C 7.968 14.856 7.968 14.776 7.968 14.746 Q 8.168 14.282 8.482 13.556 C 5.491 13.016 3.745 10.206 5.729 7.143 C 5.682 6.333 5.333 5.619 6.031 5 C 6.282 4.777 7.599 5.351 8.174 6.016 Q 9.952 4.97 12 5.936 C 12.587 5.097 13.889 4.809 14.111 5.031 C 14.524 5.73 14.445 5.92 14.286 7.127 Q 16.842 11.937 11.518 13.556 L 12.032 14.746 L 12.032 17.62" fill="none" vector-effect="non-scaling-stroke" stroke-width="1.4" stroke="rgb(40,163,95)" stroke-opacity="10000" stroke-linejoin="round" stroke-linecap="round" stroke-miterlimit="3"/><path d=" M 4.586 13.651 C 5.682 13.874 5.555 14.556 6.063 15.017 Q 6.698 15.509 7.777 15.175" fill="none" vector-effect="non-scaling-stroke" stroke-width="1.4" stroke="rgb(40,163,95)" stroke-opacity="10000" stroke-linejoin="round" stroke-linecap="round" stroke-miterlimit="3"/></g></g></g></g></g></g></svg>