<?xml version="1.0" standalone="no"?><!-- Generator: Gravit.io --><svg xmlns="http://www.w3.org/2000/svg" xmlns:xlink="http://www.w3.org/1999/xlink" style="isolation:isolate" viewBox="0 0 32 32" width="32" height="32"><defs><clipPath id="_clipPath_lWgUAQxAHrgpTDaaUqmYR0zhNYvvjuaJ"><rect width="32" height="32"/></clipPath></defs><g clip-path="url(#_clipPath_lWgUAQxAHrgpTDaaUqmYR0zhNYvvjuaJ)"><path d=" M 11 14 L 11 11 C 11 8.239 13.239 6 16 6 C 18.761 6 21 8.239 21 11 L 21 14 L 23 14 C 24.105 14 25 14.895 25 16 L 25 24 C 25 25.105 24.105 26 23 26 L 9 26 C 7.895 26 7 25.105 7 24 L 7 16 C 7 14.9 7.9 14 9 14 L 11 14 Z  M 13 14 L 19 14 L 19 11 C 19 9.343 17.657 8 16 8 C 14.343 8 13 9.343 13 11 L 13 14 Z  M 9 16 L 9 24 L 23 24 L 23 16 L 9 16 Z  M 16 18 C 16.552 18 17 18.448 17 19 L 17 21 C 17 21.552 16.552 22 16 22 C 15.448 22 15 21.552 15 21 L 15 19 C 15 18.448 15.448 18 16 18 Z " fill="rgb(255,255,255)"/></g></svg>