<?xml version="1.0" standalone="no"?><!-- Generator: Gravit.io --><svg xmlns="http://www.w3.org/2000/svg" xmlns:xlink="http://www.w3.org/1999/xlink" style="isolation:isolate" viewBox="0 0 32 32" width="32" height="32"><defs><clipPath id="_clipPath_27yaU0UG2iKcA62RtsUK4FbUYPnrP0PL"><rect width="32" height="32"/></clipPath></defs><g clip-path="url(#_clipPath_27yaU0UG2iKcA62RtsUK4FbUYPnrP0PL)"><clipPath id="_clipPath_6Rc3NBxuacNnGTvlC0uYkoElx7e8hloJ"><rect x="0" y="0" width="32" height="32" transform="matrix(1,0,0,1,0,0)" fill="rgb(255,255,255)"/></clipPath><g clip-path="url(#_clipPath_6Rc3NBxuacNnGTvlC0uYkoElx7e8hloJ)"><g><path d=" M 10 6 L 19 6 C 19.264 6.004 19.515 6.112 19.7 6.3 L 23.7 10.3 C 23.888 10.485 23.996 10.736 24 11 L 24 24 C 24 25.105 23.105 26 22 26 L 10 26 C 8.895 26 8 25.105 8 24 L 8 8 C 8 6.9 8.9 6 10 6 Z  M 19 8.41 L 19 11 L 21.59 11 L 19 8.41 Z  M 22 13 L 19 13 C 17.895 13 17 12.105 17 11 L 17 8 L 10 8 L 10 24 L 22 24 L 22 13 Z " fill="rgb(255,255,255)"/></g></g><path d=" M 18.16 18.095 L 18.16 18.095 Q 18.595 18.395 18.79 18.763 L 18.79 18.763 L 18.79 18.763 Q 18.985 19.13 18.985 19.685 L 18.985 19.685 L 18.985 19.685 Q 18.985 20.39 18.572 20.93 L 18.572 20.93 L 18.572 20.93 Q 18.16 21.47 17.41 21.77 L 17.41 21.77 L 17.41 21.77 Q 16.66 22.07 15.655 22.07 L 15.655 22.07 L 15.655 22.07 Q 13.975 22.07 12.79 21.26 L 12.79 21.26 L 13.555 19.865 L 13.555 19.865 Q 14.53 20.435 15.535 20.435 L 15.535 20.435 L 15.535 20.435 Q 16.105 20.435 16.413 20.263 L 16.413 20.263 L 16.413 20.263 Q 16.72 20.09 16.72 19.775 L 16.72 19.775 L 16.72 19.775 Q 16.72 19.52 16.6 19.355 L 16.6 19.355 L 16.6 19.355 Q 16.48 19.19 16.105 19.018 L 16.105 19.018 L 16.105 19.018 Q 15.73 18.845 14.935 18.605 L 14.935 18.605 L 14.935 18.605 Q 13.78 18.245 13.225 17.743 L 13.225 17.743 L 13.225 17.743 Q 12.67 17.24 12.67 16.355 L 12.67 16.355 L 12.67 16.355 Q 12.67 15.245 13.87 14.51 L 13.87 14.51 L 13.87 14.51 Q 13.435 14.195 13.24 13.805 L 13.24 13.805 L 13.24 13.805 Q 13.045 13.415 13.045 12.89 L 13.045 12.89 L 13.045 12.89 Q 13.045 12.2 13.442 11.653 L 13.442 11.653 L 13.442 11.653 Q 13.84 11.105 14.567 10.798 L 14.567 10.798 L 14.567 10.798 Q 15.025 10.49 16 10.49 Q 16.165 10.49 16.27 10.49 Q 16.215 11.063 16.27 10.49 Q 16.227 11.625 16.595 12.1 C 16.597 12.108 16.598 12.117 16.6 12.125 Q 16.518 12.125 16.39 12.125 L 16.39 12.125 Q 15.295 12.125 15.295 12.8 L 15.295 12.8 L 15.295 12.8 Q 15.295 13.055 15.415 13.22 L 15.415 13.22 L 15.415 13.22 Q 15.535 13.385 15.895 13.55 L 15.895 13.55 L 15.895 13.55 Q 16.255 13.715 17.035 13.955 L 17.035 13.955 L 17.035 13.955 Q 18.19 14.315 18.76 14.825 L 18.76 14.825 L 18.76 14.825 Q 19.33 15.335 19.33 16.22 L 19.33 16.22 L 19.33 16.22 Q 19.33 17.345 18.16 18.095 L 18.16 18.095 Z  M 15.895 17.09 L 15.895 17.09 Q 16.66 17.375 16.87 17.465 L 16.87 17.465 L 16.87 17.465 Q 17.05 17.24 17.155 17 L 17.155 17 L 17.155 17 Q 17.26 16.76 17.26 16.55 L 17.26 16.55 L 17.26 16.55 Q 17.26 16.16 16.96 15.92 L 16.96 15.92 L 16.96 15.92 Q 16.66 15.68 15.79 15.395 L 15.79 15.395 L 15.055 15.14 L 15.055 15.14 Q 14.74 15.56 14.74 16.01 L 14.74 16.01 L 14.74 16.01 Q 14.74 16.4 14.98 16.625 L 14.98 16.625 L 14.98 16.625 Q 15.22 16.85 15.895 17.09 L 15.895 17.09 L 15.895 17.09 Z " fill-rule="evenodd" fill="rgb(255,255,255)"/></g></svg>