<?xml version="1.0" standalone="no"?><!-- Generator: Gravit.io --><svg xmlns="http://www.w3.org/2000/svg" xmlns:xlink="http://www.w3.org/1999/xlink" style="isolation:isolate" viewBox="0 0 32 32" width="32" height="32"><defs><clipPath id="_clipPath_NLFL6qQWVgcPCCIwXMiKkSgRdc5gBk5p"><rect width="32" height="32"/></clipPath></defs><g clip-path="url(#_clipPath_NLFL6qQWVgcPCCIwXMiKkSgRdc5gBk5p)"><clipPath id="_clipPath_6w0qn4QPQC5P9X1vqFSJZFPxlXr7UlXa"><rect x="6" y="5.999" width="20" height="20.001" transform="matrix(1,0,0,1,0,0)" fill="rgb(255,255,255)"/></clipPath><g clip-path="url(#_clipPath_6w0qn4QPQC5P9X1vqFSJZFPxlXr7UlXa)"><g><path d=" M 19.6 19.467 C 18.189 20.947 16.018 21.416 14.123 20.65 C 12.227 19.885 10.99 18.042 11 15.998 C 11 13.236 13.239 10.998 16 10.998 C 18.761 10.998 21 13.236 21 15.998 L 21 17.498 C 21 18.327 21.672 18.998 22.5 18.998 C 23.328 18.998 24 18.327 24 17.498 L 24 15.998 C 23.996 12.475 21.689 9.37 18.317 8.349 C 14.945 7.328 11.302 8.635 9.346 11.565 C 7.39 14.495 7.581 18.359 9.817 21.082 C 12.052 23.804 15.805 24.745 19.06 23.398 C 19.394 23.229 19.795 23.26 20.099 23.48 C 20.403 23.7 20.558 24.071 20.501 24.441 C 20.445 24.812 20.185 25.119 19.83 25.238 C 15.761 26.924 11.067 25.75 8.272 22.346 C 5.476 18.942 5.238 14.111 7.684 10.447 C 10.13 6.784 14.685 5.153 18.9 6.431 C 23.116 7.707 25.999 11.592 26 15.998 L 26 17.498 C 26.005 19.038 25.002 20.4 23.53 20.854 C 22.058 21.307 20.462 20.744 19.6 19.467 Z  M 16 18.998 C 17.657 18.998 19 17.654 19 15.998 C 19 14.341 17.657 12.998 16 12.998 C 14.343 12.998 13 14.341 13 15.998 C 13 17.654 14.343 18.998 16 18.998 Z " fill="rgb(255,255,255)"/></g></g></g></svg>