<?xml version="1.0" standalone="no"?><!-- Generator: Gravit.io --><svg xmlns="http://www.w3.org/2000/svg" xmlns:xlink="http://www.w3.org/1999/xlink" style="isolation:isolate" viewBox="0 0 32 32" width="32" height="32"><defs><clipPath id="_clipPath_wYiyRS7K8swkeMxEwK4ChasZIkEjpbVh"><rect width="32" height="32"/></clipPath></defs><g clip-path="url(#_clipPath_wYiyRS7K8swkeMxEwK4ChasZIkEjpbVh)"><path d=" M 8 8 L 24 8 C 25.105 8 26 8.895 26 10 L 26 22 C 26 23.105 25.105 24 24 24 L 8 24 C 6.895 24 6 23.105 6 22 L 6 10 C 6 8.9 6.9 8 8 8 Z  M 24 16.59 L 24 10 L 8 10 L 8 16.59 L 12.3 12.29 C 12.689 11.909 13.311 11.909 13.7 12.29 L 19 17.59 L 21.3 15.29 C 21.689 14.909 22.311 14.909 22.7 15.29 L 24 16.59 Z  M 24 19.41 L 22 17.41 L 19.7 19.71 C 19.311 20.091 18.689 20.091 18.3 19.71 L 13 14.4 L 8 19.4 L 8 22 L 24 22 L 24 19.41 Z  M 19 14 C 18.448 14 18 13.552 18 13 C 18 12.448 18.448 12 19 12 C 19.552 12 20 12.448 20 13 C 20 13.552 19.552 14 19 14 Z " fill="rgb(255,255,255)"/></g></svg>