<?xml version="1.0" standalone="no"?><!-- Generator: Gravit.io --><svg xmlns="http://www.w3.org/2000/svg" xmlns:xlink="http://www.w3.org/1999/xlink" style="isolation:isolate" viewBox="0 0 32 32" width="32" height="32"><defs><clipPath id="_clipPath_FpLX0MJ2j1RHohKrO0Q93ebcgHb5mwfQ"><rect width="32" height="32"/></clipPath></defs><g clip-path="url(#_clipPath_FpLX0MJ2j1RHohKrO0Q93ebcgHb5mwfQ)"><path d=" M 45 -11 L 45 -13 C 45 -14.1 45.9 -15 47 -15 L 51 -15 C 52.105 -15 53 -14.105 53 -13 L 53 -11 L 57 -11 C 58.105 -11 59 -10.105 59 -9 L 59 1 C 59 2.105 58.105 3 57 3 L 41 3 C 39.895 3 39 2.105 39 1 L 39 -9 C 39 -10.1 39.9 -11 41 -11 L 45 -11 Z  M 53 -9 L 45 -9 L 45 1 L 53 1 L 53 -9 Z  M 55 -9 L 55 1 L 57 1 L 57 -9 L 55 -9 Z  M 43 -9 L 41 -9 L 41 1 L 43 1 L 43 -9 Z  M 47 -11 L 51 -11 L 51 -13 L 47 -13 L 47 -11 Z " fill="rgb(8,162,77)"/><g><path d="M 24.45 14.297 L 24.55 14.297 C 25.109 14.297 25.562 14.75 25.562 15.309 L 25.562 22.929 C 25.562 23.488 25.109 23.941 24.55 23.941 L 24.45 23.941 C 23.891 23.941 23.437 23.488 23.437 22.929 L 23.437 15.309 C 23.437 14.75 23.891 14.297 24.45 14.297 Z" style="stroke:none;fill:#08A24D;stroke-miterlimit:10;"/><line x1="21.138" y1="21.362" x2="16.025" y2="24.5" vector-effect="non-scaling-stroke" stroke-width="2" stroke="rgb(8,162,77)" stroke-linejoin="miter" stroke-linecap="round" stroke-miterlimit="3"/><line x1="16" y1="24.5" x2="8.226" y2="19.632" vector-effect="non-scaling-stroke" stroke-width="2" stroke="rgb(8,162,77)" stroke-linejoin="miter" stroke-linecap="round" stroke-miterlimit="3"/><line x1="26.625" y1="13.875" x2="16.025" y2="20.25" vector-effect="non-scaling-stroke" stroke-width="2" stroke="rgb(8,162,77)" stroke-linejoin="miter" stroke-linecap="round" stroke-miterlimit="3"/><line x1="16" y1="20.3" x2="5.375" y2="13.875" vector-effect="non-scaling-stroke" stroke-width="2" stroke="rgb(8,162,77)" stroke-linejoin="miter" stroke-linecap="round" stroke-miterlimit="3"/><line x1="5.375" y1="13.875" x2="16" y2="7.5" vector-effect="non-scaling-stroke" stroke-width="2" stroke="rgb(8,162,77)" stroke-linejoin="miter" stroke-linecap="round" stroke-miterlimit="3"/><line x1="16.025" y1="7.5" x2="26.625" y2="13.875" vector-effect="non-scaling-stroke" stroke-width="2" stroke="rgb(8,162,77)" stroke-linejoin="miter" stroke-linecap="round" stroke-miterlimit="3"/></g></g></svg>