<?xml version="1.0" standalone="no"?><!-- Generator: Gravit.io --><svg xmlns="http://www.w3.org/2000/svg" xmlns:xlink="http://www.w3.org/1999/xlink" style="isolation:isolate" viewBox="0 0 32 32" width="32" height="32"><defs><clipPath id="_clipPath_e2ajCVtScHrS9jXmN7RmLXy8azomLA2b"><rect width="32" height="32"/></clipPath></defs><g clip-path="url(#_clipPath_e2ajCVtScHrS9jXmN7RmLXy8azomLA2b)"><path d=" M 10 6 L 19 6 C 19.264 6.004 19.515 6.112 19.7 6.3 L 23.7 10.3 C 23.888 10.485 23.996 10.736 24 11 L 24 24 C 24 25.105 23.105 26 22 26 L 10 26 C 8.895 26 8 25.105 8 24 L 8 8 C 8 6.9 8.9 6 10 6 Z  M 19 8.41 L 19 11 L 21.59 11 L 19 8.41 Z  M 22 13 L 19 13 C 17.895 13 17 12.105 17 11 L 17 8 L 10 8 L 10 24 L 22 24 L 22 13 Z  M 20 20 C 20 20.552 19.552 21 19 21 L 13 21 C 12.448 21 12 20.552 12 20 C 12 19.448 12.448 19 13 19 L 19 19 C 19.552 19 20 19.448 20 20 Z  M 20 16 C 20 16.552 19.552 17 19 17 L 13 17 C 12.448 17 12 16.552 12 16 C 12 15.448 12.448 15 13 15 L 19 15 C 19.552 15 20 15.448 20 16 Z  M 15 12 C 15 12.552 14.552 13 14 13 L 13 13 C 12.448 13 12 12.552 12 12 C 12 11.448 12.448 11 13 11 L 14 11 C 14.552 11 15 11.448 15 12 Z " fill="rgb(255,255,255)"/></g></svg>