<?xml version="1.0" standalone="no"?><!-- Generator: Gravit.io --><svg xmlns="http://www.w3.org/2000/svg" xmlns:xlink="http://www.w3.org/1999/xlink" style="isolation:isolate" viewBox="0 0 32 32" width="32" height="32"><defs><clipPath id="_clipPath_i87g8XBiGHO2GZeieahCR4xFFMzcREFl"><rect width="32" height="32"/></clipPath></defs><g clip-path="url(#_clipPath_i87g8XBiGHO2GZeieahCR4xFFMzcREFl)"><path d=" M 24.595 16.038 L 21.295 12.738 C 21.012 12.491 20.89 12.107 20.981 11.742 C 21.071 11.377 21.358 11.094 21.724 11.009 C 22.09 10.924 22.473 11.051 22.715 11.338 L 26.715 15.338 C 27.096 15.726 27.096 16.349 26.715 16.738 L 22.715 20.738 C 22.321 21.08 21.729 21.062 21.357 20.695 C 20.985 20.328 20.958 19.737 21.295 19.338 L 24.595 16.038 Z  M 7.405 16.038 L 10.705 19.338 C 11.042 19.737 11.015 20.328 10.643 20.695 C 10.271 21.062 9.679 21.08 9.285 20.738 L 5.285 16.738 C 4.904 16.349 4.904 15.726 5.285 15.338 L 9.285 11.338 C 9.679 10.995 10.271 11.013 10.643 11.38 C 11.015 11.747 11.042 12.338 10.705 12.738 L 7.405 16.038 Z  M 14.965 24.278 C 14.816 24.794 14.286 25.1 13.764 24.971 C 13.243 24.842 12.916 24.324 13.025 23.798 L 17.025 7.798 C 17.099 7.439 17.364 7.149 17.715 7.043 C 18.065 6.937 18.446 7.031 18.707 7.288 C 18.968 7.546 19.067 7.925 18.965 8.278 L 14.965 24.278 Z " fill="rgb(255,255,255)"/></g></svg>