<?xml version="1.0" standalone="no"?><!-- Generator: Gravit.io --><svg xmlns="http://www.w3.org/2000/svg" xmlns:xlink="http://www.w3.org/1999/xlink" style="isolation:isolate" viewBox="0 0 32 32" width="32" height="32"><defs><clipPath id="_clipPath_iFd78mDU3l4gs3odacvkuvczCl1dVBiM"><rect width="32" height="32"/></clipPath></defs><g clip-path="url(#_clipPath_iFd78mDU3l4gs3odacvkuvczCl1dVBiM)"><path d=" M 17.04 18.69 L 18.11 16.55 C 18.332 16.111 18.841 15.898 19.31 16.05 L 25.31 18.05 C 25.721 18.184 26 18.567 26 19 L 26 24 C 26 25.105 25.105 26 24 26 L 22 26 C 13.163 26 6 18.837 6 10 L 6 8 C 6 6.9 6.9 6 8 6 L 13 6 C 13.43 5.999 13.812 6.273 13.95 6.68 L 15.95 12.68 C 16.107 13.152 15.894 13.667 15.45 13.89 L 13.3 14.96 C 14.189 16.513 15.477 17.801 17.03 18.69 L 17.04 18.69 Z  M 12.28 8 L 8 8 L 8 10 C 8 17.732 14.268 24 22 24 L 24 24 L 24 19.72 L 19.5 18.22 L 18.38 20.48 C 18.139 20.955 17.567 21.158 17.08 20.94 C 14.409 19.736 12.269 17.599 11.06 14.93 C 10.842 14.443 11.045 13.871 11.52 13.63 L 13.78 12.49 L 12.28 8 Z " fill="rgb(255,255,255)"/></g></svg>