<?xml version="1.0" standalone="no"?><!-- Generator: Gravit.io --><svg xmlns="http://www.w3.org/2000/svg" xmlns:xlink="http://www.w3.org/1999/xlink" style="isolation:isolate" viewBox="0 0 32 32" width="32" height="32"><defs><clipPath id="_clipPath_PZcFyjKiVeTh1Fhi42HITGdoUnMGAXiA"><rect width="32" height="32"/></clipPath></defs><g clip-path="url(#_clipPath_PZcFyjKiVeTh1Fhi42HITGdoUnMGAXiA)"><clipPath id="_clipPath_xt9VQ5EiNXKLTqBu0geUw670vTYaBD1m"><rect x="7" y="6" width="18" height="20" transform="matrix(1,0,0,1,0,0)" fill="rgb(255,255,255)"/></clipPath><g clip-path="url(#_clipPath_xt9VQ5EiNXKLTqBu0geUw670vTYaBD1m)"><g><path d=" M 16 16 C 13.238 16 11 13.761 11 11 C 11 8.239 13.238 6 16 6 C 18.761 6 21 8.239 21 11 C 21 13.761 18.761 16 16 16 Z  M 16 14 C 17.656 14 19 12.657 19 11 C 19 9.343 17.656 8 16 8 C 14.343 8 13 9.343 13 11 C 13 12.657 14.343 14 16 14 Z  M 25 25 C 25 25.552 24.552 26 24 26 C 23.447 26 23 25.552 23 25 L 23 23 C 23 21.343 21.656 20 20 20 L 12 20 C 10.343 20 9 21.343 9 23 L 9 25 C 9 25.552 8.552 26 8 26 C 7.447 26 7 25.552 7 25 L 7 23 C 7 20.239 9.238 18 12 18 L 20 18 C 22.761 18 25 20.239 25 23 L 25 25 Z " fill="rgb(255,255,255)"/></g></g></g></svg>