<?xml version="1.0" standalone="no"?><!-- Generator: Gravit.io --><svg xmlns="http://www.w3.org/2000/svg" xmlns:xlink="http://www.w3.org/1999/xlink" style="isolation:isolate" viewBox="0 0 32 32" width="32" height="32"><defs><clipPath id="_clipPath_O7hx1UKRHnWEzV7A0HerW4vFBvPtjQyv"><rect width="32" height="32"/></clipPath></defs><g clip-path="url(#_clipPath_O7hx1UKRHnWEzV7A0HerW4vFBvPtjQyv)"><path d=" M 8 8 L 24 8 C 25.105 8 26 8.895 26 10 L 26 22 C 26 23.105 25.105 24 24 24 L 8 24 C 6.895 24 6 23.105 6 22 L 6 10 C 6 8.9 6.9 8 8 8 Z  M 24 11.38 L 24 10 L 8 10 L 8 11.38 L 16 15.38 L 24 11.38 Z  M 24 13.62 L 16.45 17.39 C 16.167 17.533 15.833 17.533 15.55 17.39 L 8 13.62 L 8 22 L 24 22 L 24 13.62 Z " fill="rgb(255,255,255)"/></g></svg>