<?xml version="1.0" standalone="no"?><!-- Generator: Gravit.io --><svg xmlns="http://www.w3.org/2000/svg" xmlns:xlink="http://www.w3.org/1999/xlink" style="isolation:isolate" viewBox="0 0 32 32" width="32" height="32"><defs><clipPath id="_clipPath_xLN7HFwehgL3YWwHsHlgSf8Af8OYuTeA"><rect width="32" height="32"/></clipPath></defs><g clip-path="url(#_clipPath_xLN7HFwehgL3YWwHsHlgSf8Af8OYuTeA)"><path d=" M 12 11 L 12 9 C 12 7.9 12.9 7 14 7 L 18 7 C 19.105 7 20 7.895 20 9 L 20 11 L 24 11 C 25.105 11 26 11.895 26 13 L 26 23 C 26 24.105 25.105 25 24 25 L 8 25 C 6.895 25 6 24.105 6 23 L 6 13 C 6 11.9 6.9 11 8 11 L 12 11 Z  M 20 13 L 12 13 L 12 23 L 20 23 L 20 13 Z  M 22 13 L 22 23 L 24 23 L 24 13 L 22 13 Z  M 10 13 L 8 13 L 8 23 L 10 23 L 10 13 Z  M 14 11 L 18 11 L 18 9 L 14 9 L 14 11 Z " fill="rgb(8,162,77)"/></g></svg>