<?xml version="1.0" standalone="no"?><!-- Generator: Gravit.io --><svg xmlns="http://www.w3.org/2000/svg" xmlns:xlink="http://www.w3.org/1999/xlink" style="isolation:isolate" viewBox="0 0 32 32" width="32" height="32"><defs><clipPath id="_clipPath_BJfYTiI1eUTfmJ9Y0BRay91BolRUUCai"><rect width="32" height="32"/></clipPath></defs><g clip-path="url(#_clipPath_BJfYTiI1eUTfmJ9Y0BRay91BolRUUCai)"><path d=" M 17.055 23.998 L 17.055 18.998 L 15.055 18.998 L 15.055 23.998 C 15.055 25.102 14.159 25.998 13.055 25.998 L 10.055 25.998 C 8.95 25.998 8.055 25.102 8.055 23.998 L 8.055 16.408 L 7.755 16.708 C 7.508 16.991 7.124 17.113 6.759 17.022 C 6.395 16.932 6.111 16.645 6.026 16.279 C 5.941 15.913 6.068 15.53 6.355 15.288 L 15.355 6.288 C 15.744 5.907 16.366 5.907 16.755 6.288 L 25.755 15.288 C 26.098 15.682 26.079 16.274 25.712 16.646 C 25.345 17.018 24.754 17.045 24.355 16.708 L 24.055 16.408 L 24.055 23.998 C 24.055 25.102 23.159 25.998 22.055 25.998 L 19.055 25.998 C 17.95 25.998 17.055 25.102 17.055 23.998 Z  M 22.055 23.998 L 22.055 14.408 L 16.055 8.408 L 10.055 14.408 L 10.055 23.998 L 13.055 23.998 L 13.055 18.998 C 13.055 17.898 13.955 16.998 15.055 16.998 L 17.055 16.998 C 18.159 16.998 19.055 17.893 19.055 18.998 L 19.055 23.998 L 22.055 23.998 Z " fill="rgb(255,255,255)"/></g></svg>