<?xml version="1.0" standalone="no"?><!-- Generator: Gravit.io --><svg xmlns="http://www.w3.org/2000/svg" xmlns:xlink="http://www.w3.org/1999/xlink" style="isolation:isolate" viewBox="0 0 32 32" width="32" height="32"><defs><clipPath id="_clipPath_ceOFUGuCa2FmJzcOy8U7KsG1Oo43CZqg"><rect width="32" height="32"/></clipPath></defs><g clip-path="url(#_clipPath_ceOFUGuCa2FmJzcOy8U7KsG1Oo43CZqg)"><path d=" M 15 22.592 L 15 7.002 C 15 6.45 15.448 6.002 16 6.002 C 16.552 6.002 17 6.45 17 7.002 L 17 22.592 L 22.3 17.292 C 22.699 16.955 23.291 16.982 23.657 17.354 C 24.024 17.726 24.043 18.318 23.7 18.712 L 16.7 25.712 C 16.311 26.093 15.689 26.093 15.3 25.712 L 8.3 18.712 C 7.957 18.318 7.976 17.726 8.343 17.354 C 8.709 16.982 9.301 16.955 9.7 17.292 L 15 22.592 Z " fill="rgb(255,255,255)"/></g></svg>