<?xml version="1.0" standalone="no"?><!-- Generator: Gravit.io --><svg xmlns="http://www.w3.org/2000/svg" xmlns:xlink="http://www.w3.org/1999/xlink" style="isolation:isolate" viewBox="0 0 32 32" width="32" height="32"><defs><clipPath id="_clipPath_uiZbJXEpsvSujElVXivrVI4eN89cgfTu"><rect width="32" height="32"/></clipPath></defs><g clip-path="url(#_clipPath_uiZbJXEpsvSujElVXivrVI4eN89cgfTu)"><path d=" M 9.64 20.706 C 7.064 18.133 6.292 14.261 7.684 10.897 C 9.076 7.532 12.359 5.338 16 5.338 C 19.641 5.338 22.924 7.532 24.316 10.897 C 25.708 14.261 24.936 18.133 22.36 20.706 L 16.71 26.366 C 16.522 26.555 16.267 26.662 16 26.662 C 15.733 26.662 15.478 26.555 15.29 26.366 L 9.64 20.706 Z  M 20.95 19.296 C 23.683 16.562 23.683 12.13 20.95 9.397 C 18.216 6.663 13.784 6.663 11.05 9.397 C 8.317 12.13 8.317 16.562 11.05 19.296 L 16 24.246 L 20.95 19.296 Z  M 16 18.346 C 13.791 18.346 12 16.555 12 14.346 C 12 12.137 13.791 10.346 16 10.346 C 18.209 10.346 20 12.137 20 14.346 C 20 16.555 18.209 18.346 16 18.346 Z  M 16 16.346 C 17.105 16.346 18 15.451 18 14.346 C 18 13.241 17.105 12.346 16 12.346 C 14.895 12.346 14 13.241 14 14.346 C 14 15.451 14.895 16.346 16 16.346 Z " fill="rgb(255,255,255)"/></g></svg>