<?xml version="1.0" standalone="no"?><!-- Generator: Gravit.io --><svg xmlns="http://www.w3.org/2000/svg" xmlns:xlink="http://www.w3.org/1999/xlink" style="isolation:isolate" viewBox="0 0 32 32" width="32" height="32"><defs><clipPath id="_clipPath_ww6zlAy79DPZZoetI4OleL4rx5N5RCER"><rect width="32" height="32"/></clipPath></defs><g clip-path="url(#_clipPath_ww6zlAy79DPZZoetI4OleL4rx5N5RCER)"><clipPath id="_clipPath_3R8OdcDfCMKjH2QlxBZoqIHD7ziN1gok"><rect x="6.007" y="6.007" width="19.986" height="19.986" transform="matrix(1,0,0,1,0,0)" fill="rgb(255,255,255)"/></clipPath><g clip-path="url(#_clipPath_3R8OdcDfCMKjH2QlxBZoqIHD7ziN1gok)"><g><path d=" M 10.307 16.293 L 20.307 6.293 C 20.696 5.912 21.318 5.912 21.707 6.293 L 25.707 10.293 C 26.088 10.682 26.088 11.304 25.707 11.693 L 15.707 21.693 C 15.522 21.881 15.271 21.989 15.007 21.993 L 11.007 21.993 C 10.455 21.993 10.007 21.545 10.007 20.993 L 10.007 16.993 C 10.011 16.729 10.119 16.477 10.307 16.293 Z  M 12.007 19.993 L 14.597 19.993 L 23.597 10.993 L 21.007 8.403 L 12.007 17.403 L 12.007 19.993 Z  M 22.007 17.993 C 22.007 17.441 22.455 16.993 23.007 16.993 C 23.559 16.993 24.007 17.441 24.007 17.993 L 24.007 23.993 C 24.007 25.097 23.112 25.993 22.007 25.993 L 8.007 25.993 C 6.902 25.993 6.007 25.097 6.007 23.993 L 6.007 9.993 C 6.007 8.893 6.907 7.993 8.007 7.993 L 14.007 7.993 C 14.559 7.993 15.007 8.441 15.007 8.993 C 15.007 9.545 14.559 9.993 14.007 9.993 L 8.007 9.993 L 8.007 23.993 L 22.007 23.993 L 22.007 17.993 Z " fill="rgb(255,255,255)"/></g></g></g></svg>