<?xml version="1.0" standalone="no"?><!-- Generator: Gravit.io --><svg xmlns="http://www.w3.org/2000/svg" xmlns:xlink="http://www.w3.org/1999/xlink" style="isolation:isolate" viewBox="0 0 32 32" width="32" height="32"><defs><clipPath id="_clipPath_NgtAvroX5qo1YRXEt8xbBPR4MGxvt7L5"><rect width="32" height="32"/></clipPath></defs><g clip-path="url(#_clipPath_NgtAvroX5qo1YRXEt8xbBPR4MGxvt7L5)"><path d=" M 10.594 25.932 C 10.256 26.109 9.846 26.079 9.538 25.854 C 9.23 25.629 9.077 25.247 9.144 24.872 L 10.174 18.842 L 5.794 14.582 C 5.518 14.315 5.419 13.915 5.538 13.551 C 5.658 13.187 5.974 12.923 6.354 12.872 L 12.404 11.992 L 15.104 6.512 C 15.271 6.167 15.62 5.948 16.004 5.948 C 16.387 5.948 16.737 6.167 16.904 6.512 L 19.604 11.992 L 25.664 12.872 C 26.037 12.929 26.346 13.193 26.463 13.552 C 26.579 13.912 26.483 14.306 26.214 14.572 L 21.834 18.842 L 22.874 24.872 C 22.943 25.25 22.789 25.635 22.478 25.862 C 22.166 26.088 21.752 26.115 21.414 25.932 L 16.014 23.082 L 10.594 25.932 Z  M 15.544 21.062 C 15.835 20.909 16.183 20.909 16.474 21.062 L 20.554 23.212 L 19.774 18.662 C 19.721 18.339 19.829 18.01 20.064 17.782 L 23.364 14.562 L 18.804 13.892 C 18.477 13.848 18.193 13.646 18.044 13.352 L 16.004 9.212 L 13.964 13.352 C 13.817 13.643 13.537 13.845 13.214 13.892 L 8.644 14.562 L 11.944 17.782 C 12.182 18.008 12.295 18.337 12.244 18.662 L 11.454 23.212 L 15.544 21.062 Z " fill="rgb(255,255,255)"/></g></svg>