<?xml version="1.0" standalone="no"?><!-- Generator: Gravit.io --><svg xmlns="http://www.w3.org/2000/svg" xmlns:xlink="http://www.w3.org/1999/xlink" style="isolation:isolate" viewBox="0 0 32 32" width="32" height="32"><defs><clipPath id="_clipPath_x1dIz6ICmrUNTVAOkRxGPVwKipyh3UXi"><rect width="32" height="32"/></clipPath></defs><g clip-path="url(#_clipPath_x1dIz6ICmrUNTVAOkRxGPVwKipyh3UXi)"><clipPath id="_clipPath_THjV0lKKUfm2gNCMtxXuh1JoQHlO9vWt"><rect x="6" y="7" width="20" height="18" transform="matrix(1,0,0,1,0,0)" fill="rgb(255,255,255)"/></clipPath><g clip-path="url(#_clipPath_THjV0lKKUfm2gNCMtxXuh1JoQHlO9vWt)"><g><path d=" M 17 21 L 15 21 L 15 23 L 17 23 L 17 21 Z  M 19 21 L 19 23 L 21 23 C 21.552 23 22 23.448 22 24 C 22 24.552 21.552 25 21 25 L 11 25 C 10.448 25 10 24.552 10 24 C 10 23.448 10.448 23 11 23 L 13 23 L 13 21 L 8 21 C 6.895 21 6 20.105 6 19 L 6 9 C 6 7.9 6.9 7 8 7 L 24 7 C 25.105 7 26 7.895 26 9 L 26 19 C 26 20.105 25.105 21 24 21 L 19 21 Z  M 8 9 L 8 19 L 24 19 L 24 9 L 8 9 Z " fill="rgb(255,255,255)"/></g></g></g></svg>