<?xml version="1.0" standalone="no"?><!-- Generator: Gravit.io --><svg xmlns="http://www.w3.org/2000/svg" xmlns:xlink="http://www.w3.org/1999/xlink" style="isolation:isolate" viewBox="0 0 24 24" width="24" height="24"><defs><clipPath id="_clipPath_E3bYZyLvCLdp8MQWMmjJwQI5vhG7NTBC"><rect width="24" height="24"/></clipPath></defs><g clip-path="url(#_clipPath_E3bYZyLvCLdp8MQWMmjJwQI5vhG7NTBC)"><path d=" M 11 14.59 L 11 3 C 11 2.448 11.448 2 12 2 C 12.552 2 13 2.448 13 3 L 13 14.59 L 16.3 11.29 C 16.699 10.953 17.291 10.98 17.657 11.352 C 18.024 11.724 18.043 12.316 17.7 12.71 L 12.7 17.71 C 12.311 18.091 11.689 18.091 11.3 17.71 L 6.3 12.71 C 5.957 12.316 5.976 11.724 6.343 11.352 C 6.709 10.98 7.301 10.953 7.7 11.29 L 11 14.59 L 11 14.59 Z  M 3 17 C 3 16.448 3.448 16 4 16 C 4.552 16 5 16.448 5 17 L 5 20 L 19 20 L 19 17 C 19 16.448 19.448 16 20 16 C 20.552 16 21 16.448 21 17 L 21 20 C 21 21.105 20.105 22 19 22 L 5 22 C 3.895 22 3 21.105 3 20 L 3 17 L 3 17 Z " fill="rgb(255,255,255)"/></g></svg>