<?xml version="1.0" standalone="no"?><!-- Generator: Gravit.io --><svg xmlns="http://www.w3.org/2000/svg" xmlns:xlink="http://www.w3.org/1999/xlink" style="isolation:isolate" viewBox="0 0 32 32" width="32" height="32"><defs><clipPath id="_clipPath_sG80kRHFS7Hvo2XmOpMLXvt9TDxm40Up"><rect width="32" height="32"/></clipPath></defs><g clip-path="url(#_clipPath_sG80kRHFS7Hvo2XmOpMLXvt9TDxm40Up)"><path d=" M 23.31 4.753 L 12.061 16.002 L 10.374 21.626 L 15.998 19.939 L 27.247 8.69 L 23.31 4.753 Z " fill="none" vector-effect="non-scaling-stroke" stroke-width="1" stroke="rgb(255,255,255)" stroke-linejoin="round" stroke-linecap="square" stroke-miterlimit="3"/><line x1="12.586" y1="16.021" x2="16.036" y2="19.356" vector-effect="non-scaling-stroke" stroke-width="1" stroke="rgb(255,255,255)" stroke-linejoin="miter" stroke-linecap="square" stroke-miterlimit="3"/><path d="M 27.455 2.994 L 29.006 4.545 C 29.665 5.203 29.665 6.272 29.006 6.931 L 27.669 8.268 L 23.732 4.331 L 25.069 2.994 C 25.728 2.335 26.797 2.335 27.455 2.994 Z" style="fill:none;stroke:#FFFFFF;stroke-width:1;stroke-linecap:square;stroke-miterlimit:2;"/><path d=" M 15.998 3.753 Q 10.929 3.753 7.807 3.753 Q 4.23 4.644 3.381 8.268 Q 3.381 17.47 3.381 24 Q 3.689 27.941 7.807 29.062 Q 17.741 29.062 24 29.062 C 24.091 29.062 23.91 29.062 24 29.062 Q 28.136 28.363 28.69 24 L 28.69 16.021" fill="none" vector-effect="non-scaling-stroke" stroke-width="1.5" stroke="rgb(255,255,255)" stroke-linejoin="round" stroke-linecap="round" stroke-miterlimit="3"/></g></svg>