<?xml version="1.0" standalone="no"?><!-- Generator: Gravit.io --><svg xmlns="http://www.w3.org/2000/svg" xmlns:xlink="http://www.w3.org/1999/xlink" style="isolation:isolate" viewBox="0 0 256 128" width="256" height="128"><defs><clipPath id="_clipPath_H62Xv0rEQ09TI4olbzfOySnKDKUMuzNw"><rect width="256" height="128"/></clipPath></defs><g clip-path="url(#_clipPath_H62Xv0rEQ09TI4olbzfOySnKDKUMuzNw)"><g opacity="0.75"><path d=" M 63.94 52.88 L 66.74 57.24 L 53.74 64.84 L 66.74 72.28 L 63.86 76.8 L 48.3 67.12 L 48.3 62.6 L 63.94 52.88 L 63.94 52.88 Z  M 78.62 47.08 L 78.62 58.28 L 78.62 58.28 Q 81.3 55.44 84.86 55.44 L 84.86 55.44 L 84.86 55.44 Q 87.66 55.44 89.18 57.1 L 89.18 57.1 L 89.18 57.1 Q 90.7 58.76 90.7 61.8 L 90.7 61.8 L 90.7 77.4 L 84.38 77.4 L 84.38 63.56 L 84.38 63.56 Q 84.38 61.64 83.94 60.88 L 83.94 60.88 L 83.94 60.88 Q 83.5 60.12 82.34 60.12 L 82.34 60.12 L 82.34 60.12 Q 81.38 60.12 80.48 60.78 L 80.48 60.78 L 80.48 60.78 Q 79.58 61.44 78.62 62.72 L 78.62 62.72 L 78.62 77.4 L 72.3 77.4 L 72.3 47.72 L 78.62 47.08 L 78.62 47.08 Z  M 115.42 76.16 L 115.42 76.16 Q 112.42 78.08 108.46 78.08 L 108.46 78.08 L 108.46 78.08 Q 104.38 78.08 102.32 76 L 102.32 76 L 102.32 76 Q 100.26 73.92 100.26 70.16 L 100.26 70.16 L 100.26 60.52 L 95.82 60.52 L 95.82 56.16 L 100.26 56.16 L 100.26 51.56 L 106.58 50.8 L 106.58 56.16 L 113.42 56.16 L 112.78 60.52 L 106.58 60.52 L 106.58 70.16 L 106.58 70.16 Q 106.58 71.72 107.3 72.4 L 107.3 72.4 L 107.3 72.4 Q 108.02 73.08 109.62 73.08 L 109.62 73.08 L 109.62 73.08 Q 111.62 73.08 113.34 72.12 L 113.34 72.12 L 115.42 76.16 L 115.42 76.16 Z  M 136.02 55.44 L 136.02 55.44 Q 138.3 55.44 139.36 56.94 L 139.36 56.94 L 139.36 56.94 Q 140.42 58.44 140.42 61.68 L 140.42 61.68 L 140.42 77.4 L 135.02 77.4 L 135.02 62.4 L 135.02 62.4 Q 135.02 61.24 134.8 60.8 L 134.8 60.8 L 134.8 60.8 Q 134.58 60.36 133.98 60.36 L 133.98 60.36 L 133.98 60.36 Q 132.86 60.36 131.78 61.76 L 131.78 61.76 L 131.78 77.4 L 127.3 77.4 L 127.3 62.4 L 127.3 62.4 Q 127.3 61.24 127.08 60.8 L 127.08 60.8 L 127.08 60.8 Q 126.86 60.36 126.26 60.36 L 126.26 60.36 L 126.26 60.36 Q 125.14 60.36 124.06 61.76 L 124.06 61.76 L 124.06 77.4 L 118.58 77.4 L 118.58 56.16 L 123.18 56.16 L 123.62 58.2 L 123.62 58.2 Q 124.66 56.76 125.68 56.1 L 125.68 56.1 L 125.68 56.1 Q 126.7 55.44 128.06 55.44 L 128.06 55.44 L 128.06 55.44 Q 129.3 55.44 130.14 56.06 L 130.14 56.06 L 130.14 56.06 Q 130.98 56.68 131.34 57.96 L 131.34 57.96 L 131.34 57.96 Q 133.5 55.44 136.02 55.44 L 136.02 55.44 L 136.02 55.44 Z  M 155.38 47.72 L 155.38 70.72 L 155.38 70.72 Q 155.38 73.08 158.1 73.08 L 158.1 73.08 L 158.1 73.08 Q 159.58 73.08 161.14 72.44 L 161.14 72.44 L 162.62 76.68 L 162.62 76.68 Q 160.06 78.08 156.5 78.08 L 156.5 78.08 L 156.5 78.08 Q 152.78 78.08 150.92 75.94 L 150.92 75.94 L 150.92 75.94 Q 149.06 73.8 149.06 69.92 L 149.06 69.92 L 149.06 52.04 L 142.82 52.04 L 142.82 47.72 L 155.38 47.72 L 155.38 47.72 Z  M 171.58 81.88 L 166.66 79.6 L 183.46 44.72 L 188.34 47 L 171.58 81.88 L 171.58 81.88 Z  M 195.1 52.88 L 210.74 62.56 L 210.74 67.12 L 195.14 76.8 L 192.3 72.48 L 205.26 64.84 L 192.3 57.44 L 195.1 52.88 L 195.1 52.88 Z " fill-rule="evenodd" fill="rgb(255,255,255)"/></g></g></svg>