<?xml version="1.0" standalone="no"?><!-- Generator: Gravit.io --><svg xmlns="http://www.w3.org/2000/svg" xmlns:xlink="http://www.w3.org/1999/xlink" style="isolation:isolate" viewBox="0 0 256 128" width="256" height="128"><defs><clipPath id="_clipPath_ljbmNksbp4DE2dbwlpRLKdCzVDiMMXO6"><rect width="256" height="128"/></clipPath></defs><g clip-path="url(#_clipPath_ljbmNksbp4DE2dbwlpRLKdCzVDiMMXO6)"><g opacity="0.75"><path d=" M 175.26 58.92 L 174.5 47.72 L 180.46 47.72 L 179.74 58.92 L 175.26 58.92 L 175.26 58.92 Z  M 204.3 45.04 L 204.3 45.04 Q 205.9 45.04 206.96 46.06 L 206.96 46.06 L 206.96 46.06 Q 208.02 47.08 208.02 48.6 L 208.02 48.6 L 208.02 48.6 Q 208.02 50.12 206.96 51.14 L 206.96 51.14 L 206.96 51.14 Q 205.9 52.16 204.3 52.16 L 204.3 52.16 L 204.3 52.16 Q 202.62 52.16 201.58 51.16 L 201.58 51.16 L 201.58 51.16 Q 200.54 50.16 200.54 48.6 L 200.54 48.6 L 200.54 48.6 Q 200.54 47.08 201.6 46.06 L 201.6 46.06 L 201.6 46.06 Q 202.66 45.04 204.3 45.04 L 204.3 45.04 L 204.3 45.04 Z  M 208.38 56.16 L 208.38 71.24 L 208.38 71.24 Q 208.38 75.76 206.7 78.74 L 206.7 78.74 L 206.7 78.74 Q 205.02 81.72 201.72 83.5 L 201.72 83.5 L 201.72 83.5 Q 198.42 85.28 193.26 86.28 L 193.26 86.28 L 192.3 81.44 L 192.3 81.44 Q 195.7 80.68 197.8 79.56 L 197.8 79.56 L 197.8 79.56 Q 199.9 78.44 200.98 76.54 L 200.98 76.54 L 200.98 76.54 Q 202.06 74.64 202.06 71.64 L 202.06 71.64 L 202.06 60.48 L 194.46 60.48 L 194.46 56.16 L 208.38 56.16 L 208.38 56.16 Z  M 224.82 73.56 L 224.82 73.56 Q 226.46 73.56 227.4 73.06 L 227.4 73.06 L 227.4 73.06 Q 228.34 72.56 228.34 71.56 L 228.34 71.56 L 228.34 71.56 Q 228.34 70.84 227.96 70.4 L 227.96 70.4 L 227.96 70.4 Q 227.58 69.96 226.54 69.54 L 226.54 69.54 L 226.54 69.54 Q 225.5 69.12 223.3 68.52 L 223.3 68.52 L 223.3 68.52 Q 220.1 67.68 218.42 66.18 L 218.42 66.18 L 218.42 66.18 Q 216.74 64.68 216.74 62.04 L 216.74 62.04 L 216.74 62.04 Q 216.74 59.12 219.16 57.28 L 219.16 57.28 L 219.16 57.28 Q 221.58 55.44 225.94 55.44 L 225.94 55.44 L 225.94 55.44 Q 230.98 55.44 234.54 58.04 L 234.54 58.04 L 232.02 61.76 L 232.02 61.76 Q 229.1 59.96 226.14 59.96 L 226.14 59.96 L 226.14 59.96 Q 224.58 59.96 223.84 60.36 L 223.84 60.36 L 223.84 60.36 Q 223.1 60.76 223.1 61.6 L 223.1 61.6 L 223.1 61.6 Q 223.1 62.16 223.48 62.54 L 223.48 62.54 L 223.48 62.54 Q 223.86 62.92 224.92 63.32 L 224.92 63.32 L 224.92 63.32 Q 225.98 63.72 228.1 64.32 L 228.1 64.32 L 228.1 64.32 Q 230.38 64.96 231.84 65.72 L 231.84 65.72 L 231.84 65.72 Q 233.3 66.48 234.1 67.76 L 234.1 67.76 L 234.1 67.76 Q 234.9 69.04 234.9 71.04 L 234.9 71.04 L 234.9 71.04 Q 234.9 73.28 233.54 74.88 L 233.54 74.88 L 233.54 74.88 Q 232.18 76.48 229.9 77.28 L 229.9 77.28 L 229.9 77.28 Q 227.62 78.08 224.86 78.08 L 224.86 78.08 L 224.86 78.08 Q 221.9 78.08 219.5 77.24 L 219.5 77.24 L 219.5 77.24 Q 217.1 76.4 215.42 74.88 L 215.42 74.88 L 218.58 71.32 L 218.58 71.32 Q 221.46 73.56 224.82 73.56 L 224.82 73.56 L 224.82 73.56 Z  M 247.26 58.92 L 246.5 47.72 L 252.46 47.72 L 251.74 58.92 L 247.26 58.92 L 247.26 58.92 Z  M 9.46 45.04 L 9.46 45.04 Q 11.1 45.04 12.14 46.06 L 12.14 46.06 L 12.14 46.06 Q 13.18 47.08 13.18 48.6 L 13.18 48.6 L 13.18 48.6 Q 13.18 50.16 12.14 51.16 L 12.14 51.16 L 12.14 51.16 Q 11.1 52.16 9.46 52.16 L 9.46 52.16 L 9.46 52.16 Q 7.82 52.16 6.76 51.14 L 6.76 51.14 L 6.76 51.14 Q 5.7 50.12 5.7 48.6 L 5.7 48.6 L 5.7 48.6 Q 5.7 47.08 6.76 46.06 L 6.76 46.06 L 6.76 46.06 Q 7.82 45.04 9.46 45.04 L 9.46 45.04 L 9.46 45.04 Z  M 13.26 56.16 L 13.26 73.08 L 18.7 73.08 L 18.7 77.4 L 0.94 77.4 L 0.94 73.08 L 6.94 73.08 L 6.94 60.48 L 1.14 60.48 L 1.14 56.16 L 13.26 56.16 L 13.26 56.16 Z  M 40.02 55.44 L 40.02 55.44 Q 42.3 55.44 43.36 56.94 L 43.36 56.94 L 43.36 56.94 Q 44.42 58.44 44.42 61.68 L 44.42 61.68 L 44.42 77.4 L 39.02 77.4 L 39.02 62.4 L 39.02 62.4 Q 39.02 61.24 38.8 60.8 L 38.8 60.8 L 38.8 60.8 Q 38.58 60.36 37.98 60.36 L 37.98 60.36 L 37.98 60.36 Q 36.86 60.36 35.78 61.76 L 35.78 61.76 L 35.78 77.4 L 31.3 77.4 L 31.3 62.4 L 31.3 62.4 Q 31.3 61.24 31.08 60.8 L 31.08 60.8 L 31.08 60.8 Q 30.86 60.36 30.26 60.36 L 30.26 60.36 L 30.26 60.36 Q 29.14 60.36 28.06 61.76 L 28.06 61.76 L 28.06 77.4 L 22.58 77.4 L 22.58 56.16 L 27.18 56.16 L 27.62 58.2 L 27.62 58.2 Q 28.66 56.76 29.68 56.1 L 29.68 56.1 L 29.68 56.1 Q 30.7 55.44 32.06 55.44 L 32.06 55.44 L 32.06 55.44 Q 33.3 55.44 34.14 56.06 L 34.14 56.06 L 34.14 56.06 Q 34.98 56.68 35.34 57.96 L 35.34 57.96 L 35.34 57.96 Q 37.5 55.44 40.02 55.44 L 40.02 55.44 L 40.02 55.44 Z  M 60.06 55.44 L 60.06 55.44 Q 64.06 55.44 65.94 58.38 L 65.94 58.38 L 65.94 58.38 Q 67.82 61.32 67.82 66.72 L 67.82 66.72 L 67.82 66.72 Q 67.82 70 66.84 72.58 L 66.84 72.58 L 66.84 72.58 Q 65.86 75.16 64.02 76.62 L 64.02 76.62 L 64.02 76.62 Q 62.18 78.08 59.66 78.08 L 59.66 78.08 L 59.66 78.08 Q 56.58 78.08 54.62 75.88 L 54.62 75.88 L 54.62 85.6 L 48.3 86.28 L 48.3 56.16 L 53.9 56.16 L 54.18 58.52 L 54.18 58.52 Q 55.42 56.96 56.96 56.2 L 56.96 56.2 L 56.96 56.2 Q 58.5 55.44 60.06 55.44 L 60.06 55.44 L 60.06 55.44 Z  M 58.1 60.12 L 58.1 60.12 Q 56.1 60.12 54.62 62.6 L 54.62 62.6 L 54.62 71.56 L 54.62 71.56 Q 55.3 72.52 56.04 72.98 L 56.04 72.98 L 56.04 72.98 Q 56.78 73.44 57.74 73.44 L 57.74 73.44 L 57.74 73.44 Q 59.5 73.44 60.4 71.86 L 60.4 71.86 L 60.4 71.86 Q 61.3 70.28 61.3 66.8 L 61.3 66.8 L 61.3 66.8 Q 61.3 63.04 60.5 61.58 L 60.5 61.58 L 60.5 61.58 Q 59.7 60.12 58.1 60.12 L 58.1 60.12 L 58.1 60.12 Z  M 81.5 55.44 L 81.5 55.44 Q 86.34 55.44 89.08 58.5 L 89.08 58.5 L 89.08 58.5 Q 91.82 61.56 91.82 66.72 L 91.82 66.72 L 91.82 66.72 Q 91.82 72.08 89.1 75.08 L 89.1 75.08 L 89.1 75.08 Q 86.38 78.08 81.5 78.08 L 81.5 78.08 L 81.5 78.08 Q 76.62 78.08 73.9 75.1 L 73.9 75.1 L 73.9 75.1 Q 71.18 72.12 71.18 66.76 L 71.18 66.76 L 71.18 66.76 Q 71.18 63.36 72.4 60.82 L 72.4 60.82 L 72.4 60.82 Q 73.62 58.28 75.96 56.86 L 75.96 56.86 L 75.96 56.86 Q 78.3 55.44 81.5 55.44 L 81.5 55.44 L 81.5 55.44 Z  M 81.5 60.12 L 81.5 60.12 Q 79.54 60.12 78.62 61.7 L 78.62 61.7 L 78.62 61.7 Q 77.7 63.28 77.7 66.76 L 77.7 66.76 L 77.7 66.76 Q 77.7 70.28 78.62 71.86 L 78.62 71.86 L 78.62 71.86 Q 79.54 73.44 81.5 73.44 L 81.5 73.44 L 81.5 73.44 Q 83.46 73.44 84.38 71.84 L 84.38 71.84 L 84.38 71.84 Q 85.3 70.24 85.3 66.72 L 85.3 66.72 L 85.3 66.72 Q 85.3 63.28 84.38 61.7 L 84.38 61.7 L 84.38 61.7 Q 83.46 60.12 81.5 60.12 L 81.5 60.12 L 81.5 60.12 Z  M 112.5 55.52 L 112.5 55.52 Q 114.42 55.52 116.02 56.16 L 116.02 56.16 L 114.86 65.04 L 110.86 65.04 L 110.86 61.12 L 110.86 61.12 Q 109.1 61.44 107.74 63.04 L 107.74 63.04 L 107.74 63.04 Q 106.38 64.64 105.62 67.08 L 105.62 67.08 L 105.62 73.16 L 109.82 73.16 L 109.82 77.4 L 96.5 77.4 L 96.5 73.16 L 99.3 73.16 L 99.3 60.36 L 96.5 60.36 L 96.5 56.16 L 104.14 56.16 L 105.26 60.92 L 105.26 60.92 Q 106.42 58.2 108.18 56.86 L 108.18 56.86 L 108.18 56.86 Q 109.94 55.52 112.5 55.52 L 112.5 55.52 L 112.5 55.52 Z  M 139.42 76.16 L 139.42 76.16 Q 136.42 78.08 132.46 78.08 L 132.46 78.08 L 132.46 78.08 Q 128.38 78.08 126.32 76 L 126.32 76 L 126.32 76 Q 124.26 73.92 124.26 70.16 L 124.26 70.16 L 124.26 60.52 L 119.82 60.52 L 119.82 56.16 L 124.26 56.16 L 124.26 51.56 L 130.58 50.8 L 130.58 56.16 L 137.42 56.16 L 136.78 60.52 L 130.58 60.52 L 130.58 70.16 L 130.58 70.16 Q 130.58 71.72 131.3 72.4 L 131.3 72.4 L 131.3 72.4 Q 132.02 73.08 133.62 73.08 L 133.62 73.08 L 133.62 73.08 Q 135.62 73.08 137.34 72.12 L 137.34 72.12 L 139.42 76.16 L 139.42 76.16 Z " fill-rule="evenodd" fill="rgb(255,255,255)"/></g></g></svg>