<?xml version="1.0" standalone="no"?><!-- Generator: Gravit.io --><svg xmlns="http://www.w3.org/2000/svg" xmlns:xlink="http://www.w3.org/1999/xlink" style="isolation:isolate" viewBox="0 0 256 128" width="256" height="128"><defs><clipPath id="_clipPath_TuA9dB4JiN2phnZvwAPv6H5wlJIgWrea"><rect width="256" height="128"/></clipPath></defs><g clip-path="url(#_clipPath_TuA9dB4JiN2phnZvwAPv6H5wlJIgWrea)"><g opacity="0.75"><path d=" M 191.82 48.96 L 191.82 48.96 Q 194.7 48.96 196.78 49.72 L 196.78 49.72 L 196.78 49.72 Q 198.86 50.48 200.7 52 L 200.7 52 L 197.5 55.88 L 197.5 55.88 Q 194.98 53.84 191.98 53.84 L 191.98 53.84 L 191.98 53.84 Q 189.14 53.84 187.4 56.24 L 187.4 56.24 L 187.4 56.24 Q 185.66 58.64 185.66 63.48 L 185.66 63.48 L 185.66 63.48 Q 185.66 68.32 187.38 70.66 L 187.38 70.66 L 187.38 70.66 Q 189.1 73 192.1 73 L 192.1 73 L 192.1 73 Q 193.94 73 195.26 72.36 L 195.26 72.36 L 195.26 72.36 Q 196.58 71.72 198.1 70.52 L 198.1 70.52 L 201.06 74.32 L 201.06 74.32 Q 197.38 78.08 191.74 78.08 L 191.74 78.08 L 191.74 78.08 Q 187.94 78.08 185.04 76.4 L 185.04 76.4 L 185.04 76.4 Q 182.14 74.72 180.5 71.42 L 180.5 71.42 L 180.5 71.42 Q 178.86 68.12 178.86 63.48 L 178.86 63.48 L 178.86 63.48 Q 178.86 58.96 180.54 55.68 L 180.54 55.68 L 180.54 55.68 Q 182.22 52.4 185.18 50.68 L 185.18 50.68 L 185.18 50.68 Q 188.14 48.96 191.82 48.96 L 191.82 48.96 L 191.82 48.96 Z  M 221.14 59.56 L 220.14 67.44 L 222.66 67.44 L 222.66 71.6 L 219.58 71.6 L 218.82 77.4 L 213.62 77.4 L 214.38 71.6 L 210.54 71.6 L 209.78 77.4 L 204.58 77.4 L 205.3 71.6 L 202.9 71.6 L 202.9 67.44 L 205.86 67.44 L 206.9 59.56 L 204.38 59.56 L 204.38 55.36 L 207.46 55.36 L 208.18 49.68 L 213.42 49.68 L 212.66 55.36 L 216.5 55.36 L 217.26 49.68 L 222.46 49.68 L 221.7 55.36 L 224.14 55.36 L 224.14 59.56 L 221.14 59.56 L 221.14 59.56 Z  M 211.06 67.44 L 214.9 67.44 L 215.94 59.56 L 212.1 59.56 L 211.06 67.44 L 211.06 67.44 Z  M 42.62 56.16 L 42.62 70.68 L 42.62 70.68 Q 42.62 72.16 43.16 72.78 L 43.16 72.78 L 43.16 72.78 Q 43.7 73.4 44.78 73.4 L 44.78 73.4 L 44.78 73.4 Q 45.74 73.4 46.74 72.78 L 46.74 72.78 L 46.74 72.78 Q 47.74 72.16 48.38 71.08 L 48.38 71.08 L 48.38 56.16 L 54.7 56.16 L 54.7 77.4 L 49.18 77.4 L 48.9 74.92 L 48.9 74.92 Q 47.86 76.44 46.1 77.26 L 46.1 77.26 L 46.1 77.26 Q 44.34 78.08 42.38 78.08 L 42.38 78.08 L 42.38 78.08 Q 39.38 78.08 37.84 76.34 L 37.84 76.34 L 37.84 76.34 Q 36.3 74.6 36.3 71.48 L 36.3 71.48 L 36.3 56.16 L 42.62 56.16 L 42.62 56.16 Z  M 68.82 73.56 L 68.82 73.56 Q 70.46 73.56 71.4 73.06 L 71.4 73.06 L 71.4 73.06 Q 72.34 72.56 72.34 71.56 L 72.34 71.56 L 72.34 71.56 Q 72.34 70.84 71.96 70.4 L 71.96 70.4 L 71.96 70.4 Q 71.58 69.96 70.54 69.54 L 70.54 69.54 L 70.54 69.54 Q 69.5 69.12 67.3 68.52 L 67.3 68.52 L 67.3 68.52 Q 64.1 67.68 62.42 66.18 L 62.42 66.18 L 62.42 66.18 Q 60.74 64.68 60.74 62.04 L 60.74 62.04 L 60.74 62.04 Q 60.74 59.12 63.16 57.28 L 63.16 57.28 L 63.16 57.28 Q 65.58 55.44 69.94 55.44 L 69.94 55.44 L 69.94 55.44 Q 74.98 55.44 78.54 58.04 L 78.54 58.04 L 76.02 61.76 L 76.02 61.76 Q 73.1 59.96 70.14 59.96 L 70.14 59.96 L 70.14 59.96 Q 68.58 59.96 67.84 60.36 L 67.84 60.36 L 67.84 60.36 Q 67.1 60.76 67.1 61.6 L 67.1 61.6 L 67.1 61.6 Q 67.1 62.16 67.48 62.54 L 67.48 62.54 L 67.48 62.54 Q 67.86 62.92 68.92 63.32 L 68.92 63.32 L 68.92 63.32 Q 69.98 63.72 72.1 64.32 L 72.1 64.32 L 72.1 64.32 Q 74.38 64.96 75.84 65.72 L 75.84 65.72 L 75.84 65.72 Q 77.3 66.48 78.1 67.76 L 78.1 67.76 L 78.1 67.76 Q 78.9 69.04 78.9 71.04 L 78.9 71.04 L 78.9 71.04 Q 78.9 73.28 77.54 74.88 L 77.54 74.88 L 77.54 74.88 Q 76.18 76.48 73.9 77.28 L 73.9 77.28 L 73.9 77.28 Q 71.62 78.08 68.86 78.08 L 68.86 78.08 L 68.86 78.08 Q 65.9 78.08 63.5 77.24 L 63.5 77.24 L 63.5 77.24 Q 61.1 76.4 59.42 74.88 L 59.42 74.88 L 62.58 71.32 L 62.58 71.32 Q 65.46 73.56 68.82 73.56 L 68.82 73.56 L 68.82 73.56 Z  M 93.46 45.04 L 93.46 45.04 Q 95.1 45.04 96.14 46.06 L 96.14 46.06 L 96.14 46.06 Q 97.18 47.08 97.18 48.6 L 97.18 48.6 L 97.18 48.6 Q 97.18 50.16 96.14 51.16 L 96.14 51.16 L 96.14 51.16 Q 95.1 52.16 93.46 52.16 L 93.46 52.16 L 93.46 52.16 Q 91.82 52.16 90.76 51.14 L 90.76 51.14 L 90.76 51.14 Q 89.7 50.12 89.7 48.6 L 89.7 48.6 L 89.7 48.6 Q 89.7 47.08 90.76 46.06 L 90.76 46.06 L 90.76 46.06 Q 91.82 45.04 93.46 45.04 L 93.46 45.04 L 93.46 45.04 Z  M 97.26 56.16 L 97.26 73.08 L 102.7 73.08 L 102.7 77.4 L 84.94 77.4 L 84.94 73.08 L 90.94 73.08 L 90.94 60.48 L 85.14 60.48 L 85.14 56.16 L 97.26 56.16 L 97.26 56.16 Z  M 108.3 77.4 L 108.3 56.16 L 113.82 56.16 L 114.26 58.6 L 114.26 58.6 Q 115.7 57 117.28 56.22 L 117.28 56.22 L 117.28 56.22 Q 118.86 55.44 120.86 55.44 L 120.86 55.44 L 120.86 55.44 Q 123.62 55.44 125.16 57.12 L 125.16 57.12 L 125.16 57.12 Q 126.7 58.8 126.7 61.8 L 126.7 61.8 L 126.7 77.4 L 120.38 77.4 L 120.38 63.64 L 120.38 63.64 Q 120.38 61.64 119.94 60.88 L 119.94 60.88 L 119.94 60.88 Q 119.5 60.12 118.34 60.12 L 118.34 60.12 L 118.34 60.12 Q 117.38 60.12 116.48 60.74 L 116.48 60.74 L 116.48 60.74 Q 115.58 61.36 114.62 62.56 L 114.62 62.56 L 114.62 77.4 L 108.3 77.4 L 108.3 77.4 Z  M 151.18 52.76 L 152.62 57.4 L 152.62 57.4 Q 150.54 58.24 146.5 58.24 L 146.5 58.24 L 146.5 58.24 Q 148.58 59.16 149.6 60.44 L 149.6 60.44 L 149.6 60.44 Q 150.62 61.72 150.62 63.72 L 150.62 63.72 L 150.62 63.72 Q 150.62 65.76 149.5 67.38 L 149.5 67.38 L 149.5 67.38 Q 148.38 69 146.34 69.92 L 146.34 69.92 L 146.34 69.92 Q 144.3 70.84 141.62 70.84 L 141.62 70.84 L 141.62 70.84 Q 140.3 70.84 139.14 70.6 L 139.14 70.6 L 139.14 70.6 Q 138.82 70.76 138.64 71.1 L 138.64 71.1 L 138.64 71.1 Q 138.46 71.44 138.46 71.8 L 138.46 71.8 L 138.46 71.8 Q 138.46 72.4 138.92 72.74 L 138.92 72.74 L 138.92 72.74 Q 139.38 73.08 140.78 73.08 L 140.78 73.08 L 144.3 73.08 L 144.3 73.08 Q 146.7 73.08 148.54 73.88 L 148.54 73.88 L 148.54 73.88 Q 150.38 74.68 151.38 76.08 L 151.38 76.08 L 151.38 76.08 Q 152.38 77.48 152.38 79.24 L 152.38 79.24 L 152.38 79.24 Q 152.38 82.56 149.48 84.42 L 149.48 84.42 L 149.48 84.42 Q 146.58 86.28 141.02 86.28 L 141.02 86.28 L 141.02 86.28 Q 137.06 86.28 134.8 85.46 L 134.8 85.46 L 134.8 85.46 Q 132.54 84.64 131.64 83.16 L 131.64 83.16 L 131.64 83.16 Q 130.74 81.68 130.74 79.44 L 130.74 79.44 L 136.34 79.44 L 136.34 79.44 Q 136.34 80.44 136.72 81 L 136.72 81 L 136.72 81 Q 137.1 81.56 138.14 81.84 L 138.14 81.84 L 138.14 81.84 Q 139.18 82.12 141.18 82.12 L 141.18 82.12 L 141.18 82.12 Q 143.98 82.12 145.04 81.48 L 145.04 81.48 L 145.04 81.48 Q 146.1 80.84 146.1 79.68 L 146.1 79.68 L 146.1 79.68 Q 146.1 78.72 145.32 78.14 L 145.32 78.14 L 145.32 78.14 Q 144.54 77.56 143.02 77.56 L 143.02 77.56 L 139.66 77.56 L 139.66 77.56 Q 136.38 77.56 134.74 76.38 L 134.74 76.38 L 134.74 76.38 Q 133.1 75.2 133.1 73.36 L 133.1 73.36 L 133.1 73.36 Q 133.1 72.16 133.72 71.1 L 133.72 71.1 L 133.72 71.1 Q 134.34 70.04 135.46 69.32 L 135.46 69.32 L 135.46 69.32 Q 133.46 68.24 132.58 66.78 L 132.58 66.78 L 132.58 66.78 Q 131.7 65.32 131.7 63.24 L 131.7 63.24 L 131.7 63.24 Q 131.7 60.88 132.9 59.12 L 132.9 59.12 L 132.9 59.12 Q 134.1 57.36 136.26 56.42 L 136.26 56.42 L 136.26 56.42 Q 138.42 55.48 141.18 55.48 L 141.18 55.48 L 141.18 55.48 Q 144.38 55.56 146.62 54.86 L 146.62 54.86 L 146.62 54.86 Q 148.86 54.16 151.18 52.76 L 151.18 52.76 L 151.18 52.76 Z  M 141.34 59.6 L 141.34 59.6 Q 139.82 59.6 138.96 60.56 L 138.96 60.56 L 138.96 60.56 Q 138.1 61.52 138.1 63.16 L 138.1 63.16 L 138.1 63.16 Q 138.1 64.88 138.98 65.84 L 138.98 65.84 L 138.98 65.84 Q 139.86 66.8 141.34 66.8 L 141.34 66.8 L 141.34 66.8 Q 142.9 66.8 143.74 65.86 L 143.74 65.86 L 143.74 65.86 Q 144.58 64.92 144.58 63.08 L 144.58 63.08 L 144.58 63.08 Q 144.58 59.6 141.34 59.6 L 141.34 59.6 L 141.34 59.6 Z " fill-rule="evenodd" fill="rgb(255,255,255)"/></g></g></svg>