<?xml version="1.0" standalone="no"?><!-- Generator: Gravit.io --><svg xmlns="http://www.w3.org/2000/svg" xmlns:xlink="http://www.w3.org/1999/xlink" style="isolation:isolate" viewBox="0 0 256 128" width="256" height="128"><defs><clipPath id="_clipPath_gD3DOgeNgN338cE50rurPx7ODbXGWlQn"><rect width="256" height="128"/></clipPath></defs><g clip-path="url(#_clipPath_gD3DOgeNgN338cE50rurPx7ODbXGWlQn)"><g opacity="0.75"><path d=" M 230.82 43.8 L 230.82 43.8 Q 235.94 43.8 238.2 45.2 L 238.2 45.2 L 238.2 45.2 Q 240.46 46.6 240.46 49.88 L 240.46 49.88 L 240.46 49.88 Q 240.46 50.28 240.38 51.16 L 240.38 51.16 L 239.78 56.92 L 239.74 57.44 L 239.74 57.44 Q 239.74 60.84 245.3 60.84 L 245.3 60.84 L 245.3 65.96 L 245.3 65.96 Q 239.74 65.96 239.74 69.36 L 239.74 69.36 L 239.78 69.88 L 240.38 75.6 L 240.38 75.6 Q 240.46 76.56 240.46 76.96 L 240.46 76.96 L 240.46 76.96 Q 240.46 80.24 238.18 81.62 L 238.18 81.62 L 238.18 81.62 Q 235.9 83 230.82 83 L 230.82 83 L 230.82 78.6 L 230.82 78.6 Q 232.82 78.6 233.76 78.06 L 233.76 78.06 L 233.76 78.06 Q 234.7 77.52 234.54 76.08 L 234.54 76.08 L 233.94 70.16 L 233.94 70.16 Q 233.9 69.8 233.9 69.16 L 233.9 69.16 L 233.9 69.16 Q 233.9 66.52 235.52 65.18 L 235.52 65.18 L 235.52 65.18 Q 237.14 63.84 240.18 63.4 L 240.18 63.4 L 240.18 63.4 Q 237.02 62.92 235.46 61.64 L 235.46 61.64 L 235.46 61.64 Q 233.9 60.36 233.9 57.72 L 233.9 57.72 L 233.9 57.72 Q 233.9 57 233.94 56.64 L 233.94 56.64 L 234.54 50.72 L 234.54 50.72 Q 234.7 49.32 233.74 48.76 L 233.74 48.76 L 233.74 48.76 Q 232.78 48.2 230.82 48.2 L 230.82 48.2 L 230.82 43.8 L 230.82 43.8 Z  M 196.18 43.8 L 196.18 48.2 L 196.18 48.2 Q 194.18 48.2 193.24 48.74 L 193.24 48.74 L 193.24 48.74 Q 192.3 49.28 192.46 50.72 L 192.46 50.72 L 193.06 56.64 L 193.06 56.64 Q 193.1 57 193.1 57.64 L 193.1 57.64 L 193.1 57.64 Q 193.1 60.28 191.48 61.62 L 191.48 61.62 L 191.48 61.62 Q 189.86 62.96 186.86 63.4 L 186.86 63.4 L 186.86 63.4 Q 190.02 63.88 191.58 65.16 L 191.58 65.16 L 191.58 65.16 Q 193.14 66.44 193.14 69.08 L 193.14 69.08 L 193.14 69.08 Q 193.14 69.36 193.06 70.16 L 193.06 70.16 L 192.46 76.08 L 192.46 76.08 Q 192.3 77.48 193.26 78.04 L 193.26 78.04 L 193.26 78.04 Q 194.22 78.6 196.18 78.6 L 196.18 78.6 L 196.18 83 L 196.18 83 Q 191.06 83 188.8 81.6 L 188.8 81.6 L 188.8 81.6 Q 186.54 80.2 186.54 76.92 L 186.54 76.92 L 186.54 76.92 Q 186.54 76.52 186.62 75.64 L 186.62 75.64 L 187.22 69.88 L 187.26 69.36 L 187.26 69.36 Q 187.26 67.52 185.8 66.74 L 185.8 66.74 L 185.8 66.74 Q 184.34 65.96 181.7 65.96 L 181.7 65.96 L 181.7 60.84 L 181.7 60.84 Q 187.26 60.84 187.26 57.44 L 187.26 57.44 L 187.22 56.92 L 186.62 51.2 L 186.62 51.2 Q 186.54 50.24 186.54 49.84 L 186.54 49.84 L 186.54 49.84 Q 186.54 46.56 188.82 45.18 L 188.82 45.18 L 188.82 45.18 Q 191.1 43.8 196.18 43.8 L 196.18 43.8 L 196.18 43.8 Z  M 17.06 73.6 L 17.06 73.6 Q 17.06 71.8 18.36 70.48 L 18.36 70.48 L 18.36 70.48 Q 19.66 69.16 21.5 69.16 L 21.5 69.16 L 21.5 69.16 Q 23.34 69.16 24.64 70.48 L 24.64 70.48 L 24.64 70.48 Q 25.94 71.8 25.94 73.6 L 25.94 73.6 L 25.94 73.6 Q 25.94 75.44 24.64 76.76 L 24.64 76.76 L 24.64 76.76 Q 23.34 78.08 21.5 78.08 L 21.5 78.08 L 21.5 78.08 Q 19.66 78.08 18.36 76.76 L 18.36 76.76 L 18.36 76.76 Q 17.06 75.44 17.06 73.6 L 17.06 73.6 L 17.06 73.6 Z  M 44.82 73.56 L 44.82 73.56 Q 46.46 73.56 47.4 73.06 L 47.4 73.06 L 47.4 73.06 Q 48.34 72.56 48.34 71.56 L 48.34 71.56 L 48.34 71.56 Q 48.34 70.84 47.96 70.4 L 47.96 70.4 L 47.96 70.4 Q 47.58 69.96 46.54 69.54 L 46.54 69.54 L 46.54 69.54 Q 45.5 69.12 43.3 68.52 L 43.3 68.52 L 43.3 68.52 Q 40.1 67.68 38.42 66.18 L 38.42 66.18 L 38.42 66.18 Q 36.74 64.68 36.74 62.04 L 36.74 62.04 L 36.74 62.04 Q 36.74 59.12 39.16 57.28 L 39.16 57.28 L 39.16 57.28 Q 41.58 55.44 45.94 55.44 L 45.94 55.44 L 45.94 55.44 Q 50.98 55.44 54.54 58.04 L 54.54 58.04 L 52.02 61.76 L 52.02 61.76 Q 49.1 59.96 46.14 59.96 L 46.14 59.96 L 46.14 59.96 Q 44.58 59.96 43.84 60.36 L 43.84 60.36 L 43.84 60.36 Q 43.1 60.76 43.1 61.6 L 43.1 61.6 L 43.1 61.6 Q 43.1 62.16 43.48 62.54 L 43.48 62.54 L 43.48 62.54 Q 43.86 62.92 44.92 63.32 L 44.92 63.32 L 44.92 63.32 Q 45.98 63.72 48.1 64.32 L 48.1 64.32 L 48.1 64.32 Q 50.38 64.96 51.84 65.72 L 51.84 65.72 L 51.84 65.72 Q 53.3 66.48 54.1 67.76 L 54.1 67.76 L 54.1 67.76 Q 54.9 69.04 54.9 71.04 L 54.9 71.04 L 54.9 71.04 Q 54.9 73.28 53.54 74.88 L 53.54 74.88 L 53.54 74.88 Q 52.18 76.48 49.9 77.28 L 49.9 77.28 L 49.9 77.28 Q 47.62 78.08 44.86 78.08 L 44.86 78.08 L 44.86 78.08 Q 41.9 78.08 39.5 77.24 L 39.5 77.24 L 39.5 77.24 Q 37.1 76.4 35.42 74.88 L 35.42 74.88 L 38.58 71.32 L 38.58 71.32 Q 41.46 73.56 44.82 73.56 L 44.82 73.56 L 44.82 73.56 Z  M 79.42 76.16 L 79.42 76.16 Q 76.42 78.08 72.46 78.08 L 72.46 78.08 L 72.46 78.08 Q 68.38 78.08 66.32 76 L 66.32 76 L 66.32 76 Q 64.26 73.92 64.26 70.16 L 64.26 70.16 L 64.26 60.52 L 59.82 60.52 L 59.82 56.16 L 64.26 56.16 L 64.26 51.56 L 70.58 50.8 L 70.58 56.16 L 77.42 56.16 L 76.78 60.52 L 70.58 60.52 L 70.58 70.16 L 70.58 70.16 Q 70.58 71.72 71.3 72.4 L 71.3 72.4 L 71.3 72.4 Q 72.02 73.08 73.62 73.08 L 73.62 73.08 L 73.62 73.08 Q 75.62 73.08 77.34 72.12 L 77.34 72.12 L 79.42 76.16 L 79.42 76.16 Z  M 104.38 56.16 L 97.3 77.4 L 97.3 77.4 Q 95.86 81.68 93.02 83.86 L 93.02 83.86 L 93.02 83.86 Q 90.18 86.04 85.42 86.32 L 85.42 86.32 L 84.7 81.84 L 84.7 81.84 Q 87.74 81.44 89.2 80.48 L 89.2 80.48 L 89.2 80.48 Q 90.66 79.52 91.54 77.4 L 91.54 77.4 L 89.34 77.4 L 82.62 56.16 L 89.3 56.16 L 93.42 73.36 L 97.9 56.16 L 104.38 56.16 L 104.38 56.16 Z  M 119.38 47.72 L 119.38 70.72 L 119.38 70.72 Q 119.38 73.08 122.1 73.08 L 122.1 73.08 L 122.1 73.08 Q 123.58 73.08 125.14 72.44 L 125.14 72.44 L 126.62 76.68 L 126.62 76.68 Q 124.06 78.08 120.5 78.08 L 120.5 78.08 L 120.5 78.08 Q 116.78 78.08 114.92 75.94 L 114.92 75.94 L 114.92 75.94 Q 113.06 73.8 113.06 69.92 L 113.06 69.92 L 113.06 52.04 L 106.82 52.04 L 106.82 47.72 L 119.38 47.72 L 119.38 47.72 Z  M 137.78 68.64 L 137.78 68.64 Q 138.38 73.48 142.9 73.48 L 142.9 73.48 L 142.9 73.48 Q 145.62 73.48 148.34 71.72 L 148.34 71.72 L 150.86 75.16 L 150.86 75.16 Q 149.3 76.52 147.14 77.3 L 147.14 77.3 L 147.14 77.3 Q 144.98 78.08 142.38 78.08 L 142.38 78.08 L 142.38 78.08 Q 138.82 78.08 136.34 76.66 L 136.34 76.66 L 136.34 76.66 Q 133.86 75.24 132.6 72.7 L 132.6 72.7 L 132.6 72.7 Q 131.34 70.16 131.34 66.8 L 131.34 66.8 L 131.34 66.8 Q 131.34 63.6 132.56 61.02 L 132.56 61.02 L 132.56 61.02 Q 133.78 58.44 136.12 56.94 L 136.12 56.94 L 136.12 56.94 Q 138.46 55.44 141.7 55.44 L 141.7 55.44 L 141.7 55.44 Q 144.74 55.44 146.98 56.74 L 146.98 56.74 L 146.98 56.74 Q 149.22 58.04 150.44 60.5 L 150.44 60.5 L 150.44 60.5 Q 151.66 62.96 151.66 66.36 L 151.66 66.36 L 151.66 66.36 Q 151.66 67.68 151.54 68.64 L 151.54 68.64 L 137.78 68.64 L 137.78 68.64 Z  M 141.7 59.68 L 141.7 59.68 Q 139.98 59.68 138.94 60.94 L 138.94 60.94 L 138.94 60.94 Q 137.9 62.2 137.7 64.8 L 137.7 64.8 L 145.5 64.8 L 145.5 64.8 Q 145.42 59.68 141.7 59.68 L 141.7 59.68 L 141.7 59.68 Z " fill-rule="evenodd" fill="rgb(255,255,255)"/></g></g></svg>