<?xml version="1.0" standalone="no"?><!-- Generator: Gravit.io --><svg xmlns="http://www.w3.org/2000/svg" xmlns:xlink="http://www.w3.org/1999/xlink" style="isolation:isolate" viewBox="0 0 20 20" width="20" height="20"><defs><clipPath id="_clipPath_vY4gMbgM3AMzuqBCsg1nkspiW0i6HTLZ"><rect width="20" height="20"/></clipPath></defs><g clip-path="url(#_clipPath_vY4gMbgM3AMzuqBCsg1nkspiW0i6HTLZ)"><clipPath id="_clipPath_9uHqeXMDnhDvfhNF19jbq7dS6yE8PdlA"><rect x="0" y="0" width="20" height="20" transform="matrix(1,0,0,1,0,0)" fill="rgb(255,255,255)"/></clipPath><g clip-path="url(#_clipPath_9uHqeXMDnhDvfhNF19jbq7dS6yE8PdlA)"><g><clipPath id="_clipPath_49ikz1ri2FZJ0GQafWPBUShJiKe8bgYy"><rect x="0" y="0" width="20" height="20" transform="matrix(1,0,0,1,0,0)" fill="rgb(255,255,255)"/></clipPath><g clip-path="url(#_clipPath_49ikz1ri2FZJ0GQafWPBUShJiKe8bgYy)"><g><g><clipPath id="_clipPath_Q7JG5CkyL0kNkc3RyIc8NMfandpx66wX"><rect x="0" y="0" width="20" height="20" transform="matrix(1,0,0,1,0,0)" fill="rgb(255,255,255)"/></clipPath><g clip-path="url(#_clipPath_Q7JG5CkyL0kNkc3RyIc8NMfandpx66wX)"><g><g><g><path d=" M 9.93 6.859 C 7.374 6.491 4.545 6.13 2.115 2.792 Q 0.814 6.371 3.621 7.996 Q 2.404 7.666 1.625 7.455 Q 1.687 10.433 5.019 11.156 Q 3.847 11.156 3.096 11.156 Q 3.221 13.141 6.579 13.864 L 1.625 15.827 C 8.938 19.099 17.874 16.541 16.95 6.859 L 18.822 4.476 L 17.107 4.747 L 18.394 2.659 Q 17.016 3.163 16.265 3.428 C 13.12 0.444 8.216 3.513 9.93 6.859 Z " fill="none" vector-effect="non-scaling-stroke" stroke-width="1.4" stroke="rgb(40,163,95)" stroke-opacity="1000000" stroke-linejoin="round" stroke-linecap="round" stroke-miterlimit="3"/></g></g></g></g></g></g></g></g></g></g></svg>