<?xml version="1.0" standalone="no"?><!-- Generator: Gravit.io --><svg xmlns="http://www.w3.org/2000/svg" xmlns:xlink="http://www.w3.org/1999/xlink" style="isolation:isolate" viewBox="0 0 20 20" width="20" height="20"><defs><clipPath id="_clipPath_UzJNo5zrDqdJFf33M7plSqvEPGPENYc4"><rect width="20" height="20"/></clipPath></defs><g clip-path="url(#_clipPath_UzJNo5zrDqdJFf33M7plSqvEPGPENYc4)"><path d=" M 9.111 6.667 L 7.222 2.889 L 3.444 2.889 L 5.333 6.667 L 2.5 11.389 L 6.278 11.389 L 9.111 6.667 Z " fill="none" vector-effect="non-scaling-stroke" stroke-width="1.4" stroke="rgb(255,255,255)" stroke-linejoin="round" stroke-linecap="square" stroke-miterlimit="3"/><path d=" M 14.722 1 L 9.056 10.444 L 12.833 17.056 L 16.611 17.056 L 12.833 10.444 L 18.5 1 L 14.722 1 Z " fill="none" vector-effect="non-scaling-stroke" stroke-width="1.4" stroke="rgb(255,255,255)" stroke-linejoin="round" stroke-linecap="square" stroke-miterlimit="3"/><clipPath id="_clipPath_Sq8DcCYdWxPRlxyhFmPrMFZN8KdBMfHY"><rect x="39.562" y="7.219" width="20" height="20" transform="matrix(1,0,0,1,0,0)" fill="rgb(255,255,255)"/></clipPath><g clip-path="url(#_clipPath_Sq8DcCYdWxPRlxyhFmPrMFZN8KdBMfHY)"><g><path d=" M 49.288 12.563 C 46.895 12.219 44.248 11.881 41.973 8.757 Q 40.756 12.106 43.383 13.627 Q 42.244 13.318 41.515 13.121 Q 41.573 15.908 44.691 16.584 Q 43.594 16.584 42.892 16.584 Q 43.009 18.442 46.151 19.118 L 41.515 20.956 C 48.359 24.018 56.722 21.624 55.857 12.563 L 57.609 10.332 L 56.004 10.586 L 57.209 8.632 Q 55.919 9.104 55.216 9.352 C 52.273 6.559 47.683 9.431 49.288 12.563 Z " fill="none" vector-effect="non-scaling-stroke" stroke-width="1.4" stroke="rgb(255,255,255)" stroke-opacity="100" stroke-linejoin="round" stroke-linecap="round" stroke-miterlimit="3"/></g></g></g></svg>