<?xml version="1.0" standalone="no"?><!-- Generator: Gravit.io --><svg xmlns="http://www.w3.org/2000/svg" xmlns:xlink="http://www.w3.org/1999/xlink" style="isolation:isolate" viewBox="0 0 20 20" width="20" height="20"><defs><clipPath id="_clipPath_Gcqi6bdx6HxzUWSHQ39zEjl516GMG6pQ"><rect width="20" height="20"/></clipPath></defs><g clip-path="url(#_clipPath_Gcqi6bdx6HxzUWSHQ39zEjl516GMG6pQ)"><clipPath id="_clipPath_F0QEbHrLNuAbqJlTfrPZiznaOFHz6md5"><rect x="0" y="0" width="20" height="20" transform="matrix(1,0,0,1,0,0)" fill="rgb(255,255,255)"/></clipPath><g clip-path="url(#_clipPath_F0QEbHrLNuAbqJlTfrPZiznaOFHz6md5)"><g><path d=" M 8.611 7.611 L 6.722 3.833 L 2.944 3.833 L 4.833 7.611 L 2 12.333 L 5.778 12.333 L 8.611 7.611 Z " fill="none" vector-effect="non-scaling-stroke" stroke-width="1.4" stroke="rgb(255,255,255)" stroke-opacity="100" stroke-linejoin="round" stroke-linecap="square" stroke-miterlimit="3"/><path d=" M 14.222 1.944 L 8.556 11.388 L 12.333 18 L 16.111 18 L 12.333 11.388 L 18 1.944 L 14.222 1.944 Z " fill="none" vector-effect="non-scaling-stroke" stroke-width="1.4" stroke="rgb(255,255,255)" stroke-opacity="100" stroke-linejoin="round" stroke-linecap="square" stroke-miterlimit="3"/><clipPath id="_clipPath_6T00D3fkEIqtZl3pr9lupVyOfrjaBFzU"><rect x="39.562" y="7.219" width="20" height="20" transform="matrix(1,0,0,1,0,0)" fill="rgb(255,255,255)"/></clipPath><g clip-path="url(#_clipPath_6T00D3fkEIqtZl3pr9lupVyOfrjaBFzU)"><g><g><path d=" M 49.288 12.563 C 46.895 12.219 44.248 11.881 41.973 8.757 Q 40.756 12.106 43.383 13.627 Q 42.244 13.318 41.515 13.121 Q 41.573 15.908 44.691 16.584 Q 43.594 16.584 42.892 16.584 Q 43.009 18.442 46.151 19.118 L 41.515 20.956 C 48.359 24.018 56.722 21.624 55.857 12.563 L 57.609 10.332 L 56.004 10.586 L 57.209 8.632 Q 55.919 9.104 55.216 9.352 C 52.273 6.559 47.683 9.431 49.288 12.563 Z " fill="none" vector-effect="non-scaling-stroke" stroke-width="1.4" stroke="rgb(255,255,255)" stroke-opacity="10000" stroke-linejoin="round" stroke-linecap="round" stroke-miterlimit="3"/></g></g></g></g></g></g></svg>