<?xml version="1.0" encoding="UTF-8" standalone="no"?>
<!DOCTYPE svg PUBLIC "-//W3C//DTD SVG 1.1//EN" "http://www.w3.org/Graphics/SVG/1.1/DTD/svg11.dtd">
<svg width="100%" height="100%" viewBox="0 0 24 24" version="1.1" xmlns="http://www.w3.org/2000/svg" xmlns:xlink="http://www.w3.org/1999/xlink" xml:space="preserve" xmlns:serif="http://www.serif.com/" style="fill-rule:evenodd;clip-rule:evenodd;stroke-linecap:round;stroke-linejoin:round;">
    <g transform="matrix(1,0,0,1,-0.278261,-0.289855)">
        <path d="M8.25,21L8.25,16.125C8.25,15.504 8.754,15 9.375,15L11.625,15C12.246,15 12.75,15.504 12.75,16.125L12.75,21M12.75,21L17.25,21L17.25,3.545M12.75,21L20.25,21L20.25,10.75M2.25,21L3.75,21M21.75,21L3.75,21M2.25,9L6.75,7.364M18.75,3L17.25,3.545M17.25,9.75L20.25,10.75M21.75,11.25L20.25,10.75M6.75,7.364L6.75,3L3.75,3L3.75,21M6.75,7.364L17.25,3.545" style="fill:none;fill-rule:nonzero;stroke:white;stroke-width:1.5px;"/>
    </g>
</svg>
