<?xml version="1.0" encoding="UTF-8" standalone="no"?>
<!DOCTYPE svg PUBLIC "-//W3C//DTD SVG 1.1//EN" "http://www.w3.org/Graphics/SVG/1.1/DTD/svg11.dtd">
<svg width="100%" height="100%" viewBox="0 0 24 24" version="1.1" xmlns="http://www.w3.org/2000/svg" xmlns:xlink="http://www.w3.org/1999/xlink" xml:space="preserve" xmlns:serif="http://www.serif.com/" style="fill-rule:evenodd;clip-rule:evenodd;stroke-linecap:round;">
    <g transform="matrix(1,0,0,1,-0.278261,-0.289933)">
        <path d="M16.5,12C16.5,14.469 14.469,16.5 12,16.5C9.531,16.5 7.5,14.469 7.5,12C7.5,9.531 9.531,7.5 12,7.5C14.469,7.5 16.5,9.531 16.5,12ZM16.5,12C16.5,13.657 17.507,15 18.75,15C19.993,15 21,13.657 21,12C21,7.063 16.937,3 12,3C7.063,3 3,7.063 3,12C3,16.937 7.063,21 12,21C14.386,21 16.677,20.051 18.364,18.364M16.5,12L16.5,8.25" style="fill:none;fill-rule:nonzero;stroke:white;stroke-width:1.5px;"/>
    </g>
</svg>
