<?xml version="1.0" encoding="UTF-8" standalone="no"?>
<!DOCTYPE svg PUBLIC "-//W3C//DTD SVG 1.1//EN" "http://www.w3.org/Graphics/SVG/1.1/DTD/svg11.dtd">
<svg width="100%" height="100%" viewBox="0 0 566 800" version="1.1" xmlns="http://www.w3.org/2000/svg" xmlns:xlink="http://www.w3.org/1999/xlink" xml:space="preserve" xmlns:serif="http://www.serif.com/" style="fill-rule:evenodd;clip-rule:evenodd;stroke-linejoin:round;stroke-miterlimit:2;">
    <g transform="matrix(0.1,0,0,-0.1,0,800)">
        <g transform="matrix(1.1343,0,0,1.1343,-386.013,-426.867)">
            <path d="M2095,7416C2014,7381 1946,7240 1906,7025C1891,6940 1874,6772 1882,6780C1885,6783 1895,6832 1905,6889C1939,7095 2009,7286 2074,7349C2132,7405 2214,7403 2318,7342L2362,7317L2331,7293C2295,7264 2293,7244 2315,7131C2324,7089 2337,6994 2345,6920L2359,6785L2355,6965C2353,7064 2346,7163 2340,7184C2324,7236 2338,7266 2382,7278C2431,7290 2428,7314 2373,7354C2279,7422 2167,7447 2095,7416Z" style="fill:rgb(203,153,24);fill-rule:nonzero;stroke:rgb(203,153,24);stroke-width:17.08px;"/>
        </g>
        <g transform="matrix(1.1343,0,0,1.1343,-386.013,-426.867)">
            <clipPath id="_clip1">
                <rect x="612.15" y="313.53" width="4325.82" height="7006.99"/>
            </clipPath>
            <g clip-path="url(#_clip1)">
                <path d="M3548,7298C3540,7285 3519,7237 3500,7190C3482,7143 3457,7085 3444,7060C3389,6949 3247,6868 2990,6800C2873,6770 2853,6761 2798,6717C2765,6690 2758,6688 2733,6699C2711,6708 2695,6732 2657,6813C2590,6956 2562,6995 2525,6995C2498,6995 2492,6988 2460,6924C2441,6886 2411,6836 2394,6814C2377,6793 2358,6765 2352,6753C2345,6740 2320,6725 2288,6714C2222,6693 2148,6657 2091,6617C2062,6597 2045,6591 2042,6598C2030,6636 1968,6710 1921,6742C1891,6763 1802,6805 1722,6836C1642,6867 1556,6905 1531,6919C1473,6951 1406,7018 1353,7095C1252,7244 1157,7275 1174,7154C1183,7086 1226,7015 1302,6945C1386,6868 1497,6810 1715,6732L1875,6675L1871,6585C1870,6535 1873,6475 1880,6451C1890,6411 1889,6402 1866,6350C1831,6273 1796,6122 1760,5895C1744,5791 1723,5680 1714,5650C1706,5620 1696,5539 1693,5470C1687,5329 1701,5246 1746,5158C1776,5099 1853,5019 1900,5000C1928,4989 1931,4983 1928,4951L1925,4915L1855,4907C1736,4894 1580,4852 1495,4812C1392,4762 1297,4685 1134,4519C898,4277 737,4051 681,3883C660,3821 655,3733 669,3696C674,3682 667,3658 648,3621C610,3545 602,3502 625,3494C635,3490 656,3492 671,3497C696,3507 700,3506 700,3492C700,3482 705,3468 710,3460C718,3448 727,3453 765,3490L810,3534L810,3495C810,3444 830,3406 857,3402C880,3399 925,3451 949,3508C960,3534 967,3537 1058,3552C1288,3589 1405,3674 1590,3940C1700,4097 1753,4166 1747,4145C1743,4134 1721,4058 1696,3975C1640,3787 1605,3618 1589,3470L1577,3355L1497,3270C1234,2992 1116,2714 1133,2416C1144,2221 1210,2067 1335,1945C1443,1839 1571,1773 1711,1752C1760,1745 1765,1742 1762,1720C1759,1691 1722,1629 1610,1470C1441,1228 1376,1102 1380,1020C1383,929 1382,872 1375,735C1368,609 1369,593 1384,581C1399,568 1406,569 1436,585C1455,595 1494,629 1524,660L1578,716L1585,635C1596,499 1622,474 1689,535C1718,562 1812,687 1826,718C1827,719 1834,718 1842,715C1853,711 1860,688 1864,640C1871,574 1887,540 1911,540C1972,540 2198,773 2268,908C2324,1015 2375,1170 2400,1312C2423,1442 2458,1554 2516,1679L2554,1762L2609,1756C2899,1723 3245,1751 3470,1826C3555,1855 3663,1907 3725,1950C3773,1983 3780,1985 3780,1969C3780,1945 3842,1829 3881,1780C3916,1736 3920,1724 3914,1697C3911,1679 3865,1539 3812,1385C3729,1141 3717,1094 3712,1020C3709,956 3712,926 3724,897C3741,855 3768,851 3761,891C3759,904 3757,958 3757,1010C3756,1104 3757,1107 3853,1390C3907,1547 3952,1681 3955,1688C3959,1698 3964,1698 3981,1690C3995,1682 4006,1682 4012,1688C4019,1695 3998,1721 3952,1766C3909,1809 3871,1858 3853,1895C3802,1996 3803,2001 3861,2078C3951,2194 3968,2259 3948,2405C3938,2481 3880,2615 3811,2725C3738,2841 3621,3085 3518,3340C3490,3409 3399,3618 3315,3805C3231,3992 3157,4163 3150,4185C3143,4207 3109,4293 3075,4375C3001,4550 2932,4752 2923,4817C2917,4860 2810,5092 2776,5135C2767,5146 2787,5099 2820,5030C2876,4911 2910,4812 2910,4764C2910,4726 2765,4678 2602,4661C2437,4644 2217,4680 2062,4751L1999,4779L2005,4827C2008,4853 2013,4889 2016,4905C2019,4928 2018,4931 2011,4915C1999,4886 1973,4733 1956,4590C1943,4484 1934,4448 1896,4355C1841,4224 1835,4195 1771,3790C1743,3616 1703,3400 1681,3310C1659,3219 1638,3125 1634,3100C1626,3057 1625,3060 1619,3145C1598,3402 1655,3747 1776,4101C1884,4417 1921,4563 1949,4780C1955,4827 1962,4879 1964,4895C1966,4912 1969,4934 1969,4945C1970,4964 1977,4965 2123,4966C2245,4967 2290,4971 2353,4988C2449,5014 2576,5073 2661,5131C2782,5212 2940,5391 2909,5411C2888,5424 2887,5423 2860,5379C2823,5319 2674,5181 2594,5134C2504,5081 2393,5036 2304,5016C2210,4995 2072,4986 2040,4998C2022,5005 2045,5008 2135,5013C2277,5019 2358,5041 2487,5105C2585,5155 2681,5234 2731,5307C2772,5366 2763,5371 2717,5315C2554,5121 2113,4981 1909,5059C1845,5084 1811,5116 1777,5185C1718,5306 1710,5459 1754,5650C1768,5713 1782,5775 1785,5787C1789,5803 1799,5810 1822,5812C1866,5816 1895,5861 1910,5948C1927,6042 1920,6205 1897,6252C1879,6288 1879,6288 1906,6342C1945,6421 2000,6492 2016,6486C2044,6475 2010,6565 1963,6627C1930,6672 1874,6702 1708,6766C1463,6860 1333,6943 1262,7050C1225,7105 1202,7165 1213,7176C1225,7189 1256,7159 1318,7076C1435,6920 1485,6885 1686,6817C1758,6792 1840,6760 1869,6746C1961,6699 2024,6628 2051,6540C2055,6525 2059,6522 2059,6532C2060,6556 2199,6644 2270,6666C2306,6678 2333,6693 2339,6705C2344,6716 2374,6754 2405,6789C2436,6824 2475,6877 2492,6907C2517,6952 2525,6959 2537,6948C2552,6936 2680,6684 2680,6667C2680,6661 2630,6660 2553,6663L2425,6669L2510,6650C2622,6625 2696,6624 2709,6647C2714,6657 2722,6662 2725,6658C2729,6654 2712,6620 2687,6583C2644,6518 2586,6410 2593,6410C2595,6410 2620,6448 2649,6495C2709,6594 2808,6703 2859,6729C2879,6739 2929,6755 2970,6764C3156,6806 3291,6860 3389,6931L3445,6971L3395,6926C3329,6866 3231,6818 3086,6774C2929,6727 2889,6707 2818,6642C2758,6586 2726,6545 2676,6458C2638,6392 2649,6398 2695,6468C2751,6553 2799,6610 2816,6610C2824,6610 2859,6581 2894,6547C2987,6453 3049,6338 3086,6190C3112,6084 3116,5780 3095,5531L3077,5322L3160,5164C3230,5028 3299,4912 3373,4799C3390,4774 3390,4772 3373,4765C3356,4759 3356,4758 3374,4744C3385,4736 3415,4730 3441,4730C3557,4730 3828,4668 3970,4610C4378,4442 4790,3927 4790,3586C4790,3526 4767,3460 4745,3453C4739,3451 4726,3466 4716,3485C4701,3512 4691,3520 4669,3520C4638,3520 4600,3480 4600,3446C4600,3428 4603,3430 4620,3457C4652,3510 4670,3500 4718,3405C4741,3358 4757,3320 4752,3320C4748,3320 4723,3334 4695,3350C4661,3370 4631,3380 4604,3380C4568,3380 4561,3383 4556,3405C4550,3428 4546,3430 4492,3429C4461,3428 4446,3426 4460,3423C4533,3412 4530,3416 4523,3342C4520,3305 4516,3273 4513,3271C4511,3268 4495,3281 4477,3298C4459,3316 4438,3330 4430,3330C4418,3330 4418,3332 4428,3338C4450,3353 4410,3377 4335,3395C4239,3419 4132,3470 4081,3515C4050,3543 4019,3592 3964,3701C3850,3927 3785,4004 3655,4068C3592,4099 3492,4127 3425,4132C3394,4134 3385,4131 3382,4118C3380,4105 3389,4100 3427,4095C3514,4083 3622,4047 3679,4010C3775,3948 3827,3879 3924,3691C3988,3566 4022,3511 4050,3487C4099,3445 4206,3386 4298,3349C4538,3253 4679,3073 4754,2767C4827,2472 4803,2195 4683,1950C4646,1874 4622,1841 4558,1777C4503,1722 4482,1694 4489,1687C4501,1675 4568,1718 4606,1763C4620,1779 4632,1791 4635,1789C4640,1783 4658,1448 4665,1225C4672,1030 4661,870 4639,844C4629,832 4624,832 4608,850C4593,866 4577,870 4527,870C4493,870 4459,866 4452,861C4444,856 4458,855 4487,857C4513,860 4548,857 4564,851C4588,841 4591,836 4586,812C4576,772 4464,550 4436,515C4403,475 4393,487 4373,589C4364,633 4355,669 4353,667C4345,658 4369,489 4380,475C4412,436 4464,476 4525,584C4543,617 4569,672 4581,705C4596,744 4618,779 4646,805C4683,840 4689,852 4696,905C4704,973 4694,1543 4681,1725L4672,1845L4711,1915C4843,2157 4869,2504 4780,2830C4751,2934 4661,3115 4606,3177C4563,3224 4560,3232 4560,3283L4560,3337L4611,3344C4658,3350 4665,3349 4703,3318C4755,3276 4848,3210 4855,3210C4858,3210 4838,3255 4810,3309C4749,3433 4753,3442 4860,3409C4899,3397 4934,3391 4937,3394C4946,3402 4890,3471 4854,3495C4826,3514 4825,3518 4828,3578C4837,3774 4673,4090 4438,4327C4190,4579 3912,4712 3531,4761L3438,4773L3365,4884C3325,4945 3253,5069 3205,5160L3118,5325L3135,5553C3157,5832 3151,6068 3120,6205C3109,6256 3080,6335 3054,6388C3017,6464 2993,6498 2929,6563C2855,6638 2850,6645 2867,6658C2909,6690 2968,6712 3092,6746C3271,6793 3357,6837 3446,6925C3546,7024 3620,7168 3620,7265C3620,7320 3575,7340 3548,7298ZM3560,7176C3542,7120 3469,6990 3456,6990C3453,6990 3462,7009 3474,7033C3487,7056 3515,7117 3536,7169C3578,7273 3594,7277 3560,7176ZM1985,6569C1998,6545 1996,6540 1957,6492C1934,6464 1915,6442 1914,6443C1913,6444 1910,6494 1907,6553L1902,6662L1937,6628C1956,6610 1978,6583 1985,6569ZM1890,6178C1890,6133 1888,6130 1865,6130C1851,6130 1840,6133 1840,6138C1840,6146 1858,6216 1866,6240C1875,6267 1890,6229 1890,6178ZM1916,4818C1897,4666 1853,4460 1813,4338L1769,4200L1740,4215C1688,4242 1590,4231 1590,4198C1590,4194 1619,4190 1655,4190C1691,4190 1720,4188 1720,4185C1720,4182 1711,4169 1699,4157C1687,4145 1655,4101 1627,4060C1463,3815 1354,3700 1238,3645C1085,3572 913,3561 802,3617C721,3658 705,3684 705,3778C706,3845 710,3865 742,3932C876,4216 1281,4665 1503,4774C1609,4826 1767,4865 1884,4869L1923,4870L1916,4818ZM2132,4696C2261,4637 2326,4625 2505,4625C2681,4625 2743,4638 2859,4701C2889,4717 2915,4729 2916,4727C2918,4725 2939,4661 2964,4585C2988,4508 3013,4433 3019,4418C3029,4391 3028,4389 2962,4356C2683,4216 2364,4219 2050,4366C1972,4402 1960,4405 1985,4384C2034,4343 2209,4263 2299,4241C2535,4183 2777,4219 2969,4340C3004,4363 3034,4380 3035,4378C3041,4372 3110,4196 3110,4187C3110,4175 3156,4058 3192,3980C3209,3944 3246,3861 3275,3795C3304,3729 3354,3619 3385,3550C3416,3481 3450,3403 3460,3375C3514,3221 3693,2855 3780,2720C3899,2536 3940,2424 3940,2286C3940,2210 3910,2136 3883,2144C3870,2147 3854,2134 3827,2099C3683,1911 3367,1797 2945,1783C2687,1774 2488,1804 2308,1879C2245,1906 2115,1979 2130,1980C2133,1980 2188,1966 2254,1950C2447,1901 2586,1887 2805,1893C3095,1902 3246,1940 3510,2072C3662,2148 3841,2269 3900,2335C3918,2356 3908,2351 3865,2318C3603,2121 3267,1980 2960,1939C2693,1904 2191,1950 2073,2022C2032,2046 1931,2156 1885,2226C1830,2309 1831,2316 1891,2277C2134,2122 2445,2039 2730,2053C2869,2060 3066,2098 3208,2145C3447,2225 3745,2390 3840,2496L3865,2524L3835,2501C3592,2320 3259,2177 2930,2115C2813,2093 2595,2085 2485,2099C2286,2125 2042,2205 1884,2298C1819,2336 1811,2344 1785,2402C1711,2565 1640,2845 1640,2966C1640,3027 1664,3143 1700,3265C1711,3304 1722,3344 1725,3354C1727,3364 1734,3387 1739,3404C1758,3462 1844,3955 1856,4070C1865,4160 1887,4241 1931,4351C1968,4444 1973,4468 1981,4580C1986,4649 1992,4720 1995,4738L2001,4771L2030,4750C2047,4738 2092,4714 2132,4696ZM750,3590C750,3580 669,3537 663,3543C660,3546 666,3572 675,3600L692,3652L721,3624C737,3609 750,3593 750,3590ZM784,3568C758,3525 725,3492 718,3503C714,3510 724,3528 742,3547C774,3580 798,3592 784,3568ZM927,3542C949,3535 949,3534 909,3487C887,3461 864,3442 859,3446C854,3449 850,3473 850,3501C850,3548 851,3550 878,3549C893,3548 915,3545 927,3542ZM4850,3458C4850,3454 4839,3450 4825,3450C4802,3450 4801,3452 4812,3476C4823,3500 4825,3501 4837,3484C4844,3474 4850,3463 4850,3458ZM1580,3186C1580,2931 1653,2590 1753,2379C1833,2212 1964,2048 2095,1955C2197,1882 2370,1804 2473,1785C2493,1781 2510,1774 2510,1770C2510,1766 2495,1729 2476,1687C2423,1572 2384,1446 2365,1330C2337,1158 2245,916 2171,821L2152,796L2101,842C2043,894 1987,913 1935,899C1916,894 1898,885 1895,880C1892,875 1902,875 1919,881C1961,896 2023,876 2065,835C2130,770 2130,772 2024,670C1971,620 1923,581 1917,583C1902,588 1893,633 1884,750C1877,838 1876,842 1868,801C1864,777 1858,755 1856,753C1846,743 1830,762 1830,783C1830,796 1807,827 1770,862C1696,935 1676,938 1745,867C1817,793 1821,771 1773,702C1752,671 1713,622 1685,592L1635,537L1622,581C1615,605 1605,671 1600,727C1593,810 1586,837 1564,872C1523,939 1479,980 1451,980C1426,980 1426,979 1457,964C1493,946 1546,852 1556,790C1561,757 1557,750 1490,685C1433,628 1418,618 1410,630C1397,651 1397,970 1410,970C1416,970 1418,981 1414,995C1398,1058 1477,1211 1661,1476C1719,1559 1777,1652 1791,1683C1812,1731 1819,1739 1845,1742C1864,1744 1875,1751 1875,1760C1875,1772 1856,1777 1791,1782C1477,1808 1245,2008 1184,2305C1162,2412 1169,2604 1200,2710C1226,2802 1304,2964 1362,3047C1410,3116 1561,3290 1573,3290C1577,3290 1580,3243 1580,3186Z" style="fill:rgb(203,153,24);fill-rule:nonzero;stroke:rgb(203,153,24);stroke-width:17.08px;"/>
            </g>
        </g>
        <g transform="matrix(1.1343,0,0,1.1343,-386.013,-426.867)">
            <path d="M1890,4020C1961,3959 2123,3882 2275,3838C2347,3817 2375,3815 2545,3816C2722,3816 2741,3818 2825,3843C2922,3873 3129,3970 3151,3997C3160,4007 3145,4003 3110,3985C3037,3948 2944,3914 2835,3883C2712,3849 2468,3840 2337,3864C2215,3887 2087,3931 1967,3990C1911,4018 1876,4031 1890,4020Z" style="fill:rgb(203,153,24);fill-rule:nonzero;stroke:rgb(203,153,24);stroke-width:17.08px;"/>
        </g>
        <g transform="matrix(1.1343,0,0,1.1343,-386.013,-426.867)">
            <path d="M1830,3680C1938,3594 2125,3503 2280,3463C2399,3432 2598,3422 2721,3440C2883,3463 3067,3534 3212,3628C3320,3699 3316,3706 3202,3644C3002,3533 2822,3481 2603,3473C2493,3469 2440,3471 2363,3485C2192,3515 1994,3590 1858,3676C1812,3705 1795,3707 1830,3680Z" style="fill:rgb(203,153,24);fill-rule:nonzero;stroke:rgb(203,153,24);stroke-width:17.08px;"/>
        </g>
        <g transform="matrix(1.1343,0,0,1.1343,-386.013,-426.867)">
            <path d="M1747,3315C1751,3308 1791,3272 1834,3236C1935,3153 2101,3068 2235,3033C2325,3009 2354,3006 2515,3006C2655,3005 2714,3009 2780,3024C2954,3062 3156,3141 3315,3235C3469,3325 3462,3333 3300,3252C3137,3170 2957,3104 2805,3070C2688,3043 2462,3033 2350,3049C2157,3078 1973,3153 1825,3265C1778,3300 1743,3323 1747,3315Z" style="fill:rgb(203,153,24);fill-rule:nonzero;stroke:rgb(203,153,24);stroke-width:17.08px;"/>
        </g>
        <g transform="matrix(1.1343,0,0,1.1343,-386.013,-426.867)">
            <path d="M1721,3020C1761,2961 1874,2855 1955,2802C2180,2650 2382,2607 2690,2645C2906,2671 3103,2724 3301,2810C3399,2852 3528,2928 3551,2957C3561,2969 3555,2967 3533,2952C3477,2913 3299,2832 3190,2796C2934,2713 2719,2675 2495,2676C2308,2677 2236,2692 2085,2764C1961,2822 1882,2877 1781,2974C1728,3025 1705,3042 1721,3020Z" style="fill:rgb(203,153,24);fill-rule:nonzero;stroke:rgb(203,153,24);stroke-width:17.08px;"/>
        </g>
        <g transform="matrix(1.1343,0,0,1.1343,-386.013,-426.867)">
            <path d="M3630,2678C3556,2624 3278,2489 3160,2450C2929,2374 2785,2348 2590,2347C2286,2347 2004,2454 1755,2663L1695,2714L1750,2656C1939,2458 2243,2322 2535,2304C2774,2289 3096,2367 3375,2508C3484,2563 3644,2665 3674,2698C3700,2728 3694,2725 3630,2678Z" style="fill:rgb(203,153,24);fill-rule:nonzero;stroke:rgb(203,153,24);stroke-width:17.08px;"/>
        </g>
        <g transform="matrix(1.1343,0,0,1.1343,-386.013,-426.867)">
            <path d="M2215,1750C2193,1740 2132,1724 2080,1715C1949,1692 1933,1684 1993,1675C2087,1660 2200,1691 2250,1746C2277,1774 2270,1775 2215,1750Z" style="fill:rgb(203,153,24);fill-rule:nonzero;stroke:rgb(203,153,24);stroke-width:17.08px;"/>
        </g>
        <g transform="matrix(1.1343,0,0,1.1343,-386.013,-426.867)">
            <path d="M4411,7305C4323,7285 4218,7233 4140,7171C4022,7077 3824,6842 3651,6591C3590,6502 3580,6481 3580,6444C3580,6380 3544,6180 3505,6034C3458,5854 3406,5699 3316,5472C3239,5275 3221,5221 3266,5320C3367,5539 3485,5863 3544,6080C3571,6182 3610,6393 3610,6442C3610,6475 3647,6533 3783,6714C4093,7126 4282,7272 4505,7273C4555,7273 4598,7267 4620,7258L4655,7243L4610,7236C4585,7231 4545,7219 4520,7208C4495,7197 4455,7182 4430,7173C4181,7088 3960,6884 3765,6560C3661,6387 3642,6332 3595,6054C3557,5829 3497,5647 3355,5325C3318,5243 3282,5160 3274,5143C3266,5125 3262,5110 3265,5110C3275,5110 3433,5437 3496,5589C3575,5779 3601,5864 3634,6052C3658,6186 3695,6348 3704,6357C3713,6367 3861,6301 3929,6257C4015,6201 4196,6023 4206,5985C4214,5952 4190,5915 3984,5650C3586,5137 3443,4943 3456,4930C3462,4924 3523,4945 3615,4984C3941,5122 4205,5197 4328,5186C4452,5175 4570,5096 4601,5003C4620,4945 4606,4878 4527,4640C4486,4516 4449,4406 4445,4395C4421,4320 4495,4487 4550,4630C4633,4845 4654,4918 4647,4969C4631,5092 4516,5196 4367,5222C4221,5248 3944,5167 3606,4999C3529,4961 3465,4932 3462,4934C3456,4941 3578,5100 3892,5492C4246,5937 4240,5927 4246,6021C4259,6210 4402,6968 4442,7062C4486,7165 4590,7215 4708,7191C4739,7185 4765,7182 4767,7184C4770,7186 4755,7206 4736,7228C4668,7303 4539,7334 4411,7305ZM4432,7133C4400,7085 4382,7025 4341,6825C4298,6613 4210,6075 4210,6024C4210,6020 4192,6044 4171,6077C4074,6227 3913,6337 3752,6365C3729,6369 3710,6374 3710,6377C3710,6385 3772,6496 3828,6590C3972,6829 4159,7018 4354,7122C4441,7168 4458,7170 4432,7133Z" style="fill:rgb(203,153,24);fill-rule:nonzero;stroke:rgb(203,153,24);stroke-width:17.08px;"/>
        </g>
        <g transform="matrix(1.1343,0,0,1.1343,-386.013,-426.867)">
            <path d="M2692,6187C2639,6132 2626,6083 2626,5930C2626,5832 2631,5784 2642,5755L2657,5715L2746,5719C2864,5723 2902,5746 2920,5821C2947,5933 2908,6122 2844,6186C2815,6214 2802,6220 2767,6220C2732,6220 2718,6214 2692,6187ZM2820,6150C2863,6104 2882,6039 2887,5915C2891,5829 2889,5801 2877,5786C2864,5769 2862,5780 2858,5891C2853,6031 2831,6101 2786,6121C2742,6141 2711,6125 2684,6067C2671,6038 2660,6024 2660,6035C2660,6060 2696,6139 2717,6162C2742,6190 2788,6185 2820,6150ZM2657,5978C2654,5971 2652,5976 2652,5990C2652,6004 2654,6009 2657,6003C2659,5996 2659,5984 2657,5978ZM2804,5984C2814,5957 2811,5920 2797,5920C2776,5920 2760,5942 2760,5972C2760,5993 2765,6000 2779,6000C2789,6000 2801,5993 2804,5984ZM2647,5863C2645,5847 2643,5858 2643,5885C2643,5913 2645,5925 2647,5913C2649,5900 2649,5878 2647,5863Z" style="fill:rgb(203,153,24);fill-rule:nonzero;stroke:rgb(203,153,24);stroke-width:17.08px;"/>
        </g>
        <g transform="matrix(1.1343,0,0,1.1343,-386.013,-426.867)">
            <path d="M1846,5278C1858,5239 1882,5210 1906,5204C1956,5191 1981,5254 1938,5284C1926,5293 1898,5300 1877,5300C1842,5300 1839,5298 1846,5278Z" style="fill:rgb(203,153,24);fill-rule:nonzero;stroke:rgb(203,153,24);stroke-width:17.08px;"/>
        </g>
        <g transform="matrix(1.1343,0,0,1.1343,-386.013,-426.867)">
            <path d="M2171,5265C2135,5234 2124,5204 2140,5185C2170,5148 2220,5189 2220,5250C2220,5297 2212,5299 2171,5265Z" style="fill:rgb(203,153,24);fill-rule:nonzero;stroke:rgb(203,153,24);stroke-width:17.08px;"/>
        </g>
        <g transform="matrix(1.1343,0,0,1.1343,-386.013,-426.867)">
            <path d="M4106,3163C4071,3053 4032,2835 4045,2821C4052,2814 4078,2888 4098,2976C4120,3067 4137,3210 4127,3210C4124,3210 4115,3189 4106,3163Z" style="fill:rgb(203,153,24);fill-rule:nonzero;stroke:rgb(203,153,24);stroke-width:17.08px;"/>
        </g>
        <g transform="matrix(1.1343,0,0,1.1343,-386.013,-426.867)">
            <path d="M4123,1656C4175,1608 4291,1595 4368,1630C4391,1640 4410,1651 4410,1653C4410,1655 4373,1655 4328,1652C4253,1648 4169,1657 4115,1675C4099,1680 4101,1677 4123,1656Z" style="fill:rgb(203,153,24);fill-rule:nonzero;stroke:rgb(203,153,24);stroke-width:17.08px;"/>
        </g>
        <g transform="matrix(1.1343,0,0,1.1343,-386.013,-426.867)">
            <path d="M3905,867C3922,859 3950,841 3967,826L4000,799L3964,727C3916,630 3860,540 3850,540C3836,540 3792,640 3770,720C3750,793 3750,794 3756,740C3769,628 3807,517 3837,506C3874,491 3930,559 3981,680C3996,716 4014,745 4021,745C4029,745 4038,715 4046,660C4060,561 4094,465 4117,456C4156,441 4208,506 4276,654C4308,725 4319,740 4338,740C4353,740 4360,746 4360,760C4360,773 4353,780 4340,780C4329,780 4320,776 4320,771C4320,758 4222,598 4180,542C4160,516 4140,496 4135,497C4129,498 4119,517 4113,541C4094,607 4066,786 4073,804C4082,827 4148,852 4202,853C4237,854 4258,848 4281,831C4309,810 4311,810 4301,828C4287,854 4230,880 4186,880C4143,880 4041,843 4034,825C4030,815 4016,819 3982,840C3956,856 3922,872 3905,875L3875,881L3905,867Z" style="fill:rgb(203,153,24);fill-rule:nonzero;stroke:rgb(203,153,24);stroke-width:17.08px;"/>
        </g>
    </g>
</svg>
