<?xml version="1.0" encoding="UTF-8" standalone="no"?>
<!DOCTYPE svg PUBLIC "-//W3C//DTD SVG 1.1//EN" "http://www.w3.org/Graphics/SVG/1.1/DTD/svg11.dtd">
<svg width="100%" height="100%" viewBox="0 0 754 579" version="1.1" xmlns="http://www.w3.org/2000/svg" xmlns:xlink="http://www.w3.org/1999/xlink" xml:space="preserve" xmlns:serif="http://www.serif.com/" style="fill-rule:evenodd;clip-rule:evenodd;stroke-linejoin:round;stroke-miterlimit:2;">
    <g transform="matrix(0.122201,3.2358e-33,3.2358e-33,-0.122201,-35.4925,648.711)">
        <path d="M1487,5286C1466,5278 1419,5267 1382,5260C1312,5249 1251,5235 1188,5217C1153,5207 1148,5208 1118,5237C1100,5254 1075,5273 1063,5279C1027,5297 946,5291 858,5264C789,5242 763,5239 707,5243C628,5250 567,5230 532,5185C513,5162 510,5144 510,5076C510,4979 538,4907 578,4902C595,4899 600,4894 595,4882C578,4837 578,4779 596,4731C617,4672 636,4666 665,4710C676,4726 688,4740 691,4740C694,4740 708,4725 721,4706C734,4688 804,4617 875,4550C997,4435 1060,4362 1060,4336C1060,4330 1034,4275 1002,4213C948,4110 902,4012 886,3966C880,3948 878,3948 855,3970C836,3988 827,3991 818,3982C810,3974 797,3980 767,4005C725,4041 655,4070 609,4070C591,4070 572,4059 550,4034C515,3994 515,3989 540,3863C552,3803 550,3793 506,3603C447,3344 435,3247 450,3129C456,3078 465,3030 470,3021C474,3012 509,2914 546,2805C606,2625 614,2592 625,2474C638,2337 657,2281 713,2214C738,2184 868,2003 912,1937C941,1893 1017,1813 1117,1720C1187,1655 1221,1610 1200,1610C1185,1610 1013,1768 947,1843C915,1880 859,1938 823,1972C748,2044 690,2118 638,2207C566,2329 560,2351 560,2480C560,2595 559,2600 506,2763C452,2925 409,3024 366,3085C340,3122 339,3215 363,3305C429,3545 443,3711 418,3947C406,4060 406,4063 430,4109C443,4134 464,4168 477,4183C503,4215 508,4274 487,4305C479,4316 445,4378 412,4442C353,4553 340,4590 358,4590C368,4590 427,4520 503,4416C599,4287 660,4223 737,4170C776,4142 811,4120 814,4120C818,4120 840,4111 865,4099C909,4078 930,4080 930,4104C930,4111 892,4135 846,4158C743,4210 695,4252 570,4400C516,4464 445,4540 411,4569C351,4621 349,4622 330,4605C295,4573 302,4552 428,4317C458,4261 462,4246 453,4232C446,4223 424,4186 403,4150C366,4086 365,4083 370,4005C373,3961 375,3840 374,3735C374,3539 364,3462 319,3309C293,3219 294,3115 321,3075C368,3005 422,2883 466,2744C512,2601 514,2590 514,2470C515,2351 517,2342 546,2285C626,2126 665,2075 857,1875C1072,1650 1170,1560 1198,1560C1208,1560 1225,1569 1234,1579C1257,1605 1248,1650 1210,1693L1183,1725L1196,1814C1217,1956 1243,2022 1308,2091C1356,2143 1558,2290 1581,2290C1586,2290 1576,2259 1560,2221C1543,2182 1523,2125 1515,2093C1497,2024 1460,1749 1460,1682C1460,1615 1484,1528 1530,1435C1567,1358 1571,1353 1639,1315C1678,1293 1710,1272 1710,1268C1710,1263 1694,1260 1675,1260C1655,1260 1614,1247 1582,1231C1551,1215 1506,1196 1482,1189C1458,1182 1419,1159 1395,1138C1361,1108 1348,1086 1331,1033C1309,965 1304,920 1318,920C1322,920 1336,927 1348,936C1361,945 1378,949 1386,946C1399,941 1398,937 1379,921C1361,906 1358,899 1367,890C1387,869 1443,863 1490,876C1572,899 1778,913 1944,907C2072,902 2116,904 2164,916C2197,925 2241,933 2261,935C2315,940 2394,977 2417,1008C2444,1046 2470,1126 2470,1175C2470,1208 2459,1233 2409,1310C2323,1441 2306,1482 2304,1565C2303,1604 2301,1637 2300,1640C2294,1655 2282,1586 2281,1533C2280,1454 2300,1401 2374,1285C2427,1202 2431,1192 2426,1151C2418,1095 2382,1029 2350,1014C2336,1007 2298,989 2265,973L2205,945L1888,945C1592,945 1571,946 1566,963C1563,976 1566,979 1579,975C1589,972 1603,976 1610,985C1624,1001 1744,1082 1775,1095C1794,1103 1794,1104 1772,1107C1759,1110 1719,1095 1674,1071C1632,1048 1590,1030 1579,1030C1568,1030 1545,1023 1529,1014C1501,1000 1497,1000 1481,1014C1457,1036 1447,1034 1460,1011C1468,994 1466,991 1439,985C1422,981 1406,981 1402,984C1392,995 1460,1057 1526,1095C1596,1136 1603,1149 1543,1130C1455,1101 1350,1013 1350,968C1350,958 1346,950 1340,950C1335,950 1330,959 1330,970C1330,999 1358,1050 1374,1050C1381,1050 1392,1061 1398,1074C1404,1088 1421,1107 1435,1116C1461,1133 1592,1190 1655,1212C1672,1218 1708,1231 1735,1241C1763,1252 1811,1260 1842,1260C1873,1260 1902,1265 1906,1271C1919,1292 1889,1304 1817,1305C1753,1306 1736,1311 1677,1344C1639,1365 1603,1392 1595,1404C1568,1445 1519,1572 1509,1627C1487,1744 1563,2170 1619,2245C1623,2250 1640,2288 1656,2328C1697,2430 1765,2526 1835,2583C1868,2609 1900,2640 1907,2653L1919,2675L1920,2654C1922,2495 1995,2175 2061,2025C2146,1837 2176,1792 2297,1672C2359,1611 2415,1560 2421,1560C2426,1560 2474,1535 2527,1504C2580,1474 2646,1442 2674,1435C2702,1427 2770,1407 2825,1390C2918,1361 2940,1358 3145,1350C3266,1346 3392,1336 3425,1330C3458,1323 3561,1313 3654,1306L3823,1295L3856,1230C3891,1160 3904,1106 3920,965C3933,844 3956,771 3991,738C4022,708 4027,691 4008,672C3999,663 4001,659 4014,654C4045,642 4111,660 4162,695C4189,714 4218,730 4226,730C4259,730 4226,830 4174,887C4158,904 4133,922 4118,925C4095,931 4088,927 4066,892C4044,857 4027,812 4025,788C4025,783 4021,780 4015,779C4000,778 3982,851 3965,984C3939,1185 3903,1272 3803,1380C3713,1477 3642,1518 3533,1536C3486,1543 3440,1556 3431,1564C3422,1572 3384,1588 3345,1600C3223,1639 3214,1644 3177,1709C3148,1758 3140,1783 3135,1847C3125,1956 3141,2029 3215,2215C3290,2403 3299,2453 3275,2536C3235,2674 3166,2761 3050,2820C2974,2858 2776,2906 2585,2931C2421,2952 2367,2952 2155,2930C1987,2913 2005,2910 2008,2950C2010,2969 2019,3030 2030,3085C2080,3358 2064,3498 1966,3625C1901,3710 1736,3900 1727,3900C1711,3900 1764,3820 1842,3726C1885,3674 1920,3629 1920,3626C1920,3623 1877,3620 1825,3620C1736,3620 1725,3622 1660,3655C1622,3674 1586,3690 1580,3690C1565,3690 1431,3754 1430,3762C1430,3775 1537,3839 1588,3855C1675,3884 1724,3922 1759,3987C1790,4045 1793,4047 1872,4080C2023,4141 2054,4191 2068,4396L2075,4505L2114,4437C2135,4399 2169,4348 2189,4322C2209,4296 2245,4241 2269,4200C2316,4120 2418,3991 2472,3944C2490,3928 2543,3870 2589,3815C2709,3672 2764,3617 2842,3563L2911,3516L2979,3539C3022,3554 3056,3560 3070,3555C3082,3551 3118,3525 3149,3496C3180,3468 3246,3416 3295,3380C3345,3345 3417,3291 3456,3260C3549,3188 3700,3095 3723,3095C3757,3095 3765,3068 3760,2981C3756,2920 3758,2895 3768,2888C3795,2865 3803,2898 3808,3057L3813,3215L3899,3258C3946,3281 3989,3300 3994,3300C3998,3300 4020,3317 4041,3339C4081,3379 4092,3410 4065,3410C4057,3410 4050,3403 4050,3395C4050,3366 4021,3368 3983,3399C3962,3416 3940,3430 3933,3430C3914,3430 3917,3444 3940,3458C3961,3471 4029,3465 4063,3448C4110,3424 4104,3347 4050,3295C4034,3279 4013,3246 4003,3221C3994,3196 3981,3170 3974,3163C3967,3156 3962,3118 3962,3071C3962,2961 3931,2893 3864,2850C3828,2827 3804,2820 3768,2820C3680,2820 3624,2846 3350,3014C3231,3086 3188,3107 3220,3076C3249,3048 3519,2861 3566,2837C3592,2824 3598,2812 3614,2746C3634,2659 3656,2626 3706,2610C3770,2589 4034,2458 4095,2417C4150,2380 4298,2255 4328,2220C4363,2179 4491,1898 4510,1820C4522,1773 4539,1708 4548,1675C4574,1581 4571,1362 4542,1239C4518,1137 4520,1097 4556,1012C4573,971 4627,910 4646,910C4652,910 4660,903 4664,895C4671,875 4657,876 4637,898C4628,907 4605,924 4586,934C4552,952 4549,952 4531,936C4521,927 4506,892 4499,860L4486,801L4454,848C4437,874 4411,906 4397,918C4374,940 4369,941 4343,928C4310,913 4265,835 4256,778C4248,730 4258,687 4276,694C4283,697 4294,692 4302,683C4325,654 4450,579 4468,582C4486,586 4497,621 4499,686C4499,710 4507,733 4515,740C4528,751 4538,745 4580,706C4627,662 4703,620 4736,620C4744,620 4755,632 4760,646C4779,694 4771,736 4737,786C4718,813 4700,853 4696,875C4690,903 4675,927 4642,960C4590,1010 4536,1110 4558,1118C4564,1120 4570,1131 4570,1143C4570,1155 4579,1208 4590,1260C4601,1312 4610,1391 4610,1435L4611,1515L4658,1538C4828,1621 5172,1946 5319,2163C5343,2198 5355,2209 5363,2201C5385,2179 5435,2189 5468,2222C5485,2240 5510,2264 5523,2276C5540,2290 5549,2312 5554,2346C5566,2432 5568,2435 5595,2406C5622,2377 5655,2373 5687,2395C5712,2413 5735,2503 5724,2544C5717,2574 5732,2578 5775,2558C5796,2549 5804,2549 5816,2561C5835,2581 5846,2704 5827,2697C5820,2695 5814,2673 5813,2645C5811,2591 5797,2569 5778,2588C5762,2604 5713,2603 5703,2588C5699,2581 5693,2544 5689,2506C5681,2414 5662,2398 5613,2440C5586,2464 5575,2468 5560,2460C5534,2446 5530,2438 5519,2368C5513,2333 5504,2303 5498,2301C5492,2299 5470,2282 5450,2264C5429,2245 5403,2230 5391,2230C5380,2230 5370,2231 5370,2233C5370,2235 5388,2271 5409,2312C5434,2361 5447,2396 5443,2409C5437,2432 5373,2474 5328,2485C5312,2489 5300,2496 5300,2501C5300,2540 5193,2460 5136,2378C5116,2349 5075,2303 5046,2277C4960,2200 4719,2022 4664,1995C4597,1963 4517,1945 4512,1960C4499,1998 4385,2217 4364,2246C4333,2287 4198,2401 4114,2458C4080,2481 3979,2533 3889,2575C3799,2617 3714,2656 3700,2663C3674,2676 3605,2802 3621,2808C3625,2810 3642,2804 3659,2796C3678,2786 3715,2780 3763,2780C3829,2780 3842,2783 3884,2811C3959,2861 3996,2933 4004,3044C4006,3076 4012,3106 4017,3111C4022,3116 4072,3127 4129,3135C4230,3150 4234,3150 4297,3129C4332,3118 4382,3094 4408,3076C4457,3043 4541,2959 4588,2896C4699,2746 4710,2737 4728,2789C4743,2830 4804,2863 4950,2907C5074,2944 5076,2944 5255,2945C5433,2945 5436,2945 5535,2912C5590,2893 5648,2871 5665,2863C5736,2826 5956,2676 6003,2632C6032,2605 6076,2568 6103,2550C6129,2532 6150,2513 6150,2508C6150,2504 6161,2500 6174,2500C6202,2500 6201,2503 6230,2357C6267,2172 6302,2117 6390,2108C6418,2106 6426,2109 6437,2130C6452,2160 6454,2242 6441,2342C6435,2382 6426,2462 6420,2520C6405,2659 6367,2840 6337,2920C6307,3001 6244,3126 6230,3135C6224,3139 6201,3164 6180,3192C6140,3241 6140,3241 6160,3262C6171,3274 6184,3298 6190,3316C6204,3357 6183,3404 6139,3428C6116,3441 6111,3450 6116,3465C6126,3499 6122,3523 6101,3543C6083,3562 6082,3566 6096,3592C6112,3623 6176,3660 6215,3660C6275,3660 6301,3710 6263,3752C6248,3769 6249,3770 6284,3770C6307,3770 6323,3775 6326,3785C6333,3802 6266,3930 6227,3973C6198,4005 6160,4071 6160,4088C6160,4093 6174,4103 6190,4110C6238,4130 6230,4160 6165,4209C6135,4232 6110,4254 6110,4258C6110,4262 6117,4274 6125,4284C6147,4313 6143,4387 6115,4455C6078,4545 6080,4619 6125,4706C6168,4791 6169,4802 6133,4794C6024,4770 5978,4745 5873,4652C5819,4603 5810,4591 5815,4569C5827,4514 5785,4458 5695,4413C5630,4380 5621,4366 5620,4302C5620,4245 5637,4193 5663,4171C5683,4155 5684,4123 5666,4055C5654,4010 5650,4005 5624,4004C5584,4004 5553,3985 5535,3950C5512,3906 5517,3901 5549,3939C5573,3968 5585,3974 5621,3976C5645,3976 5668,3978 5672,3979C5684,3981 5710,4082 5710,4128C5710,4160 5703,4180 5685,4202C5665,4226 5660,4242 5660,4291L5660,4350L5709,4374C5808,4425 5854,4482 5849,4551C5846,4587 5850,4593 5910,4646C5969,4697 6077,4760 6107,4760C6114,4760 6109,4742 6093,4715C6076,4684 6066,4646 6061,4593C6054,4523 6056,4510 6076,4465C6112,4388 6117,4334 6091,4300C6080,4284 6070,4264 6070,4256C6070,4241 6156,4160 6171,4160C6191,4160 6178,4142 6150,4130C6129,4121 6120,4111 6120,4095C6120,4067 6164,3985 6200,3945C6226,3917 6280,3830 6280,3817C6280,3814 6265,3810 6248,3808C6222,3806 6214,3800 6212,3782C6210,3769 6216,3750 6225,3740C6248,3714 6238,3691 6203,3692C6101,3694 6004,3564 6072,3516C6089,3504 6092,3498 6082,3488C6058,3464 6068,3431 6109,3406C6131,3392 6151,3372 6154,3362C6161,3340 6147,3296 6130,3285C6107,3271 5751,3618 5585,3815C5475,3947 5390,4057 5390,4068C5390,4081 5287,4176 5250,4198C5231,4209 5172,4235 5120,4255C5002,4301 4924,4342 4745,4454C4556,4573 4448,4646 4300,4758C4150,4872 4120,4899 4068,4969C4012,5043 3930,5081 3806,5090C3719,5097 3715,5098 3690,5130C3581,5272 3500,5316 3421,5275C3356,5242 3361,5172 3436,5034C3506,4904 3508,4886 3499,4490C3494,4300 3486,4111 3479,4070C3460,3943 3425,3903 3312,3879C3252,3867 3205,3873 3143,3901C3064,3937 3013,3920 2952,3835C2890,3748 2830,3658 2830,3649C2830,3617 2760,3682 2636,3830C2597,3877 2535,3945 2498,3982C2413,4068 2359,4135 2308,4224C2271,4288 2211,4369 2111,4489C2091,4513 2070,4553 2063,4577C2057,4601 2046,4627 2040,4636C2033,4644 2030,4654 2034,4657C2038,4661 2045,4658 2049,4651C2059,4636 2064,4643 2074,4682C2087,4736 2184,4782 2312,4795C2435,4806 2530,4875 2530,4950C2530,5005 2496,5030 2421,5030C2390,5030 2311,5035 2245,5040C1964,5063 1883,5084 1845,5148C1799,5226 1760,5259 1693,5280C1618,5303 1542,5305 1487,5286ZM1682,5240C1731,5226 1772,5190 1794,5143C1804,5122 1825,5095 1841,5082C1881,5050 1978,5017 2013,5024C2028,5027 2039,5026 2036,5021C2029,5011 2109,5003 2303,4994C2424,4988 2456,4984 2473,4969C2494,4952 2494,4949 2480,4923C2461,4887 2368,4841 2316,4840C2294,4840 2241,4830 2197,4819C2112,4796 2063,4763 2038,4710L2023,4680L1985,4735C1938,4804 1838,4898 1766,4941L1711,4974L1736,5003C1752,5022 1760,5044 1760,5071C1760,5106 1756,5111 1720,5130C1666,5158 1552,5157 1490,5129C1418,5096 1371,5094 1296,5121C1231,5144 1181,5174 1190,5183C1193,5186 1234,5191 1281,5195C1334,5199 1400,5213 1451,5231C1540,5261 1602,5264 1682,5240ZM1037,5239C1052,5234 1085,5210 1110,5186C1190,5110 1202,5104 1450,5025C1513,5005 1616,4963 1679,4933C1779,4885 1803,4868 1871,4800C1927,4743 1958,4701 1987,4644L2025,4566L2023,4450C2020,4317 2006,4236 1978,4198C1968,4183 1929,4157 1892,4139C1855,4122 1809,4100 1790,4091C1765,4079 1746,4058 1724,4016C1688,3950 1666,3933 1555,3889C1511,3872 1466,3850 1455,3841C1444,3831 1419,3813 1399,3800C1379,3787 1348,3755 1330,3729C1276,3650 1167,3592 1093,3603C1016,3613 963,3645 915,3711C890,3744 870,3781 870,3792C870,3810 876,3812 953,3810C1065,3807 1070,3808 1070,3824C1070,3833 1053,3840 1023,3845C974,3852 950,3865 950,3883C950,3889 953,3891 956,3887C959,3884 975,3893 991,3907C1007,3921 1034,3942 1051,3952L1083,3972L1077,3907C1068,3807 1093,3797 1214,3855C1298,3895 1375,3970 1500,4134C1585,4246 1647,4311 1711,4355C1750,4382 1755,4391 1758,4428C1761,4463 1755,4479 1727,4518C1708,4544 1690,4571 1686,4578C1674,4598 1718,4592 1740,4570C1763,4547 1800,4543 1800,4563C1800,4571 1788,4587 1774,4601C1751,4622 1737,4626 1637,4631C1542,4636 1517,4641 1470,4665C1366,4717 1255,4799 1140,4909C1058,4988 1013,5024 983,5034C942,5048 936,5047 828,5011C766,4990 695,4964 670,4953C645,4942 611,4928 594,4923C564,4913 562,4914 556,4942C546,4993 549,5065 562,5078C572,5088 572,5095 562,5110C530,5163 605,5206 711,5195C768,5189 789,5192 852,5213C968,5253 992,5256 1037,5239ZM3547,5221C3564,5210 3597,5177 3619,5147C3679,5065 3703,5050 3769,5050C3895,5050 3992,5005 4047,4923C4104,4837 4375,4633 4720,4417C4911,4298 4966,4268 5108,4211C5173,4185 5236,4157 5247,4149C5306,4108 5386,4022 5431,3953C5460,3910 5497,3859 5514,3839C5553,3794 5572,3771 5637,3690C5692,3620 5945,3368 6022,3306C6048,3285 6080,3251 6092,3231C6105,3211 6138,3167 6167,3134C6256,3029 6299,2927 6341,2724C6371,2576 6400,2332 6400,2218C6400,2143 6392,2135 6348,2169C6321,2191 6303,2240 6260,2420C6197,2683 6171,2770 6116,2920C6084,3005 6048,3091 6034,3110C6004,3154 5934,3222 5800,3335C5682,3436 5569,3546 5495,3635C5468,3668 5376,3764 5291,3848C5159,3979 5111,4019 4951,4129C4849,4199 4729,4276 4685,4300C4641,4324 4576,4363 4540,4386C4401,4476 4215,4587 4118,4640C4062,4670 3996,4715 3971,4740L3925,4786L3836,4788C3780,4789 3742,4786 3733,4779C3722,4769 3720,4719 3726,4471C3732,4178 3732,4174 3706,4045C3656,3799 3648,3783 3553,3729C3468,3680 3359,3651 3238,3643C3141,3638 3129,3635 3115,3614C3103,3595 3096,3593 3072,3599C3052,3605 3026,3602 2986,3588C2922,3566 2898,3569 2857,3605L2829,3630L2935,3749C2994,3815 3050,3872 3060,3875C3070,3878 3105,3870 3137,3857C3224,3820 3250,3817 3326,3836C3416,3858 3454,3882 3486,3935C3526,4004 3537,4109 3545,4497C3553,4903 3553,4905 3474,5058C3402,5196 3403,5240 3480,5240C3499,5240 3529,5231 3547,5221ZM1580,5085C1580,5052 1544,5032 1522,5053C1502,5074 1513,5098 1547,5103C1562,5105 1576,5108 1578,5109C1579,5109 1580,5099 1580,5085ZM1672,5100C1715,5088 1724,5078 1715,5050C1705,5020 1657,4998 1626,5010C1604,5018 1602,5023 1609,5044C1615,5057 1616,5077 1613,5089C1607,5113 1617,5115 1672,5100ZM990,4984C1004,4974 1034,4949 1056,4927C1100,4886 1102,4870 1071,4811C1053,4779 1043,4786 1037,4835C1030,4885 979,4992 972,4972C970,4965 975,4942 983,4922C991,4901 1001,4862 1005,4835C1016,4751 1019,4740 1038,4740C1061,4740 1095,4772 1116,4813C1125,4831 1133,4846 1135,4848C1136,4849 1157,4832 1181,4809C1267,4729 1428,4625 1502,4602C1520,4596 1563,4589 1598,4586C1633,4584 1662,4580 1663,4578C1664,4577 1673,4560 1683,4542C1692,4523 1700,4505 1700,4502C1700,4498 1654,4496 1598,4498C1486,4502 1301,4486 1248,4468C1209,4455 1171,4423 1160,4395C1153,4377 1151,4379 1138,4410C1111,4472 1043,4547 947,4618C814,4716 717,4809 726,4829C730,4838 734,4865 735,4889L736,4934L831,4966C941,5004 957,5006 990,4984ZM700,4884C700,4855 664,4762 644,4741C633,4729 629,4731 620,4754C599,4812 613,4894 647,4903C689,4914 700,4910 700,4884ZM920,4585C978,4542 1052,4467 1082,4421C1123,4355 1116,4348 1071,4411C1049,4441 983,4508 924,4560C746,4718 697,4766 704,4778C708,4785 745,4754 798,4700C846,4651 901,4599 920,4585ZM3933,4713C3958,4682 4016,4643 4125,4585C4227,4530 4282,4497 4460,4383C4529,4339 4621,4284 4665,4260C4709,4236 4824,4162 4920,4096C5085,3982 5093,3975 5065,3969C5048,3966 5011,3949 4982,3931C4911,3886 4532,3740 4490,3740C4468,3740 4466,3733 4479,3711C4486,3701 4499,3699 4531,3704C4598,3715 4919,3849 4980,3892C5010,3913 5050,3937 5068,3946C5101,3961 5102,3961 5147,3924C5204,3877 5342,3739 5438,3632C5479,3587 5516,3550 5521,3550C5526,3550 5590,3492 5662,3421C5735,3350 5840,3249 5895,3197C5950,3144 5991,3098 5987,3094C5983,3090 5938,3101 5888,3118C5837,3135 5743,3163 5680,3181C5617,3198 5534,3223 5495,3237C5388,3275 5178,3322 5167,3311C5145,3289 5171,3274 5261,3256C5313,3245 5373,3230 5395,3223C5445,3205 5921,3081 5974,3072L6014,3065L6076,2895C6137,2729 6184,2560 6169,2560C6165,2560 6128,2587 6088,2620C5953,2731 5772,2857 5678,2906C5660,2915 5596,2938 5537,2956C5447,2984 5408,2990 5299,2995C5156,3001 5107,2995 4935,2948C4815,2914 4769,2894 4722,2855L4691,2829L4651,2888C4582,2990 4464,3102 4382,3143C4342,3163 4291,3182 4267,3185C4227,3191 4078,3176 4043,3163C4012,3151 4037,3202 4116,3310C4138,3339 4141,3353 4137,3395C4133,3437 4127,3449 4095,3477C4068,3500 4047,3510 4023,3510C4005,3510 3990,3514 3990,3519C3990,3531 3958,3583 3902,3661C3871,3704 3847,3727 3816,3741C3773,3759 3771,3759 3716,3741C3646,3718 3622,3697 3614,3653C3608,3624 3604,3619 3586,3624C3553,3633 3462,3599 3426,3564C3408,3547 3381,3505 3364,3472C3348,3438 3331,3412 3326,3413C3300,3421 3121,3577 3123,3590C3125,3602 3146,3605 3235,3606C3316,3606 3366,3613 3425,3629C3516,3654 3643,3722 3670,3760C3695,3796 3714,3863 3751,4040C3781,4190 3782,4200 3776,4365C3773,4459 3767,4575 3763,4624C3759,4683 3760,4711 3767,4707C3790,4693 3888,4467 3957,4266C3984,4189 4010,4156 4010,4199C4010,4264 3858,4621 3796,4703C3782,4722 3773,4739 3776,4742C3779,4745 3811,4745 3848,4742C3902,4738 3918,4733 3933,4713ZM1691,4444C1696,4441 1699,4427 1697,4413C1693,4382 1683,4379 1580,4376C1539,4374 1483,4370 1455,4366C1391,4356 1264,4315 1225,4292C1179,4263 1142,4186 1134,4100C1125,4008 1140,4012 1170,4111C1200,4211 1225,4245 1290,4274C1367,4308 1590,4345 1590,4324C1590,4320 1578,4303 1563,4285C1547,4267 1508,4218 1475,4175C1387,4061 1298,3963 1252,3929L1212,3900L1200,3929C1184,3968 1135,4017 1104,4024C1085,4029 1069,4023 1040,4000C1019,3984 1000,3970 997,3970C994,3970 1017,4016 1047,4073C1100,4171 1150,4300 1150,4336C1150,4352 1153,4351 1170,4332C1199,4301 1212,4305 1193,4338C1178,4364 1178,4368 1195,4393C1215,4424 1251,4436 1365,4448C1447,4457 1675,4454 1691,4444ZM1070,4218C1049,4165 957,4000 951,4005C949,4008 975,4066 1011,4134C1071,4252 1098,4290 1070,4218ZM673,4015C699,4007 734,3992 750,3980C765,3969 785,3960 793,3960C804,3960 809,3946 813,3908C820,3824 845,3744 882,3682C912,3633 926,3620 984,3592C1068,3551 1130,3548 1213,3580C1279,3605 1331,3646 1366,3702C1379,3723 1394,3740 1399,3740C1404,3740 1439,3720 1477,3695C1514,3670 1551,3650 1558,3650C1565,3650 1603,3633 1643,3613C1714,3576 1716,3576 1838,3575L1960,3575L1980,3542C1991,3525 2003,3493 2006,3471C2011,3437 2010,3432 1989,3426C1954,3417 1697,3406 1669,3413C1644,3419 1619,3435 1433,3556C1371,3597 1318,3630 1314,3630C1285,3630 1447,3497 1569,3421L1654,3368L1759,3367C1817,3366 1900,3369 1943,3373L2021,3382L2014,3343C2008,3308 1830,2936 1810,2916C1798,2904 1694,2954 1680,2980C1663,3011 1675,3056 1709,3096C1725,3114 1742,3136 1748,3145C1756,3161 1760,3161 1804,3146C1871,3123 1895,3137 1886,3192C1873,3270 1809,3363 1780,3345C1775,3342 1750,3344 1725,3350C1659,3365 1608,3347 1550,3289L1503,3242L1464,3281C1419,3327 1381,3332 1312,3299C1254,3270 1230,3224 1250,3177C1257,3159 1264,3127 1264,3105C1265,3067 1264,3065 1215,3047C1188,3037 1150,3017 1133,3004C1104,2982 1100,2973 1100,2931C1100,2905 1107,2875 1115,2864C1123,2854 1130,2836 1130,2825C1131,2771 1260,2751 1345,2791C1409,2821 1457,2812 1529,2756C1639,2670 1761,2628 1839,2648C1862,2653 1880,2656 1880,2654C1880,2652 1859,2639 1833,2626C1764,2591 1707,2530 1661,2442C1630,2381 1613,2361 1583,2345C1498,2301 1337,2186 1281,2128C1199,2046 1160,1939 1160,1798C1160,1771 1157,1750 1152,1750C1138,1750 973,1925 940,1975C894,2044 792,2187 754,2235C715,2285 690,2333 690,2359C690,2374 705,2383 768,2403C810,2417 876,2435 914,2444C989,2461 1020,2482 1020,2512C1020,2531 1019,2531 985,2510C965,2498 917,2480 877,2470C837,2460 778,2440 746,2426C713,2411 685,2402 682,2405C679,2407 673,2453 669,2506C662,2589 649,2639 579,2846C533,2980 500,3093 503,3097C507,3101 537,3099 568,3092C600,3085 700,3080 791,3080C926,3080 960,3083 979,3096C991,3105 998,3116 993,3120C989,3124 927,3123 855,3118C695,3106 511,3113 498,3132C493,3139 491,3195 494,3255C499,3361 511,3432 565,3657C592,3767 596,3841 579,3905C548,4023 576,4012 645,3878C710,3751 907,3444 929,3435C937,3432 947,3433 952,3438C959,3445 923,3501 817,3645C793,3678 738,3766 695,3840C652,3914 610,3983 601,3993C588,4009 588,4012 600,4020C619,4032 616,4032 673,4015ZM1148,3928C1171,3892 1163,3870 1128,3870C1112,3870 1109,3875 1114,3893C1117,3905 1120,3925 1120,3938C1120,3967 1124,3966 1148,3928ZM893,3859C868,3850 860,3857 860,3887L860,3913L885,3890C909,3868 909,3865 893,3859ZM3842,3662C3888,3618 3950,3503 3934,3492C3928,3488 3909,3463 3892,3437C3865,3394 3797,3331 3778,3330C3754,3329 3606,3444 3612,3459C3614,3463 3636,3485 3661,3508C3713,3556 3720,3552 3720,3474C3720,3442 3724,3430 3735,3430C3755,3430 3755,3508 3735,3537C3719,3560 3720,3562 3765,3585C3776,3591 3786,3605 3788,3616C3791,3639 3775,3647 3710,3656C3651,3665 3642,3671 3675,3682C3776,3714 3789,3713 3842,3662ZM3687,3612C3694,3608 3683,3591 3654,3564C3607,3521 3600,3527 3621,3589C3632,3620 3659,3630 3687,3612ZM3564,3518C3562,3473 3557,3454 3545,3447C3524,3436 3512,3446 3528,3462C3544,3478 3543,3510 3527,3510C3519,3510 3503,3521 3490,3534L3467,3559L3496,3565C3512,3569 3530,3573 3535,3575C3563,3584 3566,3578 3564,3518ZM3470,3508C3488,3488 3489,3485 3473,3468C3464,3458 3452,3450 3447,3450C3441,3450 3428,3443 3418,3433C3388,3406 3387,3425 3417,3479C3432,3507 3446,3530 3447,3530C3448,3530 3458,3520 3470,3508ZM3637,3387C3658,3369 3692,3341 3713,3325C3740,3305 3749,3292 3745,3279C3742,3269 3746,3240 3754,3215C3769,3173 3776,3110 3766,3110C3764,3110 3726,3134 3681,3163C3637,3191 3577,3230 3548,3248C3519,3267 3475,3299 3450,3320C3407,3358 3406,3359 3424,3379C3438,3395 3447,3397 3461,3389C3481,3379 3540,3390 3570,3410C3592,3424 3597,3423 3637,3387ZM3940,3375C3957,3366 3970,3356 3970,3352C3970,3345 3818,3260 3806,3260C3803,3260 3800,3265 3800,3271C3800,3284 3891,3389 3903,3389C3907,3390 3924,3383 3940,3375ZM1740,3301C1740,3296 1733,3276 1725,3255C1716,3235 1712,3209 1716,3198C1720,3183 1711,3167 1679,3134C1638,3092 1635,3086 1632,3022C1629,2966 1631,2952 1647,2939C1674,2914 1761,2871 1796,2864C1823,2859 1830,2862 1847,2887C1868,2917 1955,3103 1985,3184C1996,3211 2006,3228 2008,3222C2010,3216 1993,3113 1971,2993C1949,2873 1929,2762 1928,2745C1925,2720 1919,2714 1880,2702C1778,2672 1642,2711 1546,2800C1507,2836 1499,2839 1430,2844C1357,2849 1354,2850 1313,2894C1289,2919 1270,2948 1270,2959C1270,2970 1261,2985 1250,2993C1229,3007 1229,3008 1255,3014C1286,3022 1320,3074 1320,3113C1320,3138 1323,3140 1343,3134C1408,3113 1469,3100 1503,3100C1544,3100 1549,3112 1529,3169C1518,3199 1520,3204 1551,3237C1570,3256 1601,3280 1620,3290C1656,3310 1740,3317 1740,3301ZM1400,3270C1400,3264 1393,3257 1385,3253C1376,3250 1362,3233 1353,3216C1335,3182 1310,3159 1298,3166C1293,3169 1290,3184 1290,3199C1290,3231 1315,3257 1356,3270C1396,3282 1400,3281 1400,3270ZM1824,3240C1844,3191 1844,3190 1825,3190C1799,3190 1760,3213 1760,3228C1760,3244 1788,3280 1800,3280C1805,3280 1815,3262 1824,3240ZM1452,3216C1470,3203 1492,3155 1484,3147C1476,3139 1396,3166 1392,3179C1388,3191 1417,3230 1429,3230C1432,3230 1443,3224 1452,3216ZM1219,2978C1218,2965 1220,2948 1224,2940C1229,2928 1221,2921 1196,2912C1177,2905 1159,2892 1156,2884C1147,2860 1130,2878 1130,2913C1130,2953 1138,2965 1175,2984C1215,3005 1220,3004 1219,2978ZM2582,2885C2993,2827 3123,2769 3198,2612C3259,2484 3254,2418 3173,2230C3148,2172 3119,2094 3109,2056C3088,1978 3084,1829 3101,1767C3114,1718 3174,1625 3203,1606C3231,1588 3482,1504 3535,1495C3593,1484 3668,1446 3723,1399C3749,1377 3770,1355 3770,1352C3770,1340 3519,1357 3381,1379C3288,1394 3205,1400 3111,1399C3017,1398 2954,1403 2906,1414C2785,1443 2638,1492 2591,1519C2566,1534 2519,1558 2488,1573C2408,1612 2236,1782 2185,1875C2089,2046 2014,2267 1984,2472C1960,2636 1975,2900 2009,2892C2055,2882 2167,2883 2230,2894C2341,2914 2391,2913 2582,2885ZM1285,2860C1310,2834 1312,2827 1300,2819C1292,2814 1265,2812 1240,2814C1215,2817 1192,2819 1188,2819C1171,2821 1181,2860 1202,2874C1235,2897 1253,2894 1285,2860ZM5388,2406C5399,2395 5398,2385 5380,2350C5272,2138 5028,1862 4765,1652C4688,1590 4622,1540 4618,1540C4613,1540 4610,1552 4610,1567C4610,1602 4562,1825 4544,1873C4525,1925 4526,1930 4560,1930C4630,1930 4714,1971 4864,2078C5032,2198 5112,2268 5167,2343C5188,2371 5220,2408 5240,2426L5274,2458L5325,2438C5352,2428 5381,2413 5388,2406ZM4625,849C4732,751 4768,640 4678,686C4638,707 4530,809 4530,826C4530,853 4550,890 4565,890C4573,890 4600,872 4625,849ZM4142,853C4156,837 4173,814 4180,801C4191,779 4190,774 4164,752C4127,721 4057,689 4048,698C4033,713 4091,880 4110,880C4114,880 4128,868 4142,853ZM4407,838C4424,814 4441,784 4445,771C4453,744 4453,650 4445,642C4437,633 4344,702 4315,737L4289,770L4314,825C4345,893 4365,896 4407,838Z" style="fill:rgb(255,44,81);fill-rule:nonzero;stroke:rgb(230,55,85);stroke-width:19.33px;"/>
    </g>
</svg>
