<?xml version="1.0" encoding="UTF-8" standalone="no"?>
<!DOCTYPE svg PUBLIC "-//W3C//DTD SVG 1.1//EN" "http://www.w3.org/Graphics/SVG/1.1/DTD/svg11.dtd">
<svg width="100%" height="100%" viewBox="0 0 844 947" version="1.1" xmlns="http://www.w3.org/2000/svg" xmlns:xlink="http://www.w3.org/1999/xlink" xml:space="preserve" xmlns:serif="http://www.serif.com/" style="fill-rule:evenodd;clip-rule:evenodd;stroke-linejoin:round;stroke-miterlimit:2;">
    <g transform="matrix(1.13715,0,0,1.07347,421.881,482.92)">
        <g id="S_Glurak.svg" transform="matrix(1,0,0,1,-371,-525)">
            <g transform="matrix(0.1,0,0,-0.1,0,1050)">
                <g transform="matrix(1.09206,0,0,1.09206,-365.977,-156.113)">
                    <path d="M1671,8949C1642,8932 1639,8925 1644,8900C1648,8876 1645,8867 1623,8853C1609,8843 1562,8800 1518,8758C1427,8667 1421,8647 1472,8575C1500,8536 1503,8526 1492,8510C1485,8499 1480,8476 1480,8459C1480,8425 1456,8367 1434,8349C1423,8340 1417,8340 1405,8350C1376,8374 1355,8358 1352,8310C1345,8180 1357,8043 1379,8016C1396,7996 1364,7728 1338,7673C1314,7620 1248,7570 1204,7570C1173,7570 1171,7573 1161,7620C1145,7693 1148,7747 1170,7810C1196,7883 1195,7893 1163,7931C1139,7959 1135,7973 1135,8024C1135,8080 1133,8085 1103,8106L1070,8128L1095,8134C1110,8138 1122,8150 1126,8165C1129,8179 1145,8199 1161,8211C1198,8237 1206,8282 1185,8340C1176,8365 1165,8403 1162,8425C1158,8447 1151,8465 1145,8465C1128,8465 1100,8397 1100,8357C1100,8311 1077,8252 1055,8244C1047,8240 1033,8243 1025,8250C1006,8266 986,8251 960,8200C924,8130 929,8086 980,8021C1002,7993 1020,7968 1020,7964C1020,7961 1006,7942 990,7923C973,7905 960,7879 960,7866C960,7853 978,7816 1000,7784C1046,7717 1049,7687 1028,7526C1020,7457 1009,7420 983,7372C945,7299 939,7229 965,7143C1003,7015 1002,6921 961,6876C951,6864 940,6847 937,6838C933,6827 920,6820 907,6820C856,6820 833,6751 864,6692C880,6661 941,6602 984,6575C1004,6563 1037,6557 1089,6555C1131,6554 1178,6547 1193,6541C1209,6535 1240,6530 1263,6530C1299,6530 1311,6536 1352,6576C1400,6623 1412,6650 1425,6741C1440,6842 1564,6994 1697,7072C1837,7155 1976,7210 2046,7210C2058,7210 2103,7187 2145,7158C2279,7069 2314,6979 2238,6921C2095,6810 2074,6750 2149,6664C2208,6597 2203,6558 2125,6468C2065,6400 2030,6335 2030,6295C2030,6277 2011,6251 1967,6207C1893,6134 1838,6062 1747,5923C1675,5814 1592,5730 1555,5730C1525,5730 1508,5751 1464,5844C1414,5950 1378,5970 1181,6004C1109,6016 1093,6023 1061,6053C1012,6100 883,6178 843,6186C825,6189 794,6189 774,6186C735,6178 665,6120 654,6087C650,6075 628,6044 605,6018C522,5925 509,5795 570,5644C610,5544 677,5440 701,5440C711,5440 720,5446 720,5453C720,5459 730,5453 741,5438C752,5422 770,5410 780,5410C813,5410 820,5440 805,5510C784,5608 786,5655 816,5719C844,5777 879,5829 881,5814C882,5809 884,5774 886,5735C891,5641 922,5522 962,5447C997,5383 1103,5260 1125,5260C1152,5260 1160,5286 1151,5336C1146,5363 1139,5423 1136,5470C1130,5550 1131,5553 1144,5519C1172,5447 1191,5420 1228,5401C1358,5336 1549,5350 1747,5441C1809,5469 1877,5489 1913,5490C1925,5490 1930,5482 1930,5463C1930,5447 1937,5413 1945,5385C1984,5258 1992,5050 1964,4918C1956,4878 1947,4802 1944,4750C1941,4698 1937,4647 1935,4636C1931,4615 1946,4427 1956,4365L1963,4325L1898,4400C1836,4470 1761,4541 1580,4702C1512,4762 1505,4772 1502,4810C1499,4863 1476,4921 1432,4988C1385,5060 1341,5091 1272,5102C1205,5113 1140,5140 1098,5175C1051,5214 1001,5205 1008,5158C1010,5148 1007,5140 1002,5140C997,5140 970,5122 942,5100C915,5078 885,5060 877,5060C868,5060 848,5049 832,5035C815,5021 795,5010 786,5010C777,5010 767,5003 763,4995C760,4986 734,4964 704,4945C610,4885 590,4825 636,4740C661,4693 663,4687 648,4679C621,4664 600,4640 600,4623C600,4615 615,4593 634,4574C679,4529 710,4529 744,4575C763,4600 779,4610 798,4610C841,4610 891,4642 915,4685C928,4710 955,4735 986,4753C1013,4769 1041,4791 1048,4802C1056,4812 1085,4832 1113,4846C1142,4860 1182,4880 1203,4891C1238,4909 1242,4909 1265,4894C1283,4882 1302,4879 1329,4884C1371,4890 1390,4877 1409,4827C1420,4799 1420,4798 1388,4806C1229,4841 1013,4753 856,4590C733,4463 674,4343 667,4208C664,4153 662,4148 602,4086C440,3917 354,3549 430,3347C489,3190 591,3115 802,3075C941,3049 959,3042 980,3007C1019,2944 1002,2881 930,2816C881,2772 748,2684 674,2647C554,2587 474,2425 509,2317C524,2272 584,2218 644,2195C704,2172 718,2182 702,2238C675,2328 700,2410 768,2455C869,2522 968,2482 1000,2361C1018,2293 1006,2258 936,2178C830,2055 784,1975 757,1864C712,1688 735,1474 809,1365C854,1299 907,1269 992,1260C1067,1253 1115,1235 1141,1204C1180,1156 1294,1145 1351,1183C1370,1196 1386,1216 1388,1229C1392,1252 1390,1253 1353,1245C1264,1228 1237,1246 1202,1345C1139,1526 1147,1634 1239,1862C1334,2099 1338,2216 1256,2339C1237,2367 1225,2391 1228,2393C1232,2395 1251,2397 1270,2399C1289,2400 1314,2407 1325,2414C1348,2429 1410,2567 1410,2602C1409,2680 1373,2692 1355,2620C1338,2553 1324,2532 1290,2525C1222,2510 1197,2543 1210,2627C1221,2694 1254,2759 1338,2879C1421,2998 1450,3076 1449,3180C1448,3221 1445,3266 1441,3280C1435,3301 1439,3308 1462,3322C1494,3342 1497,3357 1474,3375C1460,3385 1459,3397 1469,3476C1489,3631 1469,3725 1398,3805C1355,3855 1304,3878 1213,3891C1163,3897 1124,3909 1105,3922C1043,3967 940,4098 940,4134C940,4158 974,4215 1014,4258C1085,4335 1159,4343 1272,4288C1312,4268 1360,4236 1379,4216L1412,4182L1371,4142C1346,4119 1315,4099 1295,4096C1255,4088 1197,4109 1158,4147C1125,4179 1110,4170 1110,4119C1110,4066 1130,4022 1173,3981C1207,3949 1214,3947 1314,3938C1435,3927 1460,3935 1507,3997C1540,4041 1550,4050 1570,4050C1591,4050 1725,3908 1749,3861L1769,3822L1739,3733C1655,3485 1619,3247 1638,3074C1655,2931 1700,2827 1764,2785C1776,2777 1826,2766 1876,2761C1925,2756 1985,2744 2010,2735C2075,2711 2259,2704 2330,2723C2360,2732 2387,2737 2389,2734C2400,2723 2351,2674 2290,2634C2182,2564 2082,2520 2032,2520C2005,2520 1943,2538 1860,2570C1789,2598 1723,2620 1713,2620C1704,2620 1677,2611 1654,2599C1594,2570 1567,2524 1565,2444C1564,2390 1560,2376 1538,2353C1397,2201 1393,1964 1529,1745C1599,1631 1648,1577 1673,1584C1688,1588 1707,1577 1737,1549C1788,1503 1872,1460 1914,1460C1948,1460 1947,1469 1905,1569C1861,1672 1861,1846 1904,1928C1915,1950 1917,1948 1934,1893C1972,1771 2069,1632 2173,1554C2280,1473 2446,1402 2471,1427C2477,1433 2459,1480 2421,1556C2351,1696 2311,1804 2308,1862L2305,1904L2347,1911C2463,1932 2518,2008 2535,2172C2540,2214 2550,2242 2573,2275C2614,2334 2742,2429 2850,2481C3004,2556 3035,2571 3066,2591L3097,2610L3143,2551C3264,2398 3519,2224 3905,2033C4021,1976 4167,1903 4230,1870C4601,1681 5150,1602 5493,1689C5790,1765 6026,1942 6220,2233C6339,2413 6460,2698 6506,2911C6529,3014 6532,3282 6512,3375C6445,3685 6268,3972 6001,4204C5892,4299 5775,4385 5680,4440C5356,4627 5289,4668 4814,4959C4589,5097 4581,5102 4545,5161C4482,5264 4393,5367 4184,5580C4074,5693 3966,5812 3943,5845C3910,5895 3850,6002 3850,6012C3850,6014 3927,6014 4021,6014L4191,6013L4228,5977C4248,5958 4326,5909 4400,5869C4474,5829 4537,5795 4539,5794C4541,5792 4533,5769 4522,5742C4465,5610 4496,5462 4612,5321C4635,5291 4660,5260 4665,5251C4774,5075 4889,4980 5038,4942C5076,4932 5119,4917 5133,4907C5168,4884 5176,4885 5236,4919C5380,5002 5456,5157 5505,5468C5533,5645 5514,5765 5434,5934C5397,6013 5373,6027 5307,6012C5108,5966 5102,5966 5046,5983C5017,5992 4980,6000 4963,6000C4937,6000 4932,6004 4926,6033C4911,6105 4833,6195 4557,6454L4399,6603L4454,6631C4523,6665 4560,6691 4629,6753C4715,6832 4769,6846 4847,6811C4925,6775 4956,6662 4931,6504C4916,6415 4925,6394 4974,6404C5056,6421 5136,6502 5161,6593C5174,6644 5177,6741 5168,6814C5158,6888 5163,6905 5200,6920C5242,6938 5277,6926 5285,6892C5294,6848 5326,6802 5361,6784C5402,6763 5456,6763 5479,6785C5490,6794 5521,6810 5548,6820C5622,6848 5628,6839 5622,6710C5608,6421 5702,6065 5867,5784C5904,5720 5923,5707 5934,5735C5944,5762 5970,5751 6025,5696C6072,5650 6082,5632 6105,5556C6123,5501 6130,5460 6126,5443C6114,5392 6115,5386 6133,5382C6186,5371 6232,5487 6233,5630C6233,5732 6213,5807 6159,5909C6137,5950 6120,5991 6122,6001C6125,6017 6128,6017 6177,5998C6238,5976 6321,5905 6354,5846C6397,5773 6405,5730 6390,5647C6376,5562 6384,5520 6427,5469C6489,5396 6486,5338 6413,5151C6362,5021 6357,4974 6387,4915C6426,4840 6490,4800 6585,4792C6633,4789 6648,4791 6659,4804C6679,4828 6663,4855 6605,4893C6523,4946 6531,4977 6670,5165C6820,5368 6910,5617 6910,5828C6910,5884 6910,5884 6927,5860C6958,5815 6972,5811 6997,5840C7007,5851 7023,5860 7033,5860C7065,5860 7090,5880 7090,5904C7090,5918 7063,5965 7026,6013C6950,6116 6886,6236 6865,6316C6842,6404 6846,6469 6880,6572C6918,6688 6919,6732 6881,6792C6865,6817 6847,6841 6841,6844C6835,6848 6830,6876 6830,6907C6830,6952 6839,6982 6876,7063C6931,7183 6955,7275 6965,7395C6973,7502 6956,7704 6930,7806C6891,7956 6803,8090 6680,8181C6642,8209 6610,8239 6610,8247C6610,8255 6632,8287 6660,8317C6736,8403 6745,8428 6743,8545C6741,8734 6702,8796 6642,8708C6596,8641 6515,8571 6452,8543C6342,8495 6327,8484 6226,8389L6125,8293L6123,8370C6121,8447 6100,8553 6074,8617C6063,8642 6054,8650 6035,8650C6002,8650 5981,8615 5964,8535C5948,8457 5906,8370 5885,8370C5876,8370 5847,8355 5820,8336C5745,8285 5708,8275 5590,8276C5469,8277 5413,8290 5380,8325C5367,8339 5349,8350 5339,8350C5305,8350 5308,8371 5349,8415C5385,8454 5390,8465 5390,8508C5390,8574 5354,8644 5318,8648C5297,8651 5288,8644 5270,8612C5244,8566 5206,8540 5189,8557C5170,8576 5188,8634 5225,8677C5266,8725 5269,8745 5238,8754C5112,8787 4976,8683 4868,8471C4839,8415 4816,8399 4795,8420C4784,8432 4779,8466 4776,8557C4770,8733 4734,8797 4606,8856C4542,8885 4528,8875 4558,8821C4587,8771 4586,8730 4555,8639C4527,8560 4520,8468 4533,8386L4542,8338L4508,8364C4435,8419 4346,8435 4275,8406C4226,8385 4229,8360 4285,8325C4339,8290 4382,8239 4421,8160C4437,8128 4450,8099 4450,8096C4450,8094 4426,8094 4397,8097C4342,8103 4300,8090 4300,8067C4300,8060 4323,8039 4352,8020C4541,7893 4617,7775 4534,7738C4511,7727 4505,7730 4460,7778C4427,7813 4401,7831 4377,7835C4299,7850 4282,7820 4325,7745C4358,7689 4353,7664 4301,7628C4279,7612 4260,7600 4257,7600C4255,7600 4250,7623 4247,7652C4239,7717 4202,7773 4150,7800C4072,7840 4055,7818 4094,7731C4139,7630 4121,7548 4044,7502C4009,7481 3995,7479 3903,7483L3801,7487L3747,7541C3662,7626 3655,7641 3657,7732C3659,7820 3671,7849 3723,7880C3792,7922 3825,7898 3825,7806C3825,7737 3839,7727 3873,7771C3919,7834 3882,7945 3793,8008C3742,8044 3682,8047 3615,8016C3565,7993 3555,7992 3541,8004C3532,8011 3510,8025 3493,8034C3475,8043 3460,8057 3460,8064C3460,8127 3660,8224 3957,8305C4106,8345 4131,8364 4129,8433C4127,8521 4099,8560 4061,8526C4031,8499 4007,8520 4021,8559C4036,8600 4072,8630 4132,8651C4161,8661 4189,8675 4195,8684C4208,8704 4180,8733 4117,8765C3987,8830 3843,8765 3762,8604C3710,8502 3603,8448 3445,8446C3347,8445 3343,8446 3254,8488C3174,8525 3153,8531 3094,8531C2982,8532 2909,8498 2801,8395L2738,8335L2745,8377C2750,8411 2749,8421 2736,8426C2705,8438 2664,8418 2614,8366C2563,8314 2544,8270 2537,8188C2535,8167 2531,8148 2528,8144C2519,8135 2481,8190 2469,8231C2454,8279 2437,8285 2403,8256C2377,8234 2375,8226 2375,8158C2375,8040 2407,7991 2574,7846C2669,7764 2745,7657 2670,7710C2611,7752 2429,7831 2333,7857C2250,7879 2213,7883 2088,7884C2006,7885 1940,7886 1940,7888C1940,7904 1979,7955 2024,8000C2105,8079 2098,8112 2002,8103C1955,8099 1941,8101 1920,8118L1895,8138L1912,8186C1921,8213 1929,8252 1929,8272C1928,8292 1933,8325 1940,8345C1948,8370 1949,8385 1942,8392C1926,8408 1913,8394 1890,8332C1878,8301 1857,8258 1844,8238C1821,8205 1819,8195 1825,8138C1831,8082 1829,8072 1809,8046C1797,8031 1781,8002 1775,7982C1758,7935 1772,7904 1816,7890C1849,7879 1864,7850 1837,7850C1815,7850 1658,7771 1607,7733C1580,7714 1556,7700 1554,7702C1547,7710 1531,7845 1529,7912C1528,7953 1532,7985 1539,7994C1546,8002 1561,8027 1573,8049C1585,8071 1608,8106 1623,8128C1658,8177 1667,8235 1650,8294C1631,8363 1633,8480 1654,8512C1680,8552 1671,8580 1618,8619L1572,8654L1597,8667C1611,8674 1630,8680 1639,8680C1689,8680 1729,8744 1706,8789C1693,8813 1694,8822 1717,8878C1753,8968 1739,8990 1671,8949ZM1690,8886C1667,8831 1665,8811 1682,8776C1691,8754 1690,8747 1675,8730C1665,8719 1650,8710 1642,8710C1619,8710 1551,8677 1546,8662C1543,8655 1548,8643 1558,8635C1567,8627 1592,8605 1613,8587L1652,8555L1629,8526C1608,8500 1606,8487 1608,8416C1610,8371 1618,8313 1627,8286C1647,8225 1636,8183 1580,8109C1558,8079 1540,8052 1540,8047C1540,8043 1530,8026 1519,8010C1499,7984 1498,7973 1503,7888C1510,7785 1522,7718 1546,7652C1563,7607 1582,7603 1575,7648C1570,7671 1576,7680 1614,7707C1661,7742 1779,7804 1819,7815C1850,7824 1838,7802 1804,7790C1773,7778 1773,7750 1805,7720L1830,7697L1769,7640L1708,7582L1715,7532L1722,7481L1674,7448C1602,7399 1514,7313 1499,7278C1490,7255 1489,7243 1498,7229C1509,7212 1506,7210 1470,7204C1415,7195 1405,7180 1419,7126C1425,7101 1430,7079 1430,7076C1430,7074 1414,7076 1395,7081C1376,7087 1355,7088 1350,7085C1338,7077 1337,7028 1349,6977C1358,6939 1358,6939 1330,6945C1303,6951 1302,6949 1303,6917C1303,6897 1293,6865 1277,6837C1254,6798 1244,6790 1220,6790C1183,6790 1160,6781 1160,6766C1160,6760 1174,6735 1190,6711C1207,6687 1220,6656 1220,6643L1220,6619L1193,6639C1150,6670 1113,6676 1106,6653C1102,6642 1086,6621 1070,6605L1039,6576L1002,6595C948,6624 883,6692 875,6729C868,6762 890,6802 914,6799C941,6796 951,6802 964,6834C981,6874 993,6883 1044,6890C1097,6897 1104,6920 1053,6920L1015,6920L1018,6974C1020,7007 1014,7057 1002,7102C963,7247 966,7304 1015,7379C1035,7408 1043,7440 1054,7531C1073,7699 1071,7725 1027,7790C985,7853 981,7879 1011,7906C1057,7947 1054,7975 994,8043C954,8087 951,8122 980,8181C998,8215 1004,8219 1026,8214C1072,8202 1129,8284 1130,8365L1131,8405L1150,8365C1161,8343 1169,8308 1170,8288C1170,8258 1164,8247 1140,8230C1124,8218 1110,8200 1110,8189C1110,8177 1098,8165 1075,8156C1033,8138 1030,8116 1068,8096C1118,8070 1124,8056 1110,8004C1097,7957 1097,7957 1128,7931C1166,7901 1167,7887 1139,7800C1118,7734 1119,7650 1141,7591C1149,7571 1145,7562 1117,7535C1076,7495 1060,7444 1060,7352C1060,7273 1077,7180 1091,7180C1103,7180 1102,7187 1089,7284C1068,7431 1111,7540 1190,7540C1251,7540 1346,7610 1369,7673C1411,7784 1413,8082 1373,8180C1365,8199 1366,8216 1376,8245C1384,8267 1387,8299 1384,8315C1379,8339 1380,8343 1391,8333C1432,8293 1486,8344 1501,8438C1507,8469 1513,8509 1516,8526C1521,8551 1516,8564 1491,8592C1453,8635 1452,8665 1486,8693C1500,8705 1534,8739 1562,8768C1590,8796 1618,8820 1623,8820C1646,8820 1670,8855 1670,8886C1670,8907 1676,8923 1687,8929C1713,8943 1713,8938 1690,8886ZM4693,8765C4737,8720 4750,8669 4750,8538C4750,8455 4754,8431 4768,8414C4811,8362 4858,8381 4896,8467C4944,8574 5027,8673 5102,8711C5123,8721 5160,8730 5185,8730L5231,8730L5206,8697C5149,8623 5138,8552 5179,8530C5213,8512 5265,8545 5294,8601C5300,8613 5310,8623 5315,8622C5334,8622 5359,8575 5365,8528C5372,8483 5371,8480 5325,8431C5272,8375 5270,8352 5315,8331C5332,8323 5357,8307 5373,8294C5388,8281 5427,8266 5460,8259L5520,8247L5498,8211C5457,8144 5408,8091 5352,8054C5300,8019 5296,8018 5286,8035C5251,8094 5170,8147 5134,8133C5128,8131 5120,8109 5116,8084C5107,8016 5087,7987 5021,7946C4960,7908 4926,7874 4936,7858C4948,7839 4887,7769 4843,7750C4815,7738 4781,7673 4774,7616C4764,7548 4757,7542 4720,7573C4667,7618 4630,7604 4630,7540C4630,7496 4600,7446 4561,7425C4544,7417 4502,7403 4468,7395C4305,7357 4207,7307 4072,7190C3957,7092 3841,6946 3724,6752L3704,6720L3657,6766L3611,6813L3630,6850C3656,6901 3664,6976 3650,7030C3639,7072 3639,7075 3664,7097C3696,7124 3763,7144 3793,7134C3832,7122 3850,7099 3850,7059C3850,7038 3854,7019 3859,7016C3872,7008 3897,7041 3907,7080C3929,7163 3898,7252 3836,7285C3806,7301 3801,7309 3806,7325C3810,7336 3814,7370 3814,7401L3815,7458L3915,7457C4024,7456 4053,7465 4102,7517C4117,7532 4134,7566 4141,7591C4152,7632 4151,7645 4133,7696C4122,7729 4110,7763 4106,7773C4085,7819 4178,7759 4202,7710C4212,7691 4220,7658 4220,7638C4220,7558 4244,7551 4318,7609C4382,7660 4388,7688 4349,7758C4326,7799 4323,7812 4334,7816C4359,7826 4417,7793 4456,7746C4477,7721 4502,7700 4511,7700C4521,7700 4542,7712 4559,7726C4638,7792 4566,7909 4365,8043C4328,8068 4327,8070 4350,8071C4383,8073 4379,8073 4427,8065C4487,8056 4490,8073 4447,8164C4409,8244 4349,8316 4292,8352C4257,8373 4257,8373 4281,8383C4350,8409 4456,8383 4509,8326C4523,8312 4542,8300 4553,8300C4570,8300 4572,8305 4566,8338C4562,8358 4556,8411 4554,8455C4549,8525 4552,8547 4579,8634C4610,8733 4612,8776 4588,8823C4580,8840 4582,8839 4619,8821C4641,8809 4674,8784 4693,8765ZM4108,8741C4129,8730 4152,8715 4159,8706C4170,8693 4168,8690 4143,8684C4063,8666 3990,8596 3990,8539C3990,8494 4014,8484 4079,8501C4102,8507 4116,8430 4099,8394C4086,8368 4072,8362 3935,8325C3794,8286 3628,8225 3537,8179C3485,8152 3440,8102 3440,8071C3440,8045 3465,8010 3484,8010C3490,8010 3506,8001 3519,7991L3543,7973L3507,7914C3468,7852 3435,7743 3443,7704C3453,7650 3432,7655 3366,7720C3283,7802 3232,7829 3160,7829C3068,7830 2998,7786 2965,7708C2947,7664 2947,7648 2961,7598C2974,7548 2994,7549 3049,7606C3108,7667 3126,7663 3168,7580C3211,7493 3234,7372 3220,7305C3209,7254 3166,7170 3151,7170C3146,7170 3129,7194 3112,7223C3058,7319 2928,7484 2829,7582C2776,7635 2728,7689 2724,7702C2712,7743 2661,7808 2603,7857C2480,7963 2449,7995 2424,8046C2394,8107 2388,8183 2409,8223C2428,8259 2435,8257 2448,8212C2464,8160 2504,8118 2533,8122C2552,8125 2556,8133 2563,8190C2574,8280 2605,8338 2665,8378L2715,8412L2718,8367C2723,8299 2741,8300 2815,8374C2896,8455 2979,8498 3071,8506C3134,8512 3143,8510 3226,8472C3345,8418 3353,8416 3445,8419C3536,8421 3597,8434 3655,8463C3712,8491 3746,8526 3791,8602C3834,8675 3902,8741 3952,8758C3995,8772 4061,8765 4108,8741ZM6710,8655C6725,8589 6724,8492 6709,8441C6702,8416 6674,8374 6644,8340C6615,8308 6588,8271 6584,8258C6580,8245 6562,8217 6544,8196C6474,8114 6458,7973 6504,7837C6518,7794 6530,7757 6530,7755C6530,7752 6508,7750 6482,7750C6379,7750 6291,7668 6282,7565C6277,7510 6278,7509 6322,7466C6366,7425 6450,7390 6508,7390C6541,7390 6535,7376 6480,7326C6359,7219 6181,7207 5971,7293C5851,7343 5756,7334 5682,7266C5644,7233 5628,7192 5619,7110C5613,7059 5601,7016 5580,6974C5546,6907 5467,6802 5444,6793C5403,6778 5310,6845 5310,6891C5310,6929 5282,6950 5230,6950C5194,6950 5178,6945 5161,6926C5140,6903 5139,6898 5146,6784C5154,6644 5137,6566 5088,6506C5040,6447 4927,6401 4944,6447C4948,6457 4955,6496 4960,6535C4985,6732 4916,6853 4781,6852C4716,6851 4696,6841 4601,6762C4554,6723 4485,6676 4446,6657L4375,6622L4297,6647L4219,6673L4065,6660C3980,6653 3892,6650 3869,6654C3831,6660 3730,6698 3730,6706C3730,6713 3806,6839 3839,6885C3988,7096 4159,7252 4323,7324C4352,7337 4411,7355 4455,7365C4598,7396 4635,7427 4655,7527L4666,7581L4704,7551C4725,7534 4746,7520 4749,7520C4770,7520 4789,7551 4798,7600C4814,7685 4826,7707 4868,7734C4918,7765 4960,7816 4960,7844C4960,7871 4986,7896 5057,7939C5111,7973 5140,8021 5140,8080C5140,8097 5145,8110 5153,8110C5177,8110 5231,8069 5251,8035C5277,7991 5306,7989 5364,8029C5421,8068 5500,8156 5525,8207L5544,8247L5611,8248C5695,8248 5774,8271 5827,8309C5849,8325 5876,8337 5886,8337C5914,8334 5966,8430 5986,8519C5995,8561 6011,8604 6021,8614C6039,8633 6039,8633 6050,8604C6097,8484 6111,8355 6086,8262C6070,8197 6083,8194 6125,8252C6142,8274 6202,8335 6260,8386C6339,8457 6381,8486 6429,8505C6534,8547 6616,8614 6666,8698C6687,8735 6693,8729 6710,8655ZM1886,8191C1862,8146 1866,8124 1903,8098C1928,8080 1947,8075 1997,8076L2059,8076L1995,8009C1960,7972 1926,7926 1919,7906C1904,7863 1882,7852 1871,7882C1867,7893 1848,7908 1829,7914C1784,7929 1782,7952 1821,8013C1851,8060 1854,8071 1851,8134C1850,8191 1853,8208 1872,8236C1894,8269 1895,8269 1898,8246C1900,8232 1894,8208 1886,8191ZM6678,8149C6804,8045 6872,7935 6912,7770C6930,7700 6933,7652 6934,7495C6935,7276 6928,7241 6853,7078C6793,6947 6786,6882 6824,6830C6892,6736 6896,6705 6857,6584C6819,6469 6815,6410 6839,6316C6864,6221 6922,6110 7008,5994C7068,5913 7071,5906 7054,5893C7044,5886 7026,5880 7013,5880C7000,5880 6987,5873 6984,5865C6975,5842 6963,5847 6943,5880C6931,5901 6919,5910 6905,5908C6887,5905 6885,5897 6884,5820C6880,5577 6810,5407 6575,5073C6503,4970 6506,4912 6584,4875C6658,4840 6654,4809 6577,4818C6501,4826 6431,4876 6404,4939C6383,4989 6385,5001 6441,5149C6483,5258 6493,5298 6494,5350C6495,5411 6492,5419 6453,5479C6406,5548 6401,5578 6421,5670C6430,5710 6429,5731 6416,5773C6408,5801 6389,5879 6375,5945C6328,6168 6270,6247 6089,6338C6032,6366 5956,6414 5920,6442L5855,6495L5937,6501C6053,6510 6078,6539 6024,6602C5990,6643 5954,6717 5939,6774C5923,6837 5937,6870 5980,6870C5997,6870 6019,6879 6030,6890C6068,6928 6067,6973 6029,7067C6022,7085 6019,7102 6022,7105C6034,7117 6139,7089 6176,7064C6225,7030 6246,7035 6242,7080C6240,7099 6230,7135 6219,7159C6209,7183 6200,7204 6200,7205C6200,7206 6233,7210 6273,7212C6367,7219 6445,7254 6510,7319C6537,7346 6560,7373 6560,7379C6560,7400 6529,7417 6479,7423C6403,7432 6339,7467 6317,7513C6294,7558 6300,7594 6340,7649C6377,7700 6412,7718 6484,7723C6515,7725 6546,7732 6551,7737C6559,7745 6553,7771 6535,7821C6503,7912 6493,8001 6510,8068C6523,8123 6574,8210 6593,8210C6600,8210 6638,8182 6678,8149ZM3767,7993C3834,7962 3887,7858 3862,7807C3853,7788 3851,7791 3851,7831C3850,7894 3825,7924 3777,7922C3689,7919 3637,7861 3632,7758C3625,7648 3633,7627 3710,7544C3789,7459 3809,7412 3789,7353C3783,7333 3769,7315 3759,7313C3729,7305 3736,7280 3769,7280C3809,7280 3863,7240 3877,7200C3892,7157 3894,7090 3880,7090C3875,7090 3870,7095 3870,7100C3870,7106 3859,7122 3845,7135C3803,7178 3692,7163 3632,7107C3584,7063 3543,6950 3574,6950C3583,6950 3590,6958 3590,6970C3590,6997 3611,7040 3621,7034C3626,7031 3630,7001 3630,6967C3630,6917 3624,6895 3600,6853C3539,6746 3371,6652 3263,6663C3190,6671 3162,6625 3220,6595C3254,6577 3290,6526 3290,6495C3289,6484 3283,6462 3277,6446L3264,6416L3241,6453C3217,6492 3186,6506 3146,6496C3109,6487 3088,6445 3089,6381C3090,6260 3048,6201 2943,6180C2883,6168 2857,6149 2867,6124C2882,6084 2830,6026 2746,5990C2722,5980 2684,5960 2663,5947C2627,5924 2622,5917 2617,5869C2605,5770 2562,5771 2541,5871C2519,5971 2554,6033 2650,6065C2694,6079 2700,6085 2700,6108C2700,6123 2693,6144 2685,6154C2648,6203 2677,6280 2755,6345C2806,6387 2810,6405 2779,6470C2755,6519 2758,6570 2787,6602C2807,6625 2862,6654 2902,6664C2917,6667 2936,6677 2944,6686C2964,6706 2965,6779 2945,6827C2926,6872 2926,6873 2949,6860C2977,6845 3000,6858 3000,6889C3000,6937 3047,7016 3127,7106C3226,7216 3242,7246 3248,7335C3255,7448 3192,7642 3139,7670C3111,7685 3073,7669 3030,7625C3012,7606 2993,7593 2988,7596C2972,7606 2980,7685 3003,7724C3033,7777 3089,7805 3160,7804C3229,7804 3256,7789 3352,7701C3394,7662 3433,7630 3438,7630C3448,7630 3460,7574 3460,7523C3460,7499 3465,7490 3476,7490C3490,7490 3491,7498 3484,7558C3479,7595 3475,7663 3475,7710C3475,7786 3479,7803 3507,7860C3571,7991 3668,8040 3767,7993ZM2278,7844C2385,7822 2517,7769 2638,7697C2717,7650 2762,7615 2828,7545C2925,7445 3020,7325 3086,7218L3129,7147L3079,7091C3023,7028 2980,6949 2980,6908C2980,6875 2979,6875 2939,6896C2887,6922 2876,6908 2904,6852C2953,6755 2948,6698 2889,6686C2839,6676 2772,6633 2754,6599C2732,6556 2734,6501 2759,6452C2784,6404 2781,6393 2735,6360C2690,6327 2653,6274 2645,6229C2639,6197 2649,6161 2677,6108C2679,6105 2659,6095 2632,6086C2554,6060 2510,6002 2510,5928C2510,5838 2543,5770 2585,5770C2617,5770 2632,5793 2638,5851C2643,5908 2655,5919 2763,5971C2846,6010 2890,6057 2890,6106C2890,6125 2896,6142 2903,6144C2909,6146 2938,6153 2965,6159C3066,6183 3110,6242 3110,6358C3110,6422 3113,6434 3135,6455C3171,6492 3174,6491 3244,6409C3276,6371 3310,6417 3310,6497C3310,6540 3306,6548 3261,6591L3213,6638L3289,6642C3380,6648 3450,6675 3537,6741L3598,6788L3641,6744C3729,6654 3865,6608 3990,6628C4026,6633 4098,6638 4151,6639C4320,6642 4352,6622 4651,6328C4852,6131 4899,6070 4902,6007L4903,5972L4969,5966C5165,5948 5167,5948 5242,5969C5369,6005 5377,6001 5433,5874C5476,5777 5493,5685 5491,5571L5490,5516L5462,5543C5395,5607 5270,5550 5254,5448C5250,5427 5244,5410 5240,5410C5236,5410 5219,5440 5204,5478C5179,5535 5175,5558 5176,5630C5176,5722 5192,5766 5251,5841C5291,5892 5287,5911 5246,5871C5203,5829 5163,5755 5154,5702C5147,5656 5129,5640 5085,5640C5062,5640 5060,5643 5067,5668C5077,5702 5077,5856 5067,5893C5052,5949 5042,5908 5047,5812C5051,5737 5049,5701 5035,5655C5024,5617 5020,5581 5024,5557C5030,5519 5030,5518 5008,5524C4917,5552 4845,5534 4804,5473C4784,5443 4781,5442 4769,5457C4759,5469 4756,5500 4758,5574C4763,5714 4752,5810 4733,5810C4721,5810 4719,5802 4725,5773C4729,5752 4732,5677 4731,5605C4730,5512 4734,5468 4744,5449C4757,5424 4756,5422 4719,5406C4692,5394 4677,5379 4668,5354C4662,5335 4651,5321 4646,5323C4628,5329 4563,5434 4541,5493C4509,5580 4512,5662 4550,5736L4580,5795L4558,5810C4546,5818 4491,5849 4436,5879C4241,5983 4203,6020 4179,6125C4169,6170 4171,6318 4182,6384C4187,6417 4163,6412 4156,6379C4139,6290 4138,6184 4155,6117C4164,6079 4169,6046 4166,6042C4156,6032 3902,6037 3846,6048C3786,6060 3640,6052 3640,6036C3640,6029 3667,6026 3724,6028L3809,6032L3841,5968C3900,5850 3959,5775 4126,5605C4397,5330 4551,5138 4582,5038C4595,4994 4607,4989 4612,5025C4615,5049 4621,5046 4790,4942C5049,4782 5397,4573 5550,4485C5736,4378 5799,4337 5916,4242C6171,4037 6356,3784 6444,3520C6489,3383 6500,3314 6500,3147C6500,2985 6487,2909 6425,2723C6269,2254 5980,1901 5636,1764C5485,1703 5362,1680 5180,1680C4818,1680 4468,1766 4175,1928C4164,1934 4063,1984 3950,2039C3551,2233 3249,2440 3146,2588C3120,2625 3120,2630 3134,2652C3163,2697 3192,2785 3192,2830C3193,2889 3173,2933 3116,2999C3072,3049 3024,3127 3032,3135C3034,3137 3093,3101 3164,3055C3385,2912 3594,2812 3765,2770C3851,2748 3867,2747 4140,2753C4297,2757 4466,2764 4515,2770C4690,2791 4853,2846 4954,2920L4994,2950L5006,2893C5050,2679 5203,2486 5442,2341C5509,2300 5543,2291 5555,2310C5558,2315 5536,2382 5505,2458C5475,2534 5450,2602 5450,2608C5450,2614 5473,2595 5500,2566C5554,2509 5634,2461 5715,2437C5806,2411 5808,2422 5745,2584C5695,2714 5660,2838 5660,2884L5661,2915L5692,2875C5749,2803 5877,2683 5952,2632C6032,2578 6122,2530 6143,2530C6180,2530 6177,2553 6125,2663C6059,2805 6043,2856 6035,2955C6027,3064 6004,3163 5970,3234C5942,3293 5942,3294 5961,3319C6016,3396 5985,3461 5795,3660C5721,3738 5466,4083 5336,4282C5274,4377 5245,4407 5204,4419C5153,4433 5116,4415 5055,4344C5004,4286 4914,4220 4885,4220C4879,4220 4869,4260 4862,4309C4840,4473 4776,4638 4685,4765C4623,4852 4520,4945 4520,4914C4520,4910 4555,4871 4598,4826C4724,4692 4799,4533 4836,4320C4856,4202 4851,3971 4825,3827C4809,3741 4809,3706 4825,3722C4831,3727 4854,3845 4864,3920C4868,3945 4871,4013 4871,4072L4871,4179L4933,4212C4972,4232 5024,4274 5071,4322C5188,4441 5201,4436 5356,4208C5544,3930 5708,3709 5778,3637L5845,3569L5805,3586C5783,3595 5727,3605 5679,3608C5583,3613 5538,3598 5518,3555C5505,3526 5497,3524 5479,3547C5471,3556 5443,3574 5415,3586C5352,3616 5279,3617 5225,3590C5198,3576 5184,3573 5181,3581C5179,3587 5166,3606 5151,3622L5125,3651L5062,3562C4978,3443 4851,3299 4766,3228C4672,3149 4611,3126 4490,3127C4368,3128 4136,3177 4053,3219C3876,3308 3714,3527 3688,3712C3679,3779 3656,3855 3585,4049C3561,4116 3559,4132 3565,4204C3574,4317 3626,4569 3660,4668C3714,4826 3836,4993 3968,5090C4041,5143 4037,5169 3963,5119C3895,5072 3793,4965 3741,4887C3716,4850 3695,4820 3693,4820C3692,4820 3691,4837 3692,4858C3694,4906 3679,4933 3635,4960C3601,4981 3571,5026 3555,5080C3536,5144 3518,5169 3482,5180C3461,5187 3427,5200 3405,5210C3383,5220 3336,5241 3301,5257C3266,5272 3223,5295 3207,5308C3183,5325 3163,5330 3117,5330C3061,5330 3054,5333 3014,5370C2990,5392 2966,5410 2961,5410C2956,5410 2930,5392 2905,5370C2880,5348 2849,5330 2837,5330C2674,5327 2550,5320 2528,5312C2514,5306 2490,5285 2475,5266C2441,5222 2392,5207 2292,5209C2208,5211 2168,5194 2149,5148C2140,5125 2131,5120 2103,5120C2084,5120 2056,5113 2041,5105L2013,5091L2007,5179C2003,5227 1989,5316 1974,5376C1952,5466 1949,5500 1953,5570C1960,5687 2006,5804 2073,5878C2088,5894 2091,5903 2083,5911C2075,5919 2063,5910 2040,5879C1962,5772 1931,5676 1920,5517C1920,5513 1917,5511 1913,5512C1891,5518 1808,5495 1726,5460C1675,5438 1594,5411 1544,5399C1446,5376 1392,5377 1291,5406C1213,5427 1187,5459 1160,5564L1140,5642L1165,5688C1183,5722 1190,5750 1190,5790C1189,5864 1145,5962 1126,5931C1122,5926 1130,5904 1142,5883C1175,5829 1172,5751 1136,5685C1111,5638 1109,5628 1111,5524C1112,5462 1117,5389 1122,5360C1127,5332 1129,5303 1127,5297C1125,5291 1100,5310 1071,5340C966,5450 903,5631 912,5797C916,5872 919,5883 945,5910C961,5927 996,5948 1023,5958C1053,5970 1068,5980 1061,5984C1042,5996 994,5981 951,5950C916,5924 911,5923 907,5938C904,5947 894,5985 884,6023C873,6067 862,6090 852,6090C843,6090 840,6084 844,6075C853,6050 878,5948 885,5905C890,5870 887,5861 866,5840L840,5817L840,5849C840,5919 783,6002 707,6041L670,6061L685,6091C707,6133 756,6160 810,6160C846,6160 871,6150 940,6109C987,6081 1039,6043 1055,6026C1081,5998 1096,5992 1165,5981C1267,5964 1360,5935 1392,5911C1405,5900 1427,5863 1441,5829C1470,5754 1517,5700 1553,5700C1599,5700 1679,5777 1758,5895C1856,6042 1932,6141 1983,6187C2025,6225 2025,6225 2028,6200C2030,6186 2040,6146 2052,6110C2071,6050 2081,6037 2185,5935C2289,5833 2298,5822 2304,5777C2317,5694 2391,5675 2405,5753C2417,5815 2341,6004 2288,6048C2273,6060 2278,6070 2327,6138C2398,6237 2453,6347 2487,6457C2511,6535 2514,6562 2514,6695C2515,6858 2498,6945 2445,7051C2346,7246 2108,7294 1835,7175C1791,7156 1755,7140 1755,7140C1755,7140 1754,7177 1754,7223C1753,7269 1746,7323 1737,7346L1722,7386L1780,7398C1857,7414 1952,7463 1989,7506C2046,7570 2020,7595 1907,7584L1835,7578L1880,7624L1925,7671L1925,7757C1925,7841 1926,7844 1950,7851C1998,7864 2199,7860 2278,7844ZM1893,7807C1890,7789 1892,7758 1898,7738C1910,7696 1902,7679 1848,7628C1823,7605 1810,7585 1812,7573C1815,7557 1825,7555 1903,7559C1964,7561 1990,7559 1990,7551C1990,7513 1859,7439 1761,7420C1695,7408 1652,7384 1631,7348C1622,7333 1603,7311 1588,7300C1571,7287 1560,7269 1560,7254C1560,7237 1555,7230 1540,7230C1484,7230 1545,7322 1653,7400C1738,7462 1757,7491 1740,7535C1730,7562 1732,7567 1790,7621C1823,7653 1850,7686 1850,7695C1850,7704 1839,7722 1825,7736L1800,7761L1825,7770C1839,7775 1853,7788 1857,7797C1875,7847 1901,7854 1893,7807ZM1727,7240C1732,7148 1716,7118 1637,7067C1579,7030 1478,6919 1437,6848C1423,6824 1406,6776 1400,6742C1384,6652 1374,6630 1328,6588C1284,6546 1274,6544 1204,6565C1177,6573 1141,6580 1123,6580L1091,6580L1108,6610C1129,6646 1135,6647 1183,6614C1205,6600 1228,6591 1237,6594C1259,6603 1248,6672 1216,6720C1203,6741 1194,6760 1197,6764C1200,6767 1218,6763 1236,6755C1255,6747 1271,6744 1271,6748C1272,6752 1273,6760 1274,6765C1274,6771 1290,6805 1308,6843C1338,6904 1343,6910 1366,6904C1394,6897 1394,6895 1375,6985C1367,7023 1363,7056 1365,7059C1368,7061 1387,7058 1407,7052C1456,7037 1467,7048 1452,7098C1433,7160 1436,7180 1463,7180C1476,7180 1507,7187 1532,7196C1572,7209 1579,7216 1584,7245C1589,7269 1599,7283 1618,7292C1633,7299 1646,7314 1648,7325C1650,7336 1662,7353 1673,7362C1694,7379 1695,7378 1709,7347C1717,7329 1725,7281 1727,7240ZM5937,7279C6000,7251 6099,7220 6126,7220C6155,7220 6185,7184 6204,7127C6213,7101 6220,7077 6220,7075C6220,7072 6197,7082 6168,7097C6135,7114 6095,7126 6059,7128C6004,7132 6001,7131 5995,7107C5991,7091 5996,7068 6009,7042C6038,6986 6037,6926 6008,6906C5996,6897 5973,6890 5958,6890C5920,6890 5906,6860 5913,6790C5918,6729 5943,6673 5996,6598C6025,6557 6027,6550 6013,6539C5999,6527 5914,6524 5840,6532C5752,6542 5913,6396 6085,6310C6242,6232 6299,6161 6340,5987C6365,5883 6365,5882 6333,5921C6279,5985 6126,6062 6101,6037C6081,6017 6089,5976 6124,5920C6182,5826 6203,5750 6204,5630C6205,5553 6200,5511 6187,5473C6165,5410 6150,5405 6150,5459C6150,5514 6113,5627 6079,5676C6048,5722 5975,5780 5950,5780C5941,5780 5929,5775 5923,5769C5910,5756 5883,5799 5811,5950C5697,6192 5650,6408 5650,6686C5649,6815 5648,6829 5629,6846C5612,6861 5603,6862 5570,6853C5529,6843 5527,6846 5556,6880C5592,6924 5633,7028 5645,7105C5651,7151 5666,7203 5676,7221C5719,7295 5839,7321 5937,7279ZM2259,7188C2415,7122 2495,6950 2492,6685C2490,6543 2466,6446 2398,6310C2352,6218 2341,6204 2316,6200C2281,6194 2251,6157 2244,6110C2240,6083 2244,6067 2264,6040C2278,6021 2299,5992 2310,5975C2365,5893 2396,5740 2358,5732C2341,5729 2336,5739 2326,5801C2319,5840 2293,5871 2168,5987C2094,6056 2061,6123 2052,6222C2046,6303 2069,6362 2140,6444C2234,6553 2238,6590 2166,6684C2146,6710 2130,6740 2130,6751C2130,6787 2158,6827 2210,6865C2237,6885 2269,6913 2280,6927C2304,6957 2306,7018 2286,7058C2268,7093 2183,7173 2142,7194C2124,7203 2110,7212 2110,7215C2110,7225 2219,7206 2259,7188ZM2320,6173C2319,6168 2308,6152 2295,6135C2265,6099 2261,6116 2291,6154C2312,6180 2320,6186 2320,6173ZM665,6013C641,5956 628,5884 627,5800C626,5701 635,5657 677,5552C713,5462 700,5454 651,5537C543,5719 529,5876 611,5988C642,6030 680,6048 665,6013ZM759,5971C827,5903 835,5794 779,5704C756,5666 755,5626 776,5525C798,5417 784,5411 730,5504C684,5585 660,5665 653,5757C645,5873 674,6010 707,6010C714,6010 737,5993 759,5971ZM5148,5585C5151,5536 5184,5444 5216,5397C5242,5357 5242,5355 5237,5221C5233,5095 5214,5000 5191,4986C5184,4981 5117,5192 5080,5335C5068,5379 5057,5449 5056,5491C5054,5533 5050,5572 5046,5578C5032,5600 5051,5615 5098,5618L5145,5620L5148,5585ZM5455,5509C5475,5471 5473,5413 5450,5305C5415,5145 5320,4992 5227,4943C5199,4929 5198,4929 5205,4946C5252,5052 5262,5107 5267,5265C5270,5353 5276,5439 5281,5456C5293,5497 5330,5531 5372,5539C5418,5549 5439,5542 5455,5509ZM4998,5498C5025,5490 5030,5484 5030,5457C5030,5419 5084,5213 5138,5043C5167,4953 5174,4920 5164,4920C5157,4920 5119,4951 5081,4990C4964,5106 4799,5378 4813,5430C4824,5469 4845,5491 4886,5505C4923,5517 4937,5517 4998,5498ZM4824,5313C4879,5208 4971,5069 5028,5008C5075,4957 5075,4957 5045,4964C4938,4988 4797,5097 4719,5214C4685,5266 4680,5281 4684,5315C4689,5361 4719,5390 4759,5390C4781,5390 4790,5379 4824,5313ZM3007,5339C3050,5299 3054,5298 3101,5304C3146,5310 3155,5307 3217,5270C3254,5248 3309,5221 3339,5209C3370,5198 3399,5185 3405,5180C3410,5176 3434,5167 3458,5160C3504,5148 3503,5149 3544,5038C3554,5012 3573,4980 3587,4968C3668,4896 3672,4891 3665,4862C3662,4846 3664,4821 3670,4806C3676,4789 3677,4773 3671,4766C3651,4741 3610,4605 3579,4460C3553,4333 3546,4282 3546,4180C3546,4058 3546,4053 3581,3975C3624,3880 3647,3805 3666,3696C3683,3599 3729,3499 3798,3408L3849,3341L3793,3316C3654,3252 3504,3219 3350,3218C3231,3217 3169,3225 3054,3256C2835,3314 2614,3436 2410,3612C2185,3807 2048,4044 1984,4351C1956,4485 1959,4738 1990,4918C2013,5053 2016,5063 2041,5076C2056,5083 2084,5092 2104,5094C2149,5100 2157,5105 2175,5140C2194,5176 2219,5184 2298,5181C2391,5177 2466,5202 2491,5245C2515,5284 2553,5300 2625,5300C2756,5299 2867,5306 2885,5317C2896,5323 2916,5340 2929,5354C2943,5368 2956,5380 2958,5380C2961,5380 2983,5361 3007,5339ZM1109,5136C1126,5116 1223,5080 1261,5080C1303,5080 1342,5057 1384,5008C1421,4965 1463,4887 1475,4837C1483,4805 1472,4680 1461,4680C1457,4680 1453,4704 1451,4733C1449,4795 1434,4845 1408,4883C1391,4907 1382,4910 1341,4909C1311,4908 1284,4913 1268,4924C1243,4940 1240,4940 1194,4916C1167,4903 1121,4880 1092,4865C1064,4850 1035,4830 1030,4819C1024,4809 997,4789 970,4775C934,4757 915,4739 900,4710C876,4663 849,4644 795,4635C767,4630 746,4618 725,4594L695,4561L663,4581C626,4605 620,4634 650,4650C689,4671 694,4698 666,4741C617,4814 642,4885 731,4931C753,4942 770,4955 770,4961C770,4966 785,4977 804,4985C822,4993 840,5006 843,5014C846,5022 861,5031 877,5034C919,5044 1040,5138 1040,5161C1040,5179 1042,5180 1068,5166C1084,5158 1102,5144 1109,5136ZM1412,4775C1424,4770 1429,4750 1432,4699C1438,4589 1490,4558 1490,4665C1490,4695 1494,4721 1499,4724C1517,4736 1821,4454 1917,4338L1973,4269L1902,4122C1863,4041 1820,3949 1807,3917L1783,3859L1757,3898C1743,3920 1699,3969 1660,4008C1619,4048 1592,4083 1594,4091C1597,4099 1602,4118 1604,4135C1607,4151 1618,4176 1628,4190C1691,4277 1690,4388 1625,4473C1565,4551 1444,4578 1392,4526C1367,4502 1365,4493 1366,4422C1366,4364 1373,4330 1392,4284L1417,4222L1369,4260C1298,4316 1194,4354 1130,4348C1065,4342 1007,4302 962,4235C943,4207 922,4184 914,4182C857,4169 1038,3907 1123,3882C1141,3876 1180,3869 1210,3865C1323,3852 1402,3790 1435,3690C1450,3645 1452,3617 1446,3503C1441,3405 1442,3365 1451,3354C1460,3343 1459,3340 1447,3340C1425,3340 1410,3371 1410,3417C1410,3505 1371,3574 1299,3610C1278,3621 1257,3637 1252,3646C1247,3655 1238,3660 1231,3656C1224,3651 1234,3628 1263,3587C1427,3354 1465,3168 1385,3005C1372,2978 1338,2924 1310,2885C1158,2676 1136,2500 1260,2500C1321,2500 1345,2514 1364,2559C1372,2582 1382,2600 1385,2600C1395,2600 1325,2444 1310,2435C1304,2431 1278,2425 1252,2421C1192,2413 1188,2395 1230,2330C1314,2199 1310,2105 1208,1855C1183,1795 1158,1721 1151,1692C1133,1607 1137,1474 1160,1391C1200,1247 1238,1203 1312,1213C1350,1218 1352,1217 1336,1202C1310,1176 1218,1180 1183,1208C1118,1259 1075,1278 1008,1283C932,1289 898,1304 853,1352C786,1422 754,1554 763,1725C771,1889 825,2012 950,2155C984,2194 1016,2236 1022,2250C1038,2290 1033,2355 1009,2410C973,2495 898,2530 811,2504C707,2473 641,2357 669,2255C675,2234 678,2214 675,2212C673,2210 648,2220 620,2236C531,2284 504,2357 539,2451C571,2535 626,2591 735,2651C851,2715 983,2818 1006,2862C1015,2880 1023,2918 1024,2947C1024,2993 1020,3004 992,3033C972,3053 938,3073 907,3083C798,3117 710,3204 689,3298C672,3373 683,3380 760,3346C827,3316 871,3310 895,3330C920,3351 913,3390 874,3432C854,3454 823,3504 804,3543C773,3608 772,3616 786,3630C800,3644 806,3640 844,3596C881,3554 891,3548 913,3554C980,3570 965,3628 874,3707C806,3766 771,3834 728,3997C661,4251 700,4399 885,4585C952,4651 983,4674 1070,4717C1128,4746 1193,4774 1215,4779C1255,4789 1383,4786 1412,4775ZM1554,4502C1571,4492 1598,4465 1615,4441C1641,4404 1645,4390 1645,4331C1645,4273 1641,4258 1613,4214C1595,4186 1580,4152 1580,4138C1580,4110 1546,4060 1526,4060C1520,4060 1507,4048 1498,4033C1456,3961 1432,3952 1315,3964C1288,3967 1254,3969 1242,3970C1208,3970 1154,4029 1140,4079C1134,4103 1130,4124 1132,4125C1134,4127 1155,4116 1179,4099C1216,4074 1233,4070 1287,4070C1343,4070 1353,4073 1357,4090C1360,4101 1378,4119 1397,4131C1454,4166 1455,4189 1411,4310C1383,4387 1383,4483 1411,4511C1429,4529 1440,4531 1478,4526C1503,4523 1537,4512 1554,4502ZM2080,3989C2154,3842 2255,3713 2384,3601C2558,3451 2736,3340 2908,3275L3005,3239L3002,3190C2997,3127 3029,3057 3099,2976C3181,2880 3188,2822 3133,2712C3099,2642 3046,2602 2912,2541C2736,2461 2570,2339 2530,2260C2521,2241 2510,2194 2506,2156C2493,2023 2444,1957 2343,1935L2310,1928L2310,1972C2310,2075 2265,2152 2180,2196C2116,2229 2016,2214 1957,2162C1932,2140 1925,2153 1925,2225C1925,2272 1930,2293 1943,2308C1964,2331 2037,2350 2102,2350C2130,2350 2153,2358 2175,2374C2218,2407 2276,2498 2263,2511C2256,2518 2244,2507 2227,2477C2212,2453 2185,2419 2165,2401C2133,2374 2122,2370 2069,2370C2007,2370 1943,2350 1924,2324C1914,2311 1907,2312 1875,2334C1839,2359 1803,2370 1737,2375C1719,2377 1699,2378 1693,2379C1677,2380 1676,2412 1692,2428C1707,2443 1742,2443 1846,2428C1915,2418 1937,2419 1993,2433C2106,2461 2258,2540 2198,2540C2192,2540 2217,2559 2256,2582C2294,2605 2340,2635 2358,2648C2419,2694 2445,2778 2420,2844C2404,2888 2390,2874 2397,2821L2403,2771L2344,2754C2257,2728 2115,2730 2020,2759C1979,2772 1907,2786 1860,2790C1781,2797 1774,2800 1748,2831C1629,2973 1632,3320 1755,3698C1800,3838 1855,3972 1928,4119L1984,4232L2011,4153C2026,4109 2057,4035 2080,3989ZM703,3997C741,3841 795,3732 852,3692C903,3657 934,3615 926,3594C916,3568 885,3580 858,3620C837,3651 824,3660 802,3660C768,3660 750,3644 750,3614C750,3583 813,3462 855,3413C920,3337 871,3319 757,3377C716,3397 703,3400 684,3391C664,3382 660,3373 660,3333C660,3268 696,3195 753,3142C796,3103 798,3100 772,3106C595,3145 500,3222 452,3365C401,3517 428,3721 529,3935C564,4008 643,4110 666,4110C671,4110 687,4059 703,3997ZM5161,3560C5162,3552 5153,3523 5141,3497C5127,3467 5116,3419 5113,3374C5108,3311 5104,3300 5089,3300C5079,3300 5052,3293 5030,3284L4989,3268L4956,3306L4924,3344L5005,3445C5050,3501 5095,3561 5105,3578C5123,3608 5125,3609 5141,3593C5151,3583 5160,3568 5161,3560ZM5422,3553C5489,3516 5502,3498 5544,3377C5586,3256 5583,3224 5533,3281C5465,3361 5434,3380 5379,3380C5285,3380 5220,3281 5236,3163C5242,3119 5241,3119 5220,3130C5152,3166 5116,3376 5160,3478C5186,3537 5205,3557 5257,3576C5305,3593 5361,3585 5422,3553ZM5745,3575C5829,3557 5906,3508 5938,3451C5966,3402 5966,3368 5938,3336L5915,3311L5860,3345C5830,3364 5784,3385 5758,3392C5693,3408 5647,3387 5621,3329L5602,3288L5582,3342C5537,3462 5528,3507 5542,3537C5568,3591 5622,3601 5745,3575ZM1366,3508C1381,3478 1385,3450 1372,3466C1367,3471 1351,3498 1335,3525C1309,3571 1309,3573 1329,3555C1342,3544 1358,3523 1366,3508ZM5806,3345C5888,3304 5936,3257 5960,3193C5988,3118 6006,3030 6009,2951C6012,2872 6038,2785 6097,2661C6122,2608 6144,2561 6147,2557C6155,2543 6029,2610 5966,2653C5888,2706 5770,2819 5711,2898C5663,2961 5663,2963 5657,3053C5654,3104 5646,3172 5639,3205C5625,3274 5630,3305 5661,3343C5688,3378 5738,3379 5806,3345ZM5490,3289C5540,3237 5553,3228 5575,3232C5614,3240 5621,3211 5630,3005C5636,2855 5642,2811 5663,2740C5684,2672 5731,2545 5767,2462C5775,2444 5731,2455 5650,2492C5583,2522 5491,2602 5464,2652C5457,2666 5433,2732 5411,2798C5389,2864 5347,2967 5316,3027C5267,3123 5260,3145 5260,3195C5260,3298 5302,3349 5388,3350C5429,3350 5436,3346 5490,3289ZM3924,3273C4002,3202 4091,3165 4270,3129C4398,3103 4441,3099 4520,3102C4641,3108 4700,3135 4821,3242L4909,3319L4938,3285L4968,3251L4949,3213C4925,3167 4929,3120 4966,3040L4991,2985L4955,2954C4905,2910 4784,2853 4692,2829C4575,2799 4398,2782 4143,2776C3890,2769 3816,2776 3690,2817C3542,2865 3315,2983 3124,3112C3033,3173 3023,3183 3028,3206C3032,3227 3037,3230 3059,3225C3237,3187 3383,3181 3522,3205C3615,3221 3752,3264 3815,3298C3837,3310 3859,3319 3864,3320C3868,3320 3895,3299 3924,3273ZM5134,3228C5143,3199 5154,3170 5156,3163C5159,3156 5150,3148 5133,3144C5089,3133 5060,3110 5030,3062L5003,3019L4982,3069C4952,3138 4953,3182 4988,3220C5012,3247 5074,3278 5106,3280C5112,3280 5124,3256 5134,3228ZM5213,3106C5255,3092 5272,3068 5329,2940C5378,2830 5410,2732 5410,2689C5410,2643 5438,2551 5491,2425C5513,2371 5530,2326 5528,2325C5522,2318 5394,2401 5318,2461C5159,2586 5057,2747 5030,2916C5018,2993 5034,3044 5086,3090C5124,3123 5154,3127 5213,3106ZM1857,2543C1976,2496 2031,2486 2095,2503C2141,2514 2101,2493 2032,2469C1965,2445 1906,2443 1799,2461C1712,2475 1672,2466 1663,2430C1660,2419 1650,2410 1640,2410C1630,2410 1615,2407 1606,2404C1593,2399 1590,2406 1590,2444C1590,2502 1611,2545 1653,2570C1699,2599 1725,2595 1857,2543ZM1632,2348C1604,2301 1582,2233 1575,2164C1572,2132 1567,2088 1564,2068C1552,1980 1592,1784 1641,1682C1658,1647 1669,1616 1666,1613C1659,1605 1664,1600 1601,1683C1449,1885 1414,2077 1497,2246C1532,2318 1592,2380 1626,2380L1652,2380L1632,2348ZM1837,2326C1881,2304 1891,2287 1896,2226C1898,2196 1905,2159 1910,2145C1922,2113 1912,2004 1893,1966C1831,1844 1833,1640 1897,1517C1905,1501 1910,1486 1908,1484C1906,1482 1877,1493 1844,1509C1679,1587 1580,1810 1593,2075C1599,2185 1624,2293 1654,2336C1667,2355 1675,2356 1738,2349C1777,2345 1821,2335 1837,2326ZM2199,2155C2263,2111 2284,2057 2281,1938C2280,1852 2284,1827 2309,1750C2326,1701 2364,1612 2395,1551L2450,1440L2384,1465C2284,1503 2202,1556 2125,1635C1971,1792 1896,2006 1958,2114C2001,2190 2120,2210 2199,2155Z" style="fill:rgb(219,46,77);fill-rule:nonzero;stroke:rgb(219,46,77);stroke-width:27.47px;"/>
                </g>
                <g transform="matrix(1.09206,0,0,1.09206,-365.977,-156.113)">
                    <path d="M1253,7412C1247,7408 1232,7376 1219,7340C1201,7289 1196,7253 1196,7174L1195,7073L1163,7080C1124,7089 1078,7081 1083,7066C1085,7060 1098,7056 1113,7058C1127,7060 1154,7057 1173,7052C1216,7040 1230,7051 1230,7095C1230,7154 1290,7301 1334,7348L1355,7372L1327,7396C1299,7420 1274,7426 1253,7412ZM1307,7382C1315,7377 1310,7362 1289,7330C1273,7306 1252,7265 1242,7238C1233,7212 1222,7190 1217,7190C1212,7190 1211,7198 1214,7208C1216,7217 1221,7241 1225,7260C1244,7364 1271,7405 1307,7382Z" style="fill:rgb(219,46,77);fill-rule:nonzero;stroke:rgb(219,46,77);stroke-width:27.47px;"/>
                </g>
                <g transform="matrix(1.09206,0,0,1.09206,-365.977,-156.113)">
                    <path d="M1025,6805C987,6768 994,6668 1033,6683C1041,6686 1050,6704 1054,6723C1058,6742 1067,6763 1075,6770C1095,6786 1094,6816 1074,6824C1052,6833 1052,6833 1025,6805ZM1041,6766C1032,6748 1023,6737 1022,6742C1018,6750 1046,6800 1054,6800C1056,6800 1050,6785 1041,6766Z" style="fill:rgb(219,46,77);fill-rule:nonzero;stroke:rgb(219,46,77);stroke-width:27.47px;"/>
                </g>
                <g transform="matrix(1.09206,0,0,1.09206,-365.977,-156.113)">
                    <path d="M5772,5698C5747,5673 5759,5617 5805,5541C5856,5456 5864,5424 5856,5348C5833,5133 5839,5080 5890,5028C5952,4966 6063,5013 6063,5101C6063,5121 6053,5142 6032,5163C5990,5206 5991,5237 6035,5316C6055,5351 6070,5392 6070,5411C6070,5460 6028,5522 5954,5580C5918,5608 5871,5649 5850,5671C5811,5712 5792,5718 5772,5698ZM5947,5551C6053,5465 6063,5424 6005,5315C5960,5229 5960,5199 6005,5154C6046,5114 6049,5082 6018,5053C5941,4984 5873,5038 5869,5171C5868,5206 5873,5269 5880,5312C5896,5408 5884,5466 5831,5547C5784,5620 5778,5636 5786,5667C5793,5692 5793,5691 5844,5643C5872,5616 5919,5574 5947,5551Z" style="fill:rgb(219,46,77);fill-rule:nonzero;stroke:rgb(219,46,77);stroke-width:27.47px;"/>
                </g>
            </g>
        </g>
    </g>
</svg>
