<?xml version="1.0" encoding="UTF-8" standalone="no"?>
<!DOCTYPE svg PUBLIC "-//W3C//DTD SVG 1.1//EN" "http://www.w3.org/Graphics/SVG/1.1/DTD/svg11.dtd">
<svg width="100%" height="100%" viewBox="0 0 728 908" version="1.1" xmlns="http://www.w3.org/2000/svg" xmlns:xlink="http://www.w3.org/1999/xlink" xml:space="preserve" xmlns:serif="http://www.serif.com/" style="fill-rule:evenodd;clip-rule:evenodd;stroke-linejoin:round;stroke-miterlimit:2;">
    <g transform="matrix(0.1,0,0,-0.1,0,908)">
        <g transform="matrix(-1.07266,0,0,1.07266,7464.06,-301.655)">
            <path d="M3885,8610C4005,8599 4096,8583 4130,8565C4155,8552 4157,8545 4169,8418C4176,8345 4189,8267 4197,8245C4205,8223 4222,8174 4234,8135C4247,8097 4266,8045 4278,8020C4289,7995 4306,7955 4315,7930C4324,7905 4340,7874 4350,7860C4366,7840 4364,7852 4339,7920C4322,7967 4299,8025 4288,8050C4277,8075 4258,8125 4245,8162L4222,8229L4262,8235C4309,8243 4365,8236 4480,8208C4634,8171 4750,8096 4908,7932C4960,7878 4991,7850 4979,7869C4943,7924 4780,8080 4717,8121C4660,8158 4659,8159 4682,8171C4729,8196 4809,8262 4815,8281C4819,8291 4827,8300 4834,8300C4850,8300 4887,8383 4896,8438C4899,8463 4908,8484 4917,8487C4933,8493 5058,8431 5105,8394C5145,8362 5148,8307 5116,8190C5085,8076 5065,7871 5076,7780C5081,7744 5083,7705 5082,7692C5080,7680 5095,7632 5114,7587C5196,7394 5215,7290 5187,7198C5171,7148 5091,7010 5015,6901C4972,6840 4970,6835 4970,6766C4970,6727 4975,6677 4980,6655C4991,6604 4980,6591 4884,6544C4790,6497 4707,6489 4637,6519C4583,6542 4470,6617 4470,6629C4470,6639 4419,6663 4412,6656C4408,6651 4438,6622 4500,6571C4519,6555 4521,6551 4508,6550C4479,6550 4403,6588 4363,6623C4319,6663 4264,6693 4247,6687C4240,6685 4251,6675 4271,6665C4299,6652 4306,6643 4302,6628C4294,6596 4322,6458 4346,6408C4372,6357 4397,6332 4388,6367C4383,6385 4389,6389 4438,6399C4468,6405 4506,6410 4522,6410C4537,6410 4550,6415 4550,6420C4550,6435 4472,6432 4418,6416L4372,6401L4361,6428C4342,6476 4316,6620 4326,6620C4328,6620 4349,6606 4373,6589C4429,6548 4474,6530 4519,6530C4540,6530 4584,6519 4618,6505C4744,6454 4867,6476 4971,6569L5014,6607L5002,6672C4987,6751 4987,6810 5000,6845C5005,6859 5039,6912 5075,6962C5167,7090 5208,7178 5216,7265C5223,7346 5216,7378 5154,7545C5117,7647 5109,7681 5102,7773C5092,7914 5103,8049 5136,8183C5169,8317 5166,8373 5123,8408C5090,8435 5010,8479 4961,8497C4907,8517 4893,8507 4871,8432C4840,8329 4773,8249 4665,8186C4635,8169 4633,8169 4576,8195C4502,8229 4404,8250 4314,8250C4274,8250 4237,8255 4227,8263C4215,8272 4206,8309 4194,8405C4185,8477 4172,8545 4164,8557C4141,8593 4061,8612 3915,8615L3785,8619L3885,8610Z" style="fill:rgb(199,0,200);fill-rule:nonzero;stroke:rgb(199,0,200);stroke-width:46.61px;"/>
        </g>
        <g transform="matrix(-1.07266,0,0,1.07266,7464.06,-301.655)">
            <path d="M3729,8579C3715,8552 3721,8479 3750,8355C3766,8281 3771,8236 3767,8180C3763,8103 3739,8018 3720,8012C3715,8010 3710,8001 3710,7992C3710,7983 3684,7942 3652,7903C3586,7821 3510,7690 3485,7615C3474,7585 3466,7519 3463,7449C3458,7339 3459,7328 3485,7259C3509,7196 3526,7172 3602,7094L3691,7002L3632,6946C3589,6905 3563,6869 3537,6812C3491,6714 3480,6657 3480,6509C3480,6443 3478,6390 3475,6390C3467,6390 3398,6431 3354,6461C3233,6544 3051,6610 2934,6613L2857,6615L2815,6670C2791,6701 2755,6742 2734,6761C2697,6794 2695,6798 2694,6860C2691,7102 2384,7223 2207,7052C2149,6996 2118,6928 2113,6845C2109,6780 2111,6771 2142,6720C2175,6665 2245,6604 2312,6571C2345,6554 2356,6554 2430,6566C2474,6573 2531,6588 2555,6600C2606,6625 2666,6692 2685,6746L2697,6782L2740,6733C2763,6707 2796,6665 2813,6640C2904,6508 3008,6402 3112,6334L3160,6303L3121,6277C3040,6223 2994,6129 3005,6040C3009,6010 3018,5970 3026,5951C3034,5933 3040,5917 3040,5916C3040,5916 3002,5915 2956,5915C2902,5915 2866,5910 2859,5903C2849,5893 2858,5892 2901,5896L2955,5902L2897,5866C2864,5846 2811,5811 2778,5788C2706,5740 2667,5733 2550,5749C2485,5758 2453,5768 2402,5797C2304,5855 2289,5862 2283,5857C2281,5854 2290,5846 2304,5838C2318,5831 2356,5808 2390,5788C2469,5739 2515,5727 2630,5726L2725,5725L2855,5813C2927,5861 2995,5900 3009,5900C3022,5900 3053,5881 3082,5856C3129,5813 3219,5770 3261,5770C3341,5770 3457,5835 3500,5904C3528,5951 3546,5950 3552,5902C3564,5814 3675,5634 3815,5475C4044,5214 4133,5053 4115,4931C4112,4906 4106,4874 4104,4860C4099,4836 4100,4836 4115,4864C4140,4906 4133,5049 4103,5110C4066,5184 3991,5290 3880,5425C3764,5565 3651,5721 3615,5790C3590,5838 3566,5919 3573,5927C3581,5934 3660,5910 3660,5900C3660,5894 3665,5890 3670,5890C3676,5890 3680,5896 3680,5903C3680,5916 3590,5950 3554,5950C3537,5950 3535,5958 3535,6043C3534,6147 3521,6179 3447,6257C3397,6309 3345,6325 3244,6317L3168,6311L3071,6390C2975,6467 2880,6566 2880,6589C2880,6603 2902,6603 2992,6589C3089,6574 3257,6506 3325,6454C3342,6442 3388,6415 3428,6395C3511,6352 3557,6352 3580,6394C3590,6414 3600,6418 3639,6418C3721,6417 3875,6316 3940,6221C4035,6080 4059,5999 4062,5804L4065,5662L4113,5593C4165,5517 4283,5397 4344,5356C4369,5339 4396,5330 4422,5330C4459,5330 4468,5337 4539,5409C4608,5480 4621,5489 4673,5500C4717,5510 4739,5511 4769,5502C4826,5484 4835,5468 4837,5377C4841,5177 4883,5057 5036,4815C5053,4788 5081,4740 5097,4710C5114,4680 5149,4620 5174,4578C5218,4503 5223,4478 5185,4520C5161,4546 5036,4623 4991,4638C4972,4645 4927,4650 4890,4650C4800,4650 4726,4614 4688,4550C4646,4480 4621,4364 4610,4186C4604,4098 4598,4025 4596,4023C4594,4021 4587,4059 4580,4107C4567,4206 4535,4348 4516,4394C4509,4411 4475,4467 4441,4518C4346,4658 4350,4633 4448,4474C4512,4370 4526,4326 4555,4143C4617,3763 4560,3454 4373,3162C4243,2957 4170,2895 3860,2725C3700,2637 3636,2599 3612,2577C3580,2547 3514,2446 3419,2278C3374,2199 3309,2090 3275,2035C3240,1980 3206,1919 3197,1900C3189,1881 3153,1816 3116,1755C3080,1695 3043,1623 3035,1595C3009,1510 3004,1328 3025,1224C3043,1131 3073,1039 3096,1005C3116,976 3114,973 3063,961C3015,949 2924,902 2933,894C2935,892 2962,901 2993,915C3075,953 3171,959 3230,931C3282,906 3302,882 3324,817C3354,729 3337,636 3284,589C3244,553 3174,527 3109,522C3029,517 2974,538 2907,599C2883,622 2860,640 2856,640C2845,640 2850,602 2863,596C2869,593 2887,582 2901,572C2981,518 2997,511 3055,505C3129,497 3169,504 3230,536C3341,594 3377,661 3357,776C3342,866 3255,970 3196,970C3176,970 3176,973 3200,1020C3262,1141 3180,1310 3059,1310L3027,1310L3034,1408C3046,1579 3056,1616 3119,1720C3151,1772 3203,1862 3235,1920C3267,1978 3312,2055 3336,2092C3361,2129 3384,2170 3389,2184C3399,2209 3488,2365 3534,2439C3549,2462 3568,2480 3578,2480C3587,2479 3642,2475 3700,2470C3834,2459 3945,2469 4185,2515C4303,2538 4525,2605 4596,2640C4631,2656 4661,2670 4663,2670C4674,2670 4812,2758 4889,2814C5128,2989 5292,3177 5408,3411C5477,3550 5480,3559 5490,3662C5506,3814 5493,3932 5440,4095C5391,4246 5355,4320 5233,4525C5183,4608 5137,4686 5130,4700C5115,4729 5104,4737 5230,4630C5453,4441 5640,4185 5719,3959C5785,3771 5793,3597 5746,3385C5717,3254 5692,3194 5609,3057C5502,2880 5422,2786 5225,2603C5129,2514 5125,2509 5125,2468C5124,2444 5114,2362 5102,2285C5076,2117 5075,2114 5084,2022C5092,1938 5113,1884 5172,1797C5310,1594 5469,1445 5627,1373C5679,1349 5688,1348 5799,1354C6012,1367 6083,1364 6144,1341C6273,1293 6317,1242 6308,1148C6300,1069 6247,1030 6147,1030L6094,1030L6094,1118C6094,1264 6059,1290 5883,1276C5796,1270 5718,1247 5698,1223C5683,1204 5692,1206 5770,1236C5802,1249 5845,1254 5922,1254C6019,1255 6031,1253 6051,1234C6081,1204 6089,1099 6066,1050C6025,964 6022,961 5949,939C5882,919 5869,918 5677,927C5428,939 5419,942 5242,1087C5077,1222 4966,1296 4885,1324C4849,1336 4823,1349 4826,1352C4842,1369 4858,1478 4850,1520C4845,1545 4841,1568 4840,1572C4839,1591 4782,1644 4739,1665C4700,1685 4675,1690 4615,1690C4549,1690 4540,1692 4540,1709C4540,1719 4551,1742 4565,1761C4578,1780 4603,1821 4619,1852C4636,1883 4663,1930 4680,1956C4736,2045 4775,2230 4765,2360C4751,2530 4717,2670 4689,2670C4682,2670 4681,2663 4685,2652C4732,2537 4733,2528 4734,2350C4735,2194 4732,2166 4712,2095C4686,2009 4621,1879 4558,1791C4537,1761 4520,1725 4520,1711C4520,1691 4510,1680 4479,1662C4382,1606 4351,1481 4408,1369C4430,1325 4445,1310 4488,1286C4586,1234 4706,1241 4776,1302L4811,1333L4868,1310C4972,1267 5106,1172 5265,1028C5303,993 5390,947 5455,927C5515,909 5676,896 5822,898C5915,899 5936,902 5984,925C6015,939 6049,963 6060,977C6079,1001 6088,1004 6157,1007C6240,1010 6279,1026 6314,1073C6340,1108 6346,1210 6325,1251C6297,1303 6162,1372 6058,1386C6032,1390 5944,1387 5863,1380C5661,1364 5617,1376 5500,1476C5486,1488 5443,1525 5404,1558C5284,1660 5152,1843 5126,1944C5092,2074 5094,2145 5142,2400C5163,2511 5165,2516 5204,2550C5314,2645 5429,2764 5489,2845C5594,2986 5680,3117 5711,3184C5739,3246 5778,3376 5786,3440C5788,3459 5795,3503 5801,3538C5811,3603 5801,3751 5780,3844C5761,3928 5710,4054 5655,4153C5546,4347 5416,4499 5215,4668C5171,4705 5117,4753 5095,4775C4996,4875 4882,5143 4864,5317C4858,5375 4858,5377 4896,5421L4935,5466L4985,5436C5013,5419 5064,5387 5100,5364C5136,5341 5233,5287 5315,5245C5579,5108 5583,5104 5767,4870C5873,4734 5931,4651 5988,4555C6037,4472 6058,4445 6065,4452C6070,4457 6043,4506 5965,4633C5936,4679 5844,4803 5751,4920C5613,5094 5539,5155 5340,5255C5193,5329 5123,5368 5085,5395C5069,5407 5031,5430 5003,5446C4974,5462 4950,5479 4950,5483C4950,5487 4956,5503 4964,5518C4983,5556 5000,5639 5014,5760L5025,5865L5097,5780C5247,5605 5495,5425 5664,5370C5754,5341 5851,5246 5975,5065C6065,4934 6081,4912 6170,4800C6212,4748 6265,4676 6289,4640C6376,4512 6506,4367 6593,4303C6624,4280 6661,4237 6694,4186C6723,4141 6767,4086 6793,4064C6848,4016 6865,3975 6881,3854C6891,3779 6890,3767 6876,3751C6867,3741 6853,3712 6844,3686C6828,3639 6786,3600 6750,3600C6742,3600 6712,3625 6683,3656L6630,3712L6655,3753C6686,3807 6707,3812 6713,3768C6716,3741 6717,3743 6718,3780C6719,3811 6712,3838 6696,3866C6682,3892 6675,3917 6677,3936C6680,3956 6669,3989 6639,4045C6616,4090 6601,4112 6604,4095C6608,4079 6624,4039 6640,4007C6669,3951 6670,3948 6656,3902C6635,3833 6629,3780 6643,3780C6649,3780 6634,3759 6608,3733C6583,3706 6559,3674 6555,3660C6543,3621 6520,3591 6497,3584C6436,3564 6351,3599 6329,3653C6321,3671 6315,3711 6315,3744C6316,3795 6319,3805 6343,3826C6359,3839 6380,3850 6392,3850C6409,3850 6411,3846 6406,3825C6402,3811 6403,3800 6408,3800C6419,3800 6454,3944 6447,3961C6444,3970 6441,3966 6441,3953C6439,3910 6418,3880 6381,3870C6325,3855 6304,3835 6291,3784C6261,3665 6360,3543 6471,3564C6514,3572 6569,3623 6577,3661C6580,3677 6591,3695 6601,3701C6617,3709 6622,3707 6629,3688C6638,3664 6723,3580 6738,3580C6781,3580 6859,3634 6860,3665C6860,3671 6869,3694 6881,3715C6899,3750 6901,3767 6896,3846C6889,3963 6870,4012 6804,4080C6775,4110 6730,4167 6703,4206C6676,4245 6627,4300 6594,4328C6512,4396 6363,4559 6328,4617C6313,4644 6282,4688 6260,4715C6189,4803 5995,5062 5940,5144C5831,5301 5772,5352 5625,5414C5510,5463 5459,5494 5331,5594C5213,5686 5012,5891 5003,5930C4994,5967 4896,6159 4863,6205C4810,6277 4718,6370 4676,6394C4653,6407 4617,6421 4595,6425C4544,6433 4560,6418 4619,6401C4705,6376 4838,6226 4919,6063C5006,5886 5013,5832 4973,5622C4957,5539 4899,5423 4879,5436C4874,5439 4870,5436 4870,5431C4870,5425 4866,5420 4860,5420C4855,5420 4850,5431 4850,5444C4850,5473 4803,5516 4760,5525C4744,5529 4705,5526 4673,5520C4621,5509 4609,5501 4544,5434C4470,5359 4440,5343 4393,5355C4346,5366 4144,5576 4101,5657C4095,5670 4087,5740 4085,5814C4082,5888 4075,5971 4070,6000C4058,6063 4001,6178 3949,6244C3869,6346 3709,6446 3631,6443L3587,6441L3621,6471C3640,6487 3684,6509 3719,6520C3775,6538 3793,6539 3854,6531C3968,6515 4048,6483 4102,6432C4129,6407 4153,6389 4155,6392C4163,6400 4069,6488 4039,6501C4016,6510 4012,6516 4020,6530C4029,6547 4018,6690 4003,6749C4000,6762 3997,6782 3996,6794C3995,6808 3961,6836 3875,6893C3716,6998 3558,7154 3512,7253C3483,7314 3480,7329 3480,7415C3480,7587 3532,7719 3672,7899C3746,7993 3770,8032 3776,8064C3801,8206 3802,8218 3791,8297C3785,8342 3771,8404 3760,8436C3738,8499 3735,8551 3750,8581C3757,8593 3757,8600 3751,8600C3745,8600 3736,8591 3729,8579ZM2532,7081C2587,7055 2636,6997 2661,6927C2697,6830 2664,6717 2581,6651C2476,6568 2369,6558 2270,6622C2200,6668 2187,6683 2155,6755C2132,6806 2129,6823 2135,6870C2144,6937 2166,6983 2215,7032C2278,7095 2323,7112 2410,7107C2458,7104 2502,7094 2532,7081ZM3763,6947C3791,6924 3836,6892 3861,6876L3907,6847L3854,6792C3794,6732 3777,6690 3782,6615L3785,6565L3716,6542C3678,6529 3634,6510 3618,6499C3591,6479 3552,6420 3566,6420C3570,6420 3565,6411 3555,6400C3545,6389 3531,6380 3524,6380C3505,6380 3496,6460 3503,6580C3512,6727 3548,6815 3653,6943C3674,6969 3696,6990 3701,6990C3706,6990 3734,6971 3763,6947ZM3952,6816C3973,6801 3996,6706 4005,6598C4013,6509 4014,6509 3926,6535C3898,6543 3858,6552 3838,6555L3800,6561L3800,6613C3800,6679 3827,6737 3880,6789C3927,6834 3928,6835 3952,6816ZM3375,6281C3558,6197 3563,5916 3383,5829C3327,5802 3237,5793 3188,5809C3093,5840 3029,5941 3029,6060C3028,6166 3079,6240 3182,6285C3229,6305 3326,6304 3375,6281ZM4958,4626C4987,4618 5032,4599 5058,4583C5084,4568 5112,4552 5120,4548C5128,4545 5164,4517 5200,4487C5260,4438 5271,4421 5327,4309C5434,4094 5471,3946 5471,3730C5472,3621 5470,3611 5437,3528C5376,3380 5335,3308 5244,3191C5061,2956 4727,2695 4535,2637C4508,2629 4440,2608 4385,2592C4330,2575 4220,2547 4140,2529C4003,2498 3984,2496 3793,2496C3682,2495 3589,2498 3585,2502C3571,2516 3646,2582 3724,2624C3927,2732 4070,2816 4123,2856C4154,2880 4184,2900 4189,2900C4205,2900 4314,3024 4366,3100C4514,3320 4600,3595 4600,3853C4600,3903 4605,3961 4610,3980C4616,3999 4625,4086 4630,4173C4641,4335 4664,4449 4699,4518C4726,4571 4782,4618 4827,4625C4848,4629 4870,4633 4875,4635C4893,4641 4904,4640 4958,4626ZM6695,3830C6692,3824 6682,3820 6674,3820C6659,3820 6655,3847 6667,3875C6672,3890 6675,3889 6687,3866C6695,3851 6698,3835 6695,3830ZM4726,1656C4827,1609 4858,1525 4823,1393C4808,1336 4695,1270 4610,1270C4531,1270 4446,1329 4414,1406C4393,1457 4396,1536 4422,1582C4474,1673 4615,1708 4726,1656ZM3137,1248C3193,1196 3212,1106 3182,1038C3172,1014 3156,989 3148,982C3135,972 3130,977 3112,1017C3089,1072 3055,1187 3045,1244L3039,1283L3076,1277C3096,1274 3124,1260 3137,1248Z" style="fill:rgb(199,0,200);fill-rule:nonzero;stroke:rgb(199,0,200);stroke-width:46.61px;"/>
        </g>
        <g transform="matrix(-1.07266,0,0,1.07266,7464.06,-301.655)">
            <path d="M4194,7471C4211,7452 4211,7448 4191,7388C4163,7304 4154,7179 4169,7098C4182,7035 4205,6998 4245,6978C4256,6973 4251,6980 4233,6994C4209,7014 4198,7034 4189,7074C4172,7150 4183,7310 4209,7380C4221,7410 4230,7436 4230,7438C4230,7448 4273,7415 4287,7394C4302,7370 4302,7367 4288,7359C4237,7331 4198,7182 4220,7101C4232,7057 4274,7000 4295,7000C4320,7000 4368,7057 4381,7101C4387,7125 4393,7175 4392,7213C4392,7253 4395,7278 4401,7274C4415,7266 4549,7064 4560,7035C4565,7021 4574,7010 4580,7010C4601,7010 4548,7112 4476,7210C4423,7282 4252,7458 4218,7476C4181,7495 4174,7494 4194,7471ZM4352,7322C4415,7247 4359,7007 4283,7026C4211,7045 4212,7260 4284,7333C4308,7357 4325,7354 4352,7322Z" style="fill:rgb(199,0,200);fill-rule:nonzero;stroke:rgb(199,0,200);stroke-width:27.97px;"/>
        </g>
        <g transform="matrix(-1.07266,0,0,1.07266,7464.06,-301.655)">
            <path d="M4284,7278C4260,7232 4253,7112 4272,7076C4286,7050 4288,7049 4303,7064C4322,7083 4337,7134 4343,7203C4353,7298 4317,7343 4284,7278Z" style="fill:rgb(199,0,200);fill-rule:nonzero;stroke:rgb(199,0,200);stroke-width:27.97px;"/>
        </g>
        <g transform="matrix(-1.07266,0,0,1.07266,7464.06,-301.655)">
            <path d="M5002,7064C4989,7022 4982,6985 4985,6982C4995,6972 5009,7001 5020,7058C5038,7142 5027,7146 5002,7064Z" style="fill:rgb(199,0,200);fill-rule:nonzero;stroke:rgb(199,0,200);stroke-width:46.61px;"/>
        </g>
        <g transform="matrix(-1.07266,0,0,1.07266,7464.06,-301.655)">
            <path d="M4722,7036C4705,6997 4697,6974 4706,6985C4731,7017 4761,7080 4758,7094C4756,7101 4740,7074 4722,7036Z" style="fill:rgb(199,0,200);fill-rule:nonzero;stroke:rgb(199,0,200);stroke-width:46.61px;"/>
        </g>
        <g transform="matrix(-1.07266,0,0,1.07266,7464.06,-301.655)">
            <path d="M4750,6622C4750,6608 4789,6576 4797,6584C4801,6588 4799,6599 4794,6608C4782,6627 4750,6637 4750,6622Z" style="fill:rgb(199,0,200);fill-rule:nonzero;stroke:rgb(199,0,200);stroke-width:46.61px;"/>
        </g>
        <g transform="matrix(-1.07266,0,0,1.07266,7464.06,-301.655)">
            <path d="M2360,6546C2360,6541 2374,6520 2391,6499C2424,6458 2460,6374 2460,6340C2460,6329 2464,6320 2469,6320C2484,6320 2470,6390 2444,6445C2423,6490 2360,6566 2360,6546Z" style="fill:rgb(199,0,200);fill-rule:nonzero;stroke:rgb(199,0,200);stroke-width:46.61px;"/>
        </g>
        <g transform="matrix(-1.07266,0,0,1.07266,7464.06,-301.655)">
            <path d="M2350,6335C2268,6250 2261,6245 2204,6237C2182,6233 2132,6217 2094,6202L2025,6173L1990,6195C1912,6243 1839,6252 1742,6224C1680,6206 1636,6166 1600,6097C1541,5985 1607,5802 1724,5749C1774,5726 1877,5724 1926,5745C1946,5753 1980,5774 2003,5792C2027,5812 2079,5836 2130,5852C2177,5867 2204,5879 2189,5879C2175,5880 2141,5873 2114,5865C2087,5857 2064,5850 2062,5850C2061,5850 2067,5862 2077,5877C2090,5897 2095,5925 2095,5990C2095,6068 2092,6080 2067,6118L2040,6160L2077,6176C2129,6198 2270,6240 2292,6240C2302,6240 2310,6244 2310,6250C2310,6255 2337,6289 2370,6326C2422,6383 2440,6410 2427,6410C2425,6410 2390,6376 2350,6335ZM1930,6199C1980,6177 2035,6128 2055,6090C2094,6013 2076,5899 2012,5832C1958,5774 1917,5757 1835,5756C1732,5756 1676,5790 1631,5878C1584,5970 1595,6062 1661,6147C1714,6214 1842,6239 1930,6199Z" style="fill:rgb(199,0,200);fill-rule:nonzero;stroke:rgb(199,0,200);stroke-width:46.61px;"/>
        </g>
        <g transform="matrix(-1.07266,0,0,1.07266,7464.06,-301.655)">
            <path d="M786,5857C688,5846 618,5824 558,5783C387,5668 296,5509 254,5250C245,5195 237,5062 234,4935C229,4720 230,4712 259,4575C299,4385 330,4271 390,4100C454,3917 459,3907 611,3600C738,3343 863,3127 948,3015C1266,2599 1488,2365 1620,2307C1645,2296 1688,2278 1715,2265C1841,2210 1945,2206 2043,2254C2092,2277 2105,2290 2127,2333C2179,2436 2165,2624 2095,2765C2019,2917 1839,3121 1655,3264C1573,3328 1414,3440 1405,3440C1378,3440 1135,3623 1018,3732C794,3939 612,4328 560,4710C535,4892 552,5232 592,5335C612,5385 667,5455 710,5485C744,5509 764,5514 830,5518C909,5523 911,5522 1002,5476C1110,5422 1198,5344 1268,5243C1315,5174 1410,5021 1410,5015C1410,5013 1434,4960 1464,4898C1493,4836 1534,4747 1555,4700C1575,4653 1605,4586 1621,4551C1637,4516 1650,4480 1650,4471C1650,4450 1691,4336 1719,4283C1730,4260 1748,4219 1759,4193C1769,4167 1798,4102 1823,4050C1847,3998 1895,3894 1930,3820C2115,3417 2153,3342 2207,3275C2234,3242 2271,3193 2289,3165C2332,3101 2424,3004 2520,2921C2561,2885 2601,2850 2608,2843C2695,2759 3100,2549 3100,2589C3100,2594 3090,2602 3078,2606C3028,2621 2800,2740 2719,2792C2583,2881 2300,3153 2300,3195C2300,3198 2271,3240 2236,3288C2200,3336 2145,3432 2112,3500C2080,3569 2035,3656 2012,3694C1989,3731 1970,3764 1970,3767C1970,3771 1852,4040 1740,4290C1719,4337 1693,4406 1681,4444C1669,4482 1656,4518 1651,4524C1646,4530 1633,4563 1621,4596C1573,4739 1366,5161 1320,5210C1302,5229 1272,5268 1254,5295C1201,5377 1146,5423 1018,5496C896,5565 779,5561 677,5486C633,5453 581,5375 559,5307C532,5220 517,5032 523,4855C536,4521 657,4155 840,3898C944,3752 1145,3575 1377,3425C1477,3360 1567,3293 1714,3173C1819,3088 1860,3048 1913,2981C1941,2945 1974,2904 1987,2892C2035,2841 2099,2722 2121,2644C2138,2580 2141,2549 2137,2483C2126,2332 2080,2271 1961,2249C1870,2233 1804,2249 1655,2321C1557,2369 1535,2385 1427,2490C1277,2634 1108,2835 943,3065C833,3217 606,3636 503,3875C397,4121 297,4456 266,4668C240,4842 257,5168 300,5350C341,5521 387,5608 489,5703C626,5830 815,5869 1025,5816C1126,5790 1340,5675 1424,5600C1502,5532 1637,5385 1680,5322C1694,5302 1725,5259 1750,5226C1775,5194 1804,5154 1814,5136C1825,5119 1890,5019 1959,4913C2029,4808 2115,4675 2152,4618C2333,4338 2686,4026 2937,3925C2974,3910 3013,3894 3024,3888C3047,3876 3228,3857 3248,3865C3258,3869 3260,3866 3255,3853C3228,3786 3169,3589 3159,3533C3147,3466 3150,3338 3169,2980C3177,2828 3165,2722 3129,2625C3086,2509 2855,2089 2673,1797C2616,1707 2564,1593 2529,1485C2518,1452 2505,1417 2500,1407C2494,1397 2476,1351 2459,1305C2435,1239 2419,1211 2387,1182C2281,1084 2229,1018 2172,904C2155,871 2110,809 2071,766C2028,719 1997,674 1990,652C1977,602 1977,517 1992,485C2019,424 2123,393 2223,416C2257,424 2297,432 2312,434C2326,435 2361,451 2388,469C2500,541 2591,573 2714,586C2753,590 2777,597 2773,603C2764,618 2634,601 2560,574C2523,561 2491,550 2489,550C2487,550 2486,571 2488,597C2490,632 2485,654 2470,679C2445,719 2433,715 2455,674C2473,640 2474,618 2459,568C2445,514 2363,463 2249,437C2147,414 2084,419 2042,455C1991,498 1978,599 2015,670C2022,684 2057,727 2093,767C2129,806 2178,875 2203,919C2247,997 2343,1123 2390,1165L2412,1185L2405,1150C2401,1131 2400,1117 2402,1120C2412,1130 2480,1299 2545,1475C2615,1662 2657,1748 2747,1887C2777,1933 2850,2056 2909,2162C2969,2268 3045,2402 3078,2460C3179,2639 3185,2662 3185,2890C3185,2997 3181,3160 3177,3251C3172,3358 3173,3447 3180,3503C3201,3673 3326,3994 3420,4120C3552,4296 3788,4529 3937,4630C3999,4671 4044,4708 4038,4711C4031,4715 4037,4729 4054,4746C4099,4795 4082,4792 4033,4742C4006,4716 3940,4661 3885,4620C3770,4533 3642,4409 3515,4260C3390,4114 3371,4088 3320,3986C3277,3900 3273,3895 3235,3887C3166,3873 3020,3904 2915,3955C2772,4025 2589,4157 2466,4278C2363,4380 2226,4540 2185,4605C2143,4673 1843,5132 1787,5215C1683,5369 1511,5561 1397,5651C1329,5705 1137,5805 1055,5828C932,5864 886,5869 786,5857Z" style="fill:rgb(199,0,200);fill-rule:nonzero;stroke:rgb(199,0,200);stroke-width:46.61px;"/>
        </g>
        <g transform="matrix(-1.07266,0,0,1.07266,7464.06,-301.655)">
            <path d="M6003,4364C5976,4322 5940,4268 5922,4243C5884,4193 5883,4175 5914,4061C5925,4023 5929,3982 5926,3961C5909,3854 5909,3845 5928,3810C5951,3768 6018,3731 6073,3731C6125,3730 6170,3751 6208,3794C6239,3829 6246,3857 6243,3927C6241,3954 6203,4008 6180,4015C6171,4018 6158,4037 6152,4057C6143,4088 6144,4101 6160,4137C6181,4186 6180,4189 6150,4158C6126,4132 6123,4056 6143,3997C6156,3961 6157,3960 6167,3982C6176,4003 6177,4003 6203,3965C6257,3885 6222,3792 6124,3754C6084,3739 6077,3739 6028,3755C5958,3776 5924,3821 5934,3877C5946,3943 5940,4043 5920,4108C5897,4182 5894,4175 5994,4323C6054,4412 6069,4440 6055,4440C6053,4440 6029,4406 6003,4364Z" style="fill:rgb(199,0,200);fill-rule:nonzero;stroke:rgb(199,0,200);stroke-width:46.61px;"/>
        </g>
        <g transform="matrix(-1.07266,0,0,1.07266,7464.06,-301.655)">
            <path d="M6580,4210C6586,4199 6593,4190 6596,4190C6598,4190 6596,4199 6590,4210C6584,4221 6577,4230 6574,4230C6572,4230 6574,4221 6580,4210Z" style="fill:rgb(199,0,200);fill-rule:nonzero;stroke:rgb(199,0,200);stroke-width:46.61px;"/>
        </g>
        <g transform="matrix(-1.07266,0,0,1.07266,7464.06,-301.655)">
            <path d="M6190,4203C6190,4190 6255,4150 6276,4150C6307,4150 6336,4124 6369,4067C6402,4010 6448,3958 6433,3996C6428,4006 6404,4048 6378,4088C6342,4142 6325,4160 6307,4160C6295,4160 6264,4171 6237,4185C6211,4199 6190,4207 6190,4203Z" style="fill:rgb(199,0,200);fill-rule:nonzero;stroke:rgb(199,0,200);stroke-width:46.61px;"/>
        </g>
        <g transform="matrix(-1.07266,0,0,1.07266,7464.06,-301.655)">
            <path d="M6478,3673C6485,3670 6494,3671 6497,3674C6501,3677 6495,3680 6484,3679C6473,3679 6470,3676 6478,3673Z" style="fill:rgb(199,0,200);fill-rule:nonzero;stroke:rgb(199,0,200);stroke-width:46.61px;"/>
        </g>
    </g>
</svg>
