<?xml version="1.0" encoding="UTF-8" standalone="no"?>
<!DOCTYPE svg PUBLIC "-//W3C//DTD SVG 1.1//EN" "http://www.w3.org/Graphics/SVG/1.1/DTD/svg11.dtd">
<svg width="100%" height="100%" viewBox="0 0 901 902" version="1.1" xmlns="http://www.w3.org/2000/svg" xmlns:xlink="http://www.w3.org/1999/xlink" xml:space="preserve" xmlns:serif="http://www.serif.com/" style="fill-rule:evenodd;clip-rule:evenodd;stroke-linejoin:round;stroke-miterlimit:2;">
    <g transform="matrix(1.55509,0.380363,-0.380363,1.55509,450.193,450.493)">
        <g id="rayquaza.svg" transform="matrix(1,0,0,1,-287.5,-288)">
            <g transform="matrix(0.1,0,0,-0.1,0,576)">
                <path d="M3065,5709C3029,5670 3013,5660 2996,5664C2948,5676 2712,5689 2680,5682C2642,5673 2639,5661 2655,5594L2662,5563L2576,5551C2529,5544 2487,5534 2484,5529C2481,5524 2470,5520 2460,5520C2421,5520 2249,5458 2149,5409C1934,5303 1767,5166 1710,5049C1673,4972 1666,4964 1632,4957C1593,4949 1567,4923 1535,4860C1520,4830 1480,4769 1446,4725C1376,4634 1317,4540 1329,4540C1334,4540 1341,4547 1344,4556C1354,4582 1440,4707 1461,4726C1480,4743 1481,4743 1474,4724C1470,4714 1450,4680 1430,4650C1369,4558 1272,4387 1265,4358C1258,4330 1259,4330 1304,4330C1337,4330 1350,4326 1350,4316C1350,4306 1336,4300 1308,4297L1265,4293L1308,4292C1354,4290 1354,4291 1339,4235C1298,4077 1290,3965 1320,3965C1338,3965 1399,4044 1447,4128C1466,4163 1486,4188 1490,4183C1494,4179 1521,4147 1549,4113C1578,4078 1605,4050 1610,4050C1625,4050 1638,4082 1666,4182C1704,4316 1727,4428 1744,4561C1753,4625 1769,4699 1780,4725C1792,4752 1803,4792 1807,4814C1812,4853 1816,4857 1879,4886C1963,4926 2166,4995 2273,5019C2344,5036 2398,5045 2601,5077C2637,5082 2680,5068 2680,5050C2680,5046 2669,5029 2657,5013C2625,4976 2610,4928 2622,4907C2633,4886 2694,4869 2895,4830C2983,4813 3064,4797 3075,4794C3086,4792 3120,4787 3151,4784C3218,4776 3251,4791 3327,4863C3387,4920 3371,4919 3513,4866C3586,4838 3636,4833 3642,4852C3654,4887 4000,4601 4000,4556C4000,4544 3987,4507 3971,4474C3923,4374 3922,4346 3969,4256C3992,4214 4045,4126 4087,4062C4130,3998 4166,3941 4168,3935C4169,3930 4141,3891 4104,3850C4017,3752 3864,3575 3820,3521C3790,3485 3685,3420 3655,3420C3651,3420 3611,3455 3566,3498C3427,3631 3321,3677 3171,3667C3123,3664 3066,3655 3044,3647C3005,3633 3001,3633 2979,3650C2714,3860 2638,3913 2577,3934C2521,3953 2469,3955 2452,3938C2418,3904 2452,3802 2543,3659L2616,3544L2526,3495C2454,3456 2414,3424 2335,3345C2280,3290 2217,3218 2195,3185C2173,3152 2153,3123 2150,3120C2104,3076 1868,2629 1839,2532C1828,2495 1817,2483 1758,2444C1721,2420 1666,2376 1637,2346L1585,2291L1523,2308C1467,2323 1458,2330 1428,2375C1240,2657 1175,2853 1202,3053C1214,3148 1211,3158 1117,3300C1044,3410 971,3507 838,3669C657,3888 528,4039 346,4242L205,4400L140,4400C62,4400 0,4384 0,4365C0,4357 10,4334 21,4313C58,4247 222,3948 258,3880C277,3844 308,3790 326,3759C345,3728 360,3699 360,3695C360,3691 375,3662 394,3631C412,3600 441,3550 457,3520C474,3490 547,3357 620,3225C694,3093 777,2942 805,2890C834,2838 877,2759 902,2715C1051,2448 1062,2425 1049,2417C1041,2413 1010,2395 980,2377C922,2343 864,2276 854,2232C850,2217 832,2181 813,2152C794,2123 767,2074 753,2042C736,2006 707,1968 674,1938C566,1839 545,1689 630,1612C696,1552 760,1544 890,1578C1016,1612 1082,1640 1076,1657C1071,1669 1075,1671 1092,1666C1105,1663 1121,1660 1128,1660C1136,1660 1140,1651 1138,1638C1136,1620 1143,1614 1185,1599L1234,1582L1259,1488L1284,1393L1260,1309C1247,1263 1234,1221 1230,1215C1226,1210 1219,1181 1215,1152C1209,1109 1212,1089 1231,1043L1253,988L1229,942C1196,878 986,565 940,510C882,440 820,302 820,243C820,189 865,227 1114,490C1252,636 1371,755 1379,755C1393,755 1490,627 1509,585C1514,574 1546,480 1580,375C1660,132 1667,118 1738,73C1878,-17 1975,-22 2167,50C2264,86 2274,95 2314,171C2357,253 2426,418 2476,560C2494,612 2532,718 2560,795C2589,872 2617,952 2624,972C2636,1010 2703,1100 2720,1100C2725,1100 2872,950 3046,767C3474,319 3542,250 3561,239C3584,227 3599,247 3606,301C3615,364 3590,438 3535,512C3467,605 3307,842 3205,1001C3156,1078 3101,1162 3085,1188C3068,1214 3007,1312 2948,1406L2841,1576L2835,1731L2828,1885L2877,1960C2932,2042 3080,2214 3110,2230C3134,2243 3123,2261 3273,1980C3369,1800 3399,1759 3458,1729C3522,1698 3547,1671 3564,1618C3607,1487 3764,1295 3915,1191C4041,1104 4212,1034 4323,1024C4357,1021 4412,1014 4446,1009C4496,1000 4513,1001 4546,1015C4579,1029 4595,1029 4655,1019C4734,1006 4846,1012 4907,1034C4940,1046 4963,1047 5021,1039C5083,1030 5103,1022 5158,983C5193,958 5245,928 5273,916C5302,904 5347,882 5373,866C5443,825 5497,821 5564,854C5628,885 5704,963 5731,1026C5750,1069 5751,1073 5735,1127C5691,1278 5608,1380 5482,1436C5480,1437 5497,1466 5519,1500C5554,1554 5560,1571 5560,1617C5560,1671 5537,1763 5516,1789C5508,1800 5510,1806 5524,1814C5620,1870 5629,1912 5660,2398C5674,2617 5673,2620 5572,2698L5496,2756L5495,2821C5494,2856 5488,2895 5482,2907C5475,2919 5470,2969 5470,3019C5470,3068 5466,3111 5461,3114C5456,3117 5449,3146 5446,3177C5442,3209 5437,3249 5435,3265C5430,3313 5390,3500 5373,3560C5353,3630 5286,3801 5254,3863C5241,3889 5233,3910 5237,3911C5242,3912 5261,3911 5281,3910C5309,3909 5318,3913 5322,3928C5328,3948 5291,4041 5248,4120C5137,4321 5090,4421 5090,4458C5090,4501 5055,4574 4987,4675C4937,4750 4795,4922 4742,4974C4705,5010 4698,5012 4658,5008C4611,5002 4554,4982 4562,4975C4565,4972 4586,4977 4610,4985C4700,5017 4716,5005 4874,4795C5017,4606 5070,4510 5070,4440C5070,4405 5033,4279 5008,4233C4995,4207 4978,4204 4961,4224C4952,4235 4954,4251 4974,4297C4987,4329 5003,4382 5009,4414L5020,4474L4978,4548C4926,4637 4785,4828 4722,4893C4669,4947 4659,4947 4544,4905C4499,4888 4479,4885 4471,4893C4448,4916 4460,4936 4508,4952L4555,4968L4519,4969C4489,4970 4467,4984 4384,5055C4282,5143 4149,5240 4132,5240C4126,5240 4120,5244 4118,5249C4112,5265 3907,5363 3800,5401L3695,5438L3698,5485C3705,5572 3693,5617 3657,5639C3591,5680 3259,5759 3154,5760C3117,5760 3108,5754 3065,5709ZM3270,5725C3476,5694 3649,5640 3670,5599C3682,5577 3683,5460 3672,5460C3653,5460 3631,5497 3635,5520C3643,5562 3629,5590 3590,5610C3546,5633 3391,5673 3263,5695C3179,5709 3167,5709 3141,5695C3124,5687 3107,5673 3103,5665C3094,5650 3050,5654 3050,5670C3050,5674 3066,5692 3085,5709C3126,5745 3137,5746 3270,5725ZM3313,5669C3454,5640 3581,5602 3602,5583C3613,5573 3620,5553 3620,5532C3620,5504 3617,5499 3603,5503C3593,5505 3546,5519 3498,5533C3412,5559 3305,5582 3220,5594C3193,5598 3163,5611 3145,5627L3116,5653L3139,5671C3168,5695 3188,5695 3313,5669ZM2955,5655C3129,5632 3145,5623 3241,5486C3290,5416 3294,5400 3260,5400C3241,5400 3229,5413 3145,5527C3120,5561 3091,5591 3082,5594C3040,5607 2877,5632 2798,5637C2694,5644 2693,5642 2740,5543C2762,5495 2766,5480 2755,5480C2730,5480 2703,5515 2681,5574C2659,5634 2656,5652 2667,5663C2678,5675 2836,5670 2955,5655ZM2945,5605C3077,5585 3094,5577 3140,5512C3195,5436 3193,5431 3118,5446C3084,5453 2997,5466 2926,5475C2854,5485 2792,5494 2787,5497C2777,5503 2730,5596 2730,5610C2730,5625 2828,5622 2945,5605ZM3316,5556C3361,5548 3435,5531 3481,5518L3565,5495L3508,5488C3438,5479 3386,5454 3338,5403C3280,5343 3256,5279 3256,5185C3256,5096 3276,5042 3333,4983C3350,4965 3361,4950 3358,4950C3355,4950 3303,4962 3243,4976C3055,5020 2955,5039 2838,5051C2704,5064 2667,5081 2625,5148C2599,5189 2595,5206 2592,5281C2588,5358 2591,5373 2617,5431C2633,5466 2654,5501 2663,5509C2678,5521 2682,5519 2698,5500C2714,5480 2727,5477 2801,5475C2895,5472 3174,5425 3205,5406C3235,5387 3273,5380 3289,5389C3309,5402 3296,5443 3249,5511C3226,5545 3215,5570 3222,5570C3229,5570 3272,5564 3316,5556ZM2620,5503C2570,5447 2550,5394 2550,5319C2550,5282 2557,5234 2565,5211C2578,5172 2578,5170 2559,5170C2548,5170 2529,5179 2517,5191C2476,5230 2410,5253 2335,5254C2223,5255 2166,5212 2165,5124C2164,5065 2142,5050 2101,5080C2064,5106 1984,5121 1939,5111C1865,5094 1819,5040 1821,4973C1821,4951 1824,4956 1834,4992C1849,5049 1863,5067 1908,5086C1961,5108 2028,5104 2079,5075C2102,5061 2130,5050 2140,5050C2166,5050 2183,5076 2176,5104C2166,5145 2196,5204 2236,5223C2308,5258 2440,5237 2510,5181C2534,5162 2554,5153 2567,5156C2589,5162 2635,5116 2624,5099C2621,5094 2597,5090 2571,5090C2535,5090 2519,5095 2504,5112C2478,5140 2400,5190 2381,5190C2372,5189 2385,5178 2410,5165C2435,5152 2466,5132 2480,5120C2501,5103 2503,5099 2490,5090C2482,5085 2466,5080 2455,5080C2444,5080 2401,5071 2360,5060C2262,5034 2261,5034 2244,5075C2225,5122 2226,5137 2255,5165C2285,5196 2275,5198 2243,5168C2216,5142 2213,5100 2237,5064C2257,5033 2249,5026 2173,5009C2127,4998 2118,4999 2102,5013C2092,5023 2080,5030 2075,5030C2070,5030 2075,5024 2086,5016C2098,5006 2101,4998 2095,4992C2077,4976 1920,4919 1910,4925C1905,4928 1900,4946 1900,4964C1900,5006 1928,5031 1983,5041L2025,5049L1977,5046C1908,5041 1887,5018 1893,4957C1897,4915 1894,4907 1875,4894C1843,4873 1791,4860 1785,4871C1781,4876 1770,4880 1759,4880C1735,4880 1700,4935 1700,4974C1700,5054 1807,5178 1968,5283C2078,5356 2129,5383 2250,5433C2368,5481 2566,5537 2629,5539C2652,5540 2651,5539 2620,5503ZM3725,5400C3959,5320 4209,5186 4343,5069L4382,5035L4312,5034C4217,5033 4131,4992 4061,4913C4033,4882 4009,4858 4008,4861C4006,4863 3996,4883 3985,4904C3960,4953 3890,5000 3842,5000C3816,5000 3800,4992 3777,4966C3730,4917 3721,4903 3727,4896C3739,4885 3750,4890 3750,4908C3751,4944 3798,4980 3845,4980C3881,4980 3922,4957 3958,4915C4000,4868 4004,4845 3986,4773C3977,4739 3970,4698 3970,4681C3970,4622 3950,4650 3948,4713L3946,4775L3943,4722L3939,4670L3875,4722C3839,4751 3810,4781 3810,4788C3810,4795 3804,4800 3798,4798C3791,4797 3750,4818 3708,4845C3643,4887 3631,4899 3630,4922C3630,4937 3625,4952 3619,4956C3611,4960 3610,4956 3615,4941C3626,4904 3612,4902 3548,4928C3513,4942 3478,4953 3470,4952C3448,4951 3375,4990 3364,5009C3304,5117 3295,5182 3329,5270C3357,5343 3392,5384 3452,5414C3527,5452 3584,5449 3725,5400ZM2740,5035C2740,5032 2731,5016 2719,5001C2675,4942 2698,4928 2904,4885C3043,4857 3165,4844 3204,4854C3219,4858 3250,4878 3274,4900C3306,4930 3322,4938 3339,4933C3361,4927 3360,4926 3323,4888C3273,4836 3236,4810 3204,4804C3160,4796 2808,4860 2698,4896C2671,4905 2649,4917 2649,4923C2644,4972 2684,5040 2718,5040C2730,5040 2740,5038 2740,5035ZM2910,5020C2986,5010 3243,4957 3279,4944C3298,4938 3256,4892 3212,4873C3175,4858 3093,4865 2911,4900C2701,4941 2693,4946 2746,5009C2765,5032 2777,5038 2798,5035C2813,5033 2863,5026 2910,5020ZM4430,4984L4484,4968L4460,4950C4439,4934 4437,4928 4445,4903C4452,4886 4464,4874 4477,4872C4497,4869 4522,4839 4740,4555C4856,4404 4940,4276 4940,4251C4940,4193 4999,4180 5026,4231C5039,4257 5044,4260 5055,4249C5070,4233 5161,4057 5156,4053C5154,4051 5136,4066 5116,4085C5091,4109 5056,4127 5008,4141C4815,4200 4600,4090 4557,3910C4551,3882 4542,3860 4538,3860C4533,3860 4530,3865 4530,3870C4530,3876 4521,3889 4510,3900C4490,3920 4490,3920 4554,4037C4604,4129 4616,4158 4607,4168C4589,4190 4494,4178 4421,4145L4357,4116L4336,4145C4324,4161 4263,4244 4199,4330C4097,4467 4084,4489 4092,4510C4097,4524 4098,4545 4095,4557C4089,4584 4046,4598 4025,4580C3988,4549 3995,4700 4035,4787C4087,4902 4224,4995 4346,4999C4363,5000 4401,4993 4430,4984ZM1650,4924C1650,4908 1663,4885 1685,4863C1715,4833 1723,4830 1755,4836C1786,4841 1790,4840 1790,4822C1790,4782 1780,4771 1747,4776C1718,4781 1713,4778 1691,4738C1639,4643 1531,4421 1509,4365C1496,4332 1478,4297 1469,4288C1455,4274 1454,4264 1462,4231C1472,4192 1471,4189 1406,4090C1306,3938 1296,3961 1351,4210C1396,4416 1469,4665 1522,4793C1553,4869 1613,4950 1638,4950C1645,4950 1650,4938 1650,4924ZM3593,4886C3608,4875 3618,4865 3616,4863C3609,4855 3509,4881 3480,4897C3457,4910 3458,4911 3510,4907C3541,4905 3577,4896 3593,4886ZM4697,4893C4759,4838 4984,4523 4996,4475C5002,4450 4979,4340 4961,4312C4956,4303 4941,4317 4915,4357C4864,4434 4781,4545 4642,4718C4579,4797 4531,4864 4535,4868C4545,4879 4633,4908 4656,4909C4668,4910 4687,4902 4697,4893ZM1752,4719C1745,4619 1707,4396 1673,4265C1653,4188 1635,4115 1633,4102C1625,4068 1611,4065 1583,4091C1542,4130 1470,4236 1470,4259C1470,4297 1498,4281 1542,4218C1566,4184 1590,4155 1596,4153C1602,4151 1612,4173 1619,4202C1645,4312 1691,4546 1706,4648C1723,4763 1726,4773 1743,4767C1750,4765 1753,4746 1752,4719ZM1675,4569C1644,4358 1604,4170 1591,4170C1588,4170 1566,4200 1543,4236L1500,4302L1551,4413C1623,4569 1680,4683 1686,4677C1688,4675 1684,4626 1675,4569ZM1405,4508C1387,4446 1370,4382 1366,4366C1360,4343 1355,4339 1337,4344C1325,4347 1307,4350 1298,4350C1288,4350 1280,4355 1280,4361C1280,4378 1424,4620 1434,4620C1436,4620 1423,4569 1405,4508ZM4075,4551C4078,4540 4066,4503 4045,4459C3994,4352 3997,4329 4074,4199C4110,4140 4155,4066 4175,4035C4208,3984 4210,3976 4197,3963C4184,3950 4179,3952 4157,3982C4122,4028 3984,4260 3965,4305C3957,4326 3950,4352 3950,4364C3950,4387 4011,4532 4030,4555C4047,4576 4067,4574 4075,4551ZM4147,4370C4180,4323 4235,4243 4270,4192L4333,4098L4281,4047C4238,4004 4227,3998 4219,4010C4054,4269 4029,4315 4033,4355C4038,4406 4068,4477 4079,4464C4083,4459 4114,4417 4147,4370ZM195,4358C196,4356 217,4332 241,4305C380,4145 604,3875 774,3660C851,3564 930,3465 950,3440C1004,3373 1097,3245 1140,3179L1177,3121L1163,3058C1120,2877 1224,2606 1451,2299L1529,2194L1507,2139C1487,2089 1485,2069 1486,1865C1486,1670 1489,1628 1513,1491C1538,1351 1559,1275 1560,1321C1560,1330 1551,1417 1540,1516C1514,1756 1505,1920 1517,1920C1522,1920 1531,1889 1537,1851C1569,1643 1718,1527 1932,1543C2030,1551 2119,1574 2184,1608C2253,1644 2250,1643 2250,1628C2250,1607 2166,1330 2063,1010C2011,848 1966,704 1963,690C1958,668 1959,667 1973,680C2003,711 2193,1247 2280,1550C2331,1727 2384,1888 2396,1900C2401,1905 2457,1930 2520,1955C2583,1981 2637,2004 2640,2006C2642,2009 2638,2015 2630,2020C2620,2026 2632,2047 2687,2112C2934,2403 3082,2579 3289,2826C3697,3314 3807,3445 4065,3745C4297,4015 4332,4050 4419,4093C4484,4126 4560,4142 4560,4123C4560,4117 4405,3833 4345,3730C4328,3700 4278,3612 4235,3535C4192,3458 4128,3343 4092,3280C4056,3217 4004,3125 3977,3075C3949,3026 3905,2948 3878,2902C3852,2857 3830,2817 3830,2814C3830,2811 3815,2785 3796,2756C3767,2710 3753,2699 3706,2681C3626,2651 3461,2567 3360,2504C3029,2300 2829,2052 2736,1730C2707,1629 2701,1586 2715,1581C2724,1578 2742,1626 2770,1728C2776,1751 2785,1768 2789,1766C2801,1759 2824,1382 2816,1329C2808,1272 2769,1212 2643,1056C2587,987 2523,898 2501,857C2438,744 2403,709 2303,661C2196,609 2158,585 1961,448C1874,387 1798,340 1785,340C1755,340 1616,487 1529,610C1364,843 1250,1049 1250,1113C1250,1161 1289,1320 1301,1320C1311,1320 1311,1324 1315,1205C1321,1057 1375,930 1432,930C1442,930 1453,922 1457,912C1475,860 1564,687 1567,697C1569,703 1554,753 1532,807C1473,954 1324,1413 1285,1567C1277,1602 1268,1656 1267,1687C1265,1741 1268,1750 1313,1820C1367,1904 1436,2041 1446,2083C1454,2116 1436,2119 1419,2088C1412,2075 1396,2047 1382,2026L1358,1987L1305,2077C1276,2126 1240,2188 1225,2216C1210,2243 1134,2380 1055,2520C304,3864 48,4329 55,4340C66,4359 102,4368 149,4364C173,4363 193,4360 195,4358ZM5201,4170C5255,4063 5299,3967 5300,3958C5300,3944 5292,3940 5261,3940C5212,3940 5201,3955 5229,3981C5249,4000 5249,4003 5234,4038C5226,4058 5188,4135 5150,4208C5111,4281 5080,4348 5080,4356C5080,4396 5110,4349 5201,4170ZM5094,4277C5150,4180 5232,4008 5225,4002C5221,3998 5215,4001 5213,4008C5202,4039 5100,4238 5081,4265C5059,4297 5055,4310 5068,4310C5072,4310 5083,4295 5094,4277ZM5042,4076C5152,4022 5232,3895 5309,3652C5373,3449 5430,3182 5417,3147C5414,3140 5388,3128 5359,3121C5310,3109 5299,3110 5243,3129C5163,3156 5054,3157 4971,3131L4910,3112L4909,3134C4908,3150 4906,3149 4899,3125C4893,3109 4873,3082 4853,3065L4816,3035L4824,3060C4842,3120 4843,3230 4825,3275C4806,3327 4779,3348 4760,3325C4741,3302 4732,3307 4725,3343C4721,3360 4711,3398 4702,3427C4690,3468 4689,3485 4698,3505C4705,3520 4706,3530 4700,3530C4694,3530 4690,3524 4689,3518C4689,3511 4674,3546 4656,3595C4632,3663 4626,3688 4635,3698C4665,3731 4700,3677 4700,3599C4700,3565 4704,3551 4711,3556C4729,3567 4716,3667 4693,3698C4673,3725 4630,3741 4630,3721C4630,3701 4610,3710 4601,3733C4595,3747 4596,3760 4604,3769C4612,3780 4612,3784 4603,3787C4564,3800 4622,3942 4692,4007C4738,4048 4783,4076 4830,4091C4873,4105 5002,4096 5042,4076ZM2648,3866C2746,3804 2952,3649 2957,3634C2959,3629 2948,3620 2932,3614C2906,3604 2897,3609 2805,3681C2750,3724 2683,3771 2657,3786C2579,3828 2578,3807 2653,3688C2689,3632 2715,3582 2712,3578C2708,3575 2689,3569 2670,3565C2636,3559 2634,3560 2594,3627C2483,3811 2454,3884 2481,3916C2502,3942 2553,3927 2648,3866ZM4498,3857C4501,3834 4498,3830 4476,3830C4446,3830 4446,3830 4462,3865C4476,3896 4494,3893 4498,3857ZM4544,3796C4548,3769 4557,3731 4565,3712C4593,3646 4575,3659 4526,3741C4486,3808 4483,3820 4505,3820C4514,3820 4523,3827 4527,3835C4535,3857 4537,3852 4544,3796ZM4480,3734C4496,3699 4509,3667 4509,3665C4509,3662 4514,3654 4520,3647C4526,3641 4539,3619 4548,3600C4566,3563 4606,3547 4621,3572C4635,3594 4647,3570 4675,3460C4713,3312 4738,3172 4746,3053C4754,2935 4750,2925 4688,2915C4637,2906 4510,2862 4491,2847C4471,2830 4462,2800 4445,2692C4425,2573 4409,2510 4398,2516C4394,2519 4390,2535 4390,2551C4390,2583 4354,2742 4339,2775C4335,2786 4311,2872 4287,2965C4262,3059 4229,3185 4212,3246L4181,3358L4209,3411C4248,3485 4399,3760 4417,3788C4436,3818 4445,3810 4480,3734ZM2703,3723C2798,3656 2850,3616 2850,3608C2850,3599 2764,3586 2746,3593C2735,3598 2640,3742 2640,3755C2640,3765 2652,3759 2703,3723ZM4616,3585C4610,3560 4574,3577 4553,3615C4520,3673 4525,3677 4574,3634C4598,3612 4617,3591 4616,3585ZM3373,3587C3456,3545 3610,3435 3618,3411C3620,3406 3612,3399 3601,3395C3591,3392 3570,3380 3556,3369C3526,3345 3521,3296 3545,3264C3567,3235 3564,3227 3508,3160L3455,3098L3449,3211C3438,3422 3360,3542 3185,3616L3125,3641L3203,3637C3271,3633 3292,3627 3373,3587ZM3123,3527C3184,3499 3241,3452 3282,3396C3318,3346 3318,3330 3282,3330C3243,3330 3116,3293 3054,3264C2976,3227 2887,3158 2839,3098L2798,3045L2698,3028C2643,3019 2546,2995 2483,2975C2420,2955 2367,2940 2366,2942C2329,2997 2296,3057 2275,3104L2249,3162L2304,3230C2514,3489 2900,3629 3123,3527ZM3713,3407C3689,3368 3595,3260 3584,3260C3564,3260 3547,3289 3554,3314C3558,3331 3582,3349 3637,3378C3726,3425 3724,3424 3713,3407ZM3339,3279C3345,3262 3348,3244 3345,3240C3343,3236 3312,3227 3278,3221C3176,3201 3061,3139 2976,3056C2936,3017 2893,2972 2881,2956C2865,2934 2844,2923 2787,2909C2433,2820 2407,2812 2388,2789C2346,2734 2251,2552 2250,2524C2250,2518 2271,2501 2298,2487C2364,2451 2424,2386 2457,2315C2481,2263 2485,2242 2484,2165C2484,2032 2471,1997 2407,1963C2347,1930 2322,1893 2296,1791C2281,1732 2271,1714 2237,1684C2154,1609 2004,1562 1882,1573C1668,1593 1566,1710 1553,1950C1547,2061 1560,2145 1595,2216C1628,2284 1724,2387 1793,2428C1855,2465 2008,2520 2050,2520C2064,2520 2083,2526 2092,2533C2106,2544 2260,2835 2260,2851C2260,2855 2237,2896 2210,2943C2182,2990 2160,3033 2160,3040C2160,3053 2220,3140 2229,3140C2233,3140 2255,3098 2278,3048C2301,2997 2329,2944 2339,2931L2357,2908L2451,2934C2503,2949 2561,2967 2580,2974C2599,2982 2659,2997 2713,3009C2811,3030 2812,3031 2873,3091C3000,3217 3172,3306 3297,3309C3323,3310 3330,3305 3339,3279ZM4186,3253C4194,3221 4212,3159 4225,3115C4304,2847 4370,2587 4370,2542C4370,2475 4339,2377 4276,2250L4225,2145L4222,2189C4219,2224 4228,2254 4265,2337C4325,2471 4330,2523 4297,2640C4283,2687 4240,2831 4200,2960C4160,3089 4125,3203 4122,3213C4117,3233 4148,3310 4161,3310C4166,3310 4177,3284 4186,3253ZM4805,3280C4814,3262 4820,3224 4820,3182C4820,3111 4796,3010 4780,3010C4774,3010 4770,3034 4769,3063C4769,3091 4763,3153 4756,3200C4749,3247 4745,3291 4748,3298C4756,3320 4789,3311 4805,3280ZM3365,3134C3374,3044 3368,2998 3343,2967C3333,2954 3148,2732 2931,2472C2670,2158 2531,2000 2519,2000C2497,2000 2496,2003 2511,2050C2516,2069 2521,2124 2521,2172C2520,2325 2453,2443 2331,2504C2303,2519 2280,2535 2280,2540C2280,2555 2335,2662 2375,2725C2415,2787 2393,2778 2695,2854L2875,2900L2915,2948C3030,3085 3162,3171 3305,3203C3357,3215 3358,3214 3365,3134ZM4148,3045C4287,2600 4285,2609 4285,2525C4285,2455 4281,2436 4251,2373C4232,2333 4214,2300 4211,2300C4208,2300 4191,2341 4173,2390L4141,2480L4163,2528C4181,2566 4185,2593 4185,2675C4185,2764 4182,2780 4158,2825C4128,2881 4083,2931 4028,2968C4007,2981 3990,2994 3990,2997C3990,3003 4040,3101 4068,3148C4081,3172 4096,3188 4100,3183C4104,3179 4125,3117 4148,3045ZM5444,3087C5455,3057 5427,2473 5409,2345C5398,2267 5380,2235 5298,2149C5258,2106 5234,2090 5201,2082C5110,2060 5119,2086 5235,2194C5288,2242 5337,2294 5345,2309C5358,2335 5363,2397 5395,2952C5397,3000 5396,3042 5391,3045C5386,3048 5350,3039 5312,3025C5274,3011 5237,3000 5231,3000C5213,3000 5219,3048 5238,3059C5272,3077 5405,3120 5420,3117C5428,3116 5439,3102 5444,3087ZM5216,3077C5220,3073 5218,3064 5212,3058C5197,3043 5196,2998 5210,2984C5217,2977 5212,2881 5196,2689C5154,2214 5149,2168 5128,2133C5116,2113 5111,2092 5115,2080C5123,2056 5127,2055 5055,2082C5012,2097 4971,2103 4910,2103C4800,2104 4731,2078 4653,2007L4597,1955L4603,2000C4632,2201 4703,2684 4715,2763C4744,2950 4791,3011 4952,3071C4995,3087 5025,3090 5107,3087C5163,3086 5212,3081 5216,3077ZM5374,2958C5372,2923 5365,2819 5360,2725C5354,2632 5345,2502 5339,2437C5328,2333 5324,2315 5300,2285C5274,2252 5179,2168 5174,2173C5172,2175 5221,2756 5236,2908L5242,2972L5293,2996C5375,3034 5380,3031 5374,2958ZM2192,2921C2213,2880 2230,2843 2230,2838C2230,2832 2221,2816 2211,2801C2201,2787 2167,2725 2136,2663L2080,2552L2008,2540C1968,2533 1925,2524 1913,2519C1901,2515 1889,2514 1886,2519C1872,2540 2123,3004 2144,2997C2149,2995 2171,2961 2192,2921ZM3998,2946C4041,2923 4107,2849 4129,2800C4170,2705 4164,2598 4114,2513L4089,2469L4050,2504C3998,2551 3966,2558 3921,2534C3873,2509 3847,2458 3854,2403C3859,2363 3858,2360 3837,2360C3774,2360 3706,2392 3650,2448C3619,2480 3589,2519 3583,2536C3573,2566 3573,2567 3624,2592C3652,2606 3705,2631 3741,2647L3806,2677L3885,2819C3928,2896 3965,2960 3967,2960C3969,2960 3983,2954 3998,2946ZM4710,2888C4710,2863 4694,2853 4623,2831L4551,2810L4535,2757C4519,2703 4450,2235 4450,2180C4450,2146 4480,2111 4541,2075C4569,2058 4574,2050 4572,2025C4570,2008 4567,1994 4565,1992C4556,1983 4405,2099 4393,2125C4378,2157 4373,2122 4454,2625C4467,2708 4484,2788 4491,2802C4503,2830 4535,2849 4624,2880C4685,2902 4710,2904 4710,2888ZM4690,2817C4690,2780 4582,2089 4575,2082C4566,2073 4488,2134 4479,2157C4461,2204 4548,2788 4573,2790C4574,2790 4593,2797 4615,2805C4652,2818 4690,2824 4690,2817ZM5470,2740L5463,2665L5461,2736C5461,2775 5463,2810 5467,2813C5477,2824 5478,2819 5470,2740ZM5627,2618C5648,2591 5649,2551 5635,2360C5616,2108 5593,1936 5575,1899C5566,1883 5548,1863 5534,1853C5512,1839 5507,1839 5499,1851C5486,1872 5488,1900 5504,1906C5534,1918 5549,1978 5565,2155C5593,2472 5597,2560 5583,2587C5573,2607 5528,2651 5498,2671C5493,2674 5492,2689 5496,2703L5502,2730L5560,2680C5591,2653 5622,2625 5627,2618ZM5561,2569C5567,2557 5569,2519 5565,2472C5538,2108 5528,1992 5523,1975C5517,1953 5491,1920 5479,1920C5463,1920 5430,1992 5435,2018C5439,2040 5459,2251 5486,2568L5492,2630L5521,2609C5537,2598 5555,2580 5561,2569ZM3950,2510C3950,2505 3945,2500 3939,2500C3934,2500 3932,2505 3935,2510C3938,2516 3943,2520 3946,2520C3948,2520 3950,2516 3950,2510ZM3500,2491C3500,2473 3418,2357 3386,2331C3372,2319 3363,2319 3331,2330C3265,2351 3261,2357 3295,2386C3341,2425 3474,2510 3488,2510C3494,2510 3500,2502 3500,2491ZM4051,2461C4068,2440 4190,2109 4190,2084C4190,2075 4180,2070 4163,2071C4104,2074 4087,2069 4054,2036C4014,1996 4021,1987 3961,2147C3914,2272 3880,2385 3880,2416C3880,2439 3915,2475 3945,2483C3980,2493 4035,2481 4051,2461ZM4397,2458C4394,2451 4392,2456 4392,2470C4392,2484 4394,2489 4397,2483C4399,2476 4399,2464 4397,2458ZM4142,2373C4178,2279 4193,2230 4187,2224C4183,2219 4100,2417 4100,2433C4100,2437 4104,2440 4108,2440C4113,2440 4128,2410 4142,2373ZM4376,2299C4351,2142 4353,2121 4398,2079C4418,2059 4463,2024 4498,2000C4536,1974 4560,1950 4560,1939C4560,1923 4551,1925 4483,1956C4440,1976 4369,2008 4325,2027C4281,2047 4240,2067 4233,2072C4225,2079 4231,2099 4256,2148C4306,2246 4380,2407 4381,2422C4382,2429 4384,2427 4387,2417C4390,2407 4385,2354 4376,2299ZM3662,2347C3718,2311 3808,2280 3860,2280C3884,2280 3888,2274 3910,2198C3941,2087 3996,1951 4019,1926C4042,1900 4068,1839 4063,1823C4054,1799 3958,1737 3899,1719C3831,1698 3782,1695 3728,1710C3693,1720 3688,1727 3589,1923C3533,2034 3477,2150 3464,2180L3442,2235L3478,2280C3539,2357 3583,2399 3594,2392C3600,2388 3631,2368 3662,2347ZM1132,2293C1277,2039 1283,2028 1269,2019C1248,2006 1142,2009 1076,2024C1033,2034 1012,2035 1000,2027C983,2017 984,2015 1002,1996C1033,1964 1060,1904 1060,1870C1060,1831 1037,1785 997,1743L967,1711L893,1751C796,1802 760,1802 713,1755C681,1723 678,1715 683,1680C689,1634 680,1630 651,1666C608,1720 614,1805 667,1883C699,1929 710,1930 710,1888C710,1816 746,1813 820,1880L865,1921L818,1889C750,1843 736,1852 742,1938C751,2054 838,2188 916,2205C981,2218 1053,2166 1054,2105C1055,2061 1070,2058 1070,2102C1070,2140 1029,2197 992,2211C977,2217 950,2222 933,2222C896,2222 892,2233 918,2272C948,2318 1027,2369 1072,2370C1082,2370 1105,2341 1132,2293ZM3275,2264L3348,2218L3464,1968C3528,1830 3579,1715 3576,1713C3573,1710 3548,1716 3520,1725C3437,1753 3400,1800 3273,2039C3211,2157 3160,2258 3160,2263C3160,2274 3189,2310 3198,2310C3200,2310 3235,2289 3275,2264ZM1550,2250C1550,2245 1546,2240 1541,2240C1535,2240 1528,2245 1525,2250C1522,2256 1526,2260 1534,2260C1543,2260 1550,2256 1550,2250ZM5414,2133C5407,2079 5401,2034 5400,2032C5400,2031 5383,2041 5363,2055C5342,2069 5317,2080 5308,2080C5298,2080 5290,2083 5290,2086C5290,2097 5415,2237 5421,2234C5424,2232 5421,2187 5414,2133ZM5000,2038L5035,2023L4993,2002C4970,1990 4930,1960 4904,1935C4877,1910 4851,1890 4844,1890C4838,1890 4809,1880 4781,1868L4729,1847L4669,1875C4637,1891 4610,1905 4610,1907C4610,1921 4647,1962 4680,1985C4756,2037 4829,2061 4900,2057C4936,2054 4981,2046 5000,2038ZM4474,1931L4693,1824L4655,1800C4634,1787 4584,1750 4543,1718C4473,1662 4469,1660 4431,1669C4409,1674 4371,1675 4346,1673C4306,1668 4296,1672 4253,1703C4175,1760 4093,1852 4079,1898C4058,1968 4094,2022 4173,2040C4190,2044 4216,2046 4230,2043C4244,2041 4354,1990 4474,1931ZM5321,2024C5354,2007 5414,1941 5438,1893C5449,1872 5474,1815 5495,1765C5541,1655 5545,1596 5510,1530L5486,1485L5473,1532C5449,1614 5363,1662 5281,1640C5221,1624 5197,1587 5202,1523C5206,1478 5204,1470 5189,1470C5127,1470 4910,1762 4910,1847C4910,1902 4972,1958 5083,2001C5203,2048 5261,2054 5321,2024ZM1155,1971C1194,1966 1244,1965 1268,1969C1304,1976 1312,1975 1321,1959C1329,1944 1319,1923 1270,1850C1225,1783 1210,1752 1210,1725C1210,1700 1206,1690 1194,1690C1177,1690 1060,1719 1048,1726C1044,1729 1052,1752 1066,1779C1096,1839 1097,1903 1070,1948C1046,1988 1045,1993 1068,1986C1077,1983 1117,1976 1155,1971ZM4860,1826C4860,1799 4927,1685 4991,1605C5061,1516 5119,1464 5171,1440C5217,1420 5218,1419 5234,1350C5249,1282 5249,1278 5230,1242C5218,1220 5210,1186 5210,1158L5210,1110L5130,1110C5083,1110 5050,1106 5050,1100C5050,1095 5044,1090 5038,1090C5031,1091 5045,1108 5069,1129C5116,1171 5120,1200 5078,1200C4939,1201 4892,1208 4828,1237C4762,1268 4761,1268 4754,1317C4741,1409 4671,1511 4570,1585C4542,1605 4520,1627 4520,1633C4520,1650 4713,1792 4785,1828C4849,1861 4860,1861 4860,1826ZM896,1731C939,1709 988,1681 1005,1667L1035,1642L965,1620C926,1608 867,1597 833,1595C778,1591 767,1594 740,1616C715,1637 710,1649 710,1684C710,1780 766,1794 896,1731ZM4158,1728C4160,1718 4153,1698 4142,1683C4112,1640 4097,1558 4104,1481C4108,1444 4107,1403 4102,1391C4094,1369 4092,1370 4070,1416C4040,1479 4032,1588 4053,1648C4063,1677 4064,1692 4057,1697C4051,1701 4059,1713 4076,1727C4109,1754 4153,1754 4158,1728ZM4224,1674C4239,1660 4251,1648 4249,1646C4247,1645 4230,1633 4212,1621C4194,1608 4166,1575 4149,1547L4119,1495L4122,1551C4127,1609 4164,1700 4183,1700C4190,1700 4208,1688 4224,1674ZM4031,1639C4005,1563 4026,1436 4078,1364C4093,1343 4112,1309 4120,1290C4142,1232 4199,1153 4247,1110C4272,1088 4291,1070 4289,1070C4262,1070 4120,1120 4058,1150C3904,1227 3792,1318 3697,1443C3638,1520 3563,1650 3577,1650C3581,1650 3605,1642 3630,1634C3725,1599 3935,1622 4005,1674C4033,1694 4045,1678 4031,1639ZM1225,1619C1219,1611 1180,1619 1180,1629C1180,1633 1186,1642 1192,1648C1202,1658 1207,1657 1217,1644C1224,1635 1227,1624 1225,1619ZM4500,1600C4536,1579 4585,1542 4608,1519C4659,1468 4710,1374 4710,1331C4710,1303 4709,1302 4681,1313C4656,1322 4646,1320 4601,1291C4535,1248 4508,1210 4502,1148C4499,1111 4502,1095 4515,1080C4539,1053 4526,1040 4475,1040C4380,1040 4227,1158 4168,1277C4130,1355 4132,1410 4179,1505C4216,1579 4259,1617 4328,1636C4390,1653 4422,1646 4500,1600ZM5390,1605C5485,1556 5481,1438 5378,1252C5315,1137 5298,1141 5275,1275C5266,1325 5253,1386 5245,1411C5238,1437 5229,1483 5225,1514C5217,1575 5230,1602 5275,1621C5299,1631 5354,1623 5390,1605ZM2899,1432C3027,1219 3383,671 3493,518L3570,411L3570,346C3570,310 3566,280 3561,280C3556,280 3499,337 3434,407C3369,478 3291,562 3260,595C3229,628 3130,734 3040,830C2951,926 2870,1012 2861,1021C2852,1029 2823,1059 2797,1087L2749,1137L2794,1190C2853,1259 2863,1293 2858,1401C2856,1450 2856,1490 2859,1490C2862,1490 2880,1464 2899,1432ZM5519,1395C5616,1345 5724,1136 5699,1046C5684,990 5608,914 5543,890C5504,876 5484,872 5476,880C5469,887 5472,890 5486,890C5519,890 5568,928 5590,969C5621,1032 5617,1066 5570,1112C5535,1147 5526,1151 5498,1146C5480,1143 5432,1134 5393,1126C5349,1118 5320,1116 5320,1122C5320,1127 5335,1150 5354,1173C5390,1218 5440,1311 5459,1373C5473,1414 5479,1416 5519,1395ZM4777,1248C4876,1198 4883,1196 4975,1192C5093,1187 5099,1173 5009,1106C4930,1048 4838,1025 4714,1033C4571,1041 4498,1094 4520,1170C4533,1216 4617,1300 4650,1300C4664,1300 4721,1277 4777,1248ZM5270,1178C5274,1160 5281,1137 5285,1128C5291,1114 5287,1110 5267,1110C5240,1110 5230,1126 5230,1169C5230,1194 5248,1225 5258,1216C5260,1213 5265,1197 5270,1178ZM1389,1082C1390,1063 1399,1037 1410,1023C1432,995 1436,970 1420,970C1396,970 1370,1035 1371,1095C1371,1138 1374,1149 1380,1135C1385,1124 1389,1100 1389,1082ZM5560,1108C5600,1065 5572,948 5515,922C5424,880 5275,920 5142,1020C5064,1080 5070,1086 5217,1094C5287,1098 5374,1107 5410,1114C5508,1134 5536,1133 5560,1108ZM1314,870L1352,809L1283,732C1042,460 877,280 869,280C837,280 893,400 981,520C1063,633 1214,858 1242,910C1252,927 1264,939 1268,936C1273,933 1293,904 1314,870ZM2511,754C2495,710 2449,587 2410,480C2343,296 2289,178 2252,137C2229,111 2187,95 2063,65C1984,45 1944,40 1910,45C1832,56 1662,145 1681,164C1683,167 1718,152 1759,133C1852,88 1931,80 2051,104C2179,130 2217,153 2258,228C2300,306 2352,457 2376,570C2391,644 2398,660 2433,695C2455,717 2486,759 2502,788C2519,817 2534,839 2537,837C2539,834 2528,797 2511,754ZM2323,609C2316,583 2291,573 2279,591C2266,611 2268,618 2288,623C2323,632 2328,630 2323,609ZM2345,549C2336,514 2325,481 2320,476C2315,471 2301,479 2287,495C2274,511 2259,520 2253,517C2247,513 2242,478 2241,438C2237,234 2207,191 2042,160C1954,142 1847,152 1778,183C1711,213 1700,230 1700,305L1700,362L1742,326C1765,306 1791,290 1800,290C1809,290 1854,319 1899,355C1945,391 1985,420 1989,420C1993,420 2003,395 2010,365C2017,335 2032,296 2042,279C2059,251 2063,249 2076,262C2089,275 2112,369 2134,502C2140,532 2149,544 2190,569C2218,586 2244,600 2248,600C2252,600 2264,586 2275,570C2302,530 2315,532 2334,581C2358,641 2364,623 2345,549ZM2106,463C2091,353 2077,290 2068,290C2056,290 2024,364 2015,411C2009,445 2010,448 2057,478C2083,496 2107,510 2109,510C2111,510 2110,489 2106,463ZM1629,449C1660,411 1662,405 1657,358C1645,259 1636,272 1574,473C1564,504 1594,491 1629,449ZM2290,371C2270,301 2235,224 2207,188C2172,144 2012,104 1901,112C1832,117 1736,153 1696,188C1665,216 1651,261 1660,300C1669,341 1669,342 1684,265L1695,205L1765,170C1832,137 1840,135 1940,135C2104,136 2203,176 2236,256C2243,273 2252,325 2255,371C2264,483 2266,489 2290,464C2310,445 2310,444 2290,371Z" style="fill:rgb(203,153,24);fill-rule:nonzero;"/>
                <path d="M2308,5193C2320,5191 2338,5191 2348,5193C2357,5196 2347,5198 2325,5197C2303,5197 2295,5195 2308,5193Z" style="fill:rgb(203,153,24);fill-rule:nonzero;"/>
                <path d="M1808,4912C1770,4889 1772,4877 1810,4898C1826,4907 1840,4918 1840,4923C1840,4932 1841,4932 1808,4912Z" style="fill:rgb(203,153,24);fill-rule:nonzero;"/>
                <path d="M3450,5173C3427,5165 3390,5128 3390,5114C3390,5107 3403,5115 3419,5131C3479,5190 3567,5160 3628,5060C3663,5002 3672,5007 3641,5068C3594,5158 3520,5198 3450,5173Z" style="fill:rgb(203,153,24);fill-rule:nonzero;"/>
                <path d="M3460,5074C3454,5060 3450,5039 3451,5027C3452,5003 3455,5009 3464,5053C3469,5072 3477,5080 3492,5080C3527,5080 3578,5041 3592,5004C3603,4973 3620,4958 3620,4978C3620,4997 3559,5070 3531,5085C3489,5106 3471,5104 3460,5074Z" style="fill:rgb(203,153,24);fill-rule:nonzero;"/>
                <path d="M3382,5065C3382,5049 3384,5043 3387,5053C3389,5062 3389,5076 3387,5083C3384,5089 3382,5082 3382,5065Z" style="fill:rgb(203,153,24);fill-rule:nonzero;"/>
                <path d="M3670,4942C3670,4938 3680,4929 3693,4921C3715,4907 3715,4907 3696,4929C3676,4951 3670,4954 3670,4942Z" style="fill:rgb(203,153,24);fill-rule:nonzero;"/>
                <path d="M3807,4893C3791,4875 3786,4857 3789,4830C3790,4822 3796,4831 3803,4850C3820,4899 3856,4902 3900,4858C3923,4836 3930,4832 3922,4847C3906,4875 3862,4910 3840,4910C3831,4910 3816,4902 3807,4893Z" style="fill:rgb(203,153,24);fill-rule:nonzero;"/>
                <path d="M3931,4804C3931,4793 3934,4790 3937,4798C3940,4805 3939,4814 3936,4817C3933,4821 3930,4815 3931,4804Z" style="fill:rgb(203,153,24);fill-rule:nonzero;"/>
                <path d="M2612,1618C2601,1600 2519,1450 2429,1285C2272,996 2173,824 2142,787C2134,778 2130,767 2134,763C2138,759 2167,785 2199,820C2258,884 2259,885 2312,885C2378,885 2417,911 2455,982C2488,1043 2520,1191 2520,1287C2520,1353 2525,1372 2580,1501C2640,1640 2652,1683 2612,1618ZM2398,1056C2393,957 2363,919 2316,953C2291,971 2303,1014 2330,1007C2350,1002 2360,1018 2360,1055C2360,1085 2380,1130 2393,1130C2398,1130 2401,1099 2398,1056Z" style="fill:rgb(203,153,24);fill-rule:nonzero;"/>
                <path d="M4655,3823C4681,3816 4718,3782 4738,3745C4751,3722 4755,3688 4755,3605C4755,3502 4756,3498 4766,3545C4795,3676 4737,3832 4661,3829C4640,3828 4639,3827 4655,3823Z" style="fill:rgb(203,153,24);fill-rule:nonzero;"/>
                <path d="M4740,3430C4740,3413 4757,3383 4763,3390C4765,3393 4761,3406 4753,3420C4746,3434 4740,3438 4740,3430Z" style="fill:rgb(203,153,24);fill-rule:nonzero;"/>
                <path d="M4806,3403C4851,3394 4900,3306 4900,3232C4900,3212 4905,3188 4910,3180C4922,3163 4914,3262 4899,3321C4887,3371 4848,3410 4813,3409C4791,3408 4790,3406 4806,3403Z" style="fill:rgb(203,153,24);fill-rule:nonzero;"/>
                <path d="M1942,2431C1744,2358 1640,2212 1652,2027C1660,1907 1717,1822 1821,1775C1875,1751 1892,1748 1956,1752C2098,1761 2239,1860 2307,1998C2341,2067 2345,2082 2345,2154C2345,2280 2293,2372 2195,2423C2136,2453 2012,2457 1942,2431ZM2191,2400C2284,2352 2332,2246 2319,2118C2309,2034 2274,1964 2205,1899C2032,1732 1799,1737 1710,1909C1664,1999 1666,2100 1715,2208C1758,2302 1821,2358 1928,2397C1985,2417 2008,2420 2081,2417C2128,2415 2177,2407 2191,2400Z" style="fill:rgb(203,153,24);fill-rule:nonzero;"/>
                <path d="M899,1953C886,1937 887,1936 903,1949C912,1956 920,1964 920,1966C920,1974 912,1969 899,1953Z" style="fill:rgb(203,153,24);fill-rule:nonzero;"/>
                <path d="M1270,4459C1263,4448 1260,4436 1263,4434C1265,4432 1272,4441 1278,4455C1292,4485 1285,4488 1270,4459Z" style="fill:rgb(203,153,24);fill-rule:nonzero;"/>
                <path d="M1228,4303C1235,4300 1244,4301 1247,4304C1251,4307 1245,4310 1234,4309C1223,4309 1220,4306 1228,4303Z" style="fill:rgb(203,153,24);fill-rule:nonzero;"/>
            </g>
        </g>
        <g id="rayquaza.svg1" serif:id="rayquaza.svg">
        </g>
    </g>
</svg>
