<?xml version="1.0" encoding="UTF-8" standalone="no"?>
<!DOCTYPE svg PUBLIC "-//W3C//DTD SVG 1.1//EN" "http://www.w3.org/Graphics/SVG/1.1/DTD/svg11.dtd">
<svg width="100%" height="100%" viewBox="0 0 636 825" version="1.1" xmlns="http://www.w3.org/2000/svg" xmlns:xlink="http://www.w3.org/1999/xlink" xml:space="preserve" xmlns:serif="http://www.serif.com/" style="fill-rule:evenodd;clip-rule:evenodd;stroke-linecap:round;stroke-linejoin:round;stroke-miterlimit:1.5;">
    <g transform="matrix(1.19005,0,0,1.19005,-1203.05,-443.962)">
        <path d="M1355.49,657.666C1372.49,665.63 1378.17,678.997 1370.53,698.734" style="fill:none;stroke:rgb(189,206,214);stroke-width:3.39px;"/>
    </g>
    <g transform="matrix(1.19005,0,0,1.19005,-1203.05,-443.962)">
        <path d="M1334.89,650.954C1339.21,654.01 1342.17,658.093 1343.88,663.112" style="fill:none;stroke:rgb(189,206,214);stroke-width:3.39px;"/>
    </g>
    <g transform="matrix(1.19005,0,0,1.19005,-1203.05,-443.962)">
        <path d="M1339.04,507.24C1331.06,510.644 1323.67,513.891 1316.1,519.569" style="fill:none;stroke:rgb(189,206,214);stroke-width:3.39px;"/>
    </g>
    <g transform="matrix(1.19005,0,0,1.19005,-1203.05,-443.962)">
        <path d="M1375.89,524.489L1396,436.076L1387.52,412.42L1366.23,432.33L1326.67,541.147" style="fill:none;stroke:rgb(189,206,214);stroke-width:3.39px;"/>
    </g>
    <g transform="matrix(1.19005,0,0,1.19005,-1203.05,-443.962)">
        <path d="M1353.42,504.382L1377.08,434.105" style="fill:none;stroke:rgb(189,206,214);stroke-width:3.39px;"/>
    </g>
    <g transform="matrix(1.19005,0,0,1.19005,-1203.05,-443.962)">
        <path d="M1420.25,552.876L1482.54,478.755L1487.67,448.397L1462.09,456.085L1387.52,524.489" style="fill:none;stroke:rgb(189,206,214);stroke-width:3.39px;"/>
    </g>
    <g transform="matrix(1.19005,0,0,1.19005,-1203.05,-443.962)">
        <path d="M1432.27,504.382L1473.47,462.787" style="fill:none;stroke:rgb(189,206,214);stroke-width:3.39px;"/>
    </g>
    <g transform="matrix(1.19005,0,0,1.19005,-1203.05,-443.962)">
        <path d="M1462.09,561.688L1522.81,536.12" style="fill:none;stroke:rgb(189,206,214);stroke-width:3.39px;"/>
    </g>
    <g transform="matrix(1.19005,0,0,1.19005,-1203.05,-443.962)">
        <path d="M1326.67,650.645L1335.07,650.954L1424.44,618.915L1530.3,549.919L1542.91,525.869L1518.27,524.489L1435.08,557.016" style="fill:none;stroke:rgb(189,206,214);stroke-width:3.39px;"/>
    </g>
    <g transform="matrix(1.19005,0,0,1.19005,-1203.05,-443.962)">
        <path d="M1289.8,561.688L1289.8,601.591L1253.17,588.251L1255.39,592.229" style="fill:none;stroke:rgb(189,206,214);stroke-width:3.39px;"/>
    </g>
    <g transform="matrix(1.19005,0,0,1.19005,-1203.05,-443.962)">
        <path d="M1261.95,601.591L1283.36,628.212" style="fill:none;stroke:rgb(189,206,214);stroke-width:3.39px;"/>
    </g>
    <g transform="matrix(1.19005,0,0,1.19005,-1203.05,-443.962)">
        <path d="M1253.17,623.526L1260.66,630.722" style="fill:none;stroke:rgb(189,206,214);stroke-width:3.39px;"/>
    </g>
    <g transform="matrix(1.19005,0,0,1.19005,-1203.05,-443.962)">
        <path d="M1359.37,561.009L1343.76,576.62L1349.79,518.407L1315.13,578.371L1302.18,554.298" style="fill:none;stroke:rgb(189,206,214);stroke-width:3.39px;"/>
    </g>
    <g transform="matrix(1.19005,0,0,1.19005,-1203.05,-443.962)">
        <path d="M1325.57,648.462L1336.13,635.636L1449.27,567.632L1380.74,582.764L1386.81,572.853" style="fill:none;stroke:rgb(189,206,214);stroke-width:3.39px;"/>
    </g>
    <g transform="matrix(1.19005,0,0,1.19005,-1203.05,-443.962)">
        <path d="M1343.76,663.888C1347.04,661.01 1350.86,658.884 1355.32,657.666C1369.3,660.51 1382.33,665.962 1394.42,674.022C1388.28,683.409 1380.75,691.955 1370.34,698.734" style="fill:none;stroke:rgb(189,206,214);stroke-width:3.39px;"/>
    </g>
    <g transform="matrix(1.19005,0,0,1.19005,-1203.05,-443.962)">
        <path d="M1384.44,778.886C1383.74,755.737 1382.45,732.634 1375.57,709.96C1369.01,694.303 1359.78,678.847 1343.77,663.899C1339.38,659.548 1334.44,656.91 1328.84,656.268C1322.85,655.857 1318.25,657.665 1315.13,661.797" style="fill:none;stroke:rgb(189,206,214);stroke-width:3.39px;"/>
    </g>
    <g transform="matrix(1.19005,0,0,1.19005,-1203.05,-443.962)">
        <path d="M1403.91,902.724C1398.83,890.185 1395.62,877.537 1394.42,864.769C1410.28,874.117 1422.84,895.183 1439.38,911.187" style="fill:none;stroke:rgb(189,206,214);stroke-width:3.39px;"/>
    </g>
    <g transform="matrix(1.19005,0,0,1.19005,-1203.05,-443.962)">
        <path d="M1314.44,891.942C1314.58,879.913 1314.21,867.164 1312.36,852.297C1311.44,844.902 1293.09,833.807 1292.1,824.866C1289.62,802.541 1289.18,780.216 1289.54,757.891C1290.4,754.502 1293.04,750 1297.17,749.986C1304.09,749.964 1309.09,751.859 1311.24,756.129C1316.14,765.845 1319.31,778.253 1323.09,791.788C1326.57,804.48 1333.04,814.81 1339.67,823.91C1347.51,831.985 1362.57,835.174 1369.37,844.249C1404.45,891.069 1426.15,951.712 1442.33,1007.89C1444.13,1014.13 1448.79,1013.94 1449.05,1007.79C1451.08,958.574 1439.38,890.364 1416.02,833.312C1403.46,826.47 1393.2,820.129 1388.09,814.911" style="fill:none;stroke:rgb(189,206,214);stroke-width:3.39px;"/>
    </g>
    <g transform="matrix(1.19005,0,0,1.19005,-1203.05,-443.962)">
        <path d="M1245.02,746.48C1256,746.856 1262.2,751.204 1265.63,757.864L1276.72,756.882C1285.46,745.121 1295.05,738.242 1305.88,738.629C1320.97,739.052 1344.43,762.781 1361.17,781.097C1367.49,788.513 1368.83,797.82 1369.07,807.545L1428.41,830.533L1396.91,780.091C1386.11,779.671 1376.04,778.082 1368.85,774.498C1337.34,748.093 1317.52,728.778 1316.59,721.357C1316.19,718.168 1316.14,714.772 1316.79,710.955C1318.89,700.645 1324.1,691.786 1332.49,684.409L1332,677.147C1319.48,669.39 1310.49,660.076 1310.33,646.872C1310.21,636.861 1319.44,625.889 1327.61,616.204C1341.63,599.521 1355.1,584.239 1362.32,579.035C1369.97,573.525 1379.73,572.609 1389.9,572.558L1423.78,507.445L1361.07,543.756C1361.17,558.276 1359.75,567.477 1354.2,573.981C1338.14,592.795 1321.6,611.475 1300.77,628.962C1295.22,632.589 1289.72,633.443 1284.28,630.434C1280.17,627.773 1276.96,624.607 1274.51,621.013L1265.68,622.191C1263.77,628.198 1259.75,633.548 1252.86,638" style="fill:none;stroke:rgb(189,206,214);stroke-width:3.39px;"/>
    </g>
    <g transform="matrix(1.19005,0,0,1.19005,-1203.05,-443.962)">
        <path d="M1231.65,755.158C1234.1,758.348 1235.09,762.089 1234.94,766.255" style="fill:none;stroke:rgb(189,206,214);stroke-width:3.39px;"/>
    </g>
    <g transform="matrix(1.19005,0,0,1.19005,-1203.05,-443.962)">
        <path d="M1305.88,957.044L1331.14,938.405L1345.95,941.171" style="fill:none;stroke:rgb(189,206,214);stroke-width:3.39px;"/>
    </g>
    <g transform="matrix(1.19005,0,0,1.19005,-1203.05,-443.962)">
        <path d="M1270.64,806.302C1281.91,845.261 1304.76,892.744 1331.03,938.414L1336.95,1019.81" style="fill:none;stroke:rgb(189,206,214);stroke-width:3.39px;"/>
    </g>
    <g transform="matrix(1.19005,0,0,1.19005,-1203.05,-443.962)">
        <path d="M1287.52,936.127L1309.43,928.093" style="fill:none;stroke:rgb(189,206,214);stroke-width:3.39px;"/>
    </g>
    <g transform="matrix(1.19005,0,0,1.19005,-1203.05,-443.962)">
        <path d="M1249.2,959.132L1272.43,959.872C1280.57,951.591 1286.1,943.618 1287.52,936.127C1279.26,912.658 1272.71,892.035 1268,874.486L1309.43,927.464C1307.28,955.531 1301.21,983.599 1293.15,1011.67L1249.2,959.132Z" style="fill:none;stroke:rgb(189,206,214);stroke-width:3.39px;"/>
    </g>
    <g transform="matrix(1.19005,0,0,1.19005,-1203.05,-443.962)">
        <path d="M1199.67,953.66L1244.62,943.401L1287.52,936.127" style="fill:none;stroke:rgb(189,206,214);stroke-width:3.39px;"/>
    </g>
    <g transform="matrix(1.19005,0,0,1.19005,-1203.05,-443.962)">
        <path d="M1169.61,783.998C1189.95,777.293 1226.81,769.818 1265.91,789.793" style="fill:none;stroke:rgb(189,206,214);stroke-width:3.39px;"/>
    </g>
    <g transform="matrix(1.19005,0,0,1.19005,-1203.05,-443.962)">
        <path d="M1164.8,774.976C1196.69,827.796 1221.16,886.059 1245.7,944.27L1268,1037.25L1199.46,953.835C1194.43,901.437 1189.62,844.377 1182.6,833.751" style="fill:none;stroke:rgb(189,206,214);stroke-width:3.39px;"/>
    </g>
    <g transform="matrix(1.19005,0,0,1.19005,-1203.05,-443.962)">
        <path d="M1249.06,724.119C1235.18,725.856 1222.38,730.827 1210.41,738.317C1222.32,757.022 1241.65,774.078 1266.5,789.907C1271.3,819.488 1298.48,870.442 1345.95,940.768L1337.32,1020.76L1305.5,959.283" style="fill:none;stroke:rgb(189,206,214);stroke-width:3.39px;"/>
    </g>
    <g transform="matrix(1.19005,0,0,1.19005,-1203.05,-443.962)">
        <path d="M1168.98,784.432C1164.65,790.61 1162.19,797.608 1161.6,805.427" style="fill:none;stroke:rgb(189,206,214);stroke-width:3.39px;"/>
    </g>
    <g transform="matrix(1.19005,0,0,1.19005,-1203.05,-443.962)">
        <path d="M1143.39,755.089C1154.58,768.695 1162.15,784.657 1161.58,805.909C1169.6,812.897 1176.61,822.402 1182.86,833.8C1179.13,811.223 1173.52,791.085 1164.8,774.976" style="fill:none;stroke:rgb(189,206,214);stroke-width:3.39px;"/>
    </g>
    <g transform="matrix(1.19005,0,0,1.19005,-1203.05,-443.962)">
        <path d="M1110.94,796.646L1141.05,749.146" style="fill:none;stroke:rgb(189,206,214);stroke-width:3.39px;"/>
    </g>
    <g transform="matrix(1.19005,0,0,1.19005,-1203.05,-443.962)">
        <path d="M1174.06,1059.07L1173.67,991.197C1171,948.766 1171.39,905.532 1174.12,861.681C1166.72,848.121 1161.25,833.921 1158.11,818.941C1159.99,815.17 1161.92,811.459 1166.48,810.956" style="fill:none;stroke:rgb(189,206,214);stroke-width:3.39px;"/>
    </g>
    <g transform="matrix(1.19005,0,0,1.19005,-1203.05,-443.962)">
        <path d="M1155.53,996.75C1162.76,997.13 1168.8,995.261 1173.67,991.197C1179.98,992.188 1187.27,992.036 1195.15,991.197" style="fill:none;stroke:rgb(189,206,214);stroke-width:3.39px;"/>
    </g>
    <g transform="matrix(1.19005,0,0,1.19005,-1203.05,-443.962)">
        <path d="M1112.99,996.922C1116,1016.6 1122.76,1033.38 1131.52,1048.61C1142.07,1035.41 1149.42,1015.71 1155.53,996.75" style="fill:none;stroke:rgb(189,206,214);stroke-width:3.39px;"/>
    </g>
    <g transform="matrix(1.19005,0,0,1.19005,-1203.05,-443.962)">
        <path d="M1096,995.222C1096.32,993.288 1098.18,992.439 1101.75,992.782C1105.55,993.332 1109.06,995.794 1112.71,996.685C1116.21,997.539 1120.19,997.579 1124.66,996.807C1129.66,995.628 1132.54,993.677 1133.96,991.197L1145.4,933.877L1156.01,999.002L1174.06,1059.07L1195.15,991.197C1186.22,950.618 1179.38,909.199 1173.69,867.319" style="fill:none;stroke:rgb(189,206,214);stroke-width:3.39px;"/>
    </g>
    <g transform="matrix(1.19005,0,0,1.19005,-1203.05,-443.962)">
        <path d="M1054.16,975.465L1096.4,984.367L1133.96,991.197" style="fill:none;stroke:rgb(189,206,214);stroke-width:3.39px;"/>
    </g>
    <g transform="matrix(1.19005,0,0,1.19005,-1203.05,-443.962)">
        <path d="M1100.85,826.498C1102.4,868.546 1101.93,910.391 1099.46,952.037C1095.9,1002.33 1091.55,1047.77 1082.35,1063.78C1070.48,1035.77 1060.8,1006.58 1054.16,975.748L1079.79,918.768L1101.62,856.545" style="fill:none;stroke:rgb(189,206,214);stroke-width:3.39px;"/>
    </g>
    <g transform="matrix(1.19005,0,0,1.19005,-1203.05,-443.962)">
        <path d="M1104.49,830.609C1102.03,820.049 1099.55,810.302 1093.84,801.041C1075.45,771.256 1063.35,737.319 1045.56,706.769C1049.42,707.146 1052.28,709.023 1054.93,711.211C1070.25,743.598 1088.13,775.702 1108.49,807.369" style="fill:none;stroke:rgb(189,206,214);stroke-width:3.39px;"/>
    </g>
    <g transform="matrix(1.19005,0,0,1.19005,-1203.05,-443.962)">
        <path d="M1106.02,803.59L1111.2,796.204L1120.07,819.351L1104.67,845.56C1101.74,836.219 1099.94,827.251 1101.34,819.351" style="fill:none;stroke:rgb(189,206,214);stroke-width:3.39px;"/>
    </g>
    <g transform="matrix(1.19005,0,0,1.19005,-1203.05,-443.962)">
        <path d="M1156.11,705.514C1156.16,709.622 1155.51,713.851 1153.22,716.908" style="fill:none;stroke:rgb(189,206,214);stroke-width:3.39px;"/>
    </g>
    <g transform="matrix(1.19005,0,0,1.19005,-1203.05,-443.962)">
        <path d="M1178.36,655.31C1168.06,667.118 1156.27,676.978 1142.48,684.196C1142.33,689.407 1143.56,694.124 1145.98,698.418C1152.1,701.284 1157.52,705.48 1161.62,712.203" style="fill:none;stroke:rgb(189,206,214);stroke-width:3.39px;"/>
    </g>
    <g transform="matrix(1.19005,0,0,1.19005,-1203.05,-443.962)">
        <path d="M1230.93,640.006C1222.27,643.895 1209.67,652.013 1206.2,658.92C1201.46,668.389 1199.5,675.383 1199.42,687.478" style="fill:none;stroke:rgb(189,206,214);stroke-width:3.39px;"/>
    </g>
    <g transform="matrix(1.19005,0,0,1.19005,-1203.05,-443.962)">
        <path d="M1138.9,724.119C1160.69,713.851 1180.99,701.407 1200.25,687.459C1205.64,682.778 1210.23,676.948 1214.02,669.968C1218.43,663.919 1223,658.119 1229.5,655.31C1246.3,663.751 1258.66,678.857 1265.97,701.546" style="fill:none;stroke:rgb(189,206,214);stroke-width:3.39px;"/>
    </g>
    <g transform="matrix(1.19005,0,0,1.19005,-1203.05,-443.962)">
        <path d="M1138.9,733.982L1138.9,724.119L1163.39,745.053L1164.8,774.976L1141.78,753.439L1141.11,748.609" style="fill:none;stroke:rgb(189,206,214);stroke-width:3.39px;"/>
    </g>
    <g transform="matrix(1.19005,0,0,1.19005,-1203.05,-443.962)">
        <path d="M1151.85,758.386C1125.69,733.67 1095.84,713.386 1067.64,692.839C1047.58,678.222 1030.1,661.209 1012.61,645.287C1014.04,644.069 1019.93,644.793 1029.65,647.18C1063.75,678.108 1101.12,707.891 1142.43,736.293" style="fill:none;stroke:rgb(189,206,214);stroke-width:3.39px;"/>
    </g>
    <g transform="matrix(1.19005,0,0,1.19005,-1203.05,-443.962)">
        <path d="M1252.51,637.882C1260.27,643.612 1270.03,647.778 1285.12,647.752C1295.9,657.121 1302.26,669.177 1304.15,683.949C1304.91,689.022 1304.95,693.933 1304.15,698.657C1301.07,715.92 1292.21,730.186 1275.71,740.476C1269.67,743.375 1258.66,739.977 1251.13,743.352C1241.28,747.771 1233.75,752.921 1227.21,758.386" style="fill:none;stroke:rgb(189,206,214);stroke-width:3.39px;"/>
    </g>
    <g transform="matrix(1.19005,0,0,1.19005,-1203.05,-443.962)">
        <path d="M1245.25,628.011C1251.57,639.32 1261.72,647.317 1275.71,652.001" style="fill:none;stroke:rgb(189,206,214);stroke-width:3.39px;"/>
    </g>
    <g transform="matrix(1.19005,0,0,1.19005,-1203.05,-443.962)">
        <path d="M1227.4,596.599L1256.39,592.856C1261.7,592.008 1265.57,616.015 1259.74,619.877L1233.61,633.768C1222.89,623.801 1221.78,611.141 1227.4,596.599Z" style="fill:none;stroke:rgb(189,206,214);stroke-width:3.39px;"/>
    </g>
    <g transform="matrix(1.19005,0,0,1.19005,-1203.05,-443.962)">
        <path d="M1256.39,592.856C1253.86,594.248 1256.48,621.725 1259.74,619.877" style="fill:none;stroke:rgb(189,206,214);stroke-width:3.39px;"/>
    </g>
    <g transform="matrix(1.19005,0,0,1.19005,-1203.05,-443.962)">
        <path d="M1178.34,608.429L1187.03,607.992L1209.04,561.865" style="fill:none;stroke:rgb(189,206,214);stroke-width:3.39px;"/>
    </g>
    <g transform="matrix(1.19005,0,0,1.19005,-1203.05,-443.962)">
        <path d="M1163.53,607.992L1176.67,569.022" style="fill:none;stroke:rgb(189,206,214);stroke-width:3.39px;"/>
    </g>
    <g transform="matrix(1.19005,0,0,1.19005,-1203.05,-443.962)">
        <path d="M1119.37,550.799L1158.58,537.231L1174.88,561.843" style="fill:none;stroke:rgb(189,206,214);stroke-width:3.39px;"/>
    </g>
    <g transform="matrix(1.19005,0,0,1.19005,-1203.05,-443.962)">
        <path d="M1133.18,546.02L1144.85,569.022L1205.52,555.138L1179.71,561.045L1161.42,534.47" style="fill:none;stroke:rgb(189,206,214);stroke-width:3.39px;"/>
    </g>
    <g transform="matrix(1.19005,0,0,1.19005,-1203.05,-443.962)">
        <path d="M1154.56,532.734L1177.83,528.632L1205.52,554.744L1243.68,525.398L1295.76,527.528L1261.53,556.321L1207.39,561.843L1145.37,575.254L1135.58,609.373" style="fill:none;stroke:rgb(189,206,214);stroke-width:3.39px;"/>
    </g>
    <g transform="matrix(1.19005,0,0,1.19005,-1203.05,-443.962)">
        <path d="M1160.75,526.285L1179.68,523.997L1206.5,547.821L1242.3,520.763L1308.68,522.735L1264.03,561.843L1213.7,565.472L1190.57,612.765L1188.67,633.768L1184.41,613.021C1183.34,610.102 1181.63,608.551 1179.29,608.367L1165.9,609.373" style="fill:none;stroke:rgb(189,206,214);stroke-width:3.39px;"/>
    </g>
    <g transform="matrix(1.19005,0,0,1.19005,-1203.05,-443.962)">
        <path d="M1174.88,649.625L1162.95,648.79C1159.26,645.246 1156.53,641.828 1155.97,638.69C1155.46,634.665 1155.55,630.641 1156.16,626.616C1160.51,622.673 1165.78,619.38 1172.86,617.361" style="fill:none;stroke:rgb(189,206,214);stroke-width:3.39px;"/>
    </g>
    <g transform="matrix(1.19005,0,0,1.19005,-1203.05,-443.962)">
        <path d="M1161.38,509.12C1161.88,514.582 1161.91,520.177 1161.01,526.041C1156.1,527.571 1152.5,530.026 1150.4,533.561C1145.73,535.597 1141.86,538.269 1139.2,541.909L1117.89,551.723C1115.01,553.387 1113.21,555.701 1112.33,558.567C1112.27,567.49 1111.86,575.941 1111.2,584.062C1116.7,593.237 1123.62,601.703 1131.13,609.876L1160.84,608.146C1167.27,609.345 1171.1,612.274 1172.72,616.682C1177.81,630.405 1178.31,647.812 1170.36,663.742" style="fill:none;stroke:rgb(189,206,214);stroke-width:3.39px;"/>
    </g>
    <g transform="matrix(1.19005,0,0,1.19005,-1203.05,-443.962)">
        <path d="M1267.06,503.915C1266.52,494.822 1266.54,485.769 1271.05,477.022C1283.84,480.169 1290.4,487.827 1294.04,497.609" style="fill:none;stroke:rgb(189,206,214);stroke-width:3.39px;"/>
    </g>
    <g transform="matrix(1.19005,0,0,1.19005,-1203.05,-443.962)">
        <path d="M1203.11,505.399L1240.05,479.128C1241.78,477.765 1240.67,475.862 1237.42,476.823L1198.66,489.315" style="fill:none;stroke:rgb(189,206,214);stroke-width:3.39px;"/>
    </g>
    <g transform="matrix(1.19005,0,0,1.19005,-1203.05,-443.962)">
        <path d="M1201.95,413.142C1214.1,410.159 1229.72,407.579 1244.73,407.17" style="fill:none;stroke:rgb(189,206,214);stroke-width:3.39px;"/>
    </g>
    <g transform="matrix(1.19005,0,0,1.19005,-1203.05,-443.962)">
        <path d="M1249.01,406.097L1223.06,413.818L1198.08,413.335L1166.53,427.969" style="fill:none;stroke:rgb(189,206,214);stroke-width:3.39px;"/>
    </g>
    <g transform="matrix(1.19005,0,0,1.19005,-1203.05,-443.962)">
        <path d="M1251.68,417.151L1263.82,414.878L1274.28,403.34" style="fill:none;stroke:rgb(189,206,214);stroke-width:3.39px;"/>
    </g>
    <g transform="matrix(1.19005,0,0,1.19005,-1203.05,-443.962)">
        <path d="M1260.37,405.312L1222.94,453.631L1204.87,462.852C1200.32,465.166 1197.73,469.714 1197.09,476.497C1198.33,493.161 1201.15,506.48 1207.13,513.09C1211.09,516.427 1214.84,516.68 1218.52,515.825L1295.03,497.631C1299.85,496.677 1303.18,497.022 1305.76,498.023L1316.1,519.752C1317.24,527.969 1317.82,536.37 1317.28,545.145L1248.3,585.264C1244.94,587.33 1243.25,589.952 1242.41,592.856" style="fill:none;stroke:rgb(189,206,214);stroke-width:3.39px;"/>
    </g>
    <g transform="matrix(1.19005,0,0,1.19005,-1203.05,-443.962)">
        <path d="M1147.28,458.892C1147.72,464.878 1150.61,468.699 1157.19,469.253" style="fill:none;stroke:rgb(189,206,214);stroke-width:3.39px;"/>
    </g>
    <g transform="matrix(1.19005,0,0,1.19005,-1203.05,-443.962)">
        <path d="M1149.96,457.618C1152.53,465.991 1161.65,466.063 1160.63,454.777L1152.85,457.029C1153,458.648 1154.54,460.437 1155.75,459.602C1157.09,458.673 1157.42,457.701 1157.19,455.771" style="fill:none;stroke:rgb(189,206,214);stroke-width:3.39px;"/>
    </g>
    <g transform="matrix(1.19005,0,0,1.19005,-1203.05,-443.962)">
        <path d="M1179.97,484.81L1191.53,507.848C1184.76,478.98 1185.75,452.268 1214.21,433.186L1255.47,407.845C1260.49,403.964 1268.15,402.441 1278.19,403.028L1311.34,374.755L1271.96,382.922L1256.99,401.038C1237.99,413.323 1218.47,424.87 1197.51,434.361C1190.83,435.921 1184.99,436.303 1179.71,435.908" style="fill:none;stroke:rgb(189,206,214);stroke-width:3.39px;"/>
    </g>
    <g transform="matrix(1.19005,0,0,1.19005,-1203.05,-443.962)">
        <path d="M1167.17,453.631C1154.96,455.411 1144.62,459.139 1135.7,464.35C1136.11,469.818 1136,475.381 1134.84,481.135" style="fill:none;stroke:rgb(189,206,214);stroke-width:3.39px;"/>
    </g>
    <g transform="matrix(1.19005,0,0,1.19005,-1203.05,-443.962)">
        <path d="M1125.14,450.632L1049.85,428.537L1116.65,464.35" style="fill:none;stroke:rgb(189,206,214);stroke-width:3.39px;"/>
    </g>
    <g transform="matrix(1.19005,0,0,1.19005,-1203.05,-443.962)">
        <path d="M1147.98,434.361C1134.19,440.215 1124.85,448.71 1120.05,460.696C1117.43,463.242 1116.32,465.729 1116.73,468.511C1121.53,467.882 1124.83,469.934 1126.54,474.794L1125.87,483.423" style="fill:none;stroke:rgb(189,206,214);stroke-width:3.39px;"/>
    </g>
    <g transform="matrix(1.19005,0,0,1.19005,-1203.05,-443.962)">
        <path d="M1148.07,434.361C1138.88,444.226 1125.75,451.675 1120.05,460.696C1128.4,456.182 1137.27,452.222 1147.41,449.675C1150.96,447.889 1153.76,445.466 1156.05,442.607" style="fill:none;stroke:rgb(189,206,214);stroke-width:3.39px;"/>
    </g>
    <g transform="matrix(1.19005,0,0,1.19005,-1203.05,-443.962)">
        <path d="M1125.16,483.966C1141.15,480.353 1154.46,473.058 1165.87,463.154C1167.29,459.489 1167.64,455.824 1166.92,452.159L1088.25,378.007L1191.53,443.847C1186.43,457.417 1182.83,470.986 1180.53,484.555C1170.4,486.508 1161.19,489.969 1161.42,509.033C1159.3,510.001 1157.66,511.264 1156.97,513.09C1141.03,511.471 1128.24,504.09 1119.01,490.184C1120.29,487.267 1122.3,484.613 1125.16,483.966Z" style="fill:none;stroke:rgb(189,206,214);stroke-width:3.39px;"/>
    </g>
    <g transform="matrix(1.19005,0,0,1.19005,-1203.05,-443.962)">
        <path d="M1206.92,512.608C1223.36,505.983 1238.91,502.025 1253.78,500.976C1252.09,504.369 1249.35,507.126 1245.52,509.232" style="fill:none;stroke:rgb(189,206,214);stroke-width:3.39px;"/>
    </g>
    <g transform="matrix(1.19005,0,0,1.19005,-1203.05,-443.962)">
        <path d="M1456.01,548.904C1451.42,542.604 1445.63,536.906 1438.1,532.078" style="fill:none;stroke:rgb(189,206,214);stroke-width:3.39px;"/>
    </g>
    <g transform="matrix(1.19005,0,0,1.19005,-1203.05,-443.962)">
        <path d="M1402.76,510.232C1395.31,506.896 1387.95,504.298 1380.77,503.104" style="fill:none;stroke:rgb(189,206,214);stroke-width:3.39px;"/>
    </g>
</svg>
