<?xml version="1.0" encoding="UTF-8" standalone="no"?>
<!DOCTYPE svg PUBLIC "-//W3C//DTD SVG 1.1//EN" "http://www.w3.org/Graphics/SVG/1.1/DTD/svg11.dtd">
<svg width="100%" height="100%" viewBox="0 0 20 20" version="1.1" xmlns="http://www.w3.org/2000/svg" xmlns:xlink="http://www.w3.org/1999/xlink" xml:space="preserve" xmlns:serif="http://www.serif.com/" style="fill-rule:evenodd;clip-rule:evenodd;stroke-linejoin:round;stroke-miterlimit:2;">
    <g transform="matrix(-0.298841,-3.65975e-17,3.65975e-17,-0.298841,52.4385,440.318)">
        <path d="M174.633,1414.58C174.633,1410.58 171.384,1407.33 167.383,1407.33L152.884,1407.33C148.883,1407.33 145.635,1410.58 145.635,1414.58L145.635,1429.08C145.635,1433.08 148.883,1436.33 152.884,1436.33L167.383,1436.33C171.384,1436.33 174.633,1433.08 174.633,1429.08L174.633,1414.58Z" style="fill:rgb(160,201,255);"/>
    </g>
    <g transform="matrix(-0.298841,-3.65975e-17,3.65975e-17,-0.298841,52.4385,429.486)">
        <path d="M174.633,1414.58C174.633,1410.58 171.384,1407.33 167.383,1407.33L152.884,1407.33C148.883,1407.33 145.635,1410.58 145.635,1414.58L145.635,1429.08C145.635,1433.08 148.883,1436.33 152.884,1436.33L167.383,1436.33C171.384,1436.33 174.633,1433.08 174.633,1429.08L174.633,1414.58Z" style="fill:rgb(87,144,218);"/>
    </g>
    <g transform="matrix(0.298841,0,0,0.672393,-32.4385,-946.029)">
        <path d="M174.633,1410.55C174.633,1408.78 171.384,1407.33 167.383,1407.33L152.884,1407.33C148.883,1407.33 145.635,1408.78 145.635,1410.55L145.635,1433.11C145.635,1434.89 148.883,1436.33 152.884,1436.33L167.383,1436.33C171.384,1436.33 174.633,1434.89 174.633,1433.11L174.633,1410.55Z" style="fill:rgb(12,98,210);"/>
    </g>
</svg>
