<?xml version="1.0" encoding="UTF-8" standalone="no"?>
<!DOCTYPE svg PUBLIC "-//W3C//DTD SVG 1.1//EN" "http://www.w3.org/Graphics/SVG/1.1/DTD/svg11.dtd">
<svg width="100%" height="100%" viewBox="0 0 155 100" version="1.1" xmlns="http://www.w3.org/2000/svg" xmlns:xlink="http://www.w3.org/1999/xlink" xml:space="preserve" xmlns:serif="http://www.serif.com/" style="fill-rule:evenodd;clip-rule:evenodd;stroke-linejoin:round;stroke-miterlimit:2;">
    <g transform="matrix(1.92316,0,0,1.92585,-33.8467,-75.1045)">
        <path d="M19.529,90.923L31.532,90.923L48.223,51.977L52.297,42.469C53.118,40.554 52.093,38.998 50.009,38.998L38.95,38.998L17.812,88.319C17.196,89.756 17.965,90.923 19.529,90.923Z" style="fill:rgb(73,73,73);fill-rule:nonzero;"/>
    </g>
    <g transform="matrix(1.92316,0,0,1.92463,-33.8467,-75.0568)">
        <path d="M41.643,90.956L53.647,90.956L74.412,42.502C75.233,40.587 74.209,38.998 72.125,38.998L61.068,38.998L39.927,88.352C39.311,89.789 40.08,90.956 41.643,90.956Z" style="fill:rgb(73,73,73);fill-rule:nonzero;"/>
    </g>
    <g transform="matrix(1.92316,0,0,1.92463,-33.8467,-75.0568)">
        <path d="M98.196,90.956L86.193,90.956C84.63,90.956 82.86,89.765 82.243,88.329L61.068,38.998L72.169,38.998C74.253,38.994 76.61,40.562 77.431,42.478L98.196,90.956Z" style="fill:rgb(41,41,41);fill-rule:nonzero;"/>
    </g>
    <g transform="matrix(1.92316,0,0,1.92615,-76.3851,-75.1468)">
        <path d="M98.196,90.931L86.193,90.931C84.63,90.931 82.86,89.765 82.243,88.329L61.069,39.014L72.167,39.014C74.251,39.01 76.61,40.562 77.431,42.478L98.196,90.931Z" style="fill:rgb(41,41,41);fill-rule:nonzero;"/>
    </g>
</svg>
